<svg xmlns="http://www.w3.org/2000/svg" viewBox="0 0 180.7 119.6"><path d="M64.2 48.6c-1 .2-2.1.5-3.1.5-1.4 0-2.8-.1-4.1-.3-.3-1-.5-2.1-.3-3.1-.1-3.5-.1-6.8-.1-10.5 0-1.6-.1-4.1-.1-6.1V25c-.7 1.6-.9 3.5-1.6 5.2-.5 2-1.2 3.8-1.8 5.6l-.3 1.4a26.27 26.27 0 0 0-.8 3c-.2 1-.7 2.2-1 3.5-.5.1-.9.2-1.4.2-1.5.2-3 .2-4.6.1-.1-.2 0-.2.2-.5-.1-.1-.2 0-.2-.2-.8-3.5-2.1-6.1-2.9-9.2-.2-.8-.5-1.7-.7-2.4-.1-.3-.2-.6-.2-.9L39 24.6c-.1.7-.2 1.5-.1 2.2 0 .9-.2 1.6-.2 2.6 0 2.4.1 4.8.3 7.5a80.1 80.1 0 0 1 0 12c-.2.2-.2-.1-.5-.1-1.2.2-2.4.3-3.6.3-1.2-.2-2.2-.3-3.3-.3-.1-1 .1-2.1.1-3.2s-.1-2.2-.1-3.1c0-.8.1-1.6.1-2.4 0-2-.2-3.9-.2-5.9-.1-1.4 0-2.8.1-4.1-.2-3.8 0-7.4-.2-11.4 0-.5.1-1.2.1-1.8v-1.6c0-.1 0-.2.1-.3-.2-.3-.2-1.2-.2-1.6 0-1.2-.2-2.4-.2-3.7s0-2.6.1-3.8c.2-.2.5-.1.7-.1 1 0 2-.1 3-.3.7-.1 1.4 0 2.2 0 1 0 2.1.1 3 .5.3 0 .8 0 1.2.1.2.6.3 1.3.5 1.8.2.2.2.5.3.8.2.3.3.8.3 1.3.3.7.7 1.5.8 2.3.8 3 1.5 5.9 2.4 8.9s1.8 5.8 2.3 8.9c.2-.5.5-1.2.6-1.8.5-1.4.8-2.8 1.2-4.3 0-.2.2-.1.1-.2-.1.1-.1 0-.1-.1l1.5-5.1c.7-1.8.9-3.7 1.4-5.4.8-2.3 1.5-4.8 2-7.3.5 0 .6-.2 1-.3h.2c.2 0 .2-.1.2-.1.5-.1.8-.1 1.3-.1.3 0 .7-.1 1-.1 1-.1 2.2 0 3.2.2 1 0 2 .2 2.9.5.1 1.3-.2 2.8-.2 4.1 0 .5.2.8 0 1.3.2 1.5.2 3 0 4.4 0 .3.1.7.1 1-.1.2-.1.6-.1.8.2 3.1-.1 5.9.1 8.5.2 3.5-.2 6.6 0 9.6 0 .5.1 1 .1 1.5 0 .7-.2 1.3-.1 1.7.1.2.2.1.2.3s-.2.5-.2.7c0 .9.2 1.7.2 2.6-.4 1.8-.3 4.1-.4 6.1zm-23-41.1c-.1 0-.1.2 0 .2 0-.2.5.1.3-.1-.1.1-.1.1-.1 0v-.1h-.2zm.3 1.3c0 .1-.1 0-.1.2.1 0 .2 0 .2-.1s-.1-.1-.1-.1h0zm36.1 2.5l-.1 5.8-.2 5.9-.1 5.9c-.1 3.2.1 6.7 0 10.1l-.1 6.9c0 .7 0 1.5.1 2.2.1.3.3.3.2.7-.9.1-2 .1-2.9 0-1.2-.1-2.3-.2-3.3-.1-.3.1-.6.2-.8.1a3.34 3.34 0 0 1-.1-1.7v-3.8c0-1.4.1-3.2 0-4.8l-.2-8.3c0-1.6.1-3.1.1-4.6V21c0-.6.1-1 .1-1.5-.1-2.2 0-4.3 0-6.4-.1-.8.1-1.8.1-2.6 0-.3-.1-.6-.1-.9V7.4c.1-.6.1-1.2 0-1.7.2 0 .2-.2.2-.5 2.1.2 4.8-.1 7 .2-.1.2.2.1.3.2-.2 1.8-.2 3.7-.2 5.7zm27 37.7c-1.5.2-3.7-.3-4.9-.2-.3-.7-.7-1.4-.9-2.1-.5.5-.9.9-1.5 1.3l-.6.2c-.2.1-.3.2-.6.3l-.5.1c-.5.2-1 .3-1.5.5a4.3 4.3 0 0 1-1.2.2c-1 .1-2 .1-3 .1-1-.2-2.1-.7-3-1.2s-1.7-1.2-2.5-1.7c-.8-1.2-1.3-2.3-1.6-3.7v-.7l-.2-.5v-1.3c0-.5 0-.9.1-1.4.3-1.7 1.2-3.3 2.3-4.6.5 0 .8-.5 1.2-.7 1.2-.8 2.3-1.6 3.7-2.2 1.3-.6 2.8-.9 4.1-1.5 1-.5 2.2-.8 3.3-1 .3-1.4.1-4.1-1.4-4.5-.9-.8-2.2-1-3.3-.7-.3.1-.7.2-1 .5-.5.2-.9.7-1.2 1.2a3.88 3.88 0 0 0-.8 2.8c0 .2.2.3.2.7-.9.2-1.8.2-2.8 0l-3.8-.2-.5-.3c0-3.2.3-5.8 2-7.6.2-.2.8-.6 1-.8.2-.3.5-.6.8-.8.2-.2.5-.3.7-.6l.5-.1c.1-.1.2-.3.5-.3l.7-.2c1.3-.3 2.5-.6 3.8-.6.2 0 .1.1.2-.1 1.7 0 3.6.2 5.2.9.8.2 1.5.6 2.2.9.6.6 1.3 1 2 1.5.3.2.6.6.9.9.2.3.2.8.6 1.2.6 2.3.8 4.6.8 6.9v7l-.1 6.6.1 2.1.1 2.2v.6s0 .5-.1.9zm-7.4-14h0c-2.3.7-4.7 1.2-6.4 2.6-.3.8-.9 1.5-.7 2.5.1.7.5 1.3 1 1.6 1.8 1.3 4.6.5 5.9-.9.6-1.5.2-3.7.2-5.8zm34.1-27.2c0 .7.2 1.5.1 2.2s.1 1.5 0 2.3l-.2 4.7.1 4.5c-.1 2.8.1 5.6.2 8.4.1 1.3 0 2.6-.1 3.8s-.1 2.4 0 3.6v10.5c.1.3.1.8.1 1.2-1.8.1-3.7 0-5.4-.5-.2-.7-.5-1.4-.6-2.2-.2.1-.2.3-.5.5-.2.3-.6.6-.9.8-.2.2-.2.3-.5.5-1 .7-2.2 1-3.3 1.2a14.4 14.4 0 0 1-5.8-.9 6.37 6.37 0 0 1-1.8-1c-.6-.3-1.2-.7-1.6-1.2-.2-.2-.3-.5-.5-.8-.2-.2-.5-.6-.7-.9-.5-2-.8-3.9-.8-5.9-.2-1.7-.2-3.6-.1-5.3-.2-1.6-.2-3.2-.1-4.7.1-1.2.3-2.3.6-3.6.1-.9.5-1.7 1.2-2.4 1.3-2.8 3.8-4.8 6.8-5.4 2.2 0 4.4.6 6.2 1.8l.1-5.8.1-3.9c0-1.3 0-2.4.2-3.7.6-.2 1-.1 1.4-.2l5.6.2c.5.6.2 1.3.2 2.2zm-13.9 18.1l-.3.9c-.5.9-.6 1.8-.6 2.9l.1 5.4c0 1.4.1 2.8.3 4.1.1 1 .5 2 1 2.8.7.3 1.5.6 2.3.6.3-.2.5 0 .8 0 .6-.1 1-.3 1.5-.8.2-.3.5-.7.6-1l.1-.1c.2-.2.3-.6.6-.8.3-1.2.5-2.4.3-3.7 0-1.4.1-2.9-.1-4.3-.1-2-.1-4.4-1-6.1-.1-.1-.2-.2-.2-.3-.6-.5-1.3-.8-2-1h-.3c-.3-.2-.8-.2-1.2-.2-.9.1-1.6.8-1.9 1.6zm27.4-5.5l.3 8.4-.1 5.2-.2 5.9.1 8.4c-.2.1-.2.3-.3.5-2.2.2-4.4.2-6.4 0-.5.5-.8-.1-.9-.7-.1-1 .1-2.1.1-3.1l-.2-7v-4.8c0-1.3 0-2.6.2-3.9v-3.7c0-1.3.2-2.3.2-3.5l.1-4.3a13.84 13.84 0 0 1 6.4 0c.1 0 .2.1.2.2.2-.1.2 0 .5 0-.2.8.1 1.7 0 2.4zm.2-10.5a14.28 14.28 0 0 1-.3 2.9c-.1 0-.2 0-.2.1-.3-.1-.7-.1-1-.1h-.9c-.1 0-.3-.1-.5-.1l-4.7-.2.1-6.6c.1-.2.3-.2.2-.3 2.3-.2 4.7-.1 7 .1l.3 4.2z" fill="#ffdd15"/><g fill="#404041"><path d="M66.2 44.9c-.1 1.3-.1 2.5-.1 3.8 0 .5.1 1.2-.1 1.3s-.5.1-.6.1l-1.3.3c-1.3.2-3.1.2-4.3.5-1.3-.6-2.3-1.4-3.2-2.4 0-.6-.1-1-.2-1.6-.1-.9 0-1.8 0-2.8l-.1-10.7c-1 3.9-2.4 7.5-3.6 11.4-1.2.2-2.5.5-3.8.7-.3.1-.7 0-.9.1s-.2.2-.5.3c-.2.1-.6-.5-1-.5-.5-.5-1-.8-1.5-1.3a.55.55 0 0 0-.5-.3c-.1-.1 0-.2.1-.3h.1c-.1-.1-.2 0-.2-.2-.7-2.8-1.6-5.5-2.4-7.9-.2-.6-.2-1.2-.5-1.7-.5-1-.8-2.2-1-3.3.2 2.8.2 5.4.2 8.1.1.9-.1 1.8 0 2.8l.3 5.9c0 1.2-.2 2.2-.2 3.3-1.8.2-3.7.5-5.5.5-.2 0-.3.1-.6.1-.2-.1-.3-.1-.5-.1-.6-.2-1-.6-1.6-.9-.2-.2-.5-.3-.7-.5-.2-.3-.6-.6-1-.7.2-2.6-.1-5.9.1-8.7-.2-1.3-.1-2.9-.2-4.3 0-1.3.1-2.5 0-3.8-.1-2.2 0-4.1 0-6.3.1-1.2-.1-2.3-.1-3.6.1-2.2-.1-4.5.1-7.1-.1-.3-.2-.7-.2-1l-.1-2.6V9c0-1 0-2 .1-3 1-.1 2.4-.2 3.7-.3h1.4c.7-.1 1.4-.1 2.1 0 .9.2 1.8.3 2.9.5.5 1 .7 2.3 1 3.2 0 .1 0 .1.1.1 0 .3.1.7.3.9-.2.2.1.3-.1.5.1.1.2-.1.2.1.5 1.6.9 3.5 1.4 5.2l1.4 5.2c.7 3 2 5.9 2.4 9.1.3-.8.6-1.6.7-2.4.1-.2.2-.6.3-.8s.2-.6.2-.8c.2-.7.6-1.3.5-2l.2-.2c0-.7.1-1.4.5-2 .2-1.2.6-2.4 1-3.6.5-1.2.7-2.4 1-3.6.5-2 .9-3.7 1.5-5.4.5-1.2.7-2.3.8-3.5.5-.1.9-.3 1.4-.3l2.3-.1c2.1-.1 4.1.1 6.1.6.1.1.1.2.1.3l1.5 1.6c0 .1 0 .2.1.2h0c.1 2.6.2 5.2.1 7.6a83.97 83.97 0 0 0 0 7.1c0 1.2-.1 2.4-.1 3.7 0 .3.1.7.2 1 .1 3-.2 6.4 0 9.9.1 1.7.1 3.5.1 5.2.2.2.2 1 .2 1.9zm-9 3.3c2.1.6 4.4.6 6.4-.1.1-1.7.1-3.6-.1-5.3.2-.5.2-1 .1-1.6v-1.4c-.1-.7-.1-1.4-.1-2.1 0-.5.1-1 .1-1.5s-.1-1-.1-1.6v-1.5c0-1 0-2.1.1-3.1.1-1.7-.1-3.6-.1-5.3v-1.3c0-2.8-.1-5.3.1-7.8.1-1.6 0-3.2-.1-4.7 0-1.6 0-3.2.1-4.8-1.6-.3-3.2-.5-4.9-.5a24.33 24.33 0 0 0-3.8.3c-.6 2.6-1.5 5.2-2.2 7.7l-.3 1.5-2.6 9.4c-.5 1.8-1.2 3.7-1.6 5.4-.1.2 0 .6-.2.8-.6-.1-.7-.7-.8-1.2-.2-.8-.3-1.6-.5-2.3s-.5-1.5-.7-2.2a40.78 40.78 0 0 1-1.6-6 1.93 1.93 0 0 1-.3-1 3.73 3.73 0 0 1-.2-1.2c-.2-.8-.5-1.5-.7-2.2-.2-.5-.1-.8-.2-1.3-.2-.5-.2-.7-.3-1.2-.2-.7-.5-1.5-.7-2.2l-.1-.7c-.1-.2-.3-.5-.2-.8-.5-.5-.3-1-.5-1.5l-.5-1.3c-.6-.2-1.2 0-1.8-.2-2.2-.5-4.8-.1-7.1.1-.2 3.5.3 6.7.3 9.9 0 1.7-.2 3.2-.1 4.9v4.6c0 2.2-.1 4 0 6 .2 5.8.2 10.9.2 16.6 2.1.5 4.3.5 6.4.1.1-.8.1-1.7.1-2.5 0-.2.1-.6.1-.7s-.1-.3-.1-.5v-1.5c0-.1 0-.2.1-.3-.2-.5-.1-.7-.1-1.2-.1-.5-.1-1.5-.1-2.2 0-1 0-2.1-.1-3.1-.1-.8-.2-1.7-.1-2.6 0-1-.1-2.1-.1-3.1s0-2.1.1-3c0-1 .1-2.2.2-3.6.2-.1.3-.2.5-.3.5.2.6.9.7 1.3l.6 1.5c.3 1 .7 2.1 1 3.1.5 1 .8 2.1 1 3.1.2 1.2.6 2.2.9 3.2a224.68 224.68 0 0 1 2.3 7.7c1.6.1 3.2.1 4.8-.2.1-.1.1-.3.5-.5a26.27 26.27 0 0 1 .8-3c.2-1.3.8-2.8 1.2-4 .5-1.2.8-2.4 1.3-3.8.3-1.4.7-2.6 1.3-4 0-.6.1-1.2.5-1.6l.5-1.7c.3-.3.2-.9.7-.8.6.1.3 1.2.3 1.8s-.1 1.4-.1 1.8c0 1.2 0 2.3.1 3.6 0 .2.1.2.1.3-.1.1-.2.2-.2.5-.1 1-.1 2.1.1 3.1v3c-.1 1.6 0 3.1 0 4.6-.6 2.4-.6 4.3-.3 6.2zm-21.7 2.1c-.5-.5-1.2-.7-1.7-1.2 0-.1-.1-.2-.1-.3-.3.1-.8-.3-1.3-.1.5.5.9.8 1.4 1 .6.4 1.2.6 1.7.6h0zm1.8-.1c-.5-.5-.9-.8-1.5-1 0-.2-.1-.1 0-.2-.5.2-1 0-1.4.1.5.2.9.5 1.3.8.2.2.3.5.6.5.2-.1.6-.2 1-.2h0zm2.5-.2c-.7-.2-1-1.3-1.7-1.3-.3 0-.7 0-1 .1-.2 0-.5 0-.7.2.6.3 1 .7 1.4 1.2.7 0 1.3-.1 2-.2h0zm.1-19c-.1-.1-.1.1-.2.1-.5 0-1-1.3-1.3-1.3 0 .6.1 1.2.1 1.6 0 .2.1-.1.2-.1.2.3.5.8.8 1 .2.2.7.6.6 1 0-.1 0-.1-.1 0v.1c-.7-.5-1-1-1.5-1.5 0 .5.1.7.1 1.3l.9.7c.2.3.9.7.7 1h-.1c-.5 0-.9-1-1.4-1 0 .6 0 1 .1 1.6.6.5 1.2.9 1.7 1.4 0-2.4-.2-4.8-.2-7.5-.5-.6-1-1.2-1.6-1.6l-.1 1.2c.3.2.6.6.9.9.1.4.4.7.4 1.1zm.2-3c-.2 0 0-.2-.2-.2-.5-1-.7-2.2-1.2-3.2-.1.9-.2 1.8-.2 2.8.5.3.8.7 1.3 1.2.2.2.2.3.3.3 0-.6-.1-.7 0-.9zm.5 13.6c-.2-1.3.1-2.6-.1-4-.6-.2-1.2-.7-1.6-1.2V38c.6.5 1.2 1 1.6 1.6-.2 0-.2.1-.2.1-.5-.2-.9-.6-1.4-1-.1.7.2 1.3 0 1.8.2.1.1-.1.3-.1l1.4 1.2zm0 .3c-.7 0-1.2-.9-1.7-1.3l.1 1.5c.2 0 .2.2.3.2.3.3.7.6 1 .9.2.2.2.3.3.2 0-.5-.1-1 0-1.5h0zm.1 6.6c-.7-.2-1.2-.8-1.8-1.2 0 .5-.1.6-.1 1 .6.6 1.2.9 1.8 1.4 0-.4 0-.8.1-1.2h0zm0-2.2L38.9 45c.1.7-.1 1 0 1.6.6.3 1 .7 1.4 1.2.2.2.3.3.3.2.2-.4.1-1 .1-1.7h0zm0-2.3c-.7-.2-1-.8-1.7-1.3v1.7c.7.5 1.2.9 1.8 1.3-.2-.7-.1-1-.1-1.7h0zM42 8.9s.1 0 .1-.1c.1.2-.1.1-.1.1h0zM47.9 45c-.2-.5-1.2-.6-.9-1.2-.5 0-.6-.1-1 0 .6.6.9 1.3 1.9 1.2h0zm2.3-.3l-.8-.5c-.2-.2-.5-.3-.7-.5-.5-.2-1 .2-1.4.1.3.5.8.8 1.3 1-.1.1-.1.1 0 .1.5.1 1.1.1 1.6-.2h0zm1.6-.3l-1.3-.9c-.2.3-.7.1-.9.3.5.1.7.7 1.2.9.4.1.7 0 1-.3zm1-1.6a3 3 0 0 1-1.5-1.2l-.3 1.5c.6.2 1 .7 1.5 1 .2-.3.2-.8.3-1.3h0zm.8-2.2a3.11 3.11 0 0 1-1.6-1.2c-.2.5-.3 1-.5 1.6.5.5.9.9 1.5 1.3.2-.5.4-1.1.6-1.7zm.7-2.4l.5-1.6c-.7 0-1.2-.7-1.7-1.2a15.36 15.36 0 0 0-1 3.5l1.5 1.3.5-1.5-.7-.7c-.2-.2-.7-.6-.7-.8 0-.1.1-.3.2-.3h0c.2 0 .5.5.7.7l.7.6zm1-3.3c-.7-.3-1.2-.9-1.6-1.4l-.5 1.4c.6.5 1 1 1.6 1.4l.5-1.4zm.6-2.2c-.6-.5-1-.9-1.5-1.4l-.6 1.6c.6.5 1 1 1.6 1.5l.5-1.7zm.5-1.8c-.5-.3-.9-.8-1.4-1.3v-.1c-.2.5-.2.9-.5 1.4.5.6 1 1 1.5 1.5.4-.6.5-1.1.4-1.5h0zm0-5.9c.2 0 0-.2 0 0l-.7 2.2c.2.3.7.7.5 1.2-.5-.1-.3-.3-.7-.6-.2.5-.2.8-.5 1.4.7 0 .8.7 1.3 1l.1-5.2c-.1 0 0 0 0 0zm3.2 25.1c.2.2.5.3.6.2-.5-.3-.9-.7-1.3-1-.1-.2.1-.1.1-.2-.5.1-.7-.2-1.2-.1l1.8 1.1zm2.1.1c-.3-.5-.8-.6-1-1h-1.2c.8.3 1.1 1.2 2.2 1h0zm.8-.1c.8 0 1.6-.1 2.4-.2-.5-.2-.7-1.2-1.3-1.2-.2-.1-.2.1-.5.1.2.5.7.6.8 1-.7.2-.9-.6-1.5-.8-.2 0-.2.1-.3.1-.2 0-.6-.1-.8.1l1.2.9zM64 8.7c-.1.6-.1 1.2 0 1.6.6.2.9.8 1.4 1.3V9.8l-.3.1L64 8.7zm-.1 6.7c.1.6.1 1.3.1 1.8.5.2.8.6 1 1l-.1.2c-.5.1-.6-.6-.8-.6 0 .5 0 .8-.1 1.3l1.4 1.4c0-.9.1-2.2 0-3.1v-.7l-.7-.7c-.3-.1-.5-.3-.8-.6zm.1 17.9l1.2 1.2c.2.2.2.3.3.3 0-2 0-4.3.1-6.4-.6-.5-1-.9-1.5-1.4v1.8c.6.5 1 1 1.4 1.6-.2 0-.1.2-.1.2-.1.1-.5-.2-.7-.5s-.5-.6-.6-.6c0 .6 0 1.3-.1 1.8l.7.6c.2.2.6.3.6.8-.1 0 0 .1-.1.1-.5-.2-.9-.6-1.3-1 .1.7.1 1 .1 1.5zm1.5-21.4c-.7 0-.9-.8-1.5-1 0 .6 0 1 .1 1.5.3.5.8.9 1.4 1.3-.1-.6-.1-1.2 0-1.8zM64 8c.6.5 1 .9 1.4 1.5-.1-.5 0-.9-.1-1.6-.2.1-.1-.1-.2-.1-.3-.5-.7-.8-1-1.2 0 .6-.1 1-.1 1.4zm0 15.8l1 1c.2.2.2.2.3.2.1-.7.1-1.3.1-2-.7 0-.8-.9-1.4-1.2v2zm0 10.3v1.5c.5.5.9.8 1.5 1.3v-1.5c-.8-.3-1.1-1-1.5-1.3h0zm1.5 3.3c-.5-.3-.8-.9-1.4-1.2 0 .5 0 1-.1 1.5.1.2.1 0 .2 0 .3.6.8 1 1.4 1.5-.1-.6-.1-1-.1-1.8zm-1.4-22.5c.5.2.7.6 1 .9 0 .2.2.2.3.2 0-.6.1-1.2.1-1.7-.5-.2-.9-.6-1.4-1 0 .4-.1 1 0 1.6zm1.4 12.9c0-.8-.2-1.2-.2-1.8L64 24.7v1.5c.5.5 1 1 1.5 1.6zm0 11.9c-.1-.1-.1-.1-.3-.1l-.7-.6c-.2-.2-.3-.5-.5-.3.5.2 0 .6 0 .7 0 .2 0 .6.1.8.6.5.9.9 1.5 1.4-.1-.6-.1-1.2-.1-1.9zm-1.4-18.6a5.09 5.09 0 0 0 1.3 1.6v-1.5l-1.3-1.3v1.2zm1.5 21c-.7-.2-.9-.8-1.5-1.3.1.7.1 1.3 0 2 .3.5.7.8 1.2 1 .1.2.2.3.3.2v-1.9zm0 2.5c-.7-.1-1-.7-1.5-1v1.8l.8.8c.2.2.5.6.7.6v-2.2zm0 5c-.1-.9-.1-1.6-.1-2.5-.7.2-.8-.6-1.3-.8 0 .7 0 1.3-.1 2 .4.5 1 1 1.5 1.3h0zm14.1-16.9c0 .6-.1 1.4 0 2.1 0 .1-.1.2.1.2-.1.1-.1.2-.1.3-.1.9 0 1.8 0 2.8l.1 2.8.1 5.6c-.1 1.4-.3 2.9-.2 4.5-.2.1-.3.1-.6.3-.5 0-.9 0-1.4.1-.6.1-1.4-.1-1.8.1-.2.1-.2-.2-.3-.1-.5 0-.9.1-1.4.1-.5.1-.8 0-1.3-.2-.1-.2.2-.2.3-.2-1-.6-2-1.3-2.9-2.1-.7 0-.5-1.2-.3-1.8.1-1.5-.2-3 0-4.4v-4.5l-.1-4.3-.1-2.6v-7c0-.5 0-.9.1-1.3V8l.2-2.4c.1-.2.2-.2.2-.5 1.2.1 2.4.1 3.6-.1.3 0 .7.1 1 .1.1 0 .2-.1.3-.1.7 0 1.3 0 2 .1.2.2.6.5.8.7.5 1 1 2 1.7 2.9.2.1.1.2.3.3-.2 5.2.2 10.4.2 15.1 0 1.5-.2 3-.2 4.3s-.3 2.9-.3 4.3zm-3.2 15.5c0-.5 0-.9-.1-1.3 0-.7.1-1.4.1-2.1s.1-1.4.1-2.1v-4c.1-3.3-.1-6.6-.1-9.7v-1.3c0-1.8-.1-3.6 0-5.6.1-1 0-2 0-2.9.1-1.8.2-3.6.2-5.4 0-1.3.1-2.6.1-3.9.1-1.3-.1-3 0-4.4-2-.1-4-.1-6 .1-.2 1.7 0 3.6-.1 5.4-.2 5.9-.1 13.2-.2 18-.1 3 .2 5.8.3 8.4l-.1 10.5c2 .2 3.7.3 5.8.3h0zm-1.4 2.7c-.6-.5-1.2-1-1.6-1.6-.1-.1-.2-.5-.5-.5h-.3a4.3 4.3 0 0 0-1.6 0c1 .8 2.1 1.6 3.2 2.2l.8-.1zm1.3-.1c-.5-.6-1-1.2-1.6-1.6-.2 0-.3-.1-.3-.2s.1-.1.1-.1c-.3-.1-.7-.1-1-.1.3.5.7.8 1 1.2.4.4.9 1.1 1.8.8h0zm2.1 0c-.7-.5-1.3-1.2-1.7-1.8-.6 0-1-.1-1.6-.1.3.3.7.7.9 1s.6.9.9 1 1-.1 1.5-.1h0zm.9-3.8c-1-.3-1.5-1.3-2.3-2 0 .7-.1 1.3 0 2 .6-.1.8.6 1.2 1s.6.7.7 1c-.9-.2-1.2-1.4-1.8-1.7 0 .6 0 1 .3 1.3-.1.1 0 .2-.1.5.5.7 1 1.2 1.7 1.5-.1.1-.1.2.1.2.1-1.1.1-2.6.2-3.8h0zm.3-21.9c-.1-.1-.2.1-.2 0-.8-.8-1.6-1.5-2.3-2.4 0 .6-.1 1.2-.1 1.8.8.5 1.4 1.7 2.2 2.3 0 .1.2.3.2.2.1-.6.1-1.2.2-1.9h0zm-2.5 2.2c.3-.1.6.3.8.6s.6.7 1 1c.1.2.3.5.5.3 0-.6.1-1.3.1-1.6-.7-.9-1.5-1.8-2.3-2.8h-.1c0 .9-.1 1.7 0 2.5h0zm0 2.3c.8.5 1.2 1.5 2 2.1 0 .1.2.3.2.1.1-.6 0-1.3.1-2-.8-.7-1.6-1.5-2.2-2.4v2.2h-.1zm0 .6c.1 2.2.1 4.6.1 7.1.1.1.1-.2.2-.1.5.9 1.2 1.7 2 2.4-.2-.9-.1-1.6-.2-2.4-.1.2-.1 0-.3 0-.2-.5-1-1.2-1.4-1.6-.1-.2-.3-.7.1-.7.1 0 .2.2.2.3.6.6 1 1.2 1.5 1.8v-2c-.6-.6-1-1-1.5-1.6-.2-.3-.7-.7-.3-1 .5.5.9 1.2 1.4 1.5.2.2.3.5.5.5.1-.7-.1-1.2 0-1.8-1-.8-1.7-1.8-2.3-2.4h0zM79.5 45c-.8-.7-1.6-1.5-2.3-2.4 0 .6 0 1.2-.1 2 .8.7 1.4 1.6 2.3 2.2.1-.5.1-1.1.1-1.8h0zm.1-.4c-.1-.7-.1-1.3-.1-2-.7-.8-1.6-1.6-2.3-2.4.1-.1.1-.2.2-.3.6.5 1 1 1.5 1.6.2.1.3.5.5.3v-1.5c-.1-.2-.3-.3-.6-.6-.6-.6-1.3-1.4-1.6-2-.1 1.7-.1 3.2 0 4.7.1.1.1-.1.2-.1.5.7.9 1.3 1.5 1.8.3.1.5.5.7.5h0zM77.2 19c.7 1 1.5 2 2.4 2.8V20c-.1 0-.2 0-.3-.1-.7-.8-1.3-1.8-2-2.6 0 .6 0 1.1-.1 1.7zm2.4 3.6c-.7-1-1.7-1.8-2.4-2.9V22c.7 1 1.6 1.8 2.4 2.9.1-.9 0-1.3 0-2.3zm-2.3-5.5c.1-.1.1-.1.2-.1.7.9 1.3 2 2.1 2.8 0-2-.1-3.5-.2-5.6-.1 0-.2.1-.3-.1-.5-.9-1.2-1.6-1.6-2.4v2.4c.6.7 1.2 1.4 1.6 2.1.1.2.5.6.2.8-.7-.7-1.2-1.6-1.8-2.3.1 1-.2 1.5-.2 2.4zm2.1-5.7c-.1-.1-.1.2-.2.1-.5-.6-.8-1.6-1.4-2.1h.1c-.2-.1-.2-.5-.3-.6 0 .7 0 1.3-.1 2 .2.3.5.7.7 1.2.5.6.9 1.2 1.3 1.7-.1-.9-.1-1.4-.1-2.3zm-1.8-3.2c0 .1.2 0 .2.1.6.9 1.3 1.8 1.7 2.9-.1-.6.1-1.4 0-2.1-.9-.7-1.2-2.2-2-3-.1.7-.1 1.5.1 2.1z"/><path d="M82.4 41.7c-.1-.5-.1-.9 0-1.3 0-.5 0-.9.1-1.4.3-1.7 1-3.2 2.2-4.6.2-.1.2.1.2 0 2.6-2.2 5.8-3.7 9.1-4.5 1-.5 2.1-.8 3.1-1 .2-1.2.3-3-.6-3.6-.2-.1-.5-.2-.8-.3-.2-.1-.5-.2-.7-.3-.8 0-1.7.2-2.4.6-1.2.8-2 2.1-2 3.5 0 .3.1.7-.1 1 .1.1.1.3 0 .5-1.8.1-3.1.1-5.2.2 0-.1-.1-.2 0-.3-.5-.5-.9-.9-1.3-1.5-.3 0-.3-.1-.6-.1.2.3.5.6.7.8.3.3 1 .6.7 1-.5-.1-.8-.3-1-.7l-1-1c-.1-.1-.1-.2 0-.3h0c-.1 0-.3 0-.3-.2 0-1.4.1-2.6.2-3.8.1-1.3.7-2.5 1.6-3.6.6-.7 1.3-1.4 2-2 .2-.2.5-.5.7-.6.1-.1.3-.1.5-.2.1-.1.3-.2.5-.3.3-.1.7-.2 1-.3 1.3-.3 2.6-.6 3.9-.6 1.6 0 3.3.3 4.8.8.6.2 1.2.5 1.6.7.6.2 1 .6 1.5 1h.3c1.5.8 2.9 2.1 3.9 3.5.8 1.8 1.3 3.7 1.2 5.8l.2 4.3c.2 2.8-.1 5.4.1 8.1l.2 2.2c.1 2.3.1 5.1.1 7.3-.1.1-.2.1-.3.3-.2-.1-.2-.2-.3-.2-1 .1-2 .1-3 .1-.7.1-1.4.5-2.2.2-.1-.1.2-.2.1-.3-.5-.7-1.3-1.2-1.7-1.7.1-.5-.3-.7-.5-1.2-.7 1.5-1.8 2.6-3.3 3.2-.3.1-.6.2-.8.3-.6.1-1.3-.1-1.7.3-.5-.1-1.4-.1-2.2-.2-3.1-.5-4.6-2.9-6.7-4.6 0-.1.1-.1.1-.2l-.6-.8c-.1-.1 0-.1-.1-.2 0 0-.1 0-.1-.1-.5-.8-.7-1.6-.8-2.5v-.5c-.2-.4-.3-.5-.3-.7zm.6.4v.6c.1.9.6 1.8 1.2 2.6l.3.6c.5.5 1 .9 1.6 1.3l.9.6c1 .6 2.1.9 3.1 1.2.5 0 .9 0 1.4-.1.7 0 1.3 0 2-.1 1.5-.2 2.8-.8 4-1.6.2-.2.5-.3.6-.5s.3-.7.3-.7c.5-.1.5.7.6 1s.3 1 .6 1.3a32.53 32.53 0 0 0 4.4.3c-.1-.3-.2-.6 0-.8-.1-1-.1-2.1-.1-3.1 0-.6-.2-1.3-.2-2 .1-1.7 0-3.7.1-5.4v-2.1c0-.5.1-.9.1-1.4l-.1-4.1c-.1-.7 0-1.5-.1-2.2 0-1.5-.2-3-.7-4.5l-.1-.3c-.2-.5-.5-1-.8-1.4a16.8 16.8 0 0 0-2.1-1.8c0 .1 0 .1-.1.1-.9-.7-2.1-1-3.2-1.2-.3-.2-.9-.2-1.3-.5-.7-.1-1.4-.2-2.1-.2-.5 0-.9.1-1.4.2-1 0-2.1.1-3 .6-.8 0-1.4.7-2.1.9l-1.5 1.4-.3.3c-1.6 1.5-2.1 4.1-2.2 7 2 .1 3.9.3 6 .3-.1-.7 0-1.5.2-2.2.1-.2.2-.3.2-.6.6-1.2 1.6-2.1 2.9-2.4 1.8-.6 3.2.5 4.5 1.3l.6.7c.6 1.2.7 2.4.5 3.7.7.5-.3.8-.6.9-2 .3-3.7 1.3-5.6 1.8-1.5.6-3 1.3-4.4 2.1a32.57 32.57 0 0 1-2.2 1.7c-.1.3-.5.6-.6.9 0 .1-.1.2-.1.3-.1 0-.2.1-.3.2-.6 1.2-.9 2.4-.9 3.7v1.6zm3.8-12.2c-.3-.3-.9-.7-.8-1.3-.6.1-1-.1-1.4 0 .3.5.7.9 1.2 1.3.2 0 .6.2 1 0zm3.4 0c-.5-.3-.9-.7-1.3-1h-1.3c.3.3.6.7.7 1-.6.2-.8-.7-1.3-1-.2-.1-.6-.1-.8-.1.3.2.6 1 1 1.2.6 0 1.2 0 1.6-.2.6.1.9.1 1.4.1h0zm2 21.1c-.5-.3-.9-1.3-1.5-1.4-.3-.1-.8 0-1.3-.2.2.3.8.6 1 1.2-.1-.1-.1.1-.2.1-1.2-.7-1.8-1.8-3.3-2.2-.1-.2-.3-.2-.6-.2 1.5 1.2 3.2 2.6 5.9 2.7h0zm-1.8-23.6c-.5-.3-.6-.8-.9-1.2-.5 1-.5 2.6.6 3 0-.6.1-1.2.3-1.8h0zm-1 13.2c-.1-.3-.2-.8-.1-1.3.1-.6.2-1.2.6-1.6v-.3c1.8-2 4.6-2.4 7.5-3.2.1.1.1.5.2.6-.2 2 .5 4.4-.3 6-.6 1.3-2 1.6-3.2 2.3a5.72 5.72 0 0 1-3.6-.9c-.1-.1-.1-.2-.2-.2s-.2-.2-.3-.2c-.4-.3-.5-.8-.6-1.2h0zm2.1-15c-.2-.3-.5-.7-.8-1-.3.3-.6.7-.9 1.2.2.5.5.8.8 1.2.2-.6.4-1.1.9-1.4h0zm-1.8 14c0 1.3.8 2.3 2 2.5-.1-.3-.3-.7-.2-1.2-.8 0-1.2-.8-1.8-1.3zm.2-.6c.3.5.8 1 1.3 1.4.1.1.2.3.5.3l.3-1.5c-.6-.5-1-1-1.5-1.5-.3.5-.5.8-.6 1.3h0zm.9-1.7c.3.6.9 1.2 1.5 1.5a3.04 3.04 0 0 1 .5-.7c-.3-.5-.7-.9-1.2-1.2l-.8.4zm1.7-12.4c-.3-.2-.3-.8-.7-1-.2.2-.7.2-.9.5.2.3.6.7.7 1l.9-.5zm1.6 25.9c-.3-.5-.8-.8-1.3-1.2 0-.1.1-.2.1-.2-.5 0-.8.1-1.4.1.5.5.9 1 1.4 1.4.4 0 .8-.1 1.2-.1h0zm.6-14.6c-.3.3-.6.6-.8.9a6.51 6.51 0 0 0-1.8 3.6c-.1.7.1 1.7.6 1.8.6.1 1.2 0 1.6-.1.3-.1.7-.3 1-.6.6-.2 1-.6 1.4-1 .7-1.6.2-4.1.3-5.8h-.1c-.8.2-1.5.7-2.2 1.2h0zm-2.6.5c.2.3.5.7.8 1 .2-.5.7-.8.8-1.3-.2-.1-.6-.2-.8-.3-.3.3-.7.4-.8.6h0zm1.6-12.2c-.1-.3-.6-.6-.5-1-.3 0-.6.1-.9.2l.6 1c.3-.2.5-.2.8-.2zm2.1 25.7L94.4 49c-.5 0-.8.1-1.3.3.6.5 1 .8 1.5 1.4l1.2-.5zm.3-25.5c-.7-.5-1.5-.8-2.3-1 .1.3.3.5.5.7.5-.3 1.2.1 1.8.3zm-2.3 11.2c.1.1.2.3.3.2.2-.3.6-.5.8-.7-.3.2-.8.3-1.1.5zm4.7 10.7c-.2.5-1 .9-1.4 1.2l-.1.2c-.1.1-.2 0-.3.1-.6.3-1 .6-1.6.7.3.5.9.9 1.3 1.3.3-.2.7-.5.9-.7-.3-.3-.7-.6-1.2-.8.3-.6 1 .2 1.4.5.4-.7 1.3-1.5 1-2.5zm3.7 3.7c-.3-.6-.7-1-1.2-1.5-.2-.1-.6-.1-.9-.1.6.8 1.3 1.3 2.1 1.6zm3.5-.2c-.5-.3-1-.7-1.5-1.2-.3.1-.6-.1-1 .1.2.3.5.6.7.9-.6.1-.8-.7-1.3-1h-1c.3.5.7.9.9 1.4 1.2-.2 2.1 0 3.2-.2h0zM102.8 21a5.05 5.05 0 0 1 .9 2.3c.8.3 1.2 1.3 1.7 1.8-.3-1.6-1.3-3.1-2.6-4.1zm2.7 5c-.7-.6-1-1.5-1.7-2.1.1.6.1 1.2.2 1.6.1 0 .2 0 .3.1.5.7.9 1.4 1.4 2.2-.7-.1-1-1.2-1.5-1.6 0 .5.1.6.1 1.2.2.3.6.7.9 1.2.2.5.6.8.7 1.3-.2.1-.2 0-.3 0a5.09 5.09 0 0 0-1.3-1.6v1c.7.6 1.2 1.6 1.8 2.2-.1-2-.2-3.7-.6-5.5zm.7 15.1c0-.8 0-1.5-.1-2.3-.6-.8-1.3-1.5-1.8-2.3-.1.8.1 1.4-.1 2.2.2 0 .2.1.3.1.6.8 1 1.6 1.7 2.3zm0 .6c-.8-.7-1.3-1.7-2.1-2.4.1.6.1 1.4.1 2.1.1.1.2.1.2.1.6.7 1.3 1.5 1.8 2.2.1-.9 0-1.3 0-2zm-.1-8.5c0-.5-.1-1-.1-1.5-.7-.5-1.2-1.3-1.7-2 0 .5.1.7.1 1.2.5.5 1 1.6 1.7 2.3zm.2 10.8c-.7-.3-1.3-1.5-2-2.1-.1.6-.1 1.2 0 1.8 0 .1.1 0 .2 0l1.8 2.4c0-.5.1-1.5 0-2.1zm-.2-7.8c-.1-.2-.2-.5-.5-.7-.3-.5-.9-.9-1.3-1.4.1.8-.1 1.5 0 2.2l.2-.1c.5.7.9 1.4 1.5 2 0-.9.2-1.6.1-2h0zm0-.7v-1.7c-.6-.7-1.2-1.6-1.7-2.2v2c.5.5 1.1 1.2 1.7 1.9h0zm.2 10.8c-.8-.5-1.3-1.5-2-2.1v1.6c.1 0 .1-.2.3-.1.7.7 1.2 1.6 1.7 2.3.1-.4.1-1.1 0-1.7zm.1 3.8c-.1-.7 0-.8-.1-1.6-.8-.7-1.2-1.7-2-2.4-.1 1 .2 1.7.1 2.5.8.4 1.3.9 2 1.5h0zm27.3 1.1c-.7 0-1.5-.1-2.3-.1l-2.4.1c-1-.8-2-1.7-2.8-2.8-.5.3-.9.8-1.5 1.2-.3.2-.6.2-.9.5-.3.2-.5.3-.8.6-1 .5-2.3.7-3.5.6-1.4 0-2.8-.2-4-.6-.7-.2-1.3-.7-1.7-1.2l-1.5-1.6c-.6-.6-.9-1.3-1.4-1.8 0-.1-.1-.2-.1-.3-.5-.5-.8-1.2-.9-1.8-.5-1.7-.6-3.6-.7-5.3l-.1-4.4-.1-4.7c.1-1.2.2-2.2.5-3.3.1-.8.3-1.6.7-2.4.2-.3.2-.6.6-.9.3-.8.8-1.5 1.4-2.2.5-.7 1.2-1.3 2-1.6.5-.5 1-.8 1.6-1 .6-.3 1.2-.6 1.8-.7 2.4-.3 4.7.9 6.3 1.8.1-.8-.1-2 0-3s0-2 0-2.9c0-.6.1-1.2.1-1.7.1-2.1-.2-4 .1-5.8 2.2-.6 4.5-.1 7.3-.1.5.9 1 1.7 1.6 2.5.2.2.3.6.6.8l-.1 5.8.2 8.6.1 2.8.3 7.1.1 4.1c0 .3-.1.7-.1 1.2-.1 1.6.1 3 0 4.5l-.2 2.6.1 2.2c0 .3-.1.7-.1 1 .1.8.5 1.5.5 2.3-.2-.1-.5-.3-.7-.1zm-7.2-3.3c1.4.5 2.9.6 4.4.3v-3.7c-.1-1.4-.1-2.8 0-4.1-.1-1.2-.1-2.3-.1-3.3.1-1-.1-2.2-.1-3.2 0-.3.1-.6.1-.9l-.1-4.4-.1-4c-.1-.7-.1-1.4-.1-2.1l.1-2.1-.1-7.7c.1-.7.1-1.4.1-2s.2-1.2-.1-1.5c.1-.5 0-1-.1-1.5.1-.5.1-1 .2-1.5-.2-.1-.2.2-.5.1-.1-.1.1-.2-.1-.2-1.7-.2-3.6-.2-5.4 0l-.1 8.1-.1 5.5c-.5.2-.6-.1-.9-.3-.2 0-.5-.1-.6-.2s-.2-.2-.5-.3c-.2-.1-.5-.2-.7-.3-1.3-.6-2.6-.9-4-.8-.6 0-1.2.2-1.6.5-.1.1-.3.2-.5.2-2.2 1-3.9 2.9-4.7 5.1-.1.1-.2-.1-.2.1-.3.6-.6 1.3-.6 2-.5 2-.6 4-.5 6l.1 6.6.5 4.7.3 1.4c.2.7.9 1.2 1.3 1.8.5.2.8.6 1.4.9 1.3.7 2.6 1.2 4 1.4s2.8.2 4.1 0l1.3-.3c.2-.2.5-.2.6-.5.1-.1.2-.1.3-.1.7-.7 1.5-1.3 2-2.2.3.1.2.3.3.6.1.2.2.2.2.3v.5c.3.3.5.8.5 1.1h0zm-10.1 2.4c-.6-.7-1.4-1.2-1.8-1.8-.8-.3-1.5-.8-2.2-1.2 1.3 1.2 2.2 2.6 4 3h0zm2 .4l-1.4-1.3c0-.1 0-.2.1-.3-.5-.1-.9-.2-1.4-.5.3.6 1.2.9 1.5 1.5.1.1-.2.1-.1.2.4.1.8.2 1.3.4h0zm6.5-15v2.4c0 .6-.1 1-.2 1.5-.3.7-.7 1.3-1.2 1.8-.3.7-1 1.2-1.7 1.4-1.5.2-3 0-4.4-.7l-.9-1.5c-.1-.3-.1-.8-.2-1.2-.5-3-.6-5.9-.5-8.9-.1-.6-.1-1.3-.1-2 .1-.8.3-1.6.8-2.3.3-.9.9-1.7 1.6-2.3.3-.1.8-.2 1.3-.3 1.6 0 3.1.7 4.1 1.8 1 2 1 4.8 1.2 7.7.2 1 0 1.8.2 2.6h0zm-8.6-6.7c0 .5 0 .9.1 1.4.7.3 1 1.2 1.8 1.5.1-1 .2-2.1.5-3.1l-1.8-1.8-.5 1.4c.6.6 1.6 1.2 1.7 2-.2 0-.2.1-.3.1-.2-.3-.6-.7-.9-.9-.1-.3-.3-.7-.6-.6h0zm.1 2v1.8c.6.3 1.2.8 1.7 1.3 0-.6 0-1 .1-1.6-.6-.5-1.2-.9-1.8-1.5zm.2 4c.6.3 1 .9 1.6 1.3 0-.6-.1-1-.1-1.6-.6-.3-1.2-.9-1.7-1.3.2.3 0 1 .2 1.6h0zm.3 2.1l1.5 1.4-.2-1.6c0 .1-.1.1-.2.1-.3-.5-.8-.9-1.4-1.3 0 .5 0 1 .1 1.5 0-.2.1-.1.2-.1zm0 2.2c.8.2 1.2.9 1.8 1.3l-.3-1.8c-.7.1-1.2-.7-1.7-1.2l.2 1.7zm2.4 3.1c-.2-.5-.3-.8-.3-1.3-.7-.3-1.3-.8-1.8-1.4.1 1.4.6 2.7 2.1 2.7zm-2-15.9l1.7 1.8c.1-.3.1-.7.2-1.2-.5-.6-1-1-1.5-1.5-.3.2-.4.5-.4.9h0zm3.6 24.2c-.5-.6-1-1-1.5-1.5-.7 0-1.3 0-2-.1.6.6 1.2 1 1.8 1.5a3.34 3.34 0 0 0 1.7.1zm-3.1-25.5c.5.6 1 1 1.5 1.5.1-.5.3-.7.5-1-.3-.5-.7-.8-1-1.3-.4.1-.7.5-1 .8zm6.5 8.9c0-.6-.1-1.3-.2-1.8 0-.5 0-1-.1-1.5-.1-1.5-.3-3.9-1-4.8-.3-.6-1.2-.9-1.8-.7-.2.1-.5.2-.7.5 0 .1.2.3 0 .5-.2.1-.2-.2-.2.1-.2.3-.7.8-.5 1.3-.1 0-.2.1-.2.2-.7 2.3-1 4.8-.9 7.3s.5 5.1 1.3 7.5c0 .1-.1.1-.1.2.7 0 1.3 0 2-.1.2-.1.5-.2.6-.5.1-.1.3-.1.3-.2.2-.2.3-.5.5-.7.3-.5.6-.9.8-1.4.5-1 .3-2.5.3-4-.2-.8-.2-1.3-.1-1.9zm-4.9-9.8c.2.3.6.7.8 1 .2-.3.7-.6 1-.7-.2-.1-.8-.3-.8-.1-.2-.2-.6-.2-1-.2h0zm5.2 25c-.3-.3-.7-.6-1-.9-.3.2-.7.5-1 .5.2.3.7.5.7 1-.2-.1-.1.1-.3.1l-.9-.9c-.6.1-1 .2-1.6.2.3.5.9.7 1.3 1.4.9-.3 1.9-.7 2.8-1.4h0zm1.4-1.9l-.3-1c0 .3-.5.5-.5.7 0 .1.3.2.3.5.1.2.2.3.2.6-.1.1-.1.1-.3.1-.2-.2-.3-.6-.7-.8l-.7.7c.2.3.6.7 1 .9.2-.3.9-.5 1-.9.1-.3 0-.6 0-.8h0zm3.9 3.3l-1.7-1.7c-.3 0-.8-.2-1-.2.6.8 1.3 1.4 2.2 2 .1-.1.3-.1.5-.1zm3.4 0c-.7-.5-1.4-1-2-1.6h-1.4c.3.5 1 .9 1 1.5-.3 0-.6-.3-.7-.6-.3-.2-.7-.6-.8-.9-.1 0-.3 0-.3-.1.3.7 1.2 1 1.5 1.7h2.7zm-2.1-35.3c.8.5 1.2 1.3 2 1.7v-1.2c-.6-.7-1.3-1.3-2-1.8-.1.5-.1 1 0 1.3h0zm0-7.4c.2.1.5.3.6.6.5.6.9 1.3 1.3 2-.1 0-.1.1-.2.1-.5-.3-.8-.8-1.2-1.4-.1-.2-.2-.3-.3-.5.1.7.1 1.5 0 2.2.1.1.2 0 .2.1.6.5 1 1 1.4 1.7-.5.5-1.3-1.2-1.6-1.3 0 .7 0 1.3-.1 2 .6.7 1.3 1.3 2 1.8-.1-1.6.1-4.1 0-6.2-.1 0-.2.1-.2 0-.5-.9-1-1.8-1.7-2.6-.2.4-.2 1-.2 1.5h0zm1.9 9.9l-2-1.8v1.4c.5.5 1 .9 1.5 1.3.1.1.2.3.3.3.1-.4.1-.9.2-1.2h0zm-1.8 2c0-.1 0-.1.1-.1.5 0 .7.6 1 .9s.6.5.7.7v-1.8h-.5c-.3-.6-1-.9-1.5-1.5.1.6.1 1.3.2 1.8h0zm-.1 2.3c0 .6 0 1 .1 1.6.7.6 1.2 1.4 1.8 2v-1.4l-1.9-2.2zm.1-.4c.7.5 1.2 1.3 1.8 1.7 0-.5-.1-1.2-.1-1.6-.7-.6-1.3-1.2-1.8-1.8 0 .6.1 1.2.1 1.7h0zm2 4.7c-.7-.6-1.4-1.3-2-2l.1 2.3c.5.2.9.6 1.3 1 .1.1.3.2.5.3.1.1.2.3.3.3-.1-.6-.1-1.3-.2-1.9zm.1 2.5c-.1 0-.2.1-.3.1-.3-.7-1.2-1.2-1.8-1.8.1.6.1 1.2.1 1.7.3.2.6.6 1 .9l1 .7c.1-.5 0-1 0-1.6h0zm.1 4.5c-.1 0-.2.1-.2.1-.5-.7-1.2-1.3-1.8-1.6-.1.5.1.8 0 1.2.3.3.6.7.9 1s.9.7 1.2 1.3c-.1.1-.3.1-.5 0l-.2-.1a10.63 10.63 0 0 1-1.5-1.5c-.1.7-.1 1.4 0 2.1.3.3.7.7 1 .9.3.3 1.5 1 .6 1.3-.5-.6-1-1-1.6-1.4 0 .6 0 1.2.1 1.6h.2c.6.7 1.3 1 1.7 1.7-.1.1-.2.2-.5.2-.5-.6-1-1-1.5-1.5v1.5c.1 0 .2-.1.3-.1.5.7 1.2 1.4 1.8 2l-.1-3.1c0-.5.1-.8.1-1.4.2-1.5.1-2.8 0-4.2h0zm-.6-2.7l-1.5-1c0 .6.1 1 .1 1.6.6.6 1.4 1.2 2 1.6.1-1 .1-1.7-.6-2.2h0zm-1.5 11.9c.2-.1.2.1.3.1.5.6 1.2 1 1.6 1.6.1-.6.1-1.2.2-2 0 0-.2.1-.3 0-.5-.8-1.3-1.3-1.8-2v2.3zm2 2.3c-.2.1-.2 0-.3.1.1-.1-.1-.2-.1-.2-.3-.3-.7-.8-1.2-1.2-.1-.1-.2-.3-.3-.2v1.3c.1 0 .1.1.2.1.2.2.5.5.8.7.1.1 1 1.2.3 1.2-.2 0-.1-.2-.2-.3s-.2-.1-.3-.2c-.3-.3-.6-.7-.9-.8 0 .5 0 .9.1 1.4 0 .1.1-.1.2 0 .6.6 1.3 1 1.6 1.8-.9 0-1.2-.8-1.8-1.3-.1.6.2 1 .1 1.4.6.7 1.4 1.4 2.2 1.8-.5-1.4-.3-4-.4-5.6z"/><path d="M137.2 38.6v-6.1l.3-8.2c.2-2.4-.1-4.4.2-6.6a22.87 22.87 0 0 1 6.4 0c.1 0 .2.1.2.2.2-.1.2 0 .5 0l2.3 3.2c.3.3.5.7.6 1.2.1.2-.2.1-.3.1 0 .5 0 1 .2 1.5-.1.8-.1 1.7 0 2.5 0 .6 0 1.3.1 1.8.1.3.5.6.1.9.1 3.1.1 7.1.1 10.4-.1.7 0 1.5.1 2.2 0 .2-.2.2-.2.3-.1 2.8-.2 5.4-.5 8.1-.2.2-.1.3-.2.6-.2.1-.3-.1-.6.1-.9-.1-1.8-.1-2.8 0-1.2.1-2.3.1-3.3 0-.9-.6-1.7-1.3-2.4-2-.2 0-.3-.1-.5-.2a8.61 8.61 0 0 1 0-3.2c.1-1-.1-2-.1-2.9-.1-1.2-.2-2.5-.2-3.9zm.2-26l.1-6.7c.2-.1.2 0 .2-.2 1.4-.1 2.9-.2 4.3-.1.8 0 1.8.2 2.8.2v.3c.8.6 1.3 1.6 2.3 2.1.1 1.3.1 2.4 0 3.7-.1.3-.1.6-.1.9 0 .7.2 1.7-.3 2-1.2-.1-2.2-.1-3.3.1-.8.1-1.7-.2-2.4-.1-.1-.1-.3 0-.5-.2-.1.1-.1-.1-.2-.2-.8-.3-1.6-.8-2.3-1.3 0-.1-.1-.1-.1-.2-.3-.2-.4-.2-.5-.3zm.5 24c-.1 2.1 0 3.9.1 6 .1 1.8.1 3.6 0 5.6 2.1.2 4.3.2 6.3 0 .1-2.1.1-4.1-.1-6.3 0-1.2-.1-2.3-.1-3.6 0-.8.1-1.5.1-2.4.1-1.6.1-2.8.1-4v-2.4c0-.1-.1-.2-.1-.3 0-.3.1-.6.1-.8.1-.6 0-1.3 0-2 .1-2.4-.2-5.6-.2-7.9-1.8-.5-3.9-.5-5.8-.1l-.2 6.3c-.1.9-.1 1.8-.1 2.8-.1 2.1-.2 4-.2 6.2l.1 2.9zm.2-24.6c2-.1 4.1.3 6.2.2.1-1.2.1-2.4 0-3.6 0 0 .1 0 .1.1-.1-.5 0-1.3-.2-2.3-2-.2-3.9-.3-5.9-.1-.2 2-.2 3.7-.2 5.7zm3.9 2.3c-.6-.5-1.2-1-1.6-1.5-.7-.1-1.4-.1-2.1 0 1.2.8 2.4 1.3 3.7 1.5zm-.2 36.2a10.63 10.63 0 0 1-1.5-1.5c-.6 0-1-.1-1.6-.1.7.6 1.4 1.2 2.2 1.7.2-.2.8.1.9-.1zm1.7-1.6c-.2 0-.5 0-.7.1.2.2.5.3.6.6.1.2.5.5.5.7.1.2-.2.1-.2 0-.6-.3-1.2-.8-1.5-1.3-.5 0-.7.1-1.2.1a1.54 1.54 0 0 0 .7.7c.3.2.6.7.8.8.3 0 .8 0 1.2-.1h2.6c-.2-.3-.5-.6-.8-.8-.2-.3-.5-.8-.8-.9-.5-.2-.9.1-1.2.1zm1-36c-.5-.1-1-.1-1.5 0 .5.3.8.7 1 1.2 0 0-.1 0-.1.1-.7-.2-1-.9-1.7-1.3-.1-.1.1-.1-.1-.2-.2.1-.7-.1-.9.1.5.3.7.6 1 1 .3.5.5.6 1 .6a21.58 21.58 0 0 1 2.8-.2c-.5-.5-1-.8-1.5-1.3h0zm.3-.4c.3.6 1.2.9 1.6 1.4 0-.2.1-.3.1-.6-.6-.5-1-1-1.5-1.6-.1.2-.1.4-.2.8h0zm0-5c0 .1.2.1.2.1.6.6 1.2 1.3 1.6 2 0-.3 0-.7-.1-1-.7-.3-1.2-1.2-1.8-1.5.2.1.1.2.1.4h0zm0 11.4a2.85 2.85 0 0 1 0 1.3c.7.9 1.3 2.1 2.1 2.9-.1-.5 0-.9-.1-1.3a3.04 3.04 0 0 0-.5-.7c-.5-.8-1-1.5-1.5-2.2h0zm0 19c.8 1 1.7 2.1 2.5 3 .1-.6 0-1.6 0-2.1-.9-.7-1.8-1.6-2.5-2.5.1.6 0 1 0 1.6h0zm0 .7v1.6c.9.9 1.6 2 2.4 2.9-.1-.6.2-1.2.1-1.5-.1-.2-.5-.5-.6-.7-.7-.7-1.5-1.7-1.9-2.3h0zm1.8-29c0 .1-.1.1-.1.1-.6-.6-1-1.2-1.6-1.6 0 .5 0 .8.1 1.3.6.6 1 1 1.7 1.5-.1-.5-.1-.9-.1-1.3h0zm.7 34c-.8-.9-1.5-1.8-2.4-2.6 0 .6 0 1.3.1 2 .1.1.2.2.3.2.6.8 1.3 1.6 2 2.4-.2-.8 0-1.3 0-2h0zm-.8-32.2c-.6-.5-1-.9-1.5-1.4 0 .2-.1.5-.1.7.5.6 1 1.2 1.5 1.7 0-.2.2-.5.1-1h0zm.6 12.3c-.7-.9-1.4-1.8-2.1-2.9.1.9.1 2 .2 2.8-.1-.2.1-.2.1-.3l1.8 2.4c.1-.6 0-1.3 0-2h0zm.3 12.5c-.1-.1-.5-.3-.7-.6l-1.8-2.1c-.1.9-.1 1.2-.1 2.1.7 1 1.6 2 2.5 2.9 0-.5-.1-.8-.1-1.3.2-.3.2-.6.2-1h0zm-.3 9.9c-.7-.8-1.5-1.6-2.2-2.5 0 .7 0 1.3.1 2 0-.1.1-.1.2-.1.6.8 1.2 1.6 1.8 2.3-.1-.8.1-1.1.1-1.7h0zm-.2 2c-.7-.8-1.4-1.6-2.1-2.5.1.7.1 1.7.1 2.5.6.7 1.2 1.3 1.8 1.8 0-.6.2-1.2.2-1.7v-.1zm.4-17a28.48 28.48 0 0 1-2.3-2.6c-.1.6 0 1.6-.1 2.2a24.05 24.05 0 0 0 2.1 2.4c.1.1.2.2.3.2-.1-.7-.1-1.4-.1-2.1l.1-.1zm.1 2.9c-.9-.8-1.7-1.7-2.4-2.6v1.5c.1 0 .2 0 .2.1.3.5.7.9 1 1.4s.7.8 1.2 1.2V34zm-.2-7.7a22.53 22.53 0 0 1-2.1-2.4v1.7c.6.7 1.3 1.5 1.8 2.2.1.1.1.2.2.2-.1-.5 0-1-.1-1.5l.2-.2zm.1 4.3c0-.8 0-1.5-.1-2.1-.7-.7-1.4-1.5-2.1-2.3v1.6c.7 1 1.4 2.1 2.1 3l.1-.2z"/></g><path d="M11 110.6c-.1.8.1 1.6 0 2.4v1c-2.3.2-4.6.2-6.9-.1 0-.2-.1-.2-.2-.3.2-4.7.1-9.3 0-14.5l-.2-12.8v-1.8c0-.7.1-1.4.1-2.1 0-1-.1-2.1-.1-3.1 0-.8-.1-1.6-.1-2.3-.1-.3.1-.5.1-.7s-.1-.6-.1-.9c0-.6 0-1.2.1-1.6 0-.8.1-1.7 0-2.6.1-.2.1-.3.2-.6 1.7-.2 3.5-.2 5.3 0 .2.7.5 1.4.6 2.2a3.04 3.04 0 0 0 .7-.5l.3-.3c.2-.2.5-.3.8-.5.1-.1.3-.1.5-.2.7-.3 1.5-.6 2.3-.7s1.7-.1 2.5-.1c.5 0 1 0 1.5.1 1.3.2 2.6.7 3.8 1.3.6.9 1.5 1.5 2.2 2.3 1.3 1.8 1.4 4.3 1.4 7.4l.1 8.2v2c.1 1.3 0 2.6-.2 3.9-.1.7-.5 1.3-.9 1.8-.1 1.2-.9 1.5-1.3 2.4-.5.2-.8.5-1 .8-.3.1-.7.2-.8.5-.5.1-.9.3-1.3.6-.7.1-1.4.2-2.1.2-1.2 0-2.4 0-3.6-.1-.2 0-.5-.1-.7-.2-.1-.1-.3 0-.5 0-.8-.2-1.6-.7-2.3-1.3l-.2 10.2zm.1-30.5c0 1.6-.1 3.1 0 4.8.2 2.9 0 5.8.3 8.3.3.3.5.7.8 1 .6.3 1.4.7 2.1.7 1.4.1 2.6-.3 3.7-1.3.5-1.4.6-2.9.5-4.3.1-1.4 0-3.1 0-4.7.1-1.5 0-3.1-.2-4.6s-.9-2.6-2.1-3c-.2 0-.3 0-.6-.1-2 0-3.7 1-4.5 2.8-.1.2 0 .2 0 .4h0zm41.2 10h0c0 .1 0 .1 0 0-.1.4-.1.9 0 1.3.1 1.6-.1 3.1-.6 4.6-.3.7-.8 1.3-1.3 1.8-.6.7-1.2 1.3-2 1.8-.5.3-1 .7-1.6.9l-1.4.5c-2.3.9-4.8.9-7.3.1-.2-.1-.2.1-.3.1a10.31 10.31 0 0 1-4-1.8l-1.2-.8-.5-.7c-.6-.6-1-1.4-1.3-2.2-.6-1.8-.8-3.8-.7-5.8-.1-2.3.2-5.2-.1-7.5l-.2-2.4.3-1.6c.2-1 .6-2 1-2.9.2-.5.6-.9.8-1.4.8-1 1.7-1.8 2.8-2.6 1.2-.8 2.5-1.3 3.9-1.4 3-.1 6 .6 8.7 1.8.2.2.5.2.8.2.1 0 .1.1.2.1l1.5 1.4c.6.8 1 1.6 1.4 2.5a16.96 16.96 0 0 1 .6 3.1c.2 1.4.2 2.9.2 4.3v3.9c-.1.7-.1 1.5 0 2.2.3.4.2.5.3.5zm-7.2-4.8c-.1-1.2.1-2.3 0-3.3-.1-.2-.1-.5-.1-.7s.1-.3 0-.5c0-.5-.1-.9-.2-1.4-.2-1.2-1.2-2.1-2.2-2.4-.3.1-.5-.1-.7-.1-.6.1-1.4.1-2 .2l-1 .7c-.3.3-.7.7-.9 1-.2.6-.3 1-.3 1.6l-.1 5.1v4.7c0 .2 0 .3.1.6 0 .3 0 .8.2 1.2.1.5.3.9.7 1.3.7 1.3 2 2 3.3 1.7.1 0 .2 0 .3-.1.5-.1.9-.3 1.4-.6.3-.5.8-.8 1.3-1.2.2-.6.3-1.3.3-2 .1-1.9 0-4-.1-5.8h0zm42.2-15.2c.8.2 1.5.5 2.2.8.3.2.7.3 1 .6.2.1.3.2.7.2.9.8 1.7 1.8 2.3 2.9l.2.5c.2.3.3.5.5.9l.2 1.6.3 4.4-.1 4.8c.1 3-.3 6.6-.2 9.4l.1 4.1c0 .3.1.8-.2 1.2-.2 0-.2-.2-.5-.2l-6 .1c-.1-.1-.3-.2-.5-.2v-.6c-.1-1.3-.1-2.6-.1-4l.2-4.7c-.1-.7-.1-1.5-.1-2.2l.1-2.1v-4.5c0-.9 0-1.8-.2-2.8 0-.2-.1-.6-.2-.8-.1-.6-.3-1-.7-1.4-.3-.5-.8-.7-1.3-.9-.6-.2-1.2-.3-1.6-.2-.7 0-1.3.2-1.8.6-.5.3-.8.7-1.3 1-.1.3-.2.6-.5.9 0 .3 0 .8-.2 1.2.2 2.2.1 5.2.1 7.4.1 1.3.1 3.1.1 4.5.1.7.1 1.3 0 2l.1 3.6-.1 3.7h-6.9c-.2-.1-.2-.3-.3-.3l-.2-4.3c-.1-.8.1-1.6 0-2.5l-.2-2.6c0-.9.1-2.1.2-3s.1-2 .1-2.9l-.1-2.9c0-.5 0-.8-.1-1.3 0-.5-.1-.9-.2-1.3 0-.3-.1-.7-.2-1 0-.1-.1-.2-.2-.3 0-.1-.1-.1-.1-.2-.1-.2-.2-.3-.3-.5l-.2-.5-.5-.2c-.1-.1-.1-.2-.2-.3s-.2-.1-.3-.1c-1.4-.6-3-.2-4.1.8-.5.6-.8 1.4-.8 2.2a4.3 4.3 0 0 0-.2 1.2c0 .1 0 .2.1.3 0 .9-.1 1.8-.2 2.8-.1.7.1 1.5-.1 2.2l-.1 9.6c.1 1.2.1 2.4.1 3.6 0 .7.2 1.4-.1 2-2.1.2-4.8-.2-6.9 0-.1-.1-.1-.2-.2-.3-.1-1.2 0-2.3.1-3.3 0-.8-.1-1.6-.3-2.3-.1-2-.1-3.9 0-5.9v-4.3a4.3 4.3 0 0 1 0-1.6c.1-.1-.2-.1-.1-.1-.1-.9-.1-1.6-.1-2.6a40.28 40.28 0 0 1-.3-4.9c.1-1 .5-1.8.1-2.9.3-1-.1-2.1.3-3.1 2-.2 3.9-.1 5.8.2-.1.3.2.9-.1 1 .2.2.2.8.5 1.2.2-.3.6-.7 1-.9 1.3-.8 2.8-1.3 4.4-1.4.5-.1 1-.1 1.5-.1a7.59 7.59 0 0 1 4.6 1.2c.1.1.3.2.5.2.5.6 1 1.2 1.6 1.5v.1c1.7-2.2 4.4-3.3 7.1-3.3 1.2-.9 2.2-.8 3.1-.7zm-10.1 3.1s0 .1-.1.1c0 0 .1 0 .1-.1h0zm44 28.6c-1.5.2-3.7-.3-4.9-.2-.3-.7-.7-1.4-.9-2.1-.5.5-.9.9-1.5 1.3l-.6.2c-.2.1-.3.2-.6.3l-.6.1c-.5.2-1 .3-1.5.5a4.3 4.3 0 0 1-1.2.2c-1 .1-2 .1-3 .1-1-.2-2.1-.7-3-1.2s-1.7-1.2-2.5-1.8c-.8-1-1.4-2.3-1.6-3.7v-.7l-.2-.5V93c0-.5 0-.9.1-1.4.3-1.7 1.2-3.3 2.3-4.6.5 0 .8-.5 1.2-.7 1.2-.8 2.3-1.6 3.7-2.2 1.3-.6 2.8-.9 4.1-1.5 1-.5 2.2-.8 3.3-1 .3-1.4.1-4.1-1.4-4.5-.9-.8-2.2-1-3.3-.7-.3.1-.7.2-1 .5-.5.2-.9.7-1.2 1.2a3.88 3.88 0 0 0-.8 2.8c0 .2.2.3.2.7-.9.2-1.8.2-2.8 0l-3.8-.2-.5-.3c0-3.2.3-5.8 2-7.6.2-.2.8-.6 1-.9s.5-.6.8-.8c.2-.2.5-.3.7-.6l.5-.1c.1-.1.2-.3.5-.3l.7-.2c1.3-.3 2.5-.6 3.8-.6.2 0 .1.1.2-.1 1.7 0 3.6.2 5.2.9.8.2 1.5.6 2.2.9.6.6 1.3 1 2 1.5.3.2.6.6.9.9.2.3.2.8.6 1.2.6 2.3.8 4.6.8 6.9v7l-.1 6.6.1 2.1.1 2.2v.6c.1.1.1.6 0 1.1zm-7.4-14.2h0c-2.3.7-4.7 1.3-6.4 2.6-.3.9-.9 1.5-.7 2.5.1.7.5 1.3 1 1.6 1.8 1.3 4.6.5 5.9-.9.4-1.5.1-3.6.2-5.8h0zm17.3-.9c2.1-2.9 3.8-6 5.8-8.9l-10.8-.3c-.1-.2 0-.5-.3-.6.1-2-.2-3.7-.1-5.8l.3-.5c2.1-.2 4.5-.2 6.9-.2.1 0 .1-.1.1-.1 1.8 0 3.9.1 5.9.2.8 0 1.6 0 2.4-.1 1.5-.1 3.1.1 4.9.1l.3 3.8a2.85 2.85 0 0 1 0 1.3c0 .5 0 .9-.1 1.3-.1.8-.7 1.4-1 2.2-.2 0-.1.3-.3.3-.5 1.2-1.2 2.2-2 3.1-1.4 2-2.5 4.1-4 6l-1 1.4c-.3.5-.7.9-1 1.4-.2.3-.3.7-.6 1-.7.9-1.3 1.8-1.8 2.9 3.3-.1 5.9-.2 9.4 0 .8-.1 1.6 0 2.3.2 0 2.1.5 4.5-.1 6.3-.7.1-1.5.2-2.2.2-.6 0-1.2 0-1.6-.1-5.4-.1-11.2.2-16.2.1-.1-.1-.3-.2-.5-.3-.2-2-.2-3.8-.1-5.8.1-.2-.1-.2-.2-.3.8-1.5 2-3 2.9-4.5.5-.7.9-1.5 1.4-2.2l1.3-2.1zm12.6-28.8c-.8 1.4-1.6 2.6-2.5 3.9-.9 1.4-1.5 2.8-2.4 3.9-1 .2-2.6 0-4 .1-.3 0-1.4.5-1.5-.5-.5-1.2-1-2.2-1.8-3.1-.6-1-1.4-2-2.3-2.8-.2-.6-.7-.8-1-1.3.2-.2 0-.3.1-.7 1.6.1 3.2-.1 4.8-.1 1 .9 2.1 1.8 3.1 2.8 1-.7 1.5-1.8 2.4-2.5.2 0 .1.1.3.1 1.2-.2 2.8 0 3.9-.1.3.1.7 0 .9.3h0zm8 39.7c-1.4-2.9-1.4-6.7-1.4-10.4.1-3.2.2-6.6.1-9.6-.1-2.1.2-4.6 0-6.7 1.6-.8 4.8-.6 6.8-.3.1.1.3.2.5.2.1 1.5.1 2.9 0 4.4.1.1.1.3.1.5.1 1.3.1 2.6.1 4-.1 1 0 2.1-.1 3.1s-.1 1.7-.2 2.6.1 1.5.1 2.3c.1 1 .1 2 .1 3-.1.9.1 2 .5 2.9.7 1.2 2.1 1.7 3.3 1.5.7-.1 1.3-.2 2-.6.7-.6 1.3-1.3 1.6-2.1.1-.6.1-1.2.1-1.7-.1-.9.1-2 0-2.8-.1-.5-.1-.9-.1-1.4 0-2.5-.1-5.3 0-8.1.2-2.5.2-5.1.1-7.7a8.33 8.33 0 0 1 2.2-.3c1.2-.1 2.1 0 3.3 0 .3 0 .8.1 1.2.2.2-.1.3-.1.6 0 .1 1 .1 2.2.1 3.2.1 4.5.2 9.7 0 14.7 0 .9 0 2 .1 2.9 0 1.3-.1 2.3-.1 3.6.1.6.1 1.2.1 1.8-.1 1.4-.1 2.8 0 4.1-.2.2-.2.2-.2.6-.2 0-.3 0-.3.2-1.6.1-3.3.1-4.9-.1-.2-.8-.6-1.5-.7-2.3-1.6 1.5-3.8 2.4-6.1 2.5h-1.5c-1-.1-2.1-.3-3.1-.7-.6-.1-1-.3-1.5-.7-.7-.5-1.3-1-1.7-1.7-.6-.2-.9-.5-1.1-1.1z" fill="#ffdd15"/><g fill="#404041"><path d="M27.9 81.8c.2 3 .7 6.4.5 10-.1.7-.1 1.4-.2 2-.2.7-.3 1.5-.2 2.3-.1.5-.5.8-.3 1.3-.1.1-.2.1-.3.2-.3.6-.7 1.3-1.2 1.8-.3.6-.9 1-1.3 1.5-.3.1-.6.5-.8.6-.7.5-1.4.8-2.1 1-.3.2-.7.3-1 .5-1.2.3-2.4.5-3.7.3-1.2 0-2.3 0-3.5-.2.2 3.3.1 6.6.2 10.5v1.4c0 .6 0 1.2-.1 1.6-.2.1-.3-.1-.6 0-.2.1-.2.2-.3.2-1.3-.1-2.5 0-3.7.2-.5 0-.9-.1-1.4-.1-.1-.1 0-.3-.1-.3-1.4-.8-2.6-1.8-3.8-3 .2-6 0-10.9-.1-16.3-.1-3.3-.1-7.6-.1-10.5 0-1.3.1-2.8 0-4.3 0-2.1 0-4-.1-6.3-.1-1.4 0-2.6-.1-3.9a2.85 2.85 0 0 0 0-1.3c.1-.2.2-.3.2-.6 1.7-.2 3.6-.2 5.3 0 .2.7.5 1.5.6 2.3.2-.2.5-.3.7-.6.1-.1.2-.3.5-.5.5-.3 1-.6 1.6-.8 1.3-.5 2.5-.7 3.9-.6 1.7-.1 3.3.2 4.8 1 .3.2.7.2.8.3s.3.6.6.7a.9.9 0 0 0 .5.1c.5.2.9.5 1.3.8 1 .6 2 1.5 2.6 2.4.5.9.8 1.8.9 2.8 0 1.4.2 2.4 0 3.5zM4.6 113.5c2 .2 3.9.2 5.9.1.1-1.5.1-3.1.1-4.5 0-.3-.1-.7-.1-1 0-1.6.2-3.1.2-4.5-.1-1.5-.1-2.9 0-4.4.1-.1.3-.1.5 0 .1.1.1.2.2.3 1 .8 2.3 1.4 3.6 1.4.3.1.6.1.9.1 2.1.1 4.4.1 5.6-1 .1-.2.1-.3.3-.5.3.3.6-.2.8-.3-.2 0-.2-.1-.2-.3l.2-.2c.2 0 .2.2.5.2.5-.7 1.2-1.2 1.3-2.1.5-.8.7-1.6.8-2.5.1-1.5.1-2.9 0-4.4l-.1-7.8c0-1.8 0-3.7-.3-5.4-.2-1.3-.8-2.4-1.8-3.3-.5-.5-.9-.9-1.4-1.3-.1-.1-.2 0-.2-.1-.1.1-.1 0-.1 0s-.5-.2-.6-.3c-.6-.2-1.3-.3-1.8-.6-1.3-.1-2.5-.1-3.7 0-.2 0-.3.1-.6.1-.8.1-1.5.3-2.3.6-.3.2-.7.5-1 .7s-.5.7-.9.7c-.2.3-.3.6-.5.8-.2-.1-.2-.5-.5-.6-.1-.8-.2-1.6-.5-2.3-1.5-.1-3-.1-4.5.1.1 2.3 0 3.9.1 5.5.1 2.5.1 5.1.1 7.8 0 1.4.1 2.2 0 3.2-.1 3.6 0 7 .1 10.8.1 1.4 0 2.9.1 4.4l-.2 10.6c0-.1-.1 0 0 0zm4.4 3.1c-.7-.9-1.5-1.6-2.4-2.3-.5 0-1 0-1.5-.1a20.97 20.97 0 0 0 3 2.2c.1.1.2.2.3.2H9zm2-.1c-.8-.7-1.6-1.4-2.3-2.2-.2.1-.9-.1-1.2.1.3.3.7.8 1 1.2.2.2.8 1 1.2 1.2s1-.4 1.3-.3h0zm1.8-.1c-.2-.5-.7-.6-1.2-1-.2-.2-.8-1-1.2-1-.3 0-.6.1-1 .1.5.7 1.4 1.4 2.1 2.2.5-.3.8-.4 1.3-.3h0zm-2.2-30.2c-.1-1.2-.1-2.2-.1-3.2.1-.8.1-1.6.1-2.4-.1-.2-.1-.6-.1-.8.1-.6.6-1 .8-1.5 1.3-.9 2.8-2.2 5.1-1.5l.6.3c1.7 1 1.8 3.6 2 5.9.1 1 .1 2.1.1 3s.1 1.8.1 2.6-.1 1.5-.1 2.1c0 .7 0 1.3-.1 2-.1.6-.3 1.2-.6 1.7-.6.1-.8.7-1.5.9s-1.2.2-1.7.3c-.5-.1-.9-.1-1.4-.2-.6-.1-1-.5-1.4-.6l-.7-.7c-.2-.6-.5-1-.8-1.5l-.3-6.4zm2.8 28.6c-.1 0 0 .1-.1.1-.7-.6-1.4-1.5-2.2-2.2.1.6-.2 1 0 1.5.1.1.5.3.6.5.6.6 1.3 1.2 1.8 1.5-.2-.5-.1-1.1-.1-1.4h0zm-2.3-7.7c.1.2.3.3.6.6.5.7 1 1.3 1.7 1.8-.1-.7-.1-1.3 0-2-.8-.3-1.5-1.4-2.3-2 0 .4-.2 1.1 0 1.6h0zm0 2.4c.6.8 1.3 1.5 2 2.2.1.1.2.3.3.3 0-.5 0-1.2-.1-2-.8-.6-1.6-1.4-2.3-2.2 0 .5 0 1.1.1 1.7h0zm2.3 3c-.1-.1-.2-.1-.3-.1-.7-.7-1.4-1.3-2.1-2.1v1.5c.7.8 1.6 1.6 2.3 2.5.1-.6.1-1.3.1-1.8h0zm-2.3-32.8l2.1 2.1c.1-.6.3-.9.3-1.4-.6-.6-1.2-1.2-1.8-1.6-.2.2-.4.5-.6.9h0zm0 2.4c.5.6 1 1 1.5 1.5.1.1.3.5.5.3.1-.5 0-1.2.1-1.7-.1 0-.1.1-.2.1-.6-.6-1.2-1-1.7-1.6-.2.2-.2.8-.2 1.4h0zm0 2.2c.7.6 1.3 1.4 2 2.1v-1.7c-.6-.6-1.3-1.3-2-1.8v1.4zm.2 2.6c.6.8 1.4 1.5 2.2 2.2-.3-.7-.1-1.5-.3-2.1-.1-.2-.2-.3-.5-.5L11.2 85c-.1.6-.1 1.2.1 1.9h0zm1.3 15.5c-.6-.5-.9-1.2-1.5-1.6 0 .5 0 .9.1 1.4.7.7 1.4 1.5 2.1 2.2 0-.5-.1-.8-.1-1.3-.2-.1-.5-.2-.6-.3s-.1-.2 0-.4h0zm.8 4.8c-.1-.8-.1-1.6-.1-2.4-.1 0-.2-.1-.3-.1-.6-.6-1.3-1.2-1.8-1.7 0 .7 0 1.3-.1 2 .7.6 1.5 1.4 2.3 2.2h0zm-2.1-19.5c0 .6.1.9.1 1.5.6.8 1.4 1.5 2.2 2.1-.1.1 0 .1.1.1 0-.5 0-1-.1-1.5-1-.7-1.8-1.5-2.3-2.2h0zm.1 4.3c.7.7 1.5 1.3 2.2 2-.1-.6-.1-1.3-.1-1.8-.7-.7-1.5-1.3-2.3-2 .2.5.1 1 .2 1.8h0zm2.3 2.3h-.2c-.6-.5-1.4-1-2.1-1.6 0 .3.1.7.3.9.2.8 1 1.2 2 1.3.1-.2-.1-.4 0-.6h0zm.4 8.4c-.3-.5-.7-.9-1-1.4-.5-.1-.9-.5-1.3-.6.5.7.9 1.3 1.5 1.7.3 0 .5.3.8.3h0zm-1.9-24.2c.6.5 1 .8 1.5 1.3.1-1.4 1-2 2.1-2.6-.7-.1-1.3 0-2 .3.2.2.7.6.3.8-.3-.1-.5-.5-.7-.6-.5 0-.9.5-1.2.8h0zm4-1c-.6.3-1.4.6-1.6 1.3s-.5 1.4-.6 2.1c-.6 2.2-.6 4.5-.3 6.8.2 1.5.3 2.9.5 4.4 0 .9 0 2 .2 2.9 0 .1-.1.1-.2.2 1.4.1 2.8-.3 3.8-1.2a1.93 1.93 0 0 1 .3-1c.3-2.9.1-5.8.2-8.3-.2-2.1-.1-5.2-1.3-6.6-.4-.4-.6-.9-1-.6h0zm2.2 25.3c-.5-.3-.8-.7-1.2-1-.3-.1-.7-.1-1.2 0 0 .2.5.3.6.8-.8.1-1-.7-1.6-.9-.5 0-.8-.1-1.3-.2.1.5.7.8 1 1.3h3.7zm2.1-.2c-.3-.2-.7-.6-1-.8-.5 0-1 .1-1.5.1.5.3.8.7 1.3 1 .4-.2.8-.3 1.2-.3h0zm1.5-.6c-.3-.2-.7-.6-1-.7-.2.2-.6.2-.7.3.2.2.6.5.8.7l.9-.3zm1.1-.7a12.75 12.75 0 0 0-1.2-.7c-.1.2-.5.2-.5.5.3.2.6.5.9.7.2-.3.6-.3.8-.5h0zm1.2-.8c-.5-.2-.7-.5-1.2-.7-.2.2-.5.2-.6.6.3.2.7.5 1 .8.3-.2.5-.5.8-.7zm1.3-1.4c-.3-.3-.8-.7-1.3-1-.2.6-.7.8-.9 1.4.5.2.7.6 1 .8.6-.4 1-.8 1.2-1.2h0zm-1.7-25.4c.1.2.2.3.3.5-.1-.2.1-.1.1-.2 0-.2-.1-.3-.4-.3h0zm.6.7c.3.6.7 1.3.8 2 .8.3 1.4.9 1.7 1.6-.1.1-.1.2-.2.2-.5-.3-.8-.9-1.4-1.3.1.6.2 1.4.2 2.2 0-.2.1 0 .2-.1.5.7 1.2 1 1.6 1.6 0-1.8-.5-4-1.5-5.3-.6.1-.8-.9-1.4-.9h0zm2.4 22.8c-.6-.3-1-.8-1.6-1.2-.2.5-.2 1-.6 1.2 0 .1 0 .3-.1.5.5.2.9.7 1.4 1 .2-.6.6-1.1.9-1.5h0zm-1.3-13.3c0 .1.1-.1.2 0 .6.7 1.3 1.3 2 1.8-.1-1.4-.3-3.1-.3-4.8-.8-.1-1.3-.9-2-1.4 0 .6.1.9.1 1.5.6.3 1 .8 1.4 1.4.1.2.3.2.2.6-.7-.1-1-1-1.6-1.3v2.2zM27.5 95c-.6-.5-1.2-1-1.7-1.5 0 .7 0 1.3-.2 2 .5.5 1 .9 1.6 1.3.1-.1.1-.2.2-.3-.3-.6.1-1 .1-1.5h0zm.3-8.9h-.3c-.6-.6-1.3-1-1.8-1.6 0 .8-.1 1.5 0 2.2.6.8 1.5 1.3 2.1 2.2-.3.5-.9-.3-1.2-.7-.2-.1-.3-.2-.5-.3-.1-.2-.2-.3-.3-.3v2.2c.5.6 1 1 1.7 1.4-.1.2.3.2.3.6 0 .1-.1.1-.1.1-.9-.3-1.3-1-2-1.5 0 .9.1 1.7.1 2.5.1.1.1-.1.3-.1.5.6.9 1.2 1.5 1.6.3-2.7.5-5.5.2-8.3h0zm27.5 3.8c0 .3.1.7.1 1.2 0 .7-.1 1.5-.2 2.2 0 .5 0 .9-.1 1.4a3.49 3.49 0 0 1-.5 1.3c-1.8 4.4-5.8 7.6-10.5 8.5-.2-.1-.1.2-.2.2s-.2-.2-.3-.2c-2.5.1-4.9-.5-7.1-1.7-1.4-.8-2.6-2-3.7-3.2-.2-.2-.3-.5-.5-.7-.2-.3-.6-.8-.3-1-.7-1.2-1.2-2.4-1.4-3.8s-.2-2.9-.2-4.3c-.1-1.3-.1-2.5.1-3.8-.2-1 0-2.3-.2-3.5-.2-.8-.2-1.6-.2-2.3l.3-1.8c.1-.6.2-1 .5-1.6.3-.9.8-1.7 1.4-2.5 1.2-1.4 2.5-2.5 4-3.2.8-.3 1.7-.6 2.6-.7 3.2-.1 6.3.7 9.2 2.1.6-.1.9.3 1.3.3 1.3.8 2.4 1.7 3.3 3 .6 1 1 2.2 1.3 3.3.2 1.2.3 2.5.5 3.9s.6 2.5.7 3.9c.1 1 0 2 .1 3zm-22.9 7.3l.5.5c.2.2.3.5.5.6.5.3.9.7 1.5 1 .2.1.3.3.5.3.1.1.5.1.6.1.5.3 1 .6 1.6.7.5 0 .9.1 1.3.3 1.4.3 2.8.5 4.1.3.3-.1.6-.2.9-.2.1 0 .2.1.3.1.5-.1.9-.2 1.3-.5.5-.1.9-.2 1.4-.5.1 0 .2-.1.3-.2.5-.2.9-.5 1.3-.7.3-.2.6-.6.8-.8.6-.6 1-1.2 1.6-1.7 0-.1-.1-.5 0-.6s.2.1.3-.1c.2-.5.3-1 .3-1.5.2-1 .3-2.1.2-3.1-.1-1.8 0-3.5 0-5.1 0-1.4-.1-3-.1-4.5-.1-1.6-.3-3.2-.7-4.8-.3-.9-.9-2-1.4-2.8l-1-1c-.3-.1-.6-.3-.9-.5-.2-.2-.6-.3-.8-.5-.5-.1-.8-.2-1.3-.3-.3-.1-.7-.3-1.2-.3-.2-.1-.5-.1-.6-.1-.3-.1-.7-.2-1.2-.3-1.3-.2-2.6-.2-3.9-.2-.2 0-.5.1-.7.1-.6.2-1.3.5-2 .7-.5.3-.9.7-1.4.9l-.7.7c-.1.1-.1.2-.2.3s-.2.1-.3.2a9.63 9.63 0 0 0-1.6 2.5c-.7 1.7-1 3.7-1.2 5.5 0 .1.2.1.2.3s0 .5.1.7c-.1.9.1 2.1.1 3 0 1.2-.1 2.3 0 3.6 0 1.2 0 2.3.1 3.5.1 1 .3 2.1.7 3 .2.4.4.9.7 1.4h0zm5.7 5.1c-.7-.5-1-1.2-1.6-1.6-.3-.2-.9-.5-1.4-.7-.9-.5-1.7-1-2.4-1.7 0-.1-.2-.3-.2-.3 1.4 2.2 3.6 3.9 6 4.8a.55.55 0 0 1-.4-.5h0zm-1.4-20.8c0-.1.1-.2.2-.2 0-.8.1-1.6.3-2.4.1-.3.5-.6.6-1 .5-.1.6-.6 1-.7-.1-.2-.1-.6.1-.7.2.1.2.2.2.3 1.3-.5 2.8-.6 4-.1.6.5 1.4.7 1.7 1.4.3.8.6 1.6.6 2.4.1 1.6.2 3.2.2 4.8 0 1.7.3 3.3.2 5.1 0 1.2-.2 2.3-.7 3.3-.2 0-.3.2-.3.3-.5.7-1.2 1-2 1.2l-.9.3c-1 .1-2.2-.1-3.1-.6-1-.8-1.6-2-2-3.2-.3-2-.1-4.4-.1-6.6.2-1.3.1-2.4 0-3.6zm3.8 22.1c-.5-.5-1-1-1.5-1.6-.2-.3-.5-.7-.8-.7-.2.1-.5 0-.8-.1.6.7 1.4 1.5 2.1 2.2.3 0 .6.1 1 .2zm-3.1-19.4c.1.2.3.5.5.6.3.6.8 1 1.3 1.5.1.1.2.2.3.1 0-.5.1-1 .1-1.5a22.84 22.84 0 0 1-2.2-2.2c.1.4-.1 1 0 1.5h0zm0-2.2c.7.9 1.4 1.6 2.2 2.4 0-.6.1-1 .1-1.6-1-.5-1.4-1.8-2.1-2.4-.1.2-.1 1-.2 1.6h0zm0 4.5c.1.1.2.1.2.2.5.6 1.2 1.3 1.6 1.8 0 .1.2.3.2.2v-1.8c-.9-.3-1.4-1.3-2.1-2 .2.5.2 1.1.1 1.6h0zm0 2.4c.6.5 1.2 1.2 1.7 1.6.2.2.3.5.5.5 0-.5-.1-.9-.1-1.5l-2.1-2.1c.1.3.1.9 0 1.5h0zm.1 2c.6.7 1.2 1.3 1.8 1.8.2.2.3.6.6.6-.1-.6-.1-1.2-.2-1.8-.8-.7-1.5-1.4-2.3-2.2.1.7.1 1.1.1 1.6h0zm.1-11.4c.6.7 1 1.6 1.5 2.3.2.2.3.5.5.5 0-.5.1-1 .2-1.5-.7-.7-1.3-1.5-2-2.2-.1.4-.1.7-.2.9h0zm2.8 15.2c-.2-.3-.3-.7-.5-1.2-.2-.1-.1 0-.2 0-.7-.6-1.4-1.2-2-1.8.3 1.5 1.3 2.7 2.7 3h0zm-2.1-16.4c.6.7 1 1.4 1.6 2l.3-1.4c-.6-.3-.8-.9-1.3-1.4-.1.3-.4.6-.6.8h0zm4.7 25.5l-2-2c-.6 0-1.3-.1-1.8-.3.2.5.6.8 1 1.2.3.3.7.7 1.2 1 .5.1 1.2-.1 1.6.1h0zm-3.5-26.6c.3.5.6.9.9 1.3.2-.7.6-1.3 1.3-1.7-.9.2-1.9.1-2.2.4zm2.4 0c-.3.1-.6.6-.8.9-.9 1.8-.9 4.7-1 7.6-.1 1.4-.1 2.8 0 4 0 1.4.1 2.6.5 3.9.1.5.3.9.7 1.3.3 0 .7 0 1-.1.1-.1.2 0 .3-.1.5-.2.8-.5 1.2-.7.3-.3 1-.7 1.2-1 .2-.6.3-1.3.3-2 .1-2.1-.1-4.6-.2-7 0-.7.1-1.5 0-2.2-.1-.9-.2-2-.2-2.5-.2-1-1-2-2.1-2.3-.4.2-.6.1-.9.2h0zm3 26.3c-.6-.5-1.2-1.3-1.6-1.7-.1-.1-.5.1-.6.1-.2 0-.6-.1-.8.1l1.8 1.8c.4-.1.7-.1 1.2-.3zm1.6-.5c-.6-.5-1-1-1.5-1.6l-1.4.3c.5.7 1.2 1.2 1.6 1.8.6-.1.9-.4 1.3-.5zm2.5-1.4c-.3-.5-.8-.9-1.3-1.3-.2.1-.5.2-.7.3.3.5.7.9 1 1.4-.1 0-.2.1-.3.1-.5-.3-.9-.8-1.3-1.3-.3.1-.7.2-1 .5.5.5.9 1.2 1.4 1.5.1 0 0 .1 0 .1.8-.5 1.5-.8 2.2-1.3zm1.5-1.1c-.8 0-1-.7-1.5-1-.2.2-.6.3-.7.6.3.5.7.8 1.2 1.3.2-.3.5-.6 1-.9zm1-1.2c-.1 0-.2-.1-.2-.1-.2-.1-.8-1.2-1-1.2l-.3.3c-.2.3-.5.5-.7.7.3.5.9.8 1.3 1.3h0c.3-.3.6-.6.9-1h0zm-1.3-25.4h0c.6.9 1.2 2 1.4 3 .8.6 1.2 1.5 1.8 2.2-.5-2.2-1.4-4-3.1-4.9 0-.2-.1-.5-.1-.3zm2.5 24.2c-.6-.2-1-.7-1.3-1.3-.2.3-.7.6-.7.9.1.3.3.6.5.7l.7.7c.2-.3.4-.7.8-1h0zm1-1.6c-.7-.1-1.2-.9-1.7-1.3 0 .5-.2.9-.3 1.3.5.5.8.9 1.3 1.4.2-.4.4-.9.7-1.4h0zm0-16.7c-.2-.1-.3-.3-.5-.5-.3-.3-.7-.9-1-1.3-.1-.1-.2-.3-.3-.3l.3 2.1c.5.7 1 1.3 1.6 1.7-.1-.5-.2-1.1-.1-1.7h0zm1.1 12.3c-.3.1-.6-.1-.9-.3-.5-.5-1.2-1.3-1.5-1.7.1.8-.1 1.5.1 2.1.2.3.6.7.8 1s.6.7.9 1c.1.1.3.1.3.3-.6.2-1-.3-1.3-.7-.2-.3-.5-.6-.8-.8 0 .6-.1 1.2-.3 1.6.5.7 1 1.3 1.7 1.7.3-.8.6-1.5.8-2.3-.3-.5.3-1.2.2-1.9h0zm-.8-9.7c-.2-.3-.6-.6-.9-.8l-.8-.8c.1.5.2 1 0 1.3.3.5.6.9 1 1.4.3.5.7.9.9 1.4-.9-.1-1.3-1.3-1.8-1.7v1.4c.7 1 1.5 2 2.3 2.8-.1-1.4-.5-2.9-.6-4-.1-.5-.1-.7-.1-1h0zm-1.7 4.7c.8.9 1.6 1.6 2.4 2.4 0-.6-.1-1.4-.1-2.2-.1.1-.2-.1-.3-.1-.7-.7-1.4-1.4-2-2.2-.1 1.1 0 1.6 0 2.1h0zm2.5 2.9c-.9-.7-1.6-1.5-2.4-2.2v1.4c.7 1 1.5 2 2.4 2.8v-2z"/><path d="M97.3 97.3c-.1.9 0 2 0 2.9-.1 1.3-.1 2.6-.1 3.9 0 .1-.2.2-.3.1.1.5-.3.3-.8.3-1 0-2.1-.2-3.3-.2l-2.8-.1c-.2-.2.1-.3.1-.5-.9-.5-1.6-1.3-2.5-2 0-.1 0-.2.1-.3 0-.1-.3-.1-.3-.2v-5.6l.1-6.9c.1-.7-.1-1.4-.1-2.2 0-2.5.5-5.3-.5-7.8-.5-.6-1-.9-1.7-1.3-.5.1-.9.2-1.3.5-.3.2-.7.6-.5 1-.2.3-.5.7-.5 1.2-.2 1.4-.3 2.8-.3 4.1l-.1 4.6c-.1 1.7.1 3.5.1 5.2l-.1 4.9c.1.7.1 1.3.1 2l-.3 2.4c-.1-.1-.3 0-.5.1 0 .1-.1.1 0 .2-.5 0-.9.1-1.4.2-.6 0-1.2 0-1.7-.1h-3c-.1-.1 0-.2-.1-.3-.5-.3-.8-.7-1.3-1s-.9-.8-1.4-1.3c-.2-.3-.2-.6-.2-1.3l-.2-4.3v-1.4l-.2-2.9.2-2.1.2-3.3c.1-1.3 0-2.5-.2-3.8.1-.1-.1-.2.1-.2-.1-.3-.2-.7-.2-1 0-.6-.1-1.3-.3-1.8-.1-.2-.3-.3-.3-.7-.2-.2-.3-.5-.5-.7-.1-.2-.3-.2-.6-.5-1.7-.2-2.9 1.3-3 2.9s0 3.2 0 4.9c0 1.4-.2 3-.3 4.5l-.3 6.8v6.8c-.2.1-.3.2-.5.5-.2 0-.5.1-.7.2-1.3-.1-2.6.1-4.3-.1-.5 0-1 0-1.5-.1-.2-.1-.5-.3-.7-.6l-2-1.7c0-1.6.1-3.3-.1-4.7l-.1-1.5c0-.5-.1-1-.1-1.4l.2-5.3c0-.6-.1-1.2-.1-1.6 0-.6 0-1.2-.1-1.8.1-1.2.1-2.4 0-3.6.1-.1 0-.1.1-.1 0-.2-.1-.1-.1-.2l-.3-3.6c-.1-.6-.1-1.2 0-1.6 0-.2.1-.2.2-.5V74c0-.3-.2-.7-.2-1 0-.2.1-.2.1-.3.1-.5-.1-1 .1-1.4-.1 0-.2-.3 0-.2-.2-.2 0-.7.1-1.2a1.08 1.08 0 0 0 .7-.3c1 .2 2.3 0 3.6.2l1.6.3c0 .7.2 1.4.3 2.1 1.5-2.3 5.6-2.8 9-2.2.3 0 .7.1 1 .2.3.2.7.3 1 .5.1.1.2.1.2.1l.1.2s.1 0 .2.1c.7.5 1.4 1.2 2.1 1.6.2-.3.6-.3.8-.6l.3-.5c.2-.2.6-.5.9-.6l.3-.3c1-.7 2.2-1.2 3.3-1.3 1.4-.2 2.8-.1 4.1.2.3.1.7.1 1 .3l1 .3c.8.3 1.5.7 2.2 1 .3.1.6.2.8.5.5.3.8.7 1.2 1.2a9.58 9.58 0 0 1 2 2.5c.9 1.6 1.5 3.2 1.8 5.1.2 1.4.1 2.8.2 4.4.9 4.5.7 8.3.5 12.4zm-9.4 3.7c1.3.1 2.5.1 3.7-.1.8.1 1.6.1 2.3 0-.1-1.2-.1-2.4 0-3.6 0-.7-.2-1.5-.2-2.3 0-1.8.2-3.7.3-5.4-.1-1.5-.1-2.9 0-4.4-.1-1.4.1-3 0-4.5l-.3-3.5c-.2-1.2-.7-2.2-1.3-3.1-.1-.1.2-.1.1-.2-.5-.8-1.2-1.5-2-2.1-1.4-.6-2.9-1-4.4-1.4-3.1-.2-4-.3-6.6 1.3-.6.1-1 .6-1.3 1-.3.1-.6.3-1 .6 0 .2-.1.5-.3.6-.5-.6-1-1-1.6-1.4-.5-.5-.9-.8-1.4-1-.1-.1-.2-.1-.3-.1l-.3-.2a10.9 10.9 0 0 0-2.6-.3c-.6-.1-1.2-.1-1.7-.1-2 .2-4.4.3-5.3 2.8H63c-.2-1-.5-1.6-.6-2.5-1.6-.2-3.1-.2-4.7-.2.1 3.8-.3 7.3.2 10.8-.2.6.1 1.2-.1 1.8.1 1 .2 2.2.1 3.2v5.5c0 .9-.1 1.8 0 2.6 0 .5.1.9.1 1.4 0 .3.1.7.2 1 .1 1.2-.1 2.8 0 4 2.2-.1 3.9.2 6.1 0-.1-1.5.1-3-.1-4.6-.1-2-.1-3.8 0-5.9 0-1 .1-2 .1-2.8 0-1.2 0-2.2.1-3l.2-1.5c.1-.8.1-1.7 0-2.5 0-.9.2-1.8.6-2.6.5-.7 1-1.2 1.7-1.5s1.5-.5 2.3-.3c.2.1.2-.2.3-.1.2.1.7.2 1.2.3.3.2.5.5.7.6.9 1 1.5 2.4 1.5 3.8l.2 1.5c.1 2.5.1 5.1-.2 7.6-.1 1.4-.1 2.5 0 3.8.1 2.2-.1 4.8.2 6.8 2.2 0 3.9.1 6.1 0 .1-2.1-.1-4.5 0-6.7s-.1-4.5-.1-6.8v-4.9c0-.6-.1-1.3-.1-1.8s.2-1 .2-1.4c.3-.1.2-.5.5-.8s.8-.7 1.3-1 .9-.6 1.5-.8c.2-.1.6 0 .8-.1 1.2-.1 2.4.2 3.3 1l.8.8c.3.8.6 1.7.6 2.5 0 2.4.1 5.3 0 8.1-.1 2.2 0 4.1-.1 6.3v5.8zm-26.2 2.5c-.3-.6-.9-1-1.3-1.6h-1.5c.8.5 1.4 1.7 2.8 1.6zm1.6.1c-.5-.5-.9-1-1.4-1.6-.5 0-.8 0-1.3-.1.8.7 1.1 1.8 2.7 1.7h0zm1 0c-.5-.5-1-1.2-1.4-1.6h-.7c.3.7 1 1 1.5 1.6h.6zm2.1-.1c-.6-.5-1.2-1.2-1.6-1.6-.3.1-.8.1-1.2.1.5.6.9 1 1.4 1.6.5 0 .9.1 1.4-.1h0zm.3-9.1c-.6-.7-1.2-1.4-1.7-2.1 0 .3-.1 1-.1 1.6.6.7 1.2 1.3 1.7 1.8l.1-1.3zm.1-2c-.7-.7-1.3-1.4-1.8-2.2v1.3c.6.8 1.2 1.5 1.8 2.2-.1-.3-.1-.8 0-1.3zm-.1 3.9c-.6-.6-1.3-1.2-1.8-1.7 0 .9.1 1.4.1 2.3.3.6.9 1 1.3 1.5.1.1.2.3.1.5-.3.1-.5-.3-.7-.6l-.7-.7c-.1.5.1.9 0 1.4.5.7 1 1.4 1.6 1.8.2-1.3 0-2.8.1-4.5zm0 5.2c-.1-.3-.6-.6-.8-.9l-.8-1c-.1.6-.1 1.3 0 1.8.5.3.9.9 1.3 1.2.1.1.2.3.3.3 0-.5.1-.9 0-1.4zm.4-11.7c-.7-.6-1.4-1.3-2-2-.1.6 0 1.3-.1 2 .7.7 1.2 1.5 1.8 2.2 0-.8.2-1.5.3-2.2h0zm.1-2c-.7-.7-1.3-1.6-2.1-2.3v1.6c.6.8 1.3 1.5 2 2.1 0-.4.1-.9.1-1.4h0zm.1-2.3c-.8-.7-1.5-1.4-2.1-2.3l-.2 1.6c.8.7 1.4 1.7 2.2 2.4 0-.4.1-1.1.1-1.7h0zm0-.3c-.1-.9-.1-2.1-.1-2.9-.7-.5-1.4-1-2-1.7-.1.7-.1 1.4 0 2.1.8.8 1.3 1.8 2.1 2.5h0zm0-5l-.1.1c-.6-.3-.9-1-1.4-1.6-.2.5-.3.9-.5 1.4.1 0 .1.1.2.1.5.7 1 1.3 1.6 1.8.2-.6.2-1.2.2-1.8h0zm.7-1.6c-.3-.2-.6-.7-.9-1-.3.2-.6.5-.9.7a5.09 5.09 0 0 0 1.3 1.6c0-.5.3-.9.5-1.3h0zm2-1.4c-.8-.2-1.6-.2-2.3.1.1.3.3.7.6 1 .4-.5 1-.9 1.7-1.1h0zm7.1 26.3c-.7-.6-1.3-1.3-1.8-2-.5.1-1.2-.1-1.4 0 .7.7 1.5 1.3 2.3 1.8.1 0 .1.2.2.2h.7zm2.2 0c-.8-.6-1.5-1.3-2.2-2h-1.3l1 1.2c.3.3.7.8 1 .9.4.1 1-.2 1.5-.1h0zm2.3-.2c-.7-.5-1.4-1-1.8-1.8-.2.1-.3-.1-.6 0 .2.3.6.7.8 1 .2.2.6.3.6.7-.8-.3-1.4-.9-1.8-1.7H78c.5.7 1.2 1.2 1.6 1.8.1.1.1-.1.2.1.1.1-.1.1-.1.2.6 0 1.2-.1 1.9-.3h0zm.7-20.5c-.1-.1-.1.1-.3 0-.7-.8-1.3-1.8-2.1-2.6-.1.6-.1 1.2 0 1.6.9.9 1.5 2 2.3 2.8l.1-1.8zm0 2.3a13.63 13.63 0 0 1-2.4-2.4c0 .6.1 1.2.1 1.8.5.7 1.2 1.3 1.7 1.8.2.2.3.5.5.7l-.2.2c-.7-.6-1.3-1.4-2-2.1v1.8l1 1.2c.3.5.9.8.9 1.3a2.73 2.73 0 0 1-1.5-1.3c-.1-.1-.2-.3-.5-.3 0 .6.1 1.2.1 1.6a26.22 26.22 0 0 0 2.2 2.5c-.2-2.3.1-4.5.1-6.8h0zm0 15.2c-.1-.6-.1-1.2-.1-1.7-.9-.5-1.5-1.6-2.2-2.3.1.7 0 1.3.1 1.8l1.7 1.6c.1.1.4.6.5.6h0zm-.1-5.2v-2.9c-.1-.1-.2.1-.3 0-.7-.7-1.3-1.4-1.8-2.2-.1.8-.1 1.7 0 2.5.7 1 1.4 1.8 2.1 2.6h0zm-2.1.3c.7.9 1.4 1.8 2.2 2.6-.1-.8 0-1.6 0-2.8-.8-.5-1.4-1.4-2.2-2 0 1-.1 1.5 0 2.2h0zm2.2 5.4c-.7-.7-1.5-1.4-2.2-2.1v.8l2 2.1v.1c-.5-.1-.7-.5-1-.7-.2-.3-.6-.6-.9-.8v1c.6.7 1.2 1.3 2 1.6 0-.6.1-1.3.1-2h0zm.2-20.3c-.6-.6-1-1.5-1.6-2-.3.2-.6.7-.7 1 .7 1 1.4 2.1 2.1 3 0-.8.1-1.5.2-2h0zm.3-1.6c-.3-.5-.7-.7-.9-1.2-.2.2-.6.2-.6.5.5.6.8 1.2 1.3 1.6.1-.4.2-.7.2-.9h0zm1.9-1.7c-.7-.2-1.5-.1-2.2.1.2.3.5.7.7.9a2.84 2.84 0 0 1 1.5-1h0zm7 26.5c-.8-.6-1.5-1.3-2.1-2.1-.5.1-.9 0-1.3.1.5.3.9.7 1.3 1.2.6.5 1.3.8 2.1.8h0zm2 .1c-.6-.7-1.4-1.5-2.1-2.2-.5 0-.9 0-1.4.1.7.7 1.5 1.4 2.1 2.1.4-.1.9 0 1.4 0h0zm2.3.3c-.7-.7-1.3-1.5-1.7-2.3-.5-.3-1.4-.1-2-.2.5.9 1.4 1.5 1.8 2.4.7-.1 1.3.1 1.9.1h0zm-3-30.2c.5.9 1.2 1.5 1.3 2.8.1 0 .1-.2.3-.1.3.7.9 1.3 1.4 2-.5-1.4-1.3-2.8-2.2-3.9-.4-.3-.6-.8-.8-.8h0zm3.1 5c-.7 0-1.2-1.3-1.7-1.6.1.6.2 1.5.2 2.4.8.6 1.4 1.5 2.2 2.2-.1-1.1-.4-2.1-.7-3h0zm.8 16.2c-1-.6-1.8-1.5-2.4-2.5 0 .6 0 1.3-.1 1.8.8 1 1.6 2 2.4 2.8.1-.9.1-1.4.1-2.1h0zm0 2.6c-.2-.2-.3-.5-.6-.6-.6-.7-1.4-1.5-1.8-2.1.1.7 0 1.2.1 2 .7 1 1.5 2.1 2.3 2.9-.2-.8.2-1.6 0-2.2h0zm0 2.8a13.12 13.12 0 0 1-2.4-2.8v1.8c.7.8 1.5 1.6 2.3 2.3 0-.4 0-.8.1-1.3h0zm.1-10.8c-.2 0-.2.1-.3.1-.8-.7-1.5-1.5-2.2-2.4 0 .6.1 1.3.1 2.1.6.6 1 1.2 1.6 1.6.2.1.3.3.6.6 0 .1-.1.2-.2.2s-.5-.3-.5-.5L94.6 90l-.1 2c.2.1.2-.1.2-.1.5.8 1 1.5 1.6 2.2.1.2.3.6.6.6.1-1.7.2-3.3.1-5h0zm-.3 12.9c-.8-.7-1.5-1.5-2.2-2.2 0 .3.1.7.1 1 .5.7.9 1.4 1.5 2.1.2.2.3.5.7.5 0-.5-.1-1-.1-1.4h0zm-1.8-17.9c.6.8 1.3 1.6 2 2.3 0-.8 0-1.6-.1-2.4 0 .1-.1.2-.2.2-.7-.7-1.4-1.5-2-2.3 0 1.4-.1 2.6-.1 4.3h.2c.5.7.9 1.4 1.4 2.1.3.1.3.6.7.6v-2.1c-.1-.1-.1.1-.2 0-.6-.3-1-.8-1.3-1.4-.1-.5-.8-1.2-.4-1.3h0zm1.8-2.5c-.7-.6-1.3-1.4-2-2 0 .5.1 1 .1 1.5l2.2 2.6c0-.7-.1-1.5-.1-2.2-.1 0-.1.2-.2.1z"/><path d="M99.3 94.5c-.1-.5-.1-.9 0-1.3 0-.5 0-.9.1-1.4.3-1.7 1-3.2 2.2-4.6.2-.1.2.1.2 0 2.6-2.2 5.8-3.7 9-4.5 1-.5 2.1-.8 3.1-1 .2-1.2.3-3-.6-3.6-.2-.1-.6-.2-.8-.3s-.5-.2-.7-.3c-.8 0-1.7.2-2.4.6-1.2.8-2 2.1-2 3.5 0 .3.1.7-.1 1 .1.1.1.3 0 .5-1.8.1-3.1.1-5.2.2 0-.1-.1-.2 0-.3-.5-.5-.9-1-1.4-1.5-.3 0-.3-.1-.6-.1.2.3.5.6.7.8.3.3 1 .6.7 1-.5-.1-.8-.3-1-.7l-1-1c-.1-.1-.1-.2 0-.3h0c-.1 0-.3 0-.3-.2 0-1.3.1-2.5.2-3.8s.7-2.5 1.6-3.6c.6-.7 1.3-1.4 2-2 .2-.2.5-.5.7-.6.1-.1.3-.1.5-.2.1-.1.3-.2.5-.3.3-.1.7-.2 1-.3 1.3-.3 2.6-.6 3.9-.6 1.6 0 3.3.3 4.8.8.6.2 1.2.5 1.6.7.6.2 1 .6 1.5 1h.3c1.6.8 2.9 2 3.9 3.5.8 1.8 1.3 3.8 1.2 5.8l.2 4.3c.2 2.8-.1 5.4.1 8.1l.2 2.2.1 7.3c-.1.1-.2.1-.3.3-.2-.1-.2-.2-.3-.2-1 .1-2.1.1-3 .1-.7.1-1.4.5-2.2.2-.1-.1.2-.2.1-.3-.5-.7-1.3-1.2-1.7-1.7.1-.5-.3-.7-.5-1.2-.7 1.5-1.8 2.6-3.5 3.2-.3.1-.6.2-.8.3-.6.1-1.3-.1-1.7.3-.5-.1-1.4-.1-2.2-.2-3.1-.5-4.6-2.9-6.8-4.6 0-.1.1-.1.1-.2l-.6-.8c-.1-.1 0-.1-.1-.2 0 0-.1 0-.1-.1-.5-.8-.7-1.6-.8-2.5v-.5c.3-.3.2-.5.2-.7zm.6.5v.6c.1.9.6 1.8 1.2 2.6l.3.6c.5.5 1 .9 1.6 1.3l.9.6c.9.6 2.1.9 3.1 1.2.5 0 .9 0 1.4-.1.7 0 1.3 0 2-.2 1.5-.2 2.9-.8 4-1.6.2-.2.5-.3.6-.5s.3-.7.3-.7c.5-.1.5.7.6 1 .2.3.3 1 .6 1.3a32.53 32.53 0 0 0 4.4.3c-.1-.3-.2-.6 0-.8-.1-1-.1-2.1-.1-3.1 0-.6-.2-1.3-.2-2 .1-1.7 0-3.7.1-5.4V88c0-.5.1-.9.1-1.4l-.1-4.1c-.1-.7 0-1.5-.1-2.2 0-1.5-.2-3-.7-4.5l-.1-.3c-.2-.5-.5-1-.9-1.4-.6-.7-1.3-1.3-2.1-1.8 0 .1 0 .1-.1.1-.9-.7-2.1-1-3.2-1.2-.3-.2-.9-.2-1.3-.5-.7-.1-1.4-.2-2.1-.2-.5 0-.9.1-1.4.2-1 0-2.1.1-3 .6-.8 0-1.4.7-2.1.9l-1.5 1.4-.3.3c-1.6 1.5-2.1 4.1-2.2 7 2 .1 3.9.3 6 .3-.1-.7 0-1.5.2-2.2.1-.2.2-.3.2-.6.6-1.2 1.6-2.1 2.9-2.4 1.8-.6 3.2.5 4.5 1.3l.6.7c.6 1.2.7 2.4.5 3.7.7.5-.3.8-.6.9-2 .3-3.7 1.3-5.6 1.8-1.5.6-3 1.3-4.4 2.1a32.57 32.57 0 0 1-2.2 1.7c-.1.3-.5.6-.6.9 0 .1-.1.2-.1.3-.1 0-.2.1-.3.2-.6 1.2-.9 2.4-.9 3.7 0 .4 0 1.1.1 1.7h0zm3.7-12.2c-.3-.3-.9-.7-.8-1.3-.6.1-1-.1-1.4 0 .3.5.7.9 1.2 1.3.2 0 .7.1 1 0h0zm3.5-.1c-.5-.3-.9-.7-1.3-1h-1.3c.3.3.6.7.7 1-.6.2-.8-.7-1.3-1-.2-.1-.6-.1-.9-.1.3.2.6 1 1 1.2.6 0 1.2 0 1.7-.2.5.1 1 .1 1.4.1zm2 21c-.5-.3-.9-1.3-1.5-1.4-.3-.1-.9 0-1.3-.2.2.3.8.6 1 1.2-.1-.1-.1.1-.2.1-1.2-.7-1.8-1.7-3.3-2.2-.1-.2-.3-.2-.6-.2 1.5 1.3 3.1 2.6 5.9 2.7zm-1.9-23.6c-.5-.3-.6-.8-.9-1.2-.5 1-.5 2.6.6 3 .1-.5.2-1.2.3-1.8h0zm-1 13.3c-.1-.3-.2-.8-.1-1.3.1-.6.2-1.2.6-1.6v-.4c1.8-2 4.6-2.4 7.5-3.2.1.1.1.5.2.6-.2 2 .5 4.4-.3 6-.6 1.3-2 1.6-3.2 2.3a5.72 5.72 0 0 1-3.6-.9c-.1-.1-.1-.2-.2-.2s-.2-.2-.3-.2c-.2-.3-.5-.7-.6-1.1h0zm2.1-15c-.2-.3-.5-.7-.8-1-.3.3-.6.7-.9 1.2.2.5.5.8.8 1.3.3-.7.5-1.2.9-1.5h0zm-1.6 14c0 1.3.8 2.3 2 2.5-.1-.3-.3-.7-.2-1.2-.9 0-1.3-.8-1.8-1.3h0zm.1-.5c.3.5.8.9 1.2 1.4.1.1.2.3.5.3.1-.6.2-1 .3-1.5-.6-.5-1-1-1.5-1.5-.2.5-.5.7-.5 1.3h0zm.8-1.8c.3.6.8 1.2 1.4 1.5a3.04 3.04 0 0 1 .5-.7c-.3-.5-.7-.8-1.2-1.2-.3.2-.5.3-.7.4h0zm1.8-12.4c-.3-.2-.3-.8-.7-1-.2.2-.7.2-.8.5.2.3.6.7.7 1l.8-.5zm1.5 25.8c-.3-.5-.8-.8-1.3-1.2 0-.1.1-.2.1-.2-.5 0-.9.1-1.4.1a10.63 10.63 0 0 0 1.5 1.5c.4 0 .8-.1 1.1-.2h0zm.7-14.5l-.9.9a6.51 6.51 0 0 0-1.8 3.6c-.1.7.1 1.7.6 1.8.6.1 1.2 0 1.6-.1.3-.1.7-.3 1-.6.6-.2 1-.6 1.4-1 .7-1.6.2-4.1.3-5.8h-.1c-.7.3-1.4.6-2.1 1.2h0zm-2.6.4c.2.3.6.8.9 1.2.2-.5.7-.8.8-1.3-.2-.1-.6-.2-.8-.3-.4.2-.8.2-.9.4h0zm1.6-12c-.1-.3-.6-.6-.5-1-.3 0-.6.1-.9.2l.6 1c.2-.2.5-.2.8-.2h0zm2.2 25.6l-1.4-1.2c-.5 0-.8.1-1.3.3.6.5 1 .9 1.5 1.4l1.2-.5zm.2-25.5c-.7-.5-1.5-.8-2.3-1 .1.3.3.5.5.7.5-.3 1.2.2 1.8.3h0zm-2.4 11.3c.1.1.2.3.3.2.2-.3.6-.5.8-.7-.3.1-.7.2-1.1.5zm4.8 10.7c-.2.5-1 .9-1.4 1.2l-.1.2c0 .1-.2 0-.3.1-.6.3-1 .6-1.7.7.3.5.9.8 1.3 1.3.3-.2.7-.5.9-.7-.3-.3-.7-.6-1.2-.8.3-.6 1 .2 1.4.5.4-.8 1.3-1.6 1.1-2.5zm3.7 3.8c-.3-.6-.8-1-1.2-1.5-.2-.1-.6-.1-.8-.1.5.6 1.2 1.1 2 1.6h0zm3.4-.4c-.5-.3-1-.7-1.5-1.2-.3.1-.6-.1-1 .1.2.3.5.6.7.9-.6.1-.8-.7-1.3-1h-1c.3.5.7.9.9 1.4 1.3-.3 2.2 0 3.2-.2h0zm-2.9-29.1a5.05 5.05 0 0 1 .9 2.3c.9.3 1.2 1.3 1.7 1.8-.2-1.6-1.3-3.1-2.6-4.1h0zm2.8 4.9c-.7-.6-1-1.5-1.7-2.1.1.6.1 1.2.2 1.6.1 0 .2 0 .3.1.5.7.9 1.4 1.4 2.2-.7-.1-1-1.2-1.5-1.7 0 .5.1.6.1 1.2.2.3.6.7.8 1.2s.6.8.7 1.3c-.2.1-.2 0-.3 0a5.09 5.09 0 0 0-1.3-1.6v1c.7.6 1.2 1.6 1.8 2.2 0-1.8-.2-3.6-.5-5.4zm.6 15.2c0-.8 0-1.5-.1-2.3-.6-.8-1.3-1.5-1.8-2.3-.1.8.1 1.4-.1 2.2.2 0 .2.1.3.1.6.8 1.1 1.6 1.7 2.3h0zm.1.6c-.9-.7-1.3-1.7-2.1-2.4.1.6.1 1.4.1 2.1.1.1.2.1.2.1.6.7 1.3 1.5 1.8 2.2v-2zm-.2-8.6c0-.5-.1-1-.1-1.5-.7-.5-1.2-1.3-1.7-2 0 .5.1.7.1 1.2.7.7 1 1.7 1.7 2.3h0zm.2 10.8c-.7-.3-1.3-1.5-2-2.1-.1.6-.1 1.2 0 1.8 0 .1.1 0 .2 0l1.8 2.4c.1-.4.1-1.4 0-2.1h0zm-.1-7.8a3.04 3.04 0 0 0-.5-.7c-.3-.5-.9-.9-1.3-1.4.1.8-.1 1.5 0 2.2l.2-.1c.5.7.9 1.4 1.5 2-.1-.8.2-1.5.1-2h0zm0-.7c0-.6 0-1.2-.1-1.7-.6-.7-1.2-1.6-1.7-2.2v2c.7.6 1.2 1.2 1.8 1.9h0zm.2 10.9c-.8-.5-1.3-1.5-2-2.1v1.6c.1 0 .1-.2.3-.1.7.7 1.2 1.6 1.7 2.3v-1.7zm.2 3.7c-.1-.7 0-.8-.1-1.6-.8-.7-1.2-1.7-2-2.4-.1 1 .2 1.6.1 2.5.7.5 1.3 1 2 1.5h0zM149 74.5c0 .2-.2.2-.2.3-.2 1.4-.3 3.2-.3 4.6 0 .1-.2.1-.2.1l-7.8 11.7c-.8 1.4-2 2.4-2.8 3.7l6.8.1c.6 0 1.2 0 1.6.1.2.1.5.5.7.6.6.7 1.4 1.2 2.1 1.7-.2 2 .1 4.3-.1 5.9.2 0 .2.2.1.5-1.5.2-2.9.3-4.4.2l-5.3-.1-7.6.1c-.6 0-1.3 0-1.8.3l-4-3.1c-.1-2-.1-3.8 0-5.8 0-.1-.2-.1-.2-.2.7-1.4 1.7-2.6 2.4-4 .3-.7.8-1.4 1.3-2l6.4-9.8c-.7-.1-1.3-.1-2-.1l-3.2.1c-.1 0-.2.1-.3.1s-.5-.2-.7-.2-.3.1-.5.1c-.6-.2-1.2-.6-1.5-1.2-.5-.3-.9-.8-1.4-1.2.1-.2-.1-.3-.2-.5l-.1-5.8c.2-.2.3-.2.3-.5 6.4-.2 12.9 0 20.1.2.8 1.3 1.7 2.4 2.8 3.5-.1.4-.1.5 0 .6zm-14.8 21.2c-.1-.3-.3-.3-.3-.6.1-.5.3-.8.6-1.2.2-.5.6-.8.7-1.2 1.5-2.3 3.2-4.3 4.7-6.4.5-.7.9-1.5 1.4-2.3 1.6-2.2 3-4.4 4.4-6.7-.1-.2.1-.2.1-.3 0-.2-.2-.1-.1-.2.5-1.8 0-4 0-5.6-.9.1-1.5-.2-2.1.1-1-.1-2.2-.1-3.2-.1h-1.8c-3.7 0-8.1-.5-12.2-.1-.1.8-.1 1.6 0 2.3 0 .6.2 1.2 0 1.5.1 0 .1.1.1.2.1.5.1 1 .1 1.5 3.2-.1 7.3.3 10.5.3.2.2.6 0 .7.3s-.5.9-.7 1.3c-.2.5-.6.8-.9 1.3-.5.9-1 1.8-1.7 2.8l-1.6 2.8c-.2.3-.6.6-.8 1-.1.1 0 .2-.1.3-.5.6-.9 1.3-1.3 1.8-.2.3-.6.7-.8 1-.1.2-.2.5-.3.7-.7 1.2-1.4 2.3-2.2 3.5-.2.5-.8 1-.9 1.4 0 .2-.1.5-.1.7-.1 1.7-.1 3.6.1 5.3 4.8-.1 9.6 0 14.6 0 1.6.1 3.1.1 4.7 0 .3-1.8.3-3.7.1-5.4-3.7-.2-7.9-.2-11.7 0zm-4.4-17.1c-.5-.5-.9-.8-1.3-1.3-.5-.1-.9 0-1.3-.1.1 0-.2.1-.3.1.6.6 1.3 1.2 2.1 1.5.2-.2.6-.1.8-.2zm2.2 25c-.8-.6-1.7-1.2-2.5-1.8-.6.1-1.6 0-2.2.1.8.6 2 1 2.8 1.6.1.1 0 .1 0 .3.5-.1 1.3-.1 1.9-.2zM143.8 58c.2.6.2 1.4.8 1.6v.3c-.7.2-.7 1-1.3 1.4l-.3.5c-1.2 1.2-2 2.6-2.4 4.3-.2 0-.2.1-.3.1.2.2.1.2.1.5-.5.3-1 .6-1.6.7h-1.5c-.8-.1-1.6-.1-2.4 0-.2-.8-1-1.2-1.6-1.6v-.3l-.2-.3c-.3-1.7-1.3-3.3-2.5-4.6-.8-.9-1.6-1.8-2.4-2.6-.2-.2.1-.2.1-.5.6 0 1-.5 1.8-.5.7 0 1.3 0 2-.1.5 0 .6.1.9-.1s.9.6 1 .8c.3.2.6.6.9.9.5 0 1.3.8 1.5 1.3.7-.9 1.4-1.7 2.2-2.4 1.4.2 2.8.2 4 .1h1.3v.5h-.1zm-10.1 7.2c1.5-.2 3.1 0 4.7-.3a1.08 1.08 0 0 0 .3-.7 2.72 2.72 0 0 0 .8-1.6c.8-1.6 1.8-3.1 3.1-4.4-1.4 0-2.9 0-4.3-.1-.7.6-1.4 1.4-2 2.2l-.5.2-.5-.2c-.7-.9-1.8-1.4-2.5-2.3-.2 0-.1-.1-.3-.2-1.3-.1-2.6 0-3.9.2 1.3 1.6 3.1 3 4 5.2.5.6.8 1.3 1.1 2h0zm-1.5 13.9c-.2-.3-.5-.5-.7-.7s-.6-.9-.9-.9c-.3-.1-.8.1-1.4-.1.3.7 1.2 1 1.6 1.7.5 0 1-.1 1.4 0h0zm2.1 24.6c-.6-.5-1.3-1-1.7-1.4-.2-.2-.5-.3-.7-.5-.6-.1-1 0-1.6.1.8.6 1.7 1.2 2.4 1.8.6.1 1 0 1.6 0h0zm0-24.7c-.6-.5-1-.9-1.5-1.4-.6.1-1.2-.2-1.4-.1l1.4 1.4c-.1 0 0 .1 0 .2.5 0 .9-.1 1.5-.1h0zm2.1 24.7c-.8-.5-1.6-1-2.3-1.6 0-.1-.1-.1 0-.2h-1.4c.8.6 1.5 1.3 2.3 2 .4-.2.9-.2 1.4-.2h0zm-.5-24.5c.3-.6.6-.9 1-1.5h-1.8c.2.5.6.7.7 1.2-.3.1-.5-.2-.7-.5s-.3-.3-.5-.6c-.1-.1 0-.1-.1-.2h-1c.3.5 1 .8 1.3 1.5.3 0 .8 0 1.1.1h0zm-.1-12.3c.1-.1.2-.1.3 0-.8-.5-1.3-1.6-2.2-1.2.5.5.9.8 1.4 1.2h.5zm-.6 27c-.2.5-.5.8-.7 1.3.7-.1 1.4 0 2-.1-.5-.5-.9-.9-1.3-1.2h0zm3.6 9.8c-.7-.6-1.4-1-2.1-1.5-.1-.1-.1-.2 0-.3-.8 0-1.5-.1-2.2 0 .3.3.8.6 1.3 1 .5.5.9.8 1.4.9.5-.1 1.1-.1 1.6-.1h0zm-1.1-9.7c-.6-.5-1-1-1.6-1.5-.2.3-.5.7-.7 1 .5.3.9.8 1.4 1.3 0 .1-.1.1-.1.2h.5c0-.5.3-.7.5-1h0zm.5-27.1a3.04 3.04 0 0 1-1.2-1.3h-.7c-.2 0-.5 0-.7.1.3.5 1.3.6 1 1.2.2 0 .5 0 .7-.1l.9.1zm.5 25.9c-.6-.5-1.2-1-1.6-1.6-.2.3-.5.7-.7 1 .6.5 1.2.9 1.6 1.4.1-.4.5-.5.7-.8h0zm2.4 10.8c-.7-.5-1.4-1.2-2.3-1.6 0-.1 0-.2-.1-.2h-1.6c.6.5 1.3.9 2 1.4.2.1.5.5.6.5.3.1.8-.2 1.4-.1zm-.5-13.7a10.63 10.63 0 0 0-1.5-1.5c-.3.3-.6.8-.8 1.2.5.6 1.2.9 1.4 1.6-.1.1-.1.2-.2.2-.6-.5-1-.9-1.6-1.4-.1.3-.5.5-.6.8.5.6 1 1.2 1.6 1.7.7-.8 1.3-1.7 1.7-2.6h0zm-.9-23.2l-1.2-1.3c-.3.2-.8-.1-1 .1.2.6 1.2.6 1 1.3.5.1.9 0 1.2-.1h0zm1-2.3c-.5-.2-.6-.6-.9-1-.2.7-.5 1-.7 1.7.3.3.6.7 1 .9.2-.5.4-1.1.6-1.6h0zm1 24.1c-.5-.6-.9-1.2-1.5-1.6-.3.3-.6.8-.8 1.2.6.5 1.2.9 1.6 1.5.2-.4.4-.7.7-1.1h0zm1.4 15.1c-.2-.2-.5-.2-.6-.5-.2-.2-.3-.2-.5-.3-.1-.1-.2-.1-.2-.1-.7-.5-1.2-1.2-2.4-.8.8.6 1.5 1.2 2.2 1.8.5-.1 1.1-.1 1.5-.1zm-1.6-40.7c-.5-.2-.6-.6-1-.9-.2.2-.3.6-.5.9.5.3.5.8.9 1 .3-.5.5-.7.6-1h0zm.8 24.4c-.5-.5-.9-1.2-1.4-1.6-.2.2-.3.6-.5.9.5.6.9 1.2 1.5 1.6.2-.4.3-.6.4-.9h0zm.3-25.6l-1.3-1.2c-.2.2-.3.6-.5.8.3.5.7.8 1 1.2l.8-.8zm.9 23.9c-.5-.6-.9-1.2-1.4-1.7-.2.5-.6.7-.8 1.3.5.6.9 1.2 1.4 1.7.2-.3.6-.8.8-1.3h0zm-.4-25.3l-.3-.3c-.2-.2-.5-.3-.6-.6-.2.2-.3.5-.6.7.3.5.9.9 1.2 1.4.1-.1.2-.2.3-.5.4-.2.5-.6 0-.7zm2.2 43.3c-1-.5-1.8-1.2-2.8-1.8-.3 0-.6 0-.9.1.8.6 1.5 1.2 2.2 1.8.6 0 1.1 0 1.5-.1h0zm-1-19c-.5-.6-.9-1.3-1.4-1.8a3.04 3.04 0 0 1-.5.7c.5.7 1 1.2 1.4 1.8a3.04 3.04 0 0 0 .5-.7h0zm-.1-24.7c-.3-.5-.5-.8-.7-1.2l-.2-.5c-.2.2-.5.3-.6.7l.3.3.2.3c.2.2.2.5.6.7 0-.1.3-.1.4-.3h0zm1 23c-.5-.6-.9-1.2-1.4-1.6-.1.3-.5.7-.7 1 .5.6.9 1.2 1.3 1.8.4-.3.7-.8.8-1.2zm.6 18.9c-.7.1-1.5.1-2.2.1.2.5.7.7 1.2.7.3.3.8.7 1.2 1 .8.1 1.5-.1 2.2-.1 0-.1.1-.3 0-.5 0 .1-.1.1-.2.2-.8-.4-1.5-.9-2.2-1.4h0zm.7-20.6c-.5-.6-1-1.2-1.5-1.7-.2.5-.5.9-.7 1.4l1.3 1.7c.3-.5.5-1 .9-1.4h0zm1.3-1.9c-.7-.5-1.2-1-1.6-1.7 0 .3-.8 1.3-.8 1.4.1.1.2.2.3.5.3.5.7.9 1 1.3.4-.6.8-.9 1.1-1.5h0zm-1.7 22.2c.7.5 1.4.9 2.1 1.4v-1.3c-.6-.6-1.3-1-2-1.6a1.89 1.89 0 0 1-.1 1.5zm2.2-27.1c-.8-.8-1.5-1.6-2.1-2.5.1.3 0 .6.1.9v.6c.1.1.3.1.5.1.2.2.5.6.7.9s.5.6.7.8c.1-.3.1-.5.1-.8zm-2 21.8v1c.7.6 1.4 1.2 2 2 0-.5 0-1-.1-1.5-.5-.3-.9-.7-1.4-1-.1-.2-.4-.6-.5-.5zm1.7-18.1c0 .2-.2.1-.2.1-.5-.5-.9-1.2-1.4-1.6v.5c.3.7.9 1.3 1.6 1.7v-.7zm.3 21.4c-.7-.5-1.2-1.2-2-1.6 0 .5 0 1-.1 1.5.6.6 1.3 1 1.8 1.5.2-.4.2-.9.3-1.4h0zm-.1-23.5l-1.7-2v1.8c.5.7 1 1.4 1.6 2.1 0-.7.1-1.1.1-1.9h0z"/><path d="M150.4 85.3v-9.1c-.1-.9.1-1.7.1-2.5l-.1-2.8c.8-.3 1.6-.6 2.5-.6l4.3.2c.1.1.3.2.6.2.7.8 1.3 2 2.1 2.8.1.1-.1.2-.1.3.3.2.5.7.7 1-.1.1-.2.1-.2.2l.2 9.9.1 4.1c0 .3.2.6.3.9 0 .2-.2.1-.2.2.3 1.6.5 3.5 1.4 4.3.2.1.5.1.6.2.3 0 .5-.2.9-.3.5-.5.9-.9 1.3-1.5l.5-1.4c-.1-1.3-.1-2.5-.1-3.8 0-.2-.1-.6-.1-.8-.1-1.6.1-3.2-.1-4.9-.1-2.5.3-5.5.2-8.2l-.1-3.2c.3-.1.7-.2 1-.2 1.8-.1 3.7-.1 5.5.1.1 0 .2 0 .2.1h0c.1-.1.1-.2.3-.1s.1.2.2.1c.8 1.4 1.6 2.6 2.6 3.9-.1.3.1.7.1 1.2.1.6.1 1.2 0 1.8-.1 1.6-.1 3.5 0 5.2.1 2.2-.1 4.6-.1 6.9v8.4l.1 3.6c.1.6.1 1.2 0 1.7-.1.2-.3.1-.5.3-1.3.2-2.6.3-3.9.3-.5 0-1-.1-1-.5-.7-.3-1.3-.7-1.8-1.2-.2-.2-.3-.6-.7-.7-.2.1-.3.2-.6.3l-2.3.9c-1.5.7-3.2 1-4.9 1-1.6-.1-3.1-.7-4.4-1.7-1-1-2-2.3-2.8-3.6-.1-.5-.3-.9-.7-1.3-.3-.7-.6-1.5-.7-2.3-.1-.3-.2-.7-.3-1.2-.1-.6-.1-1.2-.1-1.8l-.2-2 .2-4.4zm.5 4.1c0 1.5.1 3 .3 4.5 0 .6.1 1.2.2 1.8l.3.9c.2.8.7 1.5 1.3 2.1.2.3.6.8.9 1.2.1.1.2.2.5.2.1.1.2.3.3.5l1.3.5c1.5.5 3 .6 4.6.6 1.6-.1 3.1-.7 4.5-1.6l.7-.7c.2-.2.5-.7.7-.7.5 0 .3 1.2.6 1.4.1.6.2 1.2.5 1.6 1.4.1 2.8 0 4-.1-.1-.2.2-.3.3-.5s-.1-.3-.1-.5c-.1-.5.2-1 .1-1.6-.1-.7 0-1.3.1-2l-.2-2.3c0-.1.1-.3.1-.5 0-.1-.1-.3-.1-.6 0-.2.1-.3.1-.5.1-1.4-.1-2.8-.1-4.1.1-6 .1-11.5 0-17.5-2.1-.2-4-.2-6.1-.1-.1.9 0 2 0 3 .1 1.6-.1 3.7-.2 5.5-.1 1.3 0 2.4 0 3.7 0 1-.1 2-.1 3 0 2 .2 4 .2 5.9-.1.1-.2.1-.2.2-.6 2.3-2.9 3.5-5.8 3-.5-.2-.7-.5-1.2-.5-.8-.7-1.3-1.5-1.4-2.5-.1-1.4.1-2.9-.1-4.4-.1-.8-.2-1.7-.2-2.5s.1-1.5.2-2.4 0-1.8 0-2.8c.1-2.8.1-6.4-.1-9.3-2.1-.3-4.1-.3-6.2.1.1 1.4 0 3.1 0 4.1.4 5 .3 9.6.3 13.9zm6.3 13.7c-.5-.7-1.2-1.2-1.5-1.8-.7-.1-1.3-.5-1.8-.9.8 1.1 1.9 2.2 3.3 2.7h0zm2.1.5c-.5-.6-1.2-1.2-1.5-1.7-.6-.1-.9-.2-1.5-.3.5.7 1.2 1.3 1.6 1.8.6 0 .9.2 1.4.2h0zm-1.5-14.2c.1 0 .2 0 .3.1l2.4 2.1c-.1-.6-.1-1-.2-1.6-.5-.3-.8-.8-1.3-1.2-.1-.2-.5-.5-.6-.6-.2-.2-.5-.5-.6-.7.2-.2.5.1.6.2.3.5.8.8 1.2 1.2.2.1.3.5.6.3 0-.5-.1-.8-.1-1.5-.7-1-1.7-1.8-2.4-3-.1 1.5-.1 3.1.1 4.7h0zm-.2-14c.1 0 .1.1.1.1.1 1.4.1 2.6.1 3.9 0 .1.2.1.2.1a7.49 7.49 0 0 0 1.3 1.8c.1.1.3.5.5.3-.1-.8-.1-1.2-.1-2-.1.1-.1.1-.2 0-.5-.7-.9-1.4-1.3-2.1-.2-.2-.6-.7-.2-.8.6.8 1 1.8 1.6 2.5.1-.9-.1-1.6 0-2.3-.7-.8-1.3-1.8-2-2.8.3.6.4 1.1 0 1.3zm0 9c.1.1.1-.1.2 0 .7.9 1.4 1.8 2.2 2.6 0-.7 0-1.4-.1-2.1-.2-.3-.5-.6-.8-.8-.6-.6-.9-1.2-1.4-1.6.2.5.1 1.3-.1 1.9zm.2-10.6c.7.9 1.3 2 2 2.8.1-.3-.1-1.4 0-1.6a12.75 12.75 0 0 1-.7-1.2c0-.1.1-.1.1-.2-.5-.6-.9-1.4-1.4-1.8 0 .8.1 1.3 0 2h0zm2 8.5a22.53 22.53 0 0 1-2.1-2.4c-.1.8-.1 1.8-.1 2.3.1 0 .2 0 .2.1.6.8 1.3 1.6 2 2.2.3-.7.2-1.3 0-2.2h0zm-2 7.4c.1.9 0 1.5.1 2.3.1-.1.1-.2.1-.2.5.3.9.8 1.5 1.3s1.2.7 1.7 1.2c-.2-.6-.5-1.3-.6-2-.9-.9-1.8-1.8-2.8-2.6h0zm3.8 5.3c-1.3-.8-2.4-1.8-3.6-2.9-.1 2.6 2.3 3.6 4.3 3-.2 0-.3-.1-.5-.2-.1 0-.1.1-.2.1h0zm-.5 8.6c-.5-.6-1.3-.9-1.5-1.6-.5.1-.9.1-1.3 0 .6.6 1 1.2 1.6 1.7.5 0 .9 0 1.2-.1zm3.9-1.2c-.5-.3-.8-.8-1.3-1.2-.3.2-.8.3-1.3.5.3.5.8.7 1.2 1.2-.1 0-.1.1-.1.1-.7-.2-1-.7-1.5-1.2-.6.1-1.3.1-1.8.2.2.3.6.7.8 1 .2.2.5.5.7.6s.6-.2.9-.2c.8-.4 1.7-.7 2.4-1h0zm1.3-.5c-.2-.5-.6-.9-1-1.3 0-.1.1-.2 0-.2-.3.2-.7.5-1 .6.3.5.8.8 1.3 1.3.2-.2.5-.3.7-.4h0zm.8-.5c-.2-.6-.3-1.4-.7-2-.2.3-.6.6-.9.8.5.3.9.9 1.2 1.5 0-.1.3-.2.4-.3h0zm4.9 2.2c-.5-.3-.9-.8-1.3-1.2-.1-.2-.2-.3-.3-.5-.1-.1-.8.1-1.2 0h-1.1c.6.5 1.2.9 1.8 1.3.2.1.5.3.6.5.6 0 1.1 0 1.5-.1zm.2-1.8c-.2.2-.7 0-1 .2l.8.8c.2.2.5.7.7.8.6 0 1 0 1.6-.2-.9-.6-1.5-1.1-2.1-1.6h0zm.3-.4c0 .1.3.3.5.5.6.3 1 .8 1.5 1.3.1.1-.2.2 0 .3.1-.1.1-.1.2-.1v-4.8c-.1-.1-.2 0-.2-.1-.6-.8-1.2-1.5-1.8-2.1 0 .5 0 1-.1 1.5.1 0 .1-.1.2-.1.5.8 1.3 1.4 1.7 2.3-.1.1-.1.2-.2.2-.7-.7-1.3-1.4-1.8-2.2 0 .7 0 1.5.1 2.2h.2c.3.5.8 1 1.2 1.5.1.1.5.3.1.6-.6-.5-1.2-1-1.7-1.7v.6c.2 0 .1.1.1.1h0zm.1-5.7c.2.1.3.3.5.5.5.5 1 .8 1.4 1.4.1.1.1.3.3.3.1-.6 0-1.5 0-2.2-.1-.1-.1 0-.2-.1-.6-.7-1.3-1.4-2-2.2 0 .5-.1 1.6 0 2.3h0zm0-21.6c.5.5.9 1 1.2 1.6.2.5.6.8.9 1.3.1.1.1.2-.1.5-.8-.6-1.3-1.7-2-2.5-.1 1 .1 1.5 0 2.5.1 0 .1-.1.2-.1.6.7 1.2 1.5 1.8 2.2.1-1.5.1-3 0-4.5-.8-.9-1.5-2-2.1-3 .2.5.2 1.3.1 2h0zm0 14.9c.1.1.2-.1.3-.1.6.7 1.2 1.3 1.8 1.8v-1.6c-.6-.7-1.4-1.4-2.1-2.2V89zm0 .2c0 .6.1 1.2.1 1.6.3.8 1.5 1.3 1.8 2.1 0 .1.1.3-.1.5-.2-.1-.3-.3-.5-.6-.5-.3-.9-.8-1.3-1.4 0 .6 0 1.2-.1 1.8.1.1.2-.1.3 0 .6.7 1.2 1.4 1.8 2-.3-1.3.3-3.1-.2-4-.4-.7-1.3-1.5-1.8-2h0zm2.2-2.2l-2.1-2.1v1.5c.1 0 .2.1.2.2.5.5.9 1 1.4 1.5.2.1.3.3.5.3V87zm-2.1-7.1c.1-.1.2-.1.3-.1.3 1.2 1.2 1.6 1.6 2.6 0-.9-.1-1.8 0-2.4h-.2c-.6-.8-1.3-1.4-1.8-2.2 0 .6.1 1.3.1 2.1h0zm0 .3v2.1c.1.1.2-.1.2-.1.6.8 1.2 1.5 1.8 2.2v-1.6c-.1-.1-.1 0-.2 0a40.55 40.55 0 0 1-1.8-2.6h0zm0 4.4c.1.1.1-.1.2-.1.6.7 1.3 1.4 2 2 0-.6-.1-1.2-.1-1.6h-.2c-.6-.7-1.3-1.4-1.8-2.2l-.1 1.9z"/></g></svg>