<svg xmlns="http://www.w3.org/2000/svg" viewBox="0 0 131.5 116.3"><path d="M77.4 77c-3-8.3 1.2-17.6 9.6-20.6s17.6 1.2 20.6 9.6c3 8.3-1.2 17.6-9.6 20.6-8.3 3.1-17.5-1.2-20.6-9.5V77" fill="#2ca6de"/><path d="M87.8 27.4c-2-5.5.9-11.7 6.4-13.7s11.7.9 13.7 6.4-.9 11.7-6.4 13.7c-5.6 2-11.7-.9-13.7-6.4" fill="#f05c22"/><path d="M114.3 71.8c-1.5-4.2.6-8.7 4.8-10.2s8.7.6 10.2 4.8a7.94 7.94 0 0 1-15 5.4c0 .1 0 0 0 0" fill="#2ca6de"/><path d="M37.6 56.8c-5.1-5.1-5.1-13.5 0-18.6s13.5-5.1 18.6 0 5.1 13.5 0 18.6-13.4 5.1-18.6 0" fill="#a8ce38"/><path d="M47.7 20.5c-4.2-4.2-4.2-11 0-15.2s11-4.2 15.2 0 4.2 11 0 15.2-11 4.2-15.2 0m-9.5 56.3c-8.8-.6-15.5-8.3-14.8-17.1s8.3-15.5 17.1-14.8c8.8.6 15.5 8.3 14.8 17.1v.1c-.7 8.7-8.4 15.3-17.1 14.7" fill="#f05c22"/><path d="M30.2 108.9c-7.3-.5-12.8-6.9-12.3-14.2s6.9-12.8 14.2-12.3 12.8 6.9 12.3 14.2-6.9 12.8-14.2 12.3M9.3 50.5c-4.4-.3-7.7-4.2-7.3-8.6.3-4.4 4.2-7.7 8.6-7.3 4.4.3 7.6 4.1 7.4 8.5-.4 4.3-4.2 7.7-8.7 7.4" fill="#a8ce38"/><path d="M40.1 109.8c-2-4-.3-8.8 3.6-10.7 4-2 8.8-.3 10.7 3.6s.4 8.7-3.6 10.7c-3.9 2-8.7.4-10.7-3.6 0 .1 0 0 0 0" fill="#0e4e95"/><path d="M93.4 109.9c-2-4-.3-8.8 3.6-10.7 4-2 8.8-.3 10.7 3.6s.4 8.7-3.6 10.7c-3.9 2-8.7.4-10.7-3.6" fill="#2ca6de"/><path d="M64.6 92.7c-8.8-.7-15.4-8.4-14.7-17.2S58.2 60.2 67 60.8c8.8.7 15.4 8.3 14.8 17.1-.7 8.8-8.4 15.5-17.2 14.8" fill="#a8ce38"/><path d="M61.9 90.8a13.46 13.46 0 0 1 6-18 13.46 13.46 0 0 1 18 6 13.46 13.46 0 0 1-6 18 13.46 13.46 0 0 1-18-6" fill="#0e4e95"/><path d="M60 51c-6.2-6.2-6.2-16.4 0-22.6s16.4-6.2 22.6 0 6.2 16.4 0 22.6-16.4 6.2-22.6 0" fill="#f05c22"/><path d="M45.4 58.9c-3.4-6.7-.7-14.9 6.1-18.3 6.7-3.4 14.9-.6 18.3 6.1s.6 14.9-6.1 18.3-14.9.7-18.3-6.1" fill="#0e4e95"/><path d="M93.4 52.3c-2.5-6.9 1.1-14.6 8-17.1s14.6 1.1 17.1 8-1.1 14.5-8 17c-7 2.5-14.6-1-17.1-7.9" fill="#2ca6de"/><path d="M67.4 68c-4-8-.7-17.6 7.2-21.6 8-4 17.6-.7 21.6 7.2 3.9 7.9.7 17.6-7.2 21.5-7.9 4-17.5.8-21.5-7-.1.1-.1 0-.1-.1M34.9 81.7c-2.6-5.3-.5-11.8 4.8-14.5 5.2-2.6 11.5-.6 14.1 4.6 0 .1.1.2.1.2 2.6 5.3.5 11.8-4.8 14.5-5.2 2.6-11.5.6-14.1-4.6-.1-.1-.1-.1-.1-.2" fill="#0e4e95"/></svg>