<?xml version="1.0" encoding="utf-8"?>
<!-- Generator: Adobe Illustrator 24.1.1, SVG Export Plug-In . SVG Version: 6.00 Build 0)  -->
<svg version="1.1" id="fe9b6b89-fdaf-450f-80c7-4e48734653c8"
	 xmlns="http://www.w3.org/2000/svg" xmlns:xlink="http://www.w3.org/1999/xlink" x="0px" y="0px" viewBox="0 0 174.1 100.3"
	 style="enable-background:new 0 0 174.1 100.3;" xml:space="preserve">
<style type="text/css">
	.st0{fill:#E34D4C;}
	.st1{fill:#BBBDBF;}
	.st2{fill:#E24D4C;}
</style>
<path class="st0" d="M47.5,41.7V14.8h-3.9c-0.9,0.1-1.6-0.6-1.7-1.5s0.6-1.6,1.5-1.7c0.1,0,0.2,0,0.2,0h11.2
	c0.9-0.1,1.6,0.6,1.7,1.5c0.1,0.9-0.6,1.6-1.5,1.7c-0.1,0-0.2,0-0.2,0h-3.9v26.9c0.1,1-0.7,1.8-1.6,1.9c-1,0.1-1.8-0.7-1.9-1.6
	C47.5,41.9,47.5,41.8,47.5,41.7z"/>
<path class="st0" d="M54.4,36.8v-0.2c0-1.4,0.7-2,1.6-2c1.1,0,1.6,0.7,1.6,1.9l0,0c0,2.4,1,3.9,2.9,3.9c1.9,0,2.9-1.8,2.9-4.7V13.1
	c0-1,0.7-1.7,1.7-1.7s1.7,0.7,1.7,1.7v23.2c0,4.6-2.4,7.5-6.3,7.5S54.4,41.1,54.4,36.8z"/>
<path class="st0" d="M82.7,41.8c0,0.9-0.7,1.6-1.6,1.6h-7c-2,0-2.8-0.8-2.8-2.7V14.3c0-1.9,0.8-2.7,2.8-2.7h7
	c0.9-0.1,1.6,0.6,1.7,1.5s-0.6,1.6-1.5,1.7c-0.1,0-0.2,0-0.2,0h-6.3v9.5h5.6c0.9,0,1.6,0.7,1.6,1.6c0,0.9-0.7,1.6-1.6,1.6h-5.6v12.8
	h6.3C81.8,40.2,82.6,40.9,82.7,41.8z"/>
<path class="st0" d="M85.6,40.7V14.3c0-1.9,0.8-2.7,2.8-2.7h3.2c4.5,0,7.2,2.9,7.2,8.5v14.9c0,5.5-2.6,8.5-7.2,8.5h-3.2
	C86.4,43.5,85.6,42.7,85.6,40.7z M91.3,40.3c2.9,0,4-2,4-6.1V20.8c0-4.1-1.1-6.1-4-6.1H89v25.5C89,40.3,91.3,40.3,91.3,40.3z"/>
<path class="st0" d="M115.9,18.6v23.2c0.1,1-0.7,1.8-1.6,1.9c-1,0.1-1.8-0.7-1.9-1.6c0-0.1,0-0.2,0-0.2V32h-6.7v9.8
	c0.1,1-0.7,1.8-1.6,1.9c-1,0.1-1.8-0.7-1.9-1.6c0-0.1,0-0.2,0-0.2V18.6c0-4.6,2.4-7.5,6.8-7.5C113.4,11.2,115.9,14,115.9,18.6z
	 M112.5,28.8v-9.6c0-3.4-1.1-4.7-3.4-4.7s-3.4,1.4-3.4,4.7v9.6H112.5z"/>
<path class="st0" d="M119.5,41.7V18.6c0-4.6,2.3-7.5,6.7-7.5s6.7,2.9,6.7,7.5v23.2c0.1,1-0.7,1.8-1.6,1.9c-1,0.1-1.8-0.7-1.9-1.6
	c0-0.1,0-0.2,0-0.2V19.2c0-3.4-1.1-4.7-3.3-4.7c-2.1,0-3.3,1.4-3.3,4.7v22.5c0.1,1-0.7,1.8-1.6,1.9c-1,0.1-1.8-0.7-1.9-1.6
	C119.5,41.9,119.5,41.8,119.5,41.7L119.5,41.7z"/>
<path class="st0" d="M35.7,76.9c0,7.9-2.9,12.1-8.5,12.1h-5.3c-2.5,0-3.4-1-3.4-3.4v-33c0-2.4,1.1-3.4,3.4-3.4h4.7
	c5.4,0,8.4,3.2,8.4,9.5c0,4.2-0.8,6.9-3,8.3C34.5,68.7,35.7,71.5,35.7,76.9z M22.6,65.1h3.4c3.4,0,4.9-2.1,4.9-6.1
	c0-3.7-1.2-5.8-4.6-5.8h-3.7V65.1z M31.3,76.7c0-5.5-1.7-7.6-5.2-7.6h-3.6v16h3.8C30.3,85.1,31.3,82.2,31.3,76.7z"/>
<path class="st0" d="M52.4,71.1c1.6,0.9,3.3,3.3,3.3,6.6v9.3c0,1.2-1,2.1-2.1,2.1c-1.2,0-2.1-1-2.1-2.1v-8c0-3.2-1.7-5.7-4.5-5.7h-3
	v13.8c-0.1,1.2-1.1,2.1-2.3,2c-1.1-0.1-2-0.9-2-2V52.6c0-2.4,1.1-3.4,3.4-3.4h3.8c5.6,0,8.9,3.8,8.9,10.6v2.6
	C55.7,66.4,54.7,69.3,52.4,71.1z M51.5,61.6v-0.8c0-5.1-1.6-7.5-5.2-7.5h-2.5v15.9h2.5C50,69.1,51.5,66.7,51.5,61.6L51.5,61.6z"/>
<path class="st0" d="M59.9,80.1v-29c0.1-1.2,1.1-2.1,2.3-2c1.1,0.2,2,1,2,2v28.2c0,4.3,1.5,6,4.2,6s4.2-1.7,4.2-6V51.1
	c0-1.2,1-2.1,2.1-2.1c1.1,0,2.1,1,2.1,2.1l0,0V80c0,5.7-2.9,9.3-8.5,9.3S59.9,85.8,59.9,80.1z"/>
<path class="st0" d="M81.3,80.1V58.3c0-5.7,2.9-9.3,8.2-9.3c5.2,0,8.2,3.6,8.2,9.3v1.1c0.1,1.1-0.8,2-2,2.1h-0.1c-1.1,0-2-0.9-2.1-2
	c0-0.1,0-0.2,0-0.2v-0.2c0-4.3-1.3-6-3.9-6c-2.6,0-4,1.7-4,6v20.3c0,4.2,1.4,6,4,6c2.6,0,3.8-1.7,3.8-5.8v-0.2
	c-0.1-1.1,0.7-2.2,1.9-2.3c1.1-0.1,2.2,0.7,2.3,1.9c0,0.2,0,0.2,0,0.4v0.8c0,5.7-2.8,9.3-8.2,9.3S81.3,85.8,81.3,80.1z"/>
<path class="st0" d="M100.6,80.1V58.2c0-5.7,2.9-9.3,8.5-9.3c5.6,0,8.5,3.6,8.5,9.3V80c0,5.7-2.9,9.3-8.5,9.3
	C103.5,89.4,100.6,85.8,100.6,80.1z M113.3,79.4V58.9c0-4.3-1.5-6-4.2-6c-2.7,0-4.2,1.7-4.2,6v20.4c0,4.3,1.5,6,4.2,6
	C111.8,85.3,113.3,83.6,113.3,79.4z"/>
<path class="st0" d="M128.4,89.3c-5.3,0-8.1-3.4-8.1-7.5c0-1,0.1-2,0.4-2.9c0.2-1.2,1.3-2,2.5-1.9c0.1,0,0.2,0,0.2,0.1
	c1.2,0.2,1.6,1.5,1.2,2.6c-0.2,0.6-0.2,1.1-0.2,1.7c0,2.3,1.1,4,4,4c2.9,0,4.1-2,4.1-5.1c0-4-1.1-5.6-5-7.6l-2-1.1
	c-3.3-1.7-4.5-4-4.5-7.1c0-3.7,2.3-7,7.5-7c5,0,7.4,2.9,7.4,6.8v0.7c0.1,1.1-0.7,2-1.7,2c-0.1,0-0.2,0-0.2,0c-1,0.1-1.9-0.7-2-1.7
	c0-0.1,0-0.1,0-0.2v-0.1c0-2.2-1-3.7-3.4-3.7c-2.3,0-3.3,1.2-3.3,3c0,1.8,0.7,2.8,2.5,3.8l2.5,1.3c4.6,2.5,6.4,5.2,6.5,10.5
	C136.9,86,133.7,89.3,128.4,89.3z M123.4,50.4c-0.1-0.9,0.7-1.6,1.6-1.7l0,0c0.5,0,1.1,0.2,1.4,0.7l2.6,2.5l2.6-2.5
	c0.3-0.4,0.8-0.7,1.4-0.7c0.9,0,1.6,0.7,1.6,1.6c0,0,0,0,0,0.1c-0.1,0.6-0.3,1.1-0.7,1.4l-3.6,3.5c-0.3,0.3-0.7,0.4-1.1,0.4
	s-0.8-0.2-1.1-0.4l-3.7-3.5C123.6,51.4,123.4,50.9,123.4,50.4L123.4,50.4z"/>
<path class="st0" d="M156.5,58v28.9c-0.1,1.2-1.1,2.1-2.3,2c-1.1-0.1-2-0.9-2-2V74.6h-8.4v12.3c0,1.2-1,2.1-2.1,2.1s-2.1-1-2.1-2.1
	V58c0-5.7,2.9-9.3,8.5-9.3S156.5,52.3,156.5,58z M152.2,70.7v-12c0-4.3-1.5-6-4.2-6c-2.7,0-4.2,1.7-4.2,6v12H152.2z"/>
<path class="st0" d="M47.5,41.7V14.8h-3.9c-0.9,0.1-1.6-0.6-1.7-1.5s0.6-1.6,1.5-1.7c0.1,0,0.2,0,0.2,0h11.2
	c0.9-0.1,1.6,0.6,1.7,1.5c0.1,0.9-0.6,1.6-1.5,1.7c-0.1,0-0.2,0-0.2,0h-3.9v26.9c0.1,1-0.7,1.8-1.6,1.9c-1,0.1-1.8-0.7-1.9-1.6
	C47.5,41.9,47.5,41.8,47.5,41.7z"/>
<path class="st0" d="M54.4,36.8v-0.2c0-1.4,0.7-2,1.6-2c1.1,0,1.6,0.7,1.6,1.9l0,0c0,2.4,1,3.9,2.9,3.9c1.9,0,2.9-1.8,2.9-4.7V13.1
	c0-1,0.7-1.7,1.7-1.7s1.7,0.7,1.7,1.7v23.2c0,4.6-2.4,7.5-6.3,7.5S54.4,41.1,54.4,36.8z"/>
<path class="st0" d="M82.7,41.8c0,0.9-0.7,1.6-1.6,1.6h-7c-2,0-2.8-0.8-2.8-2.7V14.3c0-1.9,0.8-2.7,2.8-2.7h7
	c0.9-0.1,1.6,0.6,1.7,1.5s-0.6,1.6-1.5,1.7c-0.1,0-0.2,0-0.2,0h-6.3v9.5h5.6c0.9,0,1.6,0.7,1.6,1.6c0,0.9-0.7,1.6-1.6,1.6h-5.6v12.8
	h6.3C81.8,40.2,82.6,40.9,82.7,41.8z"/>
<path class="st0" d="M85.6,40.7V14.3c0-1.9,0.8-2.7,2.8-2.7h3.2c4.5,0,7.2,2.9,7.2,8.5v14.9c0,5.5-2.6,8.5-7.2,8.5h-3.2
	C86.4,43.5,85.6,42.7,85.6,40.7z M91.3,40.3c2.9,0,4-2,4-6.1V20.8c0-4.1-1.1-6.1-4-6.1H89v25.5C89,40.3,91.3,40.3,91.3,40.3z"/>
<path class="st0" d="M115.9,18.6v23.2c0.1,1-0.7,1.8-1.6,1.9c-1,0.1-1.8-0.7-1.9-1.6c0-0.1,0-0.2,0-0.2V32h-6.7v9.8
	c0.1,1-0.7,1.8-1.6,1.9c-1,0.1-1.8-0.7-1.9-1.6c0-0.1,0-0.2,0-0.2V18.6c0-4.6,2.4-7.5,6.8-7.5C113.4,11.2,115.9,14,115.9,18.6z
	 M112.5,28.8v-9.6c0-3.4-1.1-4.7-3.4-4.7s-3.4,1.4-3.4,4.7v9.6H112.5z"/>
<path class="st1" d="M54.9,11.1c1.1-0.1,2.2,0.8,2.3,2c0.1,1.1-0.8,2.2-2,2.3c-0.1,0-0.2,0-0.2,0h-3.1c-0.2,0-0.2,0.1-0.2,0.2l0,0
	v26.1c0,1.2-1,2.3-2.3,2.3c-1.2,0-2.3-1-2.3-2.3V15.6c0-0.2-0.1-0.2-0.2-0.2h-3.1c-1.1,0.1-2.2-0.8-2.3-2s0.8-2.2,2-2.3
	c0.1,0,0.2,0,0.2,0H54.9 M54.9,10.7H43.6c-1.4-0.1-2.6,1-2.7,2.4c-0.1,1.4,1,2.6,2.4,2.7c0.1,0,0.2,0,0.3,0h2.9v26
	c0,1.5,1.2,2.7,2.7,2.7c1.5,0,2.7-1.2,2.7-2.7v-26h2.9c1.4,0.1,2.6-1,2.7-2.4c0-1.4-1.1-2.6-2.5-2.7C55.1,10.7,55,10.7,54.9,10.7z"
	/>
<path class="st1" d="M65.2,10.9c1.2,0,2.3,1,2.3,2.3v23.2c0,4.9-2.6,7.9-6.9,7.9s-6.8-2.9-6.8-7.5v-0.2c0-1.9,1.2-2.6,2.2-2.6
	c1.4,0,2.2,1,2.2,2.5l0,0c0,2.8,1.3,3.4,2.4,3.4c1.6,0,2.3-1.4,2.3-4.3V13.1C63,11.9,64,10.9,65.2,10.9 M65.2,10.5
	c-1.5,0-2.7,1.2-2.7,2.7l0,0v22.5c0,2.5-0.7,3.8-1.9,3.8c-1.2,0-2-1-2-3l0,0c0-1.7-1.1-2.9-2.6-2.9c-1.3,0-2.6,0.9-2.6,3v0.2
	c0,4.9,2.8,7.9,7.2,7.9s7.3-3.2,7.3-8.4V13.1C67.9,11.6,66.7,10.5,65.2,10.5L65.2,10.5z"/>
<path class="st1" d="M80.9,11.1c1.1-0.1,2.2,0.8,2.3,2c0.1,1.1-0.8,2.2-2,2.3c-0.1,0-0.2,0-0.2,0h-5.5c-0.2,0-0.2,0.1-0.2,0.2l0,0
	v7.9c0,0.2,0.1,0.2,0.2,0.2l0,0h4.8c1.1-0.1,2.2,0.8,2.3,2c0.1,1.1-0.8,2.2-2,2.3c-0.1,0-0.2,0-0.2,0h-4.8c-0.2,0-0.2,0.1-0.2,0.2
	l0,0v11.1c0,0.2,0.1,0.2,0.2,0.2l0,0h5.5c1.1-0.1,2.2,0.8,2.3,2c0.1,1.1-0.8,2.2-2,2.3c-0.1,0-0.2,0-0.2,0H74
	c-2.3,0-3.3-1.1-3.3-3.3V14.3c0-2.2,1.1-3.3,3.3-3.3H80.9 M80.9,10.7h-7c-2.5,0-3.7,1.2-3.7,3.7v26.4c0,2.5,1.2,3.7,3.7,3.7h7
	c1.4,0.1,2.6-1,2.7-2.4c0.1-1.4-1-2.6-2.4-2.7c-0.1,0-0.2,0-0.3,0h-5.3V28.4h4.7c1.4,0.1,2.6-1,2.7-2.4c0.1-1.4-1-2.6-2.4-2.7
	c-0.1,0-0.2,0-0.3,0h-4.7v-7.6H81c1.4,0.1,2.6-1,2.7-2.4s-1.1-2.6-2.5-2.7C81.2,10.7,81,10.7,80.9,10.7L80.9,10.7z"/>
<path class="st1" d="M91.5,11.1c4.9,0,7.7,3.3,7.7,9V35c0,5.7-2.8,9-7.7,9h-3.2C86,44,85,42.9,85,40.7V14.3c0-2.2,1.1-3.3,3.3-3.3
	H91.5 M89.7,39.7h1.5c2.5,0,3.5-1.6,3.5-5.5V20.8c0-3.9-1-5.5-3.5-5.5h-1.5c-0.2,0-0.2,0.1-0.2,0.2l0,0v23.9
	C89.5,39.6,89.5,39.7,89.7,39.7L89.7,39.7 M91.5,10.7h-3.2c-2.5,0-3.7,1.2-3.7,3.7v26.4c0,2.5,1.2,3.7,3.7,3.7h3.2
	c5.2,0,8.1-3.4,8.1-9.4V20.1C99.6,14.1,96.7,10.7,91.5,10.7z M89.9,15.7h1.4c1.9,0,3.1,0.8,3.1,5.1v13.4c0,4.3-1.2,5.1-3.1,5.1h-1.4
	V15.7z"/>
<path class="st1" d="M109.1,10.7c4.6,0,7.4,2.9,7.4,7.9v23.2c0,1.2-1,2.3-2.3,2.3c-1.2,0-2.3-1-2.3-2.3v-9c0-0.2-0.1-0.2-0.2-0.2
	l0,0h-5.1c-0.2,0-0.2,0.1-0.2,0.2l0,0v9c0,1.2-1,2.3-2.3,2.3c-1.2,0-2.3-1-2.3-2.3V18.6C101.7,13.6,104.5,10.7,109.1,10.7
	 M106.6,28.2h5.1c0.2,0,0.2-0.1,0.2-0.2l0,0v-8.8c0-3.7-1.4-4.3-2.8-4.3s-2.9,0.5-2.9,4.3v8.8C106.2,28.1,106.4,28.3,106.6,28.2
	C106.6,28.3,106.6,28.3,106.6,28.2 M109.1,10.2c-4.8,0-7.8,3.1-7.8,8.4v23.2c0,1.5,1.2,2.7,2.7,2.7s2.7-1.2,2.7-2.7v-8.8h4.8v8.8
	c0,1.5,1.2,2.7,2.7,2.7s2.7-1.2,2.7-2.7V18.6C116.8,13.4,113.9,10.3,109.1,10.2L109.1,10.2z M106.7,27.8v-8.6c0-3.5,1.2-3.8,2.5-3.8
	c1.2,0,2.4,0.3,2.4,3.8v8.6H106.7z"/>
<path class="st1" d="M126.2,10.7c4.5,0,7.3,2.9,7.3,7.9v23.2c0,1.2-1,2.3-2.3,2.3c-1.2,0-2.3-1-2.3-2.3V19.2c0-3.7-1.4-4.3-2.7-4.3
	c-1.3,0-2.8,0.5-2.8,4.3v22.5c0,1.2-1,2.3-2.3,2.3c-1.2,0-2.3-1-2.3-2.3V18.6C118.9,13.6,121.6,10.7,126.2,10.7 M126.2,10.3
	c-4.8,0-7.7,3.1-7.7,8.4v23.2c0,1.5,1.2,2.7,2.7,2.7c1.5,0,2.7-1.2,2.7-2.7V19.2c0-3.8,1.6-3.8,2.3-3.8s2.3,0,2.3,3.8v22.5
	c0,1.5,1.2,2.7,2.7,2.7c1.5,0,2.7-1.2,2.7-2.7V18.6C133.8,13.4,131,10.3,126.2,10.3z"/>
<path class="st0" d="M119.5,41.7V18.6c0-4.6,2.3-7.5,6.7-7.5s6.7,2.9,6.7,7.5v23.2c0.1,1-0.7,1.8-1.6,1.9c-1,0.1-1.8-0.7-1.9-1.6
	c0-0.1,0-0.2,0-0.2V19.2c0-3.4-1.1-4.7-3.3-4.7c-2.1,0-3.3,1.4-3.3,4.7v22.5c0.1,1-0.7,1.8-1.6,1.9c-1,0.1-1.8-0.7-1.9-1.6
	C119.5,41.9,119.5,41.8,119.5,41.7L119.5,41.7z"/>
<path class="st0" d="M35.7,76.9c0,7.9-2.9,12.1-8.5,12.1h-5.3c-2.5,0-3.4-1-3.4-3.4v-33c0-2.4,1.1-3.4,3.4-3.4h4.7
	c5.4,0,8.4,3.2,8.4,9.5c0,4.2-0.8,6.9-3,8.3C34.5,68.7,35.7,71.5,35.7,76.9z M22.6,65.1h3.4c3.4,0,4.9-2.1,4.9-6.1
	c0-3.7-1.2-5.8-4.6-5.8h-3.7V65.1z M31.3,76.7c0-5.5-1.7-7.6-5.2-7.6h-3.6v16h3.8C30.3,85.1,31.3,82.2,31.3,76.7z"/>
<path class="st2" d="M52.4,71.1c1.6,0.9,3.3,3.3,3.3,6.6v9.3c0,1.2-1,2.1-2.1,2.1c-1.2,0-2.1-1-2.1-2.1v-8c0-3.2-1.7-5.7-4.5-5.7h-3
	v13.8c-0.1,1.2-1.1,2.1-2.3,2c-1.1-0.1-2-0.9-2-2V52.6c0-2.4,1.1-3.4,3.4-3.4h3.8c5.6,0,8.9,3.8,8.9,10.6v2.6
	C55.7,66.4,54.7,69.3,52.4,71.1z M51.5,61.6v-0.8c0-5.1-1.6-7.5-5.2-7.5h-2.5v15.9h2.5C50,69.1,51.5,66.7,51.5,61.6L51.5,61.6z"/>
<path class="st0" d="M59.9,80.1v-29c0.1-1.2,1.1-2.1,2.3-2c1.1,0.2,2,1,2,2v28.2c0,4.3,1.5,6,4.2,6s4.2-1.7,4.2-6V51.1
	c0-1.2,1-2.1,2.1-2.1c1.1,0,2.1,1,2.1,2.1l0,0V80c0,5.7-2.9,9.3-8.5,9.3S59.9,85.8,59.9,80.1z"/>
<path class="st0" d="M81.3,80.1V58.3c0-5.7,2.9-9.3,8.2-9.3c5.2,0,8.2,3.6,8.2,9.3v1.1c0.1,1.1-0.8,2-2,2.1h-0.1c-1.1,0-2-0.9-2.1-2
	c0-0.1,0-0.2,0-0.2v-0.2c0-4.3-1.3-6-3.9-6c-2.6,0-4,1.7-4,6v20.3c0,4.2,1.4,6,4,6c2.6,0,3.8-1.7,3.8-5.8v-0.2
	c-0.1-1.1,0.7-2.2,1.9-2.3c1.1-0.1,2.2,0.7,2.3,1.9c0,0.2,0,0.2,0,0.4v0.8c0,5.7-2.8,9.3-8.2,9.3S81.3,85.8,81.3,80.1z"/>
<path class="st0" d="M100.6,80.1V58.2c0-5.7,2.9-9.3,8.5-9.3c5.6,0,8.5,3.6,8.5,9.3V80c0,5.7-2.9,9.3-8.5,9.3
	C103.5,89.4,100.6,85.8,100.6,80.1z M113.3,79.4V58.9c0-4.3-1.5-6-4.2-6c-2.7,0-4.2,1.7-4.2,6v20.4c0,4.3,1.5,6,4.2,6
	C111.8,85.3,113.3,83.6,113.3,79.4z"/>
<path class="st0" d="M128.4,89.3c-5.3,0-8.1-3.4-8.1-7.5c0-1,0.1-2,0.4-2.9c0.2-1.2,1.3-2,2.5-1.9c0.1,0,0.2,0,0.2,0.1
	c1.2,0.2,1.6,1.5,1.2,2.6c-0.2,0.6-0.2,1.1-0.2,1.7c0,2.3,1.1,4,4,4c2.9,0,4.1-2,4.1-5.1c0-4-1.1-5.6-5-7.6l-2-1.1
	c-3.3-1.7-4.5-4-4.5-7.1c0-3.7,2.3-7,7.5-7c5,0,7.4,2.9,7.4,6.8v0.7c0.1,1.1-0.7,2-1.7,2c-0.1,0-0.2,0-0.2,0c-1,0.1-1.9-0.7-2-1.7
	c0-0.1,0-0.1,0-0.2v-0.1c0-2.2-1-3.7-3.4-3.7c-2.3,0-3.3,1.2-3.3,3c0,1.8,0.7,2.8,2.5,3.8l2.5,1.3c4.6,2.5,6.4,5.2,6.5,10.5
	C136.9,86,133.7,89.3,128.4,89.3z M123.4,50.4c-0.1-0.9,0.7-1.6,1.6-1.7l0,0c0.5,0,1.1,0.2,1.4,0.7l2.6,2.5l2.6-2.5
	c0.3-0.4,0.8-0.7,1.4-0.7c0.9,0,1.6,0.7,1.6,1.6c0,0,0,0,0,0.1c-0.1,0.6-0.3,1.1-0.7,1.4l-3.6,3.5c-0.3,0.3-0.7,0.4-1.1,0.4
	s-0.8-0.2-1.1-0.4l-3.7-3.5C123.6,51.4,123.4,50.9,123.4,50.4L123.4,50.4z"/>
<path class="st1" d="M26.6,48.7c5.8,0,9,3.5,9,10c0,4-0.7,6.6-2.4,8.1C33,66.8,33,66.9,33,67c0,0.1,0.1,0.2,0.1,0.2
	c2.1,1.9,3.1,4.8,3.1,9.7c0,10.5-4.9,12.7-9,12.7h-5.4c-2.7,0-4-1.2-4-3.9V52.6c0-2.7,1.3-3.9,4-3.9H26.6 M23.4,64.5h2.5
	c2,0,4.3-0.7,4.3-5.5c0-4.7-2.2-5.3-4.1-5.3h-2.8c-0.2,0-0.2,0.1-0.2,0.2l0,0v10.3C23.1,64.5,23.2,64.5,23.4,64.5L23.4,64.5
	 M23.4,84.5h2.9c3.4,0,4.5-2,4.5-7.9c0-6.2-2.4-7-4.7-7h-2.8c-0.2,0-0.2,0.1-0.2,0.2l0,0v14.4C23.1,84.4,23.2,84.5,23.4,84.5
	L23.4,84.5 M26.6,48.2h-4.7c-2.9,0-4.4,1.4-4.4,4.3v33c0,2.9,1.5,4.3,4.4,4.3h5.3c4.3,0,9.4-2.3,9.4-13.1c0-4.9-0.9-7.9-3.1-9.9
	c1.6-1.6,2.5-4.3,2.5-8.3C36,51.9,32.6,48.2,26.6,48.2L26.6,48.2z M23.5,54.1h2.7c1.8,0,3.7,0.6,3.7,4.9c0,4.5-2,5.1-3.9,5.1h-2.5
	V54.1z M23.5,70h2.7c2.2,0,4.3,0.8,4.3,6.6c0,6.2-1.5,7.5-4.1,7.5h-2.9V70z"/>
<path class="st1" d="M46.8,48.7c6.1,0,9.5,4.1,9.5,11.1v2.6c0,3.8-0.9,6.5-2.8,8.4c-0.1,0.1-0.1,0.2-0.1,0.2c0,0.1,0,0.2,0.1,0.2
	c1.8,1.6,2.8,4,2.6,6.4v9.4c0,1.5-1.2,2.7-2.7,2.7s-2.7-1.2-2.7-2.7v-8c0-2.6-1.2-5.2-3.9-5.2h-2.2c-0.2,0-0.2,0.1-0.2,0.2l0,0v12.9
	c0.1,1.5-1.1,2.8-2.5,2.9c-1.5,0.1-2.8-1.1-2.9-2.5c0-0.1,0-0.2,0-0.3V52.6c0-2.7,1.3-3.9,4-3.9H46.8 M44.7,68.6h1.7
	c2.1,0,4.7-0.8,4.7-7v-0.8c0-6.2-2.5-7-4.7-7h-1.7c-0.2,0-0.2,0.1-0.2,0.2l0,0v14.3C44.3,68.5,44.5,68.6,44.7,68.6L44.7,68.6
	 M46.8,48.2H43c-2.9,0-4.4,1.4-4.4,4.3v34.3c-0.1,1.7,1.2,3.2,2.9,3.3c1.7,0.1,3.2-1.2,3.3-2.9c0-0.1,0-0.2,0-0.3V74h2
	c2.5,0,3.5,2.4,3.5,4.7v8c0,1.7,1.4,3.1,3.1,3.1c1.7,0,3.1-1.4,3.1-3.1l0,0v-9.2c0.1-2.5-0.9-4.9-2.7-6.6c1.9-1.9,2.8-4.7,2.8-8.5
	v-2.6C56.7,52.4,53.1,48.2,46.8,48.2z M44.7,54.1h1.6c2.1,0,4.3,0.8,4.3,6.6v0.8c0,5.8-2.1,6.6-4.3,6.6h-1.6V54.1z"/>
<path class="st1" d="M74.7,48.5c1.5,0,2.7,1.2,2.7,2.7v28.9c0,6.1-3.4,9.8-9,9.8s-9-3.7-9-9.8v-29c0.1-1.5,1.4-2.6,2.9-2.5
	c1.4,0.1,2.5,1.1,2.5,2.5v28.2c0,4.8,2,5.4,3.7,5.4s3.7-0.7,3.7-5.4V51.1C72.1,49.6,73.3,48.5,74.7,48.5 M74.8,48.1
	c-1.7,0-3.1,1.4-3.1,3.1v28.2c0,4.4-1.6,5-3.3,5c-1.6,0-3.3-0.6-3.3-5V51.1c-0.1-1.7-1.6-3-3.3-2.9c-1.6,0.1-2.9,1.4-2.9,2.9V80
	c0,6.4,3.5,10.2,9.4,10.2s9.4-3.8,9.4-10.2V51.1C77.8,49.5,76.4,48.1,74.8,48.1L74.8,48.1z"/>
<path class="st1" d="M89.5,48.5c2.5-0.2,4.8,0.8,6.5,2.7c1.5,1.7,2.2,4.1,2.2,7.1v1.1c0,1.4-1.1,2.6-2.5,2.6h-0.1
	c-1.5,0-2.6-1.1-2.6-2.5c0-0.1,0-0.1,0-0.2v-0.2c0-4.7-1.7-5.4-3.4-5.4c-1.6,0-3.4,0.7-3.4,5.4v20.3c0,4.8,2,5.4,3.5,5.4
	c1.6,0,3.4-0.7,3.4-5.2v-0.2c-0.1-1.5,1-2.7,2.5-2.9c1.5-0.1,2.7,1,2.9,2.5c0,0.2,0,0.2,0,0.4v0.8c0,3-0.7,5.4-2.2,7.1
	c-1.6,1.8-4,2.8-6.5,2.7c-5.5,0-8.8-3.7-8.8-9.8V58.3C80.8,52.2,84.1,48.5,89.5,48.5 M89.5,48.1c-5.7,0-9.2,3.8-9.2,10.2v21.8
	c0,6.4,3.4,10.2,9.2,10.2c2.6,0.2,5.1-0.9,6.8-2.9c1.6-1.8,2.3-4.3,2.3-7.4v-0.8c0.2-1.7-1.1-3.1-2.8-3.3c-1.7-0.2-3.1,1.1-3.3,2.8
	c0,0.2,0,0.3,0,0.4v0.3c0,4.8-1.9,4.8-2.9,4.8c-1.1,0-3.1,0-3.1-5V59.1c0-5,2-5,3-5s2.9,0,2.9,5v0.2c0,1.7,1.3,3.1,3,3.1
	s3.1-1.3,3.1-2.9v-1.1c0-3.1-0.7-5.6-2.3-7.4C94.6,49,92.2,48,89.5,48.1L89.5,48.1z"/>
<path class="st1" d="M109.1,48.3c5.6,0,9.1,3.7,9.1,9.8V80c0,6.1-3.4,9.8-9.1,9.8s-9-3.7-9-9.8V58.2C100.1,52,103.5,48.3,109.1,48.3
	 M109.1,84.8c1.7,0,3.7-0.7,3.7-5.4V58.9c0-4.8-2-5.4-3.7-5.4s-3.7,0.7-3.7,5.4v20.4C105.4,84.1,107.4,84.8,109.1,84.8 M109.1,47.9
	c-5.9,0-9.4,3.8-9.4,10.2v21.9c0,6.4,3.5,10.2,9.4,10.2c5.9,0,9.5-3.8,9.5-10.2V58.2C118.5,51.8,115,47.9,109.1,47.9L109.1,47.9z
	 M109.1,84.3c-1.6,0-3.3-0.6-3.3-5V58.9c0-4.4,1.6-5,3.3-5c1.6,0,3.3,0.6,3.3,5v20.4C112.4,83.8,110.7,84.4,109.1,84.3L109.1,84.3z"
	/>
<path class="st1" d="M132.9,48.1c1.1,0,2.1,1,2,2.2l0,0c-0.1,0.7-0.4,1.3-0.9,1.8l-3.6,3.5l0,0c-0.4,0.4-0.9,0.6-1.5,0.6
	c-0.6,0-1.1-0.2-1.5-0.6l0,0l-3.7-3.4c-0.6-0.5-0.9-1.1-0.9-1.8c0-1.2,0.9-2.2,2.1-2.2c0.7,0,1.3,0.2,1.7,0.7l2,2
	c0.1,0.1,0.1,0.1,0.2,0.1s0.2,0,0.2-0.1l2-2C131.5,48.4,132.2,48.1,132.9,48.1 M128.5,57c2.2-0.1,4.3,0.7,5.9,2c1.3,1.4,2,3.3,2,5.2
	v0.7c0,1.4-1.1,2.5-2.4,2.5c-0.1,0-0.1,0-0.2,0c-1.3,0.1-2.4-1-2.5-2.3c0-0.1,0-0.1,0-0.2l0,0c0-2.1-0.9-3.1-2.9-3.1
	c-1.9,0-2.8,0.8-2.8,2.5c0,1.3,0.4,2.3,2.3,3.3l2.5,1.4c4.8,2.5,6.7,5.6,6.7,10.9c0,3.2-0.8,5.8-2.5,7.5c-1.7,1.6-4.1,2.5-6.5,2.4
	c-5.2,0-8.7-3.3-8.7-8c0-1.1,0.1-2,0.4-3c0.2-1.3,1.4-2.2,2.7-2.3c0.2,0,0.5,0,0.7,0.1c0.6,0.2,1.1,0.5,1.5,1.1
	c0.3,0.7,0.4,1.5,0.2,2.3c-0.2,0.6-0.2,1.1-0.2,1.6c0,2.3,1.1,3.5,3.5,3.5c2.4,0,3.5-1.5,3.5-4.6c0-3.8-0.9-5.2-4.7-7.2l-2-1.1
	c-3.3-1.7-4.8-4.1-4.8-7.6S122.6,57,128.5,57 M132.9,47.7c-0.8,0-1.6,0.3-2,0.9l-2,1.9l-2-1.9c-0.5-0.6-1.2-0.9-2-0.9
	c-1.4,0-2.5,1.2-2.5,2.6c0.1,0.8,0.4,1.6,1.1,2.1l3.7,3.4l0,0c0.3,0.3,0.8,0.6,1.3,0.7c-6.2,0-8.4,4.3-8.4,7.9s1.6,6.2,5.1,7.9
	l2,1.1c3.6,2,4.5,3.2,4.5,6.8c0,3.8-1.8,4.2-3.1,4.2c-2.1,0-3.1-1-3.1-3.1c0-0.5,0.1-1,0.2-1.5c0.2-0.8,0.2-1.8-0.2-2.5
	c-0.4-0.7-1-1.1-1.7-1.2c-0.2-0.1-0.6-0.1-0.8-0.1c-1.5,0-2.8,1.1-3.1,2.5c-0.3,1.1-0.5,2.1-0.4,3.2c0,5.1,3.6,8.4,9.1,8.4
	c2.5,0.1,4.9-0.8,6.7-2.5c1.8-1.8,2.7-4.5,2.7-7.9c-0.1-5.5-2-8.7-7-11.3l-2.5-1.4c-1.7-0.9-2-1.8-2-2.9c0-1.5,0.7-2,2.4-2
	c1.8,0,2.5,0.8,2.5,2.7v0.1c-0.1,1.6,1.1,2.8,2.7,2.9c0.1,0,0.2,0,0.2,0c1.6,0.1,2.9-1.2,2.9-2.8c0-0.1,0-0.2,0-0.2v-0.7
	c0.1-2-0.7-4.1-2.1-5.6c-1.5-1.4-3.4-2.1-5.5-2.2c0.6-0.1,1.1-0.3,1.5-0.7l3.7-3.5c0.7-0.5,1-1.3,1.1-2.1
	C135.4,49,134.3,47.8,132.9,47.7C132.9,47.8,132.9,47.8,132.9,47.7L132.9,47.7z"/>
<path class="st1" d="M148,48.1c5.6,0,9,3.7,9,9.8v29c0.1,1.5-1.1,2.8-2.5,2.9s-2.8-1.1-2.9-2.5c0-0.1,0-0.2,0-0.3V75.4
	c0-0.2-0.1-0.2-0.2-0.2l0,0h-6.8c-0.2,0-0.2,0.1-0.2,0.2l0,0v11.5c0.1,1.5-1.1,2.8-2.5,2.9s-2.8-1.1-2.9-2.5c0-0.1,0-0.2,0-0.3V58
	C139,51.8,142.4,48.2,148,48.1 M144.6,70.1h6.8c0.2,0,0.2-0.1,0.2-0.2l0,0V58.7c0-4.8-2-5.4-3.7-5.4s-3.7,0.7-3.7,5.4v11.1
	C144.3,70,144.4,70.1,144.6,70.1L144.6,70.1 M148,47.7c-5.9,0-9.4,3.8-9.4,10.2v29c-0.1,1.7,1.2,3.2,2.9,3.3
	c1.7,0.1,3.2-1.2,3.3-2.9c0-0.1,0-0.2,0-0.3V75.6h6.5v11.3c-0.1,1.7,1.2,3.2,2.9,3.3c1.7,0.1,3.2-1.2,3.3-2.9c0-0.1,0-0.2,0-0.3V58
	C157.5,51.5,154,47.7,148,47.7L148,47.7z M144.7,69.7v-11c0-4.4,1.6-5,3.3-5c1.6,0,3.3,0.6,3.3,5v11H144.7z"/>
<path class="st0" d="M156.5,58v28.9c-0.1,1.2-1.1,2.1-2.3,2c-1.1-0.1-2-0.9-2-2V74.6h-8.4v12.3c0,1.2-1,2.1-2.1,2.1s-2.1-1-2.1-2.1
	V58c0-5.7,2.9-9.3,8.5-9.3S156.5,52.3,156.5,58z M152.2,70.7v-12c0-4.3-1.5-6-4.2-6c-2.7,0-4.2,1.7-4.2,6v12H152.2z"/>
</svg>
