<svg id="f04fc098-d1da-4a16-8025-461afa65eae1" xmlns="http://www.w3.org/2000/svg" viewBox="0 0 300 140"><defs><style>.bf8435b0-b188-4126-adb0-8ed6459cdb54{fill:#cd1e2a;}</style></defs><title>card-foistemgames2018</title><path class="bf8435b0-b188-4126-adb0-8ed6459cdb54" d="M149.85,71.67v.11a.72.72,0,0,1,0,.24v.11l1.68,1.05-1,2.49-1.93-.44a3.34,3.34,0,0,1-.33.32l.45,1.93-2.49,1-1-1.69h-.47l-1,1.69-2.49-1,.44-1.93c-.12-.1-.22-.21-.33-.32l-1.93.44-1-2.49L140,72.13v-.46l-1.68-1,1-2.49,1.93.44c.11-.11.21-.22.33-.32l-.44-1.93,2.49-1,1,1.69h.47l1-1.69,2.49,1-.45,1.93a3.34,3.34,0,0,1,.33.32l1.93-.44,1,2.49Zm-.76.84,0-.31c0-.1,0-.2,0-.31s0-.2,0-.3l0-.31,1.53-1L150.06,69l-1.76.41a5.92,5.92,0,0,0-.41-.45c-.14-.14-.29-.28-.46-.42l.41-1.76-1.35-.56-1,1.54-.31,0h-.61l-.31,0-1-1.54-1.35.56.41,1.76a6.2,6.2,0,0,0-.46.42l-.41.45L139.77,69l-.56,1.36,1.53,1c0,.1,0,.21,0,.31a3,3,0,0,0,0,.31c0,.1,0,.2,0,.3a3,3,0,0,0,0,.31l-1.53,1,.56,1.36,1.76-.41a5.92,5.92,0,0,0,.41.45c.14.14.3.28.46.42L142,77.05l1.35.56,1-1.54.31,0h.61l.31,0,1,1.54,1.35-.56-.41-1.76c.17-.14.32-.28.46-.42s.27-.29.41-.45l1.76.41.56-1.36Zm-4.17-3.05a2.37,2.37,0,0,1,1,.19,2.43,2.43,0,0,1,.77.52,2.35,2.35,0,0,1,.53.78,2.47,2.47,0,0,1,0,1.9,2.35,2.35,0,0,1-.53.78,2.43,2.43,0,0,1-.77.52,2.5,2.5,0,0,1-1.91,0,2.55,2.55,0,0,1-.77-.52,2.5,2.5,0,0,1-.53-.78,2.47,2.47,0,0,1,0-1.9,2.5,2.5,0,0,1,.53-.78,2.55,2.55,0,0,1,.77-.52A2.38,2.38,0,0,1,144.92,69.46Zm0,4.16a1.71,1.71,0,0,0,.67-.14,1.82,1.82,0,0,0,.54-.36,1.72,1.72,0,0,0,.37-.55,1.79,1.79,0,0,0,0-1.34,1.72,1.72,0,0,0-.37-.55,1.82,1.82,0,0,0-.54-.36,1.71,1.71,0,0,0-.67-.14,1.64,1.64,0,0,0-.67.14,1.87,1.87,0,0,0-.55.36,1.72,1.72,0,0,0-.37.55,1.79,1.79,0,0,0,0,1.34,1.72,1.72,0,0,0,.37.55,1.87,1.87,0,0,0,.55.36A1.64,1.64,0,0,0,144.92,73.62Z"/><path class="bf8435b0-b188-4126-adb0-8ed6459cdb54" d="M127.24,34.9a2.55,2.55,0,0,1-.28,1,2.61,2.61,0,0,1-.6.75,2.57,2.57,0,0,1-.84.47,2.5,2.5,0,0,1-1,.11,2.55,2.55,0,0,1-1-.28,2.71,2.71,0,0,1-.74-.61,2.65,2.65,0,0,1-.46-.84,2.47,2.47,0,0,1-.11-1l.68-7.46a3.22,3.22,0,0,1,.37-1.27,3.26,3.26,0,0,1,.81-1,3.4,3.4,0,0,1,1.12-.62,3.35,3.35,0,0,1,1.31-.14,3.36,3.36,0,0,1,2.26,1.18,3.3,3.3,0,0,1,.61,1.12,3.09,3.09,0,0,1,0,1.91,3.92,3.92,0,0,1,1.15,1.46,4.26,4.26,0,0,1,.26.88,3.78,3.78,0,0,1-.35,2.28,3.66,3.66,0,0,1-.8,1.07,3.62,3.62,0,0,1-1.12.71A3.9,3.9,0,0,1,127.24,34.9Zm-4.15-.36a1.81,1.81,0,0,0,.07.66,1.91,1.91,0,0,0,.31.56,1.76,1.76,0,0,0,.5.4,1.5,1.5,0,0,0,.63.19,1.62,1.62,0,0,0,.66-.07,1.71,1.71,0,0,0,.56-.31,1.8,1.8,0,0,0,.4-.5,1.65,1.65,0,0,0,.19-.63l.07-.83.42,0a2.78,2.78,0,0,0,1.15-.13,2.7,2.7,0,0,0,1-.53,2.86,2.86,0,0,0,.71-.87,3,3,0,0,0,.33-1.11,2.66,2.66,0,0,0-.06-.89,2.77,2.77,0,0,0-.31-.8,2.7,2.7,0,0,0-.54-.68,3.18,3.18,0,0,0-.73-.51,2.35,2.35,0,0,0,.32-1,2.51,2.51,0,0,0-.57-1.82,2.61,2.61,0,0,0-.75-.61,2.49,2.49,0,0,0-1.93-.17,2.46,2.46,0,0,0-.84.46,2.48,2.48,0,0,0-.88,1.69Z"/><path class="bf8435b0-b188-4126-adb0-8ed6459cdb54" d="M94.82,53.64a.87.87,0,0,1,.32.06,1.27,1.27,0,0,1,.27.18,1,1,0,0,1,.17.27.68.68,0,0,1,.07.32V65.29H85.49L84,63.79V54.47a.68.68,0,0,1,.07-.32,1,1,0,0,1,.17-.27,1.27,1.27,0,0,1,.27-.18.87.87,0,0,1,.32-.06Zm0,.83H94v5H85.66v-5h-.83v9l1,1h.67V61.13h5.82v3.33h2.5ZM86.5,58.63h6.65V54.47H86.5Zm5,3.33H87.33v2.5h.83V62.79H89v1.67h2.5Z"/><path class="bf8435b0-b188-4126-adb0-8ed6459cdb54" d="M104,86.52a.58.58,0,0,1,.11.15,1.54,1.54,0,0,1,.08.19,1.42,1.42,0,0,1,0,.2.65.65,0,0,1,0,.19.75.75,0,0,1,0,.26.62.62,0,0,1-.15.21.8.8,0,0,1-.21.15.71.71,0,0,1-.26,0H94.18a.75.75,0,0,1-.26,0,.78.78,0,0,1-.36-.36.75.75,0,0,1,0-.26,1.37,1.37,0,0,1,0-.19.73.73,0,0,1,0-.2,1.46,1.46,0,0,1,.07-.19.58.58,0,0,1,.11-.15l1.09-1.08V80.56h8v4.88Zm-.42.73a1,1,0,0,0,0-.15.2.2,0,0,0-.06-.13l-1.06-1.06H95.33L94.26,87a.4.4,0,0,0-.06.13,1,1,0,0,0,0,.15Zm-8-2h6.68v-4H95.52Z"/><path class="bf8435b0-b188-4126-adb0-8ed6459cdb54" d="M108.43,93.34a4,4,0,0,1,.4,1,4.06,4.06,0,0,1,.13,1V96l-4.16,2.09L100.64,96c0-.26,0-.5,0-.73s0-.44.06-.66a3.64,3.64,0,0,1,.16-.63,3.07,3.07,0,0,1,.31-.67l-1.37-.68v3.81a1.56,1.56,0,0,1,.34.18,1.16,1.16,0,0,1,.26.28,1.09,1.09,0,0,1,.17.34,1.21,1.21,0,0,1,.06.38v2.08H98.15V97.65a1.58,1.58,0,0,1,0-.38,1.35,1.35,0,0,1,.17-.34,1.2,1.2,0,0,1,.27-.28,1.56,1.56,0,0,1,.34-.18V92.24l-.83-.42,6.65-3.32,6.66,3.32Zm-8.62,4.31a.4.4,0,0,0-.12-.29.39.39,0,0,0-.3-.13.37.37,0,0,0-.29.13.4.4,0,0,0-.12.29V98.9h.83Zm.2-5.83,4.79,2.4,4.8-2.4-4.8-2.39Zm8.12,3.7a4,4,0,0,0-.1-.94,3.26,3.26,0,0,0-.34-.87l-2.89,1.44-2.88-1.44a2.94,2.94,0,0,0-.33.8,3.06,3.06,0,0,0-.12.85v.16l3.33,1.66Z"/><path class="bf8435b0-b188-4126-adb0-8ed6459cdb54" d="M119.68,24a2.47,2.47,0,0,1,1,.21,2.5,2.5,0,0,1,1.38,1.38,2.44,2.44,0,0,1,.21,1,2.59,2.59,0,0,1-.08.63,2.34,2.34,0,0,1-.23.59,2.68,2.68,0,0,1-.36.52,3.14,3.14,0,0,1-.48.42,5.19,5.19,0,0,1,.24.94,6,6,0,0,1,.08,1A5.77,5.77,0,0,1,120,34.51l1.3,1.3-.58.59-1.3-1.3a5.84,5.84,0,0,1-1.78,1.06,5.82,5.82,0,0,1-5.86-1.06l-1.3,1.3-.58-.59,1.3-1.3a5.7,5.7,0,0,1-1.42-3.81,6,6,0,0,1,.07-1,7.62,7.62,0,0,1,.24-.94,3.14,3.14,0,0,1-.48-.42,2.68,2.68,0,0,1-.36-.52,2.34,2.34,0,0,1-.23-.59,2.59,2.59,0,0,1-.08-.63,2.44,2.44,0,0,1,.21-1,2.5,2.5,0,0,1,1.38-1.38,2.47,2.47,0,0,1,1-.21,2.67,2.67,0,0,1,1.23.31,3,3,0,0,1,.52.36,2.09,2.09,0,0,1,.41.48,5.19,5.19,0,0,1,.94-.24,6.12,6.12,0,0,1,1-.08,6,6,0,0,1,1,.08,5.19,5.19,0,0,1,.94.24,2.37,2.37,0,0,1,.41-.48,3.46,3.46,0,0,1,.52-.36,2.67,2.67,0,0,1,.59-.23A2.74,2.74,0,0,1,119.68,24Zm-8.12.83a1.72,1.72,0,0,0-.68.14,1.85,1.85,0,0,0-.56.38,1.73,1.73,0,0,0-.38.57,1.56,1.56,0,0,0-.14.68,1.66,1.66,0,0,0,.17.76,1.52,1.52,0,0,0,.48.61,5.93,5.93,0,0,1,1-1.43,5.79,5.79,0,0,1,1.44-1,1.67,1.67,0,0,0-.61-.48A1.71,1.71,0,0,0,111.56,24.87Zm4.06,10.82a4.84,4.84,0,0,0,1.94-.39,5.15,5.15,0,0,0,1.59-1.08,5.07,5.07,0,0,0,1.07-1.58,5,5,0,0,0,0-3.88,5,5,0,0,0-1.07-1.59,5.12,5.12,0,0,0-1.59-1.07,4.9,4.9,0,0,0-3.88,0,5.24,5.24,0,0,0-1.59,1.07A5,5,0,0,0,111,28.76a5,5,0,0,0,0,3.88,5.07,5.07,0,0,0,1.07,1.58,5.27,5.27,0,0,0,1.59,1.08A4.84,4.84,0,0,0,115.62,35.69Zm2.5-5v.83h-3.33V27.37h.83V30.7ZM120.79,28a1.52,1.52,0,0,0,.48-.61,1.67,1.67,0,0,0,.18-.76,1.72,1.72,0,0,0-.14-.68,1.9,1.9,0,0,0-.38-.57,2,2,0,0,0-.57-.38,1.73,1.73,0,0,0-1.45,0,1.56,1.56,0,0,0-.6.48A5.86,5.86,0,0,1,120.79,28Z"/><path class="bf8435b0-b188-4126-adb0-8ed6459cdb54" d="M111,114.25a.6.6,0,0,1-.09.33.78.78,0,0,1-.23.25,1.05,1.05,0,0,1-.32.15,1,1,0,0,1-.34,0,1,1,0,0,1-.33,0,1.05,1.05,0,0,1-.32-.15.78.78,0,0,1-.23-.25.6.6,0,0,1-.09-.33.58.58,0,0,1,.09-.33.78.78,0,0,1,.23-.25.86.86,0,0,1,.32-.15,1,1,0,0,1,.33,0,1.55,1.55,0,0,1,.31,0,1.39,1.39,0,0,1,.28.12v-3l-2.74.69V115a.64.64,0,0,1-.09.34.88.88,0,0,1-.23.24.94.94,0,0,1-.32.15,1,1,0,0,1-.34.06,1.06,1.06,0,0,1-.34-.06.89.89,0,0,1-.31-.15.78.78,0,0,1-.24-.24.64.64,0,0,1-.09-.34.63.63,0,0,1,.09-.33.82.82,0,0,1,.24-.25,1.48,1.48,0,0,1,.31-.15,1.4,1.4,0,0,1,.34,0,1.06,1.06,0,0,1,.31,0,1,1,0,0,1,.28.11V111l3.52-.88Zm-4.11,1.17a.65.65,0,0,0,.19,0l.19-.07a.44.44,0,0,0,.15-.12.28.28,0,0,0,.06-.18.27.27,0,0,0-.06-.17.44.44,0,0,0-.15-.12.73.73,0,0,0-.19-.07l-.19,0-.18,0a.62.62,0,0,0-.19.07.44.44,0,0,0-.15.12.23.23,0,0,0-.07.17.24.24,0,0,0,.07.18.44.44,0,0,0,.15.12l.19.07A.62.62,0,0,0,106.84,115.42Zm3.13-.78.19,0a.64.64,0,0,0,.19-.08.44.44,0,0,0,.15-.12.25.25,0,0,0,.06-.17.28.28,0,0,0-.06-.18.61.61,0,0,0-.15-.12l-.19-.07-.19,0-.18,0-.19.07a.61.61,0,0,0-.15.12.28.28,0,0,0-.06.18.25.25,0,0,0,.06.17.44.44,0,0,0,.15.12.64.64,0,0,0,.19.08Z"/><path class="bf8435b0-b188-4126-adb0-8ed6459cdb54" d="M126.81,62.65a1,1,0,0,1,.42.09,1.1,1.1,0,0,1,.6.6,1,1,0,0,1,.09.43v3h-.83v-3a.25.25,0,0,0-.09-.2.24.24,0,0,0-.19-.08h-8.6a.26.26,0,0,0-.2.08.28.28,0,0,0-.08.2v3h-.83v-3a1,1,0,0,1,.09-.43,1.31,1.31,0,0,1,.23-.36,1.13,1.13,0,0,1,.36-.24,1.07,1.07,0,0,1,.43-.09h2.22v-.83h-.55a1.08,1.08,0,0,1-.44-.09,1,1,0,0,1-.35-.23,1.13,1.13,0,0,1-.24-.36,1,1,0,0,1-.09-.43v-.55h-.83V58.49h.83v-.55a1.07,1.07,0,0,1,.09-.43,1.16,1.16,0,0,1,.59-.59,1.08,1.08,0,0,1,.44-.09h2.21V55.47a.89.89,0,0,1-.3-.31.74.74,0,0,1-.11-.41.88.88,0,0,1,.06-.33.76.76,0,0,1,.18-.26.93.93,0,0,1,.26-.18.88.88,0,0,1,.33-.06.83.83,0,0,1,.32.06,1,1,0,0,1,.27.18,1.2,1.2,0,0,1,.18.26.88.88,0,0,1,.06.33.83.83,0,0,1-.42.72v1.36h2.22a1,1,0,0,1,.43.09,1.21,1.21,0,0,1,.35.24,1.07,1.07,0,0,1,.25.35,1.26,1.26,0,0,1,.08.43v.55h.84v1.67h-.84v.55a1.22,1.22,0,0,1-.08.43,1.13,1.13,0,0,1-.6.59,1,1,0,0,1-.43.09h-.55v.83Zm-7.21-1.94a.26.26,0,0,0,.08.2.28.28,0,0,0,.2.08h5.26a.28.28,0,0,0,.2-.08.3.3,0,0,0,.08-.2V57.94a.3.3,0,0,0-.08-.2.28.28,0,0,0-.2-.08h-5.26a.28.28,0,0,0-.2.08.26.26,0,0,0-.08.2Zm.83-2.22h.83v.84h-.83Zm.83,4.16h2.5v-.83h-2.5Zm2.5-4.16h.83v.84h-.83Z"/><path class="bf8435b0-b188-4126-adb0-8ed6459cdb54" d="M104.27,67.21,100.08,66,96,67.55,99.64,55Zm-4.61-1.89-.27-6.69-2.21,7.63ZM103,66l-2.82-7.44.27,6.7Z"/><path class="bf8435b0-b188-4126-adb0-8ed6459cdb54" d="M109.29,86.34a.23.23,0,0,0-.12,0,.41.41,0,0,0-.11.07.36.36,0,0,0-.07.1.43.43,0,0,0,0,.26.61.61,0,0,0,.07.1.41.41,0,0,0,.11.07l.12,0h.49v1.3h-1v.16a.7.7,0,0,1,0,.25.77.77,0,0,1-.14.21.74.74,0,0,1-.21.13.55.55,0,0,1-.5,0,.74.74,0,0,1-.21-.13.77.77,0,0,1-.14-.21.7.7,0,0,1,0-.25v-.16h-1v-1h-.16a.7.7,0,0,1-.25,0,.77.77,0,0,1-.21-.14.74.74,0,0,1-.13-.21.55.55,0,0,1,0-.5.74.74,0,0,1,.13-.21.77.77,0,0,1,.21-.14.7.7,0,0,1,.25,0h.16V85h1v-.16a.7.7,0,0,1,0-.25.77.77,0,0,1,.14-.21.74.74,0,0,1,.21-.13.55.55,0,0,1,.5,0,.74.74,0,0,1,.21.13.77.77,0,0,1,.14.21.7.7,0,0,1,0,.25V85h1v1.3Zm0,1a.7.7,0,0,1-.25,0,.77.77,0,0,1-.21-.14.74.74,0,0,1-.13-.21.55.55,0,0,1,0-.5.74.74,0,0,1,.13-.21.77.77,0,0,1,.21-.14.7.7,0,0,1,.25,0h.16v-.64h-1v-.49a.43.43,0,0,0,0-.12.41.41,0,0,0-.07-.11l-.1-.07-.13,0-.13,0-.1.07a.41.41,0,0,0-.07.11.23.23,0,0,0,0,.12v.49h-1v1h-.49a.23.23,0,0,0-.12,0,.41.41,0,0,0-.11.07.36.36,0,0,0-.07.1.43.43,0,0,0,0,.26.61.61,0,0,0,.07.1.41.41,0,0,0,.11.07l.12,0h.49v1h1v.49a.23.23,0,0,0,0,.12.41.41,0,0,0,.07.11l.1.07.13,0,.13,0,.1-.07a.41.41,0,0,0,.07-.11.43.43,0,0,0,0-.12V88h1v-.64Z"/><path class="bf8435b0-b188-4126-adb0-8ed6459cdb54" d="M203,89.55a3.09,3.09,0,0,1-.38,1.08,3.32,3.32,0,0,1-.73.85,3.28,3.28,0,0,1-1,.54,3.07,3.07,0,0,1-1.13.17l-.54,3.44,1,.16a.34.34,0,0,1,.29.39.33.33,0,0,1-.14.23.32.32,0,0,1-.25.06l-2.74-.42a.37.37,0,0,1-.23-.14.34.34,0,0,1-.06-.26.32.32,0,0,1,.14-.22.33.33,0,0,1,.25-.07l1,.16.53-3.44a3,3,0,0,1-1-.5,3.2,3.2,0,0,1-1.2-1.84,2.91,2.91,0,0,1,0-1.14,5.25,5.25,0,0,1,.21-.91,6.68,6.68,0,0,1,.37-.87l1-1.84,4.26.66.34,2a4.88,4.88,0,0,1,.09.93A6,6,0,0,1,203,89.55Zm-5.48-.85a2.21,2.21,0,0,0,.05,1,2.49,2.49,0,0,0,.39.84,2.41,2.41,0,0,0,.68.63,2.18,2.18,0,0,0,.91.34,2.38,2.38,0,0,0,1,0,2.33,2.33,0,0,0,.84-.4,2.37,2.37,0,0,0,.63-.67,2.43,2.43,0,0,0,.33-.91,4.41,4.41,0,0,0,0-.81,7.36,7.36,0,0,0-.06-.8c0-.26-.08-.52-.13-.79s-.1-.53-.14-.8l-3.28-.5-.72,1.4a7.19,7.19,0,0,0-.32.76A5.18,5.18,0,0,0,197.51,88.7Z"/><path class="bf8435b0-b188-4126-adb0-8ed6459cdb54" d="M215.86,87.27a.81.81,0,0,1,.12.29.86.86,0,0,1,0,.32.76.76,0,0,1-.13.31L213.35,92a1.17,1.17,0,0,1-.35.35,1.31,1.31,0,0,1-.44.19,1.29,1.29,0,0,1-.48,0,1.19,1.19,0,0,1-.46-.18l-1.74-1.15a2.25,2.25,0,0,1-.41-.34,3.65,3.65,0,0,1-.31-.43,1.85,1.85,0,0,0-.19-.27,1.36,1.36,0,0,0-.25-.22,1.1,1.1,0,0,0-.37-.16l-.39-.09a3.48,3.48,0,0,1-.41-.1,1.34,1.34,0,0,1-.45-.22l-.69-.45a14.59,14.59,0,0,1-1.61-1.23,8.33,8.33,0,0,1-1.36-1.49,4.32,4.32,0,0,1-.37-.57,3.53,3.53,0,0,1-.28-.67,2,2,0,0,1-.09-.68,1.28,1.28,0,0,1,.21-.65l.12-.17a1,1,0,0,1,.37-.35,1.89,1.89,0,0,1,.49-.17,1.87,1.87,0,0,1,.53,0,2.51,2.51,0,0,1,.5.07c.29.06.58.13.86.21l.87.19a.34.34,0,0,1,.07-.24A.37.37,0,0,1,207,83a.38.38,0,0,1,.31.06.36.36,0,0,1,.17.23c0,.1,0,.2.07.3l.49.08.49.06v-.17a.33.33,0,0,1,.05-.16.39.39,0,0,1,.27-.18.41.41,0,0,1,.48.3c0,.1.05.2.07.3l.48,0,.48,0a.43.43,0,0,1,.07-.25.44.44,0,0,1,.26-.18.37.37,0,0,1,.32.06.36.36,0,0,1,.14.16l.06.2.26,0h.28a2.49,2.49,0,0,1,.46,0,1.59,1.59,0,0,1,.42.19,1.38,1.38,0,0,1,.45.45,2,2,0,0,1,.23.52,3.78,3.78,0,0,1,.13.56,3.15,3.15,0,0,0,.11.55,1.87,1.87,0,0,0,.2.51,1.18,1.18,0,0,0,.4.4.38.38,0,0,0,.31.06l.36-.11a1.59,1.59,0,0,1,.39-.09.72.72,0,0,1,.44.13A1,1,0,0,1,215.86,87.27Zm-12.25-3.16,9.73,6.4,1.83-2.78-.1,0-.36.11a1.35,1.35,0,0,1-.35.06,1.06,1.06,0,0,1-.35,0,1,1,0,0,1-.34-.16,2.17,2.17,0,0,1-.54-.49,2.23,2.23,0,0,1-.3-.57,4.42,4.42,0,0,1-.17-.65c0-.22-.09-.45-.14-.69h0a.79.79,0,0,0-.13-.33.72.72,0,0,0-.24-.25.61.61,0,0,0-.39-.11l-.4,0,.16.8a.42.42,0,0,1-.06.31.44.44,0,0,1-.26.18.41.41,0,0,1-.31-.06.37.37,0,0,1-.18-.26l-.2-1-.48,0-.48,0,.12.6a.37.37,0,0,1,0,.31.42.42,0,0,1-.27.18.42.42,0,0,1-.31-.06.44.44,0,0,1-.18-.26l-.17-.85-.49-.06-.49-.07c0,.06,0,.13,0,.21a2.21,2.21,0,0,1,.05.25,1.94,1.94,0,0,1,0,.24.52.52,0,0,1-.06.2.37.37,0,0,1-.27.18.43.43,0,0,1-.31-.06.39.39,0,0,1-.17-.26l-.2-.92c-.35-.06-.7-.14-1-.23l-1.05-.24-.23,0h-.3a1.18,1.18,0,0,0-.28,0,.34.34,0,0,0-.19.13Zm8.47,7.56a.41.41,0,0,0,.31.06.37.37,0,0,0,.26-.18l.23-.34-9.09-6a5.44,5.44,0,0,0,.67,1,10.68,10.68,0,0,0,.89.89,12.37,12.37,0,0,0,1,.79c.34.25.67.48,1,.69a3.24,3.24,0,0,0,.4.22,1.48,1.48,0,0,0,.45.12,3.62,3.62,0,0,1,.52.12,1.8,1.8,0,0,1,.48.24,1.56,1.56,0,0,1,.38.33,2.78,2.78,0,0,1,.26.34c.08.11.15.22.23.32a1.08,1.08,0,0,0,.29.27Z"/><path class="bf8435b0-b188-4126-adb0-8ed6459cdb54" d="M95.44,72.51l.92-.91a1.31,1.31,0,0,1-.47-.24,1.41,1.41,0,0,1-.37-.36,1.6,1.6,0,0,1-.32-1,1.57,1.57,0,0,1,.13-.65,1.71,1.71,0,0,1,.89-.89,1.7,1.7,0,0,1,.64-.13,1.75,1.75,0,0,1,.65.13,1.71,1.71,0,0,1,.89.89,1.75,1.75,0,0,1,.13.65h3.33a.87.87,0,0,1,.32.06.68.68,0,0,1,.26.18.76.76,0,0,1,.18.26.72.72,0,0,1,.07.33v2.49a1.26,1.26,0,0,1-.76,1.15l.52.52h1.9a1.13,1.13,0,0,1,.49.1,1.15,1.15,0,0,1,.66.66,1.13,1.13,0,0,1,.1.49,1.31,1.31,0,0,1-.36.88,1.56,1.56,0,0,1-.4.27,1.3,1.3,0,0,1-.49.09h-2.91a.4.4,0,0,1-.29-.12l-1-.95-.83.83v1.49a1.13,1.13,0,0,1-.1.49,1.15,1.15,0,0,1-.66.66,1.13,1.13,0,0,1-.49.1,1.19,1.19,0,0,1-.49-.1,1.16,1.16,0,0,1-.39-.26,1.56,1.56,0,0,1-.27-.4,1.3,1.3,0,0,1-.1-.49V76.26A.39.39,0,0,1,97,76l1.37-1.37-.66-.65-1,.94a.37.37,0,0,1-.29.13H94.37a1.13,1.13,0,0,1-.49-.1,1.18,1.18,0,0,1-.4-.27,1.26,1.26,0,0,1,0-1.76,1.18,1.18,0,0,1,.4-.27,1.13,1.13,0,0,1,.49-.1Zm.83,1.67,1.13-1.13a.42.42,0,0,1,.3-.12.4.4,0,0,1,.29.12l1.25,1.25a.41.41,0,0,1,0,.58L97.7,76.43v2.32a.42.42,0,0,0,.12.3.41.41,0,0,0,.58,0,.39.39,0,0,0,.13-.3V77.09a.4.4,0,0,1,.12-.29l1.25-1.25a.39.39,0,0,1,.58,0l1.14,1.12h2.73a.42.42,0,0,0,.3-.12.4.4,0,0,0,.12-.29.41.41,0,0,0-.42-.42h-2.08a.4.4,0,0,1-.29-.12l-1.66-1.67a.37.37,0,0,1-.13-.29V72.51h-.83a.4.4,0,0,1-.29-.12.41.41,0,0,1-.13-.29.43.43,0,0,1,.13-.3.4.4,0,0,1,.29-.12h1.25a.35.35,0,0,1,.33.15.9.9,0,0,1,.1.39,2.86,2.86,0,0,1,0,.5,4.25,4.25,0,0,0,0,.5.86.86,0,0,0,.1.39.35.35,0,0,0,.33.15.4.4,0,0,0,.29-.12.39.39,0,0,0,.13-.3V70.85H98.29l-2.38,2.37a.52.52,0,0,1-.29.13,2.6,2.6,0,0,1-.4,0l-.44,0a1.87,1.87,0,0,0-.41,0,.68.68,0,0,0-.3.12.35.35,0,0,0-.12.3.4.4,0,0,0,.12.29.39.39,0,0,0,.3.13Zm.25-4.93a.83.83,0,0,0-.26.19.81.81,0,0,0-.17.28,1,1,0,0,0-.06.35.73.73,0,0,0,.07.3.92.92,0,0,0,.19.25,1,1,0,0,0,.27.17.8.8,0,0,0,.3.06.72.72,0,0,0,.33-.07.88.88,0,0,0,.44-.44.79.79,0,0,0,0-.65.88.88,0,0,0-.44-.44.88.88,0,0,0-.33-.07A.94.94,0,0,0,96.52,69.25Z"/><path class="bf8435b0-b188-4126-adb0-8ed6459cdb54" d="M140,84.81h-5.83a5.63,5.63,0,0,1,.21-1.55,5.93,5.93,0,0,1,.59-1.39A5.82,5.82,0,0,1,137,79.78a5.93,5.93,0,0,1,1.39-.59A5.63,5.63,0,0,1,140,79Zm-.21.83-4.06,4.06a5.74,5.74,0,0,1-1.16-1.88,6.23,6.23,0,0,1-.4-2.18Zm-.62-5.76a5,5,0,0,0-1.48.5,5.08,5.08,0,0,0-2.12,2.12A5,5,0,0,0,135,84h4.1ZM135,86.47a6,6,0,0,0,.27,1,4.86,4.86,0,0,0,.47.94l2-2Zm5.76-6.65c.25,0,.5,0,.74,0a5.51,5.51,0,0,1,.71.07c.23,0,.47.09.7.15a5.28,5.28,0,0,1,.7.24,6.33,6.33,0,0,1,1.57,1,6.1,6.1,0,0,1,1.2,1.34,6.26,6.26,0,0,1,.77,1.63,6.12,6.12,0,0,1,.27,1.82,6.52,6.52,0,0,1-.22,1.66,6.36,6.36,0,0,1-.63,1.49,6.43,6.43,0,0,1-2.24,2.24,6.36,6.36,0,0,1-1.49.63,6.52,6.52,0,0,1-1.66.22,6.22,6.22,0,0,1-2.4-.47,6.31,6.31,0,0,1-2-1.36l-.29-.29,4.29-4.3Zm.42,11.65a5.46,5.46,0,0,0,5.21-4,5.54,5.54,0,0,0,0-2.8,5.82,5.82,0,0,0-.49-1.24,5.74,5.74,0,0,0-.78-1.07,5.12,5.12,0,0,0-1-.85,4.89,4.89,0,0,0-1.19-.59,5.49,5.49,0,0,0-1.35-.28v5.57l-3.93,3.94a5.32,5.32,0,0,0,1.64,1A5.44,5.44,0,0,0,141.2,91.47Z"/><path class="bf8435b0-b188-4126-adb0-8ed6459cdb54" d="M146.72,92a6,6,0,0,1,1.66.22,6.36,6.36,0,0,1,1.49.63,6,6,0,0,1,2.24,2.24,6.36,6.36,0,0,1,.63,1.49,6.37,6.37,0,0,1,0,3.32,6.36,6.36,0,0,1-.63,1.49,6,6,0,0,1-2.24,2.24,6.36,6.36,0,0,1-1.49.63,6.37,6.37,0,0,1-3.32,0,6.36,6.36,0,0,1-1.49-.63,6,6,0,0,1-2.24-2.24,6.36,6.36,0,0,1-.63-1.49,6.37,6.37,0,0,1,0-3.32,6.36,6.36,0,0,1,.63-1.49,6,6,0,0,1,2.24-2.24,6.36,6.36,0,0,1,1.49-.63A6,6,0,0,1,146.72,92Zm-2.93,5.83a5.14,5.14,0,0,0-.39-1.6,5.06,5.06,0,0,0-.87-1.4,5.08,5.08,0,0,0-.83,1.4,5.75,5.75,0,0,0-.38,1.6Zm-1.26,3.82a5.16,5.16,0,0,0,.87-1.39,5.28,5.28,0,0,0,.39-1.6h-2.47a5.77,5.77,0,0,0,.38,1.59A5.08,5.08,0,0,0,142.53,101.67Zm3.77-8.8a5.05,5.05,0,0,0-1.71.42,5.46,5.46,0,0,0-1.49.95,5.8,5.8,0,0,1,1.07,1.67,6.11,6.11,0,0,1,.46,1.94h1.67Zm-3.2,9.41a5.46,5.46,0,0,0,1.49,1,5.31,5.31,0,0,0,1.71.43v-5h-1.67a6.12,6.12,0,0,1-.46,1.93A5.8,5.8,0,0,1,143.1,102.28Zm7.23-8a5.27,5.27,0,0,0-1.48-.95,5.11,5.11,0,0,0-1.71-.42v5h1.67a6.11,6.11,0,0,1,.46-1.94A6,6,0,0,1,150.33,94.24Zm-3.19,9.42a5.38,5.38,0,0,0,1.71-.43,5.27,5.27,0,0,0,1.48-1,6,6,0,0,1-1.06-1.67,6.12,6.12,0,0,1-.46-1.93h-1.67Zm5-5.81a5.41,5.41,0,0,0-.37-1.6,5.08,5.08,0,0,0-.83-1.4,5.22,5.22,0,0,0-1.26,3Zm-2.46.83a5,5,0,0,0,.39,1.6,4.92,4.92,0,0,0,.87,1.39,5.08,5.08,0,0,0,.83-1.4,5.42,5.42,0,0,0,.37-1.59Z"/><path class="bf8435b0-b188-4126-adb0-8ed6459cdb54" d="M175.3,92.18a1.63,1.63,0,0,1,.6-.27,1.74,1.74,0,0,1,.64,0,1.66,1.66,0,0,1,.6.21,1.87,1.87,0,0,1,.49.44,1.82,1.82,0,0,1,.28.6,2,2,0,0,1,0,.64,1.51,1.51,0,0,1-.22.6,1.55,1.55,0,0,1-.43.49l-2.35,1.73.95,5.5-2.34,1.73-1.62-5-1.34,1,.16.91-2.35,1.73-.81-2.5-2.15-1.52,2.34-1.73.83.43,1.34-1-4.3-3L168,91.37l5,2.54Zm1.48,2A.87.87,0,0,0,177,94a1.12,1.12,0,0,0,.1-.31.81.81,0,0,0,0-.31A.69.69,0,0,0,177,93a.78.78,0,0,0-.25-.23.76.76,0,0,0-.3-.1.81.81,0,0,0-.31,0,.79.79,0,0,0-.31.14l-2.75,2q-1.26-.61-2.49-1.26l-2.49-1.28-1,.74,2.14,1.52c.72.51,1.43,1,2.16,1.51l-2.69,2-.83-.42-1,.74.71.5c.24.18.48.34.73.51.08.28.17.56.26.83s.19.56.28.83l1-.73-.16-.92,2.69-2c.26.84.53,1.68.8,2.51s.54,1.66.82,2.5l1-.74c-.16-.92-.32-1.84-.49-2.75s-.32-1.82-.47-2.75Z"/><path class="bf8435b0-b188-4126-adb0-8ed6459cdb54" d="M214,54.06V67.34H197.63V54.06Zm-15.33,1v1H213v-1ZM213,66.32v-9.2H198.65v9.2Zm-9.46-6.55a2.15,2.15,0,0,0-.77.14,1.54,1.54,0,0,0-.59.38,1.85,1.85,0,0,0-.38.62,2.75,2.75,0,0,0,0,1.64,1.55,1.55,0,0,0,.36.61,1.56,1.56,0,0,0,.58.39,2.13,2.13,0,0,0,.78.14,2.67,2.67,0,0,0,.56-.06,2.28,2.28,0,0,0,.46-.14l.12.49a2.1,2.1,0,0,1-.5.16,4.3,4.3,0,0,1-.77.06,2.83,2.83,0,0,1-.93-.15,2.27,2.27,0,0,1-.76-.47,2.24,2.24,0,0,1-.5-.76,2.8,2.8,0,0,1-.18-1,2.66,2.66,0,0,1,.19-1,2.38,2.38,0,0,1,.51-.8,2.34,2.34,0,0,1,.79-.51,2.8,2.8,0,0,1,1-.18,2.9,2.9,0,0,1,.73.07,2.32,2.32,0,0,1,.41.14l-.15.5a3,3,0,0,0-.42-.14A2.26,2.26,0,0,0,203.5,59.77Zm2.3.42h1v1h-1Zm0,2h1v1h-1Zm2.94-3.06,2,5.11h-.72L208,59.17Z"/><path class="bf8435b0-b188-4126-adb0-8ed6459cdb54" d="M207.65,100h6.29V115.7H197.17V99.22l10.48,10.49Zm-9.43,14.68H211.1l-12.88-12.89Zm2.09-7,4.94,4.94h-4.94Zm1.05,2.54v1.35h1.35Zm10.18,3.45,1.05,1.05h.3V101H208.7v1h2.1v1h-2.1v1h2.1v1h-2.1v1.05h3.15v1H208.7v1h2.1v1h-2.1v1h2.1v1h-1.35l1,1h1.36v1Z"/><path class="bf8435b0-b188-4126-adb0-8ed6459cdb54" d="M93.56,42.25a2.42,2.42,0,0,1,.23-1,2.67,2.67,0,0,1,.56-.77,2.57,2.57,0,0,1,.82-.51,2.46,2.46,0,0,1,1-.16,2.53,2.53,0,0,1,2.24,1.61,2.46,2.46,0,0,1,.16,1l0,.66a5.61,5.61,0,0,1,.89.72,5.11,5.11,0,0,1,.71.9l.07-1.81a.41.41,0,0,1,.13-.29.43.43,0,0,1,.3-.11.41.41,0,0,1,.29.13.43.43,0,0,1,.11.3l-.33,9.15a.42.42,0,0,1-.14.29.39.39,0,0,1-.29.11.41.41,0,0,1-.29-.13.39.39,0,0,1-.11-.3l.06-1.81a4.83,4.83,0,0,1-.84.91,5.16,5.16,0,0,1-1,.66,5.23,5.23,0,0,1-1.15.4,5.11,5.11,0,0,1-1.24.1l-2.49-.09ZM100,47.49a3.68,3.68,0,0,0-.11-1.11,3.83,3.83,0,0,0-.38-1,4.11,4.11,0,0,0-2.42-2A3.62,3.62,0,0,0,96,43.18l-1.67-.06-.3,8.31,1.66.06a3.71,3.71,0,0,0,1.11-.11,4.15,4.15,0,0,0,1.88-1,4.12,4.12,0,0,0,.68-.82,4,4,0,0,0,.45-1A3.62,3.62,0,0,0,100,47.49Zm-2.31-5.08a1.64,1.64,0,0,0-.11-.66,1.7,1.7,0,0,0-.34-.54,1.69,1.69,0,0,0-1.16-.53,1.62,1.62,0,0,0-.65.11,1.7,1.7,0,0,0-.54.34,1.55,1.55,0,0,0-.37.51,1.59,1.59,0,0,0-.16.64c.28,0,.57,0,.85,0a10,10,0,0,1,1.66.15,4.92,4.92,0,0,1,.81.23Z"/><path class="bf8435b0-b188-4126-adb0-8ed6459cdb54" d="M161.66,62.89v2.9a2.08,2.08,0,0,1-.12.71,2.21,2.21,0,0,1-.35.62,2,2,0,0,1-.54.45,1.81,1.81,0,0,1-.68.26,2.45,2.45,0,0,1-.27.92,3.09,3.09,0,0,1-.54.76,2.8,2.8,0,0,1-.75.55,2.54,2.54,0,0,1-.91.28v.87H160v1.66h.83v.83h-7.49v-.83h.84V71.21h2.49v-.87a2.61,2.61,0,0,1-.91-.28,3.15,3.15,0,0,1-.75-.55,3.09,3.09,0,0,1-.54-.76,2.88,2.88,0,0,1-.27-.92,1.77,1.77,0,0,1-.67-.26,2,2,0,0,1-.54-.45,2,2,0,0,1-.35-.62,1.87,1.87,0,0,1-.13-.71v-2.9h1.67v-.84H160v.84Zm-8.32,2.9a1.21,1.21,0,0,0,.06.38,1.54,1.54,0,0,0,.17.34,1.66,1.66,0,0,0,.26.27,1.19,1.19,0,0,0,.35.19V63.72h-.84Zm3.75,3.75a2,2,0,0,0,.8-.16A2.06,2.06,0,0,0,159,68.27a2,2,0,0,0,.17-.81V62.89H155v4.57a2,2,0,0,0,.16.81,2.06,2.06,0,0,0,1.11,1.11A2,2,0,0,0,157.09,69.54ZM155,72v.83h4.16V72Zm5.82-8.32H160V67a1.28,1.28,0,0,0,.34-.19,1.33,1.33,0,0,0,.26-.27,1.25,1.25,0,0,0,.23-.72Z"/><path class="bf8435b0-b188-4126-adb0-8ed6459cdb54" d="M211.45,70.47a1.51,1.51,0,0,1,.56.11,1.4,1.4,0,0,1,.44.31,1.34,1.34,0,0,1,.31.45,1.42,1.42,0,0,1,.11.55v8.48a1.46,1.46,0,0,1-.11.55,1.57,1.57,0,0,1-.31.45,1.23,1.23,0,0,1-.44.3,1.51,1.51,0,0,1-.56.11H199.2a1.46,1.46,0,0,1-.55-.11,1.38,1.38,0,0,1-.75-.75,1.46,1.46,0,0,1-.11-.55V71.89a1.42,1.42,0,0,1,.11-.55,1.19,1.19,0,0,1,.3-.45,1.57,1.57,0,0,1,.45-.31,1.46,1.46,0,0,1,.55-.11h3.3v-.94a1,1,0,0,1,.08-.37.72.72,0,0,1,.2-.29.81.81,0,0,1,.3-.21.86.86,0,0,1,.36-.07h3.77a.87.87,0,0,1,.37.07,1,1,0,0,1,.3.21.84.84,0,0,1,.2.29,1,1,0,0,1,.08.37v.94Zm-12.72,9.9a.45.45,0,0,0,.14.33.49.49,0,0,0,.33.14h1.42V71.42H199.2a.45.45,0,0,0-.33.14.45.45,0,0,0-.14.33Zm2.83-9v9.42h7.54V71.42Zm1.88-1h3.77v-.94h-3.77Zm8.49,1.42a.48.48,0,0,0-.48-.47H210v9.42h1.41a.49.49,0,0,0,.34-.14.45.45,0,0,0,.14-.33Z"/><path class="bf8435b0-b188-4126-adb0-8ed6459cdb54" d="M94.89,98.55l.29.23a9.79,9.79,0,0,1,1.4,1.41,7.43,7.43,0,0,1,1,1.55,7.59,7.59,0,0,1,.59,1.74,10.93,10.93,0,0,1,.25,2l1.85,3-1.11,1.35-1-.84c-.1.62-.21,1.23-.34,1.83l-3.42.33c-.23-.58-.46-1.15-.67-1.74l-.84,1-1.35-1.12L92.75,106a12.61,12.61,0,0,1-.13-2,8.41,8.41,0,0,1,.25-1.82,7.91,7.91,0,0,1,.67-1.7,9.94,9.94,0,0,1,1.11-1.65Zm-1.5,10c-.07-.2-.13-.4-.2-.6s-.11-.4-.17-.6L92.37,109l.37.3Zm4.2-3.74a8.74,8.74,0,0,0-.27-1.52,7,7,0,0,0-.5-1.35,6.84,6.84,0,0,0-.77-1.21A8.48,8.48,0,0,0,95,99.6a9.52,9.52,0,0,0-.84,1.3,7.11,7.11,0,0,0-.76,2.76,9.93,9.93,0,0,0,0,1.54,11.42,11.42,0,0,0,.25,1.57,14.66,14.66,0,0,0,.44,1.53l3.42-.33a14.25,14.25,0,0,0,.14-1.58A10.67,10.67,0,0,0,97.59,104.8Zm-1,1a1.44,1.44,0,0,1-.45.37,1.43,1.43,0,0,1-1.12.11,1.39,1.39,0,0,1-.52-.28,1.37,1.37,0,0,1-.37-.46A1.47,1.47,0,0,1,94,105a1.51,1.51,0,0,1,.06-.56,1.32,1.32,0,0,1,.28-.52,1.4,1.4,0,0,1,.46-.38,1.46,1.46,0,0,1,.55-.16,1.5,1.5,0,0,1,1.08.34,1.47,1.47,0,0,1,.38.45,1.58,1.58,0,0,1,.16.55,1.51,1.51,0,0,1-.34,1.09Zm.52,4.28.12-.67.12-.67-3,.29.24.64c.08.21.17.42.25.64Zm-2.24-5.7a.94.94,0,0,0-.14.26.67.67,0,0,0,0,.28.57.57,0,0,0,.08.28.76.76,0,0,0,.18.23.69.69,0,0,0,.55.16.7.7,0,0,0,.27-.08.66.66,0,0,0,.23-.18.73.73,0,0,0,.14-.26.72.72,0,0,0,0-.29.92.92,0,0,0-.08-.27.83.83,0,0,0-.19-.23.73.73,0,0,0-.26-.14.67.67,0,0,0-.28,0,.9.9,0,0,0-.28.08A1,1,0,0,0,94.91,104.36Zm.22,7.91a1.55,1.55,0,0,1,1-.54,1.85,1.85,0,0,1,.57.06,1.39,1.39,0,0,1,.52.28,1.37,1.37,0,0,1,.37.46,1.3,1.3,0,0,1,.16.55,1.51,1.51,0,0,1-.05.56,1.46,1.46,0,0,1-.28.52l-1,1.15-1.15-1a1.5,1.5,0,0,1-.37-.46,1.47,1.47,0,0,1-.16-.54,1.39,1.39,0,0,1,.06-.57A1.36,1.36,0,0,1,95.13,112.27Zm1.72,1.42a.76.76,0,0,0,.15-.26.88.88,0,0,0,0-.28.69.69,0,0,0-.08-.28.76.76,0,0,0-.18-.23.72.72,0,0,0-.55-.16.68.68,0,0,0-.27.07.71.71,0,0,0-.23.19.6.6,0,0,0-.14.26.72.72,0,0,0,0,.29.92.92,0,0,0,.08.27.69.69,0,0,0,.19.23l.57.47Zm1.53-6.86-.06.63c0,.2,0,.41-.07.62l.78.65.3-.37Z"/><path class="bf8435b0-b188-4126-adb0-8ed6459cdb54" d="M112.2,38.41a.42.42,0,0,1,0,.31l-1.07,2.42a.47.47,0,0,1-.23.23.47.47,0,0,1-.35,0l-1.86,4.22.42-.17a.4.4,0,0,1,.32,0,.41.41,0,0,1,.22.23l.3.78a1.17,1.17,0,0,1,0,.95,1.05,1.05,0,0,1-.27.39,1.17,1.17,0,0,1-.42.27.45.45,0,0,0-.23.22.44.44,0,0,0,0,.32,2.83,2.83,0,0,1,.2,1.14,2.72,2.72,0,0,1-.25,1.09,3,3,0,0,1-.63.92,3.09,3.09,0,0,1-1,.62,3.72,3.72,0,0,1-1.46.25,3.82,3.82,0,0,1-1.4-.32,4,4,0,0,1-1.18-.82,3.65,3.65,0,0,1-.81-1.25,3,3,0,0,1,0-2.23,3.24,3.24,0,0,1,.64-.92,2.92,2.92,0,0,1,1-.62.41.41,0,0,0,.23-.22.44.44,0,0,0,0-.32,1.56,1.56,0,0,1,0-1.27,1.56,1.56,0,0,1,.36-.53,1.61,1.61,0,0,1,.56-.35,1.57,1.57,0,0,1,.8-.1,1.61,1.61,0,0,1,.75.29l1.55-3.51a.41.41,0,0,1-.24-.24.4.4,0,0,1,0-.32l1.07-2.42a.37.37,0,0,1,.22-.22.4.4,0,0,1,.32,0l2.15,1A.4.4,0,0,1,112.2,38.41ZM109,46.33l-1,.38a.44.44,0,0,1-.32,0l-1.34-.6a.4.4,0,0,1-.23-.23.42.42,0,0,1,0-.31l.37-.84a.8.8,0,0,0-.42-.24.79.79,0,0,0-.48,0,1.12,1.12,0,0,0-.28.18.87.87,0,0,0-.18.26.71.71,0,0,0-.07.32.74.74,0,0,0,0,.32,1.21,1.21,0,0,1,.09.49,1.28,1.28,0,0,1-.38.86,1.51,1.51,0,0,1-.42.27,2,2,0,0,0-.7.44,2.42,2.42,0,0,0-.45.66,2.07,2.07,0,0,0-.18.78,2.1,2.1,0,0,0,.14.81,2.76,2.76,0,0,0,.63,1,2.84,2.84,0,0,0,.91.64,3,3,0,0,0,1.09.25,2.86,2.86,0,0,0,1.14-.2,1.9,1.9,0,0,0,.69-.44,2,2,0,0,0,.46-.66,2.47,2.47,0,0,0,.18-.78,2.1,2.1,0,0,0-.14-.81,1.21,1.21,0,0,1-.09-.49,1.28,1.28,0,0,1,.38-.86,1.51,1.51,0,0,1,.42-.27.38.38,0,0,0,.23-.22.37.37,0,0,0,0-.31Zm-4.39,3,.33-.76,1.89.83-.34.76Zm.71-1.62.34-.76,1.88.84-.33.75Zm2.35-2,2.1-4.76-.59-.26-2.1,4.76Zm2.84-5.34.73-1.66-1.39-.62-.74,1.67Z"/><path class="bf8435b0-b188-4126-adb0-8ed6459cdb54" d="M111.37,68.66a1.12,1.12,0,0,1,.48.1,1.27,1.27,0,0,1,.39.26,1.33,1.33,0,0,1,.26.39,1.24,1.24,0,0,1,.1.47v2a1.29,1.29,0,0,1-.1.48,1.33,1.33,0,0,1-.26.39,1.27,1.27,0,0,1-.39.26,1.29,1.29,0,0,1-.48.1h-.24v.73a.72.72,0,0,1-.06.29.79.79,0,0,1-.39.39.68.68,0,0,1-.29.06h-3.92a.67.67,0,0,1-.28-.06.78.78,0,0,1-.24-.16.76.76,0,0,1-.15-.23.72.72,0,0,1-.06-.29V68.52a.95.95,0,0,1-.49-.84,1,1,0,0,1,.08-.38,1.1,1.1,0,0,1,.2-.31,1.06,1.06,0,0,1,.31-.21,1,1,0,0,1,.38-.08h4.42a1,1,0,0,1,.38.08,1,1,0,0,1,.52.52,1,1,0,0,1,.08.38.75.75,0,0,1,0,.26,1.09,1.09,0,0,1-.1.25.8.8,0,0,1-.15.21,1.06,1.06,0,0,1-.2.17v.09Zm-5.14-1.47a.41.41,0,0,0-.19,0,.44.44,0,0,0-.16.1.54.54,0,0,0-.1.16.41.41,0,0,0,0,.19.49.49,0,0,0,.09.28.55.55,0,0,0,.24.18l.16.06v2.17a.21.21,0,0,0,.07.17.25.25,0,0,0,.17.08.25.25,0,0,0,.18-.08.21.21,0,0,0,.07-.17V68.9a.67.67,0,0,1,.06-.28.63.63,0,0,1,.39-.39.67.67,0,0,1,.28-.06.68.68,0,0,1,.29.06.61.61,0,0,1,.23.15.78.78,0,0,1,.16.24.67.67,0,0,1,.06.28v1a.21.21,0,0,0,.07.17.25.25,0,0,0,.17.08.25.25,0,0,0,.18-.08.24.24,0,0,0,.07-.17v-1a.67.67,0,0,1,.06-.28.63.63,0,0,1,.39-.39.67.67,0,0,1,.28-.06h1.42A.45.45,0,0,0,111,68a.52.52,0,0,0,.09-.29.58.58,0,0,0,0-.19.57.57,0,0,0-.11-.16.4.4,0,0,0-.15-.1.41.41,0,0,0-.19,0Zm4.16,5.88a.28.28,0,0,0,.25-.25V68.66h-1.23a.24.24,0,0,0-.24.24v1a.68.68,0,0,1-.06.29.79.79,0,0,1-.39.39.68.68,0,0,1-.29.06.67.67,0,0,1-.28-.06.78.78,0,0,1-.24-.16.61.61,0,0,1-.15-.23.68.68,0,0,1-.06-.29v-1a.28.28,0,0,0-.07-.17.24.24,0,0,0-.18-.07.24.24,0,0,0-.24.24v1.47a.68.68,0,0,1-.06.29.79.79,0,0,1-.39.39.68.68,0,0,1-.29.06,1,1,0,0,1-.24,0v1.75a.21.21,0,0,0,.07.17.25.25,0,0,0,.17.08h.74V71.35a.21.21,0,0,1,.07-.17.23.23,0,0,1,.17-.07.24.24,0,0,1,.25.24v1.72h1.47V70.86a.22.22,0,0,1,.07-.17.23.23,0,0,1,.17-.07.24.24,0,0,1,.18.07.26.26,0,0,1,.07.17v2.21Zm.25.73v-.29l-.12,0-.13,0h-3.92l-.12,0-.12,0v.29a.22.22,0,0,0,.07.17.25.25,0,0,0,.17.08h3.92a.21.21,0,0,0,.17-.08A.23.23,0,0,0,110.64,73.8Zm1.47-2v-2a.67.67,0,0,0-.06-.28.78.78,0,0,0-.16-.24.61.61,0,0,0-.23-.15.72.72,0,0,0-.29-.06h-.24v3.43h.24a.72.72,0,0,0,.29-.06.79.79,0,0,0,.39-.39A.72.72,0,0,0,112.11,71.84Z"/><path class="bf8435b0-b188-4126-adb0-8ed6459cdb54" d="M180,85.08h1.37v.84h-9.82a7.53,7.53,0,0,0-.1.83c0,.28,0,.55,0,.83s0,.55,0,.83,0,.55,0,.84H168.9V88c0-.35,0-.7,0-1s.06-.69.11-1h-1v-.84h1.12a15.38,15.38,0,0,1,1-3.06,14.59,14.59,0,0,1,1.63-2.77,4.53,4.53,0,0,1-1.74-.4,5,5,0,0,1-1.45-1l-.29-.3.3-.28a4.76,4.76,0,0,1,1.48-1,4.57,4.57,0,0,1,1.74-.33,4.39,4.39,0,0,1,1.86.38,5,5,0,0,1,1.55,1.09,3.85,3.85,0,0,1,1,.15,4.27,4.27,0,0,1,.87.39,3.84,3.84,0,0,1,.74.59,3.53,3.53,0,0,1,.57.75,3.71,3.71,0,0,1,.36.87,3.56,3.56,0,0,1,.13,1v.41h-.41a3.65,3.65,0,0,1-1.61-.36,3.9,3.9,0,0,1-1.29-1,4.71,4.71,0,0,1-1.24,1.47,4.56,4.56,0,0,1-1.75.82,12,12,0,0,0-.5,1.3,11.88,11.88,0,0,0-.37,1.33h1.88a3.61,3.61,0,0,1,.45-1,3.24,3.24,0,0,1,.73-.79,3.49,3.49,0,0,1,.95-.52,3.26,3.26,0,0,1,1.08-.18,3.32,3.32,0,0,1,1.09.18,3.59,3.59,0,0,1,.94.52,3.28,3.28,0,0,1,.74.79A3.32,3.32,0,0,1,180,85.08Zm-10.49-7.54a4,4,0,0,0,1.15.65,3.65,3.65,0,0,0,1.31.23,3.84,3.84,0,0,0,1.22-.19,3.7,3.7,0,0,0,1.09-.58,4,4,0,0,0-1.15-.65,3.83,3.83,0,0,0-2.53,0A3.78,3.78,0,0,0,169.52,77.54Zm2.07,5H171v-.31a14.13,14.13,0,0,0-.58,1.51,13,13,0,0,0-.38,1.49,13.39,13.39,0,0,0-.21,1.53c0,.52-.06,1.06-.06,1.61h.83c0-.52,0-1,.06-1.52a14,14,0,0,1,.17-1.45,14.49,14.49,0,0,1,.32-1.42Q171.31,83.32,171.59,82.58Zm3.7-4.13a3.36,3.36,0,0,0-1.25.33,3.76,3.76,0,0,0-1,.71,3.67,3.67,0,0,0-.76,1,3.49,3.49,0,0,0-.4,1.23,3.65,3.65,0,0,0,1-.24,3.93,3.93,0,0,0,.9-.5,3.66,3.66,0,0,0,.73-.74,4.24,4.24,0,0,0,.53-.93,3.66,3.66,0,0,0,.15-.43A3.58,3.58,0,0,0,175.29,78.45Zm4,8.3a.4.4,0,0,1,.29.12.41.41,0,0,1,.12.3.41.41,0,0,1-.41.41h-5a.42.42,0,0,1-.3-.12.4.4,0,0,1-.12-.29.41.41,0,0,1,.12-.3.42.42,0,0,1,.3-.12Zm-4.84-1.67h4.68a2.41,2.41,0,0,0-.36-.67,2.46,2.46,0,0,0-.54-.53,2.41,2.41,0,0,0-.68-.34,2.37,2.37,0,0,0-.76-.12,2.42,2.42,0,0,0-.76.12,2.35,2.35,0,0,0-.67.34,2.09,2.09,0,0,0-.54.53A2.44,2.44,0,0,0,174.46,85.08Zm4,3.33a.37.37,0,0,1,.29.13.41.41,0,0,1,0,.58.41.41,0,0,1-.29.13h-3.33a.41.41,0,0,1-.29-.13.42.42,0,0,1,.29-.71Zm-2.36-10a3.85,3.85,0,0,1-.17.86,3.08,3.08,0,0,0,.88.95,2.87,2.87,0,0,0,1.2.48,3.26,3.26,0,0,0-.23-.75,3.11,3.11,0,0,0-.41-.65,3.17,3.17,0,0,0-.57-.53A2.9,2.9,0,0,0,176.11,78.4Z"/><path class="bf8435b0-b188-4126-adb0-8ed6459cdb54" d="M95.19,89.67a.14.14,0,0,1,.12.06.25.25,0,0,1,.06.16v2.46a1,1,0,0,1-.06.35,1.06,1.06,0,0,1-.15.28.63.63,0,0,1-.21.19.56.56,0,0,1-.27.08V96.6a.3.3,0,0,1-.05.16.15.15,0,0,1-.24,0,.3.3,0,0,1,0-.16V93.25a.53.53,0,0,1-.27-.08.63.63,0,0,1-.21-.19,1.06,1.06,0,0,1-.15-.28,1,1,0,0,1,0-.35V89.89a.24.24,0,0,1,0-.16.14.14,0,0,1,.12-.06.17.17,0,0,1,.12.06.3.3,0,0,1,0,.16v2.46a1.1,1.1,0,0,0,0,.18.64.64,0,0,0,.08.14.24.24,0,0,0,.11.09.2.2,0,0,0,.13,0V89.89a.3.3,0,0,1,0-.16.15.15,0,0,1,.24,0,.3.3,0,0,1,.05.16V92.8a.2.2,0,0,0,.13,0,.24.24,0,0,0,.11-.09.64.64,0,0,0,.08-.14,1.1,1.1,0,0,0,0-.18V89.89a.3.3,0,0,1,0-.16A.17.17,0,0,1,95.19,89.67Zm1.88,0V96.6a.24.24,0,0,1,0,.16.14.14,0,0,1-.12.06.17.17,0,0,1-.12-.06.3.3,0,0,1,0-.16v-2h-.44a.87.87,0,0,1-.22,0,.5.5,0,0,1-.19-.1.56.56,0,0,1-.12-.2.77.77,0,0,1-.05-.32V91.23a2,2,0,0,1,.09-.61,1.75,1.75,0,0,1,.26-.49,1.23,1.23,0,0,1,.38-.34.93.93,0,0,1,.46-.12Zm-.34.47a.59.59,0,0,0-.27.14,1.07,1.07,0,0,0-.22.25,1,1,0,0,0-.14.32,1.58,1.58,0,0,0,0,.38v2.69a.25.25,0,0,0,0,.15.13.13,0,0,0,.12.07h.51Z"/><path class="bf8435b0-b188-4126-adb0-8ed6459cdb54" d="M204.61,91.89l.28-.08a1.35,1.35,0,0,1,.29,0c.33,0,.66,0,1,0s.67.05,1,.09l1.28.15a7.77,7.77,0,0,1,1.27.28l.55.19c.17.07.35.15.52.24a2.66,2.66,0,0,1,.63.42,2.1,2.1,0,0,1,.48.58,2.18,2.18,0,0,1,.14.34,1.77,1.77,0,0,1,.08.4,2.67,2.67,0,0,1,0,.4,1.17,1.17,0,0,1-.11.36.77.77,0,0,1-.36.32,3.6,3.6,0,0,1-.6.25,5.46,5.46,0,0,1-.66.19l-.51.12-.46.1a2.26,2.26,0,0,0-.44.15l-.17.09a1.14,1.14,0,0,0-.25.18,2.23,2.23,0,0,0-.19.24,2.26,2.26,0,0,0-.16.26c-.06.09-.1.18-.15.27l-.58,1.11-.57,1.11c0,.08-.09.18-.14.27s-.09.19-.12.28a1.67,1.67,0,0,0-.08.3,1.06,1.06,0,0,0,0,.31l0,.19a1.56,1.56,0,0,0,.13.44l.17.43c.05.13.11.3.2.5s.16.42.22.64a3.13,3.13,0,0,1,.14.63.8.8,0,0,1,0,.48,1.09,1.09,0,0,1-.23.3,2,2,0,0,1-.33.24,2.43,2.43,0,0,1-.37.16,1.76,1.76,0,0,1-.37.08,2.33,2.33,0,0,1-.75-.06,3.74,3.74,0,0,1-.7-.27,5.09,5.09,0,0,1-.5-.3c-.16-.11-.32-.22-.47-.34s-.33-.27-.51-.43l-.55-.55-.56-.61-.54-.63c-.17-.21-.34-.42-.49-.62s-.29-.38-.41-.55a.94.94,0,0,1-.14-.26,2.31,2.31,0,0,1-.1-.28l-.14-.07a.62.62,0,0,1-.12-.08.27.27,0,0,1-.09-.12.34.34,0,0,1,0-.16,1.14,1.14,0,0,1,0-.25l.06-.35c0-.13.05-.24.08-.36s.05-.2.06-.25.1-.33.16-.48l.21-.46.11-.19a.46.46,0,0,1,.15-.16h0l.28-.18.28-.18,1.09-2.09a2.69,2.69,0,0,0,0-.31,2.08,2.08,0,0,1,0-.25,1.13,1.13,0,0,1,0-.25,1.46,1.46,0,0,1,.11-.28c.08-.15.16-.29.25-.43l.3-.41.18-.2.25-.27.25-.24a1.05,1.05,0,0,1,.2-.16.34.34,0,0,1,.3,0Zm6.66,3a.86.86,0,0,0,0-.45,1.27,1.27,0,0,0-.18-.37,1.77,1.77,0,0,0-.31-.3,2.41,2.41,0,0,0-.36-.23,4,4,0,0,0-.47-.21,4.59,4.59,0,0,0-.48-.17,9.14,9.14,0,0,0-1.38-.29l-1.4-.14-.76-.07-.76,0a.46.46,0,0,0-.2.05l-.17.08a.48.48,0,0,1-.17,0,.36.36,0,0,1-.21,0l-.12-.06c-.18.18-.36.37-.53.57a4,4,0,0,0-.42.65l0,.06a.36.36,0,0,0,0,.07c0,.19,0,.34,0,.43a1.22,1.22,0,0,1,0,.27.75.75,0,0,1-.08.24,3.42,3.42,0,0,1-.17.35l-.77,1.47-.18.35a1.08,1.08,0,0,1-.16.2l-.21.16-.37.22,0,.06,0,.07a3.92,3.92,0,0,0-.29.71,6.57,6.57,0,0,0-.16.77.83.83,0,0,1,.24.16.43.43,0,0,1,.1.27.65.65,0,0,0,.1.32,5.3,5.3,0,0,0,.46.6l.49.59c.29.35.6.71.92,1.06a8.49,8.49,0,0,0,1,1,3.08,3.08,0,0,0,.41.3,3.91,3.91,0,0,0,.44.26,2.83,2.83,0,0,0,.4.17,1.23,1.23,0,0,0,.42.07,1,1,0,0,0,.41-.06.82.82,0,0,0,.36-.24,1.29,1.29,0,0,0-.06-.33c0-.14-.09-.29-.15-.46s-.11-.31-.17-.46-.1-.26-.14-.35l-.09-.24-.12-.31c0-.11-.07-.22-.1-.32a1.57,1.57,0,0,1-.05-.25.17.17,0,0,0,0-.07v-.07a1.3,1.3,0,0,1,0-.44,1.87,1.87,0,0,1,.09-.41,2,2,0,0,1,.16-.4c.06-.14.12-.27.19-.4l.58-1.11.57-1.1.21-.39.24-.36a2.87,2.87,0,0,1,.29-.31,1.6,1.6,0,0,1,.37-.25l.06,0,.06,0a.83.83,0,0,1,.23-.1l.31-.1.33-.09.25-.06.37-.09a3.9,3.9,0,0,0,.46-.12L211,95A1.48,1.48,0,0,0,211.27,94.86Zm-7.85,1.57a.41.41,0,0,1,.56-.17.37.37,0,0,1,.2.24.4.4,0,0,1,0,.32.42.42,0,0,1-.25.2.34.34,0,0,1-.31,0,.42.42,0,0,1-.21-.24A.44.44,0,0,1,203.42,96.43Z"/><path class="bf8435b0-b188-4126-adb0-8ed6459cdb54" d="M115.71,57.35h-.83v4.16h.83V64h-2.49v-.78l-2.5,1.24v1.2h-2.49v-1.2l-2.5-1.24V64h-2.5v-2.5h.83V57.35h-.83v-2.5h2.4l2.6-1.29v-1.2h2.49v1.2l2.6,1.29h2.39Zm-11.65-1.67v.84h.84v-.84Zm.84,7.49v-.83h-.84v.83Zm.83-.88,2.5,1.25v-.37h.83V59h-.83v-.78L105.73,57v.37h-.83v4.16h.83Zm5-7.44h-2.49v-.37l-2.5,1.26v.31l2.5,1.25v-.78h2.49v.78l2.5-1.25v-.31l-2.5-1.26Zm-1.66-1.66V54h.83v-.83Zm0,5h.83v-.83h-.83Zm.83,6.66V64h-.83v.83Zm4.16-3.33V57.35h-.83V57l-2.5,1.25V59h-.83v4.16h.83v.37l2.5-1.25v-.78Zm0-5.83v.84h.83v-.84Zm.83,7.49v-.83h-.83v.83Z"/><path class="bf8435b0-b188-4126-adb0-8ed6459cdb54" d="M108.11,77.8a3.13,3.13,0,0,1,.86.12,3,3,0,0,1,.79.33l.34.23c.11.09.22.18.32.28s.19.21.28.32a1.86,1.86,0,0,1,.22.35.19.19,0,0,1,0,.12.25.25,0,0,1-.08.18.23.23,0,0,1-.17.07.25.25,0,0,1-.13,0,.38.38,0,0,1-.09-.09c0-.09-.1-.16-.15-.24l-.18-.22a3.22,3.22,0,0,0-.43-.39,3.1,3.1,0,0,0-.5-.29,4.88,4.88,0,0,0-.54-.18,2.78,2.78,0,0,0-.58-.06,2.53,2.53,0,0,0-.91.16,2.67,2.67,0,0,0-.81.45l-.17.15s-.1.11-.16.16l-.08.06-.1,0a.24.24,0,0,1-.25-.25.28.28,0,0,1,0-.09.35.35,0,0,1,0-.08,1.58,1.58,0,0,1,.22-.23l.27-.22.29-.18.29-.16a3.65,3.65,0,0,1,.66-.22A4,4,0,0,1,108.11,77.8Zm0-.5a3.85,3.85,0,0,0-1,.12,5.67,5.67,0,0,0-.91.35.27.27,0,0,1-.12,0,.21.21,0,0,1-.17-.07.25.25,0,0,1-.08-.18.26.26,0,0,1,.13-.22,3.68,3.68,0,0,1,.49-.23,5.6,5.6,0,0,1,.54-.17,5.25,5.25,0,0,1,.55-.09,3.66,3.66,0,0,1,1.08,0,5.25,5.25,0,0,1,.55.09,5.6,5.6,0,0,1,.54.17,4.37,4.37,0,0,1,.49.23.25.25,0,0,1,.13.22.29.29,0,0,1-.07.18.24.24,0,0,1-.18.07h-.06l-.06,0a4.61,4.61,0,0,0-.91-.35A3.85,3.85,0,0,0,108.11,77.3Zm0,1.5A2.12,2.12,0,0,1,109,79a2.21,2.21,0,0,1,1.2,1.2,2.12,2.12,0,0,1,.18.87,4.49,4.49,0,0,1-.06.73,3.46,3.46,0,0,1-.19.7,2.45,2.45,0,0,1-.12.31l-.17.33a2.46,2.46,0,0,1-.19.32,2.17,2.17,0,0,1-.2.26.28.28,0,0,1-.09.07.18.18,0,0,1-.11,0,.28.28,0,0,1-.17-.07.25.25,0,0,1-.08-.18.25.25,0,0,1,.06-.16,5119401536906.82,5119401536906.82,0,0,0,.28-.4,3.79,3.79,0,0,0,.4-.93,3.85,3.85,0,0,0,.14-1,1.72,1.72,0,0,0-.14-.68,1.68,1.68,0,0,0-.93-.93,1.72,1.72,0,0,0-1.36,0,1.68,1.68,0,0,0-.93.93,1.72,1.72,0,0,0-.14.68.24.24,0,0,1-.25.25.21.21,0,0,1-.17-.07.25.25,0,0,1-.08-.18,2.12,2.12,0,0,1,.18-.87,2.21,2.21,0,0,1,1.2-1.2A2.12,2.12,0,0,1,108.11,78.8Zm0,1a1.12,1.12,0,0,1,.48.1,1.27,1.27,0,0,1,.67.67,1.12,1.12,0,0,1,.1.48,3,3,0,0,1-.1.79,3.16,3.16,0,0,1-.29.74,3,3,0,0,1-.45.66,3.36,3.36,0,0,1-.61.52l-.07,0h-.07a.25.25,0,0,1-.18-.08.21.21,0,0,1-.07-.17.21.21,0,0,1,0-.12.32.32,0,0,1,.08-.09l.21-.16L108,83a2.92,2.92,0,0,0,.61-.9,2.75,2.75,0,0,0,.21-1.06.72.72,0,0,0-.06-.29.74.74,0,0,0-.4-.4.73.73,0,0,0-.58,0,.74.74,0,0,0-.4.4.72.72,0,0,0-.06.29,1.19,1.19,0,0,1-.1.49,1.16,1.16,0,0,1-.26.39,1.18,1.18,0,0,1-.4.27,1.19,1.19,0,0,1-.49.1.24.24,0,0,1-.17-.07.24.24,0,0,1,0-.36.21.21,0,0,1,.17-.07.68.68,0,0,0,.29-.06.74.74,0,0,0,.4-.4.72.72,0,0,0,.06-.29,1.12,1.12,0,0,1,.1-.48,1,1,0,0,1,.27-.4,1.36,1.36,0,0,1,.39-.27A1.19,1.19,0,0,1,108.11,79.8Zm.25,1.25a2.12,2.12,0,0,1-.18.87,2.27,2.27,0,0,1-.48.72,2.34,2.34,0,0,1-.71.48,2.2,2.2,0,0,1-.88.18.21.21,0,0,1-.17-.08.23.23,0,0,1-.08-.17.25.25,0,0,1,.08-.18.21.21,0,0,1,.17-.07,1.72,1.72,0,0,0,.68-.14,1.68,1.68,0,0,0,.93-.93,1.72,1.72,0,0,0,.14-.68.25.25,0,1,1,.5,0Z"/><path class="bf8435b0-b188-4126-adb0-8ed6459cdb54" d="M102.27,116a2.06,2.06,0,0,1-.6-.08,2.32,2.32,0,0,1-.57-.22,2.5,2.5,0,0,1-.88-.83.34.34,0,0,1,0-.17.27.27,0,0,1,0-.12.21.21,0,0,1,.06-.1l.1-.07.12,0a.24.24,0,0,1,.15,0,.25.25,0,0,1,.12.11,2,2,0,0,0,.67.62,1.7,1.7,0,0,0,.89.22,1.66,1.66,0,0,0,.87-.23,2,2,0,0,0,.65-.61.38.38,0,0,1,.11-.11.24.24,0,0,1,.15,0,.36.36,0,0,1,.23.08.3.3,0,0,1,.09.23.19.19,0,0,1,0,.08l0,.08a1,1,0,0,1-.17.25l-.21.22a2.35,2.35,0,0,1-.79.5A2.39,2.39,0,0,1,102.27,116Zm-.61-3a.65.65,0,0,1,0,.19.91.91,0,0,1-.11.16.44.44,0,0,1-.16.1.47.47,0,0,1-.38,0,.42.42,0,0,1-.26-.26.41.41,0,0,1,0-.19.48.48,0,0,1,0-.2.4.4,0,0,1,.1-.15.36.36,0,0,1,.16-.11.47.47,0,0,1,.38,0,.42.42,0,0,1,.16.11.58.58,0,0,1,.11.15A.65.65,0,0,1,101.66,113Zm1.27,0a.45.45,0,0,1,0-.2.42.42,0,0,1,.26-.26.43.43,0,0,1,.19,0,.45.45,0,0,1,.2,0,.33.33,0,0,1,.15.11.42.42,0,0,1,.11.15.5.5,0,0,1,0,.39.91.91,0,0,1-.11.16.44.44,0,0,1-.16.1.47.47,0,0,1-.38,0,.42.42,0,0,1-.26-.26A.43.43,0,0,1,102.93,113Z"/><path class="bf8435b0-b188-4126-adb0-8ed6459cdb54" d="M108.89,103.48a1.77,1.77,0,0,1,.65.15,1.73,1.73,0,0,1,.52.36,1.75,1.75,0,0,1,.35.53,1.57,1.57,0,0,1,.13.65v1h-.68v-1a.91.91,0,0,0,0-.33,1.25,1.25,0,0,0-.15-.28,1.31,1.31,0,0,0-.24-.23,1.38,1.38,0,0,0-.3-.14c0,.11,0,.21,0,.32s0,.21,0,.32v1.35a.15.15,0,0,1,0,.07s0,0,0,.07l0,0a2.13,2.13,0,0,1,.49.73,2.26,2.26,0,0,1,0,1.72,2.34,2.34,0,0,1-.49.73l-.47-.48a1.57,1.57,0,0,0,.34-.51,1.64,1.64,0,0,0,.11-.6,1.55,1.55,0,0,0-.16-.69,3.47,3.47,0,0,1-1.22,1.72,3.42,3.42,0,0,1-.93.48,3.21,3.21,0,0,1-1.07.18,3.15,3.15,0,0,1-1.06-.18,3.63,3.63,0,0,1-.94-.48,3.54,3.54,0,0,1-1.21-1.72,1.56,1.56,0,0,0-.17.69,1.46,1.46,0,0,0,.12.6,1.57,1.57,0,0,0,.34.51l-.48.48a2.53,2.53,0,0,1-.49-.73,2.24,2.24,0,0,1,.49-2.45l0,0v-1.49a1.72,1.72,0,0,1,0-.32c0-.11,0-.21,0-.32a1.38,1.38,0,0,0-.3.14,1.05,1.05,0,0,0-.24.23.94.94,0,0,0-.15.28.92.92,0,0,0-.06.33v1h-.68v-1a1.75,1.75,0,0,1,.13-.65,1.77,1.77,0,0,1,.36-.53,1.61,1.61,0,0,1,.52-.36,1.76,1.76,0,0,1,.64-.15,3.06,3.06,0,0,1,.43-.71,1.8,1.8,0,0,1-.56-.21,1.58,1.58,0,0,1-.44-.37,1.68,1.68,0,0,1-.29-.5,1.66,1.66,0,0,1-.11-.58v-1h.68v1a.85.85,0,0,0,.08.39.89.89,0,0,0,.21.32.91.91,0,0,0,.33.22,1,1,0,0,0,.39.08h.34v0a3.57,3.57,0,0,1,.51-.32,2.06,2.06,0,0,1-.12-.35,1.49,1.49,0,0,1,0-.36,1.8,1.8,0,0,1,.16-.72l-.74-.74.48-.47.67.67a1.66,1.66,0,0,1,.52-.32,1.56,1.56,0,0,1,1.2,0,1.56,1.56,0,0,1,.52.32l.68-.67.47.47-.74.74a1.64,1.64,0,0,1,.16.72,1.47,1.47,0,0,1,0,.36,2.06,2.06,0,0,1-.12.35l.26.15.24.17v0h.34a1.06,1.06,0,0,0,.4-.08.87.87,0,0,0,.32-.22.91.91,0,0,0,.22-.32,1,1,0,0,0,.08-.39v-1h.67v1a1.65,1.65,0,0,1-.1.58,1.92,1.92,0,0,1-.29.5,1.73,1.73,0,0,1-.44.37,1.9,1.9,0,0,1-.56.21A3.4,3.4,0,0,1,108.89,103.48Zm-.38,1.35a2.43,2.43,0,0,0-.22-1,2.88,2.88,0,0,0-.58-.87,2.83,2.83,0,0,0-.86-.58,2.5,2.5,0,0,0-1-.22,2.43,2.43,0,0,0-1,.22,2.72,2.72,0,0,0-.86.58,2.91,2.91,0,0,0-.59.87,2.58,2.58,0,0,0-.21,1v1.35a2.59,2.59,0,0,0,.21,1,2.72,2.72,0,0,0,.58.86,2.86,2.86,0,0,0,.86.59,2.76,2.76,0,0,0,2.11,0,2.82,2.82,0,0,0,.85-.59,2.74,2.74,0,0,0,.59-.86,2.59,2.59,0,0,0,.21-1Zm-2.71-4.74a1,1,0,0,0-.39.08.91.91,0,0,0-.33.22,1,1,0,0,0-.21.32.87.87,0,0,0-.08.4.94.94,0,0,0,.12.47l.45-.09a3.13,3.13,0,0,1,.44,0,4,4,0,0,1,.89.13.85.85,0,0,0,.13-.47,1,1,0,0,0-.3-.72.87.87,0,0,0-.32-.22A1.06,1.06,0,0,0,105.8,100.09Z"/><path class="bf8435b0-b188-4126-adb0-8ed6459cdb54" d="M99.69,29.91a10.55,10.55,0,0,1,2.44-.16,11.29,11.29,0,0,1,2.38.41,11.64,11.64,0,0,1,4.26,2.31,1.18,1.18,0,0,1,.43.72,1.26,1.26,0,0,1-.08.75,1.22,1.22,0,0,1-.52.56l.21,1.1a.87.87,0,0,1,0,.36,1.17,1.17,0,0,1-.11.33,1,1,0,0,1-.22.28,1.29,1.29,0,0,1-.32.19.72.72,0,0,1-.06.36,1.17,1.17,0,0,1-.17.31,1.44,1.44,0,0,1-.27.22.83.83,0,0,1-.34.13,1,1,0,0,1-.56,0,1,1,0,0,1-.45-.34l-3.09,4.53a.92.92,0,0,1-.07.36,1.11,1.11,0,0,1-.17.3,1.55,1.55,0,0,1-.27.24,1.4,1.4,0,0,1-.34.13,1.13,1.13,0,0,1-.41,0,1.1,1.1,0,0,1-.37-.16,1.07,1.07,0,0,1-.28-.28,1,1,0,0,1-.15-.38l-1.88-9.92a.74.74,0,0,1-.21-.15,1.2,1.2,0,0,1-.17-.21,1.36,1.36,0,0,1-.13-.24,1.09,1.09,0,0,1-.07-.24,1,1,0,0,1,0-.49,1.25,1.25,0,0,1,.19-.44,1.1,1.1,0,0,1,.34-.34A1.35,1.35,0,0,1,99.69,29.91Zm8.36,3.92a.4.4,0,0,0,.27-.17.41.41,0,0,0-.08-.56,10.36,10.36,0,0,0-1.86-1.27A10.74,10.74,0,0,0,104.3,31a9.65,9.65,0,0,0-2.21-.38,9,9,0,0,0-2.25.14.39.39,0,0,0-.26.18.38.38,0,0,0-.07.31.37.37,0,0,0,.18.26.39.39,0,0,0,.31.07,9.21,9.21,0,0,1,1.65-.15,9.06,9.06,0,0,1,3.19.63,10.17,10.17,0,0,1,1.48.73,6.29,6.29,0,0,1,.71.48c.23.16.45.33.68.51A.39.39,0,0,0,108.05,33.83Zm-.79,1.42a.22.22,0,0,1,.17,0,.31.31,0,0,1,.07.14.9.9,0,0,1,0,.19.8.8,0,0,0,0,.18.26.26,0,0,0,.07.14.22.22,0,0,0,.17,0,.27.27,0,0,0,.13-.07.12.12,0,0,0,0-.14l-.2-1.09a1.15,1.15,0,0,1-.33-.1,1,1,0,0,1-.28-.18,12.54,12.54,0,0,0-1.58-1.07,8.54,8.54,0,0,0-1.71-.73,7.9,7.9,0,0,0-1.82-.33,7,7,0,0,0-1.92.12L102,42a.23.23,0,0,0,.09.14.22.22,0,0,0,.16,0,.23.23,0,0,0,.12-.06.21.21,0,0,0,0-.11.49.49,0,0,0,0-.12.51.51,0,0,0,0-.13l4.31-6.31.26,1.39a.19.19,0,0,0,.09.14.2.2,0,0,0,.15,0,.18.18,0,0,0,.14-.09.21.21,0,0,0,0-.16l-.23-1.22a.22.22,0,0,1,0-.16A.24.24,0,0,1,107.26,35.25Zm-5-.74a.92.92,0,0,1-.33,0,1.08,1.08,0,0,1-.29-.13.8.8,0,0,1-.22-.23.63.63,0,0,1-.13-.3.91.91,0,0,1,0-.33,1,1,0,0,1,.13-.3.8.8,0,0,1,.23-.22,1,1,0,0,1,.3-.13.78.78,0,0,1,.34,0,.81.81,0,0,1,.29.12.9.9,0,0,1,.35.54.74.74,0,0,1,0,.33.81.81,0,0,1-.12.29,1,1,0,0,1-.23.23A.77.77,0,0,1,102.25,34.51Zm.62,3.27a.91.91,0,0,1,.33,0,1,1,0,0,1,.3.13.8.8,0,0,1,.22.23,1,1,0,0,1,.13.3.73.73,0,0,1,0,.33.79.79,0,0,1-.12.3,1,1,0,0,1-.23.22.77.77,0,0,1-.31.12.62.62,0,0,1-.33,0,.69.69,0,0,1-.29-.13.8.8,0,0,1-.23-.22.77.77,0,0,1-.12-.31.92.92,0,0,1,0-.33,1.08,1.08,0,0,1,.13-.29,1,1,0,0,1,.23-.23A.79.79,0,0,1,102.87,37.78ZM104,35a.91.91,0,0,1,.33,0,1,1,0,0,1,.3.13.77.77,0,0,1,.22.22,1.07,1.07,0,0,1,.13.31.73.73,0,0,1,0,.33.69.69,0,0,1-.12.29.84.84,0,0,1-.23.23.77.77,0,0,1-.31.12.74.74,0,0,1-.33,0,1.08,1.08,0,0,1-.29-.13,1,1,0,0,1-.23-.22.84.84,0,0,1-.12-.31.92.92,0,0,1,0-.33,1,1,0,0,1,.13-.29.84.84,0,0,1,.23-.23A.79.79,0,0,1,104,35Z"/><path class="bf8435b0-b188-4126-adb0-8ed6459cdb54" d="M213.4,33.37a2.55,2.55,0,0,1,1,.2,2.61,2.61,0,0,1,1.36,1.36,2.58,2.58,0,0,1,0,2,2.7,2.7,0,0,1-.55.81,2.48,2.48,0,0,1-.81.55,2.38,2.38,0,0,1-1,.2,2.5,2.5,0,0,1-.94-.18,2.64,2.64,0,0,1-.78-.49,2.54,2.54,0,0,1-.56-.74,2.22,2.22,0,0,1-.26-.92l-1.5-.25a3.92,3.92,0,0,1-.71,1.24,3.7,3.7,0,0,1-1.12.89l.58,1.74h.18a2.59,2.59,0,0,1,1,.2,2.64,2.64,0,0,1,.81.55,2.7,2.7,0,0,1,.55.81,2.58,2.58,0,0,1,0,2,2.7,2.7,0,0,1-.55.81,2.48,2.48,0,0,1-.81.55,2.42,2.42,0,0,1-1,.2,2.37,2.37,0,0,1-1-.2,2.52,2.52,0,0,1-1.36-1.36,2.37,2.37,0,0,1-.2-1,2.55,2.55,0,0,1,1.16-2.15l-.57-1.74-.29,0h-.3a3.75,3.75,0,0,1-1.74-.41,4,4,0,0,1-1.36-1.15l-2.07,1a2.48,2.48,0,0,1,.06.54,2.55,2.55,0,0,1-.2,1,2.58,2.58,0,0,1-1.37,1.36,2.55,2.55,0,0,1-2,0,2.58,2.58,0,0,1-1.37-1.36,2.7,2.7,0,0,1,0-2,2.7,2.7,0,0,1,.55-.81,2.52,2.52,0,0,1,.82-.55,2.37,2.37,0,0,1,1-.2,2.56,2.56,0,0,1,1.06.23,2.61,2.61,0,0,1,.87.65l2.07-1a4,4,0,0,1-.17-1.12,4,4,0,0,1,.25-1.37,3.86,3.86,0,0,1,.73-1.19l-1.21-1.5a2.53,2.53,0,0,1-2,0,2.7,2.7,0,0,1-.81-.55,2.57,2.57,0,0,1-.55-.82,2.5,2.5,0,0,1-.2-1,2.52,2.52,0,0,1,.75-1.8,2.56,2.56,0,0,1,4.16.81,2.54,2.54,0,0,1,.2,1,2.47,2.47,0,0,1-.51,1.53l1.2,1.51a4.34,4.34,0,0,1,.9-.36,4,4,0,0,1,1-.12,3.77,3.77,0,0,1,1.56.33l1.64-2.46a2.36,2.36,0,0,1-.48-.79,2.58,2.58,0,0,1-.17-.91,2.52,2.52,0,0,1,.75-1.81,2.38,2.38,0,0,1,.81-.55,2.58,2.58,0,0,1,2,0,2.55,2.55,0,0,1,.81,4.16,2.52,2.52,0,0,1-1.8.75,2.74,2.74,0,0,1-.84-.14l-1.65,2.47a3.49,3.49,0,0,1,.89,1.26,3.72,3.72,0,0,1,.32,1.51l1.5.25a2.52,2.52,0,0,1,.94-1.1,2.86,2.86,0,0,1,.66-.31A2.53,2.53,0,0,1,213.4,33.37Zm-15.33,6.39a1.18,1.18,0,0,0,.5-.1,1.41,1.41,0,0,0,.4-.27,1.3,1.3,0,0,0,.28-.41,1.35,1.35,0,0,0,.1-.5,1.39,1.39,0,0,0-.1-.5,1.38,1.38,0,0,0-.28-.4,1.09,1.09,0,0,0-.4-.27,1.3,1.3,0,0,0-1,0,1.09,1.09,0,0,0-.4.27,1.38,1.38,0,0,0-.28.4,1.39,1.39,0,0,0-.1.5,1.35,1.35,0,0,0,.1.5,1.3,1.3,0,0,0,.28.41,1.41,1.41,0,0,0,.4.27A1.18,1.18,0,0,0,198.07,39.76Zm1.28-11.5a1.18,1.18,0,0,0,.1.5,1.39,1.39,0,0,0,.27.41,1.46,1.46,0,0,0,.41.27,1.18,1.18,0,0,0,.5.1,1.21,1.21,0,0,0,.5-.1,1.56,1.56,0,0,0,.4-.27,1.22,1.22,0,0,0,.27-.41,1.18,1.18,0,0,0,.1-.5,1.21,1.21,0,0,0-.1-.5,1.18,1.18,0,0,0-.27-.4,1.16,1.16,0,0,0-.9-.37,1.35,1.35,0,0,0-.5.09,1.3,1.3,0,0,0-.41.28,1.34,1.34,0,0,0-.27.4A1.21,1.21,0,0,0,199.35,28.26Zm6.39,9a2.54,2.54,0,0,0,1-.2,2.7,2.7,0,0,0,.81-.55,2.55,2.55,0,0,0-.81-4.16,2.46,2.46,0,0,0-2,0,2.5,2.5,0,0,0-.81.54,2.69,2.69,0,0,0-.55.82,2.55,2.55,0,0,0,0,2A2.58,2.58,0,0,0,204.74,37,2.55,2.55,0,0,0,205.74,37.21Zm3.83,5.11a1.18,1.18,0,0,0-.1-.5,1.46,1.46,0,0,0-.27-.41,1.39,1.39,0,0,0-.41-.27,1.18,1.18,0,0,0-.5-.1,1.21,1.21,0,0,0-.5.1,1.23,1.23,0,0,0-.4.27,1.3,1.3,0,0,0-.28.41,1.35,1.35,0,0,0-.1.5,1.26,1.26,0,0,0,.38.9,1.09,1.09,0,0,0,.4.27,1.21,1.21,0,0,0,.5.1,1.18,1.18,0,0,0,.5-.1,1.22,1.22,0,0,0,.41-.27,1.46,1.46,0,0,0,.27-.41A1.13,1.13,0,0,0,209.57,42.32Zm1.28-16.61a1.18,1.18,0,0,0-.5.1,1.27,1.27,0,0,0-.41.27,1.46,1.46,0,0,0-.27.41,1.18,1.18,0,0,0-.1.5,1.16,1.16,0,0,0,.1.49,1.46,1.46,0,0,0,.27.41,1.27,1.27,0,0,0,.41.27,1.18,1.18,0,0,0,.5.1,1.21,1.21,0,0,0,.5-.1,1.34,1.34,0,0,0,.4-.27,1.13,1.13,0,0,0,.27-.41,1.16,1.16,0,0,0,.1-.49,1.18,1.18,0,0,0-.1-.5,1.13,1.13,0,0,0-.27-.41,1.34,1.34,0,0,0-.4-.27A1.21,1.21,0,0,0,210.85,25.71Zm2.55,11.5a1.35,1.35,0,0,0,.5-.1,1.42,1.42,0,0,0,.41-.28,1.56,1.56,0,0,0,.27-.4,1.21,1.21,0,0,0,.1-.5,1.18,1.18,0,0,0-.1-.5,1.22,1.22,0,0,0-.68-.68,1.18,1.18,0,0,0-.5-.1,1.21,1.21,0,0,0-.5.1,1.56,1.56,0,0,0-.4.27,1.42,1.42,0,0,0-.28.41,1.35,1.35,0,0,0-.1.5,1.39,1.39,0,0,0,.1.5,1.4,1.4,0,0,0,.68.68A1.39,1.39,0,0,0,213.4,37.21Z"/><path class="bf8435b0-b188-4126-adb0-8ed6459cdb54" d="M164.74,100.24a5.75,5.75,0,0,1,.2,1.49,5.67,5.67,0,0,1-.21,1.54,5.93,5.93,0,0,1-.59,1.39,5.8,5.8,0,0,1-.91,1.18,6.14,6.14,0,0,1-1.18.92,5.84,5.84,0,0,1-1.39.58,5.74,5.74,0,0,1-1.55.21,5.61,5.61,0,0,1-1.54-.21,5.52,5.52,0,0,1-1.39-.58,5.59,5.59,0,0,1-1.18-.92,5.85,5.85,0,0,1-.92-1.18,5.93,5.93,0,0,1-.59-1.39,6,6,0,0,1-.2-1.54A5.73,5.73,0,0,1,155,97.61a5.54,5.54,0,0,1,1.18-.91,6,6,0,0,1,1.38-.59,5.69,5.69,0,0,1,1.55-.21,5.81,5.81,0,0,1,1.49.2l-.66.65v.06l-.41-.06-.42,0a4.91,4.91,0,0,0-1.33.18,5,5,0,0,0-1.19.51,4.47,4.47,0,0,0-1,.78,5.14,5.14,0,0,0-.78,1,5,5,0,0,0-.5,1.19,4.91,4.91,0,0,0-.18,1.33,4.78,4.78,0,0,0,.18,1.32,4.9,4.9,0,0,0,.5,1.2,5.45,5.45,0,0,0,.78,1,5.14,5.14,0,0,0,1,.78,5.45,5.45,0,0,0,1.19.5,5,5,0,0,0,2.66,0,5.45,5.45,0,0,0,1.19-.5,5.14,5.14,0,0,0,1-.78,5.45,5.45,0,0,0,.78-1,4.54,4.54,0,0,0,.5-1.2,4.78,4.78,0,0,0,.18-1.32,3,3,0,0,0,0-.42c0-.14,0-.28-.05-.41h.05Zm-5.63-1a2.52,2.52,0,0,0-1.76.73,2.57,2.57,0,0,0-.54.8,2.4,2.4,0,0,0-.2,1,2.44,2.44,0,0,0,.2,1,2.52,2.52,0,0,0,.54.79,2.51,2.51,0,0,0,2.73.54,2.57,2.57,0,0,0,.8-.54,2.67,2.67,0,0,0,.53-.79,2.44,2.44,0,0,0,.2-1,2.39,2.39,0,0,0-.15-.83h.88a2.7,2.7,0,0,1,.07.41,3,3,0,0,1,0,.42,3.27,3.27,0,0,1-.26,1.29,3.55,3.55,0,0,1-.72,1.06,3.24,3.24,0,0,1-1.06.71,3.22,3.22,0,0,1-2.58,0,3.24,3.24,0,0,1-1.06-.71,3.35,3.35,0,0,1-.71-1.06,3.27,3.27,0,0,1-.26-1.29,3.35,3.35,0,0,1,.26-1.3,3.3,3.3,0,0,1,.71-1.05,3.43,3.43,0,0,1,1.06-.72,3.27,3.27,0,0,1,1.29-.26l.42,0,.41.08v.87A2.63,2.63,0,0,0,159.11,99.23Zm1.67.24V97.61l2.49-2.5v2.46h2.46l-2.5,2.49h-1.86l-1.45,1.45a1.5,1.5,0,0,1,0,.22.87.87,0,0,1-.06.32,1,1,0,0,1-.18.27.9.9,0,0,1-.26.17.72.72,0,0,1-.33.07.68.68,0,0,1-.32-.07,1,1,0,0,1-.27-.17,1.27,1.27,0,0,1-.18-.27.87.87,0,0,1-.06-.32.88.88,0,0,1,.06-.33,1,1,0,0,1,.18-.26.8.8,0,0,1,.27-.18.83.83,0,0,1,.32-.06.78.78,0,0,1,.22,0Zm.83-.24h1.28l.83-.83h-1.28V97.12l-.83.83Z"/><path class="bf8435b0-b188-4126-adb0-8ed6459cdb54" d="M172.2,65.66a1.43,1.43,0,0,1,.44.19,1.37,1.37,0,0,1,.33.35l.91,1.4a3.9,3.9,0,0,1,.57,1.43,4.14,4.14,0,0,1,0,1.49,4,4,0,0,1-.58,1.37,3.75,3.75,0,0,1-1.1,1.07l-.44.29a1,1,0,0,1-.43.17,2.2,2.2,0,0,1-.45,0,3.42,3.42,0,0,1-.45,0,3.71,3.71,0,0,0-.45-.06,2.8,2.8,0,0,0-.41,0,.77.77,0,0,0-.36.12.87.87,0,0,0-.26.28,2.17,2.17,0,0,0-.16.38,4.38,4.38,0,0,0-.13.43,3.12,3.12,0,0,1-.15.43,2,2,0,0,1-.2.41,1.05,1.05,0,0,1-.32.31l-.45.29a3.9,3.9,0,0,1-1.43.57,4.14,4.14,0,0,1-1.49,0,4,4,0,0,1-1.37-.58,3.91,3.91,0,0,1-1.08-1.1l-.91-1.4a1.39,1.39,0,0,1-.17-.44,1.29,1.29,0,0,1,0-.48,1.6,1.6,0,0,1,.25-.58,3.78,3.78,0,0,1,.53-.67,9.38,9.38,0,0,1,.71-.69c.26-.23.53-.46.82-.69l.85-.65c.29-.2.56-.4.82-.57l.72-.48.73-.46.86-.52c.3-.17.61-.35.94-.52s.64-.32,1-.47.62-.26.92-.37a5.05,5.05,0,0,1,.83-.21A1.91,1.91,0,0,1,172.2,65.66Zm.07,1a.43.43,0,0,0-.24-.18,1.87,1.87,0,0,0-.7.08,8.74,8.74,0,0,0-1,.35c-.35.15-.7.32-1.06.51s-.71.38-1,.57l-.89.53-.61.39-.42.28-.58.4-.67.48-.72.55c-.23.19-.46.37-.68.57s-.42.38-.6.56-.32.36-.44.52a1.17,1.17,0,0,0-.22.45.34.34,0,0,0,.05.29l.91,1.4a3.2,3.2,0,0,0,.85.87,3,3,0,0,0,3.37,0l.44-.28a.48.48,0,0,0,.17-.22,2.84,2.84,0,0,0,.13-.35c0-.13.08-.28.12-.43a2.75,2.75,0,0,1,.17-.45,2.3,2.3,0,0,1,.25-.43,1.35,1.35,0,0,1,.39-.36,1.44,1.44,0,0,1,.48-.21,2.2,2.2,0,0,1,.5-.06,2.63,2.63,0,0,1,.49,0l.43,0,.37,0a.54.54,0,0,0,.27-.06l.45-.29a3.1,3.1,0,0,0,1.32-1.92,3,3,0,0,0-.43-2.3Zm-4.68,2.72a.41.41,0,0,1,.31-.06.4.4,0,0,1,.26.18.42.42,0,0,1,.06.31.38.38,0,0,1-.18.26l-.7.46a.37.37,0,0,1-.31,0,.39.39,0,0,1-.26-.17.44.44,0,0,1-.06-.32.4.4,0,0,1,.18-.26Z"/></svg>