<svg id="a6a63fee-c0eb-4c6e-8470-632cd585655a" xmlns="http://www.w3.org/2000/svg" viewBox="0 0 300 140"><defs><style>.a46792cf-d716-490a-8ff7-c52013c5c11a{fill:none;stroke:#cd1e2a;stroke-linecap:round;stroke-linejoin:round;stroke-width:2px;}.a23d0e61-b29d-41bc-bcdc-fcc54e379167{fill:#cd1e2a;}</style></defs><title>card-foistemgames2019</title><path class="a46792cf-d716-490a-8ff7-c52013c5c11a" d="M127.12,57.7a25.53,25.53,0,0,1,8,1.35l-.83,10.78a21.54,21.54,0,0,0-7-.69,9.31,9.31,0,0,0-5.14,1.67,7.45,7.45,0,0,0-2.6,4.29,26.77,26.77,0,0,0-.45,6.57h12.47V92.88H119.1v39.85H104.83V92.88H96.55V81.67h8.28c0-1.58,0-3.16.11-4.74a24.35,24.35,0,0,1,3-10.45,16.4,16.4,0,0,1,5.81-5.89,21.5,21.5,0,0,1,9.38-2.8A33.72,33.72,0,0,1,127.12,57.7Z"/><path class="a23d0e61-b29d-41bc-bcdc-fcc54e379167" d="M156.93,94.93c-5.44-6.75-13-18.71-18.23-37.29a160.88,160.88,0,0,1-5.52-48.71,1.73,1.73,0,0,1,2-1.64h0a1.71,1.71,0,0,1,1.48,1.77,151.21,151.21,0,0,0,5.18,46.08c4.91,17.5,12,28.75,17.16,35.1Z"/><path class="a23d0e61-b29d-41bc-bcdc-fcc54e379167" d="M156.38,94.93c5.43-6.75,13-18.71,18.22-37.29a160.56,160.56,0,0,0,5.52-48.71,1.72,1.72,0,0,0-2-1.64h0a1.72,1.72,0,0,0-1.49,1.77,151.21,151.21,0,0,1-5.18,46.08c-4.91,17.5-12,28.75-17.16,35.1Z"/><path class="a23d0e61-b29d-41bc-bcdc-fcc54e379167" d="M156.65,87.46a20,20,0,1,0,20,20A20,20,0,0,0,156.65,87.46Zm0,28.22a8.25,8.25,0,1,1,8.25-8.25A8.25,8.25,0,0,1,156.65,115.68Z"/><rect class="a46792cf-d716-490a-8ff7-c52013c5c11a" x="187.93" y="82.11" width="14.29" height="50.62"/><path class="a46792cf-d716-490a-8ff7-c52013c5c11a" d="M195.2,75.34A8.25,8.25,0,1,0,187,67.09,8.25,8.25,0,0,0,195.2,75.34Z"/></svg>