<?xml version="1.0" encoding="utf-8"?>
<!-- Generator: Adobe Illustrator 24.1.1, SVG Export Plug-In . SVG Version: 6.00 Build 0)  -->
<svg version="1.1" id="a583eddc-927d-4f7c-96e6-172a30bc40e5"
	 xmlns="http://www.w3.org/2000/svg" xmlns:xlink="http://www.w3.org/1999/xlink" x="0px" y="0px" viewBox="0 0 94.9 94.6"
	 style="enable-background:new 0 0 94.9 94.6;" xml:space="preserve">
<style type="text/css">
	.st0{fill:#31373D;}
	.st1{fill:#E1E8ED;}
</style>
<path class="st0" d="M7.2,3.3h80.7c2,0,3.7,1.6,3.7,3.7v80.7c0,2-1.6,3.7-3.7,3.7H7.2c-2,0-3.7-1.6-3.7-3.7V6.9
	C3.5,4.9,5.2,3.3,7.2,3.3z"/>
<path class="st1" d="M8.1,15.2h15.6l0,0v68.8c0,1.5-1.2,2.8-2.8,2.8l0,0H10.9c-1.5,0-2.8-1.2-2.8-2.8l0,0V15.2L8.1,15.2z"/>
<path class="st1" d="M71.4,15.2h15.6l0,0v68.8c0,1.5-1.2,2.8-2.8,2.8l0,0H74.1c-1.5,0-2.8-1.2-2.8-2.8l0,0V15.2L71.4,15.2z"/>
<path class="st1" d="M28.3,15.2h16.5l0,0v68.7c0,1.6-1.3,2.8-2.8,2.8l0,0H31.1c-1.6,0-2.8-1.3-2.8-2.8l0,0V15.2L28.3,15.2z"/>
<path class="st1" d="M50.3,15.2h16.5l0,0v68.7c0,1.6-1.3,2.8-2.8,2.8l0,0H53.1c-1.6,0-2.8-1.3-2.8-2.8l0,0V15.2L50.3,15.2z"/>
<path class="st0" d="M18.2,11.3h14.7l0,0v48.4c0,1.2-1,2.3-2.3,2.3H20.4c-1.2,0-2.3-1-2.3-2.3L18.2,11.3L18.2,11.3L18.2,11.3z"/>
<path class="st0" d="M40.2,11.3h14.7l0,0v48.4c0,1.2-1,2.3-2.3,2.3H42.4c-1.2,0-2.3-1-2.3-2.3L40.2,11.3L40.2,11.3z"/>
<path class="st0" d="M62.2,11.3h14.7l0,0v48.4c0,1.2-1,2.3-2.3,2.3H64.4c-1.2,0-2.2-1-2.2-2.3L62.2,11.3L62.2,11.3L62.2,11.3z"/>
</svg>
