<?xml version="1.0" encoding="utf-8"?>
<!-- Generator: Adobe Illustrator 24.1.1, SVG Export Plug-In . SVG Version: 6.00 Build 0)  -->
<svg version="1.1" id="af431031-54e6-412c-8fc4-fe3307d7a89c"
	 xmlns="http://www.w3.org/2000/svg" xmlns:xlink="http://www.w3.org/1999/xlink" x="0px" y="0px" viewBox="0 0 106.8 122"
	 style="enable-background:new 0 0 106.8 122;" xml:space="preserve">
<style type="text/css">
	.st0{fill:#CD1F40;}
	.st1{opacity:0.3;fill:#FFFFFF;enable-background:new    ;}
	.st2{opacity:0.2;fill:#FFFFFF;enable-background:new    ;}
	.st3{opacity:0.25;fill:#FFFFFF;enable-background:new    ;}
	.st4{opacity:0.1;fill:#FFFFFF;enable-background:new    ;}
	.st5{fill:#FFFFFF;}
</style>
<polygon class="st0" points="53.5,2.2 104.6,31.7 104.6,90.7 53.5,120.2 2.4,90.7 2.4,31.7 "/>
<polygon class="st1" points="27.9,75.9 27.9,46.4 53.5,61.2 "/>
<polygon class="st2" points="27.9,46.4 53.5,31.7 53.5,61.2 "/>
<polygon class="st1" points="79,16.9 53.5,2.2 53.5,31.7 "/>
<polygon class="st3" points="104.6,31.7 79,16.9 79,46.4 "/>
<polygon class="st4" points="104.6,61.2 104.6,31.7 79,46.4 "/>
<polygon class="st1" points="27.9,16.9 27.9,46.4 53.5,31.7 "/>
<polygon class="st3" points="53.5,2.2 27.9,16.9 53.5,31.7 "/>
<polygon class="st2" points="2.4,31.7 2.4,61.2 27.9,46.4 "/>
<polygon class="st3" points="27.9,16.9 2.4,31.7 27.9,46.4 "/>
<polygon class="st2" points="2.4,61.2 2.4,90.7 27.9,75.9 "/>
<polygon class="st4" points="27.9,46.4 2.4,61.2 27.9,75.9 "/>
<polygon class="st4" points="27.9,75.9 2.4,90.7 27.9,105.4 "/>
<polygon class="st2" points="53.5,120.2 79,105.4 53.5,90.7 "/>
<polygon class="st4" points="53.5,90.7 27.9,105.4 53.5,120.2 "/>
<polygon class="st3" points="104.6,61.2 79,46.4 79,75.9 "/>
<polygon class="st2" points="104.6,90.7 104.6,61.2 79,75.9 "/>
<polygon class="st4" points="79,105.4 104.6,90.7 79,75.9 "/>
<polygon class="st4" points="79,46.4 53.5,61.2 79,75.9 "/>
<polygon class="st3" points="79,75.9 53.5,90.7 79,105.4 "/>
<polygon class="st4" points="53.5,90.7 27.9,75.9 53.5,61.2 "/>
<polygon class="st1" points="53.5,31.7 79.1,46.4 53.5,61.2 "/>
<polygon class="st2" points="53.5,61.2 79.1,75.9 53.5,90.7 "/>
<polygon class="st2" points="79.1,46.5 53.5,31.7 79.1,16.9 "/>
<polygon class="st2" points="27.9,105.4 53.5,90.7 27.9,75.9 "/>
<polygon class="st5" points="62.8,40.6 75.5,33.2 75.5,47.9 "/>
<polygon class="st5" points="88.2,40.6 88.2,55.3 75.5,47.9 "/>
<polygon class="st5" points="75.5,33.2 88.2,40.6 75.5,47.9 "/>
<polygon class="st5" points="62.8,55.3 75.5,62.6 62.8,70 "/>
<polygon class="st5" points="88.2,55.3 75.5,47.9 75.5,62.6 "/>
<polygon class="st5" points="75.5,77.3 88.2,70 75.5,62.6 "/>
<polygon class="st5" points="75.5,47.9 62.8,55.3 75.5,62.6 "/>
<polygon class="st5" points="75.5,62.6 62.8,70 75.5,77.3 "/>
<polygon class="st5" points="75.5,33.2 62.8,25.9 62.8,40.6 "/>
<polygon class="st5" points="75.5,77.2 88.2,69.9 88.2,84.6 "/>
<polygon class="st5" points="44.2,40.5 31.5,33.2 31.5,47.9 "/>
<polygon class="st5" points="18.8,40.5 18.8,55.2 31.5,47.9 "/>
<polygon class="st5" points="31.5,33.2 18.8,40.5 31.5,47.9 "/>
<polygon class="st5" points="44.2,55.2 31.5,62.6 44.2,69.9 "/>
<polygon class="st5" points="18.7,55.2 31.5,47.9 31.5,62.6 "/>
<polygon class="st5" points="31.5,77.3 18.7,69.9 31.5,62.6 "/>
<polygon class="st5" points="31.5,47.9 44.2,55.2 31.5,62.6 "/>
<polygon class="st5" points="31.5,62.6 44.2,69.9 31.5,77.3 "/>
<polygon class="st5" points="31.5,33.2 44.2,25.8 44.2,40.5 "/>
<polygon class="st5" points="31.5,77.2 18.8,69.8 18.8,84.5 "/>
<polygon class="st5" points="44.4,86.5 41.2,84.7 41.2,88.4 "/>
<polygon class="st5" points="38.1,86.5 38.1,90.2 41.2,88.4 "/>
<polygon class="st5" points="41.2,84.7 38.1,86.5 41.2,88.4 "/>
<polygon class="st5" points="44.4,90.2 41.2,92 44.4,93.9 "/>
<polygon class="st5" points="38.1,90.2 41.2,88.4 41.2,92 "/>
<polygon class="st5" points="41.2,95.7 38.1,93.9 41.2,92 "/>
<polygon class="st5" points="38.1,90.2 41.2,92 38.1,93.9 "/>
<polygon class="st5" points="41.2,92 44.4,93.9 41.2,95.7 "/>
<polygon class="st5" points="38.1,93.9 38.1,97.6 41.2,95.7 "/>
<polygon class="st5" points="38.1,97.6 41.2,95.7 41.2,99.4 "/>
<polygon class="st5" points="38.1,97.6 41.2,99.4 38.1,101.2 "/>
<polygon class="st5" points="41.2,84.7 44.4,82.8 44.4,86.5 "/>
<polygon class="st5" points="41.3,95.7 38.1,93.9 38.1,97.5 "/>
<polygon class="st5" points="53.5,81.1 50.7,79.4 50.7,82.7 "/>
<polygon class="st5" points="47.9,81.1 47.9,84.3 50.7,82.7 "/>
<polygon class="st5" points="50.7,79.4 47.9,81.1 50.7,82.7 "/>
<polygon class="st5" points="50.7,89.2 47.9,90.8 50.7,92.4 "/>
<polygon class="st5" points="47.9,84.3 50.7,82.7 50.7,85.9 "/>
<polygon class="st5" points="50.7,89.2 47.9,87.6 50.7,85.9 "/>
<polygon class="st5" points="47.9,84.3 50.7,85.9 47.9,87.6 "/>
<polygon class="st5" points="50.7,79.4 53.5,77.8 53.5,81.1 "/>
<polygon class="st5" points="50.7,89.2 47.9,87.5 47.9,90.8 "/>
<polygon class="st5" points="53.5,81.1 56.3,79.4 56.3,82.7 "/>
<polygon class="st5" points="59.1,81.1 59.1,84.3 56.3,82.7 "/>
<polygon class="st5" points="56.3,79.4 59.1,81.1 56.3,82.7 "/>
<polygon class="st5" points="56.3,89.2 59.1,90.8 56.3,92.4 "/>
<polygon class="st5" points="59.1,84.3 56.3,82.7 56.3,85.9 "/>
<polygon class="st5" points="56.3,89.2 59.1,87.6 56.3,85.9 "/>
<polygon class="st5" points="59.1,84.3 56.3,85.9 59.1,87.6 "/>
<polygon class="st5" points="56.3,79.4 53.5,77.8 53.5,81.1 "/>
<polygon class="st5" points="56.3,89.2 59.1,87.6 59.1,90.8 "/>
<polygon class="st5" points="53.5,94 56.3,92.4 53.5,90.8 "/>
<polygon class="st5" points="53.5,94 50.7,92.4 53.5,90.8 "/>
<polygon class="st5" points="50.7,92.4 53.5,90.8 50.7,89.2 "/>
<polygon class="st5" points="56.3,92.4 53.5,90.8 56.3,89.2 "/>
<polygon class="st5" points="66,84.3 62.9,82.5 62.9,86 "/>
<polygon class="st5" points="62.9,86 62.9,89.5 66,87.7 "/>
<polygon class="st5" points="66,84.3 62.9,86 66,87.7 "/>
<polygon class="st5" points="62.9,89.5 66,87.7 66,91.2 "/>
<polygon class="st5" points="66,94.7 62.9,92.9 66,91.2 "/>
<polygon class="st5" points="62.9,89.5 66,91.2 62.9,92.9 "/>
<polygon class="st5" points="62.9,92.9 62.9,96.4 66,94.7 "/>
<polygon class="st5" points="62.9,96.4 66,94.7 66,98.1 "/>
<polygon class="st5" points="66,96.4 62.9,98.1 66,99.8 "/>
<polygon class="st5" points="62.9,94.7 62.9,98.1 66,96.4 "/>
</svg>
