<svg xmlns="http://www.w3.org/2000/svg" viewBox="0 0 141.6 108.7"><path d="M120 84.5l-2.9-31.4L89.8 41l-42 19.9 38.7 34.6z" fill="#f94f79"/><path d="M93.5 32S83.3 10.8 64.3 2.8V32" fill="#b5c1c6"/><path d="M134.5 50.1l-50.9 8.8 1.3 13.6c.5 4.9 4.3 8.8 9.2 9.3l32.1 3.4-.4 1.6-2.4 10.1-44.6 8.6c-4.4.8-8.9-.6-12-3.7L55 89.8l-9.2-9.3-20.5-20.8L2.9 80.5l13.3-34.1L2.9 14l24 18h111.8l-4.2 18.1z" fill="#c3d1d8"/><g fill="#b5c1c6"><path d="M125.8 86.8l-2.4 10.1-44.6 8.6c-4.4.8-8.9-.6-12-3.7l-11.9-12-9.2-9.3-20.4-20.8L2.9 80.5l13.3-34.1L2.9 14l24 18s19.2 45.9 47.8 58.4c21.3 9.3 41.8 1.2 51.1-3.6z"/><path d="M50.3 74.2L36.6 93.4s19.8-1.5 26.2-7.9"/></g><path d="M105.7 47.1c1.2 0 2.1-.9 2.1-2.1 0-.4-.1-.8-.3-1.1l-1.7-2.8c-.5-1-1.8-1.4-2.8-.9s-1.4 1.8-.9 2.8c.1.1.1.2.2.3l1.7 2.8c.3.6 1 1 1.7 1zm13.2 0c.7 0 1.4-.4 1.8-1l1.7-2.8c.6-1 .3-2.3-.7-2.9s-2.3-.3-2.9.7h0l-1.7 2.8c-.6 1-.3 2.3.7 2.9.3.2.7.3 1.1.3zm21.4-16.3c-.4-.5-1-.8-1.6-.8H94.8c-2.6-4.8-5.7-9.3-9.3-13.4-.7-.9-2-1.1-2.9-.4s-1.1 2-.4 2.9l.1.1c2.9 3.3 5.4 6.9 7.6 10.7H66.4V6.1c4.1 2.2 7.8 4.9 11.2 8.1.9.7 2.2.5 2.9-.4.6-.8.6-1.9-.1-2.6C76 6.9 70.8 3.4 65.1.9 64 .5 62.8 1 62.4 2c-.1.3-.2.5-.2.8V30H43.6c-1.1-.1-2.1.8-2.2 1.9s.8 2.1 1.9 2.2h92.8l-3.3 14.1-49.6 8.6c-1.1.2-1.8 1.2-1.7 2.2l1.3 13.6c.6 5.9 5.2 10.6 11.1 11.2l29.8 3.2-1.9 8.1-23.6 4.6c-1.1.2-1.9 1.3-1.6 2.4.2 1 1 1.7 2 1.7h.4l25-4.8a2.17 2.17 0 0 0 1.6-1.6l2.8-11.7c.3-1.1-.4-2.2-1.6-2.5h-.2l-4.5-.5-2.5-27.9 3.3-.6v3.4c0 1.1.9 2.1 2 2.1h0c1.1 0 2.1-.9 2.1-2.1v-4.1l8-1.4c.8-.1 1.5-.8 1.7-1.6l4.3-18c-.1-.6-.3-1.2-.7-1.7zm-22.6 51.4l-3.2-.3.6-4.3c.1-1.1-.7-2.2-1.8-2.3s-2.2.7-2.3 1.8l-.6 4.4-5.8-.6.4-3.3c.1-1.1-.7-2.2-1.8-2.3s-2.2.7-2.3 1.8h0l-.4 3.3-4.5-.5v-3.6c0-1.1-.9-2.1-2.1-2.1h0c-1.1 0-2.1.9-2.1 2.1v2.8c-2.8-1.2-4.7-3.8-5-6.8l-1.1-11.7 3.5-.6.5 4.5c.1 1 1 1.8 2.1 1.8h.2c1.1-.1 2-1.2 1.8-2.3l-.5-4.7 4.6-.8.6 4.4a2.05 2.05 0 0 0 2 1.8h.3c1.1-.1 2-1.2 1.8-2.3v-.1l-.7-4.5 6.7-1.2.3 4.7c0 1.1 1 2 2.1 2h.1c1.1 0 2-1 2-2.2V61l-.1-5 2.4-.4 2.3 26.6zm-25.9 18.7l-13.3 2.6c-3.7.7-7.5-.5-10.1-3.1l-9.7-9.8c2.1-.9 4-2.1 5.6-3.6.8-.8.7-2.2-.1-2.9a2.13 2.13 0 0 0-2.8 0c-2.3 2.3-7.3 4.3-14.4 5.8-2.2.4-4.2.8-5.9 1l11-15.3c.7-.9.5-2.2-.4-2.9s-2.2-.5-2.9.4l-.1.1-3 4.3-18.9-19c-.8-.8-2.1-.8-2.9-.1L8.1 72.8l10-25.7a1.95 1.95 0 0 0 0-1.5L7.6 20.1l18 13.6c.4.3.8.4 1.3.4h9.8c1.1.1 2.1-.8 2.2-1.9s-.8-2.1-1.9-2.2h-9.4L4.1 12.3c-.9-.7-2.2-.5-2.9.4-.4.6-.5 1.4-.3 2l13 31.7-13 33.3c-.4 1.1.1 2.3 1.2 2.7.7.3 1.6.1 2.2-.4l20.9-19.4 17.9 18.1-8.2 11.4c-.7.9-.5 2.2.5 2.9a1.92 1.92 0 0 0 1.2.4h.2a89.07 89.07 0 0 0 17.7-3.3l11 11.1c2.9 2.9 6.8 4.6 10.9 4.6 1 0 2-.1 2.9-.3l13.3-2.6c1.1-.2 1.9-1.2 1.8-2.4-.2-1.1-1.2-1.9-2.4-1.8-.1.2-.2.2-.2.2h0zM74.6 42.1c-.8-.8-2.1-.8-2.9 0-5.6 5.6-5.6 14.7 0 20.3.4.4.9.6 1.5.6 1.1 0 2.1-.9 2.1-2.1 0-.6-.2-1.1-.6-1.5a10.14 10.14 0 0 1 0-14.4c.7-.7.7-2-.1-2.9zm-10 0c-.8-.8-2.1-.8-2.9 0-5.6 5.6-5.6 14.7 0 20.3.4.4.9.6 1.5.6 1.1 0 2.1-.9 2.1-2.1 0-.6-.2-1.1-.6-1.5a10.14 10.14 0 0 1 0-14.4c.8-.7.8-2-.1-2.9h0z"/></svg>