<?xml version="1.0" encoding="utf-8"?>
<!-- Generator: Adobe Illustrator 24.1.1, SVG Export Plug-In . SVG Version: 6.00 Build 0)  -->
<svg version="1.1" id="f04fc098-d1da-4a16-8025-461afa65eae1"
	 xmlns="http://www.w3.org/2000/svg" xmlns:xlink="http://www.w3.org/1999/xlink" x="0px" y="0px" viewBox="0 0 172.9 121.5"
	 style="enable-background:new 0 0 172.9 121.5;" xml:space="preserve">
<style type="text/css">
	.st0{fill:#CD1E2A;}
</style>
<g>
	<g>
		<path class="st0" d="M85.8,62.8L85.8,62.8V63v0.1v0.1l2.2,1.5l-1.3,3.2l-2.5-0.6c-0.1,0.1-0.3,0.3-0.4,0.4l0.6,2.5l-3.2,1.3
			l-1.3-2.1h-0.1h-0.1h-0.1h-0.1l-1.3,2.1L75,70.3l0.6-2.5c-0.1-0.1-0.3-0.3-0.4-0.4l-2.5,0.6l-1.3-3.2l2.1-1.3v-0.1v-0.1v-0.1v-0.1
			l-2.1-1.3l1.3-3.2l2.5,0.6c0.1-0.1,0.3-0.3,0.4-0.4L75,56.3l3.2-1.3l1.3,2.1h0.1h0.1h0.1h0.1l1.3-2.1l3.2,1.3l-0.6,2.5
			c0.1,0.1,0.3,0.3,0.4,0.4l2.5-0.6l1.3,3.2L85.8,62.8z M84.8,63.9c0-0.1,0-0.3,0-0.4s0-0.3,0-0.4s0-0.3,0-0.4s0-0.3,0-0.4l2-1.2
			l-0.7-1.7l-2.2,0.5c-0.2-0.2-0.3-0.4-0.5-0.6s-0.4-0.4-0.6-0.5l0.5-2.2L81.6,56l-1.2,2c-0.1,0-0.3,0-0.4,0c-0.1,0-0.3,0-0.4,0
			c-0.1,0-0.3,0-0.4,0c-0.1,0-0.3,0-0.4,0l-1.2-2l-1.7,0.7l0.5,2.2c-0.2,0.2-0.4,0.3-0.6,0.5c-0.2,0.2-0.4,0.4-0.5,0.6l-2.2-0.5
			l-0.7,1.7l2,1.2c0,0.1,0,0.3,0,0.4s0,0.3,0,0.4s0,0.3,0,0.4s0,0.3,0,0.4l-2,1.2l0.7,1.7l2.2-0.5c0.2,0.2,0.3,0.4,0.5,0.6
			s0.4,0.4,0.6,0.5l-0.5,2.2l1.7,0.7l1.2-2c0.1,0,0.3,0,0.4,0c0.1,0,0.3,0,0.4,0c0.1,0,0.3,0,0.4,0c0.1,0,0.3,0,0.4,0l1.2,2l1.7-0.7
			l-0.5-2.2c0.2-0.2,0.4-0.3,0.6-0.5c0.2-0.2,0.4-0.4,0.5-0.6l2.2,0.5l0.7-1.7L84.8,63.9z M79.5,60.1c0.4,0,0.8,0.1,1.2,0.2
			s0.7,0.4,1,0.7c0.3,0.3,0.5,0.6,0.7,1s0.2,0.8,0.2,1.2s-0.1,0.8-0.2,1.2c-0.2,0.4-0.4,0.7-0.7,1s-0.6,0.5-1,0.7s-0.8,0.2-1.2,0.2
			s-0.8-0.1-1.2-0.2s-0.7-0.4-1-0.7c-0.3-0.3-0.5-0.6-0.7-1s-0.2-0.8-0.2-1.2s0.1-0.8,0.2-1.2c0.2-0.4,0.4-0.7,0.7-1s0.6-0.5,1-0.7
			S79.1,60.1,79.5,60.1z M79.5,65.3c0.3,0,0.6-0.1,0.9-0.2s0.5-0.3,0.7-0.5s0.4-0.4,0.5-0.7c0.1-0.3,0.2-0.5,0.2-0.9
			c0-0.3-0.1-0.6-0.2-0.9c-0.1-0.3-0.3-0.5-0.5-0.7s-0.4-0.4-0.7-0.5s-0.5-0.2-0.9-0.2c-0.3,0-0.6,0.1-0.9,0.2s-0.5,0.3-0.7,0.5
			s-0.4,0.4-0.5,0.7s-0.2,0.5-0.2,0.9c0,0.3,0.1,0.6,0.2,0.9c0.1,0.3,0.3,0.5,0.5,0.7s0.4,0.4,0.7,0.5S79.2,65.3,79.5,65.3z"/>
	</g>
	<g>
		<path class="st0" d="M57.1,16.1c0,0.4-0.2,0.8-0.4,1.2c-0.2,0.4-0.5,0.7-0.8,1s-0.7,0.5-1.1,0.6s-0.8,0.2-1.3,0.1
			c-0.4,0-0.8-0.2-1.2-0.4c-0.4-0.2-0.7-0.5-0.9-0.8c-0.3-0.3-0.5-0.7-0.6-1.1s-0.2-0.8-0.1-1.2l0.9-9.5c0.1-0.6,0.2-1.1,0.5-1.6
			s0.6-0.9,1-1.3c0.4-0.3,0.9-0.6,1.4-0.8s1.1-0.2,1.7-0.2c0.6,0.1,1.1,0.2,1.6,0.5s0.9,0.6,1.3,1c0.3,0.4,0.6,0.9,0.8,1.4
			c0.2,0.5,0.2,1.1,0.2,1.7C60.1,7,60,7.3,60,7.5c0.3,0.3,0.6,0.5,0.8,0.8c0.2,0.3,0.4,0.6,0.6,1s0.3,0.7,0.3,1.1
			c0.1,0.4,0.1,0.8,0,1.2c-0.1,0.6-0.2,1.2-0.5,1.7s-0.6,1-1,1.4s-0.9,0.7-1.4,0.9C58.2,16,57.7,16,57.1,16.1z M51.8,15.6
			c0,0.3,0,0.6,0.1,0.8c0.1,0.3,0.2,0.5,0.4,0.7c0.2,0.2,0.4,0.4,0.6,0.5s0.5,0.2,0.8,0.2s0.6,0,0.8-0.1c0.3-0.1,0.5-0.2,0.7-0.4
			c0.2-0.2,0.4-0.4,0.5-0.6s0.2-0.5,0.2-0.8l0.1-1.1h0.5c0.5,0,1,0,1.5-0.2s0.9-0.4,1.2-0.7c0.4-0.3,0.7-0.7,0.9-1.1
			c0.2-0.4,0.4-0.9,0.4-1.4c0-0.4,0-0.8-0.1-1.1c-0.1-0.4-0.2-0.7-0.4-1c-0.2-0.3-0.4-0.6-0.7-0.9c-0.3-0.3-0.6-0.5-0.9-0.6
			c0.2-0.4,0.4-0.8,0.4-1.3c0-0.4,0-0.9-0.1-1.3c-0.1-0.4-0.3-0.8-0.6-1.1c-0.3-0.3-0.6-0.6-0.9-0.8C56.8,3.1,56.4,3,56,2.9
			c-0.4,0-0.9,0-1.3,0.1s-0.8,0.3-1.1,0.6c-0.3,0.3-0.6,0.6-0.8,0.9c-0.2,0.4-0.3,0.8-0.4,1.2L51.8,15.6z"/>
	</g>
	<g>
		<path class="st0" d="M15.8,40c0.1,0,0.3,0,0.4,0.1s0.2,0.1,0.3,0.2c0.1,0.1,0.2,0.2,0.2,0.3s0.1,0.3,0.1,0.4v13.8H4l-1.9-1.9V41
			c0-0.1,0-0.3,0.1-0.4s0.1-0.2,0.2-0.3s0.2-0.2,0.3-0.2C2.8,40,3,40,3.1,40L15.8,40L15.8,40z M15.8,41h-1.1v6.3H4.2V41H3.1v11.4
			l1.3,1.3h0.8v-4.2h7.4v4.2h3.2V41z M5.3,46.3h8.5V41H5.3V46.3z M11.6,50.5H6.3v3.2h1.1v-2.1h1.1v2.1h3.2L11.6,50.5L11.6,50.5z"/>
	</g>
	<g>
		<path class="st0" d="M27.5,81.8c0.1,0.1,0.1,0.1,0.1,0.2s0.1,0.2,0.1,0.2c0,0.1,0,0.2,0.1,0.3c0,0.1,0,0.2,0,0.2
			c0,0.1,0,0.2-0.1,0.3c0,0.1-0.1,0.2-0.2,0.3c-0.1,0.1-0.2,0.1-0.3,0.2c-0.1,0-0.2,0.1-0.3,0.1H15c-0.1,0-0.2,0-0.3-0.1
			c-0.1,0-0.2-0.1-0.3-0.2c-0.1-0.1-0.1-0.2-0.2-0.3c0-0.1-0.1-0.2-0.1-0.3c0-0.1,0-0.2,0-0.2c0-0.1,0-0.2,0.1-0.3
			c0-0.1,0.1-0.2,0.1-0.2c0-0.1,0.1-0.1,0.1-0.2l1.4-1.4v-6.2H26v6.2L27.5,81.8z M26.9,82.7c0,0,0-0.1,0-0.2s0-0.1-0.1-0.2L25.5,81
			h-9l-1.3,1.3c0,0-0.1,0.1-0.1,0.2s0,0.1,0,0.2H26.9z M16.7,80.2h8.5v-5.1h-8.5V80.2z"/>
	</g>
	<g>
		<path class="st0" d="M33.1,90.4c0.2,0.4,0.4,0.8,0.5,1.2c0.1,0.4,0.2,0.9,0.2,1.3v0.9l-5.3,2.7l-5.3-2.7c0-0.3,0-0.6,0-0.9
			s0-0.6,0.1-0.8c0-0.3,0.1-0.5,0.2-0.8s0.2-0.5,0.4-0.8l-1.7-0.9v4.9c0.2,0.1,0.3,0.1,0.4,0.2s0.2,0.2,0.3,0.3s0.2,0.3,0.2,0.4
			c0,0.2,0.1,0.3,0.1,0.5v2.6H20v-2.6c0-0.2,0-0.3,0.1-0.5c0-0.2,0.1-0.3,0.2-0.4s0.2-0.2,0.3-0.3c0.1-0.1,0.3-0.2,0.4-0.2v-5.4
			l-1.1-0.5l8.5-4.2l8.5,4.2L33.1,90.4z M22.2,95.9c0-0.1-0.1-0.3-0.2-0.4s-0.2-0.2-0.4-0.2c-0.1,0-0.3,0.1-0.4,0.2S21,95.7,21,95.9
			v1.6h1.1L22.2,95.9L22.2,95.9z M22.4,88.4l6.1,3.1l6.1-3.1l-6.1-3.1L22.4,88.4z M32.8,93.2c0-0.4,0-0.8-0.1-1.2
			c-0.1-0.4-0.2-0.7-0.4-1.1l-3.7,1.8l-3.7-1.8c-0.2,0.3-0.3,0.7-0.4,1c-0.1,0.4-0.1,0.7-0.1,1.1v0.2l4.2,2.1L32.8,93.2z"/>
	</g>
	<g>
		<path class="st0" d="M47.4,2.4c0.5,0,0.9,0.1,1.3,0.3s0.8,0.4,1,0.7c0.3,0.3,0.5,0.6,0.7,1s0.3,0.8,0.3,1.3c0,0.3,0,0.5-0.1,0.8
			c-0.1,0.3-0.2,0.5-0.3,0.7S50,7.7,49.8,7.9c-0.2,0.2-0.4,0.4-0.6,0.5c0.1,0.4,0.2,0.8,0.3,1.2c0.1,0.4,0.1,0.8,0.1,1.2
			c0,0.9-0.2,1.8-0.5,2.6c-0.3,0.8-0.8,1.6-1.3,2.3l1.7,1.7l-0.7,0.7l-1.7-1.7c-0.7,0.6-1.4,1-2.3,1.3c-0.8,0.3-1.7,0.5-2.6,0.5
			s-1.8-0.2-2.6-0.5c-0.8-0.3-1.6-0.8-2.3-1.3l-1.7,1.7L35,17.3l1.7-1.7c-0.6-0.7-1-1.4-1.3-2.3s-0.5-1.7-0.5-2.6
			c0-0.4,0-0.8,0.1-1.2c0.1-0.4,0.2-0.8,0.3-1.2c-0.2-0.1-0.4-0.3-0.6-0.5S34.4,7.3,34.2,7S34,6.5,33.9,6.3
			c-0.1-0.3-0.1-0.5-0.1-0.8c0-0.5,0.1-0.9,0.3-1.3c0.2-0.4,0.4-0.8,0.7-1c0.3-0.3,0.6-0.5,1-0.7s0.8-0.3,1.3-0.3
			c0.3,0,0.5,0,0.8,0.1s0.5,0.2,0.8,0.3c0.2,0.1,0.5,0.3,0.7,0.5s0.4,0.4,0.5,0.6c0.4-0.1,0.8-0.2,1.2-0.3c0.4-0.1,0.8-0.1,1.2-0.1
			c0.4,0,0.8,0,1.2,0.1c0.4,0.1,0.8,0.2,1.2,0.3c0.1-0.2,0.3-0.4,0.5-0.6c0.2-0.2,0.4-0.3,0.7-0.5c0.2-0.1,0.5-0.2,0.7-0.3
			C46.9,2.4,47.2,2.4,47.4,2.4z M37.1,3.4c-0.3,0-0.6,0.1-0.9,0.2c-0.3,0.1-0.5,0.3-0.7,0.5S35.1,4.5,35,4.8s-0.2,0.6-0.2,0.9
			c0,0.3,0.1,0.7,0.2,1c0.1,0.3,0.4,0.6,0.6,0.8c0.4-0.7,0.8-1.3,1.3-1.8s1.1-1,1.8-1.3c-0.2-0.3-0.5-0.5-0.8-0.6
			C37.8,3.5,37.5,3.4,37.1,3.4z M42.3,17.1c0.9,0,1.7-0.2,2.5-0.5s1.4-0.8,2-1.4s1-1.2,1.4-2c0.3-0.8,0.5-1.6,0.5-2.5
			S48.5,9,48.2,8.3s-0.8-1.4-1.4-2s-1.2-1-2-1.4c-0.8-0.3-1.6-0.5-2.5-0.5s-1.7,0.2-2.5,0.5s-1.4,0.8-2,1.4c-0.6,0.6-1,1.2-1.4,2
			c-0.3,0.8-0.5,1.6-0.5,2.5s0.2,1.7,0.5,2.5s0.8,1.4,1.4,2s1.2,1,2,1.4S41.4,17.1,42.3,17.1z M45.5,10.8v1.1h-4.2V6.6h1.1v4.2H45.5
			z M48.9,7.4c0.3-0.2,0.5-0.5,0.6-0.8s0.2-0.6,0.2-1c0-0.3-0.1-0.6-0.2-0.9C49.4,4.4,49.2,4.2,49,4s-0.4-0.4-0.7-0.5
			c-0.3-0.1-0.6-0.2-0.9-0.2s-0.7,0.1-1,0.2c-0.3,0.1-0.6,0.4-0.8,0.6c0.7,0.4,1.3,0.8,1.8,1.3C48.1,6.1,48.5,6.7,48.9,7.4z"/>
	</g>
	<g>
		<path class="st0" d="M36.4,117.1c0,0.2,0,0.3-0.1,0.4s-0.2,0.2-0.3,0.3s-0.3,0.1-0.4,0.2c-0.1,0-0.3,0.1-0.4,0.1s-0.3,0-0.4-0.1
			c-0.1,0-0.3-0.1-0.4-0.2s-0.2-0.2-0.3-0.3s-0.1-0.3-0.1-0.4c0-0.2,0-0.3,0.1-0.4s0.2-0.2,0.3-0.3c0.1-0.1,0.3-0.1,0.4-0.2
			c0.1,0,0.3-0.1,0.4-0.1s0.3,0,0.4,0s0.2,0.1,0.4,0.2v-3.8l-3.5,0.9v4.7c0,0.2,0,0.3-0.1,0.4s-0.2,0.2-0.3,0.3
			c-0.1,0.1-0.3,0.1-0.4,0.2c-0.1,0-0.3,0.1-0.4,0.1s-0.3,0-0.4-0.1c-0.1,0-0.3-0.1-0.4-0.2c-0.1-0.1-0.2-0.2-0.3-0.3
			c-0.1-0.1-0.1-0.3-0.1-0.4c0-0.2,0-0.3,0.1-0.4s0.2-0.2,0.3-0.3c0.1-0.1,0.3-0.1,0.4-0.2c0.1,0,0.3-0.1,0.4-0.1s0.3,0,0.4,0
			s0.2,0.1,0.4,0.2v-4.3l4.5-1.1v5.2H36.4z M31.1,118.6c0.1,0,0.1,0,0.2,0s0.2-0.1,0.2-0.1s0.1-0.1,0.2-0.2s0.1-0.1,0.1-0.2
			s0-0.2-0.1-0.2c-0.1-0.1-0.1-0.1-0.2-0.2s-0.2-0.1-0.2-0.1c-0.1,0-0.2,0-0.2,0c-0.1,0-0.1,0-0.2,0s-0.2,0.1-0.2,0.1
			s-0.1,0.1-0.2,0.2s-0.1,0.1-0.1,0.2s0,0.2,0.1,0.2c0.1,0.1,0.1,0.1,0.2,0.2s0.2,0.1,0.2,0.1C31,118.4,31.1,118.6,31.1,118.6z
			 M35.1,117.6c0.1,0,0.1,0,0.2,0s0.2-0.1,0.2-0.1s0.1-0.1,0.2-0.2s0.1-0.1,0.1-0.2s0-0.2-0.1-0.2c-0.1-0.1-0.1-0.1-0.2-0.2
			s-0.2-0.1-0.2-0.1c-0.1,0-0.2,0-0.2,0c-0.1,0-0.1,0-0.2,0s-0.2,0.1-0.2,0.1c-0.1,0-0.1,0.1-0.2,0.2s-0.1,0.1-0.1,0.2
			s0,0.2,0.1,0.2c0.1,0.1,0.1,0.1,0.2,0.2c0.1,0,0.2,0.1,0.2,0.1C35,117.6,35,117.6,35.1,117.6z"/>
	</g>
	<g>
		<path class="st0" d="M56.5,51.5c0.2,0,0.4,0,0.5,0.1s0.3,0.2,0.5,0.3s0.2,0.3,0.3,0.5c0.1,0.2,0.1,0.4,0.1,0.5v3.9h-1.1v-3.9
			c0-0.1,0-0.2-0.1-0.3s-0.2-0.1-0.3-0.1H45.5c-0.1,0-0.2,0-0.3,0.1c-0.1,0.1-0.1,0.2-0.1,0.3v3.9H44v-3.9c0-0.2,0-0.4,0.1-0.5
			c0.1-0.2,0.2-0.3,0.3-0.5s0.3-0.2,0.5-0.3s0.4-0.1,0.5-0.1h2.8v-1.1h-0.7c-0.2,0-0.4,0-0.5-0.1s-0.3-0.2-0.5-0.3
			c-0.1-0.1-0.2-0.3-0.3-0.5c-0.1-0.2-0.1-0.4-0.1-0.5v-0.7H45v-2.1h1.1v-0.7c0-0.2,0-0.4,0.1-0.5c0.1-0.2,0.2-0.3,0.3-0.5
			c0.1-0.1,0.3-0.2,0.5-0.3s0.4-0.1,0.5-0.1h2.8v-1.7c-0.2-0.1-0.3-0.2-0.4-0.4s-0.1-0.3-0.1-0.5c0-0.1,0-0.3,0.1-0.4
			c0.1-0.1,0.1-0.2,0.2-0.3s0.2-0.2,0.3-0.2c0.1-0.1,0.3-0.1,0.4-0.1s0.3,0,0.4,0.1s0.2,0.1,0.3,0.2c0.1,0.1,0.2,0.2,0.2,0.3
			c0.1,0.1,0.1,0.3,0.1,0.4c0,0.2,0,0.4-0.1,0.5c-0.1,0.2-0.2,0.3-0.4,0.4v1.7h2.8c0.2,0,0.4,0,0.5,0.1c0.2,0.1,0.3,0.2,0.5,0.3
			c0.1,0.1,0.2,0.3,0.3,0.5c0.1,0.2,0.1,0.4,0.1,0.5v0.7h1.1v2.1h-1.1V49c0,0.2,0,0.4-0.1,0.5s-0.2,0.3-0.3,0.5
			c-0.1,0.1-0.3,0.2-0.5,0.3s-0.4,0.1-0.5,0.1h-0.7v1.1H56.5z M47.3,49c0,0.1,0,0.2,0.1,0.3s0.2,0.1,0.3,0.1h6.7
			c0.1,0,0.2,0,0.3-0.1c0.1-0.1,0.1-0.2,0.1-0.3v-3.5c0-0.1,0-0.2-0.1-0.3s-0.2-0.1-0.3-0.1h-6.7c-0.1,0-0.2,0-0.3,0.1
			c-0.1,0.1-0.1,0.2-0.1,0.3V49z M48.4,46.2h1.1v1.1h-1.1V46.2z M49.5,51.5h3.2v-1.1h-3.2V51.5z M52.6,46.2h1.1v1.1h-1.1V46.2z"/>
	</g>
	<g>
		<path class="st0" d="M27.9,57.3l-5.3-1.5l-5.2,2l4.6-16L27.9,57.3z M22,54.8l-0.3-8.5L18.9,56L22,54.8z M26.2,55.7l-3.6-9.5
			l0.4,8.6L26.2,55.7z"/>
	</g>
	<g>
		<path class="st0" d="M34.2,81.6c-0.1,0-0.1,0-0.2,0c0,0-0.1,0-0.1,0.1l-0.1,0.1c0,0,0,0.1,0,0.2s0,0.1,0,0.2l0.1,0.1l0.1,0.1
			c0,0,0.1,0,0.2,0h0.6v1.6h-1.2v0.2c0,0.1,0,0.2-0.1,0.3c0,0.1-0.1,0.2-0.2,0.3c-0.1,0.1-0.2,0.1-0.3,0.2c-0.1,0-0.2,0.1-0.3,0.1
			c-0.1,0-0.2,0-0.3-0.1c-0.1,0-0.2-0.1-0.3-0.2c-0.1-0.1-0.1-0.2-0.2-0.3c0-0.1-0.1-0.2-0.1-0.3v-0.2h-1.2v-1.2h-0.2
			c-0.1,0-0.2,0-0.3-0.1c-0.1,0-0.2-0.1-0.3-0.2c-0.1-0.1-0.1-0.2-0.2-0.3c0-0.1-0.1-0.2-0.1-0.3c0-0.1,0-0.2,0.1-0.3
			c0-0.1,0.1-0.2,0.2-0.3c0.1-0.1,0.2-0.1,0.3-0.2c0.1,0,0.2-0.1,0.3-0.1h0.2v-1.2H32v-0.2c0-0.1,0-0.2,0.1-0.3
			c0-0.1,0.1-0.2,0.2-0.3c0.1-0.1,0.2-0.1,0.3-0.2c0.1,0,0.2-0.1,0.3-0.1c0.1,0,0.2,0,0.3,0.1c0.1,0,0.2,0.1,0.3,0.2
			c0.1,0.1,0.1,0.2,0.2,0.3c0,0.1,0.1,0.2,0.1,0.3v0.2H35v1.6h-0.8V81.6z M34.2,82.8c-0.1,0-0.2,0-0.3-0.1c-0.1,0-0.2-0.1-0.3-0.2
			c-0.1-0.1-0.1-0.2-0.2-0.3c0-0.1-0.1-0.2-0.1-0.3c0-0.1,0-0.2,0.1-0.3c0-0.1,0.1-0.2,0.2-0.3c0.1-0.1,0.2-0.1,0.3-0.2
			c0.1,0,0.2-0.1,0.3-0.1h0.2v-0.8h-1.2v-0.6c0-0.1,0-0.1,0-0.2l-0.1-0.1L33,79.2c0,0-0.1,0-0.2,0s-0.1,0-0.2,0l-0.1,0.1l-0.1,0.1
			c0,0,0,0.1,0,0.2v0.6h-1.2v1.2h-0.6c-0.1,0-0.1,0-0.2,0c0,0-0.1,0-0.1,0.1l-0.1,0.1c0,0,0,0.1,0,0.2s0,0.1,0,0.2l0.1,0.1l0.1,0.1
			c0,0,0.1,0,0.2,0h0.6v1.2h1.2v0.6c0,0.1,0,0.1,0,0.2l0.1,0.1l0.1,0.1c0,0,0.1,0,0.2,0s0.1,0,0.2,0l0.1-0.1l0.1-0.1
			c0,0,0-0.1,0-0.2v-0.6h1.2v-0.6H34.2z"/>
	</g>
	<g>
		<path class="st0" d="M153.4,85.7c-0.1,0.5-0.2,1-0.5,1.4c-0.2,0.4-0.6,0.8-0.9,1.1c-0.4,0.3-0.8,0.5-1.2,0.7
			c-0.5,0.2-0.9,0.2-1.4,0.2l-0.7,4.4l1.3,0.2c0.1,0,0.2,0.1,0.3,0.2s0.1,0.2,0.1,0.3c0,0.1-0.1,0.2-0.2,0.3
			c-0.1,0.1-0.2,0.1-0.3,0.1l-3.5-0.5c-0.1,0-0.2-0.1-0.3-0.2s-0.1-0.2-0.1-0.3c0-0.1,0.1-0.2,0.2-0.3c0.1-0.1,0.2-0.1,0.3-0.1
			l1.3,0.2l0.7-4.4c-0.5-0.1-0.9-0.3-1.3-0.6c-0.4-0.3-0.7-0.6-1-1s-0.4-0.8-0.6-1.3c-0.1-0.5-0.1-1,0-1.5c0.1-0.4,0.2-0.8,0.3-1.2
			c0.1-0.4,0.3-0.7,0.5-1.1l1.2-2.3l5.4,0.8l0.4,2.6c0.1,0.4,0.1,0.8,0.1,1.2C153.5,84.8,153.4,85.3,153.4,85.7z M146.4,84.6
			c-0.1,0.4,0,0.8,0.1,1.2c0.1,0.4,0.3,0.7,0.5,1.1s0.5,0.6,0.9,0.8c0.3,0.2,0.7,0.4,1.2,0.4c0.4,0.1,0.8,0,1.2-0.1s0.8-0.3,1.1-0.5
			s0.6-0.5,0.8-0.9c0.2-0.3,0.4-0.7,0.4-1.2c0.1-0.3,0.1-0.7,0.1-1s0-0.7-0.1-1c0-0.3-0.1-0.7-0.2-1c-0.1-0.3-0.1-0.7-0.2-1
			l-4.2-0.6l-0.9,1.8c-0.2,0.3-0.3,0.6-0.4,1C146.5,83.8,146.5,84.2,146.4,84.6z"/>
	</g>
	<g>
		<path class="st0" d="M169.7,82.8c0.1,0.1,0.1,0.2,0.2,0.4c0,0.1,0,0.3,0,0.4s-0.1,0.3-0.2,0.4l-3.2,4.9c-0.1,0.2-0.3,0.3-0.4,0.4
			s-0.4,0.2-0.6,0.2c-0.2,0-0.4,0-0.6,0c-0.2,0-0.4-0.1-0.6-0.2l-2.2-1.5c-0.2-0.1-0.4-0.3-0.5-0.4c-0.1-0.2-0.3-0.3-0.4-0.5
			c-0.1-0.1-0.2-0.2-0.2-0.3c-0.1-0.1-0.2-0.2-0.3-0.3c-0.2-0.1-0.3-0.2-0.5-0.2s-0.3-0.1-0.5-0.1s-0.3-0.1-0.5-0.1
			c-0.2-0.1-0.4-0.1-0.6-0.3l-0.9-0.6c-0.7-0.5-1.4-1-2-1.6c-0.7-0.6-1.2-1.2-1.7-1.9c-0.2-0.2-0.3-0.5-0.5-0.7
			c-0.2-0.3-0.3-0.6-0.4-0.8s-0.1-0.6-0.1-0.9s0.1-0.6,0.3-0.8l0.1-0.2c0.1-0.2,0.3-0.3,0.5-0.4s0.4-0.2,0.6-0.2c0.2,0,0.4,0,0.7,0
			c0.2,0,0.4,0,0.6,0.1c0.4,0.1,0.7,0.2,1.1,0.3c0.4,0.1,0.7,0.2,1.1,0.2c0-0.1,0-0.2,0.1-0.3c0.1-0.1,0.2-0.2,0.3-0.2
			s0.3,0,0.4,0.1c0.1,0.1,0.2,0.2,0.2,0.3c0,0.1,0.1,0.3,0.1,0.4c0.2,0,0.4,0.1,0.6,0.1c0.2,0,0.4,0.1,0.6,0.1c0-0.1,0-0.2,0-0.2
			c0-0.1,0-0.1,0.1-0.2s0.2-0.2,0.3-0.2s0.3,0,0.4,0.1c0.1,0.1,0.2,0.2,0.2,0.3c0,0.1,0.1,0.3,0.1,0.4c0.2,0,0.4,0,0.6,0
			c0.2,0,0.4,0,0.6,0c0-0.1,0-0.2,0.1-0.3c0.1-0.1,0.2-0.2,0.3-0.2s0.3,0,0.4,0.1c0.1,0.1,0.1,0.1,0.2,0.2c0,0.1,0.1,0.2,0.1,0.3
			c0.1,0,0.2,0,0.3,0s0.2,0,0.3,0l0,0c0.2,0,0.4,0,0.6,0.1c0.2,0,0.4,0.1,0.5,0.2c0.3,0.2,0.4,0.4,0.6,0.6c0.1,0.2,0.2,0.4,0.3,0.7
			c0.1,0.2,0.1,0.5,0.2,0.7c0,0.2,0.1,0.5,0.1,0.7c0.1,0.2,0.1,0.4,0.3,0.6c0.1,0.2,0.3,0.4,0.5,0.5c0.1,0.1,0.3,0.1,0.4,0.1
			c0.1,0,0.3-0.1,0.5-0.1c0.2-0.1,0.3-0.1,0.5-0.1s0.4,0,0.6,0.2C169.6,82.4,169.7,82.6,169.7,82.8z M154.2,78.7l12.4,8.1l2.3-3.5
			h-0.1c-0.2,0.1-0.3,0.1-0.5,0.1s-0.3,0.1-0.4,0.1c-0.1,0-0.3,0-0.4,0c-0.1,0-0.3-0.1-0.4-0.2c-0.3-0.2-0.5-0.4-0.7-0.6
			s-0.3-0.5-0.4-0.7c-0.1-0.3-0.2-0.5-0.2-0.8c-0.1-0.3-0.1-0.6-0.2-0.9l0,0c0-0.2-0.1-0.3-0.2-0.4c-0.1-0.1-0.2-0.2-0.3-0.3
			c-0.2-0.1-0.3-0.1-0.5-0.1s-0.3,0-0.5,0l0.2,1c0,0.1,0,0.3-0.1,0.4S164,81,163.9,81s-0.3,0-0.4-0.1c-0.1-0.1-0.2-0.2-0.2-0.3
			l-0.3-1.2c-0.2,0-0.4,0-0.6,0c-0.2,0-0.4,0-0.6,0l0.2,0.8c0,0.1,0,0.3-0.1,0.4s-0.2,0.2-0.3,0.2s-0.3,0-0.4-0.1
			c-0.1-0.1-0.2-0.2-0.2-0.3l-0.2-1.1c-0.2,0-0.4,0-0.6-0.1c-0.2,0-0.4-0.1-0.6-0.1c0,0.1,0,0.2,0.1,0.3c0,0.1,0,0.2,0.1,0.3
			c0,0.1,0,0.2,0,0.3c0,0.1,0,0.2-0.1,0.3c-0.1,0.1-0.2,0.2-0.3,0.2s-0.3,0-0.4-0.1c-0.1-0.1-0.2-0.2-0.2-0.3l-0.2-1.2
			c-0.5-0.1-0.9-0.2-1.3-0.3c-0.4-0.1-0.9-0.2-1.3-0.3c-0.1,0-0.2,0-0.3,0s-0.3,0-0.4,0c-0.1,0-0.2,0-0.4,0.1
			c-0.1,0-0.2,0.1-0.2,0.2H154.2z M164.9,88.3c0.1,0.1,0.3,0.1,0.4,0.1c0.1,0,0.3-0.1,0.3-0.2l0.4-0.5l-11.6-7.6
			c0.2,0.4,0.5,0.8,0.9,1.2c0.3,0.4,0.7,0.8,1.1,1.1c0.4,0.4,0.8,0.7,1.3,1c0.4,0.3,0.9,0.6,1.3,0.9c0.2,0.1,0.3,0.2,0.5,0.3
			c0.2,0.1,0.4,0.1,0.6,0.2c0.2,0,0.5,0.1,0.7,0.1c0.2,0.1,0.4,0.2,0.6,0.3c0.2,0.1,0.4,0.3,0.5,0.4s0.2,0.3,0.3,0.4
			s0.2,0.3,0.3,0.4s0.2,0.2,0.4,0.3L164.9,88.3z"/>
	</g>
	<g>
		<path class="st0" d="M16.6,63.9l1.2-1.2c-0.2-0.1-0.4-0.2-0.6-0.3c-0.2-0.1-0.3-0.3-0.5-0.5c-0.1-0.2-0.2-0.4-0.3-0.6
			c-0.1-0.2-0.1-0.4-0.1-0.7c0-0.3,0.1-0.6,0.2-0.8c0.1-0.3,0.3-0.5,0.5-0.7s0.4-0.3,0.7-0.5c0.3-0.1,0.5-0.2,0.8-0.2
			s0.6,0.1,0.8,0.2s0.5,0.3,0.7,0.5s0.3,0.4,0.5,0.7c0.1,0.3,0.2,0.5,0.2,0.8h4.2c0.1,0,0.3,0,0.4,0.1s0.2,0.1,0.3,0.2
			c0.1,0.1,0.2,0.2,0.2,0.3s0.1,0.3,0.1,0.4v3.2c0,0.3-0.1,0.6-0.3,0.9c-0.2,0.3-0.4,0.5-0.7,0.6l0.7,0.7H28c0.2,0,0.4,0,0.6,0.1
			s0.4,0.2,0.5,0.3c0.1,0.1,0.3,0.3,0.3,0.5c0.1,0.2,0.1,0.4,0.1,0.6s0,0.4-0.1,0.6s-0.2,0.4-0.3,0.5c-0.1,0.1-0.3,0.3-0.5,0.3
			C28.4,70,28.2,70,28,70h-3.7c-0.1,0-0.3-0.1-0.4-0.2l-1.2-1.2l-1.1,1.1v1.9c0,0.2,0,0.4-0.1,0.6s-0.2,0.4-0.3,0.5
			c-0.1,0.1-0.3,0.3-0.5,0.3c-0.2,0.1-0.4,0.1-0.6,0.1s-0.4,0-0.6-0.1s-0.4-0.2-0.5-0.3s-0.3-0.3-0.3-0.5c-0.1-0.2-0.1-0.4-0.1-0.6
			v-2.9c0-0.1,0.1-0.3,0.2-0.4l1.7-1.7l-1-0.9l-1.2,1.2c-0.1,0.1-0.2,0.2-0.4,0.2h-2.6c-0.2,0-0.4,0-0.6-0.1s-0.4-0.2-0.5-0.3
			c-0.1-0.1-0.3-0.3-0.3-0.5c-0.1-0.2-0.1-0.4-0.1-0.6s0-0.4,0.1-0.6s0.2-0.4,0.3-0.5c0.1-0.1,0.3-0.3,0.5-0.3
			c0.2-0.1,0.4-0.1,0.6-0.1h1.3V63.9z M17.7,66.1l1.4-1.4c0.1-0.1,0.2-0.2,0.4-0.2c0.1,0,0.3,0.1,0.4,0.2l1.6,1.6
			c0.1,0.1,0.2,0.2,0.2,0.4s-0.1,0.3-0.2,0.4l-2,2v3c0,0.1,0.1,0.3,0.2,0.4s0.2,0.2,0.4,0.2s0.3-0.1,0.4-0.2s0.2-0.2,0.2-0.4v-2.3
			c0-0.1,0.1-0.3,0.2-0.4l1.6-1.6c0.1-0.1,0.2-0.2,0.4-0.2c0.1,0,0.3,0.1,0.4,0.2l1.4,1.4H28c0.1,0,0.3-0.1,0.4-0.2s0.2-0.2,0.2-0.4
			s-0.1-0.3-0.2-0.4S28.2,68,28,68h-2.6c-0.1,0-0.3-0.1-0.4-0.2l-2.1-2.1c-0.1-0.1-0.2-0.2-0.2-0.4v-1.6h-1.1
			c-0.1,0-0.3-0.1-0.4-0.2S21,63.3,21,63.1c0-0.1,0.1-0.3,0.2-0.4s0.2-0.2,0.4-0.2h1.6c0.2,0,0.3,0.1,0.4,0.2s0.1,0.3,0.1,0.5
			s0,0.4,0,0.6s0,0.4,0,0.6s0.1,0.4,0.1,0.5s0.2,0.2,0.4,0.2c0.1,0,0.3-0.1,0.4-0.2s0.2-0.2,0.2-0.4v-3.2h-4.5l-3,3
			c-0.1,0.1-0.2,0.1-0.4,0.2c-0.2,0-0.3,0-0.5,0s-0.4,0-0.6,0s-0.4,0-0.5,0c-0.2,0-0.3,0.1-0.4,0.1c-0.1,0.1-0.1,0.2-0.1,0.4
			c0,0.1,0.1,0.3,0.2,0.4s0.2,0.2,0.4,0.2h2.3V66.1z M18,59.8c-0.1,0.1-0.2,0.1-0.3,0.2c-0.1,0.1-0.2,0.2-0.2,0.4
			c0,0.1-0.1,0.3-0.1,0.4s0,0.3,0.1,0.4s0.1,0.2,0.2,0.3s0.2,0.2,0.3,0.2c0.1,0.1,0.3,0.1,0.4,0.1s0.3,0,0.4-0.1s0.2-0.1,0.3-0.2
			s0.2-0.2,0.2-0.3c0.1-0.1,0.1-0.3,0.1-0.4s0-0.3-0.1-0.4s-0.1-0.2-0.2-0.3c-0.1-0.1-0.2-0.2-0.3-0.2c-0.1-0.1-0.2-0.1-0.4-0.1
			C18.3,59.8,18.1,59.8,18,59.8z"/>
	</g>
	<g>
		<path class="st0" d="M73.2,79.6h-7.4c0-0.7,0.1-1.3,0.3-2c0.2-0.6,0.4-1.2,0.7-1.8s0.7-1,1.2-1.5c0.4-0.4,0.9-0.8,1.5-1.2
			c0.5-0.3,1.1-0.6,1.8-0.7c0.6-0.2,1.3-0.3,2-0.3v7.5H73.2z M73,80.7l-5.2,5.2c-0.7-0.7-1.1-1.5-1.5-2.4s-0.5-1.8-0.5-2.8
			C65.8,80.6,73,80.6,73,80.7z M72.2,73.3c-0.7,0.1-1.3,0.3-1.9,0.6c-0.6,0.3-1.1,0.7-1.6,1.1c-0.5,0.5-0.8,1-1.1,1.6
			s-0.5,1.2-0.6,1.9h5.2L72.2,73.3L72.2,73.3z M67,81.7c0.1,0.4,0.2,0.9,0.3,1.3c0.2,0.4,0.4,0.8,0.6,1.2l2.5-2.5H67z M74.3,73.3
			c0.3,0,0.6,0,0.9,0s0.6,0,0.9,0.1c0.3,0,0.6,0.1,0.9,0.2c0.3,0.1,0.6,0.2,0.9,0.3c0.7,0.3,1.4,0.7,2,1.2s1.1,1.1,1.5,1.7
			s0.7,1.3,1,2.1c0.2,0.7,0.3,1.5,0.3,2.3c0,0.7-0.1,1.4-0.3,2.1s-0.5,1.3-0.8,1.9s-0.8,1.1-1.2,1.6c-0.5,0.5-1,0.9-1.6,1.2
			c-0.6,0.3-1.2,0.6-1.9,0.8S75.5,89,74.8,89c-1.1,0-2.1-0.2-3-0.6c-1-0.4-1.8-1-2.6-1.7l-0.4-0.4l5.5-5.5L74.3,73.3L74.3,73.3z
			 M74.8,88.1c0.6,0,1.2-0.1,1.8-0.2c0.6-0.2,1.1-0.4,1.6-0.7c0.5-0.3,1-0.7,1.4-1.1s0.8-0.9,1.1-1.4s0.5-1.1,0.7-1.6
			c0.2-0.6,0.2-1.2,0.2-1.8c0-0.6-0.1-1.2-0.2-1.7S81,78.5,80.8,78c-0.3-0.5-0.6-0.9-1-1.4c-0.4-0.4-0.8-0.8-1.3-1.1
			c-0.5-0.3-1-0.6-1.5-0.7c-0.5-0.2-1.1-0.3-1.7-0.4v7.1l-5,5c0.6,0.5,1.3,1,2.1,1.2S74,88.1,74.8,88.1z"/>
	</g>
	<g>
		<path class="st0" d="M81.8,88.8c0.7,0,1.4,0.1,2.1,0.3c0.7,0.2,1.3,0.5,1.9,0.8c0.6,0.3,1.1,0.8,1.6,1.2c0.5,0.5,0.9,1,1.2,1.6
			s0.6,1.2,0.8,1.9c0.2,0.7,0.3,1.4,0.3,2.1s-0.1,1.4-0.3,2.1s-0.5,1.3-0.8,1.9s-0.8,1.1-1.2,1.6c-0.5,0.5-1,0.9-1.6,1.2
			c-0.6,0.3-1.2,0.6-1.9,0.8c-0.7,0.2-1.4,0.3-2.1,0.3c-0.7,0-1.4-0.1-2.1-0.3c-0.7-0.2-1.3-0.5-1.9-0.8c-0.6-0.3-1.1-0.8-1.6-1.2
			c-0.5-0.5-0.9-1-1.2-1.6s-0.6-1.2-0.8-1.9c-0.2-0.7-0.3-1.4-0.3-2.1s0.1-1.4,0.3-2.1s0.5-1.3,0.8-1.9s0.8-1.1,1.2-1.6
			c0.5-0.5,1-0.9,1.6-1.2c0.6-0.3,1.2-0.6,1.9-0.8S81.1,88.8,81.8,88.8z M78.1,96.2c-0.1-0.7-0.2-1.4-0.5-2S77,93,76.5,92.3
			c-0.4,0.5-0.8,1.1-1.1,1.8c-0.3,0.7-0.4,1.3-0.5,2H78.1z M76.5,101.1c0.5-0.5,0.8-1.1,1.1-1.8s0.4-1.3,0.5-2H75
			c0.1,0.7,0.2,1.4,0.5,2C75.7,99.8,76.1,100.4,76.5,101.1z M81.3,89.8c-0.8,0.1-1.5,0.2-2.2,0.5s-1.3,0.7-1.9,1.2
			c0.6,0.6,1,1.3,1.4,2.1c0.3,0.8,0.5,1.6,0.6,2.5h2.1L81.3,89.8L81.3,89.8z M77.2,101.8c0.6,0.5,1.2,0.9,1.9,1.2s1.4,0.5,2.2,0.5
			v-6.3h-2.1c-0.1,0.9-0.3,1.7-0.6,2.5C78.3,100.4,77.8,101.2,77.2,101.8z M86.4,91.6c-0.6-0.5-1.2-0.9-1.9-1.2s-1.4-0.5-2.2-0.5
			v6.3h2.1c0.1-0.9,0.3-1.7,0.6-2.5C85.4,92.9,85.9,92.3,86.4,91.6z M82.4,103.6c0.8-0.1,1.5-0.2,2.2-0.5s1.3-0.7,1.9-1.2
			c-0.6-0.6-1-1.3-1.4-2.1c-0.3-0.8-0.5-1.6-0.6-2.5h-2.1L82.4,103.6L82.4,103.6z M88.7,96.2c-0.1-0.7-0.2-1.4-0.5-2
			c-0.3-0.7-0.6-1.2-1.1-1.8c-0.5,0.5-0.8,1.1-1.1,1.8s-0.4,1.3-0.5,2H88.7z M85.6,97.3c0.1,0.7,0.2,1.4,0.5,2s0.6,1.2,1.1,1.8
			c0.4-0.5,0.8-1.1,1.1-1.8c0.3-0.7,0.4-1.3,0.5-2H85.6z"/>
	</g>
	<g>
		<path class="st0" d="M118.2,88.9c0.2-0.2,0.5-0.3,0.8-0.3c0.3-0.1,0.5-0.1,0.8,0c0.3,0,0.5,0.1,0.8,0.3s0.5,0.3,0.6,0.6
			c0.2,0.2,0.3,0.5,0.4,0.8c0.1,0.3,0.1,0.5,0,0.8c0,0.3-0.1,0.5-0.3,0.8c-0.1,0.2-0.3,0.5-0.6,0.6l-3,2.2l1.2,7l-3,2.2l-2.1-6.4
			l-1.7,1.3l0.2,1.2l-3,2.2l-1-3.2l-2.7-1.9l3-2.2l1.1,0.5l1.7-1.3l-5.5-3.9l3-2.2l6.3,3.2L118.2,88.9z M120.1,91.6
			c0.1-0.1,0.2-0.2,0.3-0.3c0.1-0.1,0.1-0.2,0.1-0.4c0-0.1,0-0.3,0-0.4s-0.1-0.3-0.2-0.4c-0.1-0.1-0.2-0.2-0.3-0.3s-0.2-0.1-0.4-0.1
			c-0.1,0-0.3,0-0.4,0c-0.1,0-0.3,0.1-0.4,0.2l-3.5,2.6c-1.1-0.5-2.1-1.1-3.2-1.6c-1-0.5-2.1-1.1-3.2-1.6l-1.3,0.9
			c0.9,0.6,1.8,1.3,2.7,1.9s1.8,1.3,2.7,1.9l-3.4,2.5l-1.1-0.5l-1.3,0.9c0.3,0.2,0.6,0.4,0.9,0.6c0.3,0.2,0.6,0.4,0.9,0.6
			c0.1,0.4,0.2,0.7,0.3,1.1s0.2,0.7,0.4,1.1l1.3-0.9l-0.2-1.2l3.4-2.5c0.3,1.1,0.7,2.1,1,3.2s0.7,2.1,1,3.2l1.3-0.9
			c-0.2-1.2-0.4-2.3-0.6-3.5c-0.2-1.2-0.4-2.3-0.6-3.5L120.1,91.6z"/>
	</g>
	<g>
		<path class="st0" d="M167.3,40.5v16.9h-20.8V40.5H167.3z M147.9,41.8V43H166v-1.3H147.9z M166,56.1V44.3h-18.2V56
			C147.8,56,166,56,166,56.1z M154,47.8c-0.4,0-0.7,0.1-1,0.2c-0.3,0.1-0.5,0.3-0.8,0.5c-0.2,0.2-0.4,0.5-0.5,0.8s-0.2,0.7-0.2,1.1
			c0,0.4,0.1,0.7,0.2,1s0.3,0.6,0.5,0.8s0.4,0.4,0.7,0.5s0.6,0.2,1,0.2c0.2,0,0.5,0,0.7-0.1c0.2,0,0.4-0.1,0.6-0.2l0.2,0.6
			c-0.1,0.1-0.4,0.1-0.6,0.2c-0.3,0.1-0.6,0.1-1,0.1s-0.8-0.1-1.2-0.2c-0.4-0.1-0.7-0.3-1-0.6s-0.5-0.6-0.6-1
			c-0.2-0.4-0.2-0.8-0.2-1.3s0.1-0.9,0.2-1.3c0.2-0.4,0.4-0.7,0.7-1s0.6-0.5,1-0.7s0.8-0.2,1.3-0.2c0.4,0,0.7,0,0.9,0.1
			s0.4,0.1,0.5,0.2l-0.2,0.6c-0.1-0.1-0.3-0.1-0.5-0.2C154.5,47.8,154.3,47.8,154,47.8z M157,48.3h1.3v1.3H157V48.3z M157,50.8h1.3
			v1.3H157V50.8z M160.7,47l2.6,6.5h-0.9l-2.6-6.5H160.7z"/>
	</g>
	<g>
		<path class="st0" d="M159.3,98.8h8v20H146V98l13.3,13.3V98.8z M147.3,117.6h16.4l-16.4-16.4V117.6z M150,108.6l6.3,6.3H150V108.6z
			 M151.3,111.8v1.7h1.7L151.3,111.8z M164.3,116.2l1.3,1.3h0.4v-17.3h-5.3v1.3h2.7v1.3h-2.7v1.3h2.7v1.3h-2.7v1.3h4v1.3h-4v1.3h2.7
			v1.3h-2.7v1.3h2.7v1.3h-1.7l1.3,1.3h1.7v1.3h-0.4V116.2z"/>
	</g>
	<g>
		<path class="st0" d="M14.2,25.5c0-0.4,0.1-0.8,0.3-1.2c0.2-0.4,0.4-0.7,0.7-1c0.3-0.3,0.6-0.5,1-0.6c0.4-0.2,0.8-0.2,1.2-0.2
			c0.4,0,0.9,0.1,1.2,0.3c0.4,0.2,0.7,0.4,1,0.7s0.5,0.6,0.6,1c0.2,0.4,0.2,0.8,0.2,1.2v0.9c0.4,0.3,0.8,0.6,1.1,0.9
			c0.3,0.3,0.6,0.7,0.9,1.1l0.1-2.3c0-0.1,0.1-0.3,0.2-0.4c0.1-0.1,0.2-0.1,0.4-0.1c0.1,0,0.3,0.1,0.4,0.2c0.1,0.1,0.1,0.2,0.1,0.4
			L23.2,38c0,0.1-0.1,0.3-0.2,0.4c-0.1,0.1-0.2,0.1-0.4,0.1c-0.1,0-0.3-0.1-0.4-0.2c-0.1-0.1-0.1-0.2-0.1-0.4l0.1-2.3
			c-0.3,0.4-0.7,0.8-1.1,1.2s-0.8,0.6-1.3,0.8s-1,0.4-1.5,0.5s-1,0.2-1.6,0.1l-3.2-0.1L14.2,25.5z M22.5,32.2c0-0.5,0-1-0.1-1.4
			c-0.1-0.5-0.3-0.9-0.5-1.3c-0.2-0.4-0.5-0.8-0.8-1.1s-0.7-0.6-1-0.9c-0.4-0.2-0.8-0.4-1.2-0.6c-0.4-0.1-0.9-0.2-1.4-0.2l-2.1-0.1
			L15,37.2l2.1,0.1c0.5,0,1,0,1.4-0.1c0.5-0.1,0.9-0.3,1.3-0.5s0.8-0.5,1.1-0.8c0.3-0.3,0.6-0.7,0.9-1c0.2-0.4,0.4-0.8,0.6-1.2
			C22.4,33,22.4,32.7,22.5,32.2z M19.5,25.7c0-0.3,0-0.6-0.1-0.8c-0.1-0.3-0.2-0.5-0.4-0.7c-0.2-0.2-0.4-0.4-0.7-0.5
			c-0.3-0.1-0.5-0.2-0.8-0.2s-0.6,0-0.8,0.1c-0.3,0.1-0.5,0.2-0.7,0.4s-0.4,0.4-0.5,0.7s-0.2,0.5-0.2,0.8c0.4,0,0.7,0,1.1,0
			s0.7,0,1.1,0.1c0.4,0,0.7,0.1,1.1,0.1c0.3,0.1,0.7,0.2,1,0.3L19.5,25.7z"/>
	</g>
	<g>
		<path class="st0" d="M100.8,51.8v3.7c0,0.3-0.1,0.6-0.2,0.9c-0.1,0.3-0.3,0.5-0.4,0.8c-0.2,0.2-0.4,0.4-0.7,0.6s-0.6,0.3-0.9,0.3
			c0,0.4-0.2,0.8-0.3,1.2c-0.2,0.4-0.4,0.7-0.7,1s-0.6,0.5-1,0.7s-0.7,0.3-1.2,0.4v1.1h3.2v2.1h1.1v1.1h-9.5v-1.1h1.1v-2.1h3.2v-1.1
			c-0.4-0.1-0.8-0.2-1.2-0.4s-0.7-0.4-1-0.7c-0.3-0.3-0.5-0.6-0.7-1s-0.3-0.7-0.3-1.2c-0.3-0.1-0.6-0.2-0.9-0.3
			c-0.3-0.2-0.5-0.4-0.7-0.6s-0.3-0.5-0.4-0.8c-0.1-0.3-0.2-0.6-0.2-0.9v-3.7h2.1v-1.1h7.4v1.1H100.8z M90.3,55.3
			c0,0.2,0,0.3,0.1,0.5s0.1,0.3,0.2,0.4s0.2,0.2,0.3,0.3c0.1,0.1,0.3,0.2,0.4,0.2v-4h-1.1v2.6H90.3z M95,60.2c0.4,0,0.7-0.1,1-0.2
			s0.6-0.3,0.8-0.6s0.4-0.5,0.6-0.8s0.2-0.7,0.2-1v-5.8h-5.3v5.8c0,0.4,0.1,0.7,0.2,1c0.1,0.3,0.3,0.6,0.6,0.8s0.5,0.4,0.8,0.6
			C94.3,60.2,94.6,60.2,95,60.2z M92.4,63.3v1.1h5.3v-1.1H92.4z M99.8,52.8h-1.1v4.1c0.2-0.1,0.3-0.1,0.4-0.2
			c0.1-0.1,0.2-0.2,0.3-0.3s0.2-0.3,0.2-0.4c0.1-0.2,0.1-0.3,0.1-0.5v-2.7H99.8z"/>
	</g>
	<g>
		<path class="st0" d="M164.1,61.3c0.2,0,0.5,0,0.7,0.1s0.4,0.2,0.6,0.4c0.2,0.2,0.3,0.4,0.4,0.6c0.1,0.2,0.1,0.5,0.1,0.7v10.8
			c0,0.2,0,0.5-0.1,0.7s-0.2,0.4-0.4,0.6s-0.4,0.3-0.6,0.4c-0.2,0.1-0.5,0.1-0.7,0.1h-15.6c-0.2,0-0.5,0-0.7-0.1s-0.4-0.2-0.6-0.4
			c-0.2-0.2-0.3-0.4-0.4-0.6c-0.1-0.2-0.1-0.5-0.1-0.7V63.2c0-0.2,0-0.5,0.1-0.7s0.2-0.4,0.4-0.6s0.4-0.3,0.6-0.4
			c0.2-0.1,0.5-0.1,0.7-0.1h4.2v-1.2c0-0.2,0-0.3,0.1-0.5c0.1-0.1,0.1-0.3,0.3-0.4c0.1-0.1,0.2-0.2,0.4-0.3c0.1-0.1,0.3-0.1,0.5-0.1
			h4.8c0.2,0,0.3,0,0.5,0.1s0.3,0.1,0.4,0.3c0.1,0.1,0.2,0.2,0.3,0.4s0.1,0.3,0.1,0.5v1.2C160.1,61.4,164.1,61.4,164.1,61.3z
			 M148,73.9c0,0.2,0.1,0.3,0.2,0.4c0.1,0.1,0.3,0.2,0.4,0.2h1.8v-12h-1.8c-0.2,0-0.3,0.1-0.4,0.2c-0.1,0.1-0.2,0.3-0.2,0.4V73.9z
			 M151.6,62.6v12h9.6v-12H151.6z M154,61.3h4.8v-1.2H154V61.3z M164.7,63.2c0-0.2-0.1-0.3-0.2-0.4c-0.1-0.1-0.3-0.2-0.4-0.2h-1.8
			v12h1.8c0.2,0,0.3-0.1,0.4-0.2c0.1-0.1,0.2-0.3,0.2-0.4V63.2z"/>
	</g>
	<g>
		<path class="st0" d="M15.9,97.1l0.4,0.3c0.7,0.6,1.3,1.2,1.8,1.8c0.5,0.6,0.9,1.3,1.2,2c0.3,0.7,0.6,1.4,0.7,2.2
			c0.2,0.8,0.3,1.6,0.3,2.5l2.4,3.8l-1.4,1.7l-1.3-1.1c-0.1,0.8-0.3,1.6-0.4,2.3l-4.4,0.4c-0.3-0.7-0.6-1.5-0.9-2.2l-1.1,1.3
			l-1.7-1.4l1.6-4.2c-0.1-0.9-0.2-1.7-0.2-2.5s0.1-1.6,0.3-2.3c0.2-0.7,0.5-1.5,0.8-2.2c0.4-0.7,0.8-1.4,1.4-2.1L15.9,97.1z
			 M14,109.8c-0.1-0.3-0.2-0.5-0.2-0.8c-0.1-0.3-0.2-0.5-0.2-0.8l-0.8,2.1l0.5,0.4L14,109.8z M19.4,104.9c-0.1-0.7-0.2-1.3-0.3-1.9
			c-0.2-0.6-0.4-1.2-0.6-1.7c-0.3-0.5-0.6-1.1-1-1.5c-0.4-0.5-0.8-1-1.4-1.4c-0.4,0.5-0.8,1.1-1.1,1.6c-0.3,0.6-0.5,1.1-0.7,1.7
			s-0.3,1.2-0.3,1.8c0,0.6,0,1.3,0,2c0.1,0.7,0.2,1.3,0.3,2c0.2,0.6,0.3,1.3,0.6,1.9l4.4-0.4c0.1-0.7,0.2-1.3,0.2-2
			S19.4,105.7,19.4,104.9z M18.1,106.3c-0.2,0.2-0.4,0.4-0.6,0.5s-0.5,0.2-0.7,0.2s-0.5,0-0.7-0.1s-0.5-0.2-0.7-0.4
			c-0.2-0.2-0.4-0.4-0.5-0.6s-0.2-0.5-0.2-0.7s0-0.5,0.1-0.7s0.2-0.5,0.4-0.7c0.2-0.2,0.4-0.4,0.6-0.5s0.5-0.2,0.7-0.2
			s0.5,0,0.7,0.1s0.5,0.2,0.7,0.4c0.2,0.2,0.4,0.4,0.5,0.6s0.2,0.5,0.2,0.7s0,0.5-0.1,0.7C18.4,105.8,18.3,106.1,18.1,106.3z
			 M18.8,111.7c0-0.3,0.1-0.6,0.2-0.9s0.1-0.6,0.2-0.9l-3.9,0.4c0.1,0.3,0.2,0.5,0.3,0.8c0.1,0.3,0.2,0.5,0.3,0.8L18.8,111.7z
			 M16,104.4c-0.1,0.1-0.1,0.2-0.2,0.3c0,0.1,0,0.2,0,0.4c0,0.1,0,0.2,0.1,0.3c0.1,0.1,0.1,0.2,0.2,0.3c0.1,0.1,0.2,0.1,0.3,0.2
			c0.1,0,0.2,0,0.4,0c0.1,0,0.2,0,0.3-0.1c0.1-0.1,0.2-0.1,0.3-0.2c0.1-0.1,0.1-0.2,0.2-0.3c0-0.1,0-0.2,0-0.4c0-0.1,0-0.2-0.1-0.3
			c-0.1-0.1-0.1-0.2-0.2-0.3c-0.1-0.1-0.2-0.1-0.3-0.2c-0.1,0-0.2,0-0.4,0c-0.1,0-0.2,0-0.3,0.1C16.1,104.3,16,104.3,16,104.4z
			 M16.2,114.4c0.2-0.2,0.4-0.4,0.6-0.5s0.5-0.2,0.7-0.2s0.5,0,0.7,0.1s0.5,0.2,0.7,0.4c0.2,0.2,0.4,0.4,0.5,0.6s0.2,0.5,0.2,0.7
			s0,0.5-0.1,0.7s-0.2,0.5-0.4,0.7l-1.2,1.5l-1.5-1.2c-0.2-0.2-0.4-0.4-0.5-0.6s-0.2-0.5-0.2-0.7s0-0.5,0.1-0.7
			C16,114.9,16.1,114.7,16.2,114.4z M18.4,116.3c0.1-0.1,0.1-0.2,0.2-0.3c0-0.1,0-0.2,0-0.4c0-0.1,0-0.2-0.1-0.3
			c-0.1-0.1-0.1-0.2-0.2-0.3c-0.1-0.1-0.2-0.1-0.3-0.2c-0.1,0-0.2,0-0.4,0c-0.1,0-0.2,0-0.3,0.1c-0.1,0.1-0.2,0.1-0.3,0.2
			c-0.1,0.1-0.1,0.2-0.2,0.3c0,0.1,0,0.2,0,0.4c0,0.1,0,0.2,0.1,0.3c0.1,0.1,0.1,0.2,0.2,0.3l0.7,0.6L18.4,116.3z M20.4,107.6
			c0,0.3,0,0.5-0.1,0.8c0,0.3-0.1,0.5-0.1,0.8l1,0.8l0.4-0.5L20.4,107.6z"/>
	</g>
	<g>
		<path class="st0" d="M37.9,20.5c0.1,0.1,0,0.3,0,0.4L36.5,24c-0.1,0.1-0.2,0.2-0.3,0.3c-0.1,0.1-0.3,0-0.4,0l-2.4,5.4l0.5-0.2
			c0.1-0.1,0.3,0,0.4,0c0.1,0.1,0.2,0.2,0.3,0.3l0.4,1c0.1,0.2,0.1,0.4,0.1,0.6c0,0.2-0.1,0.4-0.1,0.6c-0.1,0.2-0.2,0.4-0.3,0.5
			c-0.2,0.1-0.3,0.3-0.5,0.3c-0.1,0.1-0.2,0.1-0.3,0.3c-0.1,0.1-0.1,0.3,0,0.4c0.2,0.5,0.3,1,0.3,1.5s-0.1,0.9-0.3,1.4
			c-0.2,0.4-0.5,0.8-0.8,1.2c-0.3,0.3-0.8,0.6-1.2,0.8c-0.6,0.2-1.2,0.3-1.9,0.3c-0.6,0-1.2-0.2-1.8-0.4c-0.6-0.2-1.1-0.6-1.5-1
			s-0.8-1-1-1.6c-0.2-0.5-0.3-1-0.3-1.4c0-0.5,0.1-1,0.3-1.4c0.2-0.4,0.5-0.8,0.8-1.2c0.3-0.3,0.8-0.6,1.2-0.8
			c0.1-0.1,0.2-0.1,0.3-0.3c0.1-0.1,0.1-0.3,0-0.4c-0.1-0.3-0.2-0.5-0.1-0.8c0-0.3,0.1-0.5,0.2-0.8s0.3-0.5,0.5-0.7s0.4-0.3,0.7-0.5
			c0.3-0.1,0.7-0.2,1-0.1c0.3,0,0.7,0.2,1,0.4l2-4.5C33.1,23.1,33,23,33,22.9c-0.1-0.1,0-0.3,0-0.4l1.4-3.1c0.1-0.1,0.2-0.2,0.3-0.3
			c0.1-0.1,0.3,0,0.4,0l2.7,1.2C37.8,20.4,37.9,20.5,37.9,20.5z M33.9,30.7l-1.2,0.5c-0.1,0.1-0.3,0-0.4,0l-1.7-0.8
			c-0.1-0.1-0.2-0.2-0.3-0.3c-0.1-0.1,0-0.3,0-0.4l0.5-1.1c-0.1-0.2-0.3-0.3-0.5-0.3s-0.4,0-0.6,0c-0.1,0.1-0.3,0.1-0.4,0.2
			c-0.1,0.1-0.2,0.2-0.2,0.3C29,28.9,29,29.1,29,29.2s0,0.3,0.1,0.4c0.1,0.2,0.1,0.4,0.1,0.6c0,0.2-0.1,0.4-0.1,0.6
			c-0.1,0.2-0.2,0.4-0.3,0.5c-0.2,0.1-0.3,0.3-0.5,0.3c-0.3,0.1-0.6,0.3-0.9,0.6c-0.2,0.2-0.4,0.5-0.6,0.8c-0.1,0.3-0.2,0.6-0.2,1
			c0,0.3,0,0.7,0.2,1c0.2,0.5,0.4,0.9,0.8,1.2c0.3,0.3,0.7,0.6,1.2,0.8c0.4,0.2,0.9,0.3,1.4,0.3s1-0.1,1.5-0.2
			c0.3-0.1,0.6-0.3,0.9-0.6c0.2-0.2,0.4-0.5,0.6-0.8c0.1-0.3,0.2-0.6,0.2-1s0-0.7-0.2-1c-0.1-0.2-0.1-0.4-0.1-0.6
			c0-0.2,0.1-0.4,0.1-0.6c0.1-0.2,0.2-0.4,0.3-0.5c0.2-0.1,0.3-0.3,0.5-0.3c0.1-0.1,0.2-0.1,0.3-0.3c0.1-0.1,0.1-0.3,0-0.4
			L33.9,30.7z M28.3,34.5l0.4-1l2.4,1.1l-0.4,1L28.3,34.5z M29.2,32.5l0.4-1l2.4,1.1l-0.4,1L29.2,32.5z M32.2,30l2.7-6.1l-0.7-0.3
			l-2.7,6.1L32.2,30z M35.8,23.2l0.9-2.1L35,20.3l-1,2.1L35.8,23.2z"/>
	</g>
	<g>
		<path class="st0" d="M36.9,59.1c0.2,0,0.4,0,0.6,0.1s0.4,0.2,0.5,0.3c0.1,0.1,0.3,0.3,0.3,0.5c0.1,0.2,0.1,0.4,0.1,0.6v2.5
			c0,0.2,0,0.4-0.1,0.6s-0.2,0.4-0.3,0.5c-0.1,0.1-0.3,0.3-0.5,0.3c-0.2,0.1-0.4,0.1-0.6,0.1h-0.3v0.9c0,0.1,0,0.3-0.1,0.4
			c0,0.1-0.1,0.2-0.2,0.3c-0.1,0.1-0.2,0.2-0.3,0.2c-0.1,0-0.2,0.1-0.4,0.1h-5c-0.1,0-0.3,0-0.4-0.1c-0.1,0-0.2-0.1-0.3-0.2
			c-0.1-0.1-0.2-0.2-0.2-0.3c0-0.1-0.1-0.2-0.1-0.4v-6.7c-0.2-0.1-0.3-0.3-0.5-0.5c-0.1-0.2-0.2-0.4-0.2-0.6s0-0.3,0.1-0.5
			s0.2-0.3,0.3-0.4c0.1-0.1,0.2-0.2,0.4-0.3c0.1-0.1,0.3-0.1,0.5-0.1h5.6c0.2,0,0.3,0,0.5,0.1s0.3,0.2,0.4,0.3
			c0.1,0.1,0.2,0.2,0.3,0.4c0.1,0.2,0.1,0.3,0.1,0.5c0,0.1,0,0.2,0,0.3c0,0.1-0.1,0.2-0.1,0.3c-0.1,0.1-0.1,0.2-0.2,0.3
			c-0.1,0.1-0.2,0.2-0.3,0.2v0.1h0.4V59.1z M30.3,57.2c-0.1,0-0.2,0-0.2,0c-0.1,0-0.1,0.1-0.2,0.1c-0.1,0.1-0.1,0.1-0.1,0.2
			s0,0.2,0,0.2c0,0.1,0,0.2,0.1,0.4c0.1,0.1,0.2,0.2,0.3,0.2l0.2,0.1v2.8c0,0.1,0,0.2,0.1,0.2c0.1,0.1,0.1,0.1,0.2,0.1
			s0.2,0,0.2-0.1c0.1-0.1,0.1-0.1,0.1-0.2v-1.9c0-0.1,0-0.3,0.1-0.4c0-0.1,0.1-0.2,0.2-0.3c0.1-0.1,0.2-0.2,0.3-0.2
			c0.1,0,0.2-0.1,0.4-0.1c0.1,0,0.3,0,0.4,0.1c0.1,0,0.2,0.1,0.3,0.2c0.1,0.1,0.2,0.2,0.2,0.3c0,0.1,0.1,0.2,0.1,0.4v1.2
			c0,0.1,0,0.2,0.1,0.2c0.1,0.1,0.1,0.1,0.2,0.1s0.2,0,0.2-0.1c0.1-0.1,0.1-0.1,0.1-0.2v-1.2c0-0.1,0-0.3,0.1-0.4
			c0-0.1,0.1-0.2,0.2-0.3c0.1-0.1,0.2-0.2,0.3-0.2s0.2-0.1,0.4-0.1h1.8c0.1-0.1,0.2-0.1,0.3-0.3c0.1-0.1,0.1-0.2,0.1-0.4
			c0-0.1,0-0.2,0-0.2c0-0.1-0.1-0.1-0.1-0.2C36.6,57,36.6,57,36.5,57s-0.2,0-0.2,0h-6V57.2z M35.6,64.7c0.1,0,0.2,0,0.2-0.1
			c0.1-0.1,0.1-0.1,0.1-0.2v-5.3h-1.6c-0.1,0-0.2,0-0.2,0.1C34,59.3,34,59.3,34,59.3v1.2c0,0.1,0,0.3-0.1,0.4c0,0.1-0.1,0.2-0.2,0.3
			c-0.1,0.1-0.2,0.2-0.3,0.2c-0.1,0-0.2,0.1-0.4,0.1c-0.1,0-0.3,0-0.4-0.1c-0.1,0-0.2-0.1-0.3-0.2c-0.1-0.1-0.2-0.2-0.2-0.3
			c0-0.1-0.1-0.2-0.1-0.4v-1.2c0-0.1,0-0.2-0.1-0.2c-0.1-0.1-0.1-0.1-0.2-0.1s-0.2,0-0.2,0.1c-0.1,0.1-0.1,0.1-0.1,0.2v1.9
			c0,0.1,0,0.3-0.1,0.4c0,0.1-0.1,0.2-0.2,0.3c-0.1,0.1-0.2,0.2-0.3,0.2c-0.1,0-0.2,0.1-0.4,0.1c-0.1,0-0.2,0-0.3-0.1v2.2
			c0,0.1,0,0.2,0.1,0.2c0.1,0.1,0.1,0.1,0.2,0.1h0.9v-2.2c0-0.1,0-0.2,0.1-0.2c0.1-0.1,0.1-0.1,0.2-0.1s0.2,0,0.2,0.1
			c0.1,0.1,0.1,0.1,0.1,0.2v2.2h1.9v-2.8c0-0.1,0-0.2,0.1-0.2c0.1-0.1,0.1-0.1,0.2-0.1s0.2,0,0.2,0.1c0.1,0.1,0.1,0.1,0.1,0.2v2.8
			C34.4,64.6,35.6,64.6,35.6,64.7z M35.9,65.6v-0.4c0,0-0.1,0-0.2,0s-0.1,0-0.2,0h-5c-0.1,0-0.1,0-0.2,0s-0.1,0-0.2,0v0.4
			c0,0.1,0,0.2,0.1,0.2c0.1,0.1,0.1,0.1,0.2,0.1h5c0.1,0,0.2,0,0.2-0.1C35.9,65.8,35.9,65.7,35.9,65.6z M37.8,63.1v-2.5
			c0-0.1,0-0.3-0.1-0.4c0-0.1-0.1-0.2-0.2-0.3c-0.1-0.1-0.2-0.2-0.3-0.2c-0.1,0-0.2-0.1-0.4-0.1h-0.3V64h0.3c0.1,0,0.3,0,0.4-0.1
			c0.1,0,0.2-0.1,0.3-0.2c0.1-0.1,0.2-0.2,0.2-0.3C37.8,63.3,37.8,63.3,37.8,63.1z"/>
	</g>
	<g>
		<path class="st0" d="M124.2,79.9h1.7V81h-12.5c-0.1,0.4-0.1,0.7-0.1,1.1s0,0.7-0.1,1.1s0,0.7,0,1.1s0,0.7,0,1.1H110v-1.6
			c0-0.4,0-0.9,0-1.3s0.1-0.9,0.1-1.3H109v-1.1h1.4c0.3-1.4,0.7-2.6,1.2-3.9c0.6-1.2,1.2-2.4,2.1-3.5c-0.8,0-1.5-0.2-2.2-0.5
			s-1.3-0.8-1.8-1.3l-0.4-0.4l0.4-0.4c0.6-0.5,1.2-0.9,1.9-1.2c0.7-0.3,1.4-0.4,2.2-0.4c0.9,0,1.6,0.2,2.4,0.5
			c0.7,0.3,1.4,0.8,2,1.4c0.4,0,0.8,0.1,1.2,0.2s0.8,0.3,1.1,0.5s0.7,0.5,0.9,0.7c0.3,0.3,0.5,0.6,0.7,1s0.4,0.7,0.5,1.1
			s0.2,0.8,0.2,1.2v0.5h-0.5c-0.7,0-1.4-0.2-2-0.5s-1.2-0.7-1.6-1.3c-0.4,0.8-0.9,1.4-1.6,1.9c-0.6,0.5-1.4,0.8-2.2,1
			c-0.2,0.5-0.4,1.1-0.6,1.7c-0.2,0.6-0.3,1.1-0.5,1.7h2.4c0.1-0.5,0.3-0.9,0.6-1.3s0.6-0.7,0.9-1c0.4-0.3,0.8-0.5,1.2-0.7
			s0.9-0.2,1.4-0.2s0.9,0.1,1.4,0.2c0.4,0.2,0.8,0.4,1.2,0.7c0.4,0.3,0.7,0.6,0.9,1S124,79.4,124.2,79.9z M110.8,70.3
			c0.4,0.4,0.9,0.6,1.5,0.8c0.5,0.2,1.1,0.3,1.7,0.3c0.5,0,1.1-0.1,1.5-0.2s1-0.4,1.4-0.7c-0.4-0.4-0.9-0.6-1.5-0.8
			c-0.5-0.2-1.1-0.3-1.7-0.3c-0.5,0-1.1,0.1-1.5,0.2S111.2,70.1,110.8,70.3z M113.5,76.8h-0.1h-0.1c-0.1,0-0.2,0-0.3,0s-0.2,0-0.3,0
			v-0.4c-0.3,0.7-0.5,1.3-0.7,1.9s-0.4,1.3-0.5,1.9s-0.2,1.3-0.3,1.9c-0.1,0.7-0.1,1.3-0.1,2h1.1c0-0.7,0-1.3,0.1-1.9
			c0-0.6,0.1-1.2,0.2-1.8c0.1-0.6,0.2-1.2,0.4-1.8C113,77.9,113.2,77.3,113.5,76.8z M118.2,71.4c-0.6,0-1.1,0.2-1.6,0.4
			c-0.5,0.2-0.9,0.5-1.3,0.9c-0.4,0.4-0.7,0.8-1,1.3s-0.4,1-0.5,1.6c0.5,0,0.9-0.1,1.3-0.3c0.4-0.2,0.8-0.4,1.1-0.6
			c0.3-0.3,0.7-0.6,0.9-0.9c0.3-0.4,0.5-0.8,0.7-1.2c0.1-0.2,0.1-0.4,0.2-0.6S118.1,71.7,118.2,71.4z M123.3,82.1
			c0.1,0,0.3,0.1,0.4,0.2c0.1,0.1,0.2,0.2,0.2,0.4c0,0.1-0.1,0.3-0.2,0.4c-0.1,0.1-0.2,0.2-0.4,0.2H117c-0.1,0-0.3-0.1-0.4-0.2
			c-0.1-0.1-0.2-0.2-0.2-0.4c0-0.1,0.1-0.3,0.2-0.4c0.1-0.1,0.2-0.2,0.4-0.2H123.3z M117.1,79.9h6c-0.1-0.3-0.3-0.6-0.5-0.9
			s-0.4-0.5-0.7-0.7s-0.5-0.3-0.9-0.4c-0.3-0.1-0.6-0.2-1-0.2c-0.3,0-0.7,0.1-1,0.2s-0.6,0.2-0.9,0.4c-0.3,0.2-0.5,0.4-0.7,0.7
			C117.4,79.3,117.2,79.7,117.1,79.9z M122.2,84.2c0.1,0,0.3,0.1,0.4,0.2c0.1,0.1,0.2,0.2,0.2,0.4c0,0.1-0.1,0.3-0.2,0.4
			c-0.1,0.1-0.2,0.2-0.4,0.2H118c-0.1,0-0.3-0.1-0.4-0.2c-0.1-0.1-0.2-0.2-0.2-0.4c0-0.1,0.1-0.3,0.2-0.4c0.1-0.1,0.2-0.2,0.4-0.2
			H122.2z M119.2,71.4c0,0.4-0.1,0.7-0.2,1.1c0.3,0.5,0.7,0.9,1.1,1.2s1,0.5,1.5,0.6c-0.1-0.3-0.2-0.7-0.3-1s-0.3-0.6-0.5-0.8
			s-0.5-0.5-0.7-0.7C119.8,71.8,119.5,71.6,119.2,71.4z"/>
	</g>
	<g>
		<path class="st0" d="M16.3,85.8c0.1,0,0.1,0,0.2,0.1c0,0.1,0.1,0.1,0.1,0.2v3.1c0,0.2,0,0.3-0.1,0.4c0,0.1-0.1,0.3-0.2,0.4
			s-0.2,0.2-0.3,0.2c-0.1,0.1-0.2,0.1-0.3,0.1v4.3c0,0.1,0,0.1-0.1,0.2c0,0.1-0.1,0.1-0.2,0.1s-0.1,0-0.2-0.1c0-0.1-0.1-0.1-0.1-0.2
			v-4.3c-0.1,0-0.2,0-0.3-0.1c-0.1-0.1-0.2-0.1-0.3-0.2c-0.1-0.1-0.1-0.2-0.2-0.4c0-0.1-0.1-0.3-0.1-0.4V86c0-0.1,0-0.1,0.1-0.2
			c0-0.1,0.1-0.1,0.2-0.1s0.1,0,0.2,0.1c0,0.1,0.1,0.1,0.1,0.2v3.1c0,0.1,0,0.2,0,0.2c0,0.1,0.1,0.1,0.1,0.2s0.1,0.1,0.1,0.1
			c0.1,0,0.1,0,0.2,0v-3.7c0-0.1,0-0.1,0.1-0.2c0-0.1,0.1-0.1,0.2-0.1s0.1,0,0.2,0.1c0,0.1,0.1,0.1,0.1,0.2v3.8c0.1,0,0.1,0,0.2,0
			s0.1-0.1,0.1-0.1c0-0.1,0.1-0.1,0.1-0.2s0-0.1,0-0.2v-3.1c0-0.1,0-0.1,0.1-0.2C16.2,85.8,16.3,85.8,16.3,85.8z M18.7,85.8v8.8
			c0,0.1,0,0.1-0.1,0.2c0,0.1-0.1,0.1-0.2,0.1s-0.1,0-0.2-0.1c0-0.1-0.1-0.1-0.1-0.2V92c-0.1,0-0.2,0-0.3,0c-0.1,0-0.2,0-0.3,0
			c-0.1,0-0.2,0-0.3-0.1c-0.1,0-0.2-0.1-0.2-0.1c-0.1-0.1-0.1-0.1-0.2-0.3c0-0.1-0.1-0.2-0.1-0.4v-3.3c0-0.3,0-0.5,0.1-0.8
			c0.1-0.2,0.2-0.5,0.3-0.6c0.1-0.2,0.3-0.3,0.5-0.4s0.4-0.2,0.6-0.2H18.7z M18.3,86.3c-0.1,0-0.2,0.1-0.3,0.2
			c-0.1,0.1-0.2,0.2-0.3,0.3c-0.1,0.1-0.1,0.3-0.2,0.4c0,0.2-0.1,0.3-0.1,0.5v3.4c0,0.1,0,0.1,0.1,0.2c0,0.1,0.1,0.1,0.2,0.1h0.7
			L18.3,86.3L18.3,86.3z"/>
	</g>
	<g>
		<path class="st0" d="M155.4,88.6c0.1,0,0.2-0.1,0.4-0.1c0.1,0,0.2,0,0.4,0c0.4,0,0.8,0,1.3,0.1c0.4,0,0.8,0.1,1.3,0.1
			c0.5,0.1,1.1,0.1,1.6,0.2s1.1,0.2,1.6,0.4c0.2,0.1,0.5,0.2,0.7,0.2c0.2,0.1,0.5,0.2,0.7,0.3c0.3,0.1,0.6,0.3,0.8,0.5
			s0.4,0.5,0.6,0.7c0.1,0.1,0.1,0.3,0.2,0.4c0.1,0.2,0.1,0.3,0.1,0.5s0,0.3,0,0.5s-0.1,0.3-0.1,0.5c-0.1,0.2-0.2,0.3-0.5,0.4
			c-0.2,0.1-0.5,0.2-0.8,0.3c-0.3,0.1-0.6,0.2-0.8,0.2c-0.3,0.1-0.5,0.1-0.7,0.2c-0.2,0-0.4,0.1-0.6,0.1c-0.2,0-0.4,0.1-0.6,0.2
			l-0.2,0.1c-0.1,0.1-0.2,0.1-0.3,0.2s-0.2,0.2-0.2,0.3c-0.1,0.1-0.1,0.2-0.2,0.3c-0.1,0.1-0.1,0.2-0.2,0.3l-0.7,1.4l-0.7,1.4
			c-0.1,0.1-0.1,0.2-0.2,0.3c-0.1,0.1-0.1,0.2-0.2,0.4c0,0.1-0.1,0.2-0.1,0.4c0,0.1,0,0.3,0,0.4v0.2c0,0.2,0.1,0.4,0.2,0.6
			c0.1,0.2,0.2,0.4,0.2,0.5c0.1,0.2,0.1,0.4,0.2,0.6c0.1,0.3,0.2,0.5,0.3,0.8s0.1,0.5,0.2,0.8s0,0.5-0.1,0.6s-0.2,0.3-0.3,0.4
			s-0.3,0.2-0.4,0.3c-0.2,0.1-0.3,0.2-0.5,0.2c-0.2,0.1-0.3,0.1-0.5,0.1c-0.3,0-0.7,0-1-0.1s-0.6-0.2-0.9-0.3
			c-0.2-0.1-0.4-0.2-0.6-0.4c-0.2-0.1-0.4-0.3-0.6-0.4c-0.2-0.2-0.4-0.3-0.6-0.6c-0.2-0.2-0.5-0.4-0.7-0.7c-0.2-0.2-0.5-0.5-0.7-0.8
			s-0.5-0.5-0.7-0.8s-0.4-0.5-0.6-0.8c-0.2-0.3-0.4-0.5-0.5-0.7c-0.1-0.1-0.1-0.2-0.2-0.3s-0.1-0.2-0.1-0.4c-0.1,0-0.1-0.1-0.2-0.1
			c-0.1,0-0.1-0.1-0.2-0.1l-0.1-0.1c0-0.1,0-0.1-0.1-0.2c0-0.1,0-0.2,0-0.3c0-0.1,0-0.3,0.1-0.4c0-0.2,0.1-0.3,0.1-0.4
			s0.1-0.3,0.1-0.3c0.1-0.2,0.1-0.4,0.2-0.6s0.2-0.4,0.3-0.6c0-0.1,0.1-0.2,0.1-0.2c0.1-0.1,0.1-0.2,0.2-0.2l0,0
			c0.1-0.1,0.2-0.2,0.4-0.2c0.1-0.1,0.2-0.2,0.4-0.2l1.4-2.7c0-0.1,0-0.3,0-0.4s0-0.2,0-0.3c0-0.1,0-0.2,0-0.3
			c0-0.1,0.1-0.2,0.1-0.4c0.1-0.2,0.2-0.4,0.3-0.5c0.1-0.2,0.2-0.4,0.4-0.5c0.1-0.1,0.1-0.1,0.2-0.3s0.2-0.2,0.3-0.3
			c0.1-0.1,0.2-0.2,0.3-0.3c0.1-0.1,0.2-0.2,0.2-0.2c0.1-0.1,0.3-0.1,0.4-0.1C155.2,88.4,155.3,88.6,155.4,88.6z M163.9,92.3
			c0-0.2,0-0.4,0-0.6s-0.1-0.3-0.2-0.5c-0.1-0.1-0.2-0.3-0.4-0.4s-0.3-0.2-0.5-0.3c-0.2-0.1-0.4-0.2-0.6-0.3
			c-0.2-0.1-0.4-0.2-0.6-0.2c-0.6-0.2-1.2-0.3-1.8-0.4s-1.2-0.1-1.8-0.2c-0.3,0-0.6-0.1-1-0.1c-0.3,0-0.6,0-1,0
			c-0.1,0-0.2,0-0.2,0.1c-0.1,0-0.1,0.1-0.2,0.1c-0.1,0-0.1,0.1-0.2,0.1c-0.1,0-0.2,0-0.3-0.1l-0.1-0.1c-0.2,0.2-0.5,0.5-0.7,0.7
			c-0.2,0.3-0.4,0.5-0.5,0.8V91v0.1c0,0.2,0,0.4,0,0.6c0,0.1,0,0.2,0,0.3c0,0.1,0,0.2-0.1,0.3c0,0.1-0.1,0.3-0.2,0.5l-1,1.9
			c-0.1,0.2-0.2,0.3-0.2,0.4s-0.1,0.2-0.2,0.3c-0.1,0.1-0.2,0.1-0.3,0.2s-0.3,0.2-0.5,0.3c0,0,0,0-0.1,0.1v0.1
			c-0.2,0.3-0.3,0.6-0.4,0.9s-0.2,0.6-0.2,1c0.1,0.1,0.2,0.1,0.3,0.2s0.1,0.2,0.1,0.3c0,0.1,0,0.1,0,0.2s0.1,0.1,0.1,0.2
			c0.2,0.3,0.4,0.5,0.6,0.8s0.4,0.5,0.6,0.7c0.4,0.5,0.8,0.9,1.2,1.4c0.4,0.4,0.8,0.9,1.3,1.2c0.2,0.1,0.3,0.3,0.5,0.4
			s0.4,0.2,0.6,0.3c0.2,0.1,0.3,0.2,0.5,0.2c0.2,0.1,0.4,0.1,0.5,0.1s0.4,0,0.5-0.1c0.2-0.1,0.3-0.2,0.5-0.3c0-0.1,0-0.2-0.1-0.4
			c-0.1-0.2-0.1-0.4-0.2-0.6c-0.1-0.2-0.1-0.4-0.2-0.6c-0.1-0.2-0.1-0.3-0.2-0.4c0-0.1-0.1-0.2-0.1-0.3c0-0.1-0.1-0.3-0.2-0.4
			c0-0.1-0.1-0.3-0.1-0.4s-0.1-0.2-0.1-0.3v-0.1V100c0-0.2,0-0.4,0-0.6s0.1-0.4,0.1-0.5c0.1-0.2,0.1-0.3,0.2-0.5
			c0.1-0.2,0.2-0.3,0.2-0.5l0.7-1.4l0.7-1.4c0.1-0.2,0.2-0.3,0.3-0.5s0.2-0.3,0.3-0.5c0.1-0.1,0.2-0.3,0.4-0.4
			c0.1-0.1,0.3-0.2,0.5-0.3h0.1h0.1c0.1,0,0.2-0.1,0.3-0.1s0.3-0.1,0.4-0.1c0.1,0,0.3-0.1,0.4-0.1c0.1,0,0.2-0.1,0.3-0.1
			s0.3-0.1,0.5-0.1s0.4-0.1,0.6-0.2c0.2-0.1,0.4-0.1,0.6-0.2C163.7,92.4,163.8,92.4,163.9,92.3z M153.9,94.3
			c0.1-0.1,0.2-0.2,0.3-0.3c0.1,0,0.3,0,0.4,0c0.1,0.1,0.2,0.2,0.3,0.3c0,0.1,0,0.3,0,0.4c-0.1,0.1-0.2,0.2-0.3,0.3
			c-0.1,0-0.3,0-0.4,0c-0.1-0.1-0.2-0.2-0.3-0.3C153.8,94.7,153.9,94.4,153.9,94.3z"/>
	</g>
	<g>
		<path class="st0" d="M42.4,44.7h-1.1V50h1.1v3.2h-3.2v-1L36,53.8v1.5h-3.2v-1.5l-3.2-1.6v1h-3.2V50h1.1v-5.3h-1.1v-3.2h3.1
			l3.3-1.6v-1.5H36v1.5l3.3,1.6h3.1L42.4,44.7L42.4,44.7z M27.6,42.5v1.1h1.1v-1.1H27.6z M28.7,52V51h-1.1V52H28.7z M29.7,51
			l3.2,1.6V52H34v-5.3h-1.1v-1l-3.2-1.6v0.5h-1.1V50h1.1V51z M36.1,41.5h-3.2V41l-3.2,1.6V43l3.2,1.6v-1h3.2v1l3.2-1.6v-0.4L36.1,41
			V41.5z M33.9,39.3v1.1H35v-1.1H33.9z M33.9,45.8H35v-1.1h-1.1V45.8z M35,54.2v-1.1h-1.1v1.1H35z M40.3,50v-5.3h-1.1v-0.5L36,45.8
			v1h-1V52h1.1v0.5l3.2-1.6v-1H40.3z M40.3,42.5v1.1h1.1v-1.1H40.3z M41.3,52V51h-1.1V52H41.3z"/>
	</g>
	<g>
		<path class="st0" d="M32.7,70.7c0.4,0,0.7,0,1.1,0.1s0.7,0.2,1,0.4c0.1,0.1,0.3,0.2,0.4,0.3c0.1,0.1,0.3,0.2,0.4,0.4
			c0.1,0.1,0.2,0.3,0.4,0.4c0.1,0.1,0.2,0.3,0.3,0.4c0,0.1,0,0.1,0,0.2s0,0.2-0.1,0.2c-0.1,0.1-0.1,0.1-0.2,0.1s-0.1,0-0.2,0
			l-0.1-0.1c-0.1-0.1-0.1-0.2-0.2-0.3c-0.1-0.1-0.1-0.2-0.2-0.3c-0.2-0.2-0.3-0.4-0.5-0.5s-0.4-0.3-0.6-0.4s-0.5-0.2-0.7-0.2
			c-0.2-0.1-0.5-0.1-0.7-0.1c-0.4,0-0.8,0.1-1.2,0.2c-0.4,0.1-0.7,0.3-1,0.6c-0.1,0.1-0.1,0.1-0.2,0.2s-0.1,0.1-0.2,0.2l-0.1,0.1H30
			c-0.1,0-0.2,0-0.2-0.1c-0.1-0.1-0.1-0.1-0.1-0.2v-0.1c0,0,0-0.1,0.1-0.1c0.1-0.1,0.2-0.2,0.3-0.3c0.1-0.1,0.2-0.2,0.3-0.3
			c0.1-0.1,0.2-0.2,0.4-0.2c0.1-0.1,0.2-0.1,0.4-0.2c0.3-0.1,0.5-0.2,0.8-0.3C32.1,70.8,32.4,70.7,32.7,70.7z M32.7,70.1
			c-0.4,0-0.8,0.1-1.2,0.2c-0.4,0.1-0.8,0.3-1.2,0.4c-0.1,0-0.1,0-0.1,0c-0.1,0-0.2,0-0.2-0.1c-0.1-0.1-0.1-0.1-0.1-0.2
			s0.1-0.2,0.2-0.3c0.2-0.1,0.4-0.2,0.6-0.3c0.2-0.1,0.4-0.2,0.7-0.2c0.2-0.1,0.5-0.1,0.7-0.1s0.5,0,0.7,0s0.5,0,0.7,0
			s0.5,0.1,0.7,0.1c0.2,0.1,0.5,0.1,0.7,0.2s0.4,0.2,0.6,0.3c0.1,0.1,0.2,0.2,0.2,0.3c0,0.1,0,0.2-0.1,0.2c-0.1,0.1-0.1,0.1-0.2,0.1
			h-0.1c0,0,0,0-0.1,0c-0.4-0.2-0.8-0.3-1.2-0.4C33.6,70.1,33.2,70.1,32.7,70.1z M32.7,71.9c0.4,0,0.8,0.1,1.1,0.2
			c0.3,0.2,0.7,0.4,0.9,0.6c0.3,0.3,0.5,0.6,0.6,0.9c0.2,0.3,0.2,0.7,0.2,1.1c0,0.3,0,0.6-0.1,0.9s-0.1,0.6-0.2,0.9
			c0,0.1-0.1,0.3-0.2,0.4s-0.1,0.3-0.2,0.4s-0.2,0.3-0.2,0.4c-0.1,0.1-0.2,0.2-0.3,0.3l-0.1,0.1h-0.1c-0.1,0-0.2,0-0.2-0.1
			c-0.1-0.1-0.1-0.1-0.1-0.2s0-0.1,0.1-0.2s0.1-0.2,0.2-0.3c0.1-0.1,0.1-0.2,0.2-0.3c0.2-0.4,0.4-0.8,0.5-1.2
			c0.1-0.4,0.2-0.8,0.2-1.3c0-0.3-0.1-0.6-0.2-0.9s-0.3-0.5-0.5-0.7s-0.4-0.4-0.7-0.5c-0.3-0.1-0.6-0.2-0.9-0.2s-0.6,0.1-0.9,0.2
			s-0.5,0.3-0.7,0.5s-0.4,0.4-0.5,0.7c-0.1,0.3-0.2,0.6-0.2,0.9c0,0.1,0,0.2-0.1,0.2c-0.1,0.1-0.1,0.1-0.2,0.1s-0.2,0-0.2-0.1
			c-0.1-0.1-0.1-0.1-0.1-0.2c0-0.4,0.1-0.8,0.2-1.1c0.2-0.3,0.4-0.7,0.6-0.9c0.3-0.3,0.6-0.5,0.9-0.6C32,72.1,32.3,71.9,32.7,71.9z
			 M32.7,73.3c0.2,0,0.4,0,0.6,0.1s0.4,0.2,0.5,0.3c0.1,0.1,0.3,0.3,0.3,0.5c0.1,0.2,0.1,0.4,0.1,0.6c0,0.3,0,0.7-0.1,1
			s-0.2,0.6-0.4,0.9s-0.4,0.6-0.6,0.8c-0.2,0.3-0.5,0.5-0.8,0.7h-0.1h-0.1c-0.1,0-0.2,0-0.2-0.1c0.1,0.1,0.1,0,0.1-0.1
			c0-0.1,0-0.1,0-0.1l0.1-0.1c0.1-0.1,0.2-0.1,0.3-0.2c0.1-0.1,0.2-0.1,0.3-0.2c0.3-0.3,0.6-0.7,0.8-1.1c0.2-0.4,0.3-0.9,0.3-1.3
			c0-0.1,0-0.3-0.1-0.4c0-0.1-0.1-0.2-0.2-0.3c-0.1-0.1-0.2-0.2-0.3-0.2c-0.1,0-0.2-0.1-0.4-0.1c-0.1,0-0.3,0-0.4,0.1
			c-0.1,0-0.2,0.1-0.3,0.2c-0.1,0.1-0.2,0.2-0.2,0.3c0,0.1-0.1,0.2-0.1,0.4c0,0.2,0,0.4-0.1,0.6s-0.2,0.4-0.3,0.5
			c-0.1,0.1-0.3,0.3-0.5,0.3c-0.2,0.1-0.4,0.1-0.6,0.1c-0.1,0-0.2,0-0.2-0.1C30,76.3,30,76.3,30,76.2s0-0.2,0.1-0.2
			c-0.1-0.2,0-0.2,0.1-0.2s0.3,0,0.4-0.1c0.1,0,0.2-0.1,0.3-0.2c0.1-0.1,0.2-0.2,0.2-0.3c0-0.1,0.1-0.2,0.1-0.4c0-0.2,0-0.4,0.1-0.6
			s0.2-0.4,0.3-0.5c0.1-0.1,0.3-0.3,0.5-0.3S32.5,73.3,32.7,73.3z M33.1,74.8c0,0.4-0.1,0.8-0.2,1.1c-0.2,0.3-0.4,0.7-0.6,0.9
			c-0.3,0.3-0.6,0.5-0.9,0.6c-0.3,0.2-0.7,0.2-1.1,0.2c-0.1,0-0.2,0-0.2-0.1C30,77.4,30,77.4,30,77.3s0-0.2,0.1-0.2
			c0.1-0.1,0.1-0.1,0.2-0.1c0.3,0,0.6-0.1,0.9-0.2s0.5-0.3,0.7-0.5s0.4-0.4,0.5-0.7c0.1-0.3,0.2-0.6,0.2-0.9c0-0.1,0-0.2,0.1-0.2
			c0.1-0.1,0.1-0.1,0.2-0.1s0.2,0,0.2,0.1C33,74.7,33.1,74.8,33.1,74.8z"/>
	</g>
	<g>
		<path class="st0" d="M25.3,119.3c-0.3,0-0.5,0-0.8-0.1s-0.5-0.2-0.7-0.3c-0.2-0.1-0.4-0.3-0.6-0.5s-0.4-0.4-0.5-0.6
			c0-0.1-0.1-0.1-0.1-0.2s0-0.1,0-0.2c0,0,0-0.1,0.1-0.1l0.1-0.1c0,0,0.1,0,0.2,0s0.1,0,0.2,0.1c0.1,0,0.1,0.1,0.1,0.1
			c0.2,0.3,0.5,0.6,0.8,0.8c0.3,0.2,0.7,0.3,1.1,0.3s0.8-0.1,1.1-0.3c0.3-0.2,0.6-0.5,0.8-0.8c0-0.1,0.1-0.1,0.1-0.1
			c0.1,0,0.1-0.1,0.2-0.1s0.2,0,0.3,0.1c0.1,0.1,0.1,0.2,0.1,0.3v0.1v0.1c-0.1,0.1-0.1,0.2-0.2,0.3c-0.1,0.1-0.2,0.2-0.3,0.3
			c-0.3,0.3-0.6,0.5-1,0.6C26.1,119.1,25.7,119.3,25.3,119.3z M24.5,115.4c0,0.1,0,0.2,0,0.2c0,0.1-0.1,0.1-0.1,0.2
			c-0.1,0.1-0.1,0.1-0.2,0.1s-0.2,0-0.2,0c-0.1,0-0.2,0-0.2,0c-0.1,0-0.1-0.1-0.2-0.1c-0.1-0.1-0.1-0.1-0.1-0.2s-0.1-0.2-0.1-0.2
			c0-0.1,0-0.2,0-0.2c0-0.1,0.1-0.1,0.1-0.2c0.1-0.1,0.1-0.1,0.2-0.1s0.2-0.1,0.2-0.1c0.1,0,0.2,0,0.2,0.1c0.1,0,0.1,0.1,0.2,0.1
			s0.1,0.1,0.1,0.2C24.5,115.3,24.5,115.3,24.5,115.4z M26.1,115.4c0-0.1,0-0.2,0-0.2c0-0.1,0.1-0.1,0.1-0.2
			c0.1-0.1,0.1-0.1,0.2-0.1s0.2-0.1,0.2-0.1c0.1,0,0.2,0,0.2,0.1s0.1,0.1,0.2,0.1c0.1,0.1,0.1,0.1,0.1,0.2s0,0.2,0,0.2
			c0,0.1,0,0.2-0.1,0.2c0,0.1-0.1,0.1-0.1,0.2c-0.1,0.1-0.1,0.1-0.2,0.1s-0.2,0-0.2,0c-0.1,0-0.2,0-0.2,0c-0.1,0-0.1-0.1-0.2-0.1
			c-0.1-0.1-0.1-0.1-0.1-0.2C26.2,115.6,26.1,115.6,26.1,115.4z"/>
	</g>
	<g>
		<path class="st0" d="M33.7,103.3c0.3,0,0.6,0.1,0.8,0.2c0.3,0.1,0.5,0.3,0.7,0.5s0.3,0.4,0.4,0.7c0.1,0.3,0.2,0.5,0.2,0.8v1.3H35
			v-1.3c0-0.1,0-0.3-0.1-0.4c0-0.1-0.1-0.3-0.2-0.4s-0.2-0.2-0.3-0.3c-0.1-0.1-0.2-0.1-0.4-0.2c0,0.1,0,0.3,0.1,0.4
			c0,0.1,0,0.3,0,0.4v1.7v0.1v0.1l0,0c0.3,0.3,0.5,0.6,0.6,0.9s0.2,0.7,0.2,1.1s-0.1,0.7-0.2,1.1c-0.1,0.3-0.3,0.7-0.6,0.9l-0.6-0.6
			c0.2-0.2,0.3-0.4,0.4-0.6s0.1-0.5,0.1-0.8s-0.1-0.6-0.2-0.9c-0.1,0.4-0.3,0.9-0.6,1.2s-0.6,0.7-0.9,1c-0.4,0.3-0.8,0.5-1.2,0.6
			c-0.4,0.1-0.9,0.2-1.4,0.2s-0.9-0.1-1.4-0.2c-0.4-0.1-0.8-0.4-1.2-0.6c-0.4-0.3-0.7-0.6-0.9-1s-0.5-0.8-0.6-1.2
			c-0.1,0.3-0.2,0.6-0.2,0.9s0,0.5,0.1,0.8s0.2,0.5,0.4,0.6l-0.6,0.6c-0.3-0.3-0.5-0.6-0.6-0.9s-0.2-0.7-0.2-1.1s0.1-0.7,0.2-1.1
			c0.1-0.3,0.4-0.7,0.6-0.9l0,0v-0.1v-0.1V105c0-0.1,0-0.3,0-0.4s0-0.3,0.1-0.4c-0.1,0-0.3,0.1-0.4,0.2s-0.2,0.2-0.3,0.3
			c-0.1,0.1-0.1,0.2-0.2,0.4c0,0.1-0.1,0.3-0.1,0.4v1.3h-0.9v-1.3c0-0.3,0.1-0.6,0.2-0.8c0.1-0.3,0.3-0.5,0.4-0.7
			c0.2-0.2,0.4-0.3,0.7-0.5c0.3-0.1,0.5-0.2,0.8-0.2c0.1-0.3,0.3-0.6,0.5-0.9c-0.3,0-0.5-0.1-0.7-0.3c-0.2-0.1-0.4-0.3-0.6-0.5
			s-0.3-0.4-0.4-0.6s-0.1-0.5-0.1-0.7V99h0.9v1.3c0,0.2,0,0.3,0.1,0.5s0.2,0.3,0.3,0.4c0.1,0.1,0.3,0.2,0.4,0.3
			c0.2,0.1,0.3,0.1,0.5,0.1h0.4l0,0c0.2-0.2,0.4-0.3,0.6-0.4c-0.1-0.1-0.1-0.3-0.2-0.4c0-0.2-0.1-0.3-0.1-0.5c0-0.3,0.1-0.6,0.2-0.9
			l-0.9-0.9l0.6-0.6l0.9,0.9c0.2-0.2,0.4-0.3,0.7-0.4c0.2-0.1,0.5-0.1,0.8-0.1s0.5,0,0.8,0.1c0.2,0.1,0.5,0.2,0.7,0.4l0.9-0.9
			l0.6,0.6l-0.9,0.9c0.1,0.3,0.2,0.6,0.2,0.9c0,0.2,0,0.3-0.1,0.5c0,0.2-0.1,0.3-0.2,0.4c0.1,0.1,0.2,0.1,0.3,0.2s0.2,0.1,0.3,0.2
			l0,0h0.4c0.2,0,0.3,0,0.5-0.1s0.3-0.2,0.4-0.3c0.1-0.1,0.2-0.3,0.3-0.4c0.1-0.2,0.1-0.3,0.1-0.5V99H35v1.3c0,0.3,0,0.5-0.1,0.7
			s-0.2,0.4-0.4,0.6c-0.2,0.2-0.3,0.3-0.6,0.5c-0.2,0.1-0.5,0.2-0.7,0.3C33.4,102.8,33.6,103.1,33.7,103.3z M33.2,105.1
			c0-0.5-0.1-0.9-0.3-1.3c-0.2-0.4-0.4-0.8-0.7-1.1c-0.3-0.3-0.7-0.6-1.1-0.7c-0.4-0.2-0.9-0.3-1.3-0.3c-0.5,0-0.9,0.1-1.3,0.3
			c-0.4,0.2-0.8,0.4-1.1,0.7c-0.3,0.3-0.6,0.7-0.7,1.1c-0.2,0.4-0.3,0.9-0.3,1.3v1.7c0,0.5,0.1,0.9,0.3,1.3c0.2,0.4,0.4,0.8,0.7,1.1
			c0.3,0.3,0.7,0.6,1.1,0.7c0.4,0.2,0.9,0.3,1.3,0.3c0.5,0,0.9-0.1,1.3-0.3c0.4-0.2,0.8-0.4,1.1-0.7s0.6-0.7,0.7-1.1
			c0.2-0.4,0.3-0.9,0.3-1.3V105.1z M29.8,99.1c-0.2,0-0.3,0-0.5,0.1s-0.3,0.2-0.4,0.3c-0.1,0.1-0.2,0.3-0.3,0.4
			c-0.1,0.2-0.1,0.3-0.1,0.5s0.1,0.4,0.2,0.6c0.2,0,0.4-0.1,0.6-0.1s0.4,0,0.6,0s0.4,0,0.6,0s0.4,0.1,0.6,0.1
			c0.1-0.2,0.2-0.4,0.2-0.6s0-0.3-0.1-0.5s-0.2-0.3-0.3-0.4c-0.1-0.1-0.3-0.2-0.4-0.3C30.1,99.1,30,99.1,29.8,99.1z"/>
	</g>
	<g>
		<path class="st0" d="M22,9.8c1-0.2,2.1-0.3,3.1-0.2s2,0.2,3,0.5s1.9,0.7,2.9,1.2c0.9,0.5,1.8,1.1,2.6,1.8c0.3,0.2,0.5,0.5,0.5,0.9
			c0.1,0.3,0,0.7-0.1,1s-0.4,0.5-0.7,0.7l0.3,1.4c0,0.2,0,0.3,0,0.5s-0.1,0.3-0.1,0.4c-0.1,0.1-0.2,0.3-0.3,0.4
			c-0.1,0.1-0.2,0.2-0.4,0.2c0,0.2,0,0.3-0.1,0.5c-0.1,0.1-0.1,0.3-0.2,0.4s-0.2,0.2-0.3,0.3c-0.2,0-0.3,0-0.5,0
			c-0.2,0-0.5,0-0.7-0.1s-0.4-0.2-0.6-0.4L26.5,25c0,0.2,0,0.3-0.1,0.5c-0.1,0.1-0.1,0.3-0.2,0.4c-0.1,0.1-0.2,0.2-0.3,0.3
			c-0.1,0.1-0.3,0.1-0.4,0.2c-0.2,0-0.4,0-0.5,0c-0.2,0-0.3-0.1-0.5-0.2c-0.1-0.1-0.3-0.2-0.4-0.4c-0.1-0.1-0.2-0.3-0.2-0.5
			l-2.4-12.6c-0.1,0-0.2-0.1-0.3-0.2c-0.1-0.1-0.2-0.2-0.2-0.3c-0.1-0.1-0.1-0.2-0.2-0.3c0-0.1-0.1-0.2-0.1-0.3c0-0.2,0-0.4,0-0.6
			s0.1-0.4,0.2-0.6s0.3-0.3,0.4-0.4C21.6,10,21.8,9.9,22,9.8z M32.7,14.8c0.1,0,0.3-0.1,0.3-0.2c0.1-0.1,0.1-0.3,0.1-0.4
			s-0.1-0.2-0.2-0.3c-0.7-0.6-1.5-1.2-2.4-1.6c-0.8-0.5-1.7-0.8-2.6-1.1c-0.9-0.3-1.9-0.4-2.8-0.5c-1-0.1-1.9,0-2.9,0.2
			c-0.1,0-0.3,0.1-0.3,0.2c-0.1,0.1-0.1,0.3-0.1,0.4s0.1,0.3,0.2,0.3c0.1,0.1,0.3,0.1,0.4,0.1c0.7-0.1,1.4-0.2,2.1-0.2
			s1.4,0.1,2.1,0.2s1.3,0.3,2,0.6c0.7,0.3,1.3,0.6,1.9,0.9c0.3,0.2,0.6,0.4,0.9,0.6s0.6,0.4,0.9,0.6C32.4,14.8,32.5,14.8,32.7,14.8z
			 M31.7,16.5c0.1,0,0.2,0,0.2,0s0.1,0.1,0.1,0.2s0,0.2,0,0.2c0,0.1,0,0.2,0,0.2c0,0.1,0.1,0.1,0.1,0.2c0,0,0.1,0.1,0.2,0
			c0.1,0,0.1,0,0.2-0.1c0,0,0.1-0.1,0-0.2l-0.3-1.4c-0.2,0-0.3-0.1-0.4-0.1c-0.1-0.1-0.2-0.1-0.4-0.2c-0.6-0.5-1.3-1-2-1.4
			s-1.4-0.7-2.2-0.9c-0.7-0.2-1.5-0.4-2.3-0.4c-0.8-0.1-1.6,0-2.4,0.2l2.3,12.2c0,0.1,0.1,0.1,0.1,0.2c0.1,0,0.1,0.1,0.2,0
			c0.1,0,0.1,0,0.2-0.1c0,0,0-0.1,0.1-0.1c0,0,0-0.1,0-0.2c0-0.1,0-0.1,0-0.2l5.5-8l0.3,1.8c0,0.1,0.1,0.1,0.1,0.2
			c0.1,0,0.1,0.1,0.2,0c0.1,0,0.1,0,0.2-0.1c0-0.1,0.1-0.1,0-0.2l-0.3-1.6c0-0.1,0-0.1,0-0.2C31.5,16.6,31.6,16.5,31.7,16.5z
			 M25.3,15.6c-0.1,0-0.3,0-0.4,0s-0.3-0.1-0.4-0.2s-0.2-0.2-0.3-0.3c-0.1-0.1-0.1-0.2-0.2-0.4c0-0.1,0-0.3,0-0.4s0.1-0.3,0.2-0.4
			s0.2-0.2,0.3-0.3c0.1-0.1,0.2-0.1,0.4-0.2c0.1,0,0.3,0,0.4,0s0.3,0.1,0.4,0.2s0.2,0.2,0.3,0.3c0.1,0.1,0.1,0.2,0.2,0.4
			c0,0.1,0,0.3,0,0.4S26,15,26,15.1c-0.1,0.1-0.2,0.2-0.3,0.3C25.6,15.5,25.4,15.5,25.3,15.6z M26.1,19.8c0.1,0,0.3,0,0.4,0
			s0.3,0.1,0.4,0.2s0.2,0.2,0.3,0.3c0.1,0.1,0.1,0.2,0.2,0.4c0,0.1,0,0.3,0,0.4s-0.1,0.3-0.2,0.4s-0.2,0.2-0.3,0.3
			c-0.1,0.1-0.2,0.1-0.4,0.2c-0.1,0-0.3,0-0.4,0s-0.3-0.1-0.4-0.2s-0.2-0.2-0.3-0.3c-0.1-0.1-0.1-0.2-0.2-0.4c0-0.1,0-0.3,0-0.4
			s0.1-0.3,0.2-0.4s0.2-0.2,0.3-0.3C25.8,19.9,25.9,19.9,26.1,19.8z M27.6,16.3c0.1,0,0.3,0,0.4,0s0.3,0.1,0.4,0.2s0.2,0.2,0.3,0.3
			c0.1,0.1,0.1,0.2,0.2,0.4c0,0.1,0,0.3,0,0.4s-0.1,0.3-0.2,0.4s-0.2,0.2-0.3,0.3c-0.1,0.1-0.2,0.1-0.4,0.2c-0.1,0-0.3,0-0.4,0
			s-0.3-0.1-0.4-0.2S27,18,26.9,17.9c-0.1-0.1-0.1-0.2-0.2-0.4c0-0.1,0-0.3,0-0.4s0.1-0.3,0.2-0.4s0.2-0.2,0.3-0.3
			C27.3,16.4,27.4,16.3,27.6,16.3z"/>
	</g>
	<g>
		<path class="st0" d="M166.6,14.1c0.4,0,0.9,0.1,1.3,0.3c0.4,0.2,0.7,0.4,1,0.7c0.3,0.3,0.5,0.6,0.7,1s0.3,0.8,0.3,1.3
			c0,0.4-0.1,0.9-0.3,1.3s-0.4,0.7-0.7,1s-0.6,0.5-1,0.7s-0.8,0.3-1.3,0.3c-0.4,0-0.8-0.1-1.2-0.2c-0.4-0.2-0.7-0.4-1-0.6
			c-0.3-0.3-0.5-0.6-0.7-0.9c-0.2-0.4-0.3-0.8-0.3-1.2l-1.9-0.3c-0.2,0.6-0.5,1.1-0.9,1.6s-0.9,0.8-1.4,1.1l0.7,2.2h0.1h0.1
			c0.4,0,0.9,0.1,1.3,0.3c0.4,0.2,0.7,0.4,1,0.7s0.5,0.6,0.7,1s0.3,0.8,0.3,1.3c0,0.4-0.1,0.9-0.3,1.3c-0.2,0.4-0.4,0.7-0.7,1
			s-0.6,0.5-1,0.7s-0.8,0.3-1.3,0.3c-0.4,0-0.9-0.1-1.3-0.3s-0.7-0.4-1-0.7s-0.5-0.6-0.7-1s-0.3-0.8-0.3-1.3c0-0.6,0.1-1.1,0.4-1.6
			c0.3-0.5,0.6-0.9,1.1-1.2l-0.7-2.2c-0.1,0-0.2,0-0.4,0c-0.1,0-0.3,0-0.4,0c-0.8,0-1.5-0.2-2.2-0.5c-0.7-0.4-1.3-0.8-1.7-1.5
			l-2.6,1.3c0.1,0.2,0.1,0.5,0.1,0.7c0,0.4-0.1,0.9-0.3,1.3s-0.4,0.7-0.7,1s-0.6,0.5-1,0.7s-0.8,0.3-1.3,0.3c-0.4,0-0.9-0.1-1.3-0.3
			c-0.4-0.2-0.7-0.4-1-0.7s-0.5-0.6-0.7-1s-0.3-0.8-0.3-1.3c0-0.4,0.1-0.9,0.3-1.3s0.4-0.7,0.7-1s0.6-0.5,1-0.7s0.8-0.3,1.3-0.3
			s0.9,0.1,1.3,0.3c0.4,0.2,0.8,0.5,1.1,0.8l2.6-1.3c-0.1-0.5-0.2-0.9-0.2-1.4c0-0.6,0.1-1.2,0.3-1.7c0.2-0.6,0.5-1.1,0.9-1.5
			l-1.5-1.9c-0.4,0.2-0.9,0.3-1.3,0.3c-0.4,0-0.9-0.1-1.3-0.3c-0.4-0.2-0.7-0.4-1-0.7c-0.3-0.3-0.5-0.6-0.7-1S147,8.2,147,7.7
			c0-0.4,0.1-0.9,0.3-1.3c0.2-0.4,0.4-0.7,0.7-1s0.6-0.5,1-0.7s0.8-0.3,1.3-0.3c0.4,0,0.9,0.1,1.3,0.3c0.4,0.2,0.7,0.4,1,0.7
			s0.5,0.6,0.7,1c0.2,0.4,0.3,0.8,0.3,1.3c0,0.7-0.2,1.4-0.6,1.9l1.5,1.9c0.4-0.2,0.7-0.3,1.1-0.5c0.4-0.1,0.8-0.2,1.2-0.2
			c0.7,0,1.4,0.1,2,0.4l2.1-3.1c-0.3-0.3-0.5-0.6-0.6-1s-0.2-0.8-0.2-1.2s0.1-0.9,0.3-1.3c0.2-0.4,0.4-0.7,0.7-1s0.6-0.5,1-0.7
			s0.8-0.3,1.3-0.3c0.4,0,0.9,0.1,1.3,0.3s0.7,0.4,1,0.7s0.5,0.6,0.7,1s0.3,0.8,0.3,1.3c0,0.4-0.1,0.9-0.3,1.3s-0.4,0.7-0.7,1
			c-0.3,0.3-0.6,0.5-1,0.7s-0.8,0.3-1.3,0.3c-0.4,0-0.7-0.1-1.1-0.2l-2.1,3.1c0.5,0.5,0.9,1,1.1,1.6c0.3,0.6,0.4,1.3,0.4,1.9
			l1.9,0.3c0.1-0.3,0.3-0.6,0.5-0.8s0.4-0.4,0.7-0.6s0.5-0.3,0.8-0.4C166,14.3,166.3,14.1,166.6,14.1z M147.1,22.3
			c0.2,0,0.4,0,0.6-0.1c0.2-0.1,0.4-0.2,0.5-0.3c0.1-0.1,0.3-0.3,0.3-0.5c0.1-0.2,0.1-0.4,0.1-0.6s0-0.4-0.1-0.6s-0.2-0.4-0.3-0.5
			s-0.3-0.3-0.5-0.3c-0.2-0.1-0.4-0.1-0.6-0.1c-0.2,0-0.4,0-0.6,0.1c-0.2,0.1-0.4,0.2-0.5,0.3c-0.1,0.1-0.3,0.3-0.3,0.5
			c-0.1,0.2-0.1,0.4-0.1,0.6s0,0.4,0.1,0.6s0.2,0.4,0.3,0.5s0.3,0.3,0.5,0.3C146.7,22.3,146.9,22.3,147.1,22.3z M148.7,7.7
			c0,0.2,0,0.4,0.1,0.6s0.2,0.4,0.3,0.5s0.3,0.3,0.5,0.3c0.2,0.1,0.4,0.1,0.6,0.1c0.2,0,0.4,0,0.6-0.1c0.2-0.1,0.4-0.2,0.5-0.3
			c0.1-0.1,0.3-0.3,0.3-0.5c0.1-0.2,0.1-0.4,0.1-0.6s0-0.4-0.1-0.6s-0.2-0.4-0.3-0.5s-0.3-0.3-0.5-0.3c-0.2-0.1-0.4-0.1-0.6-0.1
			c-0.2,0-0.4,0-0.6,0.1c-0.2,0.1-0.4,0.2-0.5,0.3s-0.3,0.3-0.3,0.5S148.7,7.5,148.7,7.7z M156.9,19c0.4,0,0.9-0.1,1.3-0.3
			c0.4-0.2,0.7-0.4,1-0.7s0.5-0.6,0.7-1s0.3-0.8,0.3-1.3c0-0.4-0.1-0.9-0.3-1.3s-0.4-0.7-0.7-1s-0.6-0.5-1-0.7s-0.8-0.3-1.3-0.3
			c-0.4,0-0.9,0.1-1.3,0.3c-0.4,0.2-0.7,0.4-1,0.7c-0.3,0.3-0.5,0.6-0.7,1s-0.3,0.8-0.3,1.3c0,0.4,0.1,0.9,0.3,1.3s0.4,0.7,0.7,1
			s0.6,0.5,1,0.7C156,19,156.4,19,156.9,19z M161.7,25.5c0-0.2,0-0.4-0.1-0.6c-0.1-0.2-0.2-0.4-0.3-0.5s-0.3-0.3-0.5-0.3
			c-0.2-0.1-0.4-0.1-0.6-0.1c-0.2,0-0.4,0-0.6,0.1c-0.2,0.1-0.4,0.2-0.5,0.3s-0.3,0.3-0.3,0.5s-0.1,0.4-0.1,0.6c0,0.2,0,0.4,0.1,0.6
			c0.1,0.2,0.2,0.4,0.3,0.5s0.3,0.3,0.5,0.3c0.2,0.1,0.4,0.1,0.6,0.1c0.2,0,0.4,0,0.6-0.1c0.2-0.1,0.4-0.2,0.5-0.3s0.3-0.3,0.3-0.5
			C161.7,26,161.7,25.8,161.7,25.5z M163.4,4.5c-0.2,0-0.4,0-0.6,0.1c-0.2,0.1-0.4,0.2-0.5,0.3S162,5.2,162,5.4
			c-0.1,0.2-0.1,0.4-0.1,0.6c0,0.2,0,0.4,0.1,0.6s0.2,0.4,0.3,0.5s0.3,0.3,0.5,0.3c0.2,0.1,0.4,0.1,0.6,0.1c0.2,0,0.4,0,0.6-0.1
			c0.2-0.1,0.4-0.2,0.5-0.3c0.1-0.1,0.3-0.3,0.3-0.5c0.1-0.2,0.1-0.4,0.1-0.6c0-0.2,0-0.4-0.1-0.6c-0.1-0.2-0.2-0.4-0.3-0.5
			s-0.3-0.3-0.5-0.3C163.8,4.5,163.6,4.5,163.4,4.5z M166.6,19c0.2,0,0.4,0,0.6-0.1c0.2-0.1,0.4-0.2,0.5-0.3
			c0.1-0.1,0.3-0.3,0.3-0.5c0.1-0.2,0.1-0.4,0.1-0.6s0-0.4-0.1-0.6s-0.2-0.4-0.3-0.5s-0.3-0.3-0.5-0.3c-0.2-0.1-0.4-0.1-0.6-0.1
			c-0.2,0-0.4,0-0.6,0.1c-0.2,0.1-0.4,0.2-0.5,0.3c-0.1,0.1-0.3,0.3-0.3,0.5c-0.1,0.2-0.1,0.4-0.1,0.6s0,0.4,0.1,0.6
			s0.2,0.4,0.3,0.5s0.3,0.3,0.5,0.3C166.2,19,166.4,19,166.6,19z"/>
	</g>
	<g>
		<path class="st0" d="M104.7,99.2c0.2,0.6,0.2,1.3,0.2,1.9c0,0.7-0.1,1.3-0.3,2c-0.2,0.6-0.4,1.2-0.7,1.8c-0.3,0.5-0.7,1-1.2,1.5
			s-1,0.8-1.5,1.2c-0.5,0.3-1.1,0.6-1.8,0.7c-0.6,0.2-1.3,0.3-2,0.3s-1.3-0.1-2-0.3c-0.6-0.2-1.2-0.4-1.8-0.7
			c-0.5-0.3-1-0.7-1.5-1.2s-0.8-1-1.2-1.5s-0.6-1.1-0.7-1.8s-0.3-1.3-0.3-2s0.1-1.3,0.3-2s0.4-1.2,0.7-1.8c0.3-0.5,0.7-1,1.2-1.5
			s1-0.8,1.5-1.2c0.5-0.3,1.1-0.6,1.8-0.7c0.6-0.2,1.3-0.3,2-0.3c0.6,0,1.3,0.1,1.9,0.2l-0.8,0.8v0.1c-0.2,0-0.4,0-0.5-0.1
			s-0.4,0-0.5,0c-0.6,0-1.1,0.1-1.7,0.2c-0.5,0.2-1,0.4-1.5,0.6c-0.5,0.3-0.9,0.6-1.3,1c-0.4,0.4-0.7,0.8-1,1.3s-0.5,1-0.6,1.5
			s-0.2,1.1-0.2,1.7s0.1,1.1,0.2,1.7s0.4,1,0.6,1.5c0.3,0.5,0.6,0.9,1,1.3s0.8,0.7,1.3,1s1,0.5,1.5,0.6c0.5,0.2,1.1,0.2,1.7,0.2
			s1.1-0.1,1.7-0.2c0.5-0.2,1-0.4,1.5-0.6c0.5-0.3,0.9-0.6,1.3-1c0.4-0.4,0.7-0.8,1-1.3s0.5-1,0.6-1.5c0.2-0.5,0.2-1.1,0.2-1.7
			c0-0.2,0-0.4,0-0.5c0-0.2,0-0.4-0.1-0.5h0.1L104.7,99.2z M97.6,97.9c-0.4,0-0.9,0.1-1.2,0.2s-0.7,0.4-1,0.7
			c-0.3,0.3-0.5,0.6-0.7,1s-0.2,0.8-0.2,1.2c0,0.4,0.1,0.9,0.2,1.2c0.2,0.4,0.4,0.7,0.7,1s0.6,0.5,1,0.7s0.8,0.2,1.2,0.2
			s0.8-0.1,1.2-0.2c0.4-0.2,0.7-0.4,1-0.7c0.3-0.3,0.5-0.6,0.7-1s0.2-0.8,0.2-1.2c0-0.4-0.1-0.7-0.2-1.1h1.1c0,0.2,0.1,0.4,0.1,0.5
			c0,0.2,0,0.4,0,0.5c0,0.6-0.1,1.1-0.3,1.6s-0.5,1-0.9,1.3c-0.4,0.4-0.8,0.7-1.3,0.9c-0.5,0.2-1.1,0.3-1.6,0.3s-1.1-0.1-1.6-0.3
			s-1-0.5-1.3-0.9s-0.7-0.8-0.9-1.3s-0.3-1.1-0.3-1.6c0-0.6,0.1-1.1,0.3-1.6s0.5-1,0.9-1.3c0.4-0.4,0.8-0.7,1.3-0.9
			c0.5-0.2,1.1-0.3,1.6-0.3c0.2,0,0.4,0,0.5,0s0.4,0.1,0.5,0.1V98C98.3,97.9,97.9,97.9,97.6,97.9z M99.7,98.3v-2.4l3.2-3.2v3.1h3.1
			l-3.2,3.2h-2.4l-1.8,1.8c0,0.1,0,0.2,0,0.3c0,0.1,0,0.3-0.1,0.4s-0.1,0.2-0.2,0.3S98.1,102,98,102s-0.3,0.1-0.4,0.1
			s-0.3,0-0.4-0.1c-0.1-0.1-0.2-0.1-0.3-0.2s-0.2-0.2-0.2-0.3c-0.1-0.1-0.1-0.3-0.1-0.4s0-0.3,0.1-0.4s0.1-0.2,0.2-0.3
			c0.1-0.1,0.2-0.2,0.3-0.2c0.1-0.1,0.3-0.1,0.4-0.1c0.1,0,0.2,0,0.3,0L99.7,98.3z M100.8,97.9h1.6l1.1-1.1h-1.6v-1.6l-1.1,1.1V97.9
			z"/>
	</g>
	<g>
		<path class="st0" d="M114.2,55.3c0.2,0,0.4,0.1,0.6,0.2c0.2,0.1,0.3,0.3,0.4,0.4l1.2,1.8c0.4,0.6,0.6,1.2,0.7,1.8
			c0.1,0.6,0.1,1.3,0,1.9s-0.4,1.2-0.7,1.7c-0.4,0.5-0.8,1-1.4,1.4l-0.6,0.4c-0.2,0.1-0.4,0.2-0.5,0.2c-0.2,0-0.4,0-0.6,0
			c-0.2,0-0.4,0-0.6-0.1c-0.2,0-0.4-0.1-0.6-0.1c-0.2,0-0.4,0-0.5,0c-0.2,0-0.3,0.1-0.5,0.2c-0.1,0.1-0.2,0.2-0.3,0.4
			c-0.1,0.1-0.2,0.3-0.2,0.5c-0.1,0.2-0.1,0.4-0.2,0.5c-0.1,0.2-0.1,0.4-0.2,0.6c-0.1,0.2-0.2,0.3-0.3,0.5s-0.2,0.3-0.4,0.4
			l-0.6,0.4c-0.6,0.4-1.2,0.6-1.8,0.7s-1.3,0.1-1.9,0c-0.6-0.1-1.2-0.4-1.7-0.7c-0.5-0.4-1-0.8-1.4-1.4l-1.2-1.8
			c-0.1-0.2-0.2-0.4-0.2-0.6s0-0.4,0-0.6c0.1-0.3,0.2-0.5,0.3-0.7c0.2-0.3,0.4-0.6,0.7-0.8c0.3-0.3,0.6-0.6,0.9-0.9
			c0.3-0.3,0.7-0.6,1-0.9c0.4-0.3,0.7-0.6,1.1-0.8c0.4-0.3,0.7-0.5,1-0.7s0.6-0.4,0.9-0.6c0.3-0.2,0.6-0.4,0.9-0.6
			c0.3-0.2,0.7-0.4,1.1-0.7c0.4-0.2,0.8-0.4,1.2-0.7c0.4-0.2,0.8-0.4,1.2-0.6s0.8-0.3,1.2-0.5c0.4-0.1,0.7-0.2,1.1-0.3
			C113.7,55.2,113.9,55.2,114.2,55.3z M114.3,56.4c-0.1-0.1-0.2-0.2-0.3-0.2c-0.2,0-0.5,0-0.9,0.1s-0.8,0.2-1.2,0.4
			c-0.4,0.2-0.9,0.4-1.3,0.6c-0.5,0.2-0.9,0.5-1.3,0.7c-0.4,0.2-0.8,0.5-1.1,0.7s-0.6,0.4-0.8,0.5c-0.1,0.1-0.3,0.2-0.5,0.4
			c-0.2,0.2-0.5,0.3-0.7,0.5c-0.3,0.2-0.6,0.4-0.9,0.6c-0.3,0.2-0.6,0.5-0.9,0.7c-0.3,0.2-0.6,0.5-0.9,0.7c-0.3,0.2-0.5,0.5-0.8,0.7
			c-0.2,0.2-0.4,0.5-0.6,0.7c-0.2,0.2-0.2,0.4-0.3,0.6c0,0.1,0,0.3,0.1,0.4l1.2,1.8c0.3,0.5,0.7,0.8,1.1,1.1
			c0.4,0.3,0.9,0.5,1.4,0.6s1,0.1,1.5,0s1-0.3,1.4-0.6l0.6-0.4c0.1-0.1,0.2-0.2,0.2-0.3c0.1-0.1,0.1-0.3,0.2-0.4
			c0-0.2,0.1-0.3,0.2-0.5c0.1-0.2,0.1-0.4,0.2-0.6c0.1-0.2,0.2-0.4,0.3-0.5c0.1-0.2,0.3-0.3,0.5-0.5c0.2-0.1,0.4-0.2,0.6-0.3
			c0.2,0,0.4-0.1,0.6-0.1c0.2,0,0.4,0,0.6,0c0.2,0,0.4,0.1,0.6,0.1c0.2,0,0.3,0,0.5,0c0.1,0,0.3,0,0.3-0.1l0.6-0.4
			c0.4-0.3,0.8-0.6,1.1-1.1c0.3-0.4,0.5-0.9,0.6-1.4s0.1-1,0-1.5s-0.3-1-0.6-1.4L114.3,56.4z M108.4,59.9c0.1-0.1,0.3-0.1,0.4-0.1
			c0.1,0,0.3,0.1,0.3,0.2c0.1,0.1,0.1,0.3,0.1,0.4s-0.1,0.3-0.2,0.3l-0.9,0.6c-0.1,0.1-0.3,0.1-0.4,0.1c-0.1,0-0.3-0.1-0.3-0.2
			c-0.1-0.1-0.1-0.3-0.1-0.4s0.1-0.3,0.2-0.3L108.4,59.9z"/>
	</g>
</g>
</svg>
