<svg xmlns="http://www.w3.org/2000/svg" viewBox="0 0 177.9 95.1" fill="#e6273f"><path d="M54.1 53.2c-1-1.4-2.1-2.6-3.3-3.8l-4.5-3.5c-1.4-1-2.7-2-3.9-3.1-1-.9-1.8-1.9-2.4-3.1-.6-1-.9-2-1-3.1-.2-1.1-.3-2.2-.3-3.3 0-2.4.3-4.2 1-5.4.6-1.2 1.7-1.9 3.1-1.9.8 0 1.7.4 2 1.2.6 1 .9 2.2 1 3.3.2 1.5.3 2.9.2 4.4l-.4 5.8 9.6 4.9c-.1-2-.1-7.6.2-17-.1-1.6-.4-3.2-.9-4.8-.4-1.5-1.2-2.9-2.2-4-1-1.2-2.4-2.2-3.8-2.8-1.8-.8-3.8-1.1-5.7-1-4.2 0-7.4 1.3-9.9 4s-3.8 6.9-3.8 12.6c0 2.2.2 4.3.8 6.4.5 1.7 1.2 3.5 2.1 5 .8 1.5 1.9 2.9 3.1 4.1 1.2 1.3 2.4 2.4 3.8 3.4 2.2 1.7 4.2 3.8 5.9 6 1.3 1.8 1.9 4 1.9 6.3.1 1.4-.2 2.8-.8 4.1-.4 1-1.3 1.6-2.4 1.6-.9 0-1.8-.3-2.4-1a7.62 7.62 0 0 1-1.3-2.9 30.34 30.34 0 0 1-.6-4.2c-.1-1.3-.1-2.6 0-4-4.5-2.6-7.6-4.8-9.4-6.5.1 1.4.1 3.6.1 6.5s0 6.5.3 10.7 1.7 7.3 4.1 9.1c2.6 1.8 5.7 2.6 8.8 2.3 4.1 0 7.4-1.4 9.8-4.1 2.4-2.8 3.7-6.5 3.7-11.3.1-2.1-.2-4.2-.7-6.2-.1-1.7-.8-3.3-1.8-4.7zm86 3.7a4.22 4.22 0 0 1-.3-2.2h0c.1-.8.3-1.5.6-2.2.3-.9 1.7-3.5 4-7.9l4.5-8.1H138c-.3.8-1.5 3.2-3.3 7.2s-3.5 6.7-5 8.2l-.2-2.9c-.1-1.8 0-6.3.2-13.4.2-7.2.6-12 1.3-14.7l-11.1-3.4c.1 1.9.1 4.7.1 8.4a34.09 34.09 0 0 0-3.8-3.8c-2.8-2.4-6-4.3-9.6-5.4-3.3-1-6.9-1.3-10.4-.8-3.7.6-7.3 1.9-10.5 3.8-3.3 1.9-6.2 4.5-8.4 7.5-2 2.9-3.4 6-4.1 9.5h-.3c-.7 0-1.4 0-2-.1-.8.1-1.5-.1-2.2-.6-.5-.2-.7-1-.7-2.2-.1-1.5 0-3.1.1-4.6.1-1.7.3-3.3.6-4.7H58c.5 2.9.6 16.5.3 41.2h0c0 2.3.2 4.6.7 6.9.3 1.5 1.2 2.9 2.4 4 1.7 1.6 3.9 2.5 6.2 2.5 3.2 0 6.3-.6 9.4-1.5l-3-8.3c-1.5.4-3.2.3-4.6-.4-1.3-.7-1.9-2.3-1.9-4.8-.1-8.7-.1-13.6.1-14.5.1-1.3.4-2 .9-2.4.6-.4 1.3-.6 2-.6.8-.1 1.7-.1 2.4-.1.1.9.3 1.9.5 2.9 1 4.5 2.7 8.9 5.1 12.9 2.2 4.1 5.1 7.8 8.6 10.9 2.7 2.5 6 4.4 9.5 5.5 3.3 1 6.8 1.2 10.2.6 3.7-.7 7.2-2 10.5-4 .8-.5 1.7-1 2.4-1.5-.1 2.2-.1 3.7-.1 4.3l11.1.1c-.2-1-.3-3.2-.6-6.7l-.3-7.1.1-3.6c1.4.6 2.9 3.4 4.5 8.3l2.9 9.2c1.4-.1 5.3-.2 11.5-.2l-4.6-10.8c-2.4-5.8-3.7-9.2-4.1-10.4zM120 49.7v1.5l-.3.3c-.9 1-2.3 1.4-3.5 1-1.3-.4-4.9-6.5-10.8-18.3-1.8-3.1-3.8-4.9-6-5.4s-4.7.1-7.2 1.5c-1.3.7-2.3 1.5-3.2 2.6a8.27 8.27 0 0 0-1.6 2.9 7.5 7.5 0 0 0-.3 3c.1 1 .3 1.9.8 2.8l3.9 7.3 6.5-3.8c-1.3-1.9-2.5-3.8-3.5-5.9-.6-1.5-.4-2.5.6-3.1.6-.3 1.3-.3 1.9-.1.8.3 1.5 1.1 2.2 2.4.6 1.1.9 2.4 1 3.7 0 1.3-.6 3-1.9 5.2s-2.2 4.5-2.7 6.9c-.5 2.1-.1 4.3 1.2 6.7 1.4 2.6 3.2 4.2 5.4 4.9a7.07 7.07 0 0 0 6-.6c1.3-.7 2.4-1.7 3.1-3.1.7-1.2 1.1-2.4 1.2-3.8-.1-.7.2-.8.9-.3 2 .9 4.4.9 6.4.1 0 1.7 0 3.3-.1 4.9-2.2 2.4-4.9 4.5-7.8 6-4 2.2-8.4 2.6-13.1 1-4.7-1.5-9.2-5.8-13.1-12.7-1.8-3-3.1-6.3-4-9.7-.8-2.9-1-5.8-.6-8.8.3-2.6 1.2-5.1 2.6-7.4s3.5-4.1 5.8-5.4 4.8-2.2 7.4-2.6c2.4-.3 4.9-.1 7.2.7 2.6 1 4.9 2.4 6.9 4.3 2.5 2.4 4.7 5.1 6.3 8.2 1 1.7 1.9 3.5 2.6 5.4-.2 2.6-.2 5.1-.2 7.7zm-13.3 8.8c-.6.3-1.3.3-1.7-.1a4.62 4.62 0 0 1-1.7-1.7c-.6-1.1-.7-2.4-.5-3.7s.7-2.6 1.4-3.8c.3-.5.6-.5.9 0 .9 1.5 1.7 3.1 2.3 4.7h0c1 2.2.7 3.8-.7 4.6z"/></svg>