<?xml version="1.0" encoding="utf-8"?>
<!-- Generator: Adobe Illustrator 24.1.1, SVG Export Plug-In . SVG Version: 6.00 Build 0)  -->
<svg version="1.1" id="a6a63fee-c0eb-4c6e-8470-632cd585655a"
	 xmlns="http://www.w3.org/2000/svg" xmlns:xlink="http://www.w3.org/1999/xlink" x="0px" y="0px" viewBox="0 0 114.1 109.4"
	 style="enable-background:new 0 0 114.1 109.4;" xml:space="preserve">
<style type="text/css">
	.st0{fill:none;stroke:#CD1E2A;stroke-width:2;stroke-linecap:round;stroke-linejoin:round;}
	.st1{fill:#CD1E2A;}
</style>
<path class="st0" d="M33.6,30.3c2.7,0,5.4,0.5,8,1.3l-0.8,10.8c-2.3-0.6-4.6-0.8-7-0.7c-1.8,0-3.6,0.6-5.1,1.7
	c-1.3,1.1-2.3,2.6-2.6,4.3c-0.4,2.2-0.6,4.4-0.4,6.6H38v11.2H25.5v39.8H11.3V65.5H3V54.3h8.3c0-1.6,0-3.2,0.1-4.7
	c0.2-3.7,1.2-7.2,3-10.4c1.4-2.4,3.4-4.5,5.8-5.9c2.9-1.6,6.1-2.6,9.4-2.8C30.9,30.3,32.2,30.3,33.6,30.3z"/>
<path class="st1" d="M63.9,67.5c-4.2-4.9-10.1-13.6-14.2-27.2c-3.4-11.6-4.8-23.5-4.3-35.5c0-0.7,0.7-1.2,1.4-1.2c0.1,0,0.1,0,0.2,0
	l0,0c0.7,0.1,1.2,0.6,1.2,1.3c-0.5,11.3,0.9,22.7,4,33.6c3.8,12.8,9.4,21,13.4,25.6L63.9,67.5z"/>
<path class="st1" d="M63.4,67.5c4.2-4.9,10.1-13.6,14.2-27.2C81,28.8,82.5,16.8,82,4.8c0-0.7-0.6-1.2-1.4-1.2c-0.1,0-0.1,0-0.2,0
	l0,0c-0.7,0.1-1.2,0.6-1.2,1.3c0.5,11.3-0.9,22.7-4,33.6c-3.8,12.8-9.4,21-13.4,25.6L63.4,67.5z"/>
<path class="st1" d="M63.1,60.1c-11,0-20,9-20,20s9,20,20,20s20-9,20-20S74.1,60.1,63.1,60.1z M63.1,88.3c-4.6,0-8.3-3.7-8.3-8.3
	s3.7-8.3,8.3-8.3s8.3,3.7,8.3,8.3l0,0C71.3,84.6,67.6,88.3,63.1,88.3z"/>
<rect x="94.4" y="54.7" class="st0" width="14.3" height="50.6"/>
<path class="st0" d="M101.6,48c4.6,0,8.3-3.6,8.3-8.2s-3.6-8.3-8.2-8.3c-4.6,0-8.3,3.6-8.3,8.2c0,0,0,0,0,0
	C93.4,44.2,97.1,47.9,101.6,48z"/>
</svg>
