<svg xmlns="http://www.w3.org/2000/svg" viewBox="0 0 114.1 109.4"><path d="M33.6 30.3c2.7 0 5.4.5 8 1.3l-.8 10.8c-2.3-.6-4.6-.8-7-.7-1.8 0-3.6.6-5.1 1.7-1.3 1.1-2.3 2.6-2.6 4.3-.4 2.2-.6 4.4-.4 6.6H38v11.2H25.5v39.8H11.3V65.5H3V54.3h8.3l.1-4.7c.2-3.7 1.2-7.2 3-10.4 1.4-2.4 3.4-4.5 5.8-5.9 2.9-1.6 6.1-2.6 9.4-2.8 1.3-.2 2.6-.2 4-.2z" fill="none" stroke="#cd1e2a" stroke-width="2" stroke-linejoin="round"/><g fill="#cd1e2a"><path d="M63.9 67.5c-4.2-4.9-10.1-13.6-14.2-27.2-3.4-11.6-4.8-23.5-4.3-35.5 0-.7.7-1.2 1.4-1.2h.2c.7.1 1.2.6 1.2 1.3-.5 11.3.9 22.7 4 33.6 3.8 12.8 9.4 21 13.4 25.6l-1.7 3.4z"/><path d="M63.4 67.5c4.2-4.9 10.1-13.6 14.2-27.2C81 28.8 82.5 16.8 82 4.8c0-.7-.6-1.2-1.4-1.2h-.2c-.7.1-1.2.6-1.2 1.3.5 11.3-.9 22.7-4 33.6-3.8 12.8-9.4 21-13.4 25.6l1.6 3.4z"/><path d="M63.1 60.1c-11 0-20 9-20 20s9 20 20 20 20-9 20-20-9-20-20-20zm0 28.2a8.28 8.28 0 1 1 0-16.6 8.28 8.28 0 0 1 8.3 8.3h0c-.1 4.6-3.8 8.3-8.3 8.3z"/></g><path d="M94.4 54.7h14.3v50.6H94.4zm7.2-6.7c4.6 0 8.3-3.6 8.3-8.2s-3.6-8.3-8.2-8.3-8.3 3.6-8.3 8.2c0 4.5 3.7 8.2 8.2 8.3z" fill="none" stroke="#cd1e2a" stroke-width="2" stroke-linejoin="round"/></svg>