<?xml version="1.0" encoding="utf-8"?>
<!-- Generator: Adobe Illustrator 24.1.1, SVG Export Plug-In . SVG Version: 6.00 Build 0)  -->
<svg version="1.1" id="a18e6705-54a0-442b-9ea5-70fbc465050e"
	 xmlns="http://www.w3.org/2000/svg" xmlns:xlink="http://www.w3.org/1999/xlink" x="0px" y="0px" viewBox="0 0 201.3 140"
	 style="enable-background:new 0 0 201.3 140;" xml:space="preserve">
<style type="text/css">
	.st0{fill:#A8CE38;}
	.st1{fill:#7473AC;}
</style>
<path class="st0" d="M133.6,65.3c-4.3-11-4.3-23.3,0-34.3c1.1-2.7,2.5-5.3,4.2-7.8c1.6-2.4,3.4-4.7,5.3-6.9c3.8-4.4,8.2-8.2,13-11.5
	l0.4-0.3l0.4,0.4c2.4,2.1,4.5,4.6,6.3,7.3c1.8,2.7,3.1,5.7,4,8.8c1.9,6.3,1.9,13.1,0,19.4c-1.9,6.3-5.7,11.9-10.7,16.1
	c-5,4.1-11,6.7-17.5,7.4l-0.1-0.3c6-1.6,11.5-4.7,16-8.9c4.4-4.2,7.6-9.4,9.4-15.2c1.7-5.8,1.9-11.9,0.4-17.8
	c-1.5-5.9-4.5-11.4-8.8-15.8l0.8,0.1c-5,2.8-9.3,6.5-12.9,11c-1.8,2.2-3.3,4.6-4.6,7.1c-0.7,1.2-1.2,2.5-1.8,3.8
	c-0.3,0.6-0.5,1.3-0.8,2s-0.5,1.3-0.7,2c-0.9,2.6-1.7,5.3-2.3,8c-0.6,2.7-0.9,5.5-1.1,8.3c-0.3,5.7,0.1,11.4,1.3,16.9L133.6,65.3z"
	/>
<path class="st0" d="M155.1,13.7c0,4.2-0.4,8.3-1.1,12.5c-0.7,4.1-1.8,8.2-3.2,12.1c-2.8,7.9-6.9,15.3-12.2,21.8
	c4.4-7,8-14.5,10.8-22.3c1.4-3.9,2.6-7.8,3.5-11.9C153.8,21.9,154.6,17.8,155.1,13.7z"/>
<path class="st1" d="M23.5,45.4c0,0.1,0,0.1,0.1,0.1s0.2-0.2,0.1-0.3c0.2,0,0.4,0,0.8,0s0.6,0,0.9,0c0.3,0,0.5,0,0.8,0.1
	c0.2,0.5,0.2,1.1,0.2,1.7v1.2c0,0.5,0,0.9-0.2,1.4c-0.3,0.1-0.6,0.1-0.9,0.1c-0.3,0-0.6,0-0.9,0.1c-0.1,0.2-0.2,0.4-0.2,0.7
	c0,0.3,0,0.5,0,0.8c0,0.3,0,0.5,0,0.6v4.1c0.1,1.2-0.2,2.3-0.8,3.3c-0.3,0.5-0.6,0.9-1,1.2l-0.2,0.2c-0.1,0.1-0.1,0.1-0.2,0.1
	s-0.2,0-0.2,0.1h-0.2c0,0.1-0.1,0.1-0.2,0.1c-0.1,0-0.2,0-0.3,0.1c-0.3,0.2-0.7,0.2-1,0.2h-0.6c-0.1,0-0.2,0-0.3,0.1
	c-0.1,0.1-0.3,0.1-0.5,0.1h-4.5c-0.1,0-0.2,0-0.3-0.1c-0.1-0.1-0.2-0.1-0.3-0.1h-0.4c0-0.1-0.1-0.2-0.2-0.2c-0.2,0-0.4-0.1-0.5-0.1
	c-0.2-0.1-0.3-0.1-0.5-0.1c-0.1-0.1-0.2-0.2-0.4-0.2c-0.1,0-0.2-0.1-0.2-0.2v0h-0.2v-0.2h-0.4V60c-0.4-0.2-0.7-0.5-1-0.8
	c0,0-0.1,0-0.1-0.1s-0.1-0.2-0.1-0.3c0-0.1-0.1-0.2-0.2-0.3c-0.2,0-0.2-0.1-0.2-0.2c-0.1-0.1-0.1-0.1-0.1-0.2s0-0.2-0.1-0.2
	c-0.1-0.3-0.2-0.5-0.2-0.8v-1.7c0.1,0,0.2-0.1,0.2-0.2c0,0,0,0,0,0v-0.4c0.1,0,0.2-0.1,0.3-0.3s0.3-0.3,0.3-0.3c0-0.1,0-0.1,0-0.2
	c0,0,0-0.1,0.1-0.1h0v-0.2h0.2v-0.2H10c0.1,0,0.1,0,0.2,0c0,0,0.1,0,0.1-0.1v-0.1h0.2c0.3-0.1,0.5-0.3,0.8-0.3c0,0,0,0.1-0.1,0.1
	c0,0-0.1,0-0.1,0l0,0c0.1,0.1,0.1,0.1,0.2,0.1c0.1,0,0.1-0.1,0.2-0.1c0-0.1,0-0.2-0.1-0.2c0,0,0.1,0,0.1,0c0.3-0.1,0.6-0.2,0.9-0.2
	c0.3,0,0.6,0,0.9,0.2h0.2l0.2,0.2H14l0.2,0.2c0.1,0.1,0.3,0.2,0.4,0.3c0.1,0.1,0.3,0.2,0.4,0.3v0.2h0.2v0.2l0.2,0.2
	c0.1,0.1,0.1,0.1,0.1,0.2c0,0.1,0,0.2,0,0.3c0,0.1,0,0.2,0,0.3c0,0.1,0,0.1,0.1,0.1c0,0,0.1,0,0.1,0l0,0c0,0.1,0,0.2,0,0.4
	c0,0.1,0,0.2,0,0.3c0,0.1,0,0.2,0.1,0.3c0,0.1,0.1,0.2,0.4,0.2v-0.2c0.1,0,0.2,0,0.2,0.1s0.1,0.1,0.2,0.1c0.1,0,0.2-0.1,0.2-0.2h0.1
	c0-0.1,0-0.1,0-0.2c0,0,0-0.1,0.1-0.1l0,0c0.1-0.1,0.1-0.1,0.1-0.2c0-0.1,0-0.2,0.1-0.2c0.1,0.2,0.1,0.3,0,0.4
	c-0.1,0.1-0.1,0.1-0.2,0.2c0.1,0.1,0.1,0,0.2-0.1s0.1-0.2,0.2-0.2c0-0.1,0-0.2,0.1-0.2c0.1-0.1,0.1-0.1,0.1-0.2h-0.4V55
	c0-0.1,0.1-0.2,0.1-0.2c0.1-0.1,0.1-0.1,0.1-0.2h-0.2c0-0.3,0-0.9,0-1.7s0-1.5,0-2.1c0-0.5,0-1.1-0.1-1.6c-0.2,0-0.4,0-0.6,0
	c-0.3,0-0.5,0-0.6,0c-0.2,0-0.4,0-0.5-0.1c-0.2,0-0.3-0.1-0.4-0.2c-0.1-0.1-0.1-0.3-0.1-0.4c0-0.2,0-0.3,0-0.6c0-0.1,0-0.3,0-0.4
	c0-0.2,0-0.5,0-0.8s0-0.7,0-1c0-0.3,0-0.6,0.1-0.8h1H17c0.5,0,1,0,1.4,0c0.4,0,0.8,0,1.2-0.1h1c0.3-0.1,0.6-0.1,0.9-0.1
	c0.3,0,0.7,0,1.2,0s0.8,0,1,0c0,0,0,0.1,0,0.1c0,0,0,0-0.1,0h-0.1L23.5,45.4z M8.8,55.4c0,0,0.1-0.1,0.2-0.1c0.1,0,0.1,0,0.2,0
	c0,0,0.1,0,0.1,0c0,0,0-0.1,0-0.1C8.9,55.2,8.8,55.3,8.8,55.4L8.8,55.4z M9.2,54.9c0,0,0.1-0.1,0.1-0.1l0,0c0-0.1,0-0.1,0.1-0.1
	s0.1,0,0.1-0.1c-0.1,0-0.2,0.1-0.3,0.1c-0.1,0.1-0.1,0.2-0.1,0.3C9.1,55,9.2,55,9.2,54.9L9.2,54.9z M9.5,57.5c0,0,0-0.1-0.1-0.1
	l-0.2,0.2L9.5,57.5z M9.7,56c0,0.1,0,0.1-0.1,0.2c0,0,0,0,0.1,0C9.8,56.1,9.8,56,9.7,56z M9.8,54.3c0-0.1,0-0.1,0.1-0.2
	s0.2-0.1,0.2-0.1s0-0.1-0.1-0.1S10,54,9.8,54c-0.1,0-0.1,0.1-0.2,0.1C9.7,54.1,9.7,54.2,9.8,54.3L9.8,54.3z M9.7,55.1
	c0.1,0,0.2-0.1,0.2-0.2C9.8,54.9,9.7,54.9,9.7,55.1L9.7,55.1z M9.8,56.7v0.2H10C10,56.8,9.9,56.7,9.8,56.7z M10.1,55.5
	c0.1,0,0.2,0,0.2,0s0-0.1,0-0.2C10.2,55.3,10,55.4,10.1,55.5c-0.2,0-0.2,0.1-0.2,0.2L10.1,55.5z M10.4,56.6c0-0.1,0-0.1,0-0.2
	s-0.1,0-0.2,0L10.4,56.6L10.4,56.6z M10.3,53.6c0,0,0.1,0.1,0.1,0.1c0,0,0.1,0,0.1,0l0.1-0.1c0,0,0.1,0,0.1,0c0,0,0-0.1,0-0.1
	c0,0,0,0,0.1,0c0,0,0,0,0.1,0c0,0,0,0,0-0.1C10.6,53.4,10.4,53.5,10.3,53.6L10.3,53.6z M10.4,58.8c0.1,0,0.1,0,0.2,0
	c0.1,0,0.1,0,0.2,0c0,0,0.1,0,0.1-0.1L10.4,58.8L10.4,58.8z M10.5,59.8c0.1,0,0.1,0,0.1-0.1c0,0,0-0.1,0-0.1l0,0
	C10.6,59.6,10.5,59.7,10.5,59.8C10.4,59.8,10.4,59.8,10.5,59.8L10.5,59.8z M11.1,55.1c-0.3,0-0.4,0.1-0.4,0.2
	C10.9,55.3,11.1,55.3,11.1,55.1L11.1,55.1z M11.1,53.3C11.1,53.3,11.1,53.3,11.1,53.3L11.1,53.3C11,53.3,11,53.3,11.1,53.3
	L11.1,53.3z M11.5,59.3C11.5,59.3,11.4,59.3,11.5,59.3l-0.1,0.2C11.4,59.4,11.4,59.4,11.5,59.3L11.5,59.3z M11.6,53.3
	c-0.1,0-0.1,0-0.2,0s0,0.1,0,0.2L11.6,53.3z M11.6,55.6c0.1,0.2,0.1,0.2,0.2,0.1c0.1-0.1,0.1-0.2,0-0.3c0,0,0,0.1,0,0.1l-0.1,0.1
	l0,0L11.6,55.6z M12.7,58.3c0,0,0-0.1,0-0.1v0c-0.1,0-0.1,0-0.2,0s0,0.1,0,0.2C12.6,58.3,12.7,58.3,12.7,58.3L12.7,58.3z M12.7,59.5
	c0.1,0,0.2-0.1,0.2-0.2c0,0,0,0,0,0L12.7,59.5z M12.8,53.7c0,0,0.1,0,0.1,0c0,0,0,0,0-0.1C12.9,53.6,12.8,53.6,12.8,53.7L12.8,53.7z
	 M13.1,53.9c0.1,0,0.1,0,0.2-0.1l0.1-0.1C13.3,53.7,13.2,53.8,13.1,53.9L13.1,53.9z M13.2,55.7c0.1,0,0.1,0,0.2,0s0-0.1,0-0.2
	c-0.1,0-0.1,0-0.1,0.1C13.3,55.6,13.3,55.6,13.2,55.7L13.2,55.7L13.2,55.7z M13.2,58.6c0.1,0,0.2-0.1,0.2-0.2s-0.1,0-0.2,0
	S13.3,58.5,13.2,58.6L13.2,58.6z M13.3,59c0.3,0,0.4-0.1,0.4-0.2h-0.2c-0.1,0-0.1,0-0.2,0c-0.1,0-0.1,0-0.1,0.1
	C13.2,58.9,13.2,58.9,13.3,59L13.3,59z M13.8,60c0.1-0.1,0.1-0.1-0.1-0.1s-0.3,0-0.3,0.1c0-0.1,0.1-0.1,0.2-0.1
	C13.7,59.9,13.7,59.9,13.8,60C13.8,60,13.8,60,13.8,60L13.8,60z M13.8,53.9c-0.1,0.2-0.1,0.2,0,0.2C13.9,53.9,13.9,53.8,13.8,53.9
	L13.8,53.9z M14,58.9c0.1,0,0.2-0.1,0.2-0.2h0.2c0-0.1-0.1-0.1-0.2-0.1c-0.1,0-0.1,0.1-0.2,0.1V58.9z M14.3,57.5c0,0.1,0,0.1,0,0.2
	C14.3,57.7,14.4,57.7,14.3,57.5c0.1,0,0.1,0,0.2,0L14.3,57.5L14.3,57.5z M14.5,55.3c0-0.1,0-0.1,0.1-0.1s0,0-0.1-0.1
	C14.4,55.2,14.4,55.3,14.5,55.3L14.5,55.3z M14.8,46.3c-0.1,0.1-0.1,0.1,0,0.2c0.1,0,0.2-0.1,0.2-0.2H14.8z M14.9,45.9
	c0.1,0,0.2,0,0.3-0.1c0-0.1,0-0.1-0.1-0.1c0,0,0,0,0,0.1c0,0,0,0-0.1,0h-0.2C14.8,45.7,14.8,45.7,14.9,45.9L14.9,45.9z M15,60.1
	C15,60.1,15,60.1,15,60.1c0.2,0,0.3-0.1,0.3-0.2h-0.2C15,60,15,60,15,60.1L15,60.1z M15.6,57.7v-0.2h-0.2v0.2H15.6z M15.6,46.7
	c0-0.1,0-0.2-0.1-0.2v0.2C15.5,46.8,15.5,46.8,15.6,46.7L15.6,46.7z M16.3,46v-0.2H16V46H16.3z M16.2,48l0.2-0.1
	c0.1,0,0.1-0.1,0.1-0.1c0-0.1,0-0.1,0-0.2c-0.1,0-0.2,0.1-0.3,0.1C16.2,47.8,16.1,47.9,16.2,48L16.2,48z M17.2,46H17
	c0,0.1,0,0.1,0,0.2s0.1,0,0.2,0L17.2,46z M17.3,50.3v-0.2h-0.2v0.2H17.3z M17.2,55.6c0.1,0,0.1,0,0.1-0.1c0,0,0-0.1,0-0.1l0,0
	C17.3,55.4,17.2,55.5,17.2,55.6C17.2,55.6,17.2,55.6,17.2,55.6L17.2,55.6z M17.5,56.4C17.5,56.4,17.5,56.4,17.5,56.4
	C17.5,56.3,17.3,56.4,17.5,56.4z M17.5,51.7c0,0,0,0.1,0,0.1l0.3-0.1c0,0,0-0.1,0-0.1L17.5,51.7z M17.5,48.6c0.1,0,0.2-0.1,0.2-0.2
	S17.5,48.5,17.5,48.6L17.5,48.6z M17.5,45.8c0.1,0,0.2,0,0.2-0.1l0.1-0.1C17.6,45.6,17.5,45.6,17.5,45.8L17.5,45.8z M17.7,50.7v-0.2
	h-0.2v0.2H17.7z M17.7,53.8c0-0.1,0.1-0.2,0.1-0.2c-0.2,0-0.3,0.1-0.3,0.2H17.7z M17.8,48.3C17.8,48.3,17.8,48.3,17.8,48.3
	C17.8,48.3,17.8,48.3,17.8,48.3h-0.2c0.1,0,0.2,0,0.3,0L17.8,48.3z M18,55v-0.2h-0.2V55H18z M17.8,59.9c0.3,0,0.4-0.1,0.4-0.2
	C18,59.7,17.9,59.8,17.8,59.9z M18.1,53.1L18.1,53.1c-0.1,0.2,0,0.2,0.1,0.2s0.1-0.1,0-0.1S18.2,53.1,18.1,53.1L18.1,53.1z
	 M18.2,60.3c0,0,0,0,0-0.1s0.1-0.1,0-0.1C18.2,60.3,18.1,60.3,18.2,60.3L18.2,60.3z M18.2,51.5c0.1,0,0.2,0,0.2,0c0-0.1,0-0.1,0-0.2
	h-0.2L18.2,51.5L18.2,51.5z M18.6,54.5c0-0.1-0.1-0.1-0.2-0.1l-0.2,0.1H18.6z M18.4,46.3c0.1-0.1,0.1-0.2,0-0.2
	c-0.1,0-0.2,0.1-0.2,0.2c0,0,0,0,0,0H18.4z M18.4,49c0,0,0-0.1,0-0.1 M18.4,48.8c0,0,0,0.1,0,0.1V48.8z M18.4,51c-0.1,0-0.1,0-0.1,0
	H18.4c0.2,0.1,0.2,0.1,0.2,0L18.4,51z M18.4,49.8c0-0.1,0-0.1,0.1-0.1s0.1,0,0.1-0.1s-0.2-0.1-0.2,0S18.4,49.8,18.4,49.8L18.4,49.8z
	 M19.1,58.8C19,58.8,19,58.8,19.1,58.8c0.1,0.1,0.2,0.1,0.2,0H19.1z M19.3,45.6v-0.2h-0.2v0.2H19.3z M19.1,55.5c0.1,0,0.1,0,0.1-0.1
	c0,0,0-0.1,0-0.1v0C19.1,55.3,19,55.3,19.1,55.5C19,55.4,19,55.5,19.1,55.5L19.1,55.5z M19.9,45.4c0.1,0.1,0.1,0.1,0.2,0.1
	c0.1,0,0.1,0,0.2,0c0,0,0.1-0.1,0.1-0.1H19.9z M19.9,47.1l0.2-0.2h-0.2V47.1z M19.9,48.1c0.1,0,0.1,0,0.2,0.1c0,0,0,0,0-0.1
	C20.1,48.1,20,48.1,19.9,48.1L19.9,48.1z M20,50.3c0-0.1,0-0.2,0.1-0.2c0.1,0,0.1-0.1,0.2-0.1c-0.1,0-0.2,0-0.3,0.1
	C20,50.2,20,50.4,20,50.3L20,50.3z M20.2,49.8C20.2,49.8,20.2,49.8,20.2,49.8L20.2,49.8c-0.1-0.1-0.1,0-0.1,0c0,0,0,0.1,0,0.1
	L20.2,49.8z M20.4,49.7C20.4,49.7,20.4,49.7,20.4,49.7C20.4,49.6,20.5,49.6,20.4,49.7c0.1-0.1,0.1-0.1,0.1-0.1c0,0,0,0,0-0.1
	c-0.2,0-0.3,0-0.3,0.2L20.4,49.7L20.4,49.7z M20.6,55.3c-0.1,0-0.1,0-0.1,0H20.6c0.2,0.1,0.2,0.1,0.2,0L20.6,55.3z M20.5,46.1
	c0.1,0.1,0.2,0,0.2,0c0,0,0,0,0-0.1C20.7,46,20.6,46,20.5,46.1c0-0.1,0.1,0,0.1,0.1L20.5,46.1z M20.6,48.5c0.1,0,0.2-0.1,0.2-0.2
	c-0.1,0-0.1,0-0.2,0C20.7,48.4,20.6,48.4,20.6,48.5L20.6,48.5L20.6,48.5z M21,58.7C21,58.7,21,58.7,21,58.7C21,58.6,21,58.6,21,58.7
	l-0.2-0.1c0,0-0.1,0-0.1,0c0,0-0.1,0-0.1,0c0,0.1,0,0.1,0.1,0.1l0.1-0.1L21,58.7z M21.1,45.6h0.2c0.1,0,0.1,0,0.1-0.1
	c0-0.1,0.1-0.2,0.1-0.3c0,0.1-0.1,0.1-0.2,0.1c0,0,0,0,0,0.1l0,0C21.2,45.4,21.1,45.5,21.1,45.6L21.1,45.6z M21.7,56.6
	c-0.1,0.1-0.1,0.2,0.1,0.2c0,0-0.1,0-0.1-0.1C21.7,56.7,21.7,56.6,21.7,56.6L21.7,56.6L21.7,56.6z M21.9,46.3
	C21.9,46.3,21.9,46.2,21.9,46.3C21.9,46.2,21.9,46.2,21.9,46.3c0.1-0.1,0.1-0.1,0.1-0.1c0,0,0-0.1,0-0.1c-0.1-0.1-0.2-0.1-0.3,0
	C21.7,46.2,21.8,46.3,21.9,46.3L21.9,46.3z M22.7,45.7v-0.2h-0.2v0.2H22.7z M24.4,45.7c0,0.1,0.1,0.1,0.2,0c0.1,0,0.2-0.1,0.2-0.3
	c-0.1,0-0.2,0-0.3,0.1C24.5,45.6,24.4,45.7,24.4,45.7L24.4,45.7z"/>
<path class="st1" d="M29.2,46.8C29.3,46.9,29.3,46.9,29.2,46.8L29.2,46.8c0.1-0.1,0.1-0.1,0.1-0.2c0,0,0,0,0,0c0,0.1,0,0.2,0,0.3
	c0,0-0.1,0.1-0.1,0.1c-0.1,0-0.1,0-0.2,0.1v-0.1c0,0,0,0,0.1-0.1C29.2,47,29.2,46.9,29.2,46.8L29.2,46.8z M39.3,44.9h-7.5
	c-0.2,0-0.4,0-0.8,0s-0.6,0-0.9,0c-0.3,0-0.5,0-0.8,0.1h-0.1c0,0,0,0-0.1,0c0,0,0,0.1,0,0.1c-0.1,0-0.2,0.2-0.2,0.6
	c0,1.1,0,2.3,0.2,3.4c0.6,0.2,1.3,0.3,2,0.2c0,0.2,0,0.4,0,0.6c0,0.3,0,0.5,0,0.7c0,0.2,0,0.4-0.1,0.6v0.6c0.1,0.1,0.1,0.2,0.1,0.4
	c0,0,0,0-0.1,0.1c0.1,0,0.1,0.2,0,0.6v2.5c0,0.6,0,1.2,0.2,1.8c0,0.1,0,0.2,0.1,0.2s0.1,0.1,0.1,0.2V58c0.1,0.1,0.2,0.3,0.2,0.4
	c0.1,0,0.1,0.1,0,0.2H32v0.2h0.2V59l0,0c0,0,0,0,0.1,0.1c0,0,0.1,0.1,0.1,0.2c0.1,0,0.1,0,0.1,0.1c0,0,0.1,0.1,0.1,0.2
	c0,0.1,0.1,0.1,0.1,0.2l0.2,0.2v0.2h0.4v0.2c0.1,0,0.1,0,0.2,0s0,0.1,0,0.2h0.4l0.2,0.2c0.1,0,0.3,0.1,0.4,0.1
	c0.1,0.1,0.3,0.1,0.4,0.1c1.3,0.2,2.7,0.2,4,0.2h3.2c0.1-0.1,0.2-0.1,0.3-0.2l0.4-0.1c0.1,0,0.2-0.1,0.2-0.2h0.2l0.2-0.2l0,0
	c0,0,0,0,0.1-0.1c0,0,0.1-0.1,0.1-0.2c0.1,0,0.2,0,0.2,0l0.1-0.1c0,0,0.1-0.1,0.1-0.1c0,0,0.1-0.1,0.1-0.1c0.2,0,0.3-0.1,0.4-0.2
	v-0.2h0.2c0,0,0,0,0.1-0.1c0-0.1,0-0.1,0-0.2v-0.4h0.2c0.1-0.1,0.2-0.2,0.2-0.4c0-0.2,0.1-0.4,0.2-0.6c0.1-0.3,0.1-0.5,0.1-0.8
	c0-0.3,0-0.6,0-1s-0.1-0.7-0.1-0.9c0.2-0.2,0.2-0.5,0.2-0.8v-2.8c0-0.1,0-0.3,0-0.7c0-0.3,0-0.5,0-0.8c0-0.2,0.1-0.3,0.2-0.4
	c0.3-0.1,0.7-0.1,1-0.1c0.4,0,0.7,0,1.1-0.1c0.2-0.5,0.2-1.1,0-1.7v-0.2c0.1,0,0.1-0.1,0-0.2s0-0.5,0.1-0.8s0-0.6,0-0.9
	c0-0.3,0-0.5-0.1-0.8h-8.1v4.4h0.6c0.1,0,0.2,0.1,0.4,0.1h0.3c0.1,0,0.1,0,0.1,0.1v5.9c0,0.2-0.1,0.3-0.2,0.4V56l-0.4,0.4h-0.4
	c-0.2,0-0.3,0-0.5,0.1c-0.1,0.1-0.2,0.1-0.3,0.1c-0.5,0-1-0.1-1.4-0.4c-0.1-0.1-0.2-0.3-0.2-0.4c-0.2-1.6-0.2-3.2-0.2-4.8
	c0-0.5,0-1,0.2-1.5c0.2-0.1,0.5-0.1,0.8-0.1c0.4,0,0.6,0,0.6-0.1L39.3,44.9z M29,48.2c0-0.1,0.1-0.1,0.2,0H29z M29,45.3
	c0.1,0,0.2,0,0.2-0.1c0.1-0.1,0.2-0.1,0.4-0.1l-0.1,0.1l-0.1,0.1l-0.1,0.1c0,0-0.1,0-0.1,0C29.2,45.4,29.1,45.4,29,45.3L29,45.3z
	 M29.6,46.8C29.6,46.7,29.6,46.7,29.6,46.8c0.1-0.1,0.2-0.1,0.2-0.1H30L29.6,46.8z M30.5,45.5v-0.2h0.2l0,0c0,0,0,0-0.1,0.1
	C30.5,45.5,30.5,45.5,30.5,45.5L30.5,45.5z M30.8,45.4c0.1,0,0.1,0,0.1,0c0,0,0,0,0,0.1c0,0-0.1,0-0.1,0V45.4z M31,46.5
	c-0.1-0.1-0.1-0.2-0.1-0.3c0.1-0.1,0.2-0.1,0.3-0.1c0,0.1,0,0.2-0.1,0.2C31,46.4,31,46.5,31,46.5L31,46.5z M31,47.9v-0.2
	c0.1,0,0.1,0,0.1,0.1c0,0,0,0.1,0,0.1C31.1,47.9,31.1,47.9,31,47.9L31,47.9z M31.3,46.2c-0.1-0.1-0.1-0.2-0.1-0.3
	c0-0.1,0.1-0.1,0.2-0.1c0,0.1,0,0.2-0.1,0.2S31.2,46.1,31.3,46.2L31.3,46.2z M31.3,55.2V55h0.2v0.2L31.3,55.2z M31.4,54.6
	c0,0.1,0,0.1,0,0.1S31.3,54.6,31.4,54.6L31.4,54.6z M31.4,56.1c0.2,0,0.2-0.1,0.2-0.2c0.1,0.1,0.1,0.1,0.1,0.1L31.4,56.1z
	 M31.4,56.5v-0.2h0.2v0.2H31.4z M31.6,54.6c0,0.1-0.1,0.1-0.2,0C31.5,54.5,31.6,54.5,31.6,54.6L31.6,54.6z M31.5,45.6
	c0-0.2,0-0.3,0.1-0.3c0.1,0,0.1-0.1,0.1-0.1c0.1,0,0.1,0,0.1,0.1S31.6,45.6,31.5,45.6L31.5,45.6z M31.6,53.8c0,0,0-0.1,0-0.1
	l0.3-0.1c0,0.1,0,0.2-0.1,0.2C31.7,53.8,31.7,53.8,31.6,53.8L31.6,53.8z M31.6,48.6v-0.2h0.2v0.2H31.6z M31.6,52.1v-0.2h0.2v0
	c0,0,0,0.1,0,0.1C31.8,52.1,31.8,52.2,31.6,52.1L31.6,52.1z M32.2,47L32.2,47l0.1-0.1c0.1,0,0.1,0,0.2,0C32.5,47,32.4,47.1,32.2,47
	L32.2,47z M32.2,57.4h0.4l0,0l-0.2,0.1C32.4,57.4,32.3,57.4,32.2,57.4L32.2,57.4z M32.8,45.4c-0.1,0-0.2,0-0.3,0c0,0,0-0.1,0.1-0.2
	C32.8,45.2,32.9,45.3,32.8,45.4L32.8,45.4z M32.8,53.8c-0.3,0-0.3-0.1,0-0.2C33,53.6,33,53.7,32.8,53.8L32.8,53.8z M32.9,52
	c0,0.1-0.1,0.1-0.2,0.2s-0.1-0.1,0-0.2H32.9z M32.7,57.3c0-0.1,0.1-0.2,0.2-0.2h0.1C32.9,57.2,32.8,57.2,32.7,57.3L32.7,57.3z
	 M33.1,53.8c0-0.1,0.1-0.1,0.2-0.1s0.2,0,0.2-0.1C33.5,53.8,33.4,53.8,33.1,53.8L33.1,53.8z M33.4,49.5c0.1,0,0.2,0,0.1,0.1
	c-0.1,0.1-0.2,0.1-0.3,0.1c-0.1,0-0.1-0.1,0-0.2S33.4,49.5,33.4,49.5L33.4,49.5z M33.5,58.7c0,0.1-0.1,0.2-0.2,0.2s-0.1,0,0-0.2
	H33.5z M33.7,45.4L33.7,45.4c-0.1,0-0.2,0-0.2,0c-0.1,0-0.2,0-0.2-0.1L33.7,45.4z M33.3,46.3v-0.2h0.2v0.2H33.3z M33.3,52.1
	L33.3,52.1c0.2-0.1,0.2-0.1,0.2,0H33.3z M33.3,55.4c0-0.1,0-0.2,0-0.2s0.1,0,0.2,0s0,0.2,0,0.2S33.4,55.4,33.3,55.4L33.3,55.4z
	 M33.3,57.9c0-0.1,0-0.2,0-0.2s0.1,0,0.2,0c0,0.1,0,0.1,0,0.2C33.4,57.9,33.4,57.9,33.3,57.9L33.3,57.9z M33.3,50.9
	c0-0.1,0-0.2,0.1-0.2s0.1-0.1,0.1-0.2c0.1,0.1,0.1,0.2,0.1,0.3C33.5,50.9,33.4,51,33.3,50.9L33.3,50.9z M33.3,48.7v-0.3
	c0,0.1,0,0.1,0.1,0.2c0,0,0.1,0.1,0.1,0.2L33.3,48.7z M33.3,54.4c0-0.1,0.1-0.2,0.2-0.2s0,0.2,0,0.2S33.4,54.4,33.3,54.4L33.3,54.4z
	 M33.4,53.2h0.2c0,0,0,0,0,0.1c0,0-0.1,0.1-0.2,0.1S33.3,53.3,33.4,53.2L33.4,53.2z M33.6,59.9v-0.2h0.2v0.2H33.6z M33.6,54.4
	L33.6,54.4C33.6,54.4,33.6,54.4,33.6,54.4c0.1-0.1,0.2-0.2,0.2-0.2v0.2L33.6,54.4z M33.9,49L33.9,49c0.2-0.1,0.3-0.2,0.4-0.2
	C34.3,48.9,34.2,49,33.9,49L33.9,49z M34,47c0-0.1,0.1-0.2,0.4-0.2C34.3,46.9,34.2,47,34,47L34,47z M34,54.2c0-0.1,0.1-0.2,0.2-0.2
	c0,0,0,0,0,0l0,0L34,54.2z M34.2,45.5v-0.2h0.2v0.2H34.2z M34.3,53.6C34.3,53.6,34.3,53.6,34.3,53.6c-0.1-0.1,0.1-0.1,0.2-0.1
	L34.3,53.6z M34.3,48v-0.2c0.2,0,0.3,0.1,0.1,0.3L34.3,48z M34.3,58.2V58c0.2,0,0.3,0.1,0.1,0.2L34.3,58.2z M35,45.5
	c-0.1-0.1-0.2-0.1-0.2-0.2s0-0.1,0.1-0.1s0.1-0.1,0.1-0.1s0.1,0,0.1,0s0,0.1-0.1,0.1c0,0.1,0,0.1,0,0.2L35,45.5z M35.4,51h-0.2
	c0-0.1,0.1-0.1,0.2-0.2S35.4,50.9,35.4,51z M35.5,57.7v-0.2h0.2v0.2H35.5z M35.5,58.7c0-0.1,0-0.1,0-0.2s0.1,0,0.2,0
	S35.6,58.8,35.5,58.7L35.5,58.7z M35.6,54.1c0-0.1,0.1-0.2,0.4-0.2v0L35.8,54C35.8,54.1,35.7,54.1,35.6,54.1L35.6,54.1z M35.9,46
	c0-0.1,0-0.2,0.1-0.2c0,0,0,0,0.1,0v0.1c0,0,0,0-0.1,0.1C36,45.9,35.9,45.9,35.9,46L35.9,46z M36.1,52.6c-0.1,0-0.2-0.1-0.1-0.2
	s0.1-0.1,0.1,0V52.6z M36,50.8c0-0.1,0.1-0.2,0.2-0.2s0,0.1,0,0.2C36.1,50.8,36,50.8,36,50.8L36,50.8z M36.2,50.4
	c0-0.1,0.1-0.2,0.2-0.2c0,0,0,0,0,0c0,0.1,0,0.2,0,0.2S36.3,50.4,36.2,50.4L36.2,50.4z M36.2,53.8L36.2,53.8c0-0.1,0-0.1,0.1-0.1
	c0.1,0,0.1,0,0.2,0c0,0.1,0,0.2,0,0.2S36.3,53.9,36.2,53.8L36.2,53.8z M36.2,45.6v-0.2h0.2C36.4,45.5,36.3,45.5,36.2,45.6L36.2,45.6
	z M36.5,50.4v-0.2h0.2v0.2H36.5z M36.7,51.9L36.7,51.9c0,0,0,0.1,0,0.1c0,0,0.1,0.1,0.1,0.1C36.6,52.1,36.5,52,36.7,51.9L36.7,51.9z
	 M36.9,47.6L36.9,47.6c-0.1,0.1-0.2,0-0.2-0.2h0.2L36.9,47.6z M36.7,59c0-0.1,0-0.2,0-0.2s0.1,0,0.2,0C37,58.9,36.9,59,36.7,59
	C36.8,59,36.8,59,36.7,59L36.7,59z M37.1,45.4c0,0-0.1,0.1-0.2,0.1l-0.2-0.1c0,0,0.1,0,0.1,0L37.1,45.4z M36.9,54.7
	c0-0.1,0.1-0.2,0.3-0.2c0,0-0.1,0.1-0.1,0.1C37.1,54.6,37,54.7,36.9,54.7L36.9,54.7z M37.9,46.5v-0.2C38,46.4,38,46.5,37.9,46.5v0.1
	v0.1c-0.1,0-0.1,0-0.1-0.1c0,0,0-0.1,0-0.1C37.9,46.5,37.9,46.5,37.9,46.5L37.9,46.5z M38.1,47.7c-0.1,0-0.2,0.1-0.2,0.2
	C37.9,47.8,38,47.7,38.1,47.7L38.1,47.7z M37.9,58.2L37.9,58.2C37.9,58.2,37.9,58.2,37.9,58.2c0-0.1,0.1-0.2,0.1-0.2L37.9,58.2z
	 M38.3,58.6c0,0.1-0.1,0.1-0.2,0.2C38.1,58.7,38.2,58.6,38.3,58.6C38.3,58.6,38.3,58.6,38.3,58.6L38.3,58.6z M38.3,48.5
	c0,0.1,0.1,0.1,0.2,0s0.1,0,0.1,0.1c-0.1,0.1-0.2,0.1-0.3,0.1C38.3,48.7,38.3,48.6,38.3,48.5L38.3,48.5z M38.5,45.4
	c0.1,0,0.1,0.1-0.1,0.2C38.5,45.6,38.5,45.5,38.5,45.4L38.5,45.4z M39.5,57.3v-0.2h0.2v0.2H39.5z M40.1,46.8l-0.2,0.1
	c-0.1,0-0.1,0,0-0.1L40.1,46.8z M39.9,57.3c0-0.1,0-0.2,0.1-0.2c0,0,0,0,0.1,0l0,0L39.9,57.3z M40.2,48.7v-0.2h0.2v0.2L40.2,48.7z
	 M40.3,57.1c0-0.1,0.1-0.2,0.2-0.2c0,0,0,0,0,0l0.1,0C40.6,57,40.5,57.1,40.3,57.1L40.3,57.1z M41.3,46.6L41.3,46.6
	C41.3,46.6,41.3,46.6,41.3,46.6c0.1-0.1,0.2-0.1,0.2-0.1C41.5,46.6,41.5,46.7,41.3,46.6L41.3,46.6z M42.5,50.7v-0.2h0.3v0.2H42.5z
	 M42.9,45.5c-0.1,0-0.1,0-0.1-0.1s0.2-0.2,0.3,0S43.1,45.5,42.9,45.5C42.9,45.5,42.9,45.5,42.9,45.5L42.9,45.5z M45.3,45.4
	L45.3,45.4C45.3,45.5,45.3,45.5,45.3,45.4c0,0.1-0.1,0.1-0.1,0.1L45.3,45.4z M46.2,47h-0.4l0.2-0.2l0.1,0.1c0.1,0,0.1,0,0.1-0.1
	S46.4,46.9,46.2,47L46.2,47z M46.2,47.9h0.2c0,0.1-0.1,0.2-0.3,0.2C46.2,48.1,46.3,48.1,46.2,47.9L46.2,47.9z M46.2,45.5
	c0-0.1,0-0.3,0-0.4c0,0,0.1,0,0.3,0c-0.1,0-0.2,0.1-0.2,0.2c0,0,0,0,0,0v0.2L46.2,45.5z M47,48.5c0.1,0.1,0.1,0.1,0,0.1
	s-0.2,0-0.2,0s0-0.1,0-0.1S46.9,48.5,47,48.5L47,48.5z"/>
<path class="st1" d="M67.9,53.2c0.1,0,0.2,0.1,0.2,0.2c0,0,0,0,0,0h0.2v0.2h0.4l0.4,0.4v0.2c0.1,0.1,0.1,0.1,0.2,0.2l0.2,0.1
	c0.1,0,0.1,0.1,0.1,0.1s0.2,0.1,0.2,0.4c0.1,0,0.2,0,0.2,0c0,0.1,0,0.1,0,0.2v0.2l0.2,0.2v1.4c0.4,0.1,0.7,0.1,1.1,0
	c0.3-0.1,0.7-0.1,1,0c0.2,0.7,0.2,1.4,0.2,2.1c0,0.7,0,1.4-0.2,2.1c-0.3,0.1-0.7,0.1-1,0.1c-0.4,0-0.8,0-1.3,0s-0.9,0-1.2,0h-3.5
	v-0.2h-0.6L64.5,61c-0.1,0-0.2,0-0.2-0.1c-0.1-0.1-0.1-0.1-0.2-0.1h-0.2c0-0.1,0-0.1,0-0.2c0,0-0.1,0-0.2,0
	c-0.1-0.1-0.2-0.3-0.2-0.4L63.3,60c0-0.1-0.1-0.2-0.2-0.2c0-0.2-0.1-0.5-0.2-0.6V58c-0.2-0.2-0.2-0.4-0.2-0.7c0,0,0-0.2,0-0.4
	c0-0.2,0-0.4,0-0.7c0-0.2-0.1-0.4-0.2-0.6v-0.2c-0.1,0-0.1,0-0.2-0.1c-0.1,0-0.1-0.1-0.1-0.2c0-0.1-0.1-0.1-0.1-0.2h-0.4
	c-0.6-0.2-1.2-0.3-1.9-0.2c-0.3,0.3-0.3,1,0,2.1c0.1-0.1,0.3-0.2,0.4-0.2c0,0.1,0.1,0.2,0.4,0.2h0.2h0.3c0.2,0,0.3,0,0.5,0
	c0.1,0,0.2,0,0.3,0.1c0.3,1.1,0.3,2.2,0,3.3c0,0.1,0,0.2,0,0.3c0,0.1,0,0.2,0.1,0.3c0,0.1,0,0.2-0.1,0.2c-0.3,0.1-0.7,0.1-1,0.1
	c-0.3,0-0.7,0-1.2,0s-0.8,0-1.1,0v0.2c-0.1,0-0.1,0-0.2-0.1c0,0-0.1-0.1-0.1-0.1v0h-5.4c-0.2,0-0.4,0-0.8,0s-0.6,0-0.8,0
	c-0.2,0-0.4,0-0.6-0.1c-0.2-0.7-0.2-1.4-0.2-2.1c0-0.7,0.1-1.4,0.3-2.1c0.3-0.1,0.7-0.1,1-0.1c0.4,0,0.7,0,1.1-0.1
	c0.1-0.1,0.1-0.1,0.1-0.2c0-0.1,0-0.2,0-0.3c0-0.1,0-0.3,0-0.4c0.1-0.1,0.2-0.4,0.2-0.8v-5.8l-0.5,0.1c-0.3,0-0.5,0-0.5-0.1
	c-0.6,0.1-1.1,0-1.6-0.3v-4c0.1,0,0.2,0,0.3,0c0-0.1,0.1-0.1,0.2-0.1h5.6c0.1,0,0.2,0,0.2,0.1c0,0.1,0.1,0.1,0.2,0.1
	c0.1,0,0.2-0.1,0.2-0.1s0.1-0.1,0.2-0.1h1.8l0.2,0.2c0.5-0.2,1.1-0.3,1.7-0.2c0.2,0,0.5,0,0.7,0.1C62,45,62.3,45,62.5,45
	c0.3,0,0.6-0.1,0.8-0.1c0.3-0.1,0.5-0.1,0.8-0.1c0.7,0,1.4,0.2,2.1,0.4h0.4c0.2,0,0.2,0.1,0.2,0.2h0.2c0.1,0,0.2,0,0.3,0.1
	c0.1,0.1,0.2,0.1,0.3,0.1l0.2,0.2c0.1,0,0.2,0,0.3,0.1c0.1,0.1,0.2,0.1,0.3,0.1l0.6,0.6l0.2,0.2V47c0.1,0.1,0.3,0.2,0.4,0.2v0.4
	c0.1,0,0.1,0,0.2,0c0.1,0,0.1,0,0.1,0.1l0.1,0.1c0,0.3,0.1,0.4,0.2,0.4v2.5h-0.2v0.4c-0.2,0-0.2,0.1-0.2,0.2l-0.2,0.2v0.2
	c-0.3,0.1-0.4,0.3-0.4,0.4c0,0-0.1,0-0.1,0c0,0,0,0,0,0.1v0.1H69c0,0.2-0.1,0.2-0.2,0.2s-0.2,0-0.2,0s0,0.1,0,0.2
	c-0.3,0-0.4,0.1-0.4,0.2L67.9,53.2z M51,57.3c-0.3,0-0.4,0.1-0.4,0.2C50.9,57.5,51,57.5,51,57.3z M52,57.3h-0.2v0.4
	C52,57.7,52.1,57.5,52,57.3L52,57.3z M52.6,45.7c0.3,0,0.4-0.1,0.4-0.4c-0.2,0-0.3,0-0.4,0.1C52.6,45.5,52.6,45.6,52.6,45.7
	L52.6,45.7z M53.1,45.9c0.1,0,0.2,0,0.2-0.2C53.3,45.8,53.2,45.9,53.1,45.9L53.1,45.9z M53.7,61.2c0.1,0,0.2-0.1,0.2-0.4
	c0,0.1-0.1,0.1-0.2,0c0,0,0,0,0,0c0-0.1-0.1-0.1-0.2,0c0,0,0,0,0,0c0.1,0.1,0.1,0.1,0.1,0.2C53.6,61.1,53.6,61.1,53.7,61.2
	L53.7,61.2L53.7,61.2z M53.7,49.5v-0.2h-0.2v0.2H53.7z M53.9,51.5c0,0,0-0.1-0.1-0.1c0,0,0,0-0.1,0c-0.1,0-0.1,0.1,0,0.2L53.9,51.5z
	 M53.8,58c0.1,0,0.2,0,0.2,0s0-0.1,0-0.2C53.9,57.8,53.8,57.8,53.8,58C53.8,58,53.8,58,53.8,58L53.8,58z M54,53.6
	c0.3,0,0.4-0.1,0.4-0.2C54.3,53.4,54.1,53.5,54,53.6L54,53.6z M54.4,47.8v-0.2h-0.2v0.2H54.4z M54.3,57.2c0.2,0,0.3,0,0.3-0.2h-0.1
	c0,0,0,0.1,0,0.1c0,0,0,0-0.1,0C54.4,57.1,54.3,57.1,54.3,57.2C54.3,57.1,54.3,57.2,54.3,57.2L54.3,57.2z M54.3,51.3
	c0,0.1,0,0.1-0.1,0.2c0,0,0,0,0.1,0V51.3z M54.3,59.6c0.1,0,0.1,0,0.1-0.1c0-0.1,0-0.1,0-0.2c0-0.1-0.1-0.1-0.1-0.2
	c0,0.1,0,0.1-0.1,0.2C54.3,59.4,54.3,59.5,54.3,59.6C54.3,59.5,54.3,59.6,54.3,59.6L54.3,59.6z M54.3,46.4c0.1,0,0.1,0,0.2,0
	l0.2-0.1v-0.1c-0.1-0.1-0.2-0.1-0.3-0.1C54.3,46.2,54.3,46.3,54.3,46.4L54.3,46.4z M54.3,60.4c0.3,0,0.4-0.1,0.4-0.2h-0.3
	c0,0,0,0,0,0.1L54.3,60.4L54.3,60.4z M54.9,60.4c0.1,0,0.2,0,0.3,0c0,0,0-0.1,0-0.2c-0.1,0-0.2-0.1-0.2-0.2c0,0,0,0,0,0
	c0,0,0,0.1,0,0.1c0,0,0,0-0.1,0l0,0c0,0-0.1,0.1-0.2,0.1c-0.1,0-0.2,0.2-0.2,0.3c0.1,0,0.2,0,0.3,0c0.1,0,0.2-0.1,0.2-0.2
	c0-0.1,0.1-0.1,0.1-0.2L54.9,60.4z M54.4,57.6c0-0.1,0.1-0.1,0.2-0.1v-0.2C54.5,57.2,54.4,57.4,54.4,57.6L54.4,57.6z M54.9,60.8
	c0.1-0.1,0.1-0.3,0-0.4c0,0-0.1,0.1-0.2,0.2c-0.1,0.1-0.2,0.2-0.2,0.4C54.7,61,54.8,61,54.9,60.8L54.9,60.8z M54.5,45.8
	c0.1,0,0.2,0,0.3-0.1c0-0.1,0-0.1,0-0.2c-0.1-0.1-0.2-0.1-0.3-0.1V45.8z M54.7,59.8c0,0.1,0.1,0.2,0.2,0.2c0-0.1,0-0.2-0.1-0.3
	c-0.1-0.1-0.2-0.1-0.3,0.1L54.7,59.8z M54.6,51.2c0.1,0,0.2,0.1,0.2,0.2c0-0.3-0.1-0.4-0.2-0.4L54.6,51.2L54.6,51.2z M55,57.2
	c-0.1,0.1-0.1,0.2-0.1,0.3c0,0.1,0,0.1,0.1,0.1V57.2z M55.2,59.7c0.1,0,0.1-0.1,0-0.2H55v0.2H55.2z M55.2,60.3c0,0.1,0,0.2-0.2,0.2
	c0.1,0,0.2,0,0.2,0S55.3,60.4,55.2,60.3L55.2,60.3z M55.4,52.3c-0.1,0-0.2,0-0.2,0.1h0.2C55.5,52.3,55.5,52.3,55.4,52.3L55.4,52.3z
	 M55.6,57.9c-0.1,0.1-0.2,0.1-0.3,0.1c0.1,0,0.1,0.1,0.1,0.1c0,0,0.1,0.1,0.1,0.1c0,0,0.1,0,0.1,0C55.5,58,55.5,57.9,55.6,57.9
	L55.6,57.9z M55.6,58.6l-0.3-0.1c0,0,0,0,0,0.1H55.6z M55.8,47.5c-0.3,0-0.4,0.1-0.4,0.2C55.6,47.7,55.8,47.6,55.8,47.5z M55.6,57.2
	c0-0.1-0.1-0.2-0.2-0.2c0,0,0,0,0,0v0.2H55.6z M55.6,58.9c0-0.1-0.1-0.2-0.2-0.2S55.5,58.8,55.6,58.9z M55.6,56.8
	c0.1,0,0.2-0.1,0.3-0.1c0.1-0.1,0-0.2,0-0.3c0,0.1-0.1,0.1-0.2,0.2S55.6,56.7,55.6,56.8L55.6,56.8z M55.6,53.6
	c0.1,0,0.2-0.1,0.2-0.1c0,0-0.1,0-0.1,0h-0.1C55.6,53.4,55.6,53.4,55.6,53.6L55.6,53.6z M55.9,46.6c0-0.3-0.1-0.4-0.2-0.4
	c0,0.1,0.1,0.1,0.1,0.2c0,0,0,0.1,0,0.1v0.1c0,0,0,0,0,0.1L55.9,46.6L55.9,46.6z M55.9,60.6h-0.2v0.2c0,0,0.1,0,0.1,0.1s0.1,0,0.1,0
	V60.6z M55.9,45.6c-0.1,0-0.2,0-0.2,0.2h0.4C56.1,45.6,56,45.5,55.9,45.6L55.9,45.6z M55.9,46c-0.1,0-0.1,0-0.1,0H55.9
	c0.1,0.1,0.2,0.1,0.2,0L55.9,46z M56.1,51c0,0.1,0.1,0.2,0.2,0.3l0,0c0,0,0,0-0.1-0.1C56.3,51.1,56.3,51,56.1,51
	C56.1,50.9,56.1,50.9,56.1,51L56.1,51z M56.4,59.9c0,0,0-0.1-0.1-0.1S56.3,59.8,56.4,59.9C56.3,59.9,56.3,59.9,56.4,59.9L56.4,59.9z
	 M56.2,45.8c0.2,0,0.3,0,0.3-0.1s0-0.2,0-0.4v0.1c-0.1,0-0.1-0.1-0.2-0.1c0,0,0.1,0.1,0.1,0.1c0,0,0,0.1,0,0.1l-0.1,0.1
	C56.3,45.8,56.3,45.8,56.2,45.8L56.2,45.8z M56.2,59.3c0,0.1,0.1,0.2,0.2,0.2s0.2,0,0-0.2H56.2z M56.5,56.4v-0.2h-0.2v0.2H56.5z
	 M56.3,49.5c0.1,0,0.2-0.1,0.2-0.2s-0.2,0-0.2,0C56.3,49.3,56.3,49.4,56.3,49.5L56.3,49.5z M56.6,60.5c0,0-0.1,0-0.2,0
	S56.4,60.5,56.6,60.5C56.6,60.5,56.6,60.5,56.6,60.5z M56.4,60.8c0.1,0,0.1,0,0.2,0.1L56.5,61c0.1,0,0.2-0.1,0.3-0.2
	c0.1-0.1,0.1-0.2,0-0.3c0,0,0,0,0,0c0,0.1,0,0.1-0.1,0.1C56.6,60.7,56.5,60.7,56.4,60.8L56.4,60.8z M56.9,60.1v0.2h0.2
	C57.1,60.2,57,60.1,56.9,60.1C56.9,60,56.8,60,56.9,60.1L56.9,60.1z M57.1,56.8v-0.2h-0.2v0.2H57.1z M56.9,58.9
	c0.1,0,0.2-0.1,0.2-0.2c0,0,0,0,0,0c-0.1,0-0.2,0-0.2,0S56.9,58.8,56.9,58.9L56.9,58.9z M57.3,59.5h-0.2c0,0-0.1,0.1-0.1,0.1
	c0,0,0,0.1,0,0.1l0.1,0.1l0.1,0.1L57.3,59.5z M58.3,56.9c-0.1,0-0.1,0-0.2,0L58,57c0,0-0.1,0-0.1,0c0,0,0,0-0.1,0l-0.1-0.1
	c0,0-0.1-0.1-0.1-0.1l-0.1-0.1l-0.1-0.1c0,0,0,0,0-0.1c0,0,0.1-0.1,0.1-0.1c-0.1,0-0.1,0-0.2,0.1l-0.2,0.1v0c-0.1,0.1-0.1,0.2,0,0.2
	c0.1,0.1,0.2,0.1,0.3,0s0.1-0.1,0.1,0V57c0.1,0,0.1,0,0.2,0 M57.8,57.1c0,0,0,0.1,0,0.1c0,0.1,0.1,0.1,0.2,0.1
	c-0.1-0.1,0-0.3,0.2-0.3s0.3-0.2,0.3-0.3L57.8,57.1z M57,58.3c0,0.1,0.1,0.3,0.1,0.3c0.1,0.1,0.2,0.1,0.3,0
	c-0.1-0.1-0.2-0.1-0.2-0.2c0-0.1,0-0.2,0.1-0.2c0.1-0.1,0.1-0.1,0.1-0.2c-0.1,0-0.2,0-0.2,0.1c-0.1,0.1-0.1,0.1-0.2,0.1L57,58.3z
	 M57,59.4c0.1-0.1,0.1-0.1,0.2-0.1c0,0,0,0,0-0.1h-0.2c0,0,0,0,0,0.1C57.1,59.3,57.1,59.3,57,59.4L57,59.4L57,59.4z M57.3,57.8v-0.2
	h-0.1c0.1,0,0.2-0.1,0.2-0.2l-0.1-0.1c-0.1,0-0.2,0.1-0.2,0.2v0.2L57.3,57.8z M57.1,60.3c0.2,0.1,0.3,0.1,0.4-0.1
	c0,0-0.1,0.1-0.1,0.1C57.3,60.3,57.2,60.3,57.1,60.3L57.1,60.3L57.1,60.3z M57.3,45.9c0-0.3-0.1-0.4-0.2-0.4v0.2L57.3,45.9z
	 M57.5,59.1c-0.1,0-0.1,0-0.1,0.1c0,0,0,0,0,0c0,0.1,0,0.1,0,0.1h0.2v0.2h0.2c0.1,0,0.2-0.1,0.2-0.2c0,0,0,0,0,0
	c-0.1,0.1-0.2,0.1-0.3,0.1C57.6,59.3,57.5,59.2,57.5,59.1L57.5,59.1z M57.5,58.1C57.5,58,57.5,58,57.5,58.1
	C57.5,58,57.5,58,57.5,58.1c0.1-0.1,0.1-0.1,0.1-0.1c0,0,0-0.1,0-0.1c-0.1-0.1-0.2-0.1-0.3,0S57.4,58.1,57.5,58.1L57.5,58.1z
	 M57.5,51c0.1,0,0.2-0.1,0.2-0.2c0,0,0,0,0-0.1C57.5,50.8,57.4,50.8,57.5,51L57.5,51L57.5,51z M57.7,54.3c0.1,0,0.2,0,0.2-0.1
	s-0.3-0.1-0.4,0.1s-0.1,0.1,0,0.1S57.5,54.3,57.7,54.3L57.7,54.3z M57.5,59c0.1,0,0.1,0,0.2-0.1c0,0,0.1-0.1,0.1-0.1l0.1,0
	C57.7,58.8,57.6,58.9,57.5,59L57.5,59z M57.6,55.4c0-0.1,0-0.2-0.2-0.2v0.4C57.6,55.7,57.6,55.6,57.6,55.4L57.6,55.4z M57.9,56.8
	c-0.1,0-0.2,0-0.2,0s0,0.1,0,0.2h0.2c0.3-0.3,0.4-0.4,0.2-0.4c0,0.1,0,0.1-0.1,0.2C58,56.7,57.9,56.8,57.9,56.8L57.9,56.8L57.9,56.8
	z M57.8,58.3c-0.1,0-0.1,0-0.1,0s0,0.1,0.2,0.2L57.8,58.3z M57.9,59c0,0.1,0.1,0.2,0.2,0.2s0.2,0,0-0.2H57.9z M58,59.8
	c0.1,0.1,0.2,0.1,0.2,0H58z M58,45.4c0,0.3,0.1,0.4,0.2,0.4C58.3,45.5,58.2,45.4,58,45.4L58,45.4z M58.7,49c-0.2,0-0.3,0-0.3,0.2
	h0.1C58.7,49.2,58.7,49.2,58.7,49L58.7,49z M58.6,61c0-0.1,0-0.2,0.1-0.3c-0.1,0-0.1,0-0.1,0.1c0,0,0,0.1,0,0.1L58.6,61
	C58.6,61,58.6,61,58.6,61L58.6,61z M58.9,58.6c0.1,0,0.2,0,0.2-0.1c-0.3,0-0.5,0-0.5,0.1v0.1C58.7,58.6,58.8,58.6,58.9,58.6
	L58.9,58.6z M58.9,59.3c0,0,0-0.1,0.2-0.1s0.1-0.1,0.1-0.3c-0.1,0-0.2,0.1-0.3,0.2S58.8,59.3,58.9,59.3L58.9,59.3z M59.1,60.7
	c0-0.1,0-0.2-0.1-0.2c0,0,0,0-0.1,0c0,0.1,0,0.2,0,0.2S59,60.7,59.1,60.7L59.1,60.7z M58.9,48c0.1,0,0.1,0,0.1-0.1c0,0,0-0.1,0-0.1
	v-0.1C58.9,47.7,58.8,47.8,58.9,48L58.9,48z M62,51.1c0.3-0.2,0.6-0.5,0.6-0.8c0-0.2-0.1-0.4-0.4-0.6c-0.3-0.2-0.7-0.3-1-0.3
	c-0.5-0.1-1,0-1.4,0.2c-0.1,0.1-0.1,0.3-0.1,0.4c0,0.2,0,0.4,0.1,0.6c0,0.3,0,0.5,0,0.6c0.6,0,1.3,0,1.9-0.2L62,51.1z M59.8,52.8
	c-0.1,0-0.1,0-0.1,0H59.8c0.2,0.1,0.2,0.1,0.2,0H59.8z M59.9,45.4c-0.2,0-0.2,0.1-0.2,0.4C59.8,45.8,59.9,45.6,59.9,45.4L59.9,45.4z
	 M60.2,57.5c0.1-0.1,0-0.1-0.1-0.1s-0.3,0-0.3,0.1 M59.7,57.5h0.5H59.7z M59.8,59.7c0,0,0.1,0.1,0.1,0.1h0.1c0.1,0,0.1,0,0.1,0
	c0,0,0-0.1,0-0.1L59.8,59.7L59.8,59.7z M60.1,61c0,0,0.1,0,0.1,0c0,0,0,0,0-0.1v-0.1L60.1,61z M60.9,48.6v0.2
	C60.8,48.8,60.8,48.7,60.9,48.6L60.9,48.6z M61,58c0-0.1,0.1-0.2,0.1-0.2c0,0-0.1,0-0.1,0C60.9,57.9,60.9,58,61,58z M60.9,52.2
	c0-0.1,0-0.1,0.2-0.2h-0.2V52.2z M61.1,53.5c0.1,0,0.1,0,0.2-0.1l0.1-0.1h0.1c-0.1-0.1-0.2-0.1-0.4,0C61.1,53.4,61.1,53.4,61.1,53.5
	L61.1,53.5z M61.6,59.8c-0.3,0-0.4,0.1-0.4,0.2C61.4,60,61.5,59.9,61.6,59.8L61.6,59.8z M61.5,59.6c0,0,0-0.1,0-0.1l-0.2,0.2
	L61.5,59.6z M61.3,51.6c0,0.3,0.1,0.4,0.2,0.4c0-0.1,0-0.1-0.1-0.2c0,0,0,0,0.1,0c0.1,0,0.2-0.1,0.2-0.2c0,0,0,0,0-0.1H61.3z
	 M61.8,45.8v-0.4h-0.2v0.4H61.8z M62.6,51.3c-0.1,0-0.1,0-0.2,0.1c0,0.1-0.1,0.1-0.1,0.1C62.5,51.5,62.6,51.4,62.6,51.3L62.6,51.3z
	 M62.4,48c0.1,0,0.2-0.1,0.2-0.2C62.5,47.8,62.4,47.9,62.4,48z M62.7,51c-0.1,0.1-0.1,0.1-0.1,0.2c0,0,0,0,0.1-0.1
	C62.7,51.1,62.7,51,62.7,51L62.7,51z M62.9,45.6c0.2,0,0.3,0,0.4-0.1c0-0.1,0.1-0.2,0.1-0.3C63.1,45.1,62.9,45.3,62.9,45.6
	L62.9,45.6z M63,49.4c0.1,0,0.1,0,0.2-0.1l0.2-0.1v0C63.1,49.1,63,49.2,63,49.4L63,49.4z M63.4,48.1c-0.1,0-0.2,0-0.3,0
	c0,0,0,0.1,0,0.2L63.4,48.1z M63.4,51.4c-0.1,0-0.2,0.1-0.2,0.4c0.1,0,0.1,0,0.2-0.1C63.4,51.7,63.4,51.6,63.4,51.4L63.4,51.4
	L63.4,51.4z M63.3,56.1c-0.1,0.1,0,0.2,0.2,0.2L63.3,56.1z M63.9,45.6v-0.1h-0.2v0.2L63.9,45.6z M63.8,58.5c0.1,0,0.1,0,0.2,0
	c0.1,0,0.1,0,0.2,0c0,0,0.1,0,0.1-0.1L63.8,58.5L63.8,58.5z M64,55.7v-0.2l-0.2,0.2C64,55.8,64,55.8,64,55.7z M64.3,47.2
	c0-0.1,0-0.1,0-0.2c0,0-0.1,0-0.2,0c0,0,0,0.1,0,0.1c0,0,0,0,0.1,0L64.3,47.2L64.3,47.2z M64.1,57.8c0.2,0,0.2-0.1,0.2-0.2
	s0-0.2-0.1-0.1L64,57.6c0.1,0,0.1,0,0.2,0L64.1,57.8L64.1,57.8z M64.1,51.6c0.1,0,0.1,0,0.1-0.1c0,0,0-0.1,0-0.1l0,0
	C64.1,51.4,64,51.4,64.1,51.6C64,51.6,64,51.6,64.1,51.6L64.1,51.6z M64.4,55.6c0,0,0.1,0,0.1,0c0,0,0.1,0,0.2-0.1
	c-0.1,0-0.1,0-0.1-0.1c0,0,0,0,0,0c0-0.1,0-0.1-0.1-0.1s0,0.2,0,0.2c-0.1,0-0.1,0-0.2,0C64.3,55.5,64.4,55.5,64.4,55.6L64.4,55.6z
	 M64.5,52.1c0,0,0.1,0,0.1,0l0.1,0h-0.4C64.4,52.1,64.4,52.1,64.5,52.1L64.5,52.1z M64.3,47.4c0.3,0,0.4-0.1,0.4-0.2
	C64.5,47.2,64.4,47.3,64.3,47.4L64.3,47.4z M64.7,54.3c-0.1,0-0.2,0-0.2,0.1c-0.1,0.1-0.1,0.1-0.2,0.1
	C64.6,54.5,64.7,54.4,64.7,54.3L64.7,54.3z M64.6,57.5c0,0,0-0.1,0.2-0.2s0.1-0.1,0.1-0.2c0,0.1,0,0.1-0.1,0.2
	c-0.1,0-0.1,0.1-0.2,0.1C64.6,57.4,64.6,57.5,64.6,57.5L64.6,57.5z M64.6,56.2c0.1,0,0.2-0.1,0.3-0.2l0,0l0,0L64.6,56.2L64.6,56.2z
	 M65,46.3c0.1-0.1,0.1-0.1,0.1-0.2s-0.1,0.2-0.4,0.4l0,0L65,46.3z M65,58.9c-0.1-0.1-0.2-0.1-0.3,0c0,0,0.1,0.1,0.1,0.1L65,58.9z
	 M64.8,53.3v0.2C64.9,53.5,64.9,53.5,64.8,53.3L64.8,53.3z M64.8,57.1l0.2-0.2C64.9,56.9,64.8,56.9,64.8,57.1L64.8,57.1z M64.9,60.9
	C64.9,60.9,64.9,60.9,64.9,60.9C64.9,60.8,64.9,60.8,64.9,60.9c0.1-0.1,0.1-0.1,0.1-0.1c0,0,0-0.1,0-0.1c-0.1,0-0.2,0-0.3,0.1
	C64.8,60.9,64.8,61,64.9,60.9L64.9,60.9z M64.9,54.7c0.3,0,0.4-0.1,0.4-0.2h-0.2C65.1,54.6,65,54.7,64.9,54.7L64.9,54.7z M65.1,45.7
	c0,0.1-0.1,0.2-0.1,0.2h0.3v-0.2C65.2,45.7,65.1,45.7,65.1,45.7L65.1,45.7z M65.2,47.7c-0.1,0-0.2,0-0.2,0s0,0.1,0,0.2L65.2,47.7z
	 M65.1,59.9c0.1,0,0.1,0,0.2-0.1c0,0,0.1-0.1,0.1-0.1v0c-0.1-0.1-0.2-0.1-0.2-0.1C65.1,59.7,65.1,59.8,65.1,59.9L65.1,59.9z
	 M65.2,58.8c0.1,0,0.1,0,0.2,0c0,0,0-0.1,0-0.2L65.2,58.8z M65.7,51.6c0-0.1,0-0.2,0-0.2s-0.1,0-0.2,0v0.2H65.7z M65.9,54.9
	L65.9,54.9c-0.3,0-0.4,0-0.4,0.1C65.7,55.1,65.8,55,65.9,54.9L65.9,54.9z M66.1,46.9c-0.1,0-0.2,0-0.3,0c0,0,0,0.1,0,0.2L66.1,46.9z
	 M65.8,51.6C65.8,51.6,65.8,51.6,65.8,51.6C65.8,51.4,65.8,51.6,65.8,51.6L65.8,51.6z M65.8,49.9c0.2,0,0.3,0,0.3-0.1s-0.1,0-0.1,0
	s0,0.1-0.1,0.1S65.9,49.8,65.8,49.9L65.8,49.9z M65.8,50.3c0.2,0,0.3,0,0.3-0.2L66,50.1C65.9,50.1,65.8,50.2,65.8,50.3
	C65.8,50.3,65.8,50.3,65.8,50.3L65.8,50.3z M66,51.6h-0.1l0.3-0.1C66.1,51.5,66.1,51.5,66,51.6L66,51.6z M66.9,46.3
	c-0.3,0-0.4,0.1-0.4,0.2C66.6,46.5,66.8,46.4,66.9,46.3L66.9,46.3z M66.6,56.3c0.1,0,0.1,0.1,0,0.2h0.2c0,0-0.1,0-0.1,0
	c0,0,0,0,0-0.1v-0.1L66.6,56.3z M66.9,48.3L66.9,48.3c-0.1,0-0.2,0.1-0.2,0.2c0,0,0,0,0,0L66.9,48.3z M67,48.5
	c0.1,0,0.2-0.1,0.2-0.2C67.2,48.3,67.1,48.4,67,48.5L67,48.5z M67.2,55.3l-0.1,0.1c0,0.1,0,0.1,0.1,0.1V55.3
	C67.4,55.2,67.4,55.2,67.2,55.3L67.2,55.3z M67.5,55.1c0.1,0,0.2,0,0.3-0.1c0-0.1,0-0.2-0.1-0.3c0,0.1,0,0.2-0.1,0.2
	C67.5,54.9,67.5,55,67.5,55.1L67.5,55.1z M67.6,51.3c0-0.1,0.1-0.1,0.2-0.1h-0.2V51.3z M67.6,54.6C67.6,54.6,67.6,54.6,67.6,54.6
	c0.1,0,0.2,0,0.2,0c0,0,0,0,0-0.1C67.7,54.5,67.7,54.5,67.6,54.6L67.6,54.6z M67.6,47.6c0.1,0,0.1,0,0.2,0c0,0,0-0.1,0-0.2
	L67.6,47.6L67.6,47.6z M67.8,59c0,0.1,0,0.2-0.2,0.2c0.1,0,0.2,0,0.2,0S67.9,59.2,67.8,59L67.8,59z M68.1,50c-0.1,0-0.1,0-0.2,0l0,0
	c0,0.1,0.1,0.1,0.2,0.1l0.2-0.1c0-0.1-0.1-0.1-0.2-0.2L68.1,50z M68.3,50.1c0,0,0-0.1,0-0.1c0-0.1,0-0.1-0.1-0.1v0.4
	c0-0.1,0.1-0.3,0.2-0.3L68.3,50.1z M68.8,55.4c-0.3-0.1-0.4-0.1-0.4,0c0.1-0.1,0.1-0.1,0.2-0.1L68.8,55.4
	C68.7,55.4,68.7,55.4,68.8,55.4L68.8,55.4z M68.4,58c0,0.1,0,0.1,0.1,0.1c0.1,0,0.1,0,0.2,0c0.1,0,0.1-0.1,0.2-0.1H68.4z M68.6,58.6
	c0,0,0,0.1-0.1,0.1c0,0,0,0.1,0,0.1c0,0,0,0.1,0.1,0.2L68.6,58.6z M69,57.2c0.1,0,0.2-0.1,0.2-0.2c0,0,0,0,0-0.1
	C69.1,57,69,57,69,57.2C69,57.2,69,57.2,69,57.2L69,57.2z M69.2,55.1v-0.2H69v0.2H69.2z M69.3,59.6c-0.1-0.1-0.2-0.1-0.2,0H69.3z
	 M69.6,49.9v-0.2h-0.2v0.2H69.6z M70,59.9c0.2,0,0.3,0,0.3-0.2h-0.1c0,0,0,0.1,0,0.1c0,0,0,0-0.1,0C70.1,59.8,70.1,59.8,70,59.9
	C70.1,59.8,70.1,59.8,70,59.9L70,59.9z M70.7,60.5c-0.1,0-0.1,0-0.1,0H70.7c0.1,0.1,0.2,0.1,0.2,0L70.7,60.5z M70.8,61v-0.2h-0.2V61
	L70.8,61z M71.4,57.8c0.1,0,0.2,0,0.2-0.1s-0.3-0.1-0.4,0.1s0,0.1,0,0.1S71.3,57.8,71.4,57.8L71.4,57.8z"/>
<path class="st1" d="M73.6,57.2c0-0.1,0.1-0.2,0.4-0.2C74,57.2,73.9,57.2,73.6,57.2z M79,50c-0.1,0-0.2,0-0.2,0s0-0.1,0-0.2
	s-0.1,0.1,0,0.2c-0.1,0-0.2,0-0.2,0s0,0.1,0,0.2v0.2l0,0c0,0,0,0-0.1,0.1c0,0,0,0.1-0.1,0.2v0.1c0,0-0.1,0.1-0.1,0.1
	c0,0.1-0.1,0.1-0.1,0.2v0.2h-0.2c0,0,0,0.1,0,0.1c0,0,0,0.1,0.1,0.1c0,0,0,0,0,0.1c0,0.1,0,0.1-0.1,0.1v0.4h-0.3v0.2
	c0,0.1-0.1,0.2-0.2,0.2v0.4h-0.2v0.4l-0.2,0.2V54L77,54.2v0.2l-0.2,0.2c-0.1,0.2-0.2,0.5-0.3,0.7L76.2,56v0.4c0,0.1-0.1,0.2-0.1,0.2
	C76,56.7,76,56.8,76,56.9h-0.8c-0.3,0-0.6,0-0.8,0c-0.2,0-0.3,0-0.5,0.1c-0.1,0.3-0.2,0.7-0.2,1v0.4c0.1,0.4,0.1,0.9,0,1.3
	c-0.1,0.4-0.1,0.8,0,1.1c0.2,0.3,0.5,0.4,0.8,0.4h0.6c0.6,0.1,1.1,0.1,1.7,0.1c0.6,0,1.3,0,2,0c0.7,0,1.3,0,1.6,0c0.2,0,0.4,0,0.7,0
	s0.5,0,0.7,0c0.2,0,0.4,0,0.6-0.1v-4.3h-0.2h-0.5c-0.2,0-0.5,0-0.7,0c-0.2,0-0.4,0-0.6,0.1c0-0.1,0-0.2,0.1-0.2
	c0.1-0.1,0.1-0.2,0.1-0.4h3.8c0,0.1,0,0.2,0.1,0.3c0.1,0.1,0.1,0.2,0.1,0.3h-1.6V57h0.4c0,0.1-0.1,0.2-0.4,0.2
	c0.2,0.2,0.2,0.4,0.2,0.6v1.6c-0.2,0.5-0.2,1.1-0.2,1.6h0.8c0.7,0.1,1.5,0.1,2.4,0.1s1.8,0,2.8,0h2.2h1.2c0.1,0,0.2,0,0.4,0
	c0.2,0,0.3,0,0.4,0c0.1,0,0.2,0,0.3-0.1c0.1,0,0.2-0.1,0.4-0.2c0.2-0.7,0.2-1.3,0.2-2v-0.4c0-0.1,0-0.3,0-0.5c0-0.2,0-0.4,0-0.7
	c0-0.2-0.1-0.3-0.2-0.4h-2.1c-0.2-0.2-0.2-0.5-0.2-0.8c0,0,0,0-0.1,0c0-0.1,0.1-0.1,0.1-0.2h-0.2v-0.2c0-0.1-0.1-0.2-0.2-0.2
	c0,0,0,0,0,0V55c0-0.1-0.1-0.2-0.1-0.3c0-0.1-0.1-0.2-0.1-0.3c0-0.1-0.1-0.1-0.2-0.2V54c0-0.1,0-0.2-0.1-0.2c0,0,0,0-0.1,0
	c0-0.3-0.1-0.6-0.2-0.8c-0.1-0.1-0.1-0.1-0.1-0.2c0-0.1-0.1-0.2-0.1-0.3c0-0.1-0.1-0.1-0.2-0.1V52c0.1-0.1,0.1-0.2,0-0.2
	c-0.3-0.3-0.4-0.6-0.4-1c-0.5-0.9-0.9-1.9-1.2-2.9l-0.2-0.2v-0.4h-0.2v-0.6h-0.2v-0.4h-0.2V46l-0.2-0.2v-0.4h-0.2
	c0-0.1-0.1-0.2-0.1-0.3C86.9,45,86.8,45,86.7,45h-1.8c-0.3-0.1-0.6-0.1-0.9-0.1c-0.3,0-0.7,0-1,0s-0.6,0-0.8,0h-1.2
	c-0.1,0-0.2,0.1-0.3,0.1c-0.1,0.1-0.1,0.2-0.1,0.3v0.2c-0.1,0-0.1,0-0.2,0c-0.1,0-0.1,0.1-0.1,0.1c0,0.1-0.1,0.1-0.1,0.2v0.4
	c0,0.1-0.1,0.2-0.2,0.2c0,0,0,0,0,0v0.2l-0.2,0.2v0.3c0,0,0,0,0,0.1c0,0-0.1,0-0.1,0c0.1,0,0.2,0.1,0.2,0.2h-0.2V48h-0.2v0.4
	l-0.2,0.2v0.2c0,0.1-0.1,0.2-0.2,0.2v0.2l-0.2,0.2v0.4c0.1,0,0.2,0.1,0.2,0.2c0,0,0,0,0,0L79,50z M73.9,58.5c-0.1,0-0.1-0.1,0-0.2
	c0,0,0,0,0.1,0C73.9,58.4,73.9,58.4,73.9,58.5z M75.9,58L75.9,58C75.9,58,75.9,58,75.9,58c0-0.1,0.1-0.1,0.1-0.1
	c0,0.1-0.1,0.2-0.1,0.3c-0.1,0.1-0.2,0.1-0.3,0.1c-0.1-0.1-0.1-0.2,0-0.2C75.7,58.1,75.8,58.1,75.9,58L75.9,58z M75.7,57.6
	c0.3,0,0.4-0.1,0.4-0.2c0.1,0,0.1,0.1,0,0.2c-0.1,0-0.2,0-0.2,0.1c-0.1,0.1-0.1,0.1-0.2,0.1L75.7,57.6z M75.9,60.6h-0.2v-0.2h0.2
	V60.6z M75.9,59.5v-0.2h0.4C76.1,59.4,76,59.4,75.9,59.5L75.9,59.5z M76.3,60.2c0-0.1,0.2-0.2,0.6-0.2c0,0.1-0.1,0.2-0.2,0.2
	c-0.1,0-0.2,0-0.2,0C76.4,60.3,76.4,60.3,76.3,60.2L76.3,60.2z M76.6,55.2h-0.2c0,0,0-0.1,0-0.1c0,0,0,0,0.1,0c0,0,0,0.1,0,0.1H76.6
	z M77.1,55.7h-0.4c0-0.1,0-0.1,0.1-0.1H77C77,55.6,77,55.6,77.1,55.7L77.1,55.7z M77,58.8L77,58.8c0.1,0,0.1,0.1,0.1,0.1
	S77,59,76.8,59c0,0,0-0.1,0-0.1c0,0,0,0,0.1,0c0,0,0,0,0.1,0c0,0,0-0.1,0-0.1L77,58.8z M76.9,53.6h0.2
	C77.1,53.7,77.1,53.8,76.9,53.6C76.8,53.6,76.8,53.6,76.9,53.6L76.9,53.6z M77.3,54c0,0.1-0.1,0.2-0.4,0.2C76.8,54.1,77,54,77.3,54
	L77.3,54z M77,60.1c0-0.1,0.1-0.2,0.2-0.2c0,0,0,0,0,0l0.2-0.1c0,0,0-0.1,0-0.1c0,0,0-0.1,0-0.1c0.1,0.1,0.2,0.2,0.1,0.3
	C77.4,60,77.2,60.1,77,60.1L77,60.1z M77.2,53.4v-0.2h0.2C77.4,53.3,77.3,53.4,77.2,53.4C77.2,53.4,77.2,53.4,77.2,53.4L77.2,53.4z
	 M77.5,52.3c0.1,0,0.1,0,0.2,0c0,0.1,0,0.1,0,0.2h-0.2V52.3z M77.5,55.3h0.2c0.1,0,0.1,0,0,0.1S77.5,55.4,77.5,55.3L77.5,55.3z
	 M77.5,59.5C77.5,59.4,77.5,59.4,77.5,59.5c0.2-0.1,0.2-0.1,0.2-0.2s0.1,0,0.1,0.1S77.6,59.6,77.5,59.5L77.5,59.5z M77.7,60.5
	c-0.1,0-0.1,0-0.1-0.1s0.2-0.2,0.3-0.1l0,0c0,0-0.1,0-0.1,0C77.8,60.3,77.7,60.4,77.7,60.5L77.7,60.5z M77.8,56.9
	c0.1,0.1,0.1,0.1,0.1,0.1l-0.3,0.1L77.8,56.9z M78.1,55.8V56h-0.4v-0.2L78.1,55.8z M77.9,51.8h-0.2v-0.2
	C77.8,51.5,77.9,51.6,77.9,51.8L77.9,51.8z M78,51.4L78,51.4c0-0.1,0-0.1,0-0.1c0,0,0.1,0,0.1,0C78.1,51.4,78,51.5,78,51.4L78,51.4z
	 M78.5,60.6h-0.2C78.3,60.5,78.3,60.5,78.5,60.6C78.5,60.5,78.5,60.5,78.5,60.6L78.5,60.6z M78.7,52c0.1,0.1,0.1,0.2,0,0.3
	s-0.1,0-0.1-0.1s0-0.1,0-0.1c0,0,0,0,0.1,0c0,0,0,0,0.1,0S78.7,52.1,78.7,52L78.7,52z M78.6,51.9L78.6,51.9l0.3-0.2c0,0,0,0.1,0,0.1
	c0,0,0,0-0.1,0c0,0,0,0-0.1,0c0,0,0,0.1,0,0.1H78.6z M78.6,52.9c0-0.1,0.1-0.1,0.2,0H78.6z M78.7,49.3L78.7,49.3
	C78.7,49.3,78.7,49.3,78.7,49.3c0.1-0.1,0.2-0.2,0.2-0.2c0,0.1,0,0.2,0,0.2S78.9,49.4,78.7,49.3L78.7,49.3z M78.7,58.7
	c0-0.1,0-0.1,0-0.2s0.1,0,0.2,0v0c0,0,0,0,0,0.1C78.9,58.6,78.8,58.6,78.7,58.7L78.7,58.7z M78.9,56.3v-0.2c0.1,0,0.1,0.1-0.1,0.2
	L78.9,56.3z M79.3,48.3v0.4c-0.1,0-0.2-0.1-0.2-0.2S79.1,48.3,79.3,48.3L79.3,48.3z M79.6,50.9c-0.1,0.1-0.2,0.2-0.4,0.2
	C79.3,51,79.4,51,79.6,50.9L79.6,50.9z M79.2,56.8c0.1,0.1,0.2,0.2,0.3,0.2c0,0-0.1,0-0.1,0h-0.1h-0.1c0,0,0,0,0-0.1L79.2,56.8
	L79.2,56.8z M79.6,50.6l-0.2,0.2c0-0.1,0-0.2,0-0.2S79.5,50.6,79.6,50.6L79.6,50.6z M79.4,57.7c0-0.1,0-0.2,0-0.2s0.1,0,0.2,0
	L79.4,57.7z M79.6,52.6l-0.2-0.2h0.1c0,0,0.1,0,0.1,0C79.7,52.4,79.7,52.4,79.6,52.6L79.6,52.6z M79.7,54.6c0,0,0.1-0.1,0.1,0
	s0,0,0,0.1s-0.1,0.2-0.2,0.2L79.7,54.6z M80,46.2C80,46.2,80.1,46.2,80,46.2c0.1,0.1,0.1,0.2,0.1,0.2c0,0.1,0,0.1-0.1,0.2
	c-0.1-0.1-0.1-0.1-0.1-0.1c0,0,0-0.1,0.1-0.1C80,46.3,80,46.3,80,46.2L80,46.2z M80.1,55.8c-0.1-0.1-0.2-0.1-0.2-0.1
	c0.1,0,0.2,0,0.3,0C80.2,55.7,80.2,55.7,80.1,55.8L80.1,55.8z M80.4,59c0,0.1-0.1,0.2-0.2,0.2c0,0,0,0,0,0c-0.1,0-0.2,0-0.2,0
	s0-0.1,0-0.2H80.4z M80.1,59c0.1,0,0.2,0,0.3,0C80.3,59.2,80.2,59.2,80.1,59L80.1,59z M80.1,52L80.1,52c0.1,0,0.2,0,0.2,0
	c0.1,0,0.2,0,0.2,0.1c0,0.1-0.1,0.2-0.2,0.2s-0.3,0-0.3-0.1L80.1,52z M80.4,53.1c-0.1,0-0.1,0-0.1-0.1c0-0.1,0.1-0.1,0.3-0.1
	C80.4,52.9,80.4,53,80.4,53.1L80.4,53.1z M80.3,46h0.2c0,0,0.1,0.1,0.1,0.1c0,0.1-0.1,0.1-0.1,0.1c0,0,0,0,0,0
	C80.3,46.2,80.3,46.1,80.3,46L80.3,46z M80.3,47.8c0-0.1,0.1-0.2,0.2-0.2l0.2,0.2H80.3z M80.5,45.3c0,0.1-0.1,0.2-0.2,0.2
	c0,0,0,0,0,0c0-0.1,0-0.2,0-0.2S80.4,45.3,80.5,45.3L80.5,45.3z M80.5,59c-0.1-0.1-0.1-0.2-0.1-0.3c0,0,0.1-0.1,0.1-0.1
	c0.1,0.1,0.1,0.1,0,0.1S80.5,58.9,80.5,59L80.5,59z M80.5,54.3l0.2-0.2c-0.1,0-0.2-0.1-0.2-0.2c0,0,0,0,0,0c0.1-0.1,0.2-0.1,0.2,0
	v0.2c-0.1,0.2-0.2,0.3-0.3,0.3L80.5,54.3z M80.7,51.8c-0.1-0.1-0.1-0.2,0-0.2h0.2c-0.1,0.2-0.2,0.3-0.4,0.3L80.7,51.8z M80.7,57.1
	c0-0.1-0.1-0.1-0.1-0.2c0,0,0,0,0.1,0c0,0,0.1,0,0.1,0C80.7,57,80.7,57.1,80.7,57.1L80.7,57.1z M80.6,55.4c0-0.1,0-0.2,0.1-0.2
	c0.1,0,0.1,0,0.2,0L80.6,55.4z M80.9,45.2h0.4h-0.1c0,0-0.1,0.1-0.1,0C81,45.2,80.9,45.2,80.9,45.2L80.9,45.2z M81.2,46.5
	c0,0.1-0.1,0.1-0.2,0s0-0.2,0.1,0.1L81.2,46.5z M81.2,49.8c0,0.1,0,0.2,0,0.2s-0.1,0-0.2,0S81.1,49.8,81.2,49.8L81.2,49.8z M81,51.6
	h0.2v0.2H81V51.6z M81,60.2h0.2c0,0,0,0.1,0,0.1 M81.1,60.3c0,0-0.1-0.1-0.1-0.1L81.1,60.3z M81,53.5l0.2-0.2c0,0,0,0.1,0,0.1
	L81,53.5z M81.7,49h0.1C81.7,49.1,81.7,49.1,81.7,49c-0.1,0.1-0.2,0.1-0.2,0S81.5,49,81.7,49L81.7,49z M82.1,45.4
	c-0.1-0.2-0.1-0.3,0-0.3l0.2,0v0.1c0,0,0,0.1-0.1,0.1C82.2,45.3,82.1,45.4,82.1,45.4L82.1,45.4z M82.3,52.6v0.1h-0.2
	C82.2,52.8,82.2,52.8,82.3,52.6L82.3,52.6z M82.5,48L82.5,48l-0.3,0.2c-0.1,0-0.1,0-0.1,0L82.5,48z M82.2,49.2
	C82.2,49.2,82.2,49.1,82.2,49.2C82.3,49.1,82.3,49.1,82.2,49.2c0.1-0.1,0.1-0.1,0.1-0.1c0,0,0,0,0-0.1s0.1,0.1,0.1,0.2
	S82.3,49.3,82.2,49.2L82.2,49.2z M82.5,55.1c-0.2-0.1-0.3-0.2-0.1-0.3c0.1,0,0.2,0,0.3,0.1l0,0c0,0,0,0-0.1,0.1
	C82.5,55,82.5,55.1,82.5,55.1L82.5,55.1z M82.9,52.6c0-0.1,0-0.1,0.1-0.2c0-0.1,0.1-0.1,0.1-0.2c0,0,0,0-0.1,0l-0.1-0.1
	c-0.1,0-0.1,0-0.1,0c-0.1,0-0.1,0-0.2,0c-0.1,0-0.2,0-0.3-0.1c0-0.1,0-0.2,0-0.3c0-0.1,0-0.2,0.1-0.2l0.1-0.2
	c0.1-0.1,0.1-0.2,0.1-0.3l0.1-0.1c0,0,0.1-0.1,0.1-0.1c0-0.1,0-0.1,0-0.2v-0.6c0.2,0.2,0.2,0.5,0.2,0.8l0,0c0,0.1,0,0.1,0.1,0.2
	c0,0.1,0.1,0.2,0.1,0.2v0.8c0,0.1,0,0.1-0.1,0.2l-0.2,0.1l-0.2,0.1L82.9,52.6z M82.4,45.2c0.1,0,0.1,0.1,0.1,0.2s-0.1,0.1-0.1,0
	s-0.1-0.1-0.1-0.1S82.4,45.4,82.4,45.2L82.4,45.2z M83,46.9h0.1c0,0.1-0.1,0.2-0.3,0.2C82.8,47,82.9,46.9,83,46.9
	C83,46.9,83,46.9,83,46.9L83,46.9z M83,46.6C83,46.6,82.9,46.6,83,46.6c-0.1-0.1,0-0.1,0.1-0.1h0.3L83,46.6z M83.3,58
	c-0.1,0.1-0.1,0.1-0.1,0.1s0,0,0-0.1v0C83.2,57.9,83.2,57.9,83.3,58L83.3,58z M83.3,47.4C83.3,47.4,83.3,47.4,83.3,47.4
	c-0.1-0.1,0-0.2,0.2-0.2C83.5,47.4,83.4,47.5,83.3,47.4L83.3,47.4z M83.5,60.1l-0.2,0.2c0-0.1,0-0.1,0-0.2S83.4,60.1,83.5,60.1
	L83.5,60.1z M83.5,46.1c0.1,0.1,0.1,0.2,0.1,0.2s-0.1,0-0.2,0C83.5,46.3,83.6,46.2,83.5,46.1L83.5,46.1z M83.7,45.2
	c0,0.1-0.1,0.2-0.2,0.2c0,0,0,0,0,0l0,0c0,0,0,0,0-0.1C83.5,45.3,83.5,45.3,83.7,45.2L83.7,45.2z M83.8,57.9c-0.2,0-0.2,0.1-0.2,0.2
	c-0.1-0.1-0.1-0.1-0.1-0.1L83.8,57.9z M83.8,48.7c-0.1,0.1-0.2,0.1-0.3,0.1C83.6,48.8,83.7,48.7,83.8,48.7L83.8,48.7z M83.6,45.2H84
	c0,0.1,0,0.1-0.1,0.1c-0.1,0-0.1,0-0.2,0C83.7,45.3,83.6,45.3,83.6,45.2L83.6,45.2z M83.6,59C83.6,59,83.6,59,83.6,59l0.2-0.1
	c0.1,0,0.1,0,0.2,0L83.6,59z M83.9,58c0,0.1-0.1,0.2-0.1,0.2c-0.1,0.1-0.1,0.1-0.1,0.2c-0.1-0.1-0.1-0.2-0.1-0.3
	C83.7,58.1,83.8,58,83.9,58L83.9,58z M83.7,55.8c-0.1,0-0.1-0.1,0-0.2c0,0,0,0,0,0c0.1-0.1,0.3-0.1,0.4,0c0,0,0,0,0,0H84
	c-0.1,0-0.1,0-0.2,0c-0.1-0.1-0.2,0-0.2,0S83.5,55.7,83.7,55.8L83.7,55.8L83.7,55.8z M83.7,47.6l0.1-0.1c0.1,0,0.1,0,0.1,0.1H83.7z
	 M84,48.4c-0.1,0-0.1-0.1,0-0.2h0.1c0.1,0,0.1,0.1,0.1,0.1L84,48.4z M84.2,57.2c-0.1-0.1-0.1-0.1-0.2-0.1c0,0,0,0,0.1-0.1h0.2
	L84.2,57.2z M84.4,50.1c0-0.1,0.1-0.1,0.2-0.2s0.1,0.1,0,0.2H84.4z M84.4,53.5L84.4,53.5c-0.1-0.1,0-0.2,0.2-0.2
	C84.6,53.4,84.6,53.5,84.4,53.5C84.5,53.5,84.4,53.5,84.4,53.5L84.4,53.5z M84.6,46.4c0,0.1,0,0.1,0,0.2c-0.1,0-0.1,0-0.2,0
	c0-0.1,0-0.1,0-0.2C84.4,46.4,84.5,46.4,84.6,46.4L84.6,46.4z M84.4,55.9c0-0.1,0.1-0.2,0.2-0.2s0,0.2,0,0.2S84.5,55.9,84.4,55.9
	L84.4,55.9z M84.4,57l0.2-0.2c0,0.1,0,0.2,0,0.2S84.5,57,84.4,57L84.4,57z M84.5,53h0.2c0,0.1-0.1,0.2-0.2,0.2S84.4,53.1,84.5,53z
	 M85,47.7c-0.1,0-0.1,0-0.1-0.1s0.1-0.3,0.3-0.3c0,0.1,0,0.2-0.1,0.2C85,47.5,85,47.6,85,47.7L85,47.7z M85.5,47.9L85.5,47.9
	c-0.1,0.1-0.2,0.1-0.2,0c-0.1,0-0.2,0-0.2-0.1L85.5,47.9z M85.1,56.8C85.1,56.8,85.2,56.7,85.1,56.8c0.1,0,0.1,0,0.1,0.2
	s-0.1,0.1-0.2,0.1L85.1,56.8z M85.2,48.8h0.2H85.2C85.2,48.9,85.1,48.9,85.2,48.8L85.2,48.8z M85.3,52.2
	C85.4,52.2,85.4,52.2,85.3,52.2c0.1-0.1,0.1-0.1,0.2,0l-0.2,0.1C85.3,52.3,85.3,52.3,85.3,52.2L85.3,52.2z M85.5,45.2l-0.2,0.2
	c-0.1-0.2-0.1-0.3,0-0.3L85.5,45.2z M85.4,48.3L85.4,48.3l0.2-0.2c0,0,0,0.1,0,0.1c0,0,0,0-0.1,0C85.5,48.2,85.5,48.2,85.4,48.3
	C85.5,48.2,85.5,48.2,85.4,48.3L85.4,48.3z M85.4,51.7C85.3,51.7,85.3,51.7,85.4,51.7c-0.1-0.1,0-0.2,0.1-0.2
	C85.5,51.5,85.4,51.6,85.4,51.7L85.4,51.7z M85.3,49.3c0-0.1,0.1-0.1,0.2-0.1C85.5,49.3,85.5,49.4,85.3,49.3L85.3,49.3z M85.6,45.2
	c0.1,0,0.1,0.1,0,0.2V45.2z M85.8,49.1C85.8,49.2,85.8,49.2,85.8,49.1C85.6,49.1,85.8,49.2,85.8,49.1L85.8,49.1z M86.2,57.4
	c-0.1,0.1-0.2,0.2-0.3,0.2l-0.3,0.1C86,57.6,86.1,57.5,86.2,57.4L86.2,57.4z M86.2,55.1l0.1,0.1c0,0.1-0.2,0.1-0.6,0.1
	c0-0.1,0.1-0.1,0.2-0.1S86.3,55.3,86.2,55.1L86.2,55.1z M86.1,47.5c0,0,0,0-0.1,0.1C86.1,47.6,86.1,47.6,86.1,47.5L86.1,47.5z
	 M86.3,48.4h-0.2v-0.2h0.2V48.4z M86.3,49.8c0-0.1,0.1-0.1,0.4,0H86.3z M86.7,49.2h0.1c0,0,0.1,0,0.1,0.1c0,0.1,0,0.1,0.1,0.2
	c-0.1,0-0.1,0-0.2,0S86.7,49.4,86.7,49.2L86.7,49.2z M86.8,47.6c0.3,0.1,0.3,0.2,0,0.2l0,0c0,0,0,0,0-0.1V47.6L86.8,47.6z
	 M87.3,52.1h-0.4c0-0.1,0-0.1,0.1-0.1c0.1,0,0.1,0,0.2,0C87.1,52.1,87.2,52.2,87.3,52.1L87.3,52.1z M86.8,59
	C86.8,58.9,86.8,58.9,86.8,59c0.1-0.1,0.2-0.1,0.2-0.1c0.1,0,0.1,0,0.2,0L86.8,59z M87,60c0-0.1,0-0.2,0.1-0.2
	c0.1-0.1,0.1-0.1,0.1-0.2c0.1,0.1,0.1,0.2,0.1,0.3C87.2,60,87.1,60,87,60L87,60z M87.1,53.6c0,0.1,0,0.1-0.1,0H87.1z M87.2,55.4
	C87.1,55.4,87.1,55.4,87.2,55.4c0.1-0.1,0.1-0.2,0.1-0.2s0.1,0,0.1,0C87.3,55.2,87.3,55.3,87.2,55.4L87.2,55.4z M87.3,50.1h0.2
	C87.5,50.1,87.5,50.2,87.3,50.1l-0.1,0C87.2,50.1,87.3,50.2,87.3,50.1L87.3,50.1z M87.5,51.6h0.4c0,0.1-0.1,0.1-0.2,0.1
	S87.5,51.7,87.5,51.6L87.5,51.6z M87.5,57.1C87.5,57.1,87.5,57.1,87.5,57.1L87.5,57.1z M87.8,49.9c0,0.1,0,0.2,0,0.2s-0.1,0-0.2,0
	h-0.1L87.8,49.9z M87.8,53.3c0,0.1,0,0.2-0.1,0.2c-0.1,0-0.1,0-0.2,0C87.6,53.4,87.7,53.3,87.8,53.3C87.8,53.3,87.8,53.3,87.8,53.3
	L87.8,53.3z M87.7,56.9c0.1,0,0.1,0-0.1,0.1c0.1,0,0.1,0,0.2-0.1L87.7,56.9z M88,58c0.1,0.1,0.1,0.1,0,0.1c-0.1,0-0.1,0-0.2,0
	C87.9,58.2,87.9,58.1,88,58L88,58z M88.8,58.6c0-0.1,0-0.1,0-0.2s0.1,0,0.2,0l0,0c0,0,0,0,0,0.1C89,58.5,88.9,58.5,88.8,58.6
	L88.8,58.6z M93.4,57.1h-0.2c-0.1,0-0.2,0-0.3,0c0,0-0.1,0,0-0.1c0,0,0.1-0.1,0.2-0.1C93.3,57,93.4,57,93.4,57.1L93.4,57.1z"/>
<path class="st1" d="M110.1,45.4c0,0.1,0,0.1,0.1,0.1s0.2-0.2,0.1-0.3c0.2,0,0.4,0,0.8,0s0.6,0,0.9,0c0.3,0,0.5,0,0.8,0.1
	c0.2,0.5,0.2,1.1,0.2,1.7v1.2c0,0.5,0,0.9-0.2,1.4c-0.3,0.1-0.6,0.1-0.9,0.1c-0.3,0-0.6,0-0.9,0.1c-0.1,0.2-0.2,0.4-0.2,0.7
	c0,0.3,0,0.5,0,0.8c0,0.3,0.1,0.5,0.1,0.6v4.1c0.1,1.2-0.2,2.3-0.8,3.3c-0.3,0.5-0.6,0.9-1,1.2l-0.2,0.2c0,0.1-0.1,0.1-0.2,0.1
	c-0.1,0-0.2,0-0.2,0.1h-0.2c0,0.1,0,0.1-0.2,0.1c-0.1,0-0.2,0-0.3,0.1c-0.3,0.2-0.7,0.2-1,0.2h-0.6c-0.1,0-0.2,0-0.3,0.1
	c-0.1,0.1-0.3,0.1-0.5,0.1h-4.5c-0.1,0-0.2,0-0.3-0.1c-0.1-0.1-0.2-0.1-0.3-0.1h-0.4c0-0.1-0.1-0.2-0.2-0.2c-0.2,0-0.4-0.1-0.5-0.1
	c-0.2-0.1-0.3-0.1-0.5-0.1c-0.1-0.1-0.2-0.2-0.4-0.2c-0.1,0-0.2-0.1-0.2-0.2v0h-0.2v-0.2h-0.4V60c-0.4-0.2-0.7-0.5-1-0.8
	c-0.1,0-0.1,0-0.1-0.1c-0.1-0.1-0.1-0.2-0.1-0.3c0-0.1-0.1-0.2-0.2-0.3c-0.2,0-0.2-0.1-0.2-0.2c-0.1-0.1-0.1-0.1-0.1-0.2
	c0-0.1,0-0.2-0.1-0.2c-0.1-0.3-0.2-0.5-0.2-0.8v-1.7c0.1,0,0.2-0.1,0.2-0.2c0,0,0,0,0,0v-0.4c0.1,0,0.2-0.1,0.3-0.3s0.3-0.3,0.3-0.3
	c0-0.1,0-0.1,0-0.2c0,0,0-0.1,0.1-0.1h0.1v-0.2h0.2v-0.2h0.2c0.1,0,0.1,0,0.2,0c0.1,0,0.1,0,0.1-0.1v-0.1h0.2
	c0.3-0.1,0.5-0.3,0.8-0.3c0,0,0,0.1-0.1,0.1c0,0-0.1,0-0.1,0l0,0c0.1,0.1,0.1,0.1,0.2,0.1c0.1,0,0.2-0.1,0.2-0.1
	c0-0.1,0-0.2-0.1-0.2c0,0,0.1,0,0.1,0c0.6-0.2,1.2-0.2,1.8,0h0.2l0.2,0.2h0.2l0.2,0.2c0.1,0.1,0.3,0.2,0.4,0.3
	c0.1,0.1,0.3,0.2,0.4,0.3v0.2h0.2v0.2l0.2,0.2c0.1,0.1,0.1,0.1,0.1,0.2c0,0.1,0,0.2,0,0.3c0,0.1,0,0.2-0.1,0.3c0,0.1,0,0.1,0.1,0.1
	c0,0,0.1,0,0.1,0h0.1c0,0.1,0,0.2-0.1,0.4c0,0.1,0,0.2,0,0.3c0,0.1,0,0.2,0.1,0.3c0,0.1,0.1,0.2,0.4,0.2v-0.2c0.1,0,0.2,0,0.2,0.1
	c0,0.1,0.1,0.1,0.2,0.1c0.1,0,0.2-0.1,0.2-0.2h0.2c0-0.1,0-0.1,0-0.2c0,0,0.1-0.1,0.1-0.1l0,0c0.1-0.1,0.1-0.1,0.1-0.2
	c0-0.1,0-0.2,0.1-0.2c0.1,0.1,0.1,0.3,0,0.4c-0.1,0.1-0.2,0.2-0.2,0.2s0.1,0,0.2-0.1s0.1-0.2,0.2-0.2c0-0.1,0-0.2,0.1-0.2
	s0.1-0.1,0.1-0.2h-0.5V55c0-0.1,0.1-0.2,0.1-0.2c0.1-0.1,0.1-0.1,0.1-0.2h-0.2c0-0.3,0-0.9,0-1.7s0-1.5,0-2.1c0-0.5,0-1.1-0.1-1.6
	c-0.2,0-0.4,0-0.6,0c-0.3,0-0.5,0-0.6,0c-0.2,0-0.4,0-0.5-0.1c-0.2,0-0.3-0.1-0.4-0.2c-0.1-0.1-0.1-0.3-0.1-0.4c0-0.2,0-0.3,0.1-0.6
	s0-0.3,0-0.4s0-0.5,0-0.8s-0.1-0.7-0.1-1c0-0.3,0-0.6,0.1-0.8h0.8h1.2c0.5,0,1,0,1.4,0c0.4,0,0.8,0,1.2-0.1h1
	c0.3-0.1,0.6-0.1,0.9-0.1c0.4,0,0.7,0,1.2,0s0.8,0,1,0c0,0,0,0.1,0,0.1c0,0,0,0-0.1,0h-0.1L110.1,45.4z M95.4,55.4
	c0,0,0.1-0.1,0.2-0.1c0.1,0,0.1,0,0.2,0c0.1,0,0.1,0,0.1,0c0,0,0-0.1,0-0.1C95.6,55.2,95.4,55.3,95.4,55.4L95.4,55.4z M95.9,54.9
	c0,0,0.1-0.1,0.1-0.1l0,0c0-0.1,0-0.1,0.1-0.1s0.1,0,0.1-0.1c-0.1,0-0.2,0.1-0.3,0.1c-0.1,0.1-0.1,0.2-0.1,0.3
	C95.8,55,95.9,54.9,95.9,54.9L95.9,54.9z M96.2,57.5c0,0,0-0.1-0.1-0.1l-0.2,0.2L96.2,57.5z M96.3,56c0,0.1,0,0.1-0.1,0.2
	c0,0,0,0,0.1,0C96.5,56.1,96.5,56,96.3,56z M96.4,54.3c0-0.1,0-0.1,0.1-0.2s0.2-0.1,0.2-0.1s0-0.1-0.1-0.1s0,0.1-0.1,0.1
	s-0.2,0.1-0.2,0.1S96.3,54.2,96.4,54.3L96.4,54.3z M96.3,55.1c0.1,0,0.2-0.1,0.2-0.2C96.4,54.9,96.3,54.9,96.3,55.1L96.3,55.1z
	 M96.4,56.7v0.2h0.2C96.6,56.8,96.5,56.7,96.4,56.7C96.4,56.7,96.4,56.7,96.4,56.7L96.4,56.7z M96.7,55.6c0.1,0,0.1,0,0.2,0
	c0,0,0-0.1,0-0.2C96.8,55.3,96.6,55.4,96.7,55.6c-0.2,0-0.2,0.1-0.2,0.2L96.7,55.6z M97,56.6c0-0.1,0-0.1,0-0.2s-0.1,0-0.2,0
	L97,56.6L97,56.6z M96.8,53.6c0,0,0.1,0.1,0.1,0.1c0.1,0,0.1,0,0.1,0l0.1-0.1c0,0,0.1,0,0.1,0c0,0,0-0.1,0-0.1s0,0,0.1,0
	c0,0,0,0,0.1,0c0,0,0,0,0-0.1C97.2,53.4,97,53.5,96.8,53.6L96.8,53.6z M97,58.8c0.1,0,0.1,0,0.2,0h0.2c0.1,0,0.1,0,0.1-0.1L97,58.8
	L97,58.8z M97.1,59.8c0.1,0,0.1,0,0.1-0.1c0,0,0-0.1,0-0.1l0,0C97.2,59.6,97.1,59.7,97.1,59.8C97,59.8,97,59.8,97.1,59.8L97.1,59.8z
	 M97.7,55.1c-0.3,0-0.4,0.1-0.4,0.2C97.5,55.3,97.7,55.3,97.7,55.1L97.7,55.1z M97.7,53.3c0,0-0.1,0-0.1,0l0,0
	C97.6,53.3,97.6,53.3,97.7,53.3L97.7,53.3z M98.1,59.3C98.1,59.3,98,59.3,98.1,59.3L98,59.5C98,59.4,98,59.4,98.1,59.3L98.1,59.3z
	 M98.2,53.3c-0.1,0-0.1,0-0.2,0s0,0.1,0,0.2L98.2,53.3z M98.2,55.6c0.1,0.2,0.1,0.2,0.2,0.1c0.1-0.1,0.1-0.2,0-0.3c0,0,0,0.1,0,0.1
	l-0.1,0.1l0,0L98.2,55.6z M99.4,58.3c0,0,0-0.1,0-0.1v0c-0.1,0-0.1,0-0.2,0s0,0.1,0,0.2C99.2,58.3,99.3,58.3,99.4,58.3L99.4,58.3z
	 M99.3,59.5c0.1,0,0.2-0.1,0.2-0.2c0,0,0,0,0,0L99.3,59.5z M99.4,53.7c0,0,0.1,0,0.1,0c0,0,0,0,0-0.1C99.5,53.6,99.4,53.6,99.4,53.7
	L99.4,53.7z M99.7,54c0.1,0,0.2,0,0.2-0.1c0,0,0.1-0.1,0.1-0.1C99.9,53.8,99.8,53.8,99.7,54L99.7,54z M99.8,55.7c0.1,0,0.1,0,0.2,0
	s0-0.1,0-0.2c-0.1,0-0.1,0-0.1,0.1C99.9,55.6,99.8,55.7,99.8,55.7L99.8,55.7L99.8,55.7z M99.8,58.6c0.1,0,0.2-0.1,0.2-0.2
	c-0.1,0-0.1,0-0.2,0S99.9,58.5,99.8,58.6L99.8,58.6z M100,59c0.3,0,0.4-0.1,0.4-0.2h-0.2c-0.1,0-0.1,0-0.2,0c-0.1,0-0.1,0-0.1,0.1
	S99.9,58.9,100,59L100,59z M100.4,60c0.1-0.1,0.1-0.1-0.1-0.1s-0.3,0-0.3,0.1c0-0.1,0.1-0.1,0.2-0.1C100.3,59.9,100.3,59.9,100.4,60
	C100.4,60,100.4,60,100.4,60L100.4,60z M100.4,53.9c-0.1,0.2-0.1,0.2,0,0.2C100.5,53.9,100.5,53.8,100.4,53.9L100.4,53.9z
	 M100.6,58.9c0.1,0,0.2-0.1,0.2-0.2h0.2c0-0.1-0.1-0.1-0.2-0.1c-0.1,0-0.1,0.1-0.2,0.1V58.9z M100.9,57.5c0,0.1,0,0.2,0,0.2
	c0,0,0.1-0.1,0.1-0.1c0,0,0-0.1,0.1-0.1h-0.3L100.9,57.5z M101.1,55.3c0-0.1,0-0.1,0.1-0.1s0,0-0.1-0.1
	C101,55.2,101,55.3,101.1,55.3L101.1,55.3z M101.4,46.3c-0.1,0.1-0.1,0.1,0,0.2c0.1,0,0.2-0.1,0.2-0.2H101.4z M101.5,45.9
	c0.1,0,0.2,0,0.3-0.1c0-0.1,0-0.1-0.1-0.1c0,0,0,0,0,0.1c0,0,0,0-0.1,0h-0.1C101.5,45.7,101.5,45.7,101.5,45.9L101.5,45.9z
	 M101.6,60.2C101.6,60.2,101.6,60.2,101.6,60.2c0.2,0,0.3-0.1,0.3-0.2h-0.2C101.6,60,101.6,60,101.6,60.2L101.6,60.2z M102.2,57.7
	v-0.2H102v0.2H102.2z M102.2,46.7c0-0.1-0.1-0.2-0.1-0.2v0.2C102.1,46.8,102.1,46.8,102.2,46.7L102.2,46.7z M102.9,46v-0.2h-0.2V46
	H102.9z M102.8,48l0.2-0.1c0.1,0,0.1-0.1,0.1-0.1c0-0.1,0-0.1,0-0.2c-0.1,0-0.2,0.1-0.3,0.1C102.8,47.8,102.7,47.9,102.8,48
	L102.8,48z M103.8,46h-0.2c0,0.1,0,0.1,0,0.2c0.1,0,0.1,0,0.2,0L103.8,46z M103.9,50.3v-0.2h-0.2v0.2H103.9z M103.8,55.5
	c0.1,0,0.1,0,0.1-0.1c0,0,0-0.1,0.1-0.1l0,0C103.9,55.3,103.8,55.4,103.8,55.5C103.8,55.5,103.8,55.6,103.8,55.5L103.8,55.5z
	 M104,56.4C104,56.4,104,56.3,104,56.4C103.9,56.4,103.9,56.4,104,56.4z M104,51.7c0,0,0,0.1,0,0.1l0.3-0.1c0,0,0-0.1-0.1-0.1
	L104,51.7z M104,48.6c0.1,0,0.2-0.1,0.2-0.2S104.1,48.5,104,48.6L104,48.6z M104,45.8c0.1,0,0.2,0,0.2-0.1l0.1-0.1
	C104.1,45.5,104,45.6,104,45.8L104,45.8z M104.2,50.7v-0.2H104v0.2H104.2z M104.3,53.8c0-0.1,0.1-0.2,0.1-0.2
	c-0.2,0-0.4,0.1-0.4,0.2H104.3z M104.3,48.3C104.4,48.3,104.4,48.3,104.3,48.3C104.4,48.3,104.4,48.3,104.3,48.3h-0.2
	c0.1,0,0.2,0,0.3,0L104.3,48.3z M104.5,55v-0.2h-0.2V55L104.5,55z M104.3,59.9c0.3,0,0.4-0.1,0.4-0.2c-0.1,0-0.2,0.1-0.3,0.2
	L104.3,59.9z M104.6,53.1L104.6,53.1c-0.1,0.2,0,0.2,0.1,0.2s0.1-0.1,0-0.1s0.1-0.1,0-0.1L104.6,53.1z M104.7,60.3c0,0,0,0,0-0.1
	s0.1-0.1,0-0.1c0.1,0.2,0.1,0.2,0.1,0.2H104.7z M104.7,51.5c0.1,0,0.2,0,0.2,0c0-0.1,0-0.1,0-0.2h-0.1v0.2H104.7z M105.1,54.5
	c0-0.1-0.1-0.1-0.2-0.1l-0.2,0.1H105.1z M105,46.3c0.1-0.1,0.1-0.2,0-0.2c-0.1,0-0.2,0.1-0.2,0.2c0,0,0,0,0,0H105z M105,49
	c0,0,0-0.1,0-0.1c0,0-0.1,0-0.1,0c0,0-0.1,0.1-0.1,0.1H105z M105,51c-0.1,0-0.1,0-0.1,0H105c0.2,0.1,0.2,0.1,0.2,0L105,51z
	 M105,49.8c0-0.1,0-0.1,0.1-0.1s0.1,0,0.1-0.1s-0.2-0.1-0.2,0S104.9,49.8,105,49.8L105,49.8z M105.7,58.8
	C105.6,58.8,105.6,58.8,105.7,58.8c0.1,0.1,0.2,0.1,0.2,0H105.7z M105.9,45.7v-0.2h-0.2v0.2H105.9z M105.6,55.5c0.1,0,0.1,0,0.1-0.1
	c0,0,0-0.1,0.1-0.1v0C105.7,55.3,105.6,55.3,105.6,55.5C105.6,55.5,105.6,55.5,105.6,55.5L105.6,55.5z M106.5,45.4
	c0.1,0.1,0.1,0.1,0.2,0.1c0.1,0,0.1,0,0.2,0c0,0,0.1-0.1,0.1-0.1H106.5z M106.5,47.1l0.2-0.2h-0.2V47.1z M106.5,48.1
	c0.1,0,0.1,0,0.2,0.1c0,0,0,0,0-0.1C106.7,48,106.7,48.1,106.5,48.1L106.5,48.1z M106.6,50.4c0-0.1,0.1-0.2,0.1-0.2
	c0.1-0.1,0.1-0.1,0.1-0.2c-0.1,0-0.2,0-0.3,0.1C106.6,50.2,106.6,50.3,106.6,50.4L106.6,50.4z M106.8,49.8
	C106.8,49.8,106.8,49.8,106.8,49.8L106.8,49.8c-0.1-0.1-0.1,0-0.1,0c0,0,0,0.1,0,0.1L106.8,49.8z M107,49.8
	C107,49.8,107,49.7,107,49.8C107,49.6,107,49.6,107,49.8c0.1-0.1,0.1-0.1,0.1-0.1c0,0,0,0,0-0.1c-0.2,0-0.3,0-0.3,0.2L107,49.8
	L107,49.8z M107.2,55.3c0,0-0.1,0-0.1,0H107.2c0.2,0.1,0.2,0.1,0.2,0L107.2,55.3z M107.1,46.1c0.1,0,0.2-0.1,0.2-0.2c0,0,0,0,0,0
	c-0.1,0-0.2,0-0.2,0S107.1,46,107.1,46.1L107.1,46.1z M107.2,48.5c0.1,0,0.2-0.1,0.2-0.2c-0.1,0-0.1,0-0.2,0
	C107.2,48.4,107.2,48.4,107.2,48.5L107.2,48.5L107.2,48.5z M107.6,58.7C107.6,58.7,107.6,58.7,107.6,58.7
	C107.6,58.7,107.6,58.7,107.6,58.7l-0.2-0.1c0,0-0.1,0-0.1,0c0,0-0.1,0-0.1,0c0,0.1,0,0.1,0.1,0.1l0.1-0.1L107.6,58.7z M107.8,45.6
	h0.2c0,0,0.1,0,0.1-0.1c0.1-0.1,0.1-0.2,0.1-0.3c-0.1,0.1-0.1,0.1-0.2,0.1s0,0,0,0.1l0,0C107.9,45.4,107.8,45.5,107.8,45.6
	L107.8,45.6z M108.3,56.6c-0.1,0.1-0.1,0.2,0.1,0.2c-0.1,0-0.1,0-0.1-0.1C108.4,56.7,108.4,56.7,108.3,56.6L108.3,56.6L108.3,56.6z
	 M108.6,46.3C108.5,46.3,108.5,46.3,108.6,46.3C108.6,46.2,108.6,46.2,108.6,46.3c0.1-0.1,0.1-0.1,0.1-0.1c0,0,0.1,0,0.1-0.1
	s-0.2-0.1-0.3,0S108.5,46.3,108.6,46.3L108.6,46.3z M109.3,45.7v-0.2h-0.2v0.2H109.3z M111.1,45.7c0,0.1,0.1,0.1,0.2,0
	c0.1,0,0.2,0,0.2-0.1s0-0.2-0.1-0.2c-0.1,0-0.2,0-0.2,0.1c0,0,0,0,0,0.1C111.2,45.7,111.1,45.7,111.1,45.7L111.1,45.7z"/>
<path class="st1" d="M20,129c-1.1,2.1-3.1,3.2-5.9,3.2c-7.5,0-11.3-6.9-11.3-20.6c0-10.7,4.4-17.3,11.7-17.3
	c1.5-0.1,2.9,0.6,3.8,1.8c0.6-4.6,1-9.2,1-13.8c0-6.3-1-9.5-2.9-9.5c-3.3,0-5.7,3-6.5,7.3c-0.5,2.5-0.7,5.1-0.9,7.6
	c0,1.3-0.7,2-2.3,2c-1,0.1-2-0.6-2.1-1.6c0-0.1,0-0.3,0-0.4c0-2.8,0.4-5.6,1-8.4c1.3-5.4,5.3-10.9,11.1-10.9c4.3,0,7.1,2,8.2,6
	c1.4,4,1.6,7.7,1.6,14c0,4.4-0.4,10.1-1,16.8s-0.9,11.5-0.9,14.1c0,9.3,3.4,8,3.4,10.5c0,1.6-1,2.3-2.8,2.3
	C23.7,132,21,130.1,20,129z M14.8,127.7c1.4,0,2.8-0.4,4-1.2c-1.3-3-2-7.3-2-12.8c0-1.6,0.1-4.1,0.4-7.1s0.4-5.7,0.4-7.4
	c-0.9-0.4-1.8-0.5-2.7-0.5c-2.2,0-3.2,1.5-3.2,14.7C11.6,119.4,10.9,127.7,14.8,127.7z"/>
<path class="st1" d="M48.2,112.7c-1.2-3.3-2.1-5.7-2.7-7.2c-0.7-1.9-1.6-3.7-2.5-5.5c-0.8-1.7-1.7-3.4-2.7-5c0,2.4,0,5.8,0.1,10.2
	s0.2,7.2,0.2,8.5c0,0.9-0.2,3-0.4,6.3s-0.4,6.3-0.4,9c0,2.9-1.2,4.3-3.6,4.3c-1.1,0-2-2.3-2-3.7c0-1.6,0.2-4.6,0.4-8.8
	s0.4-7.4,0.4-9.6c0-3.8-0.2-9.5-0.4-17s-0.3-13.1-0.3-16.8c0-1.7,0-3.3,0.2-5c0.9-1.1,2.9-1.6,5.8-1.6c7.9,0,11.5,2.9,11.5,12.3
	c0,7-2.7,11.5-5.3,11.9c2.3,2.8,4.2,7.1,5.7,13.1c0.8,3.3,2,6.6,3.5,9.7c3,6.5,5.6,10.8,5.6,12.4c0,2.1-0.8,3.2-2.5,3.2
	c-2,0-4.2-4.8-8-14.9L48.2,112.7z M40.2,74c-0.4,3.1-0.6,4.8-0.6,4.9c0,1.9,0.1,4.7,0.3,8.4l0.3,4.9c3.8,0,5.7-1.4,5.7-4.3
	c0-1.6-0.1-3.3-0.3-4.9c-0.2-1.2-0.3-2.5-0.3-3.7C45.2,75.9,43.5,74.1,40.2,74z"/>
<path class="st1" d="M89.1,97.8c0.1,2.5,0.1,4.4,0.1,5.5v7.7c0,16.9-4.7,22.8-16,22.8c-6.1,0-9.1-6.9-9.1-20.8v-11.8
	c0-0.4,0-2.3,0.1-5.9s0.1-7.4,0.1-11.2c0-3,0.6-5.9,1.8-8.6c1.1-2.5,3.7-4.1,6.5-3.9C79.4,71.6,84,73,86,76s3.1,8.1,3.1,15.7
	L89.1,97.8z M80.6,86.6c-0.4-7.2-2.3-10.8-5.6-10.8c-2.8,0-4.1,5-4.1,15.1c0.1,2.2,0.3,4.4,0.6,6.6c0.9,7.8,1.3,15.7,1.3,23.5
	c0,4.3,3.1,8.7,5.1,8.7c2.4,0,3.6-7.9,3.6-23.6c0-1.1-0.2-5.1-0.6-12.1L80.6,86.6z"/>
<path class="st1" d="M101.5,69.5c1.1,0,2.1,1.6,3.2,4.8c0.6-2.3,3.4-4.3,6.2-4.3c3-0.2,5.9,1.2,7.8,3.6c0.8,1.3,1.4,2.8,1.7,4.3
	c0.8,3.7,0.8,6.3,0.8,11.6l0.4,22.1c0,1.2,0,2.4-0.1,3.6c-0.3,3.3-0.2,6.7,0.1,10c0.2,1.3,0.4,2.5,0.4,3.8c0,1.3-1.9,2.6-3.8,2.6
	s-2.9-0.9-2.9-2.8c0-5.4-0.1-11.3-0.4-17.7c-0.4-8.6-0.5-14.6-0.5-18c0-1.2,0-2.3,0.1-3.5c0.1-1.6,0.2-3,0.2-4.1
	c0-7.5-1.2-11.2-3.5-11.2c-5.3,0-6.8,1.3-6.8,5.6c0,1.6-0.2,5.9-0.6,12.9c0,2-0.2,4-0.2,4.1c0,6.1,0,12.4,0.1,19l0.1,9.8
	c0,4.2-1.3,6.2-3.8,6.2s-3.7-0.7-3.7-2.1s0.1-3.7,0.2-7.2c0.4-4.7,0.5-8.6,0.5-11.8c0-2.6-0.1-6.7-0.2-12.1s-0.2-9.6-0.2-12.3
	c0.1-4.9,0.4-9.7,1.1-14.5C97.9,70,101.4,69.5,101.5,69.5z"/>
<path class="st1" d="M135.5,72.8c2.3,0,2.7,0.9,2.7,2.8c0,0.6-0.3,4.5-0.3,11.9c0,4.4,0.1,10.3,0.5,17.7s0.4,13.8,0.4,18.8
	c0,6.3-1.2,9.5-3.6,9.5c-1.7,0-2.5-0.8-2.5-2.3c0-4.8-0.2-12.1-0.6-21.4s-0.6-16.4-0.6-20.9c0.1-4.6,0.4-9.1,0.9-13.7
	C132.7,73.6,133.7,72.8,135.5,72.8z"/>
<path class="st1" d="M165,66.9l1.1-0.1c2,0,3.1,2.3,3.1,6.9V85c0,1.4-0.1,7.5-0.4,18.4s-0.3,16.8-0.3,17.6c0,4.6-2.7,12.4-10.1,12.4
	c-2.9,0-5.6-1-7.7-3c-2.2-2-3.4-4.1-3.4-6.4c0-2,0.6-3,1.7-3c2.6,0,2.1,9,9.3,9c1.4,0,2.2-3.5,2.7-10.3c0.1-3.1,0.9-8.2,0.9-12.7
	c0-2.3,0-5.9-0.1-10.7V85c0.1-1.5,0.2-3,0.5-4.4c0.3-1.2,0.5-2.5,0.6-3.8c-0.1-1.2-0.3-2.5-0.6-3.7c-0.2-1.2-0.4-2.4-0.5-3.6
	C161.8,68.1,163.5,67,165,66.9z"/>
<path class="st1" d="M190.9,131.4c-1.1,2-3,3.1-5.7,3.1c-7.3,0-11-6.7-11-20.1c0-10.4,4.3-16.8,11.4-16.8c1.5-0.1,2.9,0.6,3.7,1.8
	c0.6-4.4,0.9-8.9,0.9-13.4c0-6.1-0.9-9.2-2.9-9.2c-3.2,0-5.5,2.9-6.3,7c-0.5,2.4-0.7,4.9-0.8,7.4c0,1.3-0.7,1.9-2.3,1.9
	c-1,0.1-1.9-0.6-2-1.6c0-0.1,0-0.2,0-0.4c0-2.7,0.3-5.5,0.9-8.1c1.3-5.3,5.1-10.6,10.9-10.6c4.2,0,6.9,1.9,8,5.9
	c1.3,4,1.6,7.5,1.6,13.6c0,4.3-0.4,9.8-1,16.4s-0.8,11.2-0.8,13.7c0,9.1,3.4,7.8,3.4,10.2c0,1.6-1,2.3-2.8,2.3
	C194.5,134.4,191.9,132.5,190.9,131.4z M185.9,130.2c1.4,0,2.7-0.4,3.9-1.2c-1.3-2.9-1.9-7.1-1.9-12.4c0-1.6,0.1-3.9,0.4-6.9
	s0.4-5.5,0.4-7.2c-0.9-0.4-1.8-0.5-2.8-0.5c-2.1,0-3.1,1.4-3.1,14.3C182.8,122.1,182.1,130.2,185.9,130.2L185.9,130.2z"/>
</svg>
