<svg id="af431031-54e6-412c-8fc4-fe3307d7a89c" xmlns="http://www.w3.org/2000/svg" viewBox="0 0 300 140"><defs><style>.ba615e49-ae9f-4c5e-9907-12ce5e09ba65{fill:#cd1f40;}.a330baa0-ec90-4dae-a882-4a6c6449819d,.a413163d-a25b-4a4b-bfe9-ae7975e07968,.ee44d3ff-8c0c-4074-ab01-60accf9d6cb8,.f0b28cfd-6e36-44b0-85ac-5c6a404cc7ba,.fd9adf07-5575-4104-8ec6-70de1cf39bab{fill:#fff;}.a330baa0-ec90-4dae-a882-4a6c6449819d{opacity:0.3;}.fd9adf07-5575-4104-8ec6-70de1cf39bab{opacity:0.2;}.ee44d3ff-8c0c-4074-ab01-60accf9d6cb8{opacity:0.25;}.a413163d-a25b-4a4b-bfe9-ae7975e07968{opacity:0.1;}</style></defs><title>card-szfoi</title><polygon class="ba615e49-ae9f-4c5e-9907-12ce5e09ba65" points="150 11 201.09 40.5 201.09 99.5 150 129 98.91 99.5 98.91 40.5 150 11"/><polygon class="a330baa0-ec90-4dae-a882-4a6c6449819d" points="124.42 84.75 124.42 55.25 150 70 124.42 84.75"/><polygon class="fd9adf07-5575-4104-8ec6-70de1cf39bab" points="124.42 55.25 150 40.5 150 70 124.42 55.25"/><polygon class="a330baa0-ec90-4dae-a882-4a6c6449819d" points="175.55 25.77 150 11 150 40.53 175.55 25.77"/><polygon class="ee44d3ff-8c0c-4074-ab01-60accf9d6cb8" points="201.09 40.5 175.55 25.75 175.55 55.25 201.09 40.5"/><polygon class="a413163d-a25b-4a4b-bfe9-ae7975e07968" points="201.09 70 201.09 40.5 175.55 55.25 201.09 70"/><polygon class="a330baa0-ec90-4dae-a882-4a6c6449819d" points="124.45 25.75 124.45 55.25 150 40.5 124.45 25.75"/><polygon class="ee44d3ff-8c0c-4074-ab01-60accf9d6cb8" points="150 11 124.45 25.75 150 40.5 150 11"/><polygon class="fd9adf07-5575-4104-8ec6-70de1cf39bab" points="98.91 40.5 98.91 70 124.45 55.25 98.91 40.5"/><polygon class="ee44d3ff-8c0c-4074-ab01-60accf9d6cb8" points="124.45 25.75 98.91 40.5 124.45 55.25 124.45 25.75"/><polygon class="fd9adf07-5575-4104-8ec6-70de1cf39bab" points="98.91 70 98.91 99.5 124.45 84.75 98.91 70"/><polygon class="a413163d-a25b-4a4b-bfe9-ae7975e07968" points="124.45 55.25 98.91 70 124.45 84.75 124.45 55.25"/><polygon class="a413163d-a25b-4a4b-bfe9-ae7975e07968" points="124.45 84.75 98.91 99.5 124.45 114.25 124.45 84.75"/><polygon class="fd9adf07-5575-4104-8ec6-70de1cf39bab" points="150 129 175.55 114.25 150 99.5 150 129"/><polygon class="a413163d-a25b-4a4b-bfe9-ae7975e07968" points="150 99.5 124.45 114.25 150 129 150 99.5"/><polygon class="ee44d3ff-8c0c-4074-ab01-60accf9d6cb8" points="201.09 70 175.55 55.25 175.55 84.75 201.09 70"/><polygon class="fd9adf07-5575-4104-8ec6-70de1cf39bab" points="201.09 99.5 201.09 70 175.55 84.75 201.09 99.5"/><polygon class="a413163d-a25b-4a4b-bfe9-ae7975e07968" points="175.55 114.25 201.09 99.5 175.55 84.75 175.55 114.25"/><polygon class="a413163d-a25b-4a4b-bfe9-ae7975e07968" points="175.55 55.25 150 70 175.55 84.75 175.55 55.25"/><polygon class="ee44d3ff-8c0c-4074-ab01-60accf9d6cb8" points="175.55 84.75 150 99.5 175.55 114.25 175.55 84.75"/><polygon class="a413163d-a25b-4a4b-bfe9-ae7975e07968" points="150 99.51 124.42 84.75 150 70 150 99.51"/><polygon class="a330baa0-ec90-4dae-a882-4a6c6449819d" points="150 40.5 175.58 55.25 150 70 150 40.5"/><polygon class="fd9adf07-5575-4104-8ec6-70de1cf39bab" points="150 70 175.58 84.75 150 99.51 150 70"/><polygon class="fd9adf07-5575-4104-8ec6-70de1cf39bab" points="175.57 55.32 149.99 40.53 175.57 25.73 175.57 55.32"/><polygon class="fd9adf07-5575-4104-8ec6-70de1cf39bab" points="124.45 114.27 150 99.51 124.45 84.75 124.45 114.27"/><polygon class="f0b28cfd-6e36-44b0-85ac-5c6a404cc7ba" points="159.33 49.39 172.03 42.04 172.03 56.75 159.33 49.39"/><polygon class="f0b28cfd-6e36-44b0-85ac-5c6a404cc7ba" points="184.74 49.39 184.74 64.1 172.03 56.75 184.74 49.39"/><polygon class="f0b28cfd-6e36-44b0-85ac-5c6a404cc7ba" points="172.03 42.04 184.74 49.39 172.03 56.75 172.03 42.04"/><polygon class="f0b28cfd-6e36-44b0-85ac-5c6a404cc7ba" points="159.33 64.1 172.03 71.45 159.33 78.81 159.33 64.1"/><polygon class="f0b28cfd-6e36-44b0-85ac-5c6a404cc7ba" points="184.75 64.1 172.03 56.75 172.03 71.45 184.75 64.1"/><polygon class="f0b28cfd-6e36-44b0-85ac-5c6a404cc7ba" points="172.03 86.16 184.75 78.81 172.03 71.45 172.03 86.16"/><polygon class="f0b28cfd-6e36-44b0-85ac-5c6a404cc7ba" points="172.03 56.75 159.32 64.1 172.03 71.45 172.03 56.75"/><polygon class="f0b28cfd-6e36-44b0-85ac-5c6a404cc7ba" points="172.03 71.45 159.32 78.81 172.03 86.16 172.03 71.45"/><polygon class="f0b28cfd-6e36-44b0-85ac-5c6a404cc7ba" points="172.04 42.04 159.33 34.69 159.33 49.39 172.04 42.04"/><polygon class="f0b28cfd-6e36-44b0-85ac-5c6a404cc7ba" points="172.01 86.07 184.71 78.72 184.71 93.42 172.01 86.07"/><polygon class="f0b28cfd-6e36-44b0-85ac-5c6a404cc7ba" points="140.67 49.35 127.97 42 127.97 56.7 140.67 49.35"/><polygon class="f0b28cfd-6e36-44b0-85ac-5c6a404cc7ba" points="115.27 49.35 115.27 64.06 127.97 56.7 115.27 49.35"/><polygon class="f0b28cfd-6e36-44b0-85ac-5c6a404cc7ba" points="127.97 42 115.27 49.35 127.97 56.7 127.97 42"/><polygon class="f0b28cfd-6e36-44b0-85ac-5c6a404cc7ba" points="140.67 64.06 127.97 71.41 140.67 78.76 140.67 64.06"/><polygon class="f0b28cfd-6e36-44b0-85ac-5c6a404cc7ba" points="115.25 64.06 127.97 56.7 127.97 71.41 115.25 64.06"/><polygon class="f0b28cfd-6e36-44b0-85ac-5c6a404cc7ba" points="127.97 86.12 115.25 78.76 127.97 71.41 127.97 86.12"/><polygon class="f0b28cfd-6e36-44b0-85ac-5c6a404cc7ba" points="127.97 56.7 140.69 64.06 127.97 71.41 127.97 56.7"/><polygon class="f0b28cfd-6e36-44b0-85ac-5c6a404cc7ba" points="127.97 71.41 140.69 78.76 127.97 86.12 127.97 71.41"/><polygon class="f0b28cfd-6e36-44b0-85ac-5c6a404cc7ba" points="127.97 42 140.67 34.64 140.67 49.35 127.97 42"/><polygon class="f0b28cfd-6e36-44b0-85ac-5c6a404cc7ba" points="128 86.03 115.3 78.67 115.3 93.38 128 86.03"/><polygon class="f0b28cfd-6e36-44b0-85ac-5c6a404cc7ba" points="140.9 95.35 137.76 93.51 137.76 97.19 140.9 95.35"/><polygon class="f0b28cfd-6e36-44b0-85ac-5c6a404cc7ba" points="134.61 95.35 134.61 99.03 137.76 97.19 134.61 95.35"/><polygon class="f0b28cfd-6e36-44b0-85ac-5c6a404cc7ba" points="137.76 93.51 134.61 95.35 137.76 97.19 137.76 93.51"/><polygon class="f0b28cfd-6e36-44b0-85ac-5c6a404cc7ba" points="140.9 99.03 137.76 100.87 140.9 102.71 140.9 99.03"/><polygon class="f0b28cfd-6e36-44b0-85ac-5c6a404cc7ba" points="134.61 99.03 137.76 97.19 137.76 100.87 134.61 99.03"/><polygon class="f0b28cfd-6e36-44b0-85ac-5c6a404cc7ba" points="137.76 104.55 134.61 102.71 137.76 100.87 137.76 104.55"/><polygon class="f0b28cfd-6e36-44b0-85ac-5c6a404cc7ba" points="134.61 99.03 137.76 100.87 134.61 102.71 134.61 99.03"/><polygon class="f0b28cfd-6e36-44b0-85ac-5c6a404cc7ba" points="137.76 100.87 140.91 102.71 137.76 104.55 137.76 100.87"/><polygon class="f0b28cfd-6e36-44b0-85ac-5c6a404cc7ba" points="134.61 102.71 134.61 106.39 137.76 104.55 134.61 102.71"/><polygon class="f0b28cfd-6e36-44b0-85ac-5c6a404cc7ba" points="134.61 106.39 137.76 104.55 137.76 108.23 134.61 106.39"/><polygon class="f0b28cfd-6e36-44b0-85ac-5c6a404cc7ba" points="134.61 106.39 137.76 108.23 134.61 110.07 134.61 106.39"/><polygon class="f0b28cfd-6e36-44b0-85ac-5c6a404cc7ba" points="137.76 93.51 140.9 91.67 140.9 95.35 137.76 93.51"/><polygon class="f0b28cfd-6e36-44b0-85ac-5c6a404cc7ba" points="137.77 104.53 134.62 102.69 134.62 106.37 137.77 104.53"/><polygon class="f0b28cfd-6e36-44b0-85ac-5c6a404cc7ba" points="150 89.89 147.19 88.26 147.19 91.52 150 89.89"/><polygon class="f0b28cfd-6e36-44b0-85ac-5c6a404cc7ba" points="144.38 89.89 144.38 93.15 147.19 91.52 144.38 89.89"/><polygon class="f0b28cfd-6e36-44b0-85ac-5c6a404cc7ba" points="147.19 88.26 144.38 89.89 147.19 91.52 147.19 88.26"/><polygon class="f0b28cfd-6e36-44b0-85ac-5c6a404cc7ba" points="147.2 98.01 144.39 99.64 147.2 101.26 147.2 98.01"/><polygon class="f0b28cfd-6e36-44b0-85ac-5c6a404cc7ba" points="144.38 93.15 147.19 91.52 147.19 94.77 144.38 93.15"/><polygon class="f0b28cfd-6e36-44b0-85ac-5c6a404cc7ba" points="147.19 98.03 144.38 96.4 147.19 94.77 147.19 98.03"/><polygon class="f0b28cfd-6e36-44b0-85ac-5c6a404cc7ba" points="144.38 93.15 147.19 94.77 144.38 96.4 144.38 93.15"/><polygon class="f0b28cfd-6e36-44b0-85ac-5c6a404cc7ba" points="147.19 88.26 150 86.64 150 89.89 147.19 88.26"/><polygon class="f0b28cfd-6e36-44b0-85ac-5c6a404cc7ba" points="147.2 98.01 144.39 96.38 144.39 99.64 147.2 98.01"/><polygon class="f0b28cfd-6e36-44b0-85ac-5c6a404cc7ba" points="150 89.9 152.8 88.27 152.8 91.53 150 89.9"/><polygon class="f0b28cfd-6e36-44b0-85ac-5c6a404cc7ba" points="155.61 89.9 155.61 93.16 152.8 91.53 155.61 89.9"/><polygon class="f0b28cfd-6e36-44b0-85ac-5c6a404cc7ba" points="152.8 88.27 155.61 89.9 152.8 91.53 152.8 88.27"/><polygon class="f0b28cfd-6e36-44b0-85ac-5c6a404cc7ba" points="152.8 98.02 155.6 99.65 152.8 101.27 152.8 98.02"/><polygon class="f0b28cfd-6e36-44b0-85ac-5c6a404cc7ba" points="155.61 93.16 152.8 91.53 152.8 94.78 155.61 93.16"/><polygon class="f0b28cfd-6e36-44b0-85ac-5c6a404cc7ba" points="152.8 98.04 155.61 96.41 152.8 94.78 152.8 98.04"/><polygon class="f0b28cfd-6e36-44b0-85ac-5c6a404cc7ba" points="155.61 93.16 152.8 94.78 155.61 96.41 155.61 93.16"/><polygon class="f0b28cfd-6e36-44b0-85ac-5c6a404cc7ba" points="152.8 88.27 150 86.65 150 89.9 152.8 88.27"/><polygon class="f0b28cfd-6e36-44b0-85ac-5c6a404cc7ba" points="152.8 98.02 155.6 96.39 155.6 99.65 152.8 98.02"/><polygon class="f0b28cfd-6e36-44b0-85ac-5c6a404cc7ba" points="150 102.88 152.81 101.25 150 99.63 150 102.88"/><polygon class="f0b28cfd-6e36-44b0-85ac-5c6a404cc7ba" points="150 102.88 147.19 101.25 150 99.63 150 102.88"/><polygon class="f0b28cfd-6e36-44b0-85ac-5c6a404cc7ba" points="147.19 101.25 150 99.63 147.19 98 147.19 101.25"/><polygon class="f0b28cfd-6e36-44b0-85ac-5c6a404cc7ba" points="152.81 101.26 150 99.64 152.81 98.01 152.81 101.26"/><polygon class="f0b28cfd-6e36-44b0-85ac-5c6a404cc7ba" points="162.47 93.11 159.4 91.38 159.4 94.84 162.47 93.11"/><polygon class="f0b28cfd-6e36-44b0-85ac-5c6a404cc7ba" points="159.4 94.84 159.4 98.31 162.47 96.58 159.4 94.84"/><polygon class="f0b28cfd-6e36-44b0-85ac-5c6a404cc7ba" points="162.47 93.11 159.4 94.84 162.47 96.58 162.47 93.11"/><polygon class="f0b28cfd-6e36-44b0-85ac-5c6a404cc7ba" points="159.4 98.31 162.47 96.58 162.47 100.04 159.4 98.31"/><polygon class="f0b28cfd-6e36-44b0-85ac-5c6a404cc7ba" points="162.47 103.51 159.4 101.78 162.47 100.04 162.47 103.51"/><polygon class="f0b28cfd-6e36-44b0-85ac-5c6a404cc7ba" points="159.4 98.31 162.47 100.04 159.4 101.78 159.4 98.31"/><polygon class="f0b28cfd-6e36-44b0-85ac-5c6a404cc7ba" points="159.4 101.78 159.4 105.25 162.47 103.51 159.4 101.78"/><polygon class="f0b28cfd-6e36-44b0-85ac-5c6a404cc7ba" points="159.4 105.25 162.47 103.51 162.47 106.98 159.4 105.25"/><polygon class="f0b28cfd-6e36-44b0-85ac-5c6a404cc7ba" points="162.47 105.2 159.4 106.93 162.47 108.66 162.47 105.2"/><polygon class="f0b28cfd-6e36-44b0-85ac-5c6a404cc7ba" points="159.4 103.51 159.4 106.98 162.47 105.25 159.4 103.51"/></svg>