<?xml version="1.0" encoding="utf-8"?>
<!-- Generator: Adobe Illustrator 24.1.1, SVG Export Plug-In . SVG Version: 6.00 Build 0)  -->
<svg version="1.1" id="b9580063-f3e9-4e65-ad7d-576a2669aa2d"
	 xmlns="http://www.w3.org/2000/svg" xmlns:xlink="http://www.w3.org/1999/xlink" x="0px" y="0px" viewBox="0 0 131.5 116.3"
	 style="enable-background:new 0 0 131.5 116.3;" xml:space="preserve">
<style type="text/css">
	.st0{fill:#2CA6DE;}
	.st1{fill:#F05C22;}
	.st2{fill:#A8CE38;}
	.st3{fill:#0E4E95;}
</style>
<path class="st0" d="M77.4,77c-3-8.3,1.2-17.6,9.6-20.6s17.6,1.2,20.6,9.6c3,8.3-1.2,17.6-9.6,20.6c0,0,0,0,0,0
	c-8.3,3.1-17.5-1.2-20.6-9.5C77.4,77.1,77.4,77,77.4,77"/>
<path class="st1" d="M87.8,27.4c-2-5.5,0.9-11.7,6.4-13.7c5.5-2,11.7,0.9,13.7,6.4c2,5.5-0.9,11.7-6.4,13.7
	C95.9,35.8,89.8,32.9,87.8,27.4C87.8,27.4,87.8,27.4,87.8,27.4"/>
<path class="st0" d="M114.3,71.8c-1.5-4.2,0.6-8.7,4.8-10.2c4.2-1.5,8.7,0.6,10.2,4.8c1.5,4.1-0.6,8.7-4.8,10.2
	C120.4,78.1,115.8,76,114.3,71.8C114.3,71.9,114.3,71.8,114.3,71.8"/>
<path class="st2" d="M37.6,56.8c-5.1-5.1-5.1-13.5,0-18.6s13.5-5.1,18.6,0s5.1,13.5,0,18.6c0,0,0,0,0,0
	C51.1,61.9,42.8,61.9,37.6,56.8C37.6,56.8,37.6,56.8,37.6,56.8"/>
<path class="st1" d="M47.7,20.5c-4.2-4.2-4.2-11,0-15.2c4.2-4.2,11-4.2,15.2,0c4.2,4.2,4.2,11,0,15.2C58.7,24.7,51.9,24.7,47.7,20.5
	C47.7,20.5,47.7,20.5,47.7,20.5"/>
<path class="st1" d="M38.2,76.8c-8.8-0.6-15.5-8.3-14.8-17.1s8.3-15.5,17.1-14.8c8.8,0.6,15.5,8.3,14.8,17.1c0,0,0,0,0,0.1
	C54.6,70.8,46.9,77.4,38.2,76.8"/>
<path class="st2" d="M30.2,108.9c-7.3-0.5-12.8-6.9-12.3-14.2c0.5-7.3,6.9-12.8,14.2-12.3c7.3,0.5,12.8,6.9,12.3,14.2
	C43.9,103.9,37.5,109.4,30.2,108.9C30.2,108.9,30.2,108.9,30.2,108.9"/>
<path class="st2" d="M9.3,50.5c-4.4-0.3-7.7-4.2-7.3-8.6c0.3-4.4,4.2-7.7,8.6-7.3c4.4,0.3,7.6,4.1,7.4,8.5
	C17.6,47.4,13.8,50.8,9.3,50.5"/>
<path class="st3" d="M40.1,109.8c-2-4-0.3-8.8,3.6-10.7c4-2,8.8-0.3,10.7,3.6c1.9,3.9,0.4,8.7-3.6,10.7
	C46.9,115.4,42.1,113.8,40.1,109.8C40.1,109.9,40.1,109.8,40.1,109.8"/>
<path class="st0" d="M93.4,109.9c-2-4-0.3-8.8,3.6-10.7c4-2,8.8-0.3,10.7,3.6c1.9,3.9,0.4,8.7-3.6,10.7
	C100.2,115.5,95.4,113.9,93.4,109.9C93.4,109.9,93.4,109.9,93.4,109.9"/>
<path class="st2" d="M64.6,92.7c-8.8-0.7-15.4-8.4-14.7-17.2S58.2,60.2,67,60.8c8.8,0.7,15.4,8.3,14.8,17.1
	C81.1,86.7,73.4,93.4,64.6,92.7"/>
<path class="st3" d="M61.9,90.8c-3.3-6.6-0.6-14.7,6-18c6.6-3.3,14.7-0.6,18,6c3.3,6.6,0.6,14.7-6,18
	C73.3,100.1,65.2,97.4,61.9,90.8C61.9,90.8,61.9,90.8,61.9,90.8"/>
<path class="st1" d="M60,51c-6.2-6.2-6.2-16.4,0-22.6c6.2-6.2,16.4-6.2,22.6,0c6.2,6.2,6.2,16.4,0,22.6C76.4,57.2,66.2,57.2,60,51
	C60,51,60,51,60,51"/>
<path class="st3" d="M45.4,58.9C42,52.2,44.7,44,51.5,40.6c6.7-3.4,14.9-0.6,18.3,6.1c3.4,6.7,0.6,14.9-6.1,18.3c0,0,0,0,0,0
	C57,68.4,48.8,65.7,45.4,58.9C45.4,58.9,45.4,58.9,45.4,58.9"/>
<path class="st0" d="M93.4,52.3c-2.5-6.9,1.1-14.6,8-17.1c6.9-2.5,14.6,1.1,17.1,8c2.5,6.9-1.1,14.5-8,17
	C103.5,62.7,95.9,59.2,93.4,52.3"/>
<path class="st3" d="M67.4,68c-4-8-0.7-17.6,7.2-21.6c8-4,17.6-0.7,21.6,7.2c3.9,7.9,0.7,17.6-7.2,21.5c-7.9,4-17.5,0.8-21.5-7
	C67.4,68.2,67.4,68.1,67.4,68"/>
<path class="st3" d="M34.9,81.7c-2.6-5.3-0.5-11.8,4.8-14.5c5.2-2.6,11.5-0.6,14.1,4.6c0,0.1,0.1,0.2,0.1,0.2
	c2.6,5.3,0.5,11.8-4.8,14.5c-5.2,2.6-11.5,0.6-14.1-4.6C34.9,81.8,34.9,81.8,34.9,81.7"/>
</svg>
