<svg xmlns="http://www.w3.org/2000/svg" xmlns:xlink="http://www.w3.org/1999/xlink" viewBox="0 0 223.9 51.5"><linearGradient id="A" gradientUnits="userSpaceOnUse" x1="-20.494" y1="-30.112" x2="26.226" y2="37.648"><stop offset="0" stop-color="#b3b3b3"/><stop offset="1" stop-color="#999"/></linearGradient><path d="M18.8 19.2l-2.8-1-2.7-.9c-1.7-.4-2.9-1.9-2.8-3.7-.1-1.3.5-2.5 1.5-3.3 1.3-.7 2.8-1.1 4.2-1 2.9.1 5.8.7 8.5 2l1.9-4.6C23.3 5 19.6 4.1 16 4.2c-3.1-.1-6.2.8-8.8 2.5C5 8.4 3.8 11.1 4 13.9c0 4.4 2.3 7.4 6.8 9 .4.1.9.3 1.8.6s1.7.5 2.6.8l1.7.5c2.8.8 4.3 2.3 4.3 4.4a4.63 4.63 0 0 1-1.5 3.7c-1.3.9-2.9 1.4-4.5 1.3-1.7 0-3.4-.3-5-.7-1.7-.5-3.2-1.2-4.7-2L4 36.6c3.3 1.9 7.1 2.9 11 2.8 3.9 0 7-.9 9.3-2.6 2.3-1.8 3.6-4.6 3.4-7.5.1-2.3-.6-4.5-2-6.3-1.5-1.5-3.7-2.8-6.9-3.8z" fill="url(#A)"/><linearGradient id="B" gradientUnits="userSpaceOnUse" x1="13.518" y1="-14.743" x2="50.108" y2="38.327"><stop offset="0" stop-color="#b3b3b3"/><stop offset="1" stop-color="#999"/></linearGradient><path d="M41.8 12.7c-3.9 0-7 1.2-9.2 3.6s-3.2 5.6-3.2 9.7c-.2 3.5 1 7 3.2 9.7 2.3 2.5 5.5 3.8 8.9 3.7 3.9 0 7-1.2 9.2-3.6s3.3-5.6 3.3-9.7c0-4-1.1-7.2-3.2-9.7-2.3-2.4-5.2-3.6-9-3.7zm4.5 19.8c-1.1 1.5-2.8 2.4-4.6 2.2-1.9.1-3.7-.7-4.7-2.2-1.2-1.9-1.7-4.2-1.6-6.4-.1-2.3.4-4.5 1.6-6.5 2.1-2.6 5.9-3 8.4-.9l.9.9a10.63 10.63 0 0 1 1.5 6.5c.2 2.2-.4 4.5-1.5 6.4h0z" fill="url(#B)"/><linearGradient id="C" gradientUnits="userSpaceOnUse" x1="39.65" y1="-14.661" x2="76.36" y2="38.589"><stop offset="0" stop-color="#b3b3b3"/><stop offset="1" stop-color="#999"/></linearGradient><path d="M68.4 17.4c2.1.1 4.1.6 5.9 1.7l1.4-4.3c-2.3-1.4-4.9-2.1-7.6-2-3.3-.1-6.6 1.1-9 3.5-2.3 2.4-3.4 5.6-3.4 9.8 0 4.3 1.1 7.6 3.3 10s5.2 3.5 9.1 3.5c1.4 0 2.8-.1 4.1-.5 1.2-.3 2.3-.8 3.3-1.5l-.6-4.7c-1.9 1.3-4.1 2-6.4 2-1.9.1-3.8-.7-5-2.2s-1.8-3.7-1.8-6.5.6-5 1.8-6.4c1.1-1.7 3-2.5 4.9-2.4z" fill="url(#C)"/><linearGradient id="D" gradientUnits="userSpaceOnUse" x1="73.087" y1="-4.696" x2="83.657" y2="10.634"><stop offset="0" stop-color="#b3b3b3"/><stop offset="1" stop-color="#999"/></linearGradient><path d="M78.2 4.5h6.1v5.2h-6.1z" fill="url(#D)"/><linearGradient id="E" gradientUnits="userSpaceOnUse" x1="55.557" y1="-11.046" x2="88.917" y2="37.344"><stop offset="0" stop-color="#b3b3b3"/><stop offset="1" stop-color="#999"/></linearGradient><path d="M78.2 13.4h6.1v25.5h-6.1z" fill="url(#E)"/><linearGradient id="F" gradientUnits="userSpaceOnUse" x1="65.708" y1="-20.117" x2="108.058" y2="41.323"><stop offset="0" stop-color="#b3b3b3"/><stop offset="1" stop-color="#999"/></linearGradient><path d="M98.7 12.7c-3.4 0-6.7.7-9.8 2 0 0 .3.7.8 2.1s.8 2.1.8 2.1c2.4-1 5-1.6 7.7-1.7a4.43 4.43 0 0 1 3.3 1.1c.8.9 1.2 2.2 1.1 3.4V23c-.4 0-1 .1-1.6.2l-1.9.2-1.6.2c-3.5.3-6.1 1.2-7.8 2.4-1.8 1.4-2.7 3.6-2.6 5.8-.1 2.1.7 4.2 2.2 5.6a7.99 7.99 0 0 0 5.7 2c1.5 0 3-.3 4.4-.9 1.4-.7 2.6-1.6 3.7-2.7 0 .1.2.6.5 1.6l.5 1.6h4.5V22.3c0-3.3-.8-5.8-2.3-7.3s-4.2-2.3-7.6-2.3zm3.7 18.9c-.5 1-1.3 1.9-2.2 2.4-1.1.7-2.4 1-3.7 1-1 .1-1.9-.2-2.7-.9-.7-.6-1.1-1.6-1-2.5-.1-1.4.6-2.7 1.7-3.4 1.7-.9 3.5-1.3 5.4-1.4l1.2-.1h1.3v4.9z" fill="url(#F)"/><linearGradient id="G" gradientUnits="userSpaceOnUse" x1="80.084" y1="-32.631" x2="129.244" y2="38.689"><stop offset="0" stop-color="#b3b3b3"/><stop offset="1" stop-color="#999"/></linearGradient><path d="M122.6 34.6c-1.6 0-2.6-.4-3.2-1.2s-.8-2.4-.8-4.7V3.6l-6.1.4v24.9c0 1.5.1 3.1.4 4.6.2 1.2.7 2.2 1.4 3.2.7.9 1.6 1.6 2.7 2 1.4.5 2.9.7 4.4.6.5 0 .9 0 1.4-.1l1.3-.2c.4-.1.7-.1 1-.2l.6-.1-.2-4.3-2.9.2z" fill="url(#G)"/><linearGradient id="H" gradientUnits="userSpaceOnUse" x1="99.108" y1="-36.714" x2="151.518" y2="39.296"><stop offset="0" stop-color="#b3b3b3"/><stop offset="1" stop-color="#999"/></linearGradient><use xlink:href="#Q" fill="url(#H)"/><linearGradient id="I" gradientUnits="userSpaceOnUse" x1="129.648" y1="-25.347" x2="176.838" y2="43.103"><stop offset="0" stop-color="#b3b3b3"/><stop offset="1" stop-color="#999"/></linearGradient><use xlink:href="#R" fill="url(#I)"/><linearGradient id="J" gradientUnits="userSpaceOnUse" x1="157.378" y1="-25.704" x2="201.848" y2="38.806"><stop offset="0" stop-color="#b3b3b3"/><stop offset="1" stop-color="#999"/></linearGradient><use xlink:href="#S" fill="url(#J)"/><linearGradient id="K" gradientUnits="userSpaceOnUse" x1="181.655" y1="-15.615" x2="219.865" y2="39.815"><stop offset="0" stop-color="#b3b3b3"/><stop offset="1" stop-color="#999"/></linearGradient><use xlink:href="#T" fill="url(#K)"/><g opacity=".6"><linearGradient id="L" gradientUnits="userSpaceOnUse" x1="99.108" y1="-36.714" x2="151.518" y2="39.296"><stop offset="0" stop-color="#81a4f2"/><stop offset=".25" stop-color="#789be9"/><stop offset=".66" stop-color="#5e81cf"/><stop offset="1" stop-color="#4568b6"/></linearGradient><use xlink:href="#Q" fill="url(#L)"/><linearGradient id="M" gradientUnits="userSpaceOnUse" x1="129.648" y1="-25.347" x2="176.838" y2="43.103"><stop offset="0" stop-color="#81a4f2"/><stop offset=".25" stop-color="#789be9"/><stop offset=".66" stop-color="#5e81cf"/><stop offset="1" stop-color="#4568b6"/></linearGradient><use xlink:href="#R" fill="url(#M)"/><linearGradient id="N" gradientUnits="userSpaceOnUse" x1="157.378" y1="-25.704" x2="201.848" y2="38.806"><stop offset="0" stop-color="#81a4f2"/><stop offset=".25" stop-color="#789be9"/><stop offset=".66" stop-color="#5e81cf"/><stop offset="1" stop-color="#4568b6"/></linearGradient><use xlink:href="#S" fill="url(#N)"/><linearGradient id="O" gradientUnits="userSpaceOnUse" x1="181.655" y1="-15.615" x2="219.865" y2="39.815"><stop offset="0" stop-color="#81a4f2"/><stop offset=".25" stop-color="#789be9"/><stop offset=".66" stop-color="#5e81cf"/><stop offset="1" stop-color="#4568b6"/></linearGradient><use xlink:href="#T" fill="url(#O)"/></g><defs ><path id="Q" d="M148.6 21c.8-.2 1.6-.6 2.2-1.1a6.73 6.73 0 0 0 1.5-1.4c.4-.5.7-1.1.9-1.7.2-.5.3-1.1.4-1.6s.1-1 .1-1.5c0-3.1-1.1-5.3-3.3-6.6s-5.6-2-10.1-2h-10.6v34h12.6c4 0 7.1-.8 9.4-2.5 3.8-3.2 4.5-8.6 1.7-12.7-1.2-1.5-3-2.5-4.8-2.9zM135.9 9.7h4.1c2-.1 3.9.2 5.7 1 1.3.8 2 2.2 1.8 3.7 0 3.2-2.1 4.8-6.2 4.8h-5.4V9.7zm5.5 24.9h-5.5v-11h5.3c2.5 0 4.4.4 5.6 1.3 1.3 1 2 2.5 1.8 4.1 0 3.7-2.4 5.6-7.2 5.6z"/><path id="R" d="M171.8 21.9c-1.7 5-2.8 8.4-3.3 10.3l-6.7-18.5h-6.5l10.3 25c-.6 1.6-.9 2.5-.9 2.6-.4 1.2-1.1 2.2-2.1 3a5.73 5.73 0 0 1-3.4.8c-1.1 0-2 0-2.7-.1l.3 4.7c1 .1 2.1.2 3.2.2 2.3.1 4.6-.5 6.4-1.8 1.9-1.6 3.4-3.7 4.2-6.1.1-.2 3.6-9.6 10.7-28.3h-6.5l-3 8.2z"/><path id="S" d="M195.4 34.8c-1.2.1-2.3-.3-3.1-1.2-.7-1.3-1-2.7-.8-4.1V17.3h6.3v-3.7h-6.3V6.7l-3.7.1-2 6.9-4.4.4-.2 3.3h4.2v12c0 1.5.1 3 .4 4.4a7.27 7.27 0 0 0 1.4 3.1c.7.9 1.6 1.6 2.7 1.9 1.4.4 2.9.7 4.3.6.4 0 .9 0 1.4-.1s.9-.1 1.2-.2l1-.2.6-.1-.2-4.4c-.9.4-1.8.4-2.8.4z"/><path id="T" d="M218.9 16.3c-2.1-2.3-5.1-3.5-8.2-3.3-3.3-.1-6.5 1.2-8.8 3.6-2.2 2.4-3.2 5.6-3.2 9.7 0 4.2 1.1 7.4 3.4 9.8s5.5 3.5 9.6 3.5c3.2.1 6.4-.7 9.1-2.4l-.9-4.3c-2.4 1.4-5.2 2.2-8 2.2-1.9.1-3.8-.6-5.1-2-1.3-1.5-2.1-3.5-2-5.5h17V25c.2-3.2-.9-6.3-2.9-8.7zm-14 7.5c0-1.8.7-3.5 1.9-4.8 1-1.1 2.5-1.7 4-1.6 1.5-.1 2.9.5 3.9 1.7 1 1.4 1.5 3.1 1.4 4.8l-11.2-.1z"/></defs></svg>