<?xml version="1.0" encoding="utf-8"?>
<!-- Generator: Adobe Illustrator 24.1.1, SVG Export Plug-In . SVG Version: 6.00 Build 0)  -->
<svg version="1.1" id="b3f0fe5e-1420-4ac6-83bc-c58f29362ea9"
	 xmlns="http://www.w3.org/2000/svg" xmlns:xlink="http://www.w3.org/1999/xlink" x="0px" y="0px" viewBox="0 0 180.7 119.6"
	 style="enable-background:new 0 0 180.7 119.6;" xml:space="preserve">
<style type="text/css">
	.st0{fill:#FFDD15;}
	.st1{fill:#404041;}
</style>
<g>
	<g>
		<path class="st0" d="M64.2,48.6c-1,0.2-2.1,0.5-3.1,0.5c-1.4,0-2.8-0.1-4.1-0.3c-0.3-1-0.5-2.1-0.3-3.1c-0.1-3.5-0.1-6.8-0.1-10.5
			c0-1.6-0.1-4.1-0.1-6.1V25c-0.7,1.6-0.9,3.5-1.6,5.2c-0.5,2-1.2,3.8-1.8,5.6l-0.3,1.4c-0.3,0.9-0.6,2-0.8,3c-0.2,1-0.7,2.2-1,3.5
			c-0.5,0.1-0.9,0.2-1.4,0.2c-1.5,0.2-3,0.2-4.6,0.1c-0.1-0.2,0-0.2,0.2-0.5c-0.1-0.1-0.2,0-0.2-0.2c-0.8-3.5-2.1-6.1-2.9-9.2
			c-0.2-0.8-0.5-1.7-0.7-2.4c-0.1-0.3-0.2-0.6-0.2-0.9c-0.7-2-1.4-4-2.2-6.2c-0.1,0.7-0.2,1.5-0.1,2.2c0,0.9-0.2,1.6-0.2,2.6
			c0,2.4,0.1,4.8,0.3,7.5c0.3,3.9,0.3,7.9,0,12c-0.2,0.2-0.2-0.1-0.5-0.1c-1.2,0.2-2.4,0.3-3.6,0.3c-1.2-0.2-2.2-0.3-3.3-0.3
			c-0.1-1,0.1-2.1,0.1-3.2s-0.1-2.2-0.1-3.1c0-0.8,0.1-1.6,0.1-2.4c0-2-0.2-3.9-0.2-5.9c-0.1-1.4,0-2.8,0.1-4.1
			c-0.2-3.8,0-7.4-0.2-11.4c0-0.5,0.1-1.2,0.1-1.8c0-0.6,0-1,0-1.6c0-0.1,0-0.2,0.1-0.3c-0.2-0.3-0.2-1.2-0.2-1.6
			c0-1.2-0.2-2.4-0.2-3.7c0-1.3,0-2.6,0.1-3.8c0.2-0.2,0.5-0.1,0.7-0.1c1,0,2-0.1,3-0.3c0.7-0.1,1.4,0,2.2,0c1,0,2.1,0.1,3,0.5
			c0.3,0,0.8,0,1.2,0.1c0.2,0.6,0.3,1.3,0.5,1.8c0.2,0.2,0.2,0.5,0.3,0.8c0.2,0.3,0.3,0.8,0.3,1.3c0.3,0.7,0.7,1.5,0.8,2.3
			c0.8,3,1.5,5.9,2.4,8.9s1.8,5.8,2.3,8.9c0.2-0.5,0.5-1.2,0.6-1.8c0.5-1.4,0.8-2.8,1.2-4.3c0-0.2,0.2-0.1,0.1-0.2
			c-0.1,0.1-0.1,0-0.1-0.1l1.5-5.1c0.7-1.8,0.9-3.7,1.4-5.4c0.8-2.3,1.5-4.8,2-7.3c0.5,0,0.6-0.2,1-0.3h0.2c0.2,0,0.2-0.1,0.2-0.1
			c0.5-0.1,0.8-0.1,1.3-0.1c0.3,0,0.7-0.1,1-0.1c1-0.1,2.2,0,3.2,0.2c1,0,2,0.2,2.9,0.5c0.1,1.3-0.2,2.8-0.2,4.1
			c0,0.5,0.2,0.8,0,1.3c0.2,1.5,0.2,3,0,4.4c0,0.3,0.1,0.7,0.1,1c-0.1,0.2-0.1,0.6-0.1,0.8c0.2,3.1-0.1,5.9,0.1,8.5
			c0.2,3.5-0.2,6.6,0,9.6c0,0.5,0.1,1,0.1,1.5c0,0.7-0.2,1.3-0.1,1.7c0.1,0.2,0.2,0.1,0.2,0.3s-0.2,0.5-0.2,0.7
			c0,0.9,0.2,1.7,0.2,2.6C64.2,44.3,64.3,46.6,64.2,48.6z M41.2,7.5c-0.1,0-0.1,0.2,0,0.2c0-0.2,0.5,0.1,0.3-0.1
			c-0.1,0.1-0.1,0.1-0.1,0V7.5H41.2z M41.5,8.8c0,0.1-0.1,0-0.1,0.2c0.1,0,0.2,0,0.2-0.1S41.5,8.8,41.5,8.8L41.5,8.8z"/>
		<path class="st0" d="M77.6,11.3c-0.1,2,0,3.8-0.1,5.8S77.3,21,77.3,23s0,3.9-0.1,5.9c-0.1,3.2,0.1,6.7,0,10.1l-0.1,6.9
			c0,0.7,0,1.5,0.1,2.2c0.1,0.3,0.3,0.3,0.2,0.7c-0.9,0.1-2,0.1-2.9,0c-1.2-0.1-2.3-0.2-3.3-0.1c-0.3,0.1-0.6,0.2-0.8,0.1
			c-0.2-0.6-0.2-1.2-0.1-1.7c0-1.4,0-2.4,0-3.8c0-1.4,0.1-3.2,0-4.8l-0.2-8.3c0-1.6,0.1-3.1,0.1-4.6V21c0-0.6,0.1-1,0.1-1.5
			c-0.1-2.2,0-4.3,0-6.4c-0.1-0.8,0.1-1.8,0.1-2.6c0-0.3-0.1-0.6-0.1-0.9V7.4c0.1-0.6,0.1-1.2,0-1.7c0.2,0,0.2-0.2,0.2-0.5
			c2.1,0.2,4.8-0.1,7,0.2c-0.1,0.2,0.2,0.1,0.3,0.2C77.6,7.4,77.6,9.3,77.6,11.3z"/>
		<path class="st0" d="M104.6,49c-1.5,0.2-3.7-0.3-4.9-0.2c-0.3-0.7-0.7-1.4-0.9-2.1c-0.5,0.5-0.9,0.9-1.5,1.3l-0.6,0.2
			c-0.2,0.1-0.3,0.2-0.6,0.3l-0.5,0.1c-0.5,0.2-1,0.3-1.5,0.5c-0.3,0.1-0.8,0.2-1.2,0.2c-1,0.1-2,0.1-3,0.1c-1-0.2-2.1-0.7-3-1.2
			s-1.7-1.2-2.5-1.7c-0.8-1.2-1.3-2.3-1.6-3.7v-0.7l-0.2-0.5c0-0.5,0-0.9,0-1.3c0-0.5,0-0.9,0.1-1.4c0.3-1.7,1.2-3.3,2.3-4.6
			c0.5,0,0.8-0.5,1.2-0.7c1.2-0.8,2.3-1.6,3.7-2.2c1.3-0.6,2.8-0.9,4.1-1.5c1-0.5,2.2-0.8,3.3-1c0.3-1.4,0.1-4.1-1.4-4.5
			c-0.9-0.8-2.2-1-3.3-0.7c-0.3,0.1-0.7,0.2-1,0.5c-0.5,0.2-0.9,0.7-1.2,1.2c-0.6,0.8-0.9,1.7-0.8,2.8c0,0.2,0.2,0.3,0.2,0.7
			c-0.9,0.2-1.8,0.2-2.8,0c-1.4-0.1-2.5-0.1-3.8-0.2l-0.5-0.3c0-3.2,0.3-5.8,2-7.6c0.2-0.2,0.8-0.6,1-0.8c0.2-0.3,0.5-0.6,0.8-0.8
			c0.2-0.2,0.5-0.3,0.7-0.6l0.5-0.1c0.1-0.1,0.2-0.3,0.5-0.3l0.7-0.2c1.3-0.3,2.5-0.6,3.8-0.6c0.2,0,0.1,0.1,0.2-0.1
			c1.7,0,3.6,0.2,5.2,0.9c0.8,0.2,1.5,0.6,2.2,0.9c0.6,0.6,1.3,1,2,1.5c0.3,0.2,0.6,0.6,0.9,0.9c0.2,0.3,0.2,0.8,0.6,1.2
			c0.6,2.3,0.8,4.6,0.8,6.9c0.1,2.3,0.1,4.7,0,7c-0.1,2.2-0.1,4.4-0.1,6.6c0,0.7,0.1,1.4,0.1,2.1s0.1,1.5,0.1,2.2v0.6
			C104.7,48.1,104.7,48.6,104.6,49z M97.2,35L97.2,35c-2.3,0.7-4.7,1.2-6.4,2.6c-0.3,0.8-0.9,1.5-0.7,2.5c0.1,0.7,0.5,1.3,1,1.6
			c1.8,1.3,4.6,0.5,5.9-0.9C97.6,39.3,97.2,37.1,97.2,35z"/>
		<path class="st0" d="M131.3,7.8c0,0.7,0.2,1.5,0.1,2.2c-0.1,0.7,0.1,1.5,0,2.3c-0.1,1.6-0.2,3.2-0.2,4.7s0.1,3,0.1,4.5
			c-0.1,2.8,0.1,5.6,0.2,8.4c0.1,1.3,0,2.6-0.1,3.8s-0.1,2.4,0,3.6c0,1.2-0.1,2.3,0,3.6c0.1,2.3-0.1,4.7,0,6.9
			c0.1,0.3,0.1,0.8,0.1,1.2c-1.8,0.1-3.7,0-5.4-0.5c-0.2-0.7-0.5-1.4-0.6-2.2c-0.2,0.1-0.2,0.3-0.5,0.5c-0.2,0.3-0.6,0.6-0.9,0.8
			c-0.2,0.2-0.2,0.3-0.5,0.5c-1,0.7-2.2,1-3.3,1.2c-2,0.1-3.9-0.2-5.8-0.9c-0.6-0.2-1.3-0.6-1.8-1c-0.6-0.3-1.2-0.7-1.6-1.2
			c-0.2-0.2-0.3-0.5-0.5-0.8c-0.2-0.2-0.5-0.6-0.7-0.9c-0.5-2-0.8-3.9-0.8-5.9c-0.2-1.7-0.2-3.6-0.1-5.3c-0.2-1.6-0.2-3.2-0.1-4.7
			c0.1-1.2,0.3-2.3,0.6-3.6c0.1-0.9,0.5-1.7,1.2-2.4c1.3-2.8,3.8-4.8,6.8-5.4c2.2,0,4.4,0.6,6.2,1.8c0.1-1.6,0.1-3.7,0.1-5.8
			c0-1.3,0.1-2.6,0.1-3.9s0-2.4,0.2-3.7c0.6-0.2,1-0.1,1.4-0.2c1.8,0,3.8,0,5.6,0.2C131.6,6.2,131.3,6.9,131.3,7.8z M117.4,25.9
			c-0.1,0.3-0.2,0.6-0.3,0.9c-0.5,0.9-0.6,1.8-0.6,2.9l0.1,5.4c0,1.4,0.1,2.8,0.3,4.1c0.1,1,0.5,2,1,2.8c0.7,0.3,1.5,0.6,2.3,0.6
			c0.3-0.2,0.5,0,0.8,0c0.6-0.1,1-0.3,1.5-0.8c0.2-0.3,0.5-0.7,0.6-1c0.1-0.1,0.1-0.1,0.1-0.1c0.2-0.2,0.3-0.6,0.6-0.8
			c0.3-1.2,0.5-2.4,0.3-3.7c0-1.4,0.1-2.9-0.1-4.3c-0.1-2-0.1-4.4-1-6.1c-0.1-0.1-0.2-0.2-0.2-0.3c-0.6-0.5-1.3-0.8-2-1
			c-0.1,0-0.2,0-0.3,0c-0.3-0.2-0.8-0.2-1.2-0.2C118.4,24.4,117.7,25.1,117.4,25.9z"/>
		<path class="st0" d="M144.8,20.4c0.2,2.8,0.3,5.6,0.3,8.4c-0.1,1.7,0,3.5-0.1,5.2c-0.1,2.1-0.2,3.9-0.2,5.9c0,2.9,0.2,5.6,0.1,8.4
			c-0.2,0.1-0.2,0.3-0.3,0.5c-2.2,0.2-4.4,0.2-6.4,0c-0.5,0.5-0.8-0.1-0.9-0.7c-0.1-1,0.1-2.1,0.1-3.1c0-2.2-0.2-4.6-0.2-7
			c0-1.2-0.1-2.5,0-3.8c0-0.3,0-0.7,0-1c0-1.3,0-2.6,0.2-3.9v-3.7c0-1.3,0.2-2.3,0.2-3.5c0-1.4,0-2.9,0.1-4.3c2.1-0.5,4.3-0.5,6.4,0
			c0.1,0,0.2,0.1,0.2,0.2c0.2-0.1,0.2,0,0.5,0C144.6,18.8,144.9,19.7,144.8,20.4z M145,9.9c0,0.9-0.1,2-0.3,2.9
			c-0.1,0-0.2,0-0.2,0.1c-0.3-0.1-0.7-0.1-1-0.1h-0.9c-0.1,0-0.3-0.1-0.5-0.1c-1.5-0.1-3.1-0.1-4.7-0.2c0.1-2.4,0.1-4.6,0.1-6.6
			c0.1-0.2,0.3-0.2,0.2-0.3c2.3-0.2,4.7-0.1,7,0.1L145,9.9z"/>
		<path class="st1" d="M66.2,44.9c-0.1,1.3-0.1,2.5-0.1,3.8c0,0.5,0.1,1.2-0.1,1.3c-0.2,0.1-0.5,0.1-0.6,0.1
			c-0.5,0.1-0.8,0.2-1.3,0.3c-1.3,0.2-3.1,0.2-4.3,0.5c-1.3-0.6-2.3-1.4-3.2-2.4c0-0.6-0.1-1-0.2-1.6c-0.1-0.9,0-1.8,0-2.8
			c0-3.7-0.1-7-0.1-10.7c-1,3.9-2.4,7.5-3.6,11.4c-1.2,0.2-2.5,0.5-3.8,0.7c-0.3,0.1-0.7,0-0.9,0.1c-0.2,0.1-0.2,0.2-0.5,0.3
			c-0.2,0.1-0.6-0.5-1-0.5c-0.5-0.5-1-0.8-1.5-1.3c-0.1-0.2-0.3-0.3-0.5-0.3c-0.1-0.1,0-0.2,0.1-0.3c0,0,0,0,0.1,0
			c-0.1-0.1-0.2,0-0.2-0.2c-0.7-2.8-1.6-5.5-2.4-7.9c-0.2-0.6-0.2-1.2-0.5-1.7c-0.5-1-0.8-2.2-1-3.3c0.2,2.8,0.2,5.4,0.2,8.1
			c0.1,0.9-0.1,1.8,0,2.8c0.1,1.8,0.2,3.7,0.3,5.9c0,1.2-0.2,2.2-0.2,3.3c-1.8,0.2-3.7,0.5-5.5,0.5c-0.2,0-0.3,0.1-0.6,0.1
			C34.6,51,34.5,51,34.3,51c-0.6-0.2-1-0.6-1.6-0.9c-0.2-0.2-0.5-0.3-0.7-0.5c-0.2-0.3-0.6-0.6-1-0.7c0.2-2.6-0.1-5.9,0.1-8.7
			c-0.2-1.3-0.1-2.9-0.2-4.3c0-1.3,0.1-2.5,0-3.8c-0.1-2.2,0-4.1,0-6.3c0.1-1.2-0.1-2.3-0.1-3.6c0.1-2.2-0.1-4.5,0.1-7.1
			c-0.1-0.3-0.2-0.7-0.2-1l-0.1-2.6c0-0.9,0-1.7,0-2.5c0-1,0-2,0.1-3c1-0.1,2.4-0.2,3.7-0.3c0.5,0,0.9,0,1.4,0
			c0.7-0.1,1.4-0.1,2.1,0c0.9,0.2,1.8,0.3,2.9,0.5c0.5,1,0.7,2.3,1,3.2c0,0.1,0,0.1,0.1,0.1c0,0.3,0.1,0.7,0.3,0.9
			c-0.2,0.2,0.1,0.3-0.1,0.5c0.1,0.1,0.2-0.1,0.2,0.1c0.5,1.6,0.9,3.5,1.4,5.2l1.4,5.2c0.7,3,2,5.9,2.4,9.1c0.3-0.8,0.6-1.6,0.7-2.4
			c0.1-0.2,0.2-0.6,0.3-0.8c0.1-0.2,0.2-0.6,0.2-0.8c0.2-0.7,0.6-1.3,0.5-2l0.2-0.2c0-0.7,0.1-1.4,0.5-2c0.2-1.2,0.6-2.4,1-3.6
			c0.5-1.2,0.7-2.4,1-3.6c0.5-2,0.9-3.7,1.5-5.4c0.5-1.2,0.7-2.3,0.8-3.5c0.5-0.1,0.9-0.3,1.4-0.3l2.3-0.1C60,5.7,62,5.9,64,6.4
			c0.1,0.1,0.1,0.2,0.1,0.3l1.5,1.6c0,0.1,0,0.2,0.1,0.2l0,0c0.1,2.6,0.2,5.2,0.1,7.6c-0.1,2.2-0.1,4.6,0,7.1c0,1.2-0.1,2.4-0.1,3.7
			c0,0.3,0.1,0.7,0.2,1c0.1,3-0.2,6.4,0,9.9C66,39.5,66,41.3,66,43C66.2,43.2,66.2,44,66.2,44.9z M57.2,48.2
			c2.1,0.6,4.4,0.6,6.4-0.1c0.1-1.7,0.1-3.6-0.1-5.3c0.2-0.5,0.2-1,0.1-1.6c0-0.5,0-0.9,0-1.4c-0.1-0.7-0.1-1.4-0.1-2.1
			c0-0.5,0.1-1,0.1-1.5s-0.1-1-0.1-1.6v-1.5c0-1,0-2.1,0.1-3.1c0.1-1.7-0.1-3.6-0.1-5.3v-1.3c0-2.8-0.1-5.3,0.1-7.8
			c0.1-1.6,0-3.2-0.1-4.7c0-1.6,0-3.2,0.1-4.8c-1.6-0.3-3.2-0.5-4.9-0.5c-1.3,0-2.5,0.1-3.8,0.3c-0.6,2.6-1.5,5.2-2.2,7.7l-0.3,1.5
			c-0.9,3.2-1.8,6.2-2.6,9.4c-0.5,1.8-1.2,3.7-1.6,5.4c-0.1,0.2,0,0.6-0.2,0.8c-0.6-0.1-0.7-0.7-0.8-1.2c-0.2-0.8-0.3-1.6-0.5-2.3
			S46.2,25.7,46,25c-0.7-2-1.2-3.9-1.6-6c-0.2-0.3-0.3-0.7-0.3-1c-0.1-0.3-0.2-0.7-0.2-1.2c-0.2-0.8-0.5-1.5-0.7-2.2
			c-0.2-0.5-0.1-0.8-0.2-1.3c-0.2-0.5-0.2-0.7-0.3-1.2c-0.2-0.7-0.5-1.5-0.7-2.2l-0.1-0.7c-0.1-0.2-0.3-0.5-0.2-0.8
			c-0.5-0.5-0.3-1-0.5-1.5l-0.5-1.3c-0.6-0.2-1.2,0-1.8-0.2c-2.2-0.5-4.8-0.1-7.1,0.1c-0.2,3.5,0.3,6.7,0.3,9.9
			c0,1.7-0.2,3.2-0.1,4.9v2.2c0,0.8,0,1.5,0,2.4c0,2.2-0.1,4,0,6c0.2,5.8,0.2,10.9,0.2,16.6c2.1,0.5,4.3,0.5,6.4,0.1
			c0.1-0.8,0.1-1.7,0.1-2.5c0-0.2,0.1-0.6,0.1-0.7c0-0.1-0.1-0.3-0.1-0.5c0-0.5,0-1,0-1.5c0-0.1,0-0.2,0.1-0.3
			c-0.2-0.5-0.1-0.7-0.1-1.2c-0.1-0.5-0.1-1.5-0.1-2.2c0-1,0-2.1-0.1-3.1c-0.1-0.8-0.2-1.7-0.1-2.6c0-1-0.1-2.1-0.1-3.1s0-2.1,0.1-3
			c0-1,0.1-2.2,0.2-3.6c0.2-0.1,0.3-0.2,0.5-0.3c0.5,0.2,0.6,0.9,0.7,1.3l0.6,1.5c0.3,1,0.7,2.1,1,3.1c0.5,1,0.8,2.1,1,3.1
			c0.2,1.2,0.6,2.2,0.9,3.2c0.8,2.5,1.6,5.2,2.3,7.7c1.6,0.1,3.2,0.1,4.8-0.2c0.1-0.1,0.1-0.3,0.5-0.5c0.2-1,0.5-2.1,0.8-3
			c0.2-1.3,0.8-2.8,1.2-4c0.5-1.2,0.8-2.4,1.3-3.8c0.3-1.4,0.7-2.6,1.3-4c0-0.6,0.1-1.2,0.5-1.6l0.5-1.7c0.3-0.3,0.2-0.9,0.7-0.8
			c0.6,0.1,0.3,1.2,0.3,1.8s-0.1,1.4-0.1,1.8c0,1.2,0,2.3,0.1,3.6c0,0.2,0.1,0.2,0.1,0.3c-0.1,0.1-0.2,0.2-0.2,0.5
			c-0.1,1-0.1,2.1,0.1,3.1v3c-0.1,1.6,0,3.1,0,4.6C56.9,44.4,56.9,46.3,57.2,48.2z M35.5,50.3c-0.5-0.5-1.2-0.7-1.7-1.2
			c0-0.1-0.1-0.2-0.1-0.3c-0.3,0.1-0.8-0.3-1.3-0.1c0.5,0.5,0.9,0.8,1.4,1C34.4,50.1,35,50.3,35.5,50.3L35.5,50.3z M37.3,50.2
			c-0.5-0.5-0.9-0.8-1.5-1c0-0.2-0.1-0.1,0-0.2c-0.5,0.2-1,0-1.4,0.1c0.5,0.2,0.9,0.5,1.3,0.8c0.2,0.2,0.3,0.5,0.6,0.5
			C36.5,50.3,36.9,50.2,37.3,50.2L37.3,50.2z M39.8,50c-0.7-0.2-1-1.3-1.7-1.3c-0.3,0-0.7,0-1,0.1c-0.2,0-0.5,0-0.7,0.2
			c0.6,0.3,1,0.7,1.4,1.2C38.5,50.2,39.1,50.1,39.8,50L39.8,50z M39.9,31c-0.1-0.1-0.1,0.1-0.2,0.1c-0.5,0-1-1.3-1.3-1.3
			c0,0.6,0.1,1.2,0.1,1.6c0,0.2,0.1-0.1,0.2-0.1c0.2,0.3,0.5,0.8,0.8,1c0.2,0.2,0.7,0.6,0.6,1c0-0.1,0-0.1-0.1,0v0.1
			c-0.7-0.5-1-1-1.5-1.5c0,0.5,0.1,0.7,0.1,1.3l0.9,0.7c0.2,0.3,0.9,0.7,0.7,1c0,0,0,0-0.1,0c-0.5,0-0.9-1-1.4-1c0,0.6,0,1,0.1,1.6
			c0.6,0.5,1.2,0.9,1.7,1.4c0-2.4-0.2-4.8-0.2-7.5c-0.5-0.6-1-1.2-1.6-1.6L38.6,29c0.3,0.2,0.6,0.6,0.9,0.9
			C39.6,30.3,39.9,30.6,39.9,31z M40.1,28c-0.2,0,0-0.2-0.2-0.2c-0.5-1-0.7-2.2-1.2-3.2c-0.1,0.9-0.2,1.8-0.2,2.8
			c0.5,0.3,0.8,0.7,1.3,1.2c0.2,0.2,0.2,0.3,0.3,0.3C40.1,28.3,40,28.2,40.1,28z M40.6,41.6c-0.2-1.3,0.1-2.6-0.1-4
			c-0.6-0.2-1.2-0.7-1.6-1.2V38c0.6,0.5,1.2,1,1.6,1.6c-0.2,0-0.2,0.1-0.2,0.1c-0.5-0.2-0.9-0.6-1.4-1c-0.1,0.7,0.2,1.3,0,1.8
			c0.2,0.1,0.1-0.1,0.3-0.1L40.6,41.6z M40.6,41.9c-0.7,0-1.2-0.9-1.7-1.3l0.1,1.5c0.2,0,0.2,0.2,0.3,0.2c0.3,0.3,0.7,0.6,1,0.9
			c0.2,0.2,0.2,0.3,0.3,0.2C40.6,42.9,40.5,42.4,40.6,41.9L40.6,41.9z M40.7,48.5c-0.7-0.2-1.2-0.8-1.8-1.2c0,0.5-0.1,0.6-0.1,1
			c0.6,0.6,1.2,0.9,1.8,1.4C40.6,49.3,40.6,48.9,40.7,48.5L40.7,48.5z M40.7,46.3L38.9,45c0.1,0.7-0.1,1,0,1.6
			c0.6,0.3,1,0.7,1.4,1.2c0.2,0.2,0.3,0.3,0.3,0.2C40.8,47.6,40.7,47,40.7,46.3L40.7,46.3z M40.7,44c-0.7-0.2-1-0.8-1.7-1.3v1.7
			c0.7,0.5,1.2,0.9,1.8,1.3C40.6,45,40.7,44.7,40.7,44L40.7,44z M42,8.9c0,0,0.1,0,0.1-0.1C42.2,9,42,8.9,42,8.9L42,8.9z M47.9,45
			c-0.2-0.5-1.2-0.6-0.9-1.2c-0.5,0-0.6-0.1-1,0C46.6,44.4,46.9,45.1,47.9,45L47.9,45z M50.2,44.7l-0.8-0.5
			c-0.2-0.2-0.5-0.3-0.7-0.5c-0.5-0.2-1,0.2-1.4,0.1c0.3,0.5,0.8,0.8,1.3,1c-0.1,0.1-0.1,0.1,0,0.1C49.1,45,49.7,45,50.2,44.7
			L50.2,44.7z M51.8,44.4l-1.3-0.9c-0.2,0.3-0.7,0.1-0.9,0.3c0.5,0.1,0.7,0.7,1.2,0.9C51.2,44.8,51.5,44.7,51.8,44.4z M52.8,42.8
			c-0.6-0.2-1.2-0.7-1.5-1.2c-0.1,0.5-0.2,1-0.3,1.5c0.6,0.2,1,0.7,1.5,1C52.7,43.8,52.7,43.3,52.8,42.8L52.8,42.8z M53.6,40.6
			C53,40.4,52.4,40,52,39.4c-0.2,0.5-0.3,1-0.5,1.6c0.5,0.5,0.9,0.9,1.5,1.3C53.2,41.8,53.4,41.2,53.6,40.6z M54.3,38.2l0.5-1.6
			c-0.7,0-1.2-0.7-1.7-1.2c-0.5,1.2-0.8,2.3-1,3.5l1.5,1.3l0.5-1.5L53.4,38c-0.2-0.2-0.7-0.6-0.7-0.8c0-0.1,0.1-0.3,0.2-0.3l0,0
			c0.2,0,0.5,0.5,0.7,0.7L54.3,38.2z M55.3,34.9c-0.7-0.3-1.2-0.9-1.6-1.4l-0.5,1.4c0.6,0.5,1,1,1.6,1.4L55.3,34.9z M55.9,32.7
			c-0.6-0.5-1-0.9-1.5-1.4l-0.6,1.6c0.6,0.5,1,1,1.6,1.5L55.9,32.7z M56.4,30.9c-0.5-0.3-0.9-0.8-1.4-1.3v-0.1
			c-0.2,0.5-0.2,0.9-0.5,1.4c0.5,0.6,1,1,1.5,1.5C56.4,31.8,56.5,31.3,56.4,30.9L56.4,30.9z M56.4,25C56.6,25,56.4,24.8,56.4,25
			l-0.7,2.2c0.2,0.3,0.7,0.7,0.5,1.2c-0.5-0.1-0.3-0.3-0.7-0.6c-0.2,0.5-0.2,0.8-0.5,1.4c0.7,0,0.8,0.7,1.3,1L56.4,25
			C56.3,25,56.4,25,56.4,25z M59.6,50.1c0.2,0.2,0.5,0.3,0.6,0.2c-0.5-0.3-0.9-0.7-1.3-1c-0.1-0.2,0.1-0.1,0.1-0.2
			c-0.5,0.1-0.7-0.2-1.2-0.1L59.6,50.1z M61.7,50.2c-0.3-0.5-0.8-0.6-1-1c-0.3,0-0.7,0-1.2,0C60.3,49.5,60.6,50.4,61.7,50.2
			L61.7,50.2z M62.5,50.1c0.8,0,1.6-0.1,2.4-0.2c-0.5-0.2-0.7-1.2-1.3-1.2c-0.2-0.1-0.2,0.1-0.5,0.1c0.2,0.5,0.7,0.6,0.8,1
			C63.2,50,63,49.2,62.4,49c-0.2,0-0.2,0.1-0.3,0.1c-0.2,0-0.6-0.1-0.8,0.1L62.5,50.1z M64,8.7c-0.1,0.6-0.1,1.2,0,1.6
			c0.6,0.2,0.9,0.8,1.4,1.3c0-0.6,0-1.2,0-1.8l-0.3,0.1L64,8.7z M63.9,15.4C64,16,64,16.7,64,17.2c0.5,0.2,0.8,0.6,1,1l-0.1,0.2
			c-0.5,0.1-0.6-0.6-0.8-0.6c0,0.5,0,0.8-0.1,1.3c0.5,0.5,0.9,0.9,1.4,1.4c0-0.9,0.1-2.2,0-3.1c0-0.2,0-0.5,0-0.7
			c-0.2-0.2-0.5-0.5-0.7-0.7C64.4,15.9,64.2,15.7,63.9,15.4z M64,33.3l1.2,1.2c0.2,0.2,0.2,0.3,0.3,0.3c0-2,0-4.3,0.1-6.4
			c-0.6-0.5-1-0.9-1.5-1.4c0,0.6,0,1.3,0,1.8c0.6,0.5,1,1,1.4,1.6c-0.2,0-0.1,0.2-0.1,0.2c-0.1,0.1-0.5-0.2-0.7-0.5
			s-0.5-0.6-0.6-0.6c0,0.6,0,1.3-0.1,1.8l0.7,0.6c0.2,0.2,0.6,0.3,0.6,0.8c-0.1,0,0,0.1-0.1,0.1c-0.5-0.2-0.9-0.6-1.3-1
			C64,32.5,64,32.8,64,33.3z M65.5,11.9c-0.7,0-0.9-0.8-1.5-1c0,0.6,0,1,0.1,1.5c0.3,0.5,0.8,0.9,1.4,1.3
			C65.4,13.1,65.4,12.5,65.5,11.9z M64,8c0.6,0.5,1,0.9,1.4,1.5c-0.1-0.5,0-0.9-0.1-1.6c-0.2,0.1-0.1-0.1-0.2-0.1
			c-0.3-0.5-0.7-0.8-1-1.2C64.1,7.2,64,7.6,64,8z M64,23.8l1,1c0.2,0.2,0.2,0.2,0.3,0.2c0.1-0.7,0.1-1.3,0.1-2
			c-0.7,0-0.8-0.9-1.4-1.2V23.8z M64,34.1c0,0.5,0,1,0,1.5c0.5,0.5,0.9,0.8,1.5,1.3c0-0.5,0-1,0-1.5C64.7,35.1,64.4,34.4,64,34.1
			L64,34.1z M65.5,37.4c-0.5-0.3-0.8-0.9-1.4-1.2c0,0.5,0,1-0.1,1.5c0.1,0.2,0.1,0,0.2,0c0.3,0.6,0.8,1,1.4,1.5
			C65.5,38.6,65.5,38.2,65.5,37.4z M64.1,14.9c0.5,0.2,0.7,0.6,1,0.9c0,0.2,0.2,0.2,0.3,0.2c0-0.6,0.1-1.2,0.1-1.7
			c-0.5-0.2-0.9-0.6-1.4-1C64.1,13.7,64,14.3,64.1,14.9z M65.5,27.8c0-0.8-0.2-1.2-0.2-1.8L64,24.7c0,0.5,0,1,0,1.5
			C64.5,26.7,65,27.2,65.5,27.8z M65.5,39.7c-0.1-0.1-0.1-0.1-0.3-0.1L64.5,39c-0.2-0.2-0.3-0.5-0.5-0.3c0.5,0.2,0,0.6,0,0.7
			c0,0.2,0,0.6,0.1,0.8c0.6,0.5,0.9,0.9,1.5,1.4C65.5,41,65.5,40.4,65.5,39.7z M64.1,21.1c0.3,0.6,0.8,1.2,1.3,1.6v-1.5
			c-0.5-0.5-0.8-0.8-1.3-1.3V21.1z M65.6,42.1c-0.7-0.2-0.9-0.8-1.5-1.3c0.1,0.7,0.1,1.3,0,2c0.3,0.5,0.7,0.8,1.2,1
			c0.1,0.2,0.2,0.3,0.3,0.2C65.6,43.4,65.6,42.8,65.6,42.1L65.6,42.1z M65.6,44.6c-0.7-0.1-1-0.7-1.5-1c0,0.6,0,1.3,0,1.8l0.8,0.8
			c0.2,0.2,0.5,0.6,0.7,0.6C65.6,45.9,65.6,45.4,65.6,44.6L65.6,44.6z M65.6,49.6c-0.1-0.9-0.1-1.6-0.1-2.5
			c-0.7,0.2-0.8-0.6-1.3-0.8c0,0.7,0,1.3-0.1,2C64.5,48.8,65.1,49.3,65.6,49.6L65.6,49.6z"/>
		<path class="st1" d="M79.7,32.7c0,0.6-0.1,1.4,0,2.1c0,0.1-0.1,0.2,0.1,0.2c-0.1,0.1-0.1,0.2-0.1,0.3c-0.1,0.9,0,1.8,0,2.8
			c0,0.8,0.1,1.8,0.1,2.8c0.1,2,0.2,3.9,0.1,5.6c-0.1,1.4-0.3,2.9-0.2,4.5c-0.2,0.1-0.3,0.1-0.6,0.3c-0.5,0-0.9,0-1.4,0.1
			c-0.6,0.1-1.4-0.1-1.8,0.1c-0.2,0.1-0.2-0.2-0.3-0.1c-0.5,0-0.9,0.1-1.4,0.1c-0.5,0.1-0.8,0-1.3-0.2c-0.1-0.2,0.2-0.2,0.3-0.2
			c-1-0.6-2-1.3-2.9-2.1c-0.7,0-0.5-1.2-0.3-1.8c0.1-1.5-0.2-3,0-4.4c0-1.5,0-3,0-4.5c0-1.4-0.1-2.9-0.1-4.3c0-0.9-0.1-1.7-0.1-2.6
			c-0.1-2.3-0.1-4.7,0-7c0-0.5,0-0.9,0.1-1.3c0-0.5,0-0.9,0-1.4c0-2,0-4.1,0-6.1c0.1-2.5,0-5.1,0-7.6c0.1-0.8,0.2-1.6,0.2-2.4
			c0.1-0.2,0.2-0.2,0.2-0.5c1.2,0.1,2.4,0.1,3.6-0.1c0.3,0,0.7,0.1,1,0.1C75,5.1,75.1,5,75.2,5c0.7,0,1.3,0,2,0.1
			c0.2,0.2,0.6,0.5,0.8,0.7c0.5,1,1,2,1.7,2.9C79.9,8.8,79.8,8.9,80,9c-0.2,5.2,0.2,10.4,0.2,15.1c0,1.5-0.2,3-0.2,4.3
			S79.7,31.3,79.7,32.7z M76.5,48.2c0-0.5,0-0.9-0.1-1.3c0-0.7,0.1-1.4,0.1-2.1s0.1-1.4,0.1-2.1v-4c0.1-3.3-0.1-6.6-0.1-9.7
			c0-0.5,0-0.8,0-1.3c0-1.8-0.1-3.6,0-5.6c0.1-1,0-2,0-2.9c0.1-1.8,0.2-3.6,0.2-5.4c0-1.3,0.1-2.6,0.1-3.9c0.1-1.3-0.1-3,0-4.4
			c-2-0.1-4-0.1-6,0.1c-0.2,1.7,0,3.6-0.1,5.4c-0.2,5.9-0.1,13.2-0.2,18c-0.1,3,0.2,5.8,0.3,8.4c0,3.8-0.1,7.1-0.1,10.5
			C72.7,48.1,74.4,48.2,76.5,48.2L76.5,48.2z M75.1,50.9c-0.6-0.5-1.2-1-1.6-1.6c-0.1-0.1-0.2-0.5-0.5-0.5s-0.2,0-0.3,0
			c-0.6-0.1-1-0.1-1.6,0c1,0.8,2.1,1.6,3.2,2.2L75.1,50.9L75.1,50.9L75.1,50.9z M76.4,50.8c-0.5-0.6-1-1.2-1.6-1.6
			c-0.2,0-0.3-0.1-0.3-0.2c0-0.1,0.1-0.1,0.1-0.1c-0.3-0.1-0.7-0.1-1-0.1c0.3,0.5,0.7,0.8,1,1.2C75,50.4,75.5,51.1,76.4,50.8
			L76.4,50.8z M78.5,50.8c-0.7-0.5-1.3-1.2-1.7-1.8c-0.6,0-1-0.1-1.6-0.1c0.3,0.3,0.7,0.7,0.9,1s0.6,0.9,0.9,1
			C77.3,51,78,50.8,78.5,50.8L78.5,50.8z M79.4,47c-1-0.3-1.5-1.3-2.3-2c0,0.7-0.1,1.3,0,2c0.6-0.1,0.8,0.6,1.2,1s0.6,0.7,0.7,1
			c-0.9-0.2-1.2-1.4-1.8-1.7c0,0.6,0,1,0.3,1.3c-0.1,0.1,0,0.2-0.1,0.5c0.5,0.7,1,1.2,1.7,1.5c-0.1,0.1-0.1,0.2,0.1,0.2
			C79.3,49.7,79.3,48.2,79.4,47L79.4,47z M79.7,25.1c-0.1-0.1-0.2,0.1-0.2,0c-0.8-0.8-1.6-1.5-2.3-2.4c0,0.6-0.1,1.2-0.1,1.8
			c0.8,0.5,1.4,1.7,2.2,2.3c0,0.1,0.2,0.3,0.2,0.2C79.6,26.4,79.6,25.8,79.7,25.1L79.7,25.1z M77.2,27.3c0.3-0.1,0.6,0.3,0.8,0.6
			s0.6,0.7,1,1c0.1,0.2,0.3,0.5,0.5,0.3c0-0.6,0.1-1.3,0.1-1.6c-0.7-0.9-1.5-1.8-2.3-2.8h-0.1C77.2,25.7,77.1,26.5,77.2,27.3
			L77.2,27.3z M77.2,29.6c0.8,0.5,1.2,1.5,2,2.1c0,0.1,0.2,0.3,0.2,0.1c0.1-0.6,0-1.3,0.1-2c-0.8-0.7-1.6-1.5-2.2-2.4v2.2
			C77.3,29.6,77.2,29.6,77.2,29.6z M77.2,30.2c0.1,2.2,0.1,4.6,0.1,7.1c0.1,0.1,0.1-0.2,0.2-0.1c0.5,0.9,1.2,1.7,2,2.4
			c-0.2-0.9-0.1-1.6-0.2-2.4c-0.1,0.2-0.1,0-0.3,0c-0.2-0.5-1-1.2-1.4-1.6c-0.1-0.2-0.3-0.7,0.1-0.7c0.1,0,0.2,0.2,0.2,0.3
			c0.6,0.6,1,1.2,1.5,1.8v-2c-0.6-0.6-1-1-1.5-1.6c-0.2-0.3-0.7-0.7-0.3-1c0.5,0.5,0.9,1.2,1.4,1.5c0.2,0.2,0.3,0.5,0.5,0.5
			c0.1-0.7-0.1-1.2,0-1.8C78.5,31.8,77.8,30.8,77.2,30.2L77.2,30.2z M79.5,45c-0.8-0.7-1.6-1.5-2.3-2.4c0,0.6,0,1.2-0.1,2
			c0.8,0.7,1.4,1.6,2.3,2.2C79.5,46.3,79.5,45.7,79.5,45L79.5,45z M79.6,44.6c-0.1-0.7-0.1-1.3-0.1-2c-0.7-0.8-1.6-1.6-2.3-2.4
			c0.1-0.1,0.1-0.2,0.2-0.3c0.6,0.5,1,1,1.5,1.6c0.2,0.1,0.3,0.5,0.5,0.3c0-0.5,0-1,0-1.5c-0.1-0.2-0.3-0.3-0.6-0.6
			c-0.6-0.6-1.3-1.4-1.6-2c-0.1,1.7-0.1,3.2,0,4.7c0.1,0.1,0.1-0.1,0.2-0.1c0.5,0.7,0.9,1.3,1.5,1.8C79.2,44.2,79.4,44.6,79.6,44.6
			L79.6,44.6z M77.2,19c0.7,1,1.5,2,2.4,2.8c0-0.6,0-1.3,0-1.8c-0.1,0-0.2,0-0.3-0.1c-0.7-0.8-1.3-1.8-2-2.6
			C77.3,17.9,77.3,18.4,77.2,19z M79.6,22.6c-0.7-1-1.7-1.8-2.4-2.9V22c0.7,1,1.6,1.8,2.4,2.9C79.7,24,79.6,23.6,79.6,22.6z
			 M77.3,17.1c0.1-0.1,0.1-0.1,0.2-0.1c0.7,0.9,1.3,2,2.1,2.8c0-2-0.1-3.5-0.2-5.6c-0.1,0-0.2,0.1-0.3-0.1c-0.5-0.9-1.2-1.6-1.6-2.4
			v2.4c0.6,0.7,1.2,1.4,1.6,2.1c0.1,0.2,0.5,0.6,0.2,0.8c-0.7-0.7-1.2-1.6-1.8-2.3C77.6,15.7,77.3,16.2,77.3,17.1z M79.4,11.4
			c-0.1-0.1-0.1,0.2-0.2,0.1c-0.5-0.6-0.8-1.6-1.4-2.1h0.1c-0.2-0.1-0.2-0.5-0.3-0.6c0,0.7,0,1.3-0.1,2c0.2,0.3,0.5,0.7,0.7,1.2
			c0.5,0.6,0.9,1.2,1.3,1.7C79.4,12.8,79.4,12.3,79.4,11.4z M77.6,8.2c0,0.1,0.2,0,0.2,0.1c0.6,0.9,1.3,1.8,1.7,2.9
			c-0.1-0.6,0.1-1.4,0-2.1c-0.9-0.7-1.2-2.2-2-3C77.4,6.8,77.4,7.6,77.6,8.2z"/>
		<path class="st1" d="M82.4,41.7c-0.1-0.5-0.1-0.9,0-1.3c0-0.5,0-0.9,0.1-1.4c0.3-1.7,1-3.2,2.2-4.6c0.2-0.1,0.2,0.1,0.2,0
			c2.6-2.2,5.8-3.7,9.1-4.5c1-0.5,2.1-0.8,3.1-1c0.2-1.2,0.3-3-0.6-3.6c-0.2-0.1-0.5-0.2-0.8-0.3c-0.2-0.1-0.5-0.2-0.7-0.3
			c-0.8,0-1.7,0.2-2.4,0.6c-1.2,0.8-2,2.1-2,3.5c0,0.3,0.1,0.7-0.1,1c0.1,0.1,0.1,0.3,0,0.5c-1.8,0.1-3.1,0.1-5.2,0.2
			c0-0.1-0.1-0.2,0-0.3c-0.5-0.5-0.9-0.9-1.3-1.5c-0.3,0-0.3-0.1-0.6-0.1c0.2,0.3,0.5,0.6,0.7,0.8c0.3,0.3,1,0.6,0.7,1
			c-0.5-0.1-0.8-0.3-1-0.7l-1-1c-0.1-0.1-0.1-0.2,0-0.3l0,0c-0.1,0-0.3,0-0.3-0.2c0-1.4,0.1-2.6,0.2-3.8c0.1-1.3,0.7-2.5,1.6-3.6
			c0.6-0.7,1.3-1.4,2-2c0.2-0.2,0.5-0.5,0.7-0.6c0.1-0.1,0.3-0.1,0.5-0.2c0.1-0.1,0.3-0.2,0.5-0.3c0.3-0.1,0.7-0.2,1-0.3
			c1.3-0.3,2.6-0.6,3.9-0.6c1.6,0,3.3,0.3,4.8,0.8c0.6,0.2,1.2,0.5,1.6,0.7c0.6,0.2,1,0.6,1.5,1h0.3c1.5,0.8,2.9,2.1,3.9,3.5
			c0.8,1.8,1.3,3.7,1.2,5.8l0.2,4.3c0.2,2.8-0.1,5.4,0.1,8.1l0.2,2.2c0.1,2.3,0.1,5.1,0.1,7.3c-0.1,0.1-0.2,0.1-0.3,0.3
			c-0.2-0.1-0.2-0.2-0.3-0.2c-1,0.1-2,0.1-3,0.1c-0.7,0.1-1.4,0.5-2.2,0.2c-0.1-0.1,0.2-0.2,0.1-0.3c-0.5-0.7-1.3-1.2-1.7-1.7
			c0.1-0.5-0.3-0.7-0.5-1.2c-0.7,1.5-1.8,2.6-3.3,3.2c-0.3,0.1-0.6,0.2-0.8,0.3c-0.6,0.1-1.3-0.1-1.7,0.3c-0.5-0.1-1.4-0.1-2.2-0.2
			c-3.1-0.5-4.6-2.9-6.7-4.6c0-0.1,0.1-0.1,0.1-0.2l-0.6-0.8c-0.1-0.1,0-0.1-0.1-0.2c0,0-0.1,0-0.1-0.1c-0.5-0.8-0.7-1.6-0.8-2.5
			v-0.5C82.5,42,82.4,41.9,82.4,41.7z M83,42.1v0.6c0.1,0.9,0.6,1.8,1.2,2.6l0.3,0.6c0.5,0.5,1,0.9,1.6,1.3l0.9,0.6
			c1,0.6,2.1,0.9,3.1,1.2c0.5,0,0.9,0,1.4-0.1c0.7,0,1.3,0,2-0.1c1.5-0.2,2.8-0.8,4-1.6c0.2-0.2,0.5-0.3,0.6-0.5s0.3-0.7,0.3-0.7
			c0.5-0.1,0.5,0.7,0.6,1s0.3,1,0.6,1.3c1.5,0.2,2.9,0.3,4.4,0.3c-0.1-0.3-0.2-0.6,0-0.8c-0.1-1-0.1-2.1-0.1-3.1
			c0-0.6-0.2-1.3-0.2-2c0.1-1.7,0-3.7,0.1-5.4v-2.1c0-0.5,0.1-0.9,0.1-1.4l-0.1-4.1c-0.1-0.7,0-1.5-0.1-2.2c0-1.5-0.2-3-0.7-4.5
			l-0.1-0.3c-0.2-0.5-0.5-1-0.8-1.4c-0.7-0.7-1.4-1.3-2.1-1.8c0,0.1,0,0.1-0.1,0.1c-0.9-0.7-2.1-1-3.2-1.2c-0.3-0.2-0.9-0.2-1.3-0.5
			c-0.7-0.1-1.4-0.2-2.1-0.2c-0.5,0-0.9,0.1-1.4,0.2c-1,0-2.1,0.1-3,0.6c-0.8,0-1.4,0.7-2.1,0.9l-1.5,1.4L85,21.1
			c-1.6,1.5-2.1,4.1-2.2,7c2,0.1,3.9,0.3,6,0.3c-0.1-0.7,0-1.5,0.2-2.2c0.1-0.2,0.2-0.3,0.2-0.6c0.6-1.2,1.6-2.1,2.9-2.4
			c1.8-0.6,3.2,0.5,4.5,1.3l0.6,0.7c0.6,1.2,0.7,2.4,0.5,3.7c0.7,0.5-0.3,0.8-0.6,0.9c-2,0.3-3.7,1.3-5.6,1.8
			c-1.5,0.6-3,1.3-4.4,2.1c-0.7,0.6-1.5,1.2-2.2,1.7c-0.1,0.3-0.5,0.6-0.6,0.9c0,0.1-0.1,0.2-0.1,0.3c-0.1,0-0.2,0.1-0.3,0.2
			C83.3,38,83,39.2,83,40.5C83,41,83,41.6,83,42.1z M86.8,29.9c-0.3-0.3-0.9-0.7-0.8-1.3c-0.6,0.1-1-0.1-1.4,0
			c0.3,0.5,0.7,0.9,1.2,1.3C86,29.9,86.4,30.1,86.8,29.9z M90.2,29.9c-0.5-0.3-0.9-0.7-1.3-1c-0.5,0-0.8,0-1.3,0
			c0.3,0.3,0.6,0.7,0.7,1c-0.6,0.2-0.8-0.7-1.3-1c-0.2-0.1-0.6-0.1-0.8-0.1c0.3,0.2,0.6,1,1,1.2c0.6,0,1.2,0,1.6-0.2
			C89.4,29.9,89.7,29.9,90.2,29.9L90.2,29.9z M92.2,51c-0.5-0.3-0.9-1.3-1.5-1.4c-0.3-0.1-0.8,0-1.3-0.2c0.2,0.3,0.8,0.6,1,1.2
			c-0.1-0.1-0.1,0.1-0.2,0.1c-1.2-0.7-1.8-1.8-3.3-2.2c-0.1-0.2-0.3-0.2-0.6-0.2C87.8,49.5,89.5,50.9,92.2,51L92.2,51z M90.4,27.4
			c-0.5-0.3-0.6-0.8-0.9-1.2c-0.5,1-0.5,2.6,0.6,3C90.1,28.6,90.2,28,90.4,27.4L90.4,27.4z M89.4,40.6c-0.1-0.3-0.2-0.8-0.1-1.3
			c0.1-0.6,0.2-1.2,0.6-1.6v-0.3c1.8-2,4.6-2.4,7.5-3.2c0.1,0.1,0.1,0.5,0.2,0.6c-0.2,2,0.5,4.4-0.3,6c-0.6,1.3-2,1.6-3.2,2.3
			c-1.3,0.1-2.5-0.2-3.6-0.9c-0.1-0.1-0.1-0.2-0.2-0.2s-0.2-0.2-0.3-0.2C89.6,41.5,89.5,41,89.4,40.6L89.4,40.6z M91.5,25.6
			c-0.2-0.3-0.5-0.7-0.8-1c-0.3,0.3-0.6,0.7-0.9,1.2c0.2,0.5,0.5,0.8,0.8,1.2C90.8,26.4,91,25.9,91.5,25.6L91.5,25.6z M89.7,39.6
			c0,1.3,0.8,2.3,2,2.5c-0.1-0.3-0.3-0.7-0.2-1.2C90.7,40.9,90.3,40.1,89.7,39.6z M89.9,39c0.3,0.5,0.8,1,1.3,1.4
			c0.1,0.1,0.2,0.3,0.5,0.3c0.1-0.5,0.2-1,0.3-1.5c-0.6-0.5-1-1-1.5-1.5C90.2,38.2,90,38.5,89.9,39L89.9,39z M90.8,37.3
			c0.3,0.6,0.9,1.2,1.5,1.5c0.1-0.2,0.3-0.5,0.5-0.7c-0.3-0.5-0.7-0.9-1.2-1.2C91.2,37.1,91,37.2,90.8,37.3L90.8,37.3z M92.5,24.9
			c-0.3-0.2-0.3-0.8-0.7-1c-0.2,0.2-0.7,0.2-0.9,0.5c0.2,0.3,0.6,0.7,0.7,1L92.5,24.9z M94.1,50.8c-0.3-0.5-0.8-0.8-1.3-1.2
			c0-0.1,0.1-0.2,0.1-0.2c-0.5,0-0.8,0.1-1.4,0.1c0.5,0.5,0.9,1,1.4,1.4C93.3,50.9,93.7,50.8,94.1,50.8L94.1,50.8z M94.7,36.2
			c-0.3,0.3-0.6,0.6-0.8,0.9c-0.9,0.9-1.6,2.2-1.8,3.6c-0.1,0.7,0.1,1.7,0.6,1.8c0.6,0.1,1.2,0,1.6-0.1c0.3-0.1,0.7-0.3,1-0.6
			c0.6-0.2,1-0.6,1.4-1c0.7-1.6,0.2-4.1,0.3-5.8h-0.1C96.1,35.2,95.4,35.7,94.7,36.2L94.7,36.2z M92.1,36.7c0.2,0.3,0.5,0.7,0.8,1
			c0.2-0.5,0.7-0.8,0.8-1.3c-0.2-0.1-0.6-0.2-0.8-0.3C92.6,36.4,92.2,36.5,92.1,36.7L92.1,36.7z M93.7,24.5c-0.1-0.3-0.6-0.6-0.5-1
			c-0.3,0-0.6,0.1-0.9,0.2l0.6,1C93.2,24.5,93.4,24.5,93.7,24.5z M95.8,50.2L94.4,49c-0.5,0-0.8,0.1-1.3,0.3c0.6,0.5,1,0.8,1.5,1.4
			L95.8,50.2z M96.1,24.7c-0.7-0.5-1.5-0.8-2.3-1c0.1,0.3,0.3,0.5,0.5,0.7C94.8,24.1,95.5,24.5,96.1,24.7z M93.8,35.9
			c0.1,0.1,0.2,0.3,0.3,0.2c0.2-0.3,0.6-0.5,0.8-0.7C94.6,35.6,94.1,35.7,93.8,35.9z M98.5,46.6c-0.2,0.5-1,0.9-1.4,1.2L97,48
			c-0.1,0.1-0.2,0-0.3,0.1c-0.6,0.3-1,0.6-1.6,0.7c0.3,0.5,0.9,0.9,1.3,1.3c0.3-0.2,0.7-0.5,0.9-0.7c-0.3-0.3-0.7-0.6-1.2-0.8
			c0.3-0.6,1,0.2,1.4,0.5C97.9,48.4,98.8,47.6,98.5,46.6z M102.2,50.3c-0.3-0.6-0.7-1-1.2-1.5c-0.2-0.1-0.6-0.1-0.9-0.1
			C100.7,49.5,101.4,50,102.2,50.3z M105.7,50.1c-0.5-0.3-1-0.7-1.5-1.2c-0.3,0.1-0.6-0.1-1,0.1c0.2,0.3,0.5,0.6,0.7,0.9
			c-0.6,0.1-0.8-0.7-1.3-1c-0.3,0-0.7,0-1,0c0.3,0.5,0.7,0.9,0.9,1.4C103.7,50.1,104.6,50.3,105.7,50.1L105.7,50.1z M102.8,21
			c0.5,0.7,0.8,1.5,0.9,2.3c0.8,0.3,1.2,1.3,1.7,1.8C105.1,23.5,104.1,22,102.8,21z M105.5,26c-0.7-0.6-1-1.5-1.7-2.1
			c0.1,0.6,0.1,1.2,0.2,1.6c0.1,0,0.2,0,0.3,0.1c0.5,0.7,0.9,1.4,1.4,2.2c-0.7-0.1-1-1.2-1.5-1.6c0,0.5,0.1,0.6,0.1,1.2
			c0.2,0.3,0.6,0.7,0.9,1.2c0.2,0.5,0.6,0.8,0.7,1.3c-0.2,0.1-0.2,0-0.3,0c-0.3-0.6-0.8-1.2-1.3-1.6c0,0.3,0,0.7,0,1
			c0.7,0.6,1.2,1.6,1.8,2.2C106,29.5,105.9,27.8,105.5,26z M106.2,41.1c0-0.8,0-1.5-0.1-2.3c-0.6-0.8-1.3-1.5-1.8-2.3
			c-0.1,0.8,0.1,1.4-0.1,2.2c0.2,0,0.2,0.1,0.3,0.1C105.1,39.6,105.5,40.4,106.2,41.1z M106.2,41.7c-0.8-0.7-1.3-1.7-2.1-2.4
			c0.1,0.6,0.1,1.4,0.1,2.1c0.1,0.1,0.2,0.1,0.2,0.1c0.6,0.7,1.3,1.5,1.8,2.2C106.3,42.8,106.2,42.4,106.2,41.7z M106.1,33.2
			c0-0.5-0.1-1-0.1-1.5c-0.7-0.5-1.2-1.3-1.7-2c0,0.5,0.1,0.7,0.1,1.2C104.9,31.4,105.4,32.5,106.1,33.2z M106.3,44
			c-0.7-0.3-1.3-1.5-2-2.1c-0.1,0.6-0.1,1.2,0,1.8c0,0.1,0.1,0,0.2,0l1.8,2.4C106.3,45.6,106.4,44.6,106.3,44z M106.1,36.2
			c-0.1-0.2-0.2-0.5-0.5-0.7c-0.3-0.5-0.9-0.9-1.3-1.4c0.1,0.8-0.1,1.5,0,2.2l0.2-0.1c0.5,0.7,0.9,1.4,1.5,2
			C106,37.3,106.2,36.6,106.1,36.2L106.1,36.2z M106.1,35.5c0-0.6,0-1.2,0-1.7c-0.6-0.7-1.2-1.6-1.7-2.2v2
			C104.9,34.1,105.5,34.8,106.1,35.5L106.1,35.5z M106.3,46.3c-0.8-0.5-1.3-1.5-2-2.1c0,0.6,0,1,0,1.6c0.1,0,0.1-0.2,0.3-0.1
			c0.7,0.7,1.2,1.6,1.7,2.3C106.4,47.6,106.4,46.9,106.3,46.3z M106.4,50.1c-0.1-0.7,0-0.8-0.1-1.6c-0.8-0.7-1.2-1.7-2-2.4
			c-0.1,1,0.2,1.7,0.1,2.5C105.2,49,105.7,49.5,106.4,50.1L106.4,50.1z"/>
		<path class="st1" d="M133.7,51.2c-0.7,0-1.5-0.1-2.3-0.1s-1.6,0-2.4,0.1c-1-0.8-2-1.7-2.8-2.8c-0.5,0.3-0.9,0.8-1.5,1.2
			c-0.3,0.2-0.6,0.2-0.9,0.5c-0.3,0.2-0.5,0.3-0.8,0.6c-1,0.5-2.3,0.7-3.5,0.6c-1.4,0-2.8-0.2-4-0.6c-0.7-0.2-1.3-0.7-1.7-1.2
			c-0.6-0.6-1-1-1.5-1.6c-0.6-0.6-0.9-1.3-1.4-1.8c0-0.1-0.1-0.2-0.1-0.3c-0.5-0.5-0.8-1.2-0.9-1.8c-0.5-1.7-0.6-3.6-0.7-5.3
			c-0.1-1.5-0.1-3-0.1-4.4c0-1.6-0.2-3.1-0.1-4.7c0.1-1.2,0.2-2.2,0.5-3.3c0.1-0.8,0.3-1.6,0.7-2.4c0.2-0.3,0.2-0.6,0.6-0.9
			c0.3-0.8,0.8-1.5,1.4-2.2c0.5-0.7,1.2-1.3,2-1.6c0.5-0.5,1-0.8,1.6-1c0.6-0.3,1.2-0.6,1.8-0.7c2.4-0.3,4.7,0.9,6.3,1.8
			c0.1-0.8-0.1-2,0-3s0-2,0-2.9c0-0.6,0.1-1.2,0.1-1.7c0.1-2.1-0.2-4,0.1-5.8c2.2-0.6,4.5-0.1,7.3-0.1c0.5,0.9,1,1.7,1.6,2.5
			c0.2,0.2,0.3,0.6,0.6,0.8c0,2,0.1,3.8-0.1,5.8c0.1,2.9,0.1,5.6,0.2,8.6c0,0.9,0,1.8,0.1,2.8c0.2,2.4,0.2,4.7,0.3,7.1
			c0.1,1.4,0.2,2.9,0.1,4.1c0,0.3-0.1,0.7-0.1,1.2c-0.1,1.6,0.1,3,0,4.5c-0.1,0.9-0.2,1.6-0.2,2.6c0,0.7,0.1,1.4,0.1,2.2
			c0,0.3-0.1,0.7-0.1,1c0.1,0.8,0.5,1.5,0.5,2.3C134.2,51.2,133.9,51,133.7,51.2z M126.5,47.9c1.4,0.5,2.9,0.6,4.4,0.3v-3.7
			c-0.1-1.4-0.1-2.8,0-4.1c-0.1-1.2-0.1-2.3-0.1-3.3c0.1-1-0.1-2.2-0.1-3.2c0-0.3,0.1-0.6,0.1-0.9c0-1.4-0.1-2.9-0.1-4.4
			c-0.1-1.5-0.1-2.8-0.1-4c-0.1-0.7-0.1-1.4-0.1-2.1s0.1-1.4,0.1-2.1c-0.1-2.4-0.2-5.2-0.1-7.7c0.1-0.7,0.1-1.4,0.1-2
			s0.2-1.2-0.1-1.5c0.1-0.5,0-1-0.1-1.5c0.1-0.5,0.1-1,0.2-1.5c-0.2-0.1-0.2,0.2-0.5,0.1c-0.1-0.1,0.1-0.2-0.1-0.2
			c-1.7-0.2-3.6-0.2-5.4,0c-0.1,2.8,0,5.3-0.1,8.1c-0.1,2,0,3.8-0.1,5.5c-0.5,0.2-0.6-0.1-0.9-0.3c-0.2,0-0.5-0.1-0.6-0.2
			c-0.1-0.1-0.2-0.2-0.5-0.3c-0.2-0.1-0.5-0.2-0.7-0.3c-1.3-0.6-2.6-0.9-4-0.8c-0.6,0-1.2,0.2-1.6,0.5c-0.1,0.1-0.3,0.2-0.5,0.2
			c-2.2,1-3.9,2.9-4.7,5.1c-0.1,0.1-0.2-0.1-0.2,0.1c-0.3,0.6-0.6,1.3-0.6,2c-0.5,2-0.6,4-0.5,6c0.1,2.2-0.1,4.4,0.1,6.6
			c0.2,1.6,0.2,3.2,0.5,4.7c0.1,0.5,0.2,0.9,0.3,1.4c0.2,0.7,0.9,1.2,1.3,1.8c0.5,0.2,0.8,0.6,1.4,0.9c1.3,0.7,2.6,1.2,4,1.4
			s2.8,0.2,4.1,0c0.5-0.1,0.8-0.2,1.3-0.3c0.2-0.2,0.5-0.2,0.6-0.5c0.1-0.1,0.2-0.1,0.3-0.1c0.7-0.7,1.5-1.3,2-2.2
			c0.3,0.1,0.2,0.3,0.3,0.6c0.1,0.2,0.2,0.2,0.2,0.3v0.5C126.3,47.1,126.5,47.6,126.5,47.9L126.5,47.9z M116.4,50.3
			c-0.6-0.7-1.4-1.2-1.8-1.8c-0.8-0.3-1.5-0.8-2.2-1.2C113.7,48.5,114.6,49.9,116.4,50.3L116.4,50.3z M118.4,50.7
			c-0.5-0.5-0.9-0.9-1.4-1.3c0-0.1,0-0.2,0.1-0.3c-0.5-0.1-0.9-0.2-1.4-0.5c0.3,0.6,1.2,0.9,1.5,1.5c0.1,0.1-0.2,0.1-0.1,0.2
			C117.5,50.4,117.9,50.5,118.4,50.7L118.4,50.7z M124.9,35.7v2.4c0,0.6-0.1,1-0.2,1.5c-0.3,0.7-0.7,1.3-1.2,1.8
			c-0.3,0.7-1,1.2-1.7,1.4c-1.5,0.2-3,0-4.4-0.7c-0.3-0.5-0.6-0.9-0.9-1.5c-0.1-0.3-0.1-0.8-0.2-1.2c-0.5-3-0.6-5.9-0.5-8.9
			c-0.1-0.6-0.1-1.3-0.1-2c0.1-0.8,0.3-1.6,0.8-2.3c0.3-0.9,0.9-1.7,1.6-2.3c0.3-0.1,0.8-0.2,1.3-0.3c1.6,0,3.1,0.7,4.1,1.8
			c1,2,1,4.8,1.2,7.7C124.9,34.1,124.7,34.9,124.9,35.7L124.9,35.7z M116.3,29c0,0.5,0,0.9,0.1,1.4c0.7,0.3,1,1.2,1.8,1.5
			c0.1-1,0.2-2.1,0.5-3.1c-0.6-0.6-1.2-1.3-1.8-1.8c-0.2,0.5-0.3,0.9-0.5,1.4c0.6,0.6,1.6,1.2,1.7,2c-0.2,0-0.2,0.1-0.3,0.1
			c-0.2-0.3-0.6-0.7-0.9-0.9C116.8,29.3,116.6,28.9,116.3,29L116.3,29z M116.4,31c0,0.6,0,1.2,0,1.8c0.6,0.3,1.2,0.8,1.7,1.3
			c0-0.6,0-1,0.1-1.6C117.6,32,117,31.6,116.4,31z M116.6,35c0.6,0.3,1,0.9,1.6,1.3c0-0.6-0.1-1-0.1-1.6c-0.6-0.3-1.2-0.9-1.7-1.3
			C116.6,33.7,116.4,34.4,116.6,35L116.6,35z M116.9,37.1c0.5,0.5,0.9,0.9,1.5,1.4c-0.1-0.6-0.1-1-0.2-1.6c0,0.1-0.1,0.1-0.2,0.1
			c-0.3-0.5-0.8-0.9-1.4-1.3c0,0.5,0,1,0.1,1.5C116.7,37,116.8,37.1,116.9,37.1z M116.9,39.3c0.8,0.2,1.2,0.9,1.8,1.3
			c-0.1-0.7-0.2-1.2-0.3-1.8c-0.7,0.1-1.2-0.7-1.7-1.2C116.8,38.2,116.8,38.8,116.9,39.3z M119.3,42.4c-0.2-0.5-0.3-0.8-0.3-1.3
			c-0.7-0.3-1.3-0.8-1.8-1.4C117.3,41.1,117.8,42.4,119.3,42.4z M117.3,26.5c0.6,0.6,1.2,1.2,1.7,1.8c0.1-0.3,0.1-0.7,0.2-1.2
			c-0.5-0.6-1-1-1.5-1.5C117.4,25.8,117.3,26.1,117.3,26.5L117.3,26.5z M120.9,50.7c-0.5-0.6-1-1-1.5-1.5c-0.7,0-1.3,0-2-0.1
			c0.6,0.6,1.2,1,1.8,1.5C119.8,50.8,120.4,50.8,120.9,50.7z M117.8,25.2c0.5,0.6,1,1,1.5,1.5c0.1-0.5,0.3-0.7,0.5-1
			c-0.3-0.5-0.7-0.8-1-1.3C118.4,24.5,118.1,24.9,117.8,25.2z M124.3,34.1c0-0.6-0.1-1.3-0.2-1.8c0-0.5,0-1-0.1-1.5
			c-0.1-1.5-0.3-3.9-1-4.8c-0.3-0.6-1.2-0.9-1.8-0.7c-0.2,0.1-0.5,0.2-0.7,0.5c0,0.1,0.2,0.3,0,0.5c-0.2,0.1-0.2-0.2-0.2,0.1
			c-0.2,0.3-0.7,0.8-0.5,1.3c-0.1,0-0.2,0.1-0.2,0.2c-0.7,2.3-1,4.8-0.9,7.3s0.5,5.1,1.3,7.5c0,0.1-0.1,0.1-0.1,0.2
			c0.7,0,1.3,0,2-0.1c0.2-0.1,0.5-0.2,0.6-0.5c0.1-0.1,0.3-0.1,0.3-0.2c0.2-0.2,0.3-0.5,0.5-0.7c0.3-0.5,0.6-0.9,0.8-1.4
			c0.5-1,0.3-2.5,0.3-4C124.2,35.2,124.2,34.7,124.3,34.1z M119.4,24.3c0.2,0.3,0.6,0.7,0.8,1c0.2-0.3,0.7-0.6,1-0.7
			c-0.2-0.1-0.8-0.3-0.8-0.1C120.2,24.3,119.8,24.3,119.4,24.3L119.4,24.3z M124.6,49.3c-0.3-0.3-0.7-0.6-1-0.9
			c-0.3,0.2-0.7,0.5-1,0.5c0.2,0.3,0.7,0.5,0.7,1c-0.2-0.1-0.1,0.1-0.3,0.1c-0.3-0.3-0.6-0.6-0.9-0.9c-0.6,0.1-1,0.2-1.6,0.2
			c0.3,0.5,0.9,0.7,1.3,1.4C122.7,50.4,123.7,50,124.6,49.3L124.6,49.3z M126,47.4c-0.1-0.3-0.2-0.7-0.3-1c0,0.3-0.5,0.5-0.5,0.7
			c0,0.1,0.3,0.2,0.3,0.5c0.1,0.2,0.2,0.3,0.2,0.6c-0.1,0.1-0.1,0.1-0.3,0.1c-0.2-0.2-0.3-0.6-0.7-0.8c-0.2,0.2-0.5,0.5-0.7,0.7
			c0.2,0.3,0.6,0.7,1,0.9c0.2-0.3,0.9-0.5,1-0.9C126.1,47.9,126,47.6,126,47.4L126,47.4z M129.9,50.7c-0.6-0.6-1.2-1.2-1.7-1.7
			c-0.3,0-0.8-0.2-1-0.2c0.6,0.8,1.3,1.4,2.2,2C129.5,50.7,129.7,50.7,129.9,50.7z M133.3,50.7c-0.7-0.5-1.4-1-2-1.6
			c-0.5,0-0.9,0-1.4,0c0.3,0.5,1,0.9,1,1.5c-0.3,0-0.6-0.3-0.7-0.6c-0.3-0.2-0.7-0.6-0.8-0.9c-0.1,0-0.3,0-0.3-0.1
			c0.3,0.7,1.2,1,1.5,1.7C131.4,50.7,132.4,50.7,133.3,50.7z M131.2,15.4c0.8,0.5,1.2,1.3,2,1.7v-1.2c-0.6-0.7-1.3-1.3-2-1.8
			C131.1,14.6,131.1,15.1,131.2,15.4L131.2,15.4z M131.2,8c0.2,0.1,0.5,0.3,0.6,0.6c0.5,0.6,0.9,1.3,1.3,2c-0.1,0-0.1,0.1-0.2,0.1
			c-0.5-0.3-0.8-0.8-1.2-1.4c-0.1-0.2-0.2-0.3-0.3-0.5c0.1,0.7,0.1,1.5,0,2.2c0.1,0.1,0.2,0,0.2,0.1c0.6,0.5,1,1,1.4,1.7
			c-0.5,0.5-1.3-1.2-1.6-1.3c0,0.7,0,1.3-0.1,2c0.6,0.7,1.3,1.3,2,1.8c-0.1-1.6,0.1-4.1,0-6.2c-0.1,0-0.2,0.1-0.2,0
			c-0.5-0.9-1-1.8-1.7-2.6C131.2,6.9,131.2,7.5,131.2,8L131.2,8z M133.1,17.9c-0.7-0.6-1.4-1.2-2-1.8v1.4c0.5,0.5,1,0.9,1.5,1.3
			c0.1,0.1,0.2,0.3,0.3,0.3C133,18.7,133,18.2,133.1,17.9L133.1,17.9z M131.3,19.9c0-0.1,0-0.1,0.1-0.1c0.5,0,0.7,0.6,1,0.9
			c0.3,0.3,0.6,0.5,0.7,0.7v-1.8h-0.5c-0.3-0.6-1-0.9-1.5-1.5C131.2,18.7,131.2,19.4,131.3,19.9L131.3,19.9z M131.2,22.2
			c0,0.6,0,1,0.1,1.6c0.7,0.6,1.2,1.4,1.8,2c0-0.5,0-0.9,0-1.4C132.4,23.6,131.9,22.9,131.2,22.2L131.2,22.2z M131.3,21.8
			c0.7,0.5,1.2,1.3,1.8,1.7c0-0.5-0.1-1.2-0.1-1.6c-0.7-0.6-1.3-1.2-1.8-1.8C131.2,20.7,131.3,21.3,131.3,21.8L131.3,21.8z
			 M133.3,26.5c-0.7-0.6-1.4-1.3-2-2c0,0.9,0,1.5,0.1,2.3c0.5,0.2,0.9,0.6,1.3,1c0.1,0.1,0.3,0.2,0.5,0.3c0.1,0.1,0.2,0.3,0.3,0.3
			C133.4,27.8,133.4,27.1,133.3,26.5z M133.4,29c-0.1,0-0.2,0.1-0.3,0.1c-0.3-0.7-1.2-1.2-1.8-1.8c0.1,0.6,0.1,1.2,0.1,1.7
			c0.3,0.2,0.6,0.6,1,0.9c0.3,0.2,0.7,0.5,1,0.7C133.5,30.1,133.4,29.6,133.4,29L133.4,29z M133.5,33.5c-0.1,0-0.2,0.1-0.2,0.1
			c-0.5-0.7-1.2-1.3-1.8-1.6c-0.1,0.5,0.1,0.8,0,1.2c0.3,0.3,0.6,0.7,0.9,1c0.3,0.3,0.9,0.7,1.2,1.3c-0.1,0.1-0.3,0.1-0.5,0
			l-0.2-0.1c-0.6-0.5-1-0.9-1.5-1.5c-0.1,0.7-0.1,1.4,0,2.1c0.3,0.3,0.7,0.7,1,0.9c0.3,0.3,1.5,1,0.6,1.3c-0.5-0.6-1-1-1.6-1.4
			c0,0.6,0,1.2,0.1,1.6h0.2c0.6,0.7,1.3,1,1.7,1.7c-0.1,0.1-0.2,0.2-0.5,0.2c-0.5-0.6-1-1-1.5-1.5c0,0.5,0,1,0,1.5
			c0.1,0,0.2-0.1,0.3-0.1c0.5,0.7,1.2,1.4,1.8,2c0-1,0-2.1-0.1-3.1c0-0.5,0.1-0.8,0.1-1.4C133.7,36.2,133.6,34.9,133.5,33.5
			L133.5,33.5z M132.9,30.8c-0.5-0.3-1-0.7-1.5-1c0,0.6,0.1,1,0.1,1.6c0.6,0.6,1.4,1.2,2,1.6C133.6,32,133.6,31.3,132.9,30.8
			L132.9,30.8z M131.4,42.7c0.2-0.1,0.2,0.1,0.3,0.1c0.5,0.6,1.2,1,1.6,1.6c0.1-0.6,0.1-1.2,0.2-2c0,0-0.2,0.1-0.3,0
			c-0.5-0.8-1.3-1.3-1.8-2V42.7L131.4,42.7z M133.4,45c-0.2,0.1-0.2,0-0.3,0.1c0.1-0.1-0.1-0.2-0.1-0.2c-0.3-0.3-0.7-0.8-1.2-1.2
			c-0.1-0.1-0.2-0.3-0.3-0.2v1.3c0.1,0,0.1,0.1,0.2,0.1c0.2,0.2,0.5,0.5,0.8,0.7c0.1,0.1,1,1.2,0.3,1.2c-0.2,0-0.1-0.2-0.2-0.3
			c-0.1-0.1-0.2-0.1-0.3-0.2c-0.3-0.3-0.6-0.7-0.9-0.8c0,0.5,0,0.9,0.1,1.4c0,0.1,0.1-0.1,0.2,0c0.6,0.6,1.3,1,1.6,1.8
			c-0.9,0-1.2-0.8-1.8-1.3c-0.1,0.6,0.2,1,0.1,1.4c0.6,0.7,1.4,1.4,2.2,1.8C133.3,49.2,133.5,46.6,133.4,45z"/>
		<path class="st1" d="M137.2,38.6c0-2.2-0.1-4,0-6.1c0.1-2.3,0.2-5.4,0.3-8.2c0.2-2.4-0.1-4.4,0.2-6.6c2.1-0.3,4.3-0.3,6.4,0
			c0.1,0,0.2,0.1,0.2,0.2c0.2-0.1,0.2,0,0.5,0c0.8,1.2,1.5,2.2,2.3,3.2c0.3,0.3,0.5,0.7,0.6,1.2c0.1,0.2-0.2,0.1-0.3,0.1
			c0,0.5,0,1,0.2,1.5c-0.1,0.8-0.1,1.7,0,2.5c0,0.6,0,1.3,0.1,1.8c0.1,0.3,0.5,0.6,0.1,0.9c0.1,3.1,0.1,7.1,0.1,10.4
			c-0.1,0.7,0,1.5,0.1,2.2c0,0.2-0.2,0.2-0.2,0.3c-0.1,2.8-0.2,5.4-0.5,8.1c-0.2,0.2-0.1,0.3-0.2,0.6c-0.2,0.1-0.3-0.1-0.6,0.1
			c-0.9-0.1-1.8-0.1-2.8,0c-1.2,0.1-2.3,0.1-3.3,0c-0.9-0.6-1.7-1.3-2.4-2c-0.2,0-0.3-0.1-0.5-0.2c-0.2-1-0.2-2.2,0-3.2
			c0.1-1-0.1-2-0.1-2.9C137.3,41.3,137.2,40,137.2,38.6z M137.4,12.6c0-2.3,0.1-4.3,0.1-6.7c0.2-0.1,0.2,0,0.2-0.2
			c1.4-0.1,2.9-0.2,4.3-0.1c0.8,0,1.8,0.2,2.8,0.2v0.3c0.8,0.6,1.3,1.6,2.3,2.1c0.1,1.3,0.1,2.4,0,3.7c-0.1,0.3-0.1,0.6-0.1,0.9
			c0,0.7,0.2,1.7-0.3,2c-1.2-0.1-2.2-0.1-3.3,0.1c-0.8,0.1-1.7-0.2-2.4-0.1c-0.1-0.1-0.3,0-0.5-0.2c-0.1,0.1-0.1-0.1-0.2-0.2
			c-0.8-0.3-1.6-0.8-2.3-1.3c0-0.1-0.1-0.1-0.1-0.2C137.6,12.7,137.5,12.7,137.4,12.6z M137.9,36.6c-0.1,2.1,0,3.9,0.1,6
			c0.1,1.8,0.1,3.6,0,5.6c2.1,0.2,4.3,0.2,6.3,0c0.1-2.1,0.1-4.1-0.1-6.3c0-1.2-0.1-2.3-0.1-3.6c0-0.8,0.1-1.5,0.1-2.4
			c0.1-1.6,0.1-2.8,0.1-4v-2.4c0-0.1-0.1-0.2-0.1-0.3c0-0.3,0.1-0.6,0.1-0.8c0.1-0.6,0-1.3,0-2c0.1-2.4-0.2-5.6-0.2-7.9
			c-1.8-0.5-3.9-0.5-5.8-0.1c-0.1,2.2-0.1,4.5-0.2,6.3c-0.1,0.9-0.1,1.8-0.1,2.8c-0.1,2.1-0.2,4-0.2,6.2L137.9,36.6z M138.1,12
			c2-0.1,4.1,0.3,6.2,0.2c0.1-1.2,0.1-2.4,0-3.6c0,0,0.1,0,0.1,0.1c-0.1-0.5,0-1.3-0.2-2.3c-2-0.2-3.9-0.3-5.9-0.1
			C138.1,8.3,138.1,10,138.1,12z M142,14.3c-0.6-0.5-1.2-1-1.6-1.5c-0.7-0.1-1.4-0.1-2.1,0C139.5,13.6,140.7,14.1,142,14.3z
			 M141.8,50.5c-0.6-0.5-1-0.9-1.5-1.5c-0.6,0-1-0.1-1.6-0.1c0.7,0.6,1.4,1.2,2.2,1.7C141.1,50.4,141.7,50.7,141.8,50.5z
			 M143.5,48.9c-0.2,0-0.5,0-0.7,0.1c0.2,0.2,0.5,0.3,0.6,0.6c0.1,0.2,0.5,0.5,0.5,0.7c0.1,0.2-0.2,0.1-0.2,0
			c-0.6-0.3-1.2-0.8-1.5-1.3c-0.5,0-0.7,0.1-1.2,0.1c0.1,0.2,0.3,0.5,0.7,0.7c0.3,0.2,0.6,0.7,0.8,0.8c0.3,0,0.8,0,1.2-0.1h2.6
			c-0.2-0.3-0.5-0.6-0.8-0.8c-0.2-0.3-0.5-0.8-0.8-0.9C144.2,48.6,143.8,48.9,143.5,48.9z M144.5,12.9c-0.5-0.1-1-0.1-1.5,0
			c0.5,0.3,0.8,0.7,1,1.2c0,0-0.1,0-0.1,0.1c-0.7-0.2-1-0.9-1.7-1.3c-0.1-0.1,0.1-0.1-0.1-0.2c-0.2,0.1-0.7-0.1-0.9,0.1
			c0.5,0.3,0.7,0.6,1,1c0.3,0.5,0.5,0.6,1,0.6c0.7-0.1,1.8-0.2,2.8-0.2C145.5,13.7,145,13.4,144.5,12.9L144.5,12.9z M144.8,12.5
			c0.3,0.6,1.2,0.9,1.6,1.4c0-0.2,0.1-0.3,0.1-0.6c-0.6-0.5-1-1-1.5-1.6C144.9,11.9,144.9,12.1,144.8,12.5L144.8,12.5z M144.8,7.5
			c0,0.1,0.2,0.1,0.2,0.1c0.6,0.6,1.2,1.3,1.6,2c0-0.3,0-0.7-0.1-1c-0.7-0.3-1.2-1.2-1.8-1.5C144.9,7.2,144.8,7.3,144.8,7.5
			L144.8,7.5z M144.8,18.9c0.1,0.5,0.1,0.8,0,1.3c0.7,0.9,1.3,2.1,2.1,2.9c-0.1-0.5,0-0.9-0.1-1.3c-0.1-0.2-0.3-0.5-0.5-0.7
			C145.8,20.3,145.3,19.6,144.8,18.9L144.8,18.9z M144.8,37.9c0.8,1,1.7,2.1,2.5,3c0.1-0.6,0-1.6,0-2.1c-0.9-0.7-1.8-1.6-2.5-2.5
			C144.9,36.9,144.8,37.3,144.8,37.9L144.8,37.9z M144.8,38.6c0,0.3,0,1.2,0,1.6c0.9,0.9,1.6,2,2.4,2.9c-0.1-0.6,0.2-1.2,0.1-1.5
			c-0.1-0.2-0.5-0.5-0.6-0.7C146,40.2,145.2,39.2,144.8,38.6L144.8,38.6z M146.6,9.6c0,0.1-0.1,0.1-0.1,0.1c-0.6-0.6-1-1.2-1.6-1.6
			c0,0.5,0,0.8,0.1,1.3c0.6,0.6,1,1,1.7,1.5C146.6,10.4,146.6,10,146.6,9.6L146.6,9.6z M147.3,43.6c-0.8-0.9-1.5-1.8-2.4-2.6
			c0,0.6,0,1.3,0.1,2c0.1,0.1,0.2,0.2,0.3,0.2c0.6,0.8,1.3,1.6,2,2.4C147.1,44.8,147.3,44.3,147.3,43.6L147.3,43.6z M146.5,11.4
			c-0.6-0.5-1-0.9-1.5-1.4c0,0.2-0.1,0.5-0.1,0.7c0.5,0.6,1,1.2,1.5,1.7C146.4,12.2,146.6,11.9,146.5,11.4L146.5,11.4z M147.1,23.7
			c-0.7-0.9-1.4-1.8-2.1-2.9c0.1,0.9,0.1,2,0.2,2.8c-0.1-0.2,0.1-0.2,0.1-0.3c0.6,0.8,1.2,1.6,1.8,2.4
			C147.2,25.1,147.1,24.4,147.1,23.7L147.1,23.7z M147.4,36.2c-0.1-0.1-0.5-0.3-0.7-0.6c-0.6-0.7-1.3-1.5-1.8-2.1
			c-0.1,0.9-0.1,1.2-0.1,2.1c0.7,1,1.6,2,2.5,2.9c0-0.5-0.1-0.8-0.1-1.3C147.4,36.9,147.4,36.6,147.4,36.2L147.4,36.2z M147.1,46.1
			c-0.7-0.8-1.5-1.6-2.2-2.5c0,0.7,0,1.3,0.1,2c0-0.1,0.1-0.1,0.2-0.1c0.6,0.8,1.2,1.6,1.8,2.3C146.9,47,147.1,46.7,147.1,46.1
			L147.1,46.1z M146.9,48.1c-0.7-0.8-1.4-1.6-2.1-2.5c0.1,0.7,0.1,1.7,0.1,2.5c0.6,0.7,1.2,1.3,1.8,1.8c0-0.6,0.2-1.2,0.2-1.7V48.1z
			 M147.3,31.1c-0.8-0.8-1.6-1.7-2.3-2.6c-0.1,0.6,0,1.6-0.1,2.2c0.6,0.8,1.4,1.7,2.1,2.4c0.1,0.1,0.2,0.2,0.3,0.2
			c-0.1-0.7-0.1-1.4-0.1-2.1L147.3,31.1z M147.4,34c-0.9-0.8-1.7-1.7-2.4-2.6c0,0.5,0,1,0,1.5c0.1,0,0.2,0,0.2,0.1
			c0.3,0.5,0.7,0.9,1,1.4s0.7,0.8,1.2,1.2C147.4,35,147.4,34.5,147.4,34L147.4,34z M147.2,26.3c-0.8-0.8-1.5-1.6-2.1-2.4
			c0,0.6,0,1.2,0,1.7c0.6,0.7,1.3,1.5,1.8,2.2c0.1,0.1,0.1,0.2,0.2,0.2c-0.1-0.5,0-1-0.1-1.5L147.2,26.3z M147.3,30.6
			c0-0.8,0-1.5-0.1-2.1c-0.7-0.7-1.4-1.5-2.1-2.3c0,0.6,0,1,0,1.6c0.7,1,1.4,2.1,2.1,3L147.3,30.6z"/>
	</g>
	<g>
		<path class="st0" d="M11,110.6c-0.1,0.8,0.1,1.6,0,2.4c0,0.3,0,0.7,0,1c-2.3,0.2-4.6,0.2-6.9-0.1c0-0.2-0.1-0.2-0.2-0.3
			c0.2-4.7,0.1-9.3,0-14.5c-0.1-4.4-0.2-7.9-0.2-12.8v-1.8c0-0.7,0.1-1.4,0.1-2.1c0-1-0.1-2.1-0.1-3.1c0-0.8-0.1-1.6-0.1-2.3
			c-0.1-0.3,0.1-0.5,0.1-0.7s-0.1-0.6-0.1-0.9c0-0.6,0-1.2,0.1-1.6c0-0.8,0.1-1.7,0-2.6c0.1-0.2,0.1-0.3,0.2-0.6
			c1.7-0.2,3.5-0.2,5.3,0c0.2,0.7,0.5,1.4,0.6,2.2c0.2-0.1,0.5-0.3,0.7-0.5c0.1-0.1,0.2-0.2,0.3-0.3c0.2-0.2,0.5-0.3,0.8-0.5
			c0.1-0.1,0.3-0.1,0.5-0.2c0.7-0.3,1.5-0.6,2.3-0.7c0.8-0.1,1.7-0.1,2.5-0.1c0.5,0,1,0,1.5,0.1c1.3,0.2,2.6,0.7,3.8,1.3
			c0.6,0.9,1.5,1.5,2.2,2.3c1.3,1.8,1.4,4.3,1.4,7.4c0,2.4,0.1,5.4,0.1,8.2v2c0.1,1.3,0,2.6-0.2,3.9c-0.1,0.7-0.5,1.3-0.9,1.8
			c-0.1,1.2-0.9,1.5-1.3,2.4c-0.5,0.2-0.8,0.5-1,0.8c-0.3,0.1-0.7,0.2-0.8,0.5c-0.5,0.1-0.9,0.3-1.3,0.6c-0.7,0.1-1.4,0.2-2.1,0.2
			c-1.2,0-2.4,0-3.6-0.1c-0.2,0-0.5-0.1-0.7-0.2c-0.1-0.1-0.3,0-0.5,0c-0.8-0.2-1.6-0.7-2.3-1.3C11.1,103.5,11.1,107.4,11,110.6z
			 M11.1,80.1c0,1.6-0.1,3.1,0,4.8c0.2,2.9,0,5.8,0.3,8.3c0.3,0.3,0.5,0.7,0.8,1c0.6,0.3,1.4,0.7,2.1,0.7c1.4,0.1,2.6-0.3,3.7-1.3
			c0.5-1.4,0.6-2.9,0.5-4.3c0.1-1.4,0-3.1,0-4.7c0.1-1.5,0-3.1-0.2-4.6s-0.9-2.6-2.1-3c-0.2,0-0.3,0-0.6-0.1c-2,0-3.7,1-4.5,2.8
			C11,79.9,11.1,79.9,11.1,80.1L11.1,80.1z"/>
		<path class="st0" d="M52.3,90.1L52.3,90.1C52.3,90.2,52.3,90.2,52.3,90.1c-0.1,0.4-0.1,0.9,0,1.3c0.1,1.6-0.1,3.1-0.6,4.6
			c-0.3,0.7-0.8,1.3-1.3,1.8c-0.6,0.7-1.2,1.3-2,1.8c-0.5,0.3-1,0.7-1.6,0.9c-0.5,0.2-0.9,0.3-1.4,0.5c-2.3,0.9-4.8,0.9-7.3,0.1
			c-0.2-0.1-0.2,0.1-0.3,0.1c-1.4-0.3-2.8-0.9-4-1.8c-0.3-0.2-0.8-0.5-1.2-0.8l-0.5-0.7c-0.6-0.6-1-1.4-1.3-2.2
			c-0.6-1.8-0.8-3.8-0.7-5.8c-0.1-2.3,0.2-5.2-0.1-7.5c-0.1-0.8-0.2-1.6-0.2-2.4l0.3-1.6c0.2-1,0.6-2,1-2.9c0.2-0.5,0.6-0.9,0.8-1.4
			c0.8-1,1.7-1.8,2.8-2.6c1.2-0.8,2.5-1.3,3.9-1.4c3-0.1,6,0.6,8.7,1.8c0.2,0.2,0.5,0.2,0.8,0.2c0.1,0,0.1,0.1,0.2,0.1l1.5,1.4
			c0.6,0.8,1,1.6,1.4,2.5c0.3,1,0.5,2.1,0.6,3.1c0.2,1.4,0.2,2.9,0.2,4.3v3.9c-0.1,0.7-0.1,1.5,0,2.2C52.3,90,52.2,90.1,52.3,90.1z
			 M45.1,85.3c-0.1-1.2,0.1-2.3,0-3.3C45,81.8,45,81.5,45,81.3s0.1-0.3,0-0.5c0-0.5-0.1-0.9-0.2-1.4c-0.2-1.2-1.2-2.1-2.2-2.4
			c-0.3,0.1-0.5-0.1-0.7-0.1c-0.6,0.1-1.4,0.1-2,0.2c-0.3,0.2-0.7,0.5-1,0.7c-0.3,0.3-0.7,0.7-0.9,1c-0.2,0.6-0.3,1-0.3,1.6
			c-0.1,1.5-0.1,3.6-0.1,5.1v4.7c0,0.2,0,0.3,0.1,0.6c0,0.3,0,0.8,0.2,1.2c0.1,0.5,0.3,0.9,0.7,1.3c0.7,1.3,2,2,3.3,1.7
			c0.1,0,0.2,0,0.3-0.1c0.5-0.1,0.9-0.3,1.4-0.6c0.3-0.5,0.8-0.8,1.3-1.2c0.2-0.6,0.3-1.3,0.3-2C45.3,89.2,45.2,87.1,45.1,85.3
			L45.1,85.3z"/>
		<path class="st0" d="M87.3,70.1c0.8,0.2,1.5,0.5,2.2,0.8c0.3,0.2,0.7,0.3,1,0.6c0.2,0.1,0.3,0.2,0.7,0.2c0.9,0.8,1.7,1.8,2.3,2.9
			l0.2,0.5c0.2,0.3,0.3,0.5,0.5,0.9c0.1,0.6,0.2,1.2,0.2,1.6c0.1,1.4,0.3,2.9,0.3,4.4s-0.1,3.3-0.1,4.8c0.1,3-0.3,6.6-0.2,9.4
			l0.1,4.1c0,0.3,0.1,0.8-0.2,1.2c-0.2,0-0.2-0.2-0.5-0.2c-2,0.1-3.9,0.2-6,0.1c-0.1-0.1-0.3-0.2-0.5-0.2c0-0.2,0-0.5,0-0.6
			c-0.1-1.3-0.1-2.6-0.1-4c0-1.4,0.2-3.1,0.2-4.7c-0.1-0.7-0.1-1.5-0.1-2.2s0.1-1.4,0.1-2.1v-4.5c0-0.9,0-1.8-0.2-2.8
			c0-0.2-0.1-0.6-0.2-0.8c-0.1-0.6-0.3-1-0.7-1.4c-0.3-0.5-0.8-0.7-1.3-0.9c-0.6-0.2-1.2-0.3-1.6-0.2c-0.7,0-1.3,0.2-1.8,0.6
			c-0.5,0.3-0.8,0.7-1.3,1c-0.1,0.3-0.2,0.6-0.5,0.9c0,0.3,0,0.8-0.2,1.2c0.2,2.2,0.1,5.2,0.1,7.4c0.1,1.3,0.1,3.1,0.1,4.5
			c0.1,0.7,0.1,1.3,0,2c0,1.2,0,2.3,0.1,3.6c0,1.3-0.1,2.4-0.1,3.7c-2.1,0-4.6,0.1-6.9,0c-0.2-0.1-0.2-0.3-0.3-0.3
			c-0.1-1.3-0.2-2.8-0.2-4.3c-0.1-0.8,0.1-1.6,0-2.5c-0.1-0.9-0.2-1.7-0.2-2.6c0-0.9,0.1-2.1,0.2-3c0.1-0.9,0.1-2,0.1-2.9
			c0-0.9,0-2-0.1-2.9c0-0.5,0-0.8-0.1-1.3c0-0.5-0.1-0.9-0.2-1.3c0-0.3-0.1-0.7-0.2-1c0-0.1-0.1-0.2-0.2-0.3c0-0.1-0.1-0.1-0.1-0.2
			c-0.1-0.2-0.2-0.3-0.3-0.5l-0.2-0.5l-0.5-0.2c-0.1-0.1-0.1-0.2-0.2-0.3c-0.1-0.1-0.2-0.1-0.3-0.1c-1.4-0.6-3-0.2-4.1,0.8
			c-0.5,0.6-0.8,1.4-0.8,2.2C65.1,81,65,81.5,65,81.9c0,0.1,0,0.2,0.1,0.3c0,0.9-0.1,1.8-0.2,2.8c-0.1,0.7,0.1,1.5-0.1,2.2
			c0.1,3.1-0.2,6.3-0.1,9.6c0.1,1.2,0.1,2.4,0.1,3.6c0,0.7,0.2,1.4-0.1,2c-2.1,0.2-4.8-0.2-6.9,0c-0.1-0.1-0.1-0.2-0.2-0.3
			c-0.1-1.2,0-2.3,0.1-3.3c0-0.8-0.1-1.6-0.3-2.3c-0.1-2-0.1-3.9,0-5.9v-4.3c-0.1-0.6-0.1-1,0-1.6c0.1-0.1-0.2-0.1-0.1-0.1
			c-0.1-0.9-0.1-1.6-0.1-2.6c-0.2-1.6-0.3-3.3-0.3-4.9c0.1-1,0.5-1.8,0.1-2.9c0.3-1-0.1-2.1,0.3-3.1c2-0.2,3.9-0.1,5.8,0.2
			c-0.1,0.3,0.2,0.9-0.1,1c0.2,0.2,0.2,0.8,0.5,1.2c0.2-0.3,0.6-0.7,1-0.9c1.3-0.8,2.8-1.3,4.4-1.4c0.5-0.1,1-0.1,1.5-0.1
			c1.6-0.1,3.2,0.3,4.6,1.2c0.1,0.1,0.3,0.2,0.5,0.2c0.5,0.6,1,1.2,1.6,1.5v0.1c1.7-2.2,4.4-3.3,7.1-3.3
			C85.4,69.9,86.4,70,87.3,70.1z M77.2,73.2c0,0,0,0.1-0.1,0.1C77.1,73.3,77.2,73.3,77.2,73.2L77.2,73.2z"/>
		<path class="st0" d="M121.2,101.8c-1.5,0.2-3.7-0.3-4.9-0.2c-0.3-0.7-0.7-1.4-0.9-2.1c-0.5,0.5-0.9,0.9-1.5,1.3l-0.6,0.2
			c-0.2,0.1-0.3,0.2-0.6,0.3l-0.6,0.1c-0.5,0.2-1,0.3-1.5,0.5c-0.3,0.1-0.8,0.2-1.2,0.2c-1,0.1-2,0.1-3,0.1c-1-0.2-2.1-0.7-3-1.2
			s-1.7-1.2-2.5-1.8c-0.8-1-1.4-2.3-1.6-3.7v-0.7l-0.2-0.5c0-0.5,0-0.8,0-1.3s0-0.9,0.1-1.4c0.3-1.7,1.2-3.3,2.3-4.6
			c0.5,0,0.8-0.5,1.2-0.7c1.2-0.8,2.3-1.6,3.7-2.2c1.3-0.6,2.8-0.9,4.1-1.5c1-0.5,2.2-0.8,3.3-1c0.3-1.4,0.1-4.1-1.4-4.5
			c-0.9-0.8-2.2-1-3.3-0.7c-0.3,0.1-0.7,0.2-1,0.5c-0.5,0.2-0.9,0.7-1.2,1.2c-0.6,0.8-0.9,1.7-0.8,2.8c0,0.2,0.2,0.3,0.2,0.7
			c-0.9,0.2-1.8,0.2-2.8,0c-1.4-0.1-2.5-0.1-3.8-0.2l-0.5-0.3c0-3.2,0.3-5.8,2-7.6c0.2-0.2,0.8-0.6,1-0.9s0.5-0.6,0.8-0.8
			c0.2-0.2,0.5-0.3,0.7-0.6l0.5-0.1c0.1-0.1,0.2-0.3,0.5-0.3l0.7-0.2c1.3-0.3,2.5-0.6,3.8-0.6c0.2,0,0.1,0.1,0.2-0.1
			c1.7,0,3.6,0.2,5.2,0.9c0.8,0.2,1.5,0.6,2.2,0.9c0.6,0.6,1.3,1,2,1.5c0.3,0.2,0.6,0.6,0.9,0.9c0.2,0.3,0.2,0.8,0.6,1.2
			c0.6,2.3,0.8,4.6,0.8,6.9c0.1,2.3,0.1,4.7,0,7c-0.1,2.2-0.1,4.3-0.1,6.6c0,0.7,0.1,1.4,0.1,2.1s0.1,1.5,0.1,2.2v0.6
			C121.3,100.8,121.3,101.3,121.2,101.8z M113.8,87.6L113.8,87.6c-2.3,0.7-4.7,1.3-6.4,2.6c-0.3,0.9-0.9,1.5-0.7,2.5
			c0.1,0.7,0.5,1.3,1,1.6c1.8,1.3,4.6,0.5,5.9-0.9C114,91.9,113.7,89.8,113.8,87.6L113.8,87.6z"/>
		<path class="st0" d="M131.1,86.7c2.1-2.9,3.8-6,5.8-8.9c-3.2-0.1-7.3-0.2-10.8-0.3c-0.1-0.2,0-0.5-0.3-0.6c0.1-2-0.2-3.7-0.1-5.8
			l0.3-0.5c2.1-0.2,4.5-0.2,6.9-0.2c0.1,0,0.1-0.1,0.1-0.1c1.8,0,3.9,0.1,5.9,0.2c0.8,0,1.6,0,2.4-0.1c1.5-0.1,3.1,0.1,4.9,0.1
			c0.1,1.3,0.2,2.5,0.3,3.8c0.1,0.5,0.1,0.8,0,1.3c0,0.5,0,0.9-0.1,1.3c-0.1,0.8-0.7,1.4-1,2.2c-0.2,0-0.1,0.3-0.3,0.3
			c-0.5,1.2-1.2,2.2-2,3.1c-1.4,2-2.5,4.1-4,6l-1,1.4c-0.3,0.5-0.7,0.9-1,1.4c-0.2,0.3-0.3,0.7-0.6,1c-0.7,0.9-1.3,1.8-1.8,2.9
			c3.3-0.1,5.9-0.2,9.4,0c0.8-0.1,1.6,0,2.3,0.2c0,2.1,0.5,4.5-0.1,6.3c-0.7,0.1-1.5,0.2-2.2,0.2c-0.6,0-1.2,0-1.6-0.1
			c-5.4-0.1-11.2,0.2-16.2,0.1c-0.1-0.1-0.3-0.2-0.5-0.3c-0.2-2-0.2-3.8-0.1-5.8c0.1-0.2-0.1-0.2-0.2-0.3c0.8-1.5,2-3,2.9-4.5
			c0.5-0.7,0.9-1.5,1.4-2.2L131.1,86.7z M143.7,57.9c-0.8,1.4-1.6,2.6-2.5,3.9c-0.9,1.4-1.5,2.8-2.4,3.9c-1,0.2-2.6,0-4,0.1
			c-0.3,0-1.4,0.5-1.5-0.5c-0.5-1.2-1-2.2-1.8-3.1c-0.6-1-1.4-2-2.3-2.8c-0.2-0.6-0.7-0.8-1-1.3c0.2-0.2,0-0.3,0.1-0.7
			c1.6,0.1,3.2-0.1,4.8-0.1c1,0.9,2.1,1.8,3.1,2.8c1-0.7,1.5-1.8,2.4-2.5c0.2,0,0.1,0.1,0.3,0.1c1.2-0.2,2.8,0,3.9-0.1
			C143.1,57.7,143.5,57.6,143.7,57.9L143.7,57.9z"/>
		<path class="st0" d="M151.7,97.6c-1.4-2.9-1.4-6.7-1.4-10.4c0.1-3.2,0.2-6.6,0.1-9.6c-0.1-2.1,0.2-4.6,0-6.7
			c1.6-0.8,4.8-0.6,6.8-0.3c0.1,0.1,0.3,0.2,0.5,0.2c0.1,1.5,0.1,2.9,0,4.4c0.1,0.1,0.1,0.3,0.1,0.5c0.1,1.3,0.1,2.6,0.1,4
			c-0.1,1,0,2.1-0.1,3.1s-0.1,1.7-0.2,2.6c-0.1,0.9,0.1,1.5,0.1,2.3c0.1,1,0.1,2,0.1,3c-0.1,0.9,0.1,2,0.5,2.9
			c0.7,1.2,2.1,1.7,3.3,1.5c0.7-0.1,1.3-0.2,2-0.6c0.7-0.6,1.3-1.3,1.6-2.1c0.1-0.6,0.1-1.2,0.1-1.7c-0.1-0.9,0.1-2,0-2.8
			c-0.1-0.5-0.1-0.9-0.1-1.4c0-2.5-0.1-5.3,0-8.1c0.2-2.5,0.2-5.1,0.1-7.7c0.7-0.2,1.5-0.3,2.2-0.3c1.2-0.1,2.1,0,3.3,0
			c0.3,0,0.8,0.1,1.2,0.2c0.2-0.1,0.3-0.1,0.6,0c0.1,1,0.1,2.2,0.1,3.2c0.1,4.5,0.2,9.7,0,14.7c0,0.9,0,2,0.1,2.9
			c0,1.3-0.1,2.3-0.1,3.6c0.1,0.6,0.1,1.2,0.1,1.8c-0.1,1.4-0.1,2.8,0,4.1c-0.2,0.2-0.2,0.2-0.2,0.6c-0.2,0-0.3,0-0.3,0.2
			c-1.6,0.1-3.3,0.1-4.9-0.1c-0.2-0.8-0.6-1.5-0.7-2.3c-1.6,1.5-3.8,2.4-6.1,2.5c-0.5,0-1,0-1.5,0c-1-0.1-2.1-0.3-3.1-0.7
			c-0.6-0.1-1-0.3-1.5-0.7c-0.7-0.5-1.3-1-1.7-1.7C152.2,98.5,151.9,98.2,151.7,97.6z"/>
		<path class="st1" d="M27.9,81.8c0.2,3,0.7,6.4,0.5,10c-0.1,0.7-0.1,1.4-0.2,2c-0.2,0.7-0.3,1.5-0.2,2.3c-0.1,0.5-0.5,0.8-0.3,1.3
			c-0.1,0.1-0.2,0.1-0.3,0.2c-0.3,0.6-0.7,1.3-1.2,1.8c-0.3,0.6-0.9,1-1.3,1.5c-0.3,0.1-0.6,0.5-0.8,0.6c-0.7,0.5-1.4,0.8-2.1,1
			c-0.3,0.2-0.7,0.3-1,0.5c-1.2,0.3-2.4,0.5-3.7,0.3c-1.2,0-2.3,0-3.5-0.2c0.2,3.3,0.1,6.6,0.2,10.5v1.4c0,0.6,0,1.2-0.1,1.6
			c-0.2,0.1-0.3-0.1-0.6,0c-0.2,0.1-0.2,0.2-0.3,0.2c-1.3-0.1-2.5,0-3.7,0.2c-0.5,0-0.9-0.1-1.4-0.1c-0.1-0.1,0-0.3-0.1-0.3
			c-1.4-0.8-2.6-1.8-3.8-3c0.2-6,0-10.9-0.1-16.3C3.8,94,3.8,89.7,3.8,86.8c0-1.3,0.1-2.8,0-4.3c0-2.1,0-4-0.1-6.3
			c-0.1-1.4,0-2.6-0.1-3.9c0.1-0.5,0.1-0.8,0-1.3c0.1-0.2,0.2-0.3,0.2-0.6c1.7-0.2,3.6-0.2,5.3,0c0.2,0.7,0.5,1.5,0.6,2.3
			c0.2-0.2,0.5-0.3,0.7-0.6c0.1-0.1,0.2-0.3,0.5-0.5c0.5-0.3,1-0.6,1.6-0.8c1.3-0.5,2.5-0.7,3.9-0.6c1.7-0.1,3.3,0.2,4.8,1
			c0.3,0.2,0.7,0.2,0.8,0.3c0.1,0.1,0.3,0.6,0.6,0.7c0.2,0.1,0.3,0.1,0.5,0.1c0.5,0.2,0.9,0.5,1.3,0.8c1,0.6,2,1.5,2.6,2.4
			c0.5,0.9,0.8,1.8,0.9,2.8C27.9,79.7,28.1,80.7,27.9,81.8z M4.6,113.5c2,0.2,3.9,0.2,5.9,0.1c0.1-1.5,0.1-3.1,0.1-4.5
			c0-0.3-0.1-0.7-0.1-1c0-1.6,0.2-3.1,0.2-4.5c-0.1-1.5-0.1-2.9,0-4.4c0.1-0.1,0.3-0.1,0.5,0c0.1,0.1,0.1,0.2,0.2,0.3
			c1,0.8,2.3,1.4,3.6,1.4c0.3,0.1,0.6,0.1,0.9,0.1c2.1,0.1,4.4,0.1,5.6-1c0.1-0.2,0.1-0.3,0.3-0.5c0.3,0.3,0.6-0.2,0.8-0.3
			c-0.2,0-0.2-0.1-0.2-0.3l0.2-0.2c0.2,0,0.2,0.2,0.5,0.2c0.5-0.7,1.2-1.2,1.3-2.1c0.5-0.8,0.7-1.6,0.8-2.5c0.1-1.5,0.1-2.9,0-4.4
			c0-2.4-0.1-5.2-0.1-7.8c0-1.8,0-3.7-0.3-5.4c-0.2-1.3-0.8-2.4-1.8-3.3c-0.5-0.5-0.9-0.9-1.4-1.3c-0.1-0.1-0.2,0-0.2-0.1
			c-0.1,0.1-0.1,0-0.1,0s-0.5-0.2-0.6-0.3c-0.6-0.2-1.3-0.3-1.8-0.6c-1.3-0.1-2.5-0.1-3.7,0c-0.2,0-0.3,0.1-0.6,0.1
			c-0.8,0.1-1.5,0.3-2.3,0.6c-0.3,0.2-0.7,0.5-1,0.7s-0.5,0.7-0.9,0.7c-0.2,0.3-0.3,0.6-0.5,0.8c-0.2-0.1-0.2-0.5-0.5-0.6
			c-0.1-0.8-0.2-1.6-0.5-2.3c-1.5-0.1-3-0.1-4.5,0.1c0.1,2.3,0,3.9,0.1,5.5c0.1,2.5,0.1,5.1,0.1,7.8c0,1.4,0.1,2.2,0,3.2
			c-0.1,3.6,0,7,0.1,10.8c0.1,1.4,0,2.9,0.1,4.4C4.7,106.5,4.7,110,4.6,113.5C4.6,113.4,4.5,113.5,4.6,113.5z M9,116.6
			c-0.7-0.9-1.5-1.6-2.4-2.3c-0.5,0-1,0-1.5-0.1c0.9,0.8,2,1.6,3,2.2c0.1,0.1,0.2,0.2,0.3,0.2C8.6,116.6,8.7,116.6,9,116.6L9,116.6z
			 M11,116.5c-0.8-0.7-1.6-1.4-2.3-2.2c-0.2,0.1-0.9-0.1-1.2,0.1c0.3,0.3,0.7,0.8,1,1.2c0.2,0.2,0.8,1,1.2,1.2S10.7,116.4,11,116.5
			L11,116.5z M12.8,116.4c-0.2-0.5-0.7-0.6-1.2-1c-0.2-0.2-0.8-1-1.2-1c-0.3,0-0.6,0.1-1,0.1c0.5,0.7,1.4,1.4,2.1,2.2
			C12,116.4,12.3,116.3,12.8,116.4L12.8,116.4z M10.6,86.2C10.5,85,10.5,84,10.5,83c0.1-0.8,0.1-1.6,0.1-2.4
			c-0.1-0.2-0.1-0.6-0.1-0.8c0.1-0.6,0.6-1,0.8-1.5c1.3-0.9,2.8-2.2,5.1-1.5l0.6,0.3c1.7,1,1.8,3.6,2,5.9c0.1,1,0.1,2.1,0.1,3
			c0,0.9,0.1,1.8,0.1,2.6c0,0.8-0.1,1.5-0.1,2.1c0,0.7,0,1.3-0.1,2c-0.1,0.6-0.3,1.2-0.6,1.7c-0.6,0.1-0.8,0.7-1.5,0.9
			c-0.7,0.2-1.2,0.2-1.7,0.3c-0.5-0.1-0.9-0.1-1.4-0.2c-0.6-0.1-1-0.5-1.4-0.6c-0.2-0.2-0.5-0.5-0.7-0.7c-0.2-0.6-0.5-1-0.8-1.5
			C10.8,90.5,10.7,88.3,10.6,86.2L10.6,86.2z M13.4,114.8c-0.1,0,0,0.1-0.1,0.1c-0.7-0.6-1.4-1.5-2.2-2.2c0.1,0.6-0.2,1,0,1.5
			c0.1,0.1,0.5,0.3,0.6,0.5c0.6,0.6,1.3,1.2,1.8,1.5C13.3,115.7,13.4,115.1,13.4,114.8L13.4,114.8z M11.1,107.1
			c0.1,0.2,0.3,0.3,0.6,0.6c0.5,0.7,1,1.3,1.7,1.8c-0.1-0.7-0.1-1.3,0-2c-0.8-0.3-1.5-1.4-2.3-2C11.1,105.9,10.9,106.6,11.1,107.1
			L11.1,107.1z M11.1,109.5c0.6,0.8,1.3,1.5,2,2.2c0.1,0.1,0.2,0.3,0.3,0.3c0-0.5,0-1.2-0.1-2c-0.8-0.6-1.6-1.4-2.3-2.2
			C11,108.3,11,108.9,11.1,109.5L11.1,109.5z M13.4,112.5c-0.1-0.1-0.2-0.1-0.3-0.1c-0.7-0.7-1.4-1.3-2.1-2.1c0,0.5,0,1,0,1.5
			c0.7,0.8,1.6,1.6,2.3,2.5C13.4,113.7,13.4,113,13.4,112.5L13.4,112.5z M11.1,79.7c0.7,0.7,1.4,1.4,2.1,2.1
			c0.1-0.6,0.3-0.9,0.3-1.4c-0.6-0.6-1.2-1.2-1.8-1.6C11.5,79,11.3,79.3,11.1,79.7L11.1,79.7z M11.1,82.1c0.5,0.6,1,1,1.5,1.5
			c0.1,0.1,0.3,0.5,0.5,0.3c0.1-0.5,0-1.2,0.1-1.7c-0.1,0-0.1,0.1-0.2,0.1c-0.6-0.6-1.2-1-1.7-1.6C11.1,80.9,11.1,81.5,11.1,82.1
			L11.1,82.1z M11.1,84.3c0.7,0.6,1.3,1.4,2,2.1c0-0.6,0-1.2,0-1.7c-0.6-0.6-1.3-1.3-2-1.8V84.3z M11.3,86.9
			c0.6,0.8,1.4,1.5,2.2,2.2c-0.3-0.7-0.1-1.5-0.3-2.1c-0.1-0.2-0.2-0.3-0.5-0.5c-0.5-0.5-1.2-1.2-1.5-1.5
			C11.1,85.6,11.1,86.2,11.3,86.9L11.3,86.9z M12.6,102.4c-0.6-0.5-0.9-1.2-1.5-1.6c0,0.5,0,0.9,0.1,1.4c0.7,0.7,1.4,1.5,2.1,2.2
			c0-0.5-0.1-0.8-0.1-1.3c-0.2-0.1-0.5-0.2-0.6-0.3S12.5,102.6,12.6,102.4L12.6,102.4z M13.4,107.2c-0.1-0.8-0.1-1.6-0.1-2.4
			c-0.1,0-0.2-0.1-0.3-0.1c-0.6-0.6-1.3-1.2-1.8-1.7c0,0.7,0,1.3-0.1,2C11.8,105.6,12.6,106.4,13.4,107.2L13.4,107.2z M11.3,87.7
			c0,0.6,0.1,0.9,0.1,1.5c0.6,0.8,1.4,1.5,2.2,2.1c-0.1,0.1,0,0.1,0.1,0.1c0-0.5,0-1-0.1-1.5C12.6,89.2,11.8,88.4,11.3,87.7
			L11.3,87.7z M11.4,92c0.7,0.7,1.5,1.3,2.2,2c-0.1-0.6-0.1-1.3-0.1-1.8c-0.7-0.7-1.5-1.3-2.3-2C11.4,90.7,11.3,91.2,11.4,92
			L11.4,92z M13.7,94.3h-0.2c-0.6-0.5-1.4-1-2.1-1.6c0,0.3,0.1,0.7,0.3,0.9c0.2,0.8,1,1.2,2,1.3C13.8,94.7,13.6,94.5,13.7,94.3
			L13.7,94.3z M14.1,102.7c-0.3-0.5-0.7-0.9-1-1.4c-0.5-0.1-0.9-0.5-1.3-0.6c0.5,0.7,0.9,1.3,1.5,1.7
			C13.6,102.4,13.8,102.7,14.1,102.7L14.1,102.7z M12.2,78.5c0.6,0.5,1,0.8,1.5,1.3c0.1-1.4,1-2,2.1-2.6c-0.7-0.1-1.3,0-2,0.3
			c0.2,0.2,0.7,0.6,0.3,0.8c-0.3-0.1-0.5-0.5-0.7-0.6C12.9,77.7,12.5,78.2,12.2,78.5L12.2,78.5z M16.2,77.5
			c-0.6,0.3-1.4,0.6-1.6,1.3s-0.5,1.4-0.6,2.1c-0.6,2.2-0.6,4.5-0.3,6.8c0.2,1.5,0.3,2.9,0.5,4.4c0,0.9,0,2,0.2,2.9
			c0,0.1-0.1,0.1-0.2,0.2c1.4,0.1,2.8-0.3,3.8-1.2c0-0.3,0.1-0.7,0.3-1c0.3-2.9,0.1-5.8,0.2-8.3c-0.2-2.1-0.1-5.2-1.3-6.6
			C16.8,77.7,16.6,77.2,16.2,77.5L16.2,77.5z M18.4,102.8c-0.5-0.3-0.8-0.7-1.2-1c-0.3-0.1-0.7-0.1-1.2,0c0,0.2,0.5,0.3,0.6,0.8
			c-0.8,0.1-1-0.7-1.6-0.9c-0.5,0-0.8-0.1-1.3-0.2c0.1,0.5,0.7,0.8,1,1.3C16,102.8,17,102.8,18.4,102.8L18.4,102.8z M20.5,102.6
			c-0.3-0.2-0.7-0.6-1-0.8c-0.5,0-1,0.1-1.5,0.1c0.5,0.3,0.8,0.7,1.3,1C19.7,102.7,20.1,102.6,20.5,102.6L20.5,102.6z M22,102
			c-0.3-0.2-0.7-0.6-1-0.7c-0.2,0.2-0.6,0.2-0.7,0.3c0.2,0.2,0.6,0.5,0.8,0.7L22,102z M23.1,101.3c-0.3-0.2-0.8-0.5-1.2-0.7
			c-0.1,0.2-0.5,0.2-0.5,0.5c0.3,0.2,0.6,0.5,0.9,0.7C22.5,101.5,22.9,101.5,23.1,101.3L23.1,101.3z M24.3,100.5
			c-0.5-0.2-0.7-0.5-1.2-0.7c-0.2,0.2-0.5,0.2-0.6,0.6c0.3,0.2,0.7,0.5,1,0.8C23.8,101,24,100.7,24.3,100.5z M25.6,99.1
			c-0.3-0.3-0.8-0.7-1.3-1c-0.2,0.6-0.7,0.8-0.9,1.4c0.5,0.2,0.7,0.6,1,0.8C25,99.9,25.4,99.5,25.6,99.1L25.6,99.1z M23.9,73.7
			c0.1,0.2,0.2,0.3,0.3,0.5c-0.1-0.2,0.1-0.1,0.1-0.2C24.3,73.8,24.2,73.7,23.9,73.7L23.9,73.7z M24.5,74.4c0.3,0.6,0.7,1.3,0.8,2
			c0.8,0.3,1.4,0.9,1.7,1.6c-0.1,0.1-0.1,0.2-0.2,0.2c-0.5-0.3-0.8-0.9-1.4-1.3c0.1,0.6,0.2,1.4,0.2,2.2c0-0.2,0.1,0,0.2-0.1
			c0.5,0.7,1.2,1,1.6,1.6c0-1.8-0.5-4-1.5-5.3C25.3,75.4,25.1,74.4,24.5,74.4L24.5,74.4z M26.9,97.2c-0.6-0.3-1-0.8-1.6-1.2
			c-0.2,0.5-0.2,1-0.6,1.2c0,0.1,0,0.3-0.1,0.5c0.5,0.2,0.9,0.7,1.4,1C26.2,98.1,26.6,97.6,26.9,97.2L26.9,97.2z M25.6,83.9
			c0,0.1,0.1-0.1,0.2,0c0.6,0.7,1.3,1.3,2,1.8c-0.1-1.4-0.3-3.1-0.3-4.8c-0.8-0.1-1.3-0.9-2-1.4c0,0.6,0.1,0.9,0.1,1.5
			c0.6,0.3,1,0.8,1.4,1.4c0.1,0.2,0.3,0.2,0.2,0.6c-0.7-0.1-1-1-1.6-1.3C25.6,82.4,25.6,83.1,25.6,83.9z M27.5,95
			c-0.6-0.5-1.2-1-1.7-1.5c0,0.7,0,1.3-0.2,2c0.5,0.5,1,0.9,1.6,1.3c0.1-0.1,0.1-0.2,0.2-0.3C27.1,95.9,27.5,95.5,27.5,95L27.5,95z
			 M27.8,86.1h-0.3c-0.6-0.6-1.3-1-1.8-1.6c0,0.8-0.1,1.5,0,2.2c0.6,0.8,1.5,1.3,2.1,2.2c-0.3,0.5-0.9-0.3-1.2-0.7
			c-0.2-0.1-0.3-0.2-0.5-0.3c-0.1-0.2-0.2-0.3-0.3-0.3v2.2c0.5,0.6,1,1,1.7,1.4c-0.1,0.2,0.3,0.2,0.3,0.6c0,0.1-0.1,0.1-0.1,0.1
			c-0.9-0.3-1.3-1-2-1.5c0,0.9,0.1,1.7,0.1,2.5c0.1,0.1,0.1-0.1,0.3-0.1c0.5,0.6,0.9,1.2,1.5,1.6C27.9,91.7,28.1,88.9,27.8,86.1
			L27.8,86.1z"/>
		<path class="st1" d="M55.3,89.9c0,0.3,0.1,0.7,0.1,1.2c0,0.7-0.1,1.5-0.2,2.2c0,0.5,0,0.9-0.1,1.4s-0.2,0.8-0.5,1.3
			c-1.8,4.4-5.8,7.6-10.5,8.5c-0.2-0.1-0.1,0.2-0.2,0.2s-0.2-0.2-0.3-0.2c-2.5,0.1-4.9-0.5-7.1-1.7c-1.4-0.8-2.6-2-3.7-3.2
			c-0.2-0.2-0.3-0.5-0.5-0.7c-0.2-0.3-0.6-0.8-0.3-1c-0.7-1.2-1.2-2.4-1.4-3.8c-0.2-1.4-0.2-2.9-0.2-4.3c-0.1-1.3-0.1-2.5,0.1-3.8
			c-0.2-1,0-2.3-0.2-3.5c-0.2-0.8-0.2-1.6-0.2-2.3c0.1-0.6,0.2-1.2,0.3-1.8c0.1-0.6,0.2-1,0.5-1.6c0.3-0.9,0.8-1.7,1.4-2.5
			c1.2-1.4,2.5-2.5,4-3.2c0.8-0.3,1.7-0.6,2.6-0.7c3.2-0.1,6.3,0.7,9.2,2.1c0.6-0.1,0.9,0.3,1.3,0.3c1.3,0.8,2.4,1.7,3.3,3
			c0.6,1,1,2.2,1.3,3.3c0.2,1.2,0.3,2.5,0.5,3.9c0.2,1.4,0.6,2.5,0.7,3.9C55.3,87.9,55.2,88.9,55.3,89.9z M32.4,97.2l0.5,0.5
			c0.2,0.2,0.3,0.5,0.5,0.6c0.5,0.3,0.9,0.7,1.5,1c0.2,0.1,0.3,0.3,0.5,0.3c0.1,0.1,0.5,0.1,0.6,0.1c0.5,0.3,1,0.6,1.6,0.7
			c0.5,0,0.9,0.1,1.3,0.3c1.4,0.3,2.8,0.5,4.1,0.3c0.3-0.1,0.6-0.2,0.9-0.2c0.1,0,0.2,0.1,0.3,0.1c0.5-0.1,0.9-0.2,1.3-0.5
			c0.5-0.1,0.9-0.2,1.4-0.5c0.1,0,0.2-0.1,0.3-0.2c0.5-0.2,0.9-0.5,1.3-0.7c0.3-0.2,0.6-0.6,0.8-0.8c0.6-0.6,1-1.2,1.6-1.7
			c0-0.1-0.1-0.5,0-0.6c0.1-0.1,0.2,0.1,0.3-0.1c0.2-0.5,0.3-1,0.3-1.5c0.2-1,0.3-2.1,0.2-3.1c-0.1-1.8,0-3.5,0-5.1
			c0-1.4-0.1-3-0.1-4.5c-0.1-1.6-0.3-3.2-0.7-4.8c-0.3-0.9-0.9-2-1.4-2.8c-0.3-0.3-0.7-0.7-1-1c-0.3-0.1-0.6-0.3-0.9-0.5
			c-0.2-0.2-0.6-0.3-0.8-0.5c-0.5-0.1-0.8-0.2-1.3-0.3c-0.3-0.1-0.7-0.3-1.2-0.3c-0.2-0.1-0.5-0.1-0.6-0.1c-0.3-0.1-0.7-0.2-1.2-0.3
			c-1.3-0.2-2.6-0.2-3.9-0.2c-0.2,0-0.5,0.1-0.7,0.1c-0.6,0.2-1.3,0.5-2,0.7c-0.5,0.3-0.9,0.7-1.4,0.9c-0.2,0.2-0.5,0.5-0.7,0.7
			c-0.1,0.1-0.1,0.2-0.2,0.3s-0.2,0.1-0.3,0.2c-0.7,0.8-1.2,1.6-1.6,2.5c-0.7,1.7-1,3.7-1.2,5.5c0,0.1,0.2,0.1,0.2,0.3
			s0,0.5,0.1,0.7c-0.1,0.9,0.1,2.1,0.1,3c0,1.2-0.1,2.3,0,3.6c0,1.2,0,2.3,0.1,3.5c0.1,1,0.3,2.1,0.7,3
			C31.9,96.2,32.1,96.7,32.4,97.2L32.4,97.2z M38.1,102.3c-0.7-0.5-1-1.2-1.6-1.6c-0.3-0.2-0.9-0.5-1.4-0.7c-0.9-0.5-1.7-1-2.4-1.7
			c0-0.1-0.2-0.3-0.2-0.3c1.4,2.2,3.6,3.9,6,4.8C38.4,102.8,38.1,102.6,38.1,102.3L38.1,102.3z M36.7,81.5c0-0.1,0.1-0.2,0.2-0.2
			c0-0.8,0.1-1.6,0.3-2.4c0.1-0.3,0.5-0.6,0.6-1c0.5-0.1,0.6-0.6,1-0.7c-0.1-0.2-0.1-0.6,0.1-0.7c0.2,0.1,0.2,0.2,0.2,0.3
			c1.3-0.5,2.8-0.6,4-0.1c0.6,0.5,1.4,0.7,1.7,1.4c0.3,0.8,0.6,1.6,0.6,2.4c0.1,1.6,0.2,3.2,0.2,4.8c0,1.7,0.3,3.3,0.2,5.1
			c0,1.2-0.2,2.3-0.7,3.3c-0.2,0-0.3,0.2-0.3,0.3c-0.5,0.7-1.2,1-2,1.2c-0.3,0.1-0.6,0.2-0.9,0.3c-1,0.1-2.2-0.1-3.1-0.6
			c-1-0.8-1.6-2-2-3.2c-0.3-2-0.1-4.4-0.1-6.6C36.9,83.8,36.8,82.7,36.7,81.5z M40.5,103.6c-0.5-0.5-1-1-1.5-1.6
			c-0.2-0.3-0.5-0.7-0.8-0.7c-0.2,0.1-0.5,0-0.8-0.1c0.6,0.7,1.4,1.5,2.1,2.2C39.8,103.4,40.1,103.5,40.5,103.6z M37.4,84.2
			c0.1,0.2,0.3,0.5,0.5,0.6c0.3,0.6,0.8,1,1.3,1.5c0.1,0.1,0.2,0.2,0.3,0.1c0-0.5,0.1-1,0.1-1.5c-0.8-0.7-1.5-1.4-2.2-2.2
			C37.5,83.1,37.3,83.7,37.4,84.2L37.4,84.2z M37.4,82c0.7,0.9,1.4,1.6,2.2,2.4c0-0.6,0.1-1,0.1-1.6c-1-0.5-1.4-1.8-2.1-2.4
			C37.5,80.6,37.5,81.4,37.4,82L37.4,82z M37.4,86.5c0.1,0.1,0.2,0.1,0.2,0.2c0.5,0.6,1.2,1.3,1.6,1.8c0,0.1,0.2,0.3,0.2,0.2
			c0-0.6,0-1.3,0-1.8c-0.9-0.3-1.4-1.3-2.1-2C37.5,85.4,37.5,86,37.4,86.5L37.4,86.5z M37.4,88.9c0.6,0.5,1.2,1.2,1.7,1.6
			c0.2,0.2,0.3,0.5,0.5,0.5c0-0.5-0.1-0.9-0.1-1.5c-0.7-0.7-1.4-1.4-2.1-2.1C37.5,87.7,37.5,88.3,37.4,88.9L37.4,88.9z M37.5,90.9
			c0.6,0.7,1.2,1.3,1.8,1.8c0.2,0.2,0.3,0.6,0.6,0.6c-0.1-0.6-0.1-1.2-0.2-1.8c-0.8-0.7-1.5-1.4-2.3-2.2
			C37.5,90,37.5,90.4,37.5,90.9L37.5,90.9z M37.6,79.5c0.6,0.7,1,1.6,1.5,2.3c0.2,0.2,0.3,0.5,0.5,0.5c0-0.5,0.1-1,0.2-1.5
			c-0.7-0.7-1.3-1.5-2-2.2C37.7,79,37.7,79.3,37.6,79.5L37.6,79.5z M40.4,94.7c-0.2-0.3-0.3-0.7-0.5-1.2c-0.2-0.1-0.1,0-0.2,0
			c-0.7-0.6-1.4-1.2-2-1.8C38,93.2,39,94.4,40.4,94.7L40.4,94.7z M38.3,78.3c0.6,0.7,1,1.4,1.6,2c0.1-0.5,0.2-0.9,0.3-1.4
			c-0.6-0.3-0.8-0.9-1.3-1.4C38.8,77.8,38.5,78.1,38.3,78.3L38.3,78.3z M43,103.8c-0.6-0.6-1.4-1.4-2-2c-0.6,0-1.3-0.1-1.8-0.3
			c0.2,0.5,0.6,0.8,1,1.2c0.3,0.3,0.7,0.7,1.2,1C41.9,103.8,42.6,103.6,43,103.8L43,103.8z M39.5,77.2c0.3,0.5,0.6,0.9,0.9,1.3
			c0.2-0.7,0.6-1.3,1.3-1.7C40.8,77,39.8,76.9,39.5,77.2z M41.9,77.2c-0.3,0.1-0.6,0.6-0.8,0.9c-0.9,1.8-0.9,4.7-1,7.6
			c-0.1,1.4-0.1,2.8,0,4c0,1.4,0.1,2.6,0.5,3.9c0.1,0.5,0.3,0.9,0.7,1.3c0.3,0,0.7,0,1-0.1c0.1-0.1,0.2,0,0.3-0.1
			c0.5-0.2,0.8-0.5,1.2-0.7c0.3-0.3,1-0.7,1.2-1c0.2-0.6,0.3-1.3,0.3-2c0.1-2.1-0.1-4.6-0.2-7c0-0.7,0.1-1.5,0-2.2
			c-0.1-0.9-0.2-2-0.2-2.5c-0.2-1-1-2-2.1-2.3C42.4,77.2,42.2,77.1,41.9,77.2L41.9,77.2z M44.9,103.5c-0.6-0.5-1.2-1.3-1.6-1.7
			c-0.1-0.1-0.5,0.1-0.6,0.1c-0.2,0-0.6-0.1-0.8,0.1c0.6,0.6,1.3,1.3,1.8,1.8C44.1,103.7,44.4,103.7,44.9,103.5z M46.5,103
			c-0.6-0.5-1-1-1.5-1.6c-0.5,0.1-0.9,0.2-1.4,0.3c0.5,0.7,1.2,1.2,1.6,1.8C45.8,103.4,46.1,103.1,46.5,103z M49,101.6
			c-0.3-0.5-0.8-0.9-1.3-1.3c-0.2,0.1-0.5,0.2-0.7,0.3c0.3,0.5,0.7,0.9,1,1.4c-0.1,0-0.2,0.1-0.3,0.1c-0.5-0.3-0.9-0.8-1.3-1.3
			c-0.3,0.1-0.7,0.2-1,0.5c0.5,0.5,0.9,1.2,1.4,1.5c0.1,0,0,0.1,0,0.1C47.6,102.4,48.3,102.1,49,101.6z M50.5,100.5
			c-0.8,0-1-0.7-1.5-1c-0.2,0.2-0.6,0.3-0.7,0.6c0.3,0.5,0.7,0.8,1.2,1.3C49.7,101.1,50,100.8,50.5,100.5z M51.5,99.3
			c-0.1,0-0.2-0.1-0.2-0.1c-0.2-0.1-0.8-1.2-1-1.2c-0.1,0.1-0.2,0.2-0.3,0.3c-0.2,0.3-0.5,0.5-0.7,0.7c0.3,0.5,0.9,0.8,1.3,1.3l0,0
			C50.9,100,51.2,99.7,51.5,99.3L51.5,99.3z M50.2,73.9L50.2,73.9c0.6,0.9,1.2,2,1.4,3c0.8,0.6,1.2,1.5,1.8,2.2
			c-0.5-2.2-1.4-4-3.1-4.9C50.3,74,50.2,73.7,50.2,73.9z M52.7,98.1c-0.6-0.2-1-0.7-1.3-1.3c-0.2,0.3-0.7,0.6-0.7,0.9
			c0.1,0.3,0.3,0.6,0.5,0.7c0.2,0.2,0.5,0.5,0.7,0.7C52.1,98.8,52.3,98.4,52.7,98.1L52.7,98.1z M53.7,96.5c-0.7-0.1-1.2-0.9-1.7-1.3
			c0,0.5-0.2,0.9-0.3,1.3c0.5,0.5,0.8,0.9,1.3,1.4C53.2,97.5,53.4,97,53.7,96.5L53.7,96.5z M53.7,79.8c-0.2-0.1-0.3-0.3-0.5-0.5
			c-0.3-0.3-0.7-0.9-1-1.3c-0.1-0.1-0.2-0.3-0.3-0.3c0.1,0.7,0.2,1.3,0.3,2.1c0.5,0.7,1,1.3,1.6,1.7C53.7,81,53.6,80.4,53.7,79.8
			L53.7,79.8z M54.8,92.1c-0.3,0.1-0.6-0.1-0.9-0.3c-0.5-0.5-1.2-1.3-1.5-1.7c0.1,0.8-0.1,1.5,0.1,2.1c0.2,0.3,0.6,0.7,0.8,1
			c0.2,0.3,0.6,0.7,0.9,1c0.1,0.1,0.3,0.1,0.3,0.3c-0.6,0.2-1-0.3-1.3-0.7c-0.2-0.3-0.5-0.6-0.8-0.8c0,0.6-0.1,1.2-0.3,1.6
			c0.5,0.7,1,1.3,1.7,1.7c0.3-0.8,0.6-1.5,0.8-2.3C54.3,93.5,54.9,92.8,54.8,92.1L54.8,92.1z M54,82.4c-0.2-0.3-0.6-0.6-0.9-0.8
			c-0.3-0.3-0.6-0.6-0.8-0.8c0.1,0.5,0.2,1,0,1.3c0.3,0.5,0.6,0.9,1,1.4c0.3,0.5,0.7,0.9,0.9,1.4c-0.9-0.1-1.3-1.3-1.8-1.7v1.4
			c0.7,1,1.5,2,2.3,2.8c-0.1-1.4-0.5-2.9-0.6-4C54,82.9,54,82.7,54,82.4L54,82.4z M52.3,87.1c0.8,0.9,1.6,1.6,2.4,2.4
			c0-0.6-0.1-1.4-0.1-2.2c-0.1,0.1-0.2-0.1-0.3-0.1c-0.7-0.7-1.4-1.4-2-2.2C52.2,86.1,52.3,86.6,52.3,87.1L52.3,87.1z M54.8,90
			c-0.9-0.7-1.6-1.5-2.4-2.2v1.4c0.7,1,1.5,2,2.4,2.8C54.8,91.4,54.8,90.7,54.8,90L54.8,90z"/>
		<path class="st1" d="M97.3,97.3c-0.1,0.9,0,2,0,2.9c-0.1,1.3-0.1,2.6-0.1,3.9c0,0.1-0.2,0.2-0.3,0.1c0.1,0.5-0.3,0.3-0.8,0.3
			c-1,0-2.1-0.2-3.3-0.2l-2.8-0.1c-0.2-0.2,0.1-0.3,0.1-0.5c-0.9-0.5-1.6-1.3-2.5-2c0-0.1,0-0.2,0.1-0.3c0-0.1-0.3-0.1-0.3-0.2
			c0-1.8-0.1-3.8,0-5.6c0.1-2.3,0.1-4.6,0.1-6.9c0.1-0.7-0.1-1.4-0.1-2.2c0-2.5,0.5-5.3-0.5-7.8c-0.5-0.6-1-0.9-1.7-1.3
			c-0.5,0.1-0.9,0.2-1.3,0.5c-0.3,0.2-0.7,0.6-0.5,1c-0.2,0.3-0.5,0.7-0.5,1.2c-0.2,1.4-0.3,2.8-0.3,4.1c0,1.5-0.1,3.1-0.1,4.6
			c-0.1,1.7,0.1,3.5,0.1,5.2s-0.1,3.3-0.1,4.9c0.1,0.7,0.1,1.3,0.1,2c-0.1,0.8-0.2,1.6-0.3,2.4c-0.1-0.1-0.3,0-0.5,0.1
			c0,0.1-0.1,0.1,0,0.2c-0.5,0-0.9,0.1-1.4,0.2c-0.6,0-1.2,0-1.7-0.1h-3c-0.1-0.1,0-0.2-0.1-0.3c-0.5-0.3-0.8-0.7-1.3-1
			s-0.9-0.8-1.4-1.3c-0.2-0.3-0.2-0.6-0.2-1.3c-0.1-1.3-0.2-2.8-0.2-4.3c0-0.5,0-0.9,0-1.4c-0.1-0.9-0.2-2-0.2-2.9
			c0.1-0.7,0.2-1.4,0.2-2.1l0.2-3.3c0.1-1.3,0-2.5-0.2-3.8c0.1-0.1-0.1-0.2,0.1-0.2c-0.1-0.3-0.2-0.7-0.2-1c0-0.6-0.1-1.3-0.3-1.8
			c-0.1-0.2-0.3-0.3-0.3-0.7c-0.2-0.2-0.3-0.5-0.5-0.7c-0.1-0.2-0.3-0.2-0.6-0.5c-1.7-0.2-2.9,1.3-3,2.9c-0.1,1.6,0,3.2,0,4.9
			c0,1.4-0.2,3-0.3,4.5c-0.2,2.3-0.3,4.4-0.3,6.8c0,2.4,0.1,4.6,0,6.8c-0.2,0.1-0.3,0.2-0.5,0.5c-0.2,0-0.5,0.1-0.7,0.2
			c-1.3-0.1-2.6,0.1-4.3-0.1c-0.5,0-1,0-1.5-0.1c-0.2-0.1-0.5-0.3-0.7-0.6c-0.7-0.6-1.3-1.2-2-1.7c0-1.6,0.1-3.3-0.1-4.7L57.2,95
			c0-0.5-0.1-1-0.1-1.4c0-1.8,0.2-3.6,0.2-5.3c0-0.6-0.1-1.2-0.1-1.6c0-0.6,0-1.2-0.1-1.8c0.1-1.2,0.1-2.4,0-3.6
			c0.1-0.1,0-0.1,0.1-0.1c0-0.2-0.1-0.1-0.1-0.2c-0.1-1.2-0.2-2.3-0.3-3.6c-0.1-0.6-0.1-1.2,0-1.6c0-0.2,0.1-0.2,0.2-0.5
			c0-0.5,0-0.8,0-1.3c0-0.3-0.2-0.7-0.2-1c0-0.2,0.1-0.2,0.1-0.3c0.1-0.5-0.1-1,0.1-1.4c-0.1,0-0.2-0.3,0-0.2
			c-0.2-0.2,0-0.7,0.1-1.2c0.2,0,0.5-0.1,0.7-0.3c1,0.2,2.3,0,3.6,0.2l1.6,0.3c0,0.7,0.2,1.4,0.3,2.1c1.5-2.3,5.6-2.8,9-2.2
			c0.3,0,0.7,0.1,1,0.2c0.3,0.2,0.7,0.3,1,0.5c0.1,0.1,0.2,0.1,0.2,0.1l0.1,0.2c0,0,0.1,0,0.2,0.1c0.7,0.5,1.4,1.2,2.1,1.6
			c0.2-0.3,0.6-0.3,0.8-0.6l0.3-0.5c0.2-0.2,0.6-0.5,0.9-0.6l0.3-0.3c1-0.7,2.2-1.2,3.3-1.3c1.4-0.2,2.8-0.1,4.1,0.2
			c0.3,0.1,0.7,0.1,1,0.3c0.3,0.1,0.7,0.2,1,0.3c0.8,0.3,1.5,0.7,2.2,1c0.3,0.1,0.6,0.2,0.8,0.5c0.5,0.3,0.8,0.7,1.2,1.2
			c0.8,0.7,1.5,1.6,2,2.5c0.9,1.6,1.5,3.2,1.8,5.1c0.2,1.4,0.1,2.8,0.2,4.4C97.7,89.4,97.5,93.2,97.3,97.3z M87.9,101
			c1.3,0.1,2.5,0.1,3.7-0.1c0.8,0.1,1.6,0.1,2.3,0c-0.1-1.2-0.1-2.4,0-3.6c0-0.7-0.2-1.5-0.2-2.3c0-1.8,0.2-3.7,0.3-5.4
			c-0.1-1.5-0.1-2.9,0-4.4c-0.1-1.4,0.1-3,0-4.5c-0.1-1.2-0.2-2.3-0.3-3.5C93.5,76,93,75,92.4,74.1c-0.1-0.1,0.2-0.1,0.1-0.2
			c-0.5-0.8-1.2-1.5-2-2.1c-1.4-0.6-2.9-1-4.4-1.4c-3.1-0.2-4-0.3-6.6,1.3c-0.6,0.1-1,0.6-1.3,1c-0.3,0.1-0.6,0.3-1,0.6
			c0,0.2-0.1,0.5-0.3,0.6c-0.5-0.6-1-1-1.6-1.4c-0.5-0.5-0.9-0.8-1.4-1c-0.1-0.1-0.2-0.1-0.3-0.1l-0.3-0.2c-0.8-0.2-1.7-0.3-2.6-0.3
			c-0.6-0.1-1.2-0.1-1.7-0.1c-2,0.2-4.4,0.3-5.3,2.8c-0.2,0-0.5,0-0.7,0c-0.2-1-0.5-1.6-0.6-2.5c-1.6-0.2-3.1-0.2-4.7-0.2
			c0.1,3.8-0.3,7.3,0.2,10.8c-0.2,0.6,0.1,1.2-0.1,1.8c0.1,1,0.2,2.2,0.1,3.2v5.5c0,0.9-0.1,1.8,0,2.6c0,0.5,0.1,0.9,0.1,1.4
			c0,0.3,0.1,0.7,0.2,1c0.1,1.2-0.1,2.8,0,4c2.2-0.1,3.9,0.2,6.1,0c-0.1-1.5,0.1-3-0.1-4.6c-0.1-2-0.1-3.8,0-5.9c0-1,0.1-2,0.1-2.8
			c0-1.2,0-2.2,0.1-3l0.2-1.5c0.1-0.8,0.1-1.7,0-2.5c0-0.9,0.2-1.8,0.6-2.6c0.5-0.7,1-1.2,1.7-1.5c0.7-0.3,1.5-0.5,2.3-0.3
			c0.2,0.1,0.2-0.2,0.3-0.1c0.2,0.1,0.7,0.2,1.2,0.3c0.3,0.2,0.5,0.5,0.7,0.6c0.9,1,1.5,2.4,1.5,3.8l0.2,1.5
			c0.1,2.5,0.1,5.1-0.2,7.6c-0.1,1.4-0.1,2.5,0,3.8c0.1,2.2-0.1,4.8,0.2,6.8c2.2,0,3.9,0.1,6.1,0c0.1-2.1-0.1-4.5,0-6.7
			s-0.1-4.5-0.1-6.8v-4.9c0-0.6-0.1-1.3-0.1-1.8s0.2-1,0.2-1.4c0.3-0.1,0.2-0.5,0.5-0.8s0.8-0.7,1.3-1s0.9-0.6,1.5-0.8
			c0.2-0.1,0.6,0,0.8-0.1c1.2-0.1,2.4,0.2,3.3,1c0.1,0.1,0.2,0.2,0.3,0.3l0.5,0.5c0.3,0.8,0.6,1.7,0.6,2.5c0,2.4,0.1,5.3,0,8.1
			c-0.1,2.2,0,4.1-0.1,6.3C87.9,97.5,87.9,99.2,87.9,101L87.9,101z M61.7,103.5c-0.3-0.6-0.9-1-1.3-1.6c-0.5,0-1,0-1.5,0
			C59.7,102.4,60.3,103.6,61.7,103.5z M63.3,103.6c-0.5-0.5-0.9-1-1.4-1.6c-0.5,0-0.8,0-1.3-0.1C61.4,102.6,61.7,103.7,63.3,103.6
			L63.3,103.6z M64.3,103.6c-0.5-0.5-1-1.2-1.4-1.6h-0.7c0.3,0.7,1,1,1.5,1.6C64,103.6,64.2,103.6,64.3,103.6L64.3,103.6z
			 M66.4,103.5c-0.6-0.5-1.2-1.2-1.6-1.6c-0.3,0.1-0.8,0.1-1.2,0.1c0.5,0.6,0.9,1,1.4,1.6C65.5,103.6,65.9,103.7,66.4,103.5
			L66.4,103.5z M66.7,94.4c-0.6-0.7-1.2-1.4-1.7-2.1c0,0.3-0.1,1-0.1,1.6c0.6,0.7,1.2,1.3,1.7,1.8L66.7,94.4z M66.8,92.4
			c-0.7-0.7-1.3-1.4-1.8-2.2v1.3c0.6,0.8,1.2,1.5,1.8,2.2C66.7,93.4,66.7,92.9,66.8,92.4z M66.7,96.3c-0.6-0.6-1.3-1.2-1.8-1.7
			c0,0.9,0.1,1.4,0.1,2.3c0.3,0.6,0.9,1,1.3,1.5c0.1,0.1,0.2,0.3,0.1,0.5c-0.3,0.1-0.5-0.3-0.7-0.6L65,97.6c-0.1,0.5,0.1,0.9,0,1.4
			c0.5,0.7,1,1.4,1.6,1.8C66.8,99.5,66.6,98,66.7,96.3z M66.7,101.5c-0.1-0.3-0.6-0.6-0.8-0.9l-0.8-1c-0.1,0.6-0.1,1.3,0,1.8
			c0.5,0.3,0.9,0.9,1.3,1.2c0.1,0.1,0.2,0.3,0.3,0.3C66.7,102.4,66.8,102,66.7,101.5z M67.1,89.8c-0.7-0.6-1.4-1.3-2-2
			c-0.1,0.6,0,1.3-0.1,2c0.7,0.7,1.2,1.5,1.8,2.2C66.8,91.2,67,90.5,67.1,89.8L67.1,89.8z M67.2,87.8c-0.7-0.7-1.3-1.6-2.1-2.3
			c0,0.6,0,1,0,1.6c0.6,0.8,1.3,1.5,2,2.1C67.1,88.8,67.2,88.3,67.2,87.8L67.2,87.8z M67.3,85.5c-0.8-0.7-1.5-1.4-2.1-2.3L65,84.8
			c0.8,0.7,1.4,1.7,2.2,2.4C67.2,86.8,67.3,86.1,67.3,85.5L67.3,85.5z M67.3,85.2c-0.1-0.9-0.1-2.1-0.1-2.9c-0.7-0.5-1.4-1-2-1.7
			c-0.1,0.7-0.1,1.4,0,2.1C66,83.5,66.5,84.5,67.3,85.2L67.3,85.2z M67.3,80.2c-0.1,0.1-0.1,0.1-0.1,0.1c-0.6-0.3-0.9-1-1.4-1.6
			c-0.2,0.5-0.3,0.9-0.5,1.4c0.1,0,0.1,0.1,0.2,0.1c0.5,0.7,1,1.3,1.6,1.8C67.3,81.4,67.3,80.8,67.3,80.2L67.3,80.2z M68,78.6
			c-0.3-0.2-0.6-0.7-0.9-1c-0.3,0.2-0.6,0.5-0.9,0.7c0.3,0.6,0.8,1.2,1.3,1.6C67.5,79.4,67.8,79,68,78.6L68,78.6z M70,77.2
			c-0.8-0.2-1.6-0.2-2.3,0.1c0.1,0.3,0.3,0.7,0.6,1C68.7,77.8,69.3,77.4,70,77.2L70,77.2z M77.1,103.5c-0.7-0.6-1.3-1.3-1.8-2
			c-0.5,0.1-1.2-0.1-1.4,0c0.7,0.7,1.5,1.3,2.3,1.8c0.1,0,0.1,0.2,0.2,0.2S76.9,103.5,77.1,103.5L77.1,103.5z M79.3,103.5
			c-0.8-0.6-1.5-1.3-2.2-2h-1.3l1,1.2c0.3,0.3,0.7,0.8,1,0.9C78.2,103.7,78.8,103.4,79.3,103.5L79.3,103.5z M81.6,103.3
			c-0.7-0.5-1.4-1-1.8-1.8c-0.2,0.1-0.3-0.1-0.6,0c0.2,0.3,0.6,0.7,0.8,1c0.2,0.2,0.6,0.3,0.6,0.7c-0.8-0.3-1.4-0.9-1.8-1.7
			c-0.2,0-0.6,0-0.8,0c0.5,0.7,1.2,1.2,1.6,1.8c0.1,0.1,0.1-0.1,0.2,0.1c0.1,0.1-0.1,0.1-0.1,0.2C80.3,103.6,80.9,103.5,81.6,103.3
			L81.6,103.3z M82.3,82.8c-0.1-0.1-0.1,0.1-0.3,0c-0.7-0.8-1.3-1.8-2.1-2.6c-0.1,0.6-0.1,1.2,0,1.6c0.9,0.9,1.5,2,2.3,2.8
			L82.3,82.8z M82.3,85.1c-0.9-0.7-1.7-1.5-2.4-2.4c0,0.6,0.1,1.2,0.1,1.8c0.5,0.7,1.2,1.3,1.7,1.8c0.2,0.2,0.3,0.5,0.5,0.7L82,87.2
			c-0.7-0.6-1.3-1.4-2-2.1v1.8l1,1.2c0.3,0.5,0.9,0.8,0.9,1.3c-0.6-0.2-1.2-0.7-1.5-1.3c-0.1-0.1-0.2-0.3-0.5-0.3
			c0,0.6,0.1,1.2,0.1,1.6c0.7,0.9,1.4,1.7,2.2,2.5C82,89.6,82.3,87.4,82.3,85.1L82.3,85.1z M82.3,100.3c-0.1-0.6-0.1-1.2-0.1-1.7
			c-0.9-0.5-1.5-1.6-2.2-2.3c0.1,0.7,0,1.3,0.1,1.8l1.7,1.6C81.9,99.8,82.2,100.3,82.3,100.3L82.3,100.3z M82.2,95.1v-2.9
			c-0.1-0.1-0.2,0.1-0.3,0c-0.7-0.7-1.3-1.4-1.8-2.2c-0.1,0.8-0.1,1.7,0,2.5C80.8,93.5,81.5,94.3,82.2,95.1L82.2,95.1z M80.1,95.4
			c0.7,0.9,1.4,1.8,2.2,2.6c-0.1-0.8,0-1.6,0-2.8c-0.8-0.5-1.4-1.4-2.2-2C80.1,94.2,80,94.7,80.1,95.4L80.1,95.4z M82.3,100.8
			c-0.7-0.7-1.5-1.4-2.2-2.1c0,0.2,0,0.6,0,0.8l2,2.1v0.1c-0.5-0.1-0.7-0.5-1-0.7c-0.2-0.3-0.6-0.6-0.9-0.8c0,0.3,0,0.7,0,1
			c0.6,0.7,1.2,1.3,2,1.6C82.2,102.2,82.3,101.5,82.3,100.8L82.3,100.8z M82.5,80.5c-0.6-0.6-1-1.5-1.6-2c-0.3,0.2-0.6,0.7-0.7,1
			c0.7,1,1.4,2.1,2.1,3C82.3,81.7,82.4,81,82.5,80.5L82.5,80.5z M82.8,78.9c-0.3-0.5-0.7-0.7-0.9-1.2c-0.2,0.2-0.6,0.2-0.6,0.5
			c0.5,0.6,0.8,1.2,1.3,1.6C82.7,79.4,82.8,79.1,82.8,78.9L82.8,78.9z M84.7,77.2c-0.7-0.2-1.5-0.1-2.2,0.1c0.2,0.3,0.5,0.7,0.7,0.9
			C83.5,77.8,84,77.4,84.7,77.2L84.7,77.2z M91.7,103.7c-0.8-0.6-1.5-1.3-2.1-2.1c-0.5,0.1-0.9,0-1.3,0.1c0.5,0.3,0.9,0.7,1.3,1.2
			C90.2,103.4,90.9,103.7,91.7,103.7L91.7,103.7z M93.7,103.8c-0.6-0.7-1.4-1.5-2.1-2.2c-0.5,0-0.9,0-1.4,0.1
			c0.7,0.7,1.5,1.4,2.1,2.1C92.7,103.7,93.2,103.8,93.7,103.8L93.7,103.8z M96,104.1c-0.7-0.7-1.3-1.5-1.7-2.3
			c-0.5-0.3-1.4-0.1-2-0.2c0.5,0.9,1.4,1.5,1.8,2.4C94.8,103.9,95.4,104.1,96,104.1L96,104.1z M93,73.9c0.5,0.9,1.2,1.5,1.3,2.8
			c0.1,0,0.1-0.2,0.3-0.1c0.3,0.7,0.9,1.3,1.4,2c-0.5-1.4-1.3-2.8-2.2-3.9C93.4,74.4,93.2,73.9,93,73.9L93,73.9z M96.1,78.9
			c-0.7,0-1.2-1.3-1.7-1.6c0.1,0.6,0.2,1.5,0.2,2.4c0.8,0.6,1.4,1.5,2.2,2.2C96.7,80.8,96.4,79.8,96.1,78.9L96.1,78.9z M96.9,95.1
			c-1-0.6-1.8-1.5-2.4-2.5c0,0.6,0,1.3-0.1,1.8c0.8,1,1.6,2,2.4,2.8C96.9,96.3,96.9,95.8,96.9,95.1L96.9,95.1z M96.9,97.7
			c-0.2-0.2-0.3-0.5-0.6-0.6c-0.6-0.7-1.4-1.5-1.8-2.1c0.1,0.7,0,1.2,0.1,2c0.7,1,1.5,2.1,2.3,2.9C96.7,99.1,97.1,98.3,96.9,97.7
			L96.9,97.7z M96.9,100.5c-0.9-0.8-1.7-1.7-2.4-2.8c0,0.6,0,1.3,0,1.8c0.7,0.8,1.5,1.6,2.3,2.3C96.8,101.4,96.8,101,96.9,100.5
			L96.9,100.5z M97,89.7c-0.2,0-0.2,0.1-0.3,0.1c-0.8-0.7-1.5-1.5-2.2-2.4c0,0.6,0.1,1.3,0.1,2.1c0.6,0.6,1,1.2,1.6,1.6
			c0.2,0.1,0.3,0.3,0.6,0.6c0,0.1-0.1,0.2-0.2,0.2c-0.1,0-0.5-0.3-0.5-0.5L94.6,90l-0.1,2c0.2,0.1,0.2-0.1,0.2-0.1
			c0.5,0.8,1,1.5,1.6,2.2c0.1,0.2,0.3,0.6,0.6,0.6C97,93,97.1,91.4,97,89.7L97,89.7z M96.7,102.6c-0.8-0.7-1.5-1.5-2.2-2.2
			c0,0.3,0.1,0.7,0.1,1c0.5,0.7,0.9,1.4,1.5,2.1c0.2,0.2,0.3,0.5,0.7,0.5C96.8,103.5,96.7,103,96.7,102.6L96.7,102.6z M94.9,84.7
			c0.6,0.8,1.3,1.6,2,2.3c0-0.8,0-1.6-0.1-2.4c0,0.1-0.1,0.2-0.2,0.2c-0.7-0.7-1.4-1.5-2-2.3c0,1.4-0.1,2.6-0.1,4.3h0.2
			c0.5,0.7,0.9,1.4,1.4,2.1c0.3,0.1,0.3,0.6,0.7,0.6v-2.1c-0.1-0.1-0.1,0.1-0.2,0c-0.6-0.3-1-0.8-1.3-1.4
			C95.2,85.5,94.5,84.8,94.9,84.7L94.9,84.7z M96.7,82.2c-0.7-0.6-1.3-1.4-2-2c0,0.5,0.1,1,0.1,1.5l2.2,2.6c0-0.7-0.1-1.5-0.1-2.2
			C96.8,82.1,96.8,82.3,96.7,82.2z"/>
		<path class="st1" d="M99.3,94.5c-0.1-0.5-0.1-0.9,0-1.3c0-0.5,0-0.9,0.1-1.4c0.3-1.7,1-3.2,2.2-4.6c0.2-0.1,0.2,0.1,0.2,0
			c2.6-2.2,5.8-3.7,9-4.5c1-0.5,2.1-0.8,3.1-1c0.2-1.2,0.3-3-0.6-3.6c-0.2-0.1-0.6-0.2-0.8-0.3s-0.5-0.2-0.7-0.3
			c-0.8,0-1.7,0.2-2.4,0.6c-1.2,0.8-2,2.1-2,3.5c0,0.3,0.1,0.7-0.1,1c0.1,0.1,0.1,0.3,0,0.5c-1.8,0.1-3.1,0.1-5.2,0.2
			c0-0.1-0.1-0.2,0-0.3c-0.5-0.5-0.9-1-1.4-1.5c-0.3,0-0.3-0.1-0.6-0.1c0.2,0.3,0.5,0.6,0.7,0.8c0.3,0.3,1,0.6,0.7,1
			c-0.5-0.1-0.8-0.3-1-0.7l-1-1c-0.1-0.1-0.1-0.2,0-0.3l0,0c-0.1,0-0.3,0-0.3-0.2c0-1.3,0.1-2.5,0.2-3.8c0.1-1.3,0.7-2.5,1.6-3.6
			c0.6-0.7,1.3-1.4,2-2c0.2-0.2,0.5-0.5,0.7-0.6c0.1-0.1,0.3-0.1,0.5-0.2c0.1-0.1,0.3-0.2,0.5-0.3c0.3-0.1,0.7-0.2,1-0.3
			c1.3-0.3,2.6-0.6,3.9-0.6c1.6,0,3.3,0.3,4.8,0.8c0.6,0.2,1.2,0.5,1.6,0.7c0.6,0.2,1,0.6,1.5,1h0.3c1.6,0.8,2.9,2,3.9,3.5
			c0.8,1.8,1.3,3.8,1.2,5.8l0.2,4.3c0.2,2.8-0.1,5.4,0.1,8.1l0.2,2.2c0,2.3,0.1,5.1,0.1,7.3c-0.1,0.1-0.2,0.1-0.3,0.3
			c-0.2-0.1-0.2-0.2-0.3-0.2c-1,0.1-2.1,0.1-3,0.1c-0.7,0.1-1.4,0.5-2.2,0.2c-0.1-0.1,0.2-0.2,0.1-0.3c-0.5-0.7-1.3-1.2-1.7-1.7
			c0.1-0.5-0.3-0.7-0.5-1.2c-0.7,1.5-1.8,2.6-3.5,3.2c-0.3,0.1-0.6,0.2-0.8,0.3c-0.6,0.1-1.3-0.1-1.7,0.3c-0.5-0.1-1.4-0.1-2.2-0.2
			c-3.1-0.5-4.6-2.9-6.8-4.6c0-0.1,0.1-0.1,0.1-0.2l-0.6-0.8c-0.1-0.1,0-0.1-0.1-0.2c0,0-0.1,0-0.1-0.1c-0.5-0.8-0.7-1.6-0.8-2.5
			v-0.5C99.4,94.9,99.3,94.7,99.3,94.5z M99.9,95v0.6c0.1,0.9,0.6,1.8,1.2,2.6l0.3,0.6c0.5,0.5,1,0.9,1.6,1.3l0.9,0.6
			c0.9,0.6,2.1,0.9,3.1,1.2c0.5,0,0.9,0,1.4-0.1c0.7,0,1.3,0,2-0.2c1.5-0.2,2.9-0.8,4-1.6c0.2-0.2,0.5-0.3,0.6-0.5s0.3-0.7,0.3-0.7
			c0.5-0.1,0.5,0.7,0.6,1c0.2,0.3,0.3,1,0.6,1.3c1.5,0.2,2.9,0.3,4.4,0.3c-0.1-0.3-0.2-0.6,0-0.8c-0.1-1-0.1-2.1-0.1-3.1
			c0-0.6-0.2-1.3-0.2-2c0.1-1.7,0-3.7,0.1-5.4V88c0-0.5,0.1-0.9,0.1-1.4l-0.1-4.1c-0.1-0.7,0-1.5-0.1-2.2c0-1.5-0.2-3-0.7-4.5
			l-0.1-0.3c-0.2-0.5-0.5-1-0.9-1.4c-0.6-0.7-1.3-1.3-2.1-1.8c0,0.1,0,0.1-0.1,0.1c-0.9-0.7-2.1-1-3.2-1.2c-0.3-0.2-0.9-0.2-1.3-0.5
			c-0.7-0.1-1.4-0.2-2.1-0.2c-0.5,0-0.9,0.1-1.4,0.2c-1,0-2.1,0.1-3,0.6c-0.8,0-1.4,0.7-2.1,0.9l-1.5,1.4l-0.3,0.3
			c-1.6,1.5-2.1,4.1-2.2,7c2,0.1,3.9,0.3,6,0.3c-0.1-0.7,0-1.5,0.2-2.2c0.1-0.2,0.2-0.3,0.2-0.6c0.6-1.2,1.6-2.1,2.9-2.4
			c1.8-0.6,3.2,0.5,4.5,1.3L114,78c0.6,1.2,0.7,2.4,0.5,3.7c0.7,0.5-0.3,0.8-0.6,0.9c-2,0.3-3.7,1.3-5.6,1.8c-1.5,0.6-3,1.3-4.4,2.1
			c-0.7,0.6-1.5,1.2-2.2,1.7c-0.1,0.3-0.5,0.6-0.6,0.9c0,0.1-0.1,0.2-0.1,0.3c-0.1,0-0.2,0.1-0.3,0.2c-0.6,1.2-0.9,2.4-0.9,3.7
			C99.8,93.7,99.8,94.4,99.9,95L99.9,95z M103.6,82.8c-0.3-0.3-0.9-0.7-0.8-1.3c-0.6,0.1-1-0.1-1.4,0c0.3,0.5,0.7,0.9,1.2,1.3
			C102.8,82.8,103.3,82.9,103.6,82.8L103.6,82.8z M107.1,82.7c-0.5-0.3-0.9-0.7-1.3-1c-0.5,0-0.8,0-1.3,0c0.3,0.3,0.6,0.7,0.7,1
			c-0.6,0.2-0.8-0.7-1.3-1c-0.2-0.1-0.6-0.1-0.9-0.1c0.3,0.2,0.6,1,1,1.2c0.6,0,1.2,0,1.7-0.2C106.2,82.7,106.7,82.7,107.1,82.7z
			 M109.1,103.7c-0.5-0.3-0.9-1.3-1.5-1.4c-0.3-0.1-0.9,0-1.3-0.2c0.2,0.3,0.8,0.6,1,1.2c-0.1-0.1-0.1,0.1-0.2,0.1
			c-1.2-0.7-1.8-1.7-3.3-2.2c-0.1-0.2-0.3-0.2-0.6-0.2C104.7,102.3,106.3,103.6,109.1,103.7z M107.2,80.1c-0.5-0.3-0.6-0.8-0.9-1.2
			c-0.5,1-0.5,2.6,0.6,3C107,81.4,107.1,80.7,107.2,80.1L107.2,80.1z M106.2,93.4c-0.1-0.3-0.2-0.8-0.1-1.3c0.1-0.6,0.2-1.2,0.6-1.6
			v-0.4c1.8-2,4.6-2.4,7.5-3.2c0.1,0.1,0.1,0.5,0.2,0.6c-0.2,2,0.5,4.4-0.3,6c-0.6,1.3-2,1.6-3.2,2.3c-1.3,0.1-2.5-0.2-3.6-0.9
			c-0.1-0.1-0.1-0.2-0.2-0.2c-0.1,0-0.2-0.2-0.3-0.2C106.6,94.2,106.3,93.8,106.2,93.4L106.2,93.4z M108.3,78.4
			c-0.2-0.3-0.5-0.7-0.8-1c-0.3,0.3-0.6,0.7-0.9,1.2c0.2,0.5,0.5,0.8,0.8,1.3C107.7,79.2,107.9,78.7,108.3,78.4L108.3,78.4z
			 M106.7,92.4c0,1.3,0.8,2.3,2,2.5c-0.1-0.3-0.3-0.7-0.2-1.2C107.6,93.7,107.2,92.9,106.7,92.4L106.7,92.4z M106.8,91.9
			c0.3,0.5,0.8,0.9,1.2,1.4c0.1,0.1,0.2,0.3,0.5,0.3c0.1-0.6,0.2-1,0.3-1.5c-0.6-0.5-1-1-1.5-1.5C107.1,91.1,106.8,91.3,106.8,91.9
			L106.8,91.9z M107.6,90.1c0.3,0.6,0.8,1.2,1.4,1.5c0.1-0.2,0.3-0.5,0.5-0.7c-0.3-0.5-0.7-0.8-1.2-1.2
			C108,89.9,107.8,90,107.6,90.1L107.6,90.1z M109.4,77.7c-0.3-0.2-0.3-0.8-0.7-1c-0.2,0.2-0.7,0.2-0.8,0.5c0.2,0.3,0.6,0.7,0.7,1
			L109.4,77.7z M110.9,103.5c-0.3-0.5-0.8-0.8-1.3-1.2c0-0.1,0.1-0.2,0.1-0.2c-0.5,0-0.9,0.1-1.4,0.1c0.5,0.6,0.9,1,1.5,1.5
			C110.2,103.7,110.6,103.6,110.9,103.5L110.9,103.5z M111.6,89c-0.2,0.2-0.6,0.6-0.9,0.9c-0.9,0.9-1.6,2.2-1.8,3.6
			c-0.1,0.7,0.1,1.7,0.6,1.8c0.6,0.1,1.2,0,1.6-0.1c0.3-0.1,0.7-0.3,1-0.6c0.6-0.2,1-0.6,1.4-1c0.7-1.6,0.2-4.1,0.3-5.8h-0.1
			C113,88.1,112.3,88.4,111.6,89L111.6,89z M109,89.4c0.2,0.3,0.6,0.8,0.9,1.2c0.2-0.5,0.7-0.8,0.8-1.3c-0.2-0.1-0.6-0.2-0.8-0.3
			C109.5,89.2,109.1,89.2,109,89.4L109,89.4z M110.6,77.4c-0.1-0.3-0.6-0.6-0.5-1c-0.3,0-0.6,0.1-0.9,0.2l0.6,1
			C110,77.4,110.3,77.4,110.6,77.4L110.6,77.4z M112.8,103l-1.4-1.2c-0.5,0-0.8,0.1-1.3,0.3c0.6,0.5,1,0.9,1.5,1.4L112.8,103z
			 M113,77.5c-0.7-0.5-1.5-0.8-2.3-1c0.1,0.3,0.3,0.5,0.5,0.7C111.7,76.9,112.4,77.4,113,77.5L113,77.5z M110.6,88.8
			c0.1,0.1,0.2,0.3,0.3,0.2c0.2-0.3,0.6-0.5,0.8-0.7C111.4,88.4,111,88.5,110.6,88.8z M115.4,99.5c-0.2,0.5-1,0.9-1.4,1.2l-0.1,0.2
			c0,0.1-0.2,0-0.3,0.1c-0.6,0.3-1,0.6-1.7,0.7c0.3,0.5,0.9,0.8,1.3,1.3c0.3-0.2,0.7-0.5,0.9-0.7c-0.3-0.3-0.7-0.6-1.2-0.8
			c0.3-0.6,1,0.2,1.4,0.5C114.7,101.2,115.6,100.4,115.4,99.5z M119.1,103.3c-0.3-0.6-0.8-1-1.2-1.5c-0.2-0.1-0.6-0.1-0.8-0.1
			C117.6,102.3,118.3,102.8,119.1,103.3L119.1,103.3z M122.5,102.9c-0.5-0.3-1-0.7-1.5-1.2c-0.3,0.1-0.6-0.1-1,0.1
			c0.2,0.3,0.5,0.6,0.7,0.9c-0.6,0.1-0.8-0.7-1.3-1c-0.3,0-0.7,0-1,0c0.3,0.5,0.7,0.9,0.9,1.4C120.6,102.8,121.5,103.1,122.5,102.9
			L122.5,102.9z M119.6,73.8c0.5,0.7,0.8,1.5,0.9,2.3c0.9,0.3,1.2,1.3,1.7,1.8C122,76.3,120.9,74.8,119.6,73.8L119.6,73.8z
			 M122.4,78.7c-0.7-0.6-1-1.5-1.7-2.1c0.1,0.6,0.1,1.2,0.2,1.6c0.1,0,0.2,0,0.3,0.1c0.5,0.7,0.9,1.4,1.4,2.2
			c-0.7-0.1-1-1.2-1.5-1.7c0,0.5,0.1,0.6,0.1,1.2c0.2,0.3,0.6,0.7,0.8,1.2s0.6,0.8,0.7,1.3c-0.2,0.1-0.2,0-0.3,0
			c-0.3-0.6-0.8-1.2-1.3-1.6c0,0.3,0,0.7,0,1c0.7,0.6,1.2,1.6,1.8,2.2C122.9,82.3,122.7,80.5,122.4,78.7z M123,93.9
			c0-0.8,0-1.5-0.1-2.3c-0.6-0.8-1.3-1.5-1.8-2.3c-0.1,0.8,0.1,1.4-0.1,2.2c0.2,0,0.2,0.1,0.3,0.1C121.9,92.4,122.4,93.2,123,93.9
			L123,93.9z M123.1,94.5c-0.9-0.7-1.3-1.7-2.1-2.4c0.1,0.6,0.1,1.4,0.1,2.1c0.1,0.1,0.2,0.1,0.2,0.1c0.6,0.7,1.3,1.5,1.8,2.2
			C123.1,95.7,123.1,95.1,123.1,94.5L123.1,94.5z M122.9,85.9c0-0.5-0.1-1-0.1-1.5c-0.7-0.5-1.2-1.3-1.7-2c0,0.5,0.1,0.7,0.1,1.2
			C121.9,84.3,122.2,85.3,122.9,85.9L122.9,85.9z M123.1,96.7c-0.7-0.3-1.3-1.5-2-2.1c-0.1,0.6-0.1,1.2,0,1.8c0,0.1,0.1,0,0.2,0
			l1.8,2.4C123.2,98.4,123.2,97.4,123.1,96.7L123.1,96.7z M123,88.9c-0.1-0.2-0.3-0.5-0.5-0.7c-0.3-0.5-0.9-0.9-1.3-1.4
			c0.1,0.8-0.1,1.5,0,2.2l0.2-0.1c0.5,0.7,0.9,1.4,1.5,2C122.8,90.1,123.1,89.4,123,88.9L123,88.9z M123,88.2c0-0.6,0-1.2-0.1-1.7
			c-0.6-0.7-1.2-1.6-1.7-2.2v2C121.9,86.9,122.4,87.5,123,88.2L123,88.2z M123.2,99.1c-0.8-0.5-1.3-1.5-2-2.1c0,0.6,0,1,0,1.6
			c0.1,0,0.1-0.2,0.3-0.1c0.7,0.7,1.2,1.6,1.7,2.3C123.2,100.4,123.2,99.7,123.2,99.1L123.2,99.1z M123.4,102.8
			c-0.1-0.7,0-0.8-0.1-1.6c-0.8-0.7-1.2-1.7-2-2.4c-0.1,1,0.2,1.6,0.1,2.5C122.1,101.8,122.7,102.3,123.4,102.8L123.4,102.8z"/>
		<path class="st1" d="M149,74.5c0,0.2-0.2,0.2-0.2,0.3c-0.2,1.4-0.3,3.2-0.3,4.6c0,0.1-0.2,0.1-0.2,0.1c-1.8,2.5-3.5,5.2-5.2,7.8
			c-0.9,1.3-1.8,2.5-2.6,3.9c-0.8,1.4-2,2.4-2.8,3.7c2.4,0.1,4.5,0.1,6.8,0.1c0.6,0,1.2,0,1.6,0.1c0.2,0.1,0.5,0.5,0.7,0.6
			c0.6,0.7,1.4,1.2,2.1,1.7c-0.2,2,0.1,4.3-0.1,5.9c0.2,0,0.2,0.2,0.1,0.5c-1.5,0.2-2.9,0.3-4.4,0.2c-1.7-0.1-3.6-0.1-5.3-0.1
			c-2.6,0.1-5.4,0.1-7.6,0.1c-0.6,0-1.3,0-1.8,0.3c-1.4-1-2.8-2.1-4-3.1c-0.1-2-0.1-3.8,0-5.8c0-0.1-0.2-0.1-0.2-0.2
			c0.7-1.4,1.7-2.6,2.4-4c0.3-0.7,0.8-1.4,1.3-2l6.4-9.8c-0.7-0.1-1.3-0.1-2-0.1c-1,0-2.2,0-3.2,0.1c-0.1,0-0.2,0.1-0.3,0.1
			s-0.5-0.2-0.7-0.2s-0.3,0.1-0.5,0.1c-0.6-0.2-1.2-0.6-1.5-1.2c-0.5-0.3-0.9-0.8-1.4-1.2c0.1-0.2-0.1-0.3-0.2-0.5
			c0-2-0.2-3.7-0.1-5.8c0.2-0.2,0.3-0.2,0.3-0.5c6.4-0.2,12.9,0,20.1,0.2c0.8,1.3,1.7,2.4,2.8,3.5C148.9,74.3,148.9,74.4,149,74.5z
			 M134.2,95.7c-0.1-0.3-0.3-0.3-0.3-0.6c0.1-0.5,0.3-0.8,0.6-1.2c0.2-0.5,0.6-0.8,0.7-1.2c1.5-2.3,3.2-4.3,4.7-6.4
			c0.5-0.7,0.9-1.5,1.4-2.3c1.6-2.2,3-4.4,4.4-6.7c-0.1-0.2,0.1-0.2,0.1-0.3c0-0.2-0.2-0.1-0.1-0.2c0.5-1.8,0-4,0-5.6
			c-0.9,0.1-1.5-0.2-2.1,0.1c-1-0.1-2.2-0.1-3.2-0.1c-0.6,0-1.3,0-1.8,0c-3.7,0-8.1-0.5-12.2-0.1c-0.1,0.8-0.1,1.6,0,2.3
			c0,0.6,0.2,1.2,0,1.5c0.1,0,0.1,0.1,0.1,0.2c0.1,0.5,0.1,1,0.1,1.5c3.2-0.1,7.3,0.3,10.5,0.3c0.2,0.2,0.6,0,0.7,0.3
			c0.1,0.3-0.5,0.9-0.7,1.3c-0.2,0.5-0.6,0.8-0.9,1.3c-0.5,0.9-1,1.8-1.7,2.8l-1.6,2.8c-0.2,0.3-0.6,0.6-0.8,1
			c-0.1,0.1,0,0.2-0.1,0.3c-0.5,0.6-0.9,1.3-1.3,1.8c-0.2,0.3-0.6,0.7-0.8,1c-0.1,0.2-0.2,0.5-0.3,0.7c-0.7,1.2-1.4,2.3-2.2,3.5
			c-0.2,0.5-0.8,1-0.9,1.4c0,0.2-0.1,0.5-0.1,0.7c-0.1,1.7-0.1,3.6,0.1,5.3c4.8-0.1,9.6,0,14.6,0c1.6,0.1,3.1,0.1,4.7,0
			c0.3-1.8,0.3-3.7,0.1-5.4C142.2,95.5,138,95.5,134.2,95.7z M129.8,78.6c-0.5-0.5-0.9-0.8-1.3-1.3c-0.5-0.1-0.9,0-1.3-0.1
			c0.1,0-0.2,0.1-0.3,0.1c0.6,0.6,1.3,1.2,2.1,1.5C129.2,78.6,129.6,78.7,129.8,78.6z M132,103.6c-0.8-0.6-1.7-1.2-2.5-1.8
			c-0.6,0.1-1.6,0-2.2,0.1c0.8,0.6,2,1,2.8,1.6c0.1,0.1,0,0.1,0,0.3C130.6,103.7,131.4,103.7,132,103.6z M143.8,58
			c0.2,0.6,0.2,1.4,0.8,1.6v0.3c-0.7,0.2-0.7,1-1.3,1.4l-0.3,0.5c-1.2,1.2-2,2.6-2.4,4.3c-0.2,0-0.2,0.1-0.3,0.1
			c0.2,0.2,0.1,0.2,0.1,0.5c-0.5,0.3-1,0.6-1.6,0.7h-1.5c-0.8-0.1-1.6-0.1-2.4,0c-0.2-0.8-1-1.2-1.6-1.6v-0.3l-0.2-0.3
			c-0.3-1.7-1.3-3.3-2.5-4.6c-0.8-0.9-1.6-1.8-2.4-2.6c-0.2-0.2,0.1-0.2,0.1-0.5c0.6,0,1-0.5,1.8-0.5c0.7,0,1.3,0,2-0.1
			c0.5,0,0.6,0.1,0.9-0.1c0.3-0.2,0.9,0.6,1,0.8c0.3,0.2,0.6,0.6,0.9,0.9c0.5,0,1.3,0.8,1.5,1.3c0.7-0.9,1.4-1.7,2.2-2.4
			c1.4,0.2,2.8,0.2,4,0.1c0.5,0,0.8,0,1.3,0V58H143.8z M133.7,65.2c1.5-0.2,3.1,0,4.7-0.3c0.2-0.2,0.3-0.5,0.3-0.7
			c0.5-0.5,0.7-1,0.8-1.6c0.8-1.6,1.8-3.1,3.1-4.4c-1.4,0-2.9,0-4.3-0.1c-0.7,0.6-1.4,1.4-2,2.2l-0.5,0.2l-0.5-0.2
			c-0.7-0.9-1.8-1.4-2.5-2.3c-0.2,0-0.1-0.1-0.3-0.2c-1.3-0.1-2.6,0-3.9,0.2c1.3,1.6,3.1,3,4,5.2C133.1,63.8,133.4,64.5,133.7,65.2
			L133.7,65.2z M132.2,79.1c-0.2-0.3-0.5-0.5-0.7-0.7s-0.6-0.9-0.9-0.9c-0.3-0.1-0.8,0.1-1.4-0.1c0.3,0.7,1.2,1,1.6,1.7
			C131.3,79.1,131.8,79,132.2,79.1L132.2,79.1z M134.3,103.7c-0.6-0.5-1.3-1-1.7-1.4c-0.2-0.2-0.5-0.3-0.7-0.5c-0.6-0.1-1,0-1.6,0.1
			c0.8,0.6,1.7,1.2,2.4,1.8C133.3,103.8,133.7,103.7,134.3,103.7L134.3,103.7z M134.3,79c-0.6-0.5-1-0.9-1.5-1.4
			c-0.6,0.1-1.2-0.2-1.4-0.1c0.5,0.5,1,1,1.4,1.4c-0.1,0,0,0.1,0,0.2C133.3,79.1,133.7,79,134.3,79L134.3,79z M136.4,103.7
			c-0.8-0.5-1.6-1-2.3-1.6c0-0.1-0.1-0.1,0-0.2c-0.5,0-0.9,0-1.4,0c0.8,0.6,1.5,1.3,2.3,2C135.4,103.7,135.9,103.7,136.4,103.7
			L136.4,103.7z M135.9,79.2c0.3-0.6,0.6-0.9,1-1.5h-1.8c0.2,0.5,0.6,0.7,0.7,1.2c-0.3,0.1-0.5-0.2-0.7-0.5s-0.3-0.3-0.5-0.6
			c-0.1-0.1,0-0.1-0.1-0.2c-0.3,0-0.7,0-1,0c0.3,0.5,1,0.8,1.3,1.5C135.1,79.1,135.6,79.1,135.9,79.2L135.9,79.2z M135.8,66.9
			c0.1-0.1,0.2-0.1,0.3,0c-0.8-0.5-1.3-1.6-2.2-1.2c0.5,0.5,0.9,0.8,1.4,1.2H135.8z M135.2,93.9c-0.2,0.5-0.5,0.8-0.7,1.3
			c0.7-0.1,1.4,0,2-0.1C136,94.6,135.6,94.2,135.2,93.9L135.2,93.9z M138.8,103.7c-0.7-0.6-1.4-1-2.1-1.5c-0.1-0.1-0.1-0.2,0-0.3
			c-0.8,0-1.5-0.1-2.2,0c0.3,0.3,0.8,0.6,1.3,1c0.5,0.5,0.9,0.8,1.4,0.9C137.7,103.7,138.3,103.7,138.8,103.7L138.8,103.7z
			 M137.7,94c-0.6-0.5-1-1-1.6-1.5c-0.2,0.3-0.5,0.7-0.7,1c0.5,0.3,0.9,0.8,1.4,1.3c0,0.1-0.1,0.1-0.1,0.2h0.5
			C137.2,94.5,137.5,94.3,137.7,94L137.7,94z M138.2,66.9c-0.5-0.3-0.9-0.7-1.2-1.3h-0.7c-0.2,0-0.5,0-0.7,0.1
			c0.3,0.5,1.3,0.6,1,1.2c0.2,0,0.5,0,0.7-0.1L138.2,66.9z M138.7,92.8c-0.6-0.5-1.2-1-1.6-1.6c-0.2,0.3-0.5,0.7-0.7,1
			c0.6,0.5,1.2,0.9,1.6,1.4C138.1,93.2,138.5,93.1,138.7,92.8L138.7,92.8z M141.1,103.6c-0.7-0.5-1.4-1.2-2.3-1.6
			c0-0.1,0-0.2-0.1-0.2c-0.6,0-1.2,0-1.6,0c0.6,0.5,1.3,0.9,2,1.4c0.2,0.1,0.5,0.5,0.6,0.5C140,103.8,140.5,103.5,141.1,103.6z
			 M140.6,89.9c-0.5-0.6-0.9-1-1.5-1.5c-0.3,0.3-0.6,0.8-0.8,1.2c0.5,0.6,1.2,0.9,1.4,1.6c-0.1,0.1-0.1,0.2-0.2,0.2
			c-0.6-0.5-1-0.9-1.6-1.4c-0.1,0.3-0.5,0.5-0.6,0.8c0.5,0.6,1,1.2,1.6,1.7C139.6,91.7,140.2,90.8,140.6,89.9L140.6,89.9z
			 M139.7,66.7l-1.2-1.3c-0.3,0.2-0.8-0.1-1,0.1c0.2,0.6,1.2,0.6,1,1.3C139,66.9,139.4,66.8,139.7,66.7L139.7,66.7z M140.7,64.4
			c-0.5-0.2-0.6-0.6-0.9-1c-0.2,0.7-0.5,1-0.7,1.7c0.3,0.3,0.6,0.7,1,0.9C140.3,65.5,140.5,64.9,140.7,64.4L140.7,64.4z M141.7,88.5
			c-0.5-0.6-0.9-1.2-1.5-1.6c-0.3,0.3-0.6,0.8-0.8,1.2c0.6,0.5,1.2,0.9,1.6,1.5C141.2,89.2,141.4,88.9,141.7,88.5L141.7,88.5z
			 M143.1,103.6c-0.2-0.2-0.5-0.2-0.6-0.5c-0.2-0.2-0.3-0.2-0.5-0.3c-0.1-0.1-0.2-0.1-0.2-0.1c-0.7-0.5-1.2-1.2-2.4-0.8
			c0.8,0.6,1.5,1.2,2.2,1.8C142.1,103.6,142.7,103.6,143.1,103.6z M141.5,62.9c-0.5-0.2-0.6-0.6-1-0.9c-0.2,0.2-0.3,0.6-0.5,0.9
			c0.5,0.3,0.5,0.8,0.9,1C141.2,63.4,141.4,63.2,141.5,62.9L141.5,62.9z M142.3,87.3c-0.5-0.5-0.9-1.2-1.4-1.6
			c-0.2,0.2-0.3,0.6-0.5,0.9c0.5,0.6,0.9,1.2,1.5,1.6C142.1,87.8,142.2,87.6,142.3,87.3L142.3,87.3z M142.6,61.7l-1.3-1.2
			c-0.2,0.2-0.3,0.6-0.5,0.8c0.3,0.5,0.7,0.8,1,1.2L142.6,61.7z M143.5,85.6c-0.5-0.6-0.9-1.2-1.4-1.7c-0.2,0.5-0.6,0.7-0.8,1.3
			c0.5,0.6,0.9,1.2,1.4,1.7C142.9,86.6,143.3,86.1,143.5,85.6L143.5,85.6z M143.1,60.3l-0.3-0.3c-0.2-0.2-0.5-0.3-0.6-0.6
			c-0.2,0.2-0.3,0.5-0.6,0.7c0.3,0.5,0.9,0.9,1.2,1.4c0.1-0.1,0.2-0.2,0.3-0.5C143.5,60.8,143.6,60.4,143.1,60.3z M145.3,103.6
			c-1-0.5-1.8-1.2-2.8-1.8c-0.3,0-0.6,0-0.9,0.1c0.8,0.6,1.5,1.2,2.2,1.8C144.4,103.7,144.9,103.7,145.3,103.6L145.3,103.6z
			 M144.3,84.6c-0.5-0.6-0.9-1.3-1.4-1.8c-0.1,0.2-0.3,0.5-0.5,0.7c0.5,0.7,1,1.2,1.4,1.8C144,85.1,144.2,84.8,144.3,84.6
			L144.3,84.6z M144.2,59.9c-0.3-0.5-0.5-0.8-0.7-1.2l-0.2-0.5c-0.2,0.2-0.5,0.3-0.6,0.7c0.1,0.1,0.2,0.2,0.3,0.3l0.2,0.3
			c0.2,0.2,0.2,0.5,0.6,0.7C143.8,60.1,144.1,60.1,144.2,59.9L144.2,59.9z M145.2,82.9c-0.5-0.6-0.9-1.2-1.4-1.6
			c-0.1,0.3-0.5,0.7-0.7,1c0.5,0.6,0.9,1.2,1.3,1.8C144.8,83.8,145.1,83.3,145.2,82.9z M145.8,101.8c-0.7,0.1-1.5,0.1-2.2,0.1
			c0.2,0.5,0.7,0.7,1.2,0.7c0.3,0.3,0.8,0.7,1.2,1c0.8,0.1,1.5-0.1,2.2-0.1c0-0.1,0.1-0.3,0-0.5c0,0.1-0.1,0.1-0.2,0.2
			C147.2,102.8,146.5,102.3,145.8,101.8L145.8,101.8z M146.5,81.2c-0.5-0.6-1-1.2-1.5-1.7c-0.2,0.5-0.5,0.9-0.7,1.4l1.3,1.7
			C145.9,82.1,146.1,81.6,146.5,81.2L146.5,81.2z M147.8,79.3c-0.7-0.5-1.2-1-1.6-1.7c0,0.3-0.8,1.3-0.8,1.4
			c0.1,0.1,0.2,0.2,0.3,0.5c0.3,0.5,0.7,0.9,1,1.3C147.1,80.2,147.5,79.9,147.8,79.3L147.8,79.3z M146.1,101.5
			c0.7,0.5,1.4,0.9,2.1,1.4c0-0.5,0-0.8,0-1.3c-0.6-0.6-1.3-1-2-1.6C146.4,100.6,146.3,101.1,146.1,101.5z M148.3,74.4
			c-0.8-0.8-1.5-1.6-2.1-2.5c0.1,0.3,0,0.6,0.1,0.9v0.6c0.1,0.1,0.3,0.1,0.5,0.1c0.2,0.2,0.5,0.6,0.7,0.9s0.5,0.6,0.7,0.8
			C148.3,74.9,148.3,74.7,148.3,74.4z M146.3,96.2c0,0.3,0,0.7,0,1c0.7,0.6,1.4,1.2,2,2c0-0.5,0-1-0.1-1.5c-0.5-0.3-0.9-0.7-1.4-1
			C146.7,96.5,146.4,96.1,146.3,96.2z M148,78.1c0,0.2-0.2,0.1-0.2,0.1c-0.5-0.5-0.9-1.2-1.4-1.6v0.5c0.3,0.7,0.9,1.3,1.6,1.7
			C148,78.6,148,78.3,148,78.1L148,78.1z M148.3,99.5c-0.7-0.5-1.2-1.2-2-1.6c0,0.5,0,1-0.1,1.5c0.6,0.6,1.3,1,1.8,1.5
			C148.2,100.5,148.2,100,148.3,99.5L148.3,99.5z M148.2,76c-0.6-0.7-1.2-1.4-1.7-2v1.8c0.5,0.7,1,1.4,1.6,2.1
			C148.1,77.2,148.2,76.8,148.2,76L148.2,76z"/>
		<path class="st1" d="M150.4,85.3c0-3.1,0.1-6.2,0-9.1c-0.1-0.9,0.1-1.7,0.1-2.5s0-1.8-0.1-2.8c0.8-0.3,1.6-0.6,2.5-0.6
			c1.4,0,2.9,0,4.3,0.2c0.1,0.1,0.3,0.2,0.6,0.2c0.7,0.8,1.3,2,2.1,2.8c0.1,0.1-0.1,0.2-0.1,0.3c0.3,0.2,0.5,0.7,0.7,1
			c-0.1,0.1-0.2,0.1-0.2,0.2c0,3.2,0.1,6.9,0.2,9.9c0.1,1.4,0,2.9,0.1,4.1c0,0.3,0.2,0.6,0.3,0.9c0,0.2-0.2,0.1-0.2,0.2
			c0.3,1.6,0.5,3.5,1.4,4.3c0.2,0.1,0.5,0.1,0.6,0.2c0.3,0,0.5-0.2,0.9-0.3c0.5-0.5,0.9-0.9,1.3-1.5c0.2-0.5,0.3-0.9,0.5-1.4
			c-0.1-1.3-0.1-2.5-0.1-3.8c0-0.2-0.1-0.6-0.1-0.8c-0.1-1.6,0.1-3.2-0.1-4.9c-0.1-2.5,0.3-5.5,0.2-8.2c0-1,0-2.2-0.1-3.2
			c0.3-0.1,0.7-0.2,1-0.2c1.8-0.1,3.7-0.1,5.5,0.1c0.1,0,0.2,0,0.2,0.1l0,0c0.1-0.1,0.1-0.2,0.3-0.1c0.2,0.1,0.1,0.2,0.2,0.1
			c0.8,1.4,1.6,2.6,2.6,3.9c-0.1,0.3,0.1,0.7,0.1,1.2c0.1,0.6,0.1,1.2,0,1.8c-0.1,1.6-0.1,3.5,0,5.2c0.1,2.2-0.1,4.6-0.1,6.9
			c0,1.8-0.1,4.5,0,6.6c0,0.6,0,1.2,0,1.8c0,1.2,0,2.4,0.1,3.6c0.1,0.6,0.1,1.2,0,1.7c-0.1,0.2-0.3,0.1-0.5,0.3
			c-1.3,0.2-2.6,0.3-3.9,0.3c-0.5,0-1-0.1-1-0.5c-0.7-0.3-1.3-0.7-1.8-1.2c-0.2-0.2-0.3-0.6-0.7-0.7c-0.2,0.1-0.3,0.2-0.6,0.3
			c-0.7,0.3-1.5,0.6-2.3,0.9c-1.5,0.7-3.2,1-4.9,1c-1.6-0.1-3.1-0.7-4.4-1.7c-1-1-2-2.3-2.8-3.6c-0.1-0.5-0.3-0.9-0.7-1.3
			c-0.3-0.7-0.6-1.5-0.7-2.3c-0.1-0.3-0.2-0.7-0.3-1.2c-0.1-0.6-0.1-1.2-0.1-1.8c-0.1-0.7-0.1-1.3-0.2-2
			C150.2,88.9,150.4,87,150.4,85.3z M150.9,89.4c0,1.5,0.1,3,0.3,4.5c0,0.6,0.1,1.2,0.2,1.8l0.3,0.9c0.2,0.8,0.7,1.5,1.3,2.1
			c0.2,0.3,0.6,0.8,0.9,1.2c0.1,0.1,0.2,0.2,0.5,0.2c0.1,0.1,0.2,0.3,0.3,0.5c0.5,0.2,0.8,0.3,1.3,0.5c1.5,0.5,3,0.6,4.6,0.6
			c1.6-0.1,3.1-0.7,4.5-1.6c0.2-0.2,0.5-0.5,0.7-0.7s0.5-0.7,0.7-0.7c0.5,0,0.3,1.2,0.6,1.4c0.1,0.6,0.2,1.2,0.5,1.6
			c1.4,0.1,2.8,0,4-0.1c-0.1-0.2,0.2-0.3,0.3-0.5s-0.1-0.3-0.1-0.5c-0.1-0.5,0.2-1,0.1-1.6c-0.1-0.7,0-1.3,0.1-2
			c-0.1-0.8-0.2-1.5-0.2-2.3c0-0.1,0.1-0.3,0.1-0.5c0-0.1-0.1-0.3-0.1-0.6c0-0.2,0.1-0.3,0.1-0.5c0.1-1.4-0.1-2.8-0.1-4.1
			c0.1-6,0.1-11.5,0-17.5c-2.1-0.2-4-0.2-6.1-0.1c-0.1,0.9,0,2,0,3c0.1,1.6-0.1,3.7-0.2,5.5c-0.1,1.3,0,2.4,0,3.7c0,1-0.1,2-0.1,3
			c0,2,0.2,4,0.2,5.9c-0.1,0.1-0.2,0.1-0.2,0.2c-0.6,2.3-2.9,3.5-5.8,3c-0.5-0.2-0.7-0.5-1.2-0.5c-0.8-0.7-1.3-1.5-1.4-2.5
			c-0.1-1.4,0.1-2.9-0.1-4.4c-0.1-0.8-0.2-1.7-0.2-2.5s0.1-1.5,0.2-2.4c0.1-0.9,0-1.8,0-2.8c0.1-2.8,0.1-6.4-0.1-9.3
			c-2.1-0.3-4.1-0.3-6.2,0.1c0.1,1.4,0,3.1,0,4.1C151,80.5,150.9,85.1,150.9,89.4z M157.2,103.1c-0.5-0.7-1.2-1.2-1.5-1.8
			c-0.7-0.1-1.3-0.5-1.8-0.9C154.7,101.5,155.8,102.6,157.2,103.1L157.2,103.1z M159.3,103.6c-0.5-0.6-1.2-1.2-1.5-1.7
			c-0.6-0.1-0.9-0.2-1.5-0.3c0.5,0.7,1.2,1.3,1.6,1.8C158.5,103.4,158.8,103.6,159.3,103.6L159.3,103.6z M157.8,89.4
			c0.1,0,0.2,0,0.3,0.1c0.8,0.7,1.6,1.4,2.4,2.1c-0.1-0.6-0.1-1-0.2-1.6c-0.5-0.3-0.8-0.8-1.3-1.2c-0.1-0.2-0.5-0.5-0.6-0.6
			c-0.2-0.2-0.5-0.5-0.6-0.7c0.2-0.2,0.5,0.1,0.6,0.2c0.3,0.5,0.8,0.8,1.2,1.2c0.2,0.1,0.3,0.5,0.6,0.3c0-0.5-0.1-0.8-0.1-1.5
			c-0.7-1-1.7-1.8-2.4-3C157.6,86.2,157.6,87.8,157.8,89.4L157.8,89.4z M157.6,75.4c0.1,0,0.1,0.1,0.1,0.1c0.1,1.4,0.1,2.6,0.1,3.9
			c0,0.1,0.2,0.1,0.2,0.1c0.3,0.6,0.8,1.3,1.3,1.8c0.1,0.1,0.3,0.5,0.5,0.3c-0.1-0.8-0.1-1.2-0.1-2c-0.1,0.1-0.1,0.1-0.2,0
			c-0.5-0.7-0.9-1.4-1.3-2.1c-0.2-0.2-0.6-0.7-0.2-0.8c0.6,0.8,1,1.8,1.6,2.5c0.1-0.9-0.1-1.6,0-2.3c-0.7-0.8-1.3-1.8-2-2.8
			C157.9,74.7,158,75.2,157.6,75.4z M157.6,84.4c0.1,0.1,0.1-0.1,0.2,0c0.7,0.9,1.4,1.8,2.2,2.6c0-0.7,0-1.4-0.1-2.1
			c-0.2-0.3-0.5-0.6-0.8-0.8c-0.6-0.6-0.9-1.2-1.4-1.6C157.9,83,157.8,83.8,157.6,84.4z M157.8,73.8c0.7,0.9,1.3,2,2,2.8
			c0.1-0.3-0.1-1.4,0-1.6c-0.2-0.3-0.5-0.8-0.7-1.2c0-0.1,0.1-0.1,0.1-0.2c-0.5-0.6-0.9-1.4-1.4-1.8
			C157.8,72.6,157.9,73.1,157.8,73.8L157.8,73.8z M159.8,82.3c-0.8-0.8-1.5-1.6-2.1-2.4c-0.1,0.8-0.1,1.8-0.1,2.3
			c0.1,0,0.2,0,0.2,0.1c0.6,0.8,1.3,1.6,2,2.2C160.1,83.8,160,83.2,159.8,82.3L159.8,82.3z M157.8,89.7c0.1,0.9,0,1.5,0.1,2.3
			c0.1-0.1,0.1-0.2,0.1-0.2c0.5,0.3,0.9,0.8,1.5,1.3s1.2,0.7,1.7,1.2c-0.2-0.6-0.5-1.3-0.6-2C159.7,91.4,158.8,90.5,157.8,89.7
			L157.8,89.7z M161.6,95c-1.3-0.8-2.4-1.8-3.6-2.9c-0.1,2.6,2.3,3.6,4.3,3c-0.2,0-0.3-0.1-0.5-0.2C161.7,94.9,161.7,95,161.6,95
			L161.6,95z M161.1,103.6c-0.5-0.6-1.3-0.9-1.5-1.6c-0.5,0.1-0.9,0.1-1.3,0c0.6,0.6,1,1.2,1.6,1.7
			C160.4,103.7,160.8,103.7,161.1,103.6z M165,102.4c-0.5-0.3-0.8-0.8-1.3-1.2c-0.3,0.2-0.8,0.3-1.3,0.5c0.3,0.5,0.8,0.7,1.2,1.2
			c-0.1,0-0.1,0.1-0.1,0.1c-0.7-0.2-1-0.7-1.5-1.2c-0.6,0.1-1.3,0.1-1.8,0.2c0.2,0.3,0.6,0.7,0.8,1c0.2,0.2,0.5,0.5,0.7,0.6
			c0.2,0.1,0.6-0.2,0.9-0.2C163.4,103,164.3,102.7,165,102.4L165,102.4z M166.3,101.9c-0.2-0.5-0.6-0.9-1-1.3c0-0.1,0.1-0.2,0-0.2
			c-0.3,0.2-0.7,0.5-1,0.6c0.3,0.5,0.8,0.8,1.3,1.3C165.8,102.1,166.1,102,166.3,101.9L166.3,101.9z M167.1,101.4
			c-0.2-0.6-0.3-1.4-0.7-2c-0.2,0.3-0.6,0.6-0.9,0.8c0.5,0.3,0.9,0.9,1.2,1.5C166.7,101.6,167,101.5,167.1,101.4L167.1,101.4z
			 M172,103.6c-0.5-0.3-0.9-0.8-1.3-1.2c-0.1-0.2-0.2-0.3-0.3-0.5c-0.1-0.1-0.8,0.1-1.2,0h-1.1c0.6,0.5,1.2,0.9,1.8,1.3
			c0.2,0.1,0.5,0.3,0.6,0.5C171.1,103.7,171.6,103.7,172,103.6z M172.2,101.8c-0.2,0.2-0.7,0-1,0.2c0.2,0.2,0.6,0.6,0.8,0.8
			c0.2,0.2,0.5,0.7,0.7,0.8c0.6,0,1,0,1.6-0.2C173.4,102.8,172.8,102.3,172.2,101.8L172.2,101.8z M172.5,101.4
			c0,0.1,0.3,0.3,0.5,0.5c0.6,0.3,1,0.8,1.5,1.3c0.1,0.1-0.2,0.2,0,0.3c0.1-0.1,0.1-0.1,0.2-0.1v-4.8c-0.1-0.1-0.2,0-0.2-0.1
			c-0.6-0.8-1.2-1.5-1.8-2.1c0,0.5,0,1-0.1,1.5c0.1,0,0.1-0.1,0.2-0.1c0.5,0.8,1.3,1.4,1.7,2.3c-0.1,0.1-0.1,0.2-0.2,0.2
			c-0.7-0.7-1.3-1.4-1.8-2.2c0,0.7,0,1.5,0.1,2.2h0.2c0.3,0.5,0.8,1,1.2,1.5c0.1,0.1,0.5,0.3,0.1,0.6c-0.6-0.5-1.2-1-1.7-1.7
			c0,0.2,0,0.3,0,0.6C172.6,101.3,172.5,101.4,172.5,101.4L172.5,101.4z M172.6,95.7c0.2,0.1,0.3,0.3,0.5,0.5c0.5,0.5,1,0.8,1.4,1.4
			c0.1,0.1,0.1,0.3,0.3,0.3c0.1-0.6,0-1.5,0-2.2c-0.1-0.1-0.1,0-0.2-0.1c-0.6-0.7-1.3-1.4-2-2.2C172.6,93.9,172.5,95,172.6,95.7
			L172.6,95.7z M172.6,74.1c0.5,0.5,0.9,1,1.2,1.6c0.2,0.5,0.6,0.8,0.9,1.3c0.1,0.1,0.1,0.2-0.1,0.5c-0.8-0.6-1.3-1.7-2-2.5
			c-0.1,1,0.1,1.5,0,2.5c0.1,0,0.1-0.1,0.2-0.1c0.6,0.7,1.2,1.5,1.8,2.2c0.1-1.5,0.1-3,0-4.5c-0.8-0.9-1.5-2-2.1-3
			C172.7,72.6,172.7,73.4,172.6,74.1L172.6,74.1z M172.6,89c0.1,0.1,0.2-0.1,0.3-0.1c0.6,0.7,1.2,1.3,1.8,1.8c0-0.6,0-1,0-1.6
			c-0.6-0.7-1.4-1.4-2.1-2.2C172.6,87.6,172.6,88.3,172.6,89L172.6,89z M172.6,89.2c0,0.6,0.1,1.2,0.1,1.6c0.3,0.8,1.5,1.3,1.8,2.1
			c0,0.1,0.1,0.3-0.1,0.5c-0.2-0.1-0.3-0.3-0.5-0.6c-0.5-0.3-0.9-0.8-1.3-1.4c0,0.6,0,1.2-0.1,1.8c0.1,0.1,0.2-0.1,0.3,0
			c0.6,0.7,1.2,1.4,1.8,2c-0.3-1.3,0.3-3.1-0.2-4C174,90.5,173.1,89.7,172.6,89.2L172.6,89.2z M174.8,87c-0.7-0.7-1.4-1.4-2.1-2.1
			c0,0.5,0,1,0,1.5c0.1,0,0.2,0.1,0.2,0.2c0.5,0.5,0.9,1,1.4,1.5c0.2,0.1,0.3,0.3,0.5,0.3C174.8,88.1,174.8,87.6,174.8,87z
			 M172.7,79.9c0.1-0.1,0.2-0.1,0.3-0.1c0.3,1.2,1.2,1.6,1.6,2.6c0-0.9-0.1-1.8,0-2.4h-0.2c-0.6-0.8-1.3-1.4-1.8-2.2
			C172.6,78.4,172.7,79.1,172.7,79.9L172.7,79.9z M172.7,80.2v2.1c0.1,0.1,0.2-0.1,0.2-0.1c0.6,0.8,1.2,1.5,1.8,2.2
			c0-0.6,0-1.2,0-1.6c-0.1-0.1-0.1,0-0.2,0C173.9,82,173.2,81,172.7,80.2L172.7,80.2z M172.7,84.6c0.1,0.1,0.1-0.1,0.2-0.1
			c0.6,0.7,1.3,1.4,2,2c0-0.6-0.1-1.2-0.1-1.6c-0.1,0-0.1,0-0.2,0c-0.6-0.7-1.3-1.4-1.8-2.2L172.7,84.6L172.7,84.6z"/>
	</g>
</g>
</svg>
