<svg id="fe9b6b89-fdaf-450f-80c7-4e48734653c8" xmlns="http://www.w3.org/2000/svg" viewBox="0 0 300 140"><defs><style>.ec2087ed-7300-414d-9744-5252df9b6730{fill:#e34d4c;}.bfb1f5d9-3819-4149-b9fd-1433e3555948{fill:#bbbdbf;}.fbce0c7b-dbfb-4ada-9c1a-14266014e703{fill:#e24d4c;}</style></defs><title>card-tjedanbrucosa</title><path class="ec2087ed-7300-414d-9744-5252df9b6730" d="M101.25,59.58V26.67H96.48a1.94,1.94,0,1,1,0-3.87h13.74a1.94,1.94,0,1,1,0,3.87h-4.76V59.58a2.11,2.11,0,1,1-4.21,0Z"/><path class="ec2087ed-7300-414d-9744-5252df9b6730" d="M109.67,53.49v-.17c0-1.72.94-2.49,2-2.49,1.33,0,2,.89,2,2.33v.05c0,2.94,1.16,4.82,3.54,4.82s3.49-2.16,3.49-5.82V24.68a2.11,2.11,0,0,1,4.22,0V52.93c0,5.6-2.89,9.09-7.71,9.09S109.67,58.81,109.67,53.49Z"/><path class="ec2087ed-7300-414d-9744-5252df9b6730" d="M144.13,59.64a2,2,0,0,1-2,1.94h-8.53c-2.39,0-3.38-1-3.38-3.33V26.12c0-2.33,1-3.32,3.38-3.32h8.53a1.94,1.94,0,1,1,0,3.87h-7.7V38.31h6.87a1.94,1.94,0,1,1,0,3.88h-6.87V57.7h7.7A2,2,0,0,1,144.13,59.64Z"/><path class="ec2087ed-7300-414d-9744-5252df9b6730" d="M147.73,58.36V26.12c0-2.33,1-3.32,3.38-3.32H155c5.54,0,8.75,3.65,8.75,10.36V51.33c0,6.7-3.21,10.36-8.75,10.36h-3.93C148.73,61.69,147.73,60.69,147.73,58.36Zm6.92-.55c3.55,0,4.93-2.38,4.93-7.37V34c0-5-1.38-7.37-4.93-7.37h-2.82V57.81Z"/><path class="ec2087ed-7300-414d-9744-5252df9b6730" d="M184.74,31.33V59.58a2.11,2.11,0,1,1-4.21,0v-12h-8.2v12a2.11,2.11,0,1,1-4.21,0V31.33c0-5.6,2.88-9.09,8.31-9.09S184.74,25.73,184.74,31.33Zm-4.21,12.41V32.05c0-4.16-1.45-5.82-4.1-5.82s-4.1,1.66-4.1,5.82V43.74Z"/><path class="ec2087ed-7300-414d-9744-5252df9b6730" d="M189.17,59.58V31.33c0-5.6,2.82-9.09,8.2-9.09s8.2,3.49,8.2,9.09V59.58a2.11,2.11,0,1,1-4.21,0V32.05c0-4.16-1.39-5.82-4-5.82s-4,1.66-4,5.82V59.58a2.11,2.11,0,1,1-4.21,0Z"/><path class="ec2087ed-7300-414d-9744-5252df9b6730" d="M86.78,102.52c0,9.7-3.47,14.82-10.39,14.82H69.88c-3,0-4.23-1.24-4.23-4.15V72.88c0-2.9,1.25-4.15,4.23-4.15h5.75c6.58,0,10.31,3.88,10.31,11.56,0,5.06-1,8.45-3.67,10.11C85.39,92.55,86.78,95.94,86.78,102.52Zm-16-14.4h4.08c4.23,0,6-2.56,6-7.41,0-4.5-1.52-7.13-5.61-7.13H70.78Zm10.73,14.13c0-6.65-2.07-9.28-6.3-9.28H70.78V112.5h4.57C80.27,112.5,81.51,109,81.51,102.25Z"/><path class="ec2087ed-7300-414d-9744-5252df9b6730" d="M107.2,95.39c1.94,1.11,4,4,4,8v11.29a2.63,2.63,0,0,1-5.26,0v-9.83c0-3.95-2.08-7-5.47-7H96.75v16.83a2.64,2.64,0,0,1-5.27,0V72.88c0-2.9,1.25-4.15,4.23-4.15h4.64c6.92,0,10.94,4.57,10.94,13v3.25C111.29,89.71,110,93.24,107.2,95.39Zm-1-11.56v-1c0-6.24-1.87-9.21-6.31-9.21H96.75V93h3.11C104.3,93,106.17,90.06,106.17,83.83Z"/><path class="ec2087ed-7300-414d-9744-5252df9b6730" d="M116.34,106.4V71.08a2.64,2.64,0,0,1,5.27,0V105.5c0,5.19,1.8,7.27,5.12,7.27s5.13-2.08,5.13-7.27V71.08a2.63,2.63,0,1,1,5.26,0V106.4c0,7-3.6,11.36-10.39,11.36S116.34,113.4,116.34,106.4Z"/><path class="ec2087ed-7300-414d-9744-5252df9b6730" d="M142.52,106.4V79.81c0-7,3.6-11.36,10-11.36s10,4.36,10,11.36v1.25A2.47,2.47,0,0,1,160,83.62a2.51,2.51,0,0,1-2.56-2.7v-.21c0-5.19-1.59-7.27-4.78-7.27s-4.85,2.08-4.85,7.27V105.5c0,5.13,1.73,7.27,4.92,7.27s4.71-2.08,4.71-7.06v-.28a2.57,2.57,0,1,1,5.12,0v1c0,7-3.39,11.36-10,11.36S142.52,113.4,142.52,106.4Z"/><path class="ec2087ed-7300-414d-9744-5252df9b6730" d="M166.07,106.4V79.67c0-7,3.6-11.36,10.38-11.36s10.39,4.37,10.39,11.36V106.4c0,7-3.6,11.36-10.39,11.36S166.07,113.4,166.07,106.4Zm15.51-.9V80.57c0-5.19-1.8-7.27-5.13-7.27s-5.12,2.08-5.12,7.27V105.5c0,5.19,1.8,7.27,5.12,7.27S181.58,110.69,181.58,105.5Z"/><path class="ec2087ed-7300-414d-9744-5252df9b6730" d="M199.93,117.68c-6.51,0-9.9-4.11-9.9-9.19a11.37,11.37,0,0,1,.48-3.56,2.71,2.71,0,0,1,3.39-2.2c1.46.35,1.94,1.79,1.53,3.23a9.19,9.19,0,0,0-.28,2.12c0,2.81,1.39,4.94,4.92,4.94s5-2.54,5-6.24c0-4.87-1.31-6.79-6.09-9.33l-2.42-1.3c-4-2.06-5.54-4.87-5.54-8.71,0-4.46,2.77-8.57,9.14-8.57,6.09,0,9,3.5,9,8.3v.75a2.3,2.3,0,0,1-2.42,2.47,2.24,2.24,0,0,1-2.36-2.33V88c0-2.74-1.18-4.46-4.22-4.46-2.84,0-4,1.51-4,3.7s.83,3.43,3.12,4.6l3.11,1.64c5.61,3,7.83,6.38,7.9,12.76C210.32,113.64,206.44,117.68,199.93,117.68Zm-6.1-47.59A2,2,0,0,1,195.77,68a2.16,2.16,0,0,1,1.67.76l3.18,3.08,3.19-3.08a2.13,2.13,0,0,1,1.66-.76,1.94,1.94,0,0,1,1.87,2.06,2.48,2.48,0,0,1-.9,1.71L202,76.06a2,2,0,0,1-1.39.54,2,2,0,0,1-1.38-.54l-4.51-4.26A2.48,2.48,0,0,1,193.83,70.09Z"/><path class="ec2087ed-7300-414d-9744-5252df9b6730" d="M234.35,79.39v35.32a2.64,2.64,0,0,1-5.27,0v-15H218.83v15a2.63,2.63,0,0,1-5.26,0V79.39c0-7,3.6-11.35,10.39-11.35S234.35,72.4,234.35,79.39Zm-5.27,15.52V80.29c0-5.19-1.8-7.27-5.12-7.27s-5.13,2.08-5.13,7.27V94.91Z"/><path class="ec2087ed-7300-414d-9744-5252df9b6730" d="M101.25,59.58V26.67H96.48a1.94,1.94,0,1,1,0-3.87h13.74a1.94,1.94,0,1,1,0,3.87h-4.76V59.58a2.11,2.11,0,1,1-4.21,0Z"/><path class="ec2087ed-7300-414d-9744-5252df9b6730" d="M109.67,53.49v-.17c0-1.72.94-2.49,2-2.49,1.33,0,2,.89,2,2.33v.05c0,2.94,1.16,4.82,3.54,4.82s3.49-2.16,3.49-5.82V24.68a2.11,2.11,0,0,1,4.22,0V52.93c0,5.6-2.89,9.09-7.71,9.09S109.67,58.81,109.67,53.49Z"/><path class="ec2087ed-7300-414d-9744-5252df9b6730" d="M144.13,59.64a2,2,0,0,1-2,1.94h-8.53c-2.39,0-3.38-1-3.38-3.33V26.12c0-2.33,1-3.32,3.38-3.32h8.53a1.94,1.94,0,1,1,0,3.87h-7.7V38.31h6.87a1.94,1.94,0,1,1,0,3.88h-6.87V57.7h7.7A2,2,0,0,1,144.13,59.64Z"/><path class="ec2087ed-7300-414d-9744-5252df9b6730" d="M147.73,58.36V26.12c0-2.33,1-3.32,3.38-3.32H155c5.54,0,8.75,3.65,8.75,10.36V51.33c0,6.7-3.21,10.36-8.75,10.36h-3.93C148.73,61.69,147.73,60.69,147.73,58.36Zm6.92-.55c3.55,0,4.93-2.38,4.93-7.37V34c0-5-1.38-7.37-4.93-7.37h-2.82V57.81Z"/><path class="ec2087ed-7300-414d-9744-5252df9b6730" d="M184.74,31.33V59.58a2.11,2.11,0,1,1-4.21,0v-12h-8.2v12a2.11,2.11,0,1,1-4.21,0V31.33c0-5.6,2.88-9.09,8.31-9.09S184.74,25.73,184.74,31.33Zm-4.21,12.41V32.05c0-4.16-1.45-5.82-4.1-5.82s-4.1,1.66-4.1,5.82V43.74Z"/><path class="bfb1f5d9-3819-4149-b9fd-1433e3555948" d="M110.22,22.14a2.6,2.6,0,1,1,0,5.19h-3.78a.32.32,0,0,0-.33.32V59.58a2.76,2.76,0,0,1-5.52,0V27.65a.32.32,0,0,0-.32-.32H96.48a2.6,2.6,0,1,1,0-5.19h13.74m0-.5H96.48a3.1,3.1,0,1,0,0,6.19h3.61V59.58a3.26,3.26,0,0,0,6.52,0V27.83h3.61a3.1,3.1,0,1,0,0-6.19Z"/><path class="bfb1f5d9-3819-4149-b9fd-1433e3555948" d="M122.91,21.92a2.77,2.77,0,0,1,2.76,2.76V52.93c0,6-3.2,9.74-8.36,9.74s-8.3-3.52-8.3-9.18v-.17c0-2.32,1.46-3.15,2.71-3.15,1.67,0,2.7,1.15,2.7,3v.05c0,3.44,1.58,4.17,2.89,4.17,1.89,0,2.84-1.74,2.84-5.17V24.68a2.77,2.77,0,0,1,2.76-2.76m0-.5a3.26,3.26,0,0,0-3.26,3.26V52.21c0,3.1-.79,4.67-2.34,4.67s-2.39-1.24-2.39-3.67v-.05c0-2.12-1.25-3.49-3.2-3.49-1.6,0-3.21,1.13-3.21,3.65v.17c0,6,3.38,9.68,8.8,9.68s8.86-3.92,8.86-10.24V24.68a3.26,3.26,0,0,0-3.26-3.26Z"/><path class="bfb1f5d9-3819-4149-b9fd-1433e3555948" d="M142.08,22.14a2.6,2.6,0,1,1,0,5.19h-6.72a.32.32,0,0,0-.33.32v9.68a.32.32,0,0,0,.33.32h5.89a2.6,2.6,0,1,1,0,5.19h-5.89a.33.33,0,0,0-.33.33V56.72a.32.32,0,0,0,.33.32h6.72a2.6,2.6,0,1,1,0,5.19h-8.53c-2.76,0-4-1.26-4-4V26.12c0-2.71,1.28-4,4-4h8.53m0-.5h-8.53c-3,0-4.54,1.51-4.54,4.48V58.25c0,3,1.53,4.48,4.54,4.48h8.53a3.1,3.1,0,1,0,0-6.19h-6.55V43.34h5.72a3.1,3.1,0,1,0,0-6.19h-5.72V27.83h6.55a3.1,3.1,0,1,0,0-6.19Z"/><path class="bfb1f5d9-3819-4149-b9fd-1433e3555948" d="M155,22.14c6,0,9.41,4,9.41,11V51.33c0,7-3.43,11-9.41,11h-3.93c-2.75,0-4-1.26-4-4V26.12c0-2.71,1.29-4,4-4H155m-2.23,35h1.84c3,0,4.28-1.95,4.28-6.72V34c0-4.77-1.24-6.71-4.28-6.71h-1.84a.32.32,0,0,0-.33.32V56.83a.33.33,0,0,0,.33.33M155,21.64h-3.93c-3,0-4.54,1.51-4.54,4.48V58.36c0,3,1.53,4.48,4.54,4.48H155c6.3,0,9.91-4.2,9.91-11.51V33.16c0-7.32-3.61-11.52-9.91-11.52ZM153,27.83h1.67c2.27,0,3.78,1.05,3.78,6.21v16.4c0,5.16-1.51,6.22-3.78,6.22H153V27.83Z"/><path class="bfb1f5d9-3819-4149-b9fd-1433e3555948" d="M176.43,21.59c5.61,0,9,3.64,9,9.74V59.58a2.76,2.76,0,1,1-5.52,0v-11a.33.33,0,0,0-.33-.33h-6.23a.33.33,0,0,0-.33.33v11a2.76,2.76,0,1,1-5.52,0V31.33c0-6.1,3.35-9.74,9-9.74m-3.12,21.49h6.23a.32.32,0,0,0,.33-.32V32.05c0-4.55-1.74-5.17-3.44-5.17S173,27.5,173,32.05V42.76a.32.32,0,0,0,.33.32m3.12-22c-5.93,0-9.47,3.83-9.47,10.24V59.58a3.26,3.26,0,1,0,6.52,0V48.77h5.89V59.58a3.26,3.26,0,1,0,6.52,0V31.33c0-6.41-3.54-10.24-9.46-10.24Zm-3,21.49V32.05c0-4.31,1.52-4.67,3-4.67s2.94.36,2.94,4.67V42.58Z"/><path class="bfb1f5d9-3819-4149-b9fd-1433e3555948" d="M197.37,21.59c5.54,0,8.85,3.64,8.85,9.74V59.58a2.76,2.76,0,1,1-5.52,0V32.05c0-4.55-1.68-5.17-3.33-5.17S194,27.5,194,32.05V59.58a2.76,2.76,0,1,1-5.52,0V31.33c0-6.1,3.31-9.74,8.86-9.74m0-.5c-5.86,0-9.36,3.83-9.36,10.24V59.58a3.26,3.26,0,1,0,6.52,0V32.05c0-4.67,1.85-4.67,2.84-4.67s2.83,0,2.83,4.67V59.58a3.26,3.26,0,1,0,6.52,0V31.33c0-6.41-3.5-10.24-9.35-10.24Z"/><path class="ec2087ed-7300-414d-9744-5252df9b6730" d="M189.17,59.58V31.33c0-5.6,2.82-9.09,8.2-9.09s8.2,3.49,8.2,9.09V59.58a2.11,2.11,0,1,1-4.21,0V32.05c0-4.16-1.39-5.82-4-5.82s-4,1.66-4,5.82V59.58a2.11,2.11,0,1,1-4.21,0Z"/><path class="ec2087ed-7300-414d-9744-5252df9b6730" d="M86.78,102.52c0,9.7-3.47,14.82-10.39,14.82H69.88c-3,0-4.23-1.24-4.23-4.15V72.88c0-2.9,1.25-4.15,4.23-4.15h5.75c6.58,0,10.31,3.88,10.31,11.56,0,5.06-1,8.45-3.67,10.11C85.39,92.55,86.78,95.94,86.78,102.52Zm-16-14.4h4.08c4.23,0,6-2.56,6-7.41,0-4.5-1.52-7.13-5.61-7.13H70.78Zm10.73,14.13c0-6.65-2.07-9.28-6.3-9.28H70.78V112.5h4.57C80.27,112.5,81.51,109,81.51,102.25Z"/><path class="fbce0c7b-dbfb-4ada-9c1a-14266014e703" d="M107.2,95.39c1.94,1.11,4,4,4,8v11.29a2.63,2.63,0,0,1-5.26,0v-9.83c0-3.95-2.08-7-5.47-7H96.75v16.83a2.64,2.64,0,0,1-5.27,0V72.88c0-2.9,1.25-4.15,4.23-4.15h4.64c6.92,0,10.94,4.57,10.94,13v3.25C111.29,89.71,110,93.24,107.2,95.39Zm-1-11.56v-1c0-6.24-1.87-9.21-6.31-9.21H96.75V93h3.11C104.3,93,106.17,90.06,106.17,83.83Z"/><path class="ec2087ed-7300-414d-9744-5252df9b6730" d="M116.34,106.4V71.08a2.64,2.64,0,0,1,5.27,0V105.5c0,5.19,1.8,7.27,5.12,7.27s5.13-2.08,5.13-7.27V71.08a2.63,2.63,0,1,1,5.26,0V106.4c0,7-3.6,11.36-10.39,11.36S116.34,113.4,116.34,106.4Z"/><path class="ec2087ed-7300-414d-9744-5252df9b6730" d="M142.52,106.4V79.81c0-7,3.6-11.36,10-11.36s10,4.36,10,11.36v1.25A2.47,2.47,0,0,1,160,83.62a2.51,2.51,0,0,1-2.56-2.7v-.21c0-5.19-1.59-7.27-4.78-7.27s-4.85,2.08-4.85,7.27V105.5c0,5.13,1.73,7.27,4.92,7.27s4.71-2.08,4.71-7.06v-.28a2.57,2.57,0,1,1,5.12,0v1c0,7-3.39,11.36-10,11.36S142.52,113.4,142.52,106.4Z"/><path class="ec2087ed-7300-414d-9744-5252df9b6730" d="M166.07,106.4V79.67c0-7,3.6-11.36,10.38-11.36s10.39,4.37,10.39,11.36V106.4c0,7-3.6,11.36-10.39,11.36S166.07,113.4,166.07,106.4Zm15.51-.9V80.57c0-5.19-1.8-7.27-5.13-7.27s-5.12,2.08-5.12,7.27V105.5c0,5.19,1.8,7.27,5.12,7.27S181.58,110.69,181.58,105.5Z"/><path class="ec2087ed-7300-414d-9744-5252df9b6730" d="M199.93,117.68c-6.51,0-9.9-4.11-9.9-9.19a11.37,11.37,0,0,1,.48-3.56,2.71,2.71,0,0,1,3.39-2.2c1.46.35,1.94,1.79,1.53,3.23a9.19,9.19,0,0,0-.28,2.12c0,2.81,1.39,4.94,4.92,4.94s5-2.54,5-6.24c0-4.87-1.31-6.79-6.09-9.33l-2.42-1.3c-4-2.06-5.54-4.87-5.54-8.71,0-4.46,2.77-8.57,9.14-8.57,6.09,0,9,3.5,9,8.3v.75a2.3,2.3,0,0,1-2.42,2.47,2.24,2.24,0,0,1-2.36-2.33V88c0-2.74-1.18-4.46-4.22-4.46-2.84,0-4,1.51-4,3.7s.83,3.43,3.12,4.6l3.11,1.64c5.61,3,7.83,6.38,7.9,12.76C210.32,113.64,206.44,117.68,199.93,117.68Zm-6.1-47.59A2,2,0,0,1,195.77,68a2.16,2.16,0,0,1,1.67.76l3.18,3.08,3.19-3.08a2.13,2.13,0,0,1,1.66-.76,1.94,1.94,0,0,1,1.87,2.06,2.48,2.48,0,0,1-.9,1.71L202,76.06a2,2,0,0,1-1.39.54,2,2,0,0,1-1.38-.54l-4.51-4.26A2.48,2.48,0,0,1,193.83,70.09Z"/><path class="bfb1f5d9-3819-4149-b9fd-1433e3555948" d="M75.63,68.07c7.07,0,11,4.34,11,12.22,0,4.86-.94,8-2.95,9.88a.32.32,0,0,0-.11.24.37.37,0,0,0,.12.24c2.64,2.34,3.77,5.89,3.77,11.87,0,12.79-6,15.48-11,15.48H69.88c-3.33,0-4.88-1.53-4.88-4.81V72.88c0-3.28,1.55-4.81,4.88-4.81h5.75M71.76,87.46h3.1c2.47,0,5.31-.76,5.31-6.75,0-5.74-2.65-6.48-5-6.48H71.76a.33.33,0,0,0-.33.33V87.14a.32.32,0,0,0,.33.32m0,24.38h3.59c4.07,0,5.51-2.51,5.51-9.59,0-7.6-2.86-8.63-5.65-8.63H71.76a.33.33,0,0,0-.33.33v17.56a.33.33,0,0,0,.33.33m3.87-44.27H69.88c-3.62,0-5.38,1.74-5.38,5.31v40.31c0,3.57,1.76,5.31,5.38,5.31h6.51c5.26,0,11.54-2.77,11.54-16,0-6-1.14-9.68-3.8-12.12,2-2,3-5.21,3-10.11,0-8.2-4.08-12.72-11.47-12.72Zm-3.7,7.16h3.28c2.2,0,4.46.71,4.46,6,0,5.51-2.43,6.25-4.81,6.25H71.93V74.73Zm0,19.39h3.28c2.67,0,5.15,1,5.15,8.13,0,7.64-1.76,9.09-5,9.09H71.93V94.12Z"/><path class="bfb1f5d9-3819-4149-b9fd-1433e3555948" d="M100.35,68.07c7.37,0,11.59,5,11.59,13.61v3.25c0,4.6-1.1,7.92-3.39,10.16a.3.3,0,0,0-.09.24.32.32,0,0,0,.11.24,10.18,10.18,0,0,1,3.24,7.85v11.29a3.29,3.29,0,0,1-6.58,0v-9.83c0-3.16-1.49-6.34-4.81-6.34H97.73a.32.32,0,0,0-.33.32v15.85a3.29,3.29,0,1,1-6.57,0V72.88c0-3.28,1.55-4.81,4.88-4.81h4.64M97.73,92.38h2.13c2.63,0,5.65-1,5.65-8.55v-1c0-7.59-3-8.56-5.65-8.56H97.73a.33.33,0,0,0-.33.33V92.05a.33.33,0,0,0,.33.33m2.62-24.81H95.71c-3.62,0-5.38,1.74-5.38,5.31v41.83a3.79,3.79,0,1,0,7.57,0V99h2.52c3,0,4.31,2.93,4.31,5.84v9.83a3.79,3.79,0,0,0,7.58,0V103.42a10.72,10.72,0,0,0-3.27-8.1c2.29-2.34,3.4-5.74,3.4-10.39V81.68c0-9-4.4-14.11-12.09-14.11ZM97.9,74.73h2c2.55,0,5.15,1,5.15,8.06v1c0,7.09-2.6,8-5.15,8h-2V74.73Z"/><path class="bfb1f5d9-3819-4149-b9fd-1433e3555948" d="M134.49,67.8a3.28,3.28,0,0,1,3.28,3.28V106.4c0,7.52-4.12,12-11,12s-11-4.49-11-12V71.08a3.29,3.29,0,0,1,6.57,0V105.5c0,5.87,2.39,6.62,4.47,6.62s4.47-.75,4.47-6.62V71.08a3.29,3.29,0,0,1,3.29-3.28m0-.5a3.79,3.79,0,0,0-3.79,3.78V105.5c0,5.39-2,6.12-4,6.12s-4-.73-4-6.12V71.08a3.79,3.79,0,0,0-7.57,0V106.4c0,7.84,4.31,12.51,11.54,12.51s11.54-4.67,11.54-12.51V71.08a3.78,3.78,0,0,0-3.78-3.78Z"/><path class="bfb1f5d9-3819-4149-b9fd-1433e3555948" d="M152.56,67.8a10,10,0,0,1,7.95,3.28c1.78,2.09,2.68,5,2.68,8.73v1.25A3.14,3.14,0,0,1,160,84.27a3.18,3.18,0,0,1-3.22-3.35v-.21c0-5.83-2.08-6.62-4.12-6.62s-4.19.79-4.19,6.62V105.5c0,5.93,2.43,6.62,4.26,6.62,2,0,4.05-.76,4.05-6.41v-.28a3.23,3.23,0,1,1,6.44,0v1c0,3.7-.9,6.64-2.68,8.73a10,10,0,0,1-7.95,3.28c-6.7,0-10.69-4.49-10.69-12V79.81c0-7.52,4-12,10.69-12m0-.5c-7,0-11.19,4.67-11.19,12.51V106.4c0,7.84,4.18,12.51,11.19,12.51a10.48,10.48,0,0,0,8.33-3.46c1.86-2.18,2.8-5.22,2.8-9v-1a3.73,3.73,0,1,0-7.44,0v.28c0,5.91-2.31,5.91-3.55,5.91s-3.76,0-3.76-6.12V80.71c0-6.12,2.4-6.12,3.69-6.12s3.62,0,3.62,6.12v.21a3.72,3.72,0,1,0,7.44.14V79.81c0-3.83-.94-6.87-2.8-9a10.48,10.48,0,0,0-8.33-3.46Z"/><path class="bfb1f5d9-3819-4149-b9fd-1433e3555948" d="M176.45,67.66c6.92,0,11.05,4.49,11.05,12V106.4c0,7.52-4.13,12-11.05,12s-11-4.49-11-12V79.67c0-7.52,4.13-12,11-12m0,44.46c2.08,0,4.47-.75,4.47-6.62V80.57c0-5.86-2.39-6.62-4.47-6.62s-4.47.76-4.47,6.62V105.5c0,5.87,2.39,6.62,4.47,6.62m0-45c-7.22,0-11.54,4.68-11.54,12.51V106.4c0,7.84,4.32,12.51,11.54,12.51S188,114.24,188,106.4V79.67c0-7.83-4.32-12.51-11.55-12.51Zm0,44.46c-2,0-4-.73-4-6.12V80.57c0-5.39,2-6.12,4-6.12s4,.73,4,6.12V105.5c0,5.39-2,6.12-4,6.12Z"/><path class="bfb1f5d9-3819-4149-b9fd-1433e3555948" d="M205.47,67.38A2.6,2.6,0,0,1,208,70.09a3.09,3.09,0,0,1-1.11,2.19l-4.44,4.27h0a2.68,2.68,0,0,1-1.81.7,2.65,2.65,0,0,1-1.81-.71l0,0L194.3,72.3a3.18,3.18,0,0,1-1.12-2.21,2.66,2.66,0,0,1,2.59-2.71,2.8,2.8,0,0,1,2.13.94l2.49,2.42a.35.35,0,0,0,.23.09.33.33,0,0,0,.23-.09l2.5-2.42a2.78,2.78,0,0,1,2.12-.94m-5.33,10.83a10,10,0,0,1,7.24,2.54,8.76,8.76,0,0,1,2.41,6.42v.75A3,3,0,0,1,206.72,91a2.89,2.89,0,0,1-3-3V88c0-2.63-1.1-3.8-3.57-3.8-2.27,0-3.37,1-3.37,3,0,1.57.47,2.85,2.76,4l3.13,1.65c5.86,3.08,8.17,6.81,8.24,13.32,0,3.94-1,7.12-3.11,9.21a10.75,10.75,0,0,1-7.86,2.91c-6.32,0-10.56-4-10.56-9.85a12.21,12.21,0,0,1,.51-3.74,3.37,3.37,0,0,1,3.29-2.76,4.57,4.57,0,0,1,.88.1,2.74,2.74,0,0,1,1.76,1.28,3.57,3.57,0,0,1,.25,2.75,8.86,8.86,0,0,0-.26,2c0,2.84,1.44,4.29,4.27,4.29s4.33-1.83,4.33-5.59c0-4.58-1.13-6.3-5.75-8.75l-2.42-1.3c-4-2.06-5.89-5-5.89-9.29s2.57-9.23,9.8-9.23m5.33-11.33A3.26,3.26,0,0,0,203,68l-2.38,2.31L198.24,68a3.25,3.25,0,0,0-2.47-1.08,3.16,3.16,0,0,0-3.09,3.21,3.6,3.6,0,0,0,1.3,2.58l4.46,4.22,0,0a3.2,3.2,0,0,0,1.6.78c-7.56,0-10.24,5.25-10.24,9.73s2,7.58,6.16,9.73l2.42,1.3c4.45,2.37,5.48,3.92,5.48,8.31,0,4.56-2.19,5.09-3.83,5.09-2.57,0-3.77-1.21-3.77-3.79a8.29,8.29,0,0,1,.25-1.84,4.08,4.08,0,0,0-.31-3.13,3.17,3.17,0,0,0-2.08-1.5,4.32,4.32,0,0,0-1-.12,3.84,3.84,0,0,0-3.77,3.14,12.66,12.66,0,0,0-.53,3.86c0,6.19,4.45,10.35,11.06,10.35a11.24,11.24,0,0,0,8.22-3.06c2.16-2.18,3.29-5.49,3.25-9.56-.07-6.73-2.46-10.58-8.51-13.77l-3.12-1.65c-2.08-1.06-2.5-2.15-2.5-3.57,0-1.76.89-2.54,2.87-2.54,2.18,0,3.07,1,3.07,3.3v.07a3.37,3.37,0,0,0,3.51,3.48,3.48,3.48,0,0,0,3.57-3.62v-.75a9.24,9.24,0,0,0-2.55-6.77A10.08,10.08,0,0,0,201,77.74a3.29,3.29,0,0,0,1.75-.8l4.48-4.3a3.57,3.57,0,0,0,1.26-2.55,3.09,3.09,0,0,0-3-3.21Z"/><path class="bfb1f5d9-3819-4149-b9fd-1433e3555948" d="M224,67.38c6.91,0,11,4.49,11,12v35.32a3.29,3.29,0,1,1-6.57,0v-14a.32.32,0,0,0-.33-.32h-8.29a.32.32,0,0,0-.32.32v14a3.29,3.29,0,1,1-6.57,0V79.39c0-7.52,4.12-12,11-12m-4.15,26.87h8.29a.33.33,0,0,0,.33-.33V80.29c0-5.86-2.39-6.61-4.47-6.61s-4.47.75-4.47,6.61V93.92a.32.32,0,0,0,.32.33M224,66.88c-7.23,0-11.54,4.68-11.54,12.51v35.32a3.79,3.79,0,1,0,7.57,0v-13.8h7.94v13.8a3.79,3.79,0,1,0,7.57,0V79.39c0-7.83-4.31-12.51-11.54-12.51Zm-4,26.87V80.29c0-5.39,2-6.11,4-6.11s4,.72,4,6.11V93.75Z"/><path class="ec2087ed-7300-414d-9744-5252df9b6730" d="M234.35,79.39v35.32a2.64,2.64,0,0,1-5.27,0v-15H218.83v15a2.63,2.63,0,0,1-5.26,0V79.39c0-7,3.6-11.35,10.39-11.35S234.35,72.4,234.35,79.39Zm-5.27,15.52V80.29c0-5.19-1.8-7.27-5.12-7.27s-5.13,2.08-5.13,7.27V94.91Z"/></svg>