<?xml version="1.0" encoding="utf-8"?>
<!-- Generator: Adobe Illustrator 24.2.0, SVG Export Plug-In . SVG Version: 6.00 Build 0)  -->
<svg version="1.1" id="Layer_1" xmlns="http://www.w3.org/2000/svg" xmlns:xlink="http://www.w3.org/1999/xlink" x="0px" y="0px"
	 viewBox="0 0 94.9 94.6" style="enable-background:new 0 0 94.9 94.6;" xml:space="preserve">
<style type="text/css">
	.st0{fill:url(#Rectangle_2-2_1_);}
	.st1{fill:url(#Union_1_1_);}
	.st2{opacity:0.1;}
	.st3{fill:none;stroke:#000000;}
	.st4{opacity:0.2;}
	.st5{fill:none;stroke:#FFFFFF;}
</style>
<g>
	<g>
		<g>
			<linearGradient id="Rectangle_2-2_1_" gradientUnits="userSpaceOnUse" x1="16.1321" y1="11.4061" x2="74.2836" y2="77.9742">
				<stop  offset="0" style="stop-color:#FCFCFC"/>
				<stop  offset="1" style="stop-color:#F2F2F2"/>
			</linearGradient>
			<path id="Rectangle_2-2_18_" class="st0" d="M16.3,6.4h62.3c2.2,0,3.9,1.7,3.9,3.9v73.9c0,2.2-1.7,3.9-3.9,3.9H16.3
				c-2.2,0-3.9-1.7-3.9-3.9V10.1C12.6,8.1,14.3,6.4,16.3,6.4z"/>
		</g>
	</g>
	
		<linearGradient id="Union_1_1_" gradientUnits="userSpaceOnUse" x1="-1453.2649" y1="562.2994" x2="-1452.2908" y2="561.3253" gradientTransform="matrix(50 0 0 -48 72686.6953 26996.4395)">
		<stop  offset="0" style="stop-color:#3D3D3D"/>
		<stop  offset="1" style="stop-color:#1F1F23"/>
	</linearGradient>
	<path id="Union_1" class="st1" d="M60.2,53.1c-1,0-2-0.9-2-2V6.4h13.7v44.7c0,1-0.9,2-2,2H60.2z M42.7,53.1c-1,0-2-0.9-2-2V6.4
		h13.7v44.7c0,1-0.9,2-2,2H42.7z M25.1,53.1c-1,0-2-0.9-2-2V6.4h13.7v44.7c0,1-0.9,2-2,2H25.1z"/>
	<g id="Group_1" class="st2">
		<line id="Line_1" class="st3" x1="30" y1="53.1" x2="30" y2="88.2"/>
		<line id="Line_2" class="st3" x1="48.6" y1="53.1" x2="48.6" y2="88.2"/>
		<line id="Line_3" class="st3" x1="66" y1="53.1" x2="66" y2="88.2"/>
	</g>
	<g id="Group_2" transform="translate(1)" class="st4">
		<line id="Line_1-2" class="st5" x1="30" y1="53.1" x2="30" y2="88.2"/>
		<line id="Line_2-2" class="st5" x1="48.4" y1="53.1" x2="48.4" y2="88.2"/>
		<line id="Line_3-2" class="st5" x1="66" y1="53.1" x2="66" y2="88.2"/>
	</g>
	<g id="Group_3" transform="translate(-1)" class="st4">
		<line id="Line_1-3" class="st5" x1="30" y1="53.1" x2="30" y2="88.2"/>
		<line id="Line_2-3" class="st5" x1="48.6" y1="53.1" x2="48.6" y2="88.2"/>
		<line id="Line_3-3" class="st5" x1="66.1" y1="53.1" x2="66.1" y2="88.2"/>
	</g>
</g>
</svg>
