<?xml version="1.0" encoding="utf-8"?>
<!-- Generator: Adobe Illustrator 24.1.1, SVG Export Plug-In . SVG Version: 6.00 Build 0)  -->
<svg version="1.1" id="Layer_1" xmlns="http://www.w3.org/2000/svg" xmlns:xlink="http://www.w3.org/1999/xlink" x="0px" y="0px"
	 viewBox="0 0 223.9 51.5" style="enable-background:new 0 0 223.9 51.5;" xml:space="preserve">
<style type="text/css">
	.st0{fill:url(#SVGID_1_);}
	.st1{fill:url(#SVGID_2_);}
	.st2{fill:url(#SVGID_3_);}
	.st3{fill:url(#SVGID_4_);}
	.st4{fill:url(#SVGID_5_);}
	.st5{fill:url(#SVGID_6_);}
	.st6{fill:url(#SVGID_7_);}
	.st7{fill:url(#SVGID_8_);}
	.st8{fill:url(#SVGID_9_);}
	.st9{fill:url(#SVGID_10_);}
	.st10{fill:url(#SVGID_11_);}
	.st11{opacity:0.6;}
	.st12{fill:url(#SVGID_12_);}
	.st13{fill:url(#SVGID_13_);}
	.st14{fill:url(#SVGID_14_);}
	.st15{fill:url(#SVGID_15_);}
</style>
<g>
	<g id="ba3a262d-be76-4430-90b4-c98c42978d58">
		
			<linearGradient id="SVGID_1_" gradientUnits="userSpaceOnUse" x1="-20.4945" y1="170.1119" x2="26.2255" y2="102.3519" gradientTransform="matrix(1 0 0 -1 0 140)">
			<stop  offset="0" style="stop-color:#B3B3B3"/>
			<stop  offset="1" style="stop-color:#999999"/>
		</linearGradient>
		<path class="st0" d="M18.8,19.2L16,18.2c-1.5-0.5-2.4-0.8-2.7-0.9c-1.7-0.4-2.9-1.9-2.8-3.7c-0.1-1.3,0.5-2.5,1.5-3.3
			c1.3-0.7,2.8-1.1,4.2-1c2.9,0.1,5.8,0.7,8.5,2l1.9-4.6C23.3,5,19.6,4.1,16,4.2C12.9,4.1,9.8,5,7.2,6.7C5,8.4,3.8,11.1,4,13.9
			c0,4.4,2.3,7.4,6.8,9c0.4,0.1,0.9,0.3,1.8,0.6s1.7,0.5,2.6,0.8l1.7,0.5c2.8,0.8,4.3,2.3,4.3,4.4c0.1,1.4-0.5,2.8-1.5,3.7
			c-1.3,0.9-2.9,1.4-4.5,1.3c-1.7,0-3.4-0.3-5-0.7c-1.7-0.5-3.2-1.2-4.7-2l-1.5,5.1c3.3,1.9,7.1,2.9,11,2.8c3.9,0,7-0.9,9.3-2.6
			c2.3-1.8,3.6-4.6,3.4-7.5c0.1-2.3-0.6-4.5-2-6.3C24.2,21.5,22,20.2,18.8,19.2z"/>
		
			<linearGradient id="SVGID_2_" gradientUnits="userSpaceOnUse" x1="13.5177" y1="154.7434" x2="50.1077" y2="101.6734" gradientTransform="matrix(1 0 0 -1 0 140)">
			<stop  offset="0" style="stop-color:#B3B3B3"/>
			<stop  offset="1" style="stop-color:#999999"/>
		</linearGradient>
		<path class="st1" d="M41.8,12.7c-3.9,0-7,1.2-9.2,3.6c-2.2,2.4-3.2,5.6-3.2,9.7c-0.2,3.5,1,7,3.2,9.7c2.3,2.5,5.5,3.8,8.9,3.7
			c3.9,0,7-1.2,9.2-3.6s3.3-5.6,3.3-9.7c0-4-1.1-7.2-3.2-9.7C48.5,14,45.6,12.8,41.8,12.7z M46.3,32.5c-1.1,1.5-2.8,2.4-4.6,2.2
			C39.8,34.8,38,34,37,32.5c-1.2-1.9-1.7-4.2-1.6-6.4c-0.1-2.3,0.4-4.5,1.6-6.5c2.1-2.6,5.9-3,8.4-0.9c0.3,0.3,0.6,0.6,0.9,0.9
			c1.2,2,1.7,4.2,1.5,6.5C48,28.3,47.4,30.6,46.3,32.5L46.3,32.5z"/>
		
			<linearGradient id="SVGID_3_" gradientUnits="userSpaceOnUse" x1="39.6503" y1="154.6614" x2="76.3603" y2="101.4114" gradientTransform="matrix(1 0 0 -1 0 140)">
			<stop  offset="0" style="stop-color:#B3B3B3"/>
			<stop  offset="1" style="stop-color:#999999"/>
		</linearGradient>
		<path class="st2" d="M68.4,17.4c2.1,0.1,4.1,0.6,5.9,1.7l1.4-4.3c-2.3-1.4-4.9-2.1-7.6-2c-3.3-0.1-6.6,1.1-9,3.5
			c-2.3,2.4-3.4,5.6-3.4,9.8c0,4.3,1.1,7.6,3.3,10c2.2,2.4,5.2,3.5,9.1,3.5c1.4,0,2.8-0.1,4.1-0.5c1.2-0.3,2.3-0.8,3.3-1.5l-0.6-4.7
			c-1.9,1.3-4.1,2-6.4,2c-1.9,0.1-3.8-0.7-5-2.2c-1.2-1.5-1.8-3.7-1.8-6.5s0.6-5,1.8-6.4C64.6,18.1,66.5,17.3,68.4,17.4z"/>
		
			<linearGradient id="SVGID_4_" gradientUnits="userSpaceOnUse" x1="73.087" y1="144.696" x2="83.657" y2="129.366" gradientTransform="matrix(1 0 0 -1 0 140)">
			<stop  offset="0" style="stop-color:#B3B3B3"/>
			<stop  offset="1" style="stop-color:#999999"/>
		</linearGradient>
		<rect x="78.2" y="4.5" class="st3" width="6.1" height="5.2"/>
		
			<linearGradient id="SVGID_5_" gradientUnits="userSpaceOnUse" x1="55.557" y1="151.046" x2="88.917" y2="102.656" gradientTransform="matrix(1 0 0 -1 0 140)">
			<stop  offset="0" style="stop-color:#B3B3B3"/>
			<stop  offset="1" style="stop-color:#999999"/>
		</linearGradient>
		<rect x="78.2" y="13.4" class="st4" width="6.1" height="25.5"/>
		
			<linearGradient id="SVGID_6_" gradientUnits="userSpaceOnUse" x1="65.7075" y1="160.1171" x2="108.0575" y2="98.6771" gradientTransform="matrix(1 0 0 -1 0 140)">
			<stop  offset="0" style="stop-color:#B3B3B3"/>
			<stop  offset="1" style="stop-color:#999999"/>
		</linearGradient>
		<path class="st5" d="M98.7,12.7c-3.4,0-6.7,0.7-9.8,2c0,0,0.3,0.7,0.8,2.1c0.5,1.4,0.8,2.1,0.8,2.1c2.4-1,5-1.6,7.7-1.7
			c1.2-0.1,2.4,0.3,3.3,1.1c0.8,0.9,1.2,2.2,1.1,3.4v1.3c-0.4,0-1,0.1-1.6,0.2l-1.9,0.2l-1.6,0.2c-3.5,0.3-6.1,1.2-7.8,2.4
			c-1.8,1.4-2.7,3.6-2.6,5.8c-0.1,2.1,0.7,4.2,2.2,5.6c1.6,1.4,3.6,2.1,5.7,2c1.5,0,3-0.3,4.4-0.9c1.4-0.7,2.6-1.6,3.7-2.7
			c0,0.1,0.2,0.6,0.5,1.6l0.5,1.6h4.5V22.3c0-3.3-0.8-5.8-2.3-7.3S102.1,12.7,98.7,12.7z M102.4,31.6c-0.5,1-1.3,1.9-2.2,2.4
			c-1.1,0.7-2.4,1-3.7,1c-1,0.1-1.9-0.2-2.7-0.9c-0.7-0.6-1.1-1.6-1-2.5c-0.1-1.4,0.6-2.7,1.7-3.4c1.7-0.9,3.5-1.3,5.4-1.4l1.2-0.1
			l1.3,0L102.4,31.6z"/>
		
			<linearGradient id="SVGID_7_" gradientUnits="userSpaceOnUse" x1="80.0844" y1="172.6311" x2="129.2444" y2="101.3111" gradientTransform="matrix(1 0 0 -1 0 140)">
			<stop  offset="0" style="stop-color:#B3B3B3"/>
			<stop  offset="1" style="stop-color:#999999"/>
		</linearGradient>
		<path class="st6" d="M122.6,34.6c-1.6,0-2.6-0.4-3.2-1.2s-0.8-2.4-0.8-4.7V3.6L112.5,4v24.9c0,1.5,0.1,3.1,0.4,4.6
			c0.2,1.2,0.7,2.2,1.4,3.2c0.7,0.9,1.6,1.6,2.7,2c1.4,0.5,2.9,0.7,4.4,0.6c0.5,0,0.9,0,1.4-0.1c0.5-0.1,0.9-0.1,1.3-0.2
			s0.7-0.1,1-0.2l0.6-0.1l-0.2-4.3C124.5,34.5,123.6,34.6,122.6,34.6z"/>
		
			<linearGradient id="SVGID_8_" gradientUnits="userSpaceOnUse" x1="99.1081" y1="176.7137" x2="151.5181" y2="100.7037" gradientTransform="matrix(1 0 0 -1 0 140)">
			<stop  offset="0" style="stop-color:#B3B3B3"/>
			<stop  offset="1" style="stop-color:#999999"/>
		</linearGradient>
		<path class="st7" d="M148.6,21c0.8-0.2,1.6-0.6,2.2-1.1c0.6-0.4,1.1-0.9,1.5-1.4c0.4-0.5,0.7-1.1,0.9-1.7c0.2-0.5,0.3-1.1,0.4-1.6
			c0.1-0.5,0.1-1,0.1-1.5c0-3.1-1.1-5.3-3.3-6.6s-5.6-2-10.1-2h-10.6v34h12.6c4,0,7.1-0.8,9.4-2.5c3.8-3.2,4.5-8.6,1.7-12.7
			C152.2,22.4,150.4,21.4,148.6,21z M135.9,9.7h4.1c2-0.1,3.9,0.2,5.7,1c1.3,0.8,2,2.2,1.8,3.7c0,3.2-2.1,4.8-6.2,4.8h-5.4V9.7z
			 M141.4,34.6h-5.5v-11h5.3c2.5,0,4.4,0.4,5.6,1.3c1.3,1,2,2.5,1.8,4.1C148.6,32.7,146.2,34.6,141.4,34.6z"/>
		
			<linearGradient id="SVGID_9_" gradientUnits="userSpaceOnUse" x1="129.6476" y1="165.3471" x2="176.8376" y2="96.8971" gradientTransform="matrix(1 0 0 -1 0 140)">
			<stop  offset="0" style="stop-color:#B3B3B3"/>
			<stop  offset="1" style="stop-color:#999999"/>
		</linearGradient>
		<path class="st8" d="M171.8,21.9c-1.7,5-2.8,8.4-3.3,10.3l-6.7-18.5h-6.5l10.3,25c-0.6,1.6-0.9,2.5-0.9,2.6
			c-0.4,1.2-1.1,2.2-2.1,3c-1,0.6-2.2,0.9-3.4,0.8c-1.1,0-2,0-2.7-0.1l0.3,4.7c1,0.1,2.1,0.2,3.2,0.2c2.3,0.1,4.6-0.5,6.4-1.8
			c1.9-1.6,3.4-3.7,4.2-6.1c0.1-0.2,3.6-9.6,10.7-28.3h-6.5L171.8,21.9z"/>
		
			<linearGradient id="SVGID_10_" gradientUnits="userSpaceOnUse" x1="157.3783" y1="165.7038" x2="201.8483" y2="101.1938" gradientTransform="matrix(1 0 0 -1 0 140)">
			<stop  offset="0" style="stop-color:#B3B3B3"/>
			<stop  offset="1" style="stop-color:#999999"/>
		</linearGradient>
		<path class="st9" d="M195.4,34.8c-1.2,0.1-2.3-0.3-3.1-1.2c-0.7-1.3-1-2.7-0.8-4.1V17.3h6.3v-3.7h-6.3V6.7l-3.7,0.1l-2,6.9
			l-4.4,0.4l-0.2,3.3h4.2v12c0,1.5,0.1,3,0.4,4.4c0.2,1.1,0.7,2.2,1.4,3.1c0.7,0.9,1.6,1.6,2.7,1.9c1.4,0.4,2.9,0.7,4.3,0.6
			c0.4,0,0.9,0,1.4-0.1s0.9-0.1,1.2-0.2l1-0.2l0.6-0.1l-0.2-4.4C197.3,34.8,196.4,34.8,195.4,34.8z"/>
		
			<linearGradient id="SVGID_11_" gradientUnits="userSpaceOnUse" x1="181.6553" y1="155.6149" x2="219.8653" y2="100.1849" gradientTransform="matrix(1 0 0 -1 0 140)">
			<stop  offset="0" style="stop-color:#B3B3B3"/>
			<stop  offset="1" style="stop-color:#999999"/>
		</linearGradient>
		<path class="st10" d="M218.9,16.3c-2.1-2.3-5.1-3.5-8.2-3.3c-3.3-0.1-6.5,1.2-8.8,3.6c-2.2,2.4-3.2,5.6-3.2,9.7
			c0,4.2,1.1,7.4,3.4,9.8s5.5,3.5,9.6,3.5c3.2,0.1,6.4-0.7,9.1-2.4l-0.9-4.3c-2.4,1.4-5.2,2.2-8,2.2c-1.9,0.1-3.8-0.6-5.1-2
			c-1.3-1.5-2.1-3.5-2-5.5h17c0-0.3,0-0.7,0-1.3s0-1,0-1.3C222,21.8,220.9,18.7,218.9,16.3z M204.9,23.8c0-1.8,0.7-3.5,1.9-4.8
			c1-1.1,2.5-1.7,4-1.6c1.5-0.1,2.9,0.5,3.9,1.7c1,1.4,1.5,3.1,1.4,4.8L204.9,23.8z"/>
		<g class="st11">
			
				<linearGradient id="SVGID_12_" gradientUnits="userSpaceOnUse" x1="99.1081" y1="176.7137" x2="151.5181" y2="100.7037" gradientTransform="matrix(1 0 0 -1 0 140)">
				<stop  offset="0" style="stop-color:#81A4F2"/>
				<stop  offset="0.25" style="stop-color:#789BE9"/>
				<stop  offset="0.66" style="stop-color:#5E81CF"/>
				<stop  offset="1" style="stop-color:#4568B6"/>
			</linearGradient>
			<path class="st12" d="M148.6,21c0.8-0.2,1.6-0.6,2.2-1.1c0.6-0.4,1.1-0.9,1.5-1.4c0.4-0.5,0.7-1.1,0.9-1.7
				c0.2-0.5,0.3-1.1,0.4-1.6c0.1-0.5,0.1-1,0.1-1.5c0-3.1-1.1-5.3-3.3-6.6s-5.6-2-10.1-2h-10.6v34h12.6c4,0,7.1-0.8,9.4-2.5
				c3.8-3.2,4.5-8.6,1.7-12.7C152.2,22.4,150.4,21.4,148.6,21z M135.9,9.7h4.1c2-0.1,3.9,0.2,5.7,1c1.3,0.8,2,2.2,1.8,3.7
				c0,3.2-2.1,4.8-6.2,4.8h-5.4V9.7z M141.4,34.6h-5.5v-11h5.3c2.5,0,4.4,0.4,5.6,1.3c1.3,1,2,2.5,1.8,4.1
				C148.6,32.7,146.2,34.6,141.4,34.6z"/>
			
				<linearGradient id="SVGID_13_" gradientUnits="userSpaceOnUse" x1="129.6476" y1="165.3471" x2="176.8376" y2="96.8971" gradientTransform="matrix(1 0 0 -1 0 140)">
				<stop  offset="0" style="stop-color:#81A4F2"/>
				<stop  offset="0.25" style="stop-color:#789BE9"/>
				<stop  offset="0.66" style="stop-color:#5E81CF"/>
				<stop  offset="1" style="stop-color:#4568B6"/>
			</linearGradient>
			<path class="st13" d="M171.8,21.9c-1.7,5-2.8,8.4-3.3,10.3l-6.7-18.5h-6.5l10.3,25c-0.6,1.6-0.9,2.5-0.9,2.6
				c-0.4,1.2-1.1,2.2-2.1,3c-1,0.6-2.2,0.9-3.4,0.8c-1.1,0-2,0-2.7-0.1l0.3,4.7c1,0.1,2.1,0.2,3.2,0.2c2.3,0.1,4.6-0.5,6.4-1.8
				c1.9-1.6,3.4-3.7,4.2-6.1c0.1-0.2,3.6-9.6,10.7-28.3h-6.5L171.8,21.9z"/>
			
				<linearGradient id="SVGID_14_" gradientUnits="userSpaceOnUse" x1="157.3783" y1="165.7038" x2="201.8483" y2="101.1938" gradientTransform="matrix(1 0 0 -1 0 140)">
				<stop  offset="0" style="stop-color:#81A4F2"/>
				<stop  offset="0.25" style="stop-color:#789BE9"/>
				<stop  offset="0.66" style="stop-color:#5E81CF"/>
				<stop  offset="1" style="stop-color:#4568B6"/>
			</linearGradient>
			<path class="st14" d="M195.4,34.8c-1.2,0.1-2.3-0.3-3.1-1.2c-0.7-1.3-1-2.7-0.8-4.1V17.3h6.3v-3.7h-6.3V6.7l-3.7,0.1l-2,6.9
				l-4.4,0.4l-0.2,3.3h4.2v12c0,1.5,0.1,3,0.4,4.4c0.2,1.1,0.7,2.2,1.4,3.1c0.7,0.9,1.6,1.6,2.7,1.9c1.4,0.4,2.9,0.7,4.3,0.6
				c0.4,0,0.9,0,1.4-0.1s0.9-0.1,1.2-0.2l1-0.2l0.6-0.1l-0.2-4.4C197.3,34.8,196.4,34.8,195.4,34.8z"/>
			
				<linearGradient id="SVGID_15_" gradientUnits="userSpaceOnUse" x1="181.6553" y1="155.6149" x2="219.8653" y2="100.1849" gradientTransform="matrix(1 0 0 -1 0 140)">
				<stop  offset="0" style="stop-color:#81A4F2"/>
				<stop  offset="0.25" style="stop-color:#789BE9"/>
				<stop  offset="0.66" style="stop-color:#5E81CF"/>
				<stop  offset="1" style="stop-color:#4568B6"/>
			</linearGradient>
			<path class="st15" d="M218.9,16.3c-2.1-2.3-5.1-3.5-8.2-3.3c-3.3-0.1-6.5,1.2-8.8,3.6c-2.2,2.4-3.2,5.6-3.2,9.7
				c0,4.2,1.1,7.4,3.4,9.8s5.5,3.5,9.6,3.5c3.2,0.1,6.4-0.7,9.1-2.4l-0.9-4.3c-2.4,1.4-5.2,2.2-8,2.2c-1.9,0.1-3.8-0.6-5.1-2
				c-1.3-1.5-2.1-3.5-2-5.5h17c0-0.3,0-0.7,0-1.3s0-1,0-1.3C222,21.8,220.9,18.7,218.9,16.3z M204.9,23.8c0-1.8,0.7-3.5,1.9-4.8
				c1-1.1,2.5-1.7,4-1.6c1.5-0.1,2.9,0.5,3.9,1.7c1,1.4,1.5,3.1,1.4,4.8L204.9,23.8z"/>
		</g>
	</g>
</g>
</svg>
