<svg xmlns="http://www.w3.org/2000/svg" viewBox="0 0 201.3 140"><path d="M133.6 65.3c-4.3-11-4.3-23.3 0-34.3 1.1-2.7 2.5-5.3 4.2-7.8 1.6-2.4 3.4-4.7 5.3-6.9 3.8-4.4 8.2-8.2 13-11.5l.4-.3.4.4c2.4 2.1 4.5 4.6 6.3 7.3s3.1 5.7 4 8.8a33.73 33.73 0 0 1 0 19.4c-1.9 6.3-5.7 11.9-10.7 16.1-5 4.1-11 6.7-17.5 7.4l-.1-.3c6-1.6 11.5-4.7 16-8.9 4.4-4.2 7.6-9.4 9.4-15.2 1.7-5.8 1.9-11.9.4-17.8s-4.5-11.4-8.8-15.8l.8.1c-5 2.8-9.3 6.5-12.9 11-1.8 2.2-3.3 4.6-4.6 7.1-.7 1.2-1.2 2.5-1.8 3.8-.3.6-.5 1.3-.8 2s-.5 1.3-.7 2c-.9 2.6-1.7 5.3-2.3 8s-.9 5.5-1.1 8.3c-.3 5.7.1 11.4 1.3 16.9l-.2.2zm21.5-51.6c0 4.2-.4 8.3-1.1 12.5-.7 4.1-1.8 8.2-3.2 12.1-2.8 7.9-6.9 15.3-12.2 21.8 4.4-7 8-14.5 10.8-22.3 1.4-3.9 2.6-7.8 3.5-11.9.9-4 1.7-8.1 2.2-12.2z" fill="#a8ce38"/><g fill="#7473ac"><path d="M23.5 45.4c0 .1 0 .1.1.1s.2-.2.1-.3h1.7c.3 0 .5 0 .8.1.2.5.2 1.1.2 1.7v1.2c0 .5 0 .9-.2 1.4-.3.1-.6.1-.9.1s-.6 0-.9.1c-.1.2-.2.4-.2.7V56c.1 1.2-.2 2.3-.8 3.3-.3.5-.6.9-1 1.2l-.2.2c-.1.1-.1.1-.2.1s-.2 0-.2.1h-.2c0 .1-.1.1-.2.1s-.2 0-.3.1c-.3.2-.7.2-1 .2h-.6c-.1 0-.2 0-.3.1s-.3.1-.5.1h-4.5c-.1 0-.2 0-.3-.1s-.2-.1-.3-.1h-.4c0-.1-.1-.2-.2-.2-.2 0-.4-.1-.5-.1-.2-.1-.3-.1-.5-.1-.1-.1-.2-.2-.4-.2-.1 0-.2-.1-.2-.2h0-.2v-.2h-.4V60c-.4-.2-.7-.5-1-.8 0 0-.1 0-.1-.1s-.1-.2-.1-.3-.1-.2-.2-.3c-.2 0-.2-.1-.2-.2-.1-.1-.1-.1-.1-.2s0-.2-.1-.2c-.1-.3-.2-.5-.2-.8v-1.7c.1 0 .2-.1.2-.2h0v-.4c.1 0 .2-.1.3-.3s.3-.3.3-.3V54s0-.1.1-.1h0v-.2h.2v-.2h.3s.1 0 .1-.1v-.1h.2c.3-.1.5-.3.8-.3 0 0 0 .1-.1.1h-.1c.1.1.1.1.2.1s.1-.1.2-.1c0-.1 0-.2-.1-.2h.1c.3-.1.6-.2.9-.2s.6 0 .9.2h.2l.2.2h.3l.2.2c.1.1.3.2.4.3s.3.2.4.3v.2h.2v.2l.2.2c.1.1.1.1.1.2v.6c0 .1 0 .1.1.1h.1v.7c0 .1 0 .2.1.3 0 .1.1.2.4.2v-.2c.1 0 .2 0 .2.1s.1.1.2.1.2-.1.2-.2h.1v-.2s0-.1.1-.1h0c.1-.1.1-.1.1-.2s0-.2.1-.2c.1.2.1.3 0 .4l-.2.2c.1.1.1 0 .2-.1s.1-.2.2-.2c0-.1 0-.2.1-.2.1-.1.1-.1.1-.2h-.4V55c0-.1.1-.2.1-.2.1-.1.1-.1.1-.2h-.2v-3.8c0-.5 0-1.1-.1-1.6h-1.2c-.2 0-.4 0-.5-.1-.2 0-.3-.1-.4-.2s-.1-.3-.1-.4v-2.8c0-.3 0-.6.1-.8h3.4c.4 0 .8 0 1.2-.1h1c.3-.1.6-.1.9-.1h2.2v.1h-.2v.6zm-14.7 10s.1-.1.2-.1h.3v-.1c-.4 0-.5.1-.5.2h0zm.4-.5l.1-.1c0-.1 0-.1.1-.1s.1 0 .1-.1c-.1 0-.2.1-.3.1-.1.1-.1.2-.1.3 0 0 .1 0 .1-.1h0zm.3 2.6s0-.1-.1-.1l-.2.2.3-.1zm.2-1.5c0 .1 0 .1-.1.2h.1c.1-.1.1-.2 0-.2zm.1-1.7c0-.1 0-.1.1-.2s.2-.1.2-.1 0-.1-.1-.1 0 .1-.2.1c-.1 0-.1.1-.2.1.1 0 .1.1.2.2h0zm-.1.8c.1 0 .2-.1.2-.2-.1 0-.2 0-.2.2h0zm.1 1.6v.2h.2c0-.1-.1-.2-.2-.2zm.3-1.2h.2v-.2c-.1 0-.3.1-.2.2-.2 0-.2.1-.2.2l.2-.2zm.3 1.1v-.2c0-.1-.1 0-.2 0l.2.2zm-.1-3l.1.1h.1l.1-.1h.1v-.1h.2v-.1c-.3 0-.5.1-.6.2h0zm.1 5.2h.4s.1 0 .1-.1l-.5.1zm.1 1c.1 0 .1 0 .1-.1v-.1s-.1.1-.1.2c-.1 0-.1 0 0 0h0zm.6-4.7c-.3 0-.4.1-.4.2.2 0 .4 0 .4-.2h0zm0-1.8h0c-.1 0-.1 0 0 0h0zm.4 6s-.1 0 0 0l-.1.2c0-.1 0-.1.1-.2h0zm.1-6h-.2c-.1 0 0 .1 0 .2l.2-.2zm0 2.3c.1.2.1.2.2.1s.1-.2 0-.3v.1l-.2.1zm1.1 2.7h0c-.1-.1-.1-.1-.2-.1s0 .1 0 .2c.1-.1.2-.1.2-.1h0zm0 1.2c.1 0 .2-.1.2-.2h0l-.2.2zm.1-5.8h.1v-.1s-.1 0-.1.1h0zm.3.2c.1 0 .1 0 .2-.1l.1-.1c-.1 0-.2.1-.3.2h0zm.1 1.8h.2c.1 0 0-.1 0-.2-.1 0-.1 0-.1.1l-.1.1zm0 2.9c.1 0 .2-.1.2-.2s-.1 0-.2 0 .1.1 0 .2h0zm.1.4c.3 0 .4-.1.4-.2h-.4c-.1 0-.1 0-.1.1l.1.1zm.5 1c.1-.1.1-.1-.1-.1s-.3 0-.3.1c0-.1.1-.1.2-.1s.1 0 .2.1h0zm0-6.1c-.1.2-.1.2 0 .2.1-.2.1-.3 0-.2h0zm.2 5c.1 0 .2-.1.2-.2h.2c0-.1-.1-.1-.2-.1s-.1.1-.2.1v.2zm.3-1.4v.2s.1 0 0-.2h0zm.2-2.2c0-.1 0-.1.1-.1s0 0-.1-.1c-.1.1-.1.2 0 .2h0zm.3-9c-.1.1-.1.1 0 .2.1 0 .2-.1.2-.2h-.2zm.1-.4c.1 0 .2 0 .3-.1 0-.1 0-.1-.1-.1v.1l-.2.1-.1-.1c0-.1 0-.1.1.1h0zm.1 14.2h0c.2 0 .3-.1.3-.2h-.2c-.1.1-.1.1-.1.2h0zm.6-2.4v-.2h-.2v.2h.2zm0-11c0-.1 0-.2-.1-.2v.2c0 .1 0 .1.1 0h0zm.7-.7v-.2H16v.2h.3zm-.1 2l.2-.1c.1 0 .1-.1.1-.1v-.2c-.1 0-.2.1-.3.1 0 .1-.1.2 0 .3h0zm1-2H17v.2c0 .1.1 0 .2 0V46zm.1 4.3v-.2h-.2v.2h.2zm-.1 5.3c.1 0 .1 0 .1-.1v-.1s-.1.1-.1.2h0zm.3.8h0c0-.1-.2 0 0 0zm0-4.7h.3v-.1l-.3.1zm0-3.1c.1 0 .2-.1.2-.2s-.2.1-.2.2h0zm0-2.8c.1 0 .2 0 .2-.1l.1-.1c-.2 0-.3 0-.3.2h0zm.2 4.9v-.2h-.2v.2h.2zm0 3.1c0-.1.1-.2.1-.2-.2 0-.3.1-.3.2h.2zm.1-5.5h0-.2.2zM18 55v-.2h-.2v.2h.2zm-.2 4.9c.3 0 .4-.1.4-.2-.2 0-.3.1-.4.2zm.3-6.8h0c-.1.2 0 .2.1.2s.1-.1 0-.1 0-.1-.1-.1h0zm.1 7.2c0-.2.1-.2 0-.2 0 .2-.1.2 0 .2h0zm0-8.8h.2v-.2h-.2v.2zm.4 3c0-.1-.1-.1-.2-.1l-.2.1h.4zm-.2-8.2c.1-.1.1-.2 0-.2s-.2.1-.2.2h.2zm0 2.7h0m0-.2h0zm0 2.2h-.1.1c.2.1.2.1.2 0h-.2zm0-1.2c0-.1 0-.1.1-.1s.1 0 .1-.1-.2-.1-.2 0v.2zm.7 9c-.1 0-.1 0 0 0 .1.1.2.1.2 0h-.2zm.2-13.2v-.2h-.2v.2h.2zm-.2 9.9c.1 0 .1 0 .1-.1v-.1c-.1 0-.2 0-.1.2-.1-.1-.1 0 0 0h0zm.8-10.1c.1.1.1.1.2.1h.2l.1-.1h-.5zm0 1.7l.2-.2h-.2v.2zm0 1c.1 0 .1 0 .2.1v-.1h-.2zm.1 2.2c0-.1 0-.2.1-.2s.1-.1.2-.1c-.1 0-.2 0-.3.1v.2zm.2-.5h0c-.1-.1-.1 0-.1 0v.1l.1-.1zm.2-.1h0c0-.1.1-.1 0 0l.1-.1v-.1c-.2 0-.3 0-.3.2h.2zm.2 5.6h-.1.1c.2.1.2.1.2 0h-.2zm-.1-9.2c.1.1.2 0 .2 0V46s-.1 0-.2.1c0-.1.1 0 .1.1l-.1-.1zm.1 2.4c.1 0 .2-.1.2-.2h-.2c.1.1 0 .1 0 .2h0zm.4 10.2h0c0-.1 0-.1 0 0l-.2-.1h-.2c0 .1 0 .1.1.1l.1-.1.2.1zm.1-13.1h.2c.1 0 .1 0 .1-.1s.1-.2.1-.3c0 .1-.1.1-.2.1v.1c-.1 0-.2.1-.2.2h0zm.6 11c-.1.1-.1.2.1.2 0 0-.1 0-.1-.1v-.1zm.2-10.3s0-.1 0 0c0-.1 0-.1 0 0l.1-.1v-.1c-.1-.1-.2-.1-.3 0 0 .1.1.2.2.2h0zm.8-.6v-.2h-.2v.2h.2zm1.7 0c0 .1.1.1.2 0 .1 0 .2-.1.2-.3-.1 0-.2 0-.3.1 0 .1-.1.2-.1.2h0z"/><path d="M29.2 46.8c.1.1.1.1 0 0h0c.1-.1.1-.1.1-.2h0v.3l-.1.1c-.1 0-.1 0-.2.1V47l.1-.1c.1.1.1 0 .1-.1h0zm10.1-1.9h-9.2c-.3 0-.5 0-.8.1h-.2v.1c-.1 0-.2.2-.2.6 0 1.1 0 2.3.2 3.4.6.2 1.3.3 2 .2v1.3c0 .2 0 .4-.1.6v.6c.1.1.1.2.1.4l-.1.1c.1 0 .1.2 0 .6v2.5c0 .6 0 1.2.2 1.8 0 .1 0 .2.1.2s.1.1.1.2v.4a.76.76 0 0 1 .2.4c.1 0 .1.1 0 .2h.4v.2h.2v.2l.1.1s.1.1.1.2c.1 0 .1 0 .1.1 0 0 .1.1.1.2s.1.1.1.2l.2.2v.2h.4v.2h.2c.1 0 0 .1 0 .2h.4l.2.2c.1 0 .3.1.4.1.1.1.3.1.4.1 1.3.2 2.7.2 4 .2h3.2c.1-.1.2-.1.3-.2l.4-.1c.1 0 .2-.1.2-.2h.2l.3-.3s.1-.1.1-.2h.2l.3-.3c.2 0 .3-.1.4-.2v-.2h.2l.1-.1v-.6h.2c.1-.1.2-.2.2-.4s.1-.4.2-.6c.1-.3.1-.5.1-.8v-1c0-.4-.1-.7-.1-.9.2-.2.2-.5.2-.8V50c0-.2.1-.3.2-.4.3-.1.7-.1 1-.1.4 0 .7 0 1.1-.1.2-.5.2-1.1 0-1.7v-.2c.1 0 .1-.1 0-.2s0-.5.1-.8 0-.6 0-.9 0-.5-.1-.8h-8.1v4.4h.6c.1 0 .2.1.4.1h.3c.1 0 .1 0 .1.1v5.9c0 .2-.1.3-.2.4v.3l-.4.4h-.4c-.2 0-.3 0-.5.1-.1.1-.2.1-.3.1-.5 0-1-.1-1.4-.4a.76.76 0 0 1-.2-.4c-.2-1.6-.2-3.2-.2-4.8 0-.5 0-1 .2-1.5.2-.1.5-.1.8-.1.4 0 .6 0 .6-.1l.1-4.4zM29 48.2c0-.1.1-.1.2 0H29zm0-2.9c.1 0 .2 0 .2-.1.1-.1.2-.1.4-.1l-.3.3h-.1s-.1 0-.2-.1h0zm.6 1.5c0-.1 0-.1 0 0 .1-.1.2-.1.2-.1h.2l-.4.1zm.9-1.3v-.2h.2l-.2.2zm.3-.1h.1v.1l-.1-.1zm.2 1.1c-.1-.1-.1-.2-.1-.3.1-.1.2-.1.3-.1 0 .1 0 .2-.1.2-.1.1-.1.2-.1.2h0zm0 1.4v-.2c.1 0 .1 0 .1.1v.1H31zm.3-1.7c-.1-.1-.1-.2-.1-.3s.1-.1.2-.1c0 .1 0 .2-.1.2s-.1.1 0 .2h0zm0 9V55h.2v.2h-.2zm.1-.6c0 .1 0 .1 0 0 0 .1-.1 0 0 0h0zm0 1.5c.2 0 .2-.1.2-.2l.1.1-.3.1zm0 .4v-.2h.2v.2h-.2zm.2-1.9c0 .1-.1.1-.2 0 .1-.1.2-.1.2 0h0zm-.1-9c0-.2 0-.3.1-.3s.1-.1.1-.1c.1 0 .1 0 .1.1s-.2.3-.3.3h0zm.1 8.2h0l.3-.2c0 .1 0 .2-.1.2h-.2zm0-5.2v-.2h.2v.2h-.2zm0 3.5v-.2h.2v.1c0 .1 0 .2-.2.1h0zm.6-5.1h0c.2-.1.2-.1.3-.1 0 .1-.1.2-.3.1h0zm0 10.4h.4l-.2.1c0-.1-.1-.1-.2-.1h0zm.6-12h-.3s0-.1.1-.2c.2 0 .3.1.2.2h0zm0 8.4c-.3 0-.3-.1 0-.2.2 0 .2.1 0 .2h0zm.1-1.8c0 .1-.1.1-.2.2s-.1-.1 0-.2h.2zm-.2 5.3c0-.1.1-.2.2-.2h.1c-.1.1-.2.1-.3.2h0zm.4-3.5c0-.1.1-.1.2-.1s.2 0 .2-.1c0 .2-.1.2-.4.2h0zm.3-4.3h0c0 .2-.1.2-.2.2s-.1-.1 0-.2.2 0 .2 0h0zm.1 9.2c0 .1-.1.2-.2.2s-.1 0 0-.2h.2zm.2-13.3h0-.2c-.1 0-.2 0-.2-.1l.4.1zm-.4.9v-.2h.2v.2h-.2zm0 5.8h0c.2-.1.2-.1.2 0h-.2zm0 3.3v-.2h.2c.1 0 0 .2 0 .2h-.2zm0 2.5v-.2h.2v.2h-.2zm0-7c0-.1 0-.2.1-.2s.1-.1.1-.2c.1.1.1.2.1.3-.1.1-.2.2-.3.1h0zm0-2.2v-.3.3c.1-.1.2 0 .2.1l-.2-.1zm0 5.7c0-.1.1-.2.2-.2s0 .2 0 .2h-.2zm.1-1.2h.2v.1s-.1.1-.2.1-.1-.1 0-.2h0zm.2 6.7v-.2h.2v.2h-.2zm0-5.5h0l.2-.2v.2h-.2zm.3-5.4h0c.2-.1.3-.2.4-.2 0 .1-.1.2-.4.2h0zm.1-2c0-.1.1-.2.4-.2-.1.1-.2.2-.4.2h0zm0 7.2c0-.1.1-.2.2-.2h0l-.2.2zm.2-8.7v-.2h.2v.2h-.2zm.1 8.1h0c-.1-.1.1-.1.2-.1l-.2.1zm0-5.6v-.2c.2 0 .3.1 0 .2h0zm0 10.2V58c.2 0 .3.1 0 .2h0zm.7-12.7c-.1-.1-.2-.1-.2-.2s0-.1.1-.1.1-.1.1-.1h.1s0 .1-.1.1v.3zm.4 5.5h-.2c0-.1.1-.1.2-.2s0 .1 0 .2zm.1 6.7v-.2h.2v.2h-.2zm0 1v-.2c0-.1.1 0 .2 0s-.1.3-.2.2h0zm.1-4.6c0-.1.1-.2.4-.2h0l-.2.1c0 .1-.1.1-.2.1h0zm.3-8.1c0-.1 0-.2.1-.2h.1v.1l-.2.1c.1-.1 0-.1 0 0h0zm.2 6.6c-.1 0-.2-.1-.1-.2s.1-.1.1 0v.2zm-.1-1.8c0-.1.1-.2.2-.2s0 .1 0 .2H36zm.2-.4c0-.1.1-.2.2-.2h0v.2h-.2zm0 3.4h0c0-.1 0-.1 0 0 .2-.1.2-.1.3-.1v.2s-.2 0-.3-.1h0zm0-8.2v-.2h.2c0 .1-.1.1-.2.2h0zm.3 4.8v-.2h.2v.2h-.2zm.2 1.5h0l.1.2c-.2 0-.3-.1-.1-.2h0zm.2-4.3h0c-.1.1-.2 0-.2-.2h.2v.2zM36.7 59v-.2h.2c.1.1 0 .2-.2.2h0zm.4-13.6s-.1.1-.2.1l-.2-.1h.4zm-.2 9.3c0-.1.1-.2.3-.2l-.1.1s-.1.1-.2.1h0zm1-8.2v-.2c.1.1.1.2 0 .2h0v.2c-.1 0-.1 0 0-.2h0zm.2 1.2c-.1 0-.2.1-.2.2 0-.1.1-.2.2-.2h0zm-.2 10.5h0c0-.1.1-.2.1-.2l-.1.2zm.4.4c0 .1-.1.1-.2.2 0-.1.1-.2.2-.2h0zm0-10.1c0 .1.1.1.2 0s.1 0 .1.1c-.1.1-.2.1-.3.1v-.2zm.2-3.1c.1 0 .1.1-.1.2.1 0 .1-.1.1-.2h0zm1 11.9v-.2h.2v.2h-.2zm.6-10.5l-.2.1c-.1 0-.1 0 0-.1h.2zm-.2 10.5c0-.1 0-.2.1-.2h.1l-.2.2zm.3-8.6v-.2h.2v.2h-.2zm.1 8.4c0-.1.1-.2.2-.2h.1c0 .1-.1.2-.3.2h0zm1-10.5h0c.1-.1.2-.1.2-.1 0 .1 0 .2-.2.1h0zm1.2 4.1v-.2h.3v.2h-.3zm.4-5.2c-.1 0-.1 0 0 0-.1-.2.1-.3.2-.1s0 .1-.2.1h0zm2.4-.1h0c0 .1 0 .1 0 0 0 .1-.1.1 0 0h0zm.9 1.6h-.4l.2-.2.1.1c.1 0 .1 0 .1-.1s.2.1 0 .2h0zm0 .9h.2c0 .1-.1.2-.3.2.1 0 .2 0 .1-.2h0zm0-2.4v-.4h.3c-.1 0-.2.1-.2.2h0l-.1.2zm.8 3c.1.1.1.1 0 0-.1.1-.2.1-.2.1v-.1h.2z"/><path d="M67.9 53.2c.1 0 .2.1.2.2h.2v.2h.4l.4.4v.2l.2.2.2.1c.1 0 .1.1.1.1s.2.1.2.4h.2v.4l.2.2V57c.4.1.7.1 1.1 0 .3-.1.7-.1 1 0 .2.7.2 1.4.2 2.1s0 1.4-.2 2.1c-.3.1-.7.1-1 .1h-6v-.2h-.6l-.2-.1c-.1 0-.2 0-.2-.1-.1-.1-.1-.1-.2-.1h-.2v-.2h-.2a.76.76 0 0 1-.2-.4l-.2-.2c0-.1-.1-.2-.2-.2 0-.2-.1-.5-.2-.6V58c-.2-.2-.2-.4-.2-.7v-1.1c0-.2-.1-.4-.2-.6v-.2c-.1 0-.1 0-.2-.1-.1 0-.1-.1-.1-.2s-.1-.1-.1-.2h-.4c-.6-.2-1.2-.3-1.9-.2-.3.3-.3 1 0 2.1a.76.76 0 0 1 .4-.2c0 .1.1.2.4.2h1c.1 0 .2 0 .3.1a6.16 6.16 0 0 1 0 3.3v.3c0 .1 0 .2.1.3 0 .1 0 .2-.1.2-.3.1-.7.1-1 .1h-2.3v.2c-.1 0-.1 0-.2-.1l-.1-.1h-7c-.2 0-.4 0-.6-.1-.2-.7-.2-1.4-.2-2.1s.1-1.4.3-2.1c.3-.1.7-.1 1-.1.4 0 .7 0 1.1-.1.1-.1.1-.1.1-.2v-.7c.1-.1.2-.4.2-.8v-5.8l-.5.1c-.3 0-.5 0-.5-.1a2.22 2.22 0 0 1-1.6-.3v-4h.3c0-.1.1-.1.2-.1h5.6c.1 0 .2 0 .2.1s.1.1.2.1.2-.1.2-.1.1-.1.2-.1h1.8l.2.2a3.21 3.21 0 0 1 1.7-.2c.2 0 .5 0 .7.1.1.2.4.2.6.2.3 0 .6-.1.8-.1.3-.1.5-.1.8-.1.7 0 1.4.2 2.1.4h.4c.2 0 .2.1.2.2h.2c.1 0 .2 0 .3.1s.2.1.3.1l.2.2c.1 0 .2 0 .3.1s.2.1.3.1l.8.8v.2a.76.76 0 0 0 .4.2v.4h.2c.1 0 .1 0 .1.1l.1.1c0 .3.1.4.2.4v2.5H70v.4c-.2 0-.2.1-.2.2l-.2.2v.2c-.3.1-.4.3-.4.4h-.1v.2H69c0 .2-.1.2-.2.2h-.2v.2c-.3 0-.4.1-.4.2l-.3.3zM51 57.3c-.3 0-.4.1-.4.2.3 0 .4 0 .4-.2zm1 0h-.2v.4c.2 0 .3-.2.2-.4h0zm.6-11.6c.3 0 .4-.1.4-.4-.2 0-.3 0-.4.1v.3zm.5.2c.1 0 .2 0 .2-.2 0 .1-.1.2-.2.2h0zm.6 15.3c.1 0 .2-.1.2-.4 0 .1-.1.1-.2 0h0c0-.1-.1-.1-.2 0h0c.1.1.1.1.1.2s0 .1.1.2h0zm0-11.7v-.2h-.2v.2h.2zm.2 2s0-.1 0 0c-.1-.1-.1-.1-.2-.1s-.1.1 0 .2l.2-.1zm-.1 6.5h.2v-.2c-.1 0-.2 0-.2.2h0zm.2-4.4c.3 0 .4-.1.4-.2a.76.76 0 0 0-.4.2h0zm.4-5.8v-.2h-.2v.2h.2zm-.1 9.4c.2 0 .3 0 .3-.2h-.1v.1h-.1s-.1 0-.1.1c0-.1 0 0 0 0h0zm0-5.9c0 .1 0 .1-.1.2h.1v-.2zm0 8.3h0c.1-.2.1-.2.1-.3s-.1-.1-.1-.2c0 .1 0 .1-.1.2.1.1.1.2.1.3 0-.1 0 0 0 0h0zm0-13.2h.2l.2-.1v-.1c-.1-.1-.2-.1-.3-.1-.1.1-.1.2-.1.3h0zm0 14c.3 0 .4-.1.4-.2h-.3v.1l-.1.1zm.6 0h.3v-.2c-.1 0-.2-.1-.2-.2h0v.1h-.1s-.1.1-.2.1-.2.2-.2.3h.3c.1 0 .2-.1.2-.2s.1-.1.1-.2l-.2.3zm-.5-2.8c0-.1.1-.1.2-.1v-.2c-.1-.1-.2.1-.2.3h0zm.5 3.2c.1-.1.1-.3 0-.4l-.2.2c-.1.1-.2.2-.2.4.2 0 .3 0 .4-.2h0zm-.4-15c.1 0 .2 0 .3-.1v-.2c-.1-.1-.2-.1-.3-.1v.4zm.2 14c0 .1.1.2.2.2 0-.1 0-.2-.1-.3s-.2-.1-.3.1h.2zm-.1-8.6c.1 0 .2.1.2.2 0-.3-.1-.4-.2-.4v.2zm.4 6c-.1.1-.1.2-.1.3s0 .1.1.1v-.4zm.2 2.5c.1 0 .1-.1 0-.2H55v.2h.2zm0 .6c0 .1 0 .2-.2.2h.2s.1-.1 0-.2h0zm.2-8c-.1 0-.2 0-.2.1l.2-.1zm.2 5.6c-.1.1-.2.1-.3.1.1 0 .1.1.1.1l.1.1h.1c-.1-.2-.1-.3 0-.3h0zm0 .7l-.3-.1v.1h.3zm.2-11.1c-.3 0-.4.1-.4.2.2 0 .4-.1.4-.2zm-.2 9.7c0-.1-.1-.2-.2-.2h0v.2h.2zm0 1.7c0-.1-.1-.2-.2-.2s.1.1.2.2zm0-2.1c.1 0 .2-.1.3-.1.1-.1 0-.2 0-.3 0 .1-.1.1-.2.2s-.1.1-.1.2h0zm0-3.2c.1 0 .2-.1.2-.1h-.1l-.1.1c0-.2 0-.2 0 0h0zm.3-7c0-.3-.1-.4-.2-.4 0 .1.1.1.1.2v.3l.1-.1zm0 14h-.2v.2s.1 0 .1.1.1 0 .1 0v-.3zm0-15c-.1 0-.2 0-.2.2h.4c0-.2-.1-.3-.2-.2h0zm0 .4c-.1 0-.1 0 0 0h0c.1.1.2.1.2 0h-.2zm.2 5c0 .1.1.2.2.3h0l-.1-.1c.1-.1.1-.2-.1-.2 0-.1 0-.1 0 0h0zm.3 8.9s0-.1 0 0c-.2-.1-.1-.1 0 0-.1 0-.1 0 0 0h0zm-.2-14.1c.2 0 .3 0 .3-.1v-.3c-.1 0-.1-.1-.2-.1l.1.1v.1l-.1.1c0 .2 0 .2-.1.2h0zm0 13.5c0 .1.1.2.2.2s.2 0 0-.2h-.2zm.3-2.9v-.2h-.2v.2h.2zm-.2-6.9c.1 0 .2-.1.2-.2s-.2 0-.2 0v.2zm.3 11h-.2c-.1 0 0 0 .2 0h0zm-.2.3c.1 0 .1 0 .2.1l-.1.1c.1 0 .2-.1.3-.2s.1-.2 0-.3h0c0 .1 0 .1-.1.1-.1.1-.2.1-.3.2h0zm.5-.7v.2h.2c0-.1-.1-.2-.2-.2 0-.1-.1-.1 0 0h0zm.2-3.3v-.2h-.2v.2h.2zm-.2 2.1c.1 0 .2-.1.2-.2h0-.2v.2zm.4.6h-.2l-.1.1v.1l.2.2.1-.4zm1-2.6h-.2l-.1.1h-.2l-.4-.4v-.1l.1-.1c-.1 0-.1 0-.2.1l-.2.1c-.1.1-.1.2 0 .2.1.1.2.1.3 0s.1-.1.1 0v.2h.2m.1.1h0c0 .2.1.2.2.2-.1-.1 0-.3.2-.3s.3-.2.3-.3l-.7.4zm-.8 1.2c0 .1.1.3.1.3.1.1.2.1.3 0-.1-.1-.2-.1-.2-.2s0-.2.1-.2c.1-.1.1-.1.1-.2-.1 0-.2 0-.2.1-.1.1-.1.1-.2.1v.1zm0 1.1c.1-.1.1-.1.2-.1v-.1H57v.2c.1-.1.1-.1 0 0h0zm.3-1.6v-.2h-.1c.1 0 .2-.1.2-.2l-.1-.1c-.1 0-.2.1-.2.2v.2l.2.1zm-.2 2.5c.2.1.3.1.4-.1l-.1.1h-.3zm.2-14.4c0-.3-.1-.4-.2-.4v.2l.2.2zm.2 13.2c-.1 0-.1 0 0 0h0l-.1.2h.2v.2h.2c.1 0 .2-.1.2-.2h0c-.1.1-.2.1-.3.1-.1-.1-.2-.2-.2-.3h0zm0-1c0-.1 0-.1 0 0 0-.1 0-.1 0 0 .1-.1.1-.1 0 0l.1-.2c-.1-.1-.2-.1-.3 0s.1.2.2.2h0zm0-7.1c.1 0 .2-.1.2-.2v-.1c-.2.1-.3.1-.2.3h0zm.2 3.3c.1 0 .2 0 .2-.1s-.3-.1-.4.1-.1.1 0 .1 0-.1.2-.1h0zm-.2 4.7c.1 0 .1 0 .2-.1l.1-.1h.1c-.2 0-.3.1-.4.2h0zm.1-3.6c0-.1 0-.2-.2-.2v.4c.2.1.2 0 .2-.2h0zm.3 1.4h-.2v.2h.2c.3-.3.4-.4.2-.4 0 .1 0 .1-.1.2 0-.1-.1 0-.1 0h0zm-.1 1.5c-.1 0-.1 0 0 0-.1 0-.1.1.1.2l-.1-.2zm.1.7c0 .1.1.2.2.2s.2 0 0-.2h-.2zm.1.8c.1.1.2.1.2 0H58zm0-14.4c0 .3.1.4.2.4.1-.3 0-.4-.2-.4h0zm.7 3.6c-.2 0-.3 0-.3.2h.1c.2 0 .2 0 .2-.2h0zm-.1 12c0-.1 0-.2.1-.3-.1 0-.1 0-.1.1v.2zm.3-2.4c.1 0 .2 0 .2-.1-.3 0-.5 0-.5.1v.1c.1-.1.2-.1.3-.1h0zm0 .7s0-.1.2-.1.1-.1.1-.3c-.1 0-.2.1-.3.2s-.1.2 0 .2h0zm.2 1.4c0-.1 0-.2-.1-.2h-.1v.2h.2zM58.9 48h0l.1-.2v-.1c-.1 0-.2.1-.1.3h0zm3.1 3.1c.3-.2.6-.5.6-.8 0-.2-.1-.4-.4-.6a1.93 1.93 0 0 0-1-.3 2.2 2.2 0 0 0-1.4.2c-.1.1-.1.3-.1.4 0 .2 0 .4.1.6v.6c.6 0 1.3 0 1.9-.2l.3.1zm-2.2 1.7c-.1 0-.1 0 0 0h0c.2.1.2.1.2 0h-.2zm.1-7.4c-.2 0-.2.1-.2.4.1 0 .2-.2.2-.4h0zm.3 12.1c.1-.1 0-.1 0 0-.2-.1-.4-.1-.4 0m-.1 0h0zm.1 2.2h0l.2.1h.1v-.1h-.3zm.3 1.3h0l.1-.2-.1.2zm.8-12.4v.2c-.1 0-.1-.1 0-.2h0zM61 58c0-.1.1-.2.1-.2H61c-.1.1-.1.2 0 .2zm-.1-5.8c0-.1 0-.1.2-.2h-.2v.2zm.2 1.3c.1 0 .1 0 .2-.1l.1-.1h.1c-.1-.1-.2-.1-.4 0v.2zm.5 6.3c-.3 0-.4.1-.4.2.2 0 .3-.1.4-.2h0zm-.1-.2h0l-.2.1.2-.1zm-.2-8c0 .3.1.4.2.4 0-.1 0-.1-.1-.2h.1c.1 0 .2-.1.2-.2v-.1l-.4.1zm.5-5.8v-.4h-.2v.4h.2zm.8 5.5c-.1 0-.1 0-.2.1 0 .1-.1.1-.1.1.2 0 .3-.1.3-.2h0zm-.2-3.3c.1 0 .2-.1.2-.2-.1 0-.2.1-.2.2zm.3 3c-.1.1-.1.1-.1.2l.1-.1V51zm.2-5.4c.2 0 .3 0 .4-.1 0-.1.1-.2.1-.3-.3-.1-.5.1-.5.4h0zm.1 3.8c.1 0 .1 0 .2-.1l.2-.1c-.3-.1-.4 0-.4.2h0zm.4-1.3h-.3v.2l.3-.2zm0 3.3c-.1 0-.2.1-.2.4.1 0 .1 0 .2-.1v-.3zm-.1 4.7c-.1.1 0 .2.2.2l-.2-.2zm.6-10.5h0l-.2-.1v.2l.2-.1zm-.1 12.9h.4s.1 0 .1-.1l-.5.1zm.2-2.8v-.2l-.2.2c.2.1.2.1.2 0zm.3-8.5V47h-.2v.1h.1l.1.1zm-.2 10.6c.2 0 .2-.1.2-.2s0-.2-.1-.1l-.2.1h.2l-.1.2zm0-6.2h0l.1-.2c-.1 0-.2 0-.1.2-.1 0-.1 0 0 0h0zm.3 4h0c.1 0 .2 0 .3-.1-.1 0-.1 0-.1-.1h0c0-.1 0-.1-.1-.1s0 .2-.1.3c0-.1 0-.1 0 0-.1-.1 0-.1 0 0h0zm.1-3.5h0zm-.2-4.7c.3 0 .4-.1.4-.2-.2 0-.3.1-.4.2h0zm.4 6.9c-.1 0-.2 0-.2.1-.1.1-.1.1-.2.1.3 0 .4-.1.4-.2h0zm-.1 3.2s0-.1.2-.2.1-.1.1-.2c0 .1 0 .1-.1.2-.1 0-.1.1-.2.1v.1zm0-1.3c.1 0 .2-.1.3-.2h0l-.3.2zm.4-9.9c.1-.1.1-.1.1-.2s-.1.2-.4.4h0l.3-.2zm0 12.6c-.1-.1-.2-.1-.3 0l.1.1.2-.1zm-.2-5.6v.2c.1 0 .1 0 0-.2h0zm0 3.8l.2-.2c-.1 0-.2 0-.2.2h0zm.1 3.8h0c0-.1 0-.1 0 0 .1-.1.1-.1 0 0l.1-.2c-.1 0-.2 0-.3.1.1.1.1.2.2.1h0zm0-6.2c.3 0 .4-.1.4-.2h-.2c0 .1-.1.2-.2.2h0zm.2-9c0 .1-.1.2-.1.2h.3v-.2h-.2zm.1 2H65v.2l.2-.2zm-.1 12.2c.1 0 .1 0 .2-.1l.1-.1c-.1-.1-.2-.1-.2-.1-.1.1-.1.2-.1.3h0zm.1-1.1h.2v-.2l-.2.2zm.5-7.2v-.2h-.2v.2h.2zm.2 3.3h0c-.3 0-.4 0-.4.1.2.1.3 0 .4-.1h0zm.2-8h-.3v.2l.3-.2zm-.3 4.7h0c0-.2 0 0 0 0h0zm0-1.7c.2 0 .3 0 .3-.1s-.1 0-.1 0 0 .1-.1.1 0-.1-.1 0h0zm0 .4c.2 0 .3 0 .3-.2H66c-.1 0-.2.1-.2.2h0zm.2 1.3h0l.2-.1c-.1 0-.1 0-.2.1h0zm.9-5.3c-.3 0-.4.1-.4.2a.76.76 0 0 0 .4-.2h0zm-.3 10c.1 0 .1.1 0 .2h.1v-.1l-.1-.1zm.3-8h0c-.1 0-.2.1-.2.2h0l.2-.2zm.1.2c.1 0 .2-.1.2-.2l-.2.2zm.2 6.8h0c-.1.2-.1.2 0 .2v-.2c.2-.1.2-.1 0 0h0zm.3-.2c.1 0 .2 0 .3-.1 0-.1 0-.2-.1-.3 0 .1 0 .2-.1.2s-.1.1-.1.2h0zm.1-3.8c0-.1.1-.1.2-.1l-.2.1zm0 3.3h.2v-.1c-.1 0-.1 0-.2.1h0zm0-7h.2v-.2l-.2.2zm.2 11.4c0 .1 0 .2-.2.2h.2s.1 0 0-.2h0zm.3-9h-.2c0 .1.1.1.2 0h.2c0-.1-.1-.1-.2-.2v.2zm.2.1h0c0-.2 0-.2-.1-.2v.4c0-.1.1-.3.1-.2h0zm.5 5.3c-.3-.1-.4-.1-.4 0 .1-.1.1-.1.2-.1l.2.1c-.1 0-.1 0 0 0h0zm-.4 2.6c0 .1 0 .1 0 0 .2.1.2.1.3.1s.1-.1.2-.1h-.5zm.2.6s0 .1 0 0l-.1.2s0 .1.1.2v-.4zm.4-1.4c.1 0 .2-.1.2-.2v-.1c-.1.1-.2.1-.2.3h0zm.2-2.1v-.2H69v.2h.2zm.1 4.5c-.1-.1-.2-.1-.2 0h.2zm.3-9.7v-.2h-.2v.2h.2zm.4 10c.2 0 .3 0 .3-.2h-.1v.1h-.1l-.1.1c.1-.1.1-.1 0 0h0zm.7.6c-.1 0-.1 0 0 0h0c.1.1.2.1.2 0h-.2zm.1.5v-.2h-.2v.2h.2zm.6-3.2c.1 0 .2 0 .2-.1s-.3-.1-.4.1 0 .1 0 .1.1-.1.2-.1h0z"/><path d="M73.6 57.2c0-.1.1-.2.4-.2 0 .2-.1.2-.4.2zM79 50h-.2v-.2c0-.1-.1.1 0 .2h-.2v.4l-.1.1s0 .1-.1.2v.1l-.1.1c0 .1-.1.1-.1.2v.2H78v.1s0 .1.1.1v.1c0 .1 0 .1-.1.1v.4h-.3v.2c0 .1-.1.2-.2.2v.4h-.2v.4l-.2.2v.5l-.1.2v.2l-.2.2c-.1.2-.2.5-.3.7l-.3.7v.4c0 .1-.1.2-.1.2-.1.1-.1.2-.1.3h-1.6c-.2 0-.3 0-.5.1-.1.3-.2.7-.2 1v.4c.1.4.1.9 0 1.3s-.1.8 0 1.1c.2.3.5.4.8.4h.6c.6.1 1.1.1 1.7.1h5c.2 0 .4 0 .6-.1v-4.3H81c-.2 0-.4 0-.6.1 0-.1 0-.2.1-.2.1-.1.1-.2.1-.4h3.8c0 .1 0 .2.1.3s.1.2.1.3h-1.2c0 .1-.1.2-.4.2.2.2.2.4.2.6v1.6c-.2.5-.2 1.1-.2 1.6h.8c.7.1 1.5.1 2.4.1h7c.1 0 .2 0 .3-.1.1 0 .2-.1.4-.2.2-.7.2-1.3.2-2v-1.6c0-.2-.1-.3-.2-.4h-2.1c-.2-.2-.2-.5-.2-.8h-.1c0-.1.1-.1.1-.2h-.2v-.2c0-.1-.1-.2-.2-.2h0V55c0-.1-.1-.2-.1-.3s-.1-.2-.1-.3-.1-.1-.2-.2V54c0-.1 0-.2-.1-.2h-.1c0-.3-.1-.6-.2-.8-.1-.1-.1-.1-.1-.2s-.1-.2-.1-.3-.1-.1-.2-.1V52c.1-.1.1-.2 0-.2-.3-.3-.4-.6-.4-1-.5-.9-.9-1.9-1.2-2.9l-.2-.2v-.4H88v-.6h-.2v-.4h-.2V46l-.2-.2v-.4h-.2c0-.1-.1-.2-.1-.3-.2-.1-.3-.1-.4-.1h-1.8c-.3-.1-.6-.1-.9-.1h-3c-.1 0-.2.1-.3.1-.1.1-.1.2-.1.3v.2h-.2c-.1 0-.1.1-.1.1 0 .1-.1.1-.1.2v.4c0 .1-.1.2-.2.2h0v.2l-.2.2v.4h-.1c.1 0 .2.1.2.2h-.2v.6h-.2v.4l-.2.2v.2c0 .1-.1.2-.2.2v.2l-.2.2v.4c.1 0 .2.1.2.2h0-.1zm-5.1 8.5c-.1 0-.1-.1 0-.2h.1c-.1.1-.1.1-.1.2zm2-.5h0c0-.1.1-.1 0 0 .1 0 0 .1 0 .2-.1.1-.2.1-.3.1-.1-.1-.1-.2 0-.2s.2 0 .3-.1h0zm-.2-.4c.3 0 .4-.1.4-.2.1 0 .1.1 0 .2-.1 0-.2 0-.2.1-.1.1-.1.1-.2.1v-.2zm.2 3h-.2v-.2h.2v.2zm0-1.1v-.2h.4c-.2.1-.3.1-.4.2h0zm.4.7c0-.1.2-.2.6-.2 0 .1-.1.2-.2.2h-.2c-.1.1-.1.1-.2 0h0zm.3-5h-.2v-.1l.2.1zm.5.5h-.4c0-.1 0-.1.1-.1l.3.1c-.1-.1-.1-.1 0 0h0zm-.1 3.1h0c.1 0 .1.1 0 0 .1.1 0 .2-.2.2v-.1h.2v-.1zm-.1-5.2h.2c0 .1 0 .2-.2 0-.1 0-.1 0 0 0h0zm.4.4c0 .1-.1.2-.4.2-.1-.1.1-.2.4-.2h0zm-.3 6.1c0-.1.1-.2.2-.2h0l.2-.1v-.2c.1.1.2.2.1.3s-.3.2-.5.2h0zm.2-6.7v-.2h.2c0 .1-.1.2-.2.2h0zm.3-1.1h.2v.2h-.2v-.2zm0 3h.2c.1 0 .1 0 0 .1s-.2 0-.2-.1h0zm0 4.2c0-.1 0-.1 0 0 .2-.1.2-.1.2-.2s.1 0 .1.1-.2.2-.3.1h0zm.2 1c-.1 0-.1 0 0 0-.1-.2.1-.3.2-.2h0-.1s-.1.1-.1.2h0zm.1-3.6c.1.1.1.1 0 0l-.2.2.2-.2zm.3-1.1v.2h-.4v-.2h.4zm-.2-4h-.2v-.2c.1-.1.2 0 .2.2h0zm.1-.4h0c0-.1 0-.1 0 0h0c.1 0 0 .1 0 0h0zm.5 9.2h-.2c0-.1 0-.1.2 0 0-.1 0-.1 0 0h0zm.2-8.6c.1.1.1.2 0 .3s-.1 0-.1-.1v-.1h.2c.1 0-.1 0-.1-.1h0zm-.1-.1h0l.3-.2v.1h-.2v.1h-.1zm0 1c0-.1.1-.1.2 0h-.2zm.1-3.6h0l.2-.2v.2s0 .1-.2 0h0zm0 9.4v-.2c0-.1.1 0 .2 0h0v.1s-.1 0-.2.1h0zm.2-2.4v-.2c.1 0 .1.1 0 .2h0zm.4-8v.4c-.1 0-.2-.1-.2-.2s0-.2.2-.2h0zm.3 2.6c-.1.1-.2.2-.4.2.1-.1.2-.1.4-.2h0zm-.4 5.9c.1.1.2.2.3.2h-.3v-.2zm.4-6.2l-.2.2v-.2h.2zm-.2 7.1v-.2h.2l-.2.2zm.2-5.1l-.2-.2h.2c.1 0 .1 0 0 .2h0zm.1 2s.1-.1 0 0c.1.1.1 0 0 0 .1.2 0 .3-.1.3l.1-.3zm.3-8.4h0c.1.1.1.2.1.2 0 .1 0 .1-.1.2l-.1-.1s0-.1.1-.1v-.2zm.1 9.6c-.1-.1-.2-.1-.2-.1h.3l-.1.1zm.3 3.2c0 .1-.1.2-.2.2h0-.2V59h.4zm-.3 0h.3c-.1.2-.2.2-.3 0h0zm0-7h.2c.1 0 .2 0 .2.1s-.1.2-.2.2-.3 0-.3-.1l.1-.2zm.3 1.1c-.1 0-.1 0 0 0-.1-.2 0-.2.2-.2-.2 0-.2.1-.2.2h0zm-.1-7.1h.2l.1.1c0 .1-.1.1-.1.1h0c-.2 0-.2-.1-.2-.2h0zm0 1.8c0-.1.1-.2.2-.2l.2.2h-.4zm.2-2.5c0 .1-.1.2-.2.2h0v-.2h.2zm0 13.7c-.1-.1-.1-.2-.1-.3l.1-.1c.1.1.1.1 0 .1s0 .2 0 .3h0zm0-4.7l.2-.2c-.1 0-.2-.1-.2-.2h0c.1-.1.2-.1.2 0v.2c-.1.2-.2.3-.3.3l.1-.1zm.2-2.5c-.1-.1-.1-.2 0-.2h.2c-.1.2-.2.3-.4.3l.2-.1zm0 5.3c0-.1-.1-.1-.1-.2h.2c-.1.1-.1.2-.1.2h0zm-.1-1.7c0-.1 0-.2.1-.2h.2l-.3.2zm.3-10.2h.3s-.1.1-.1 0h-.2zm.3 1.3c0 .1-.1.1-.2 0s0-.2.2 0h0zm0 3.3v.2H81c-.1 0 .1-.2.2-.2h0zm-.2 1.8h.2v.2H81v-.2zm0 8.6h.2v.1m-.1 0h0zm-.1-6.8l.2-.2v.1l-.2.1zm.7-4.5h0c0 .1 0 .1 0 0-.1.1-.2.1-.2 0s0 0 .2 0h0zm.4-3.6c-.1-.2-.1-.3 0-.3h.2v.1s0 .1-.1.1l-.1.1zm.2 7.2h0l-.2.1c.1.1.1.1.2-.1h0zm.2-4.6h0l-.3.2h-.1l.4-.2zm-.3 1.2s0-.1 0 0c.1-.1.1-.1 0 0 .1-.1.1-.1 0 0 .1-.1.1-.1.1-.2s.1.1.1.2-.1.1-.2 0h0zm.3 5.9c-.2-.1-.3-.2-.1-.3.1 0 .2 0 .3.1h0l-.1.1c-.1 0-.1.1-.1.1h0zm.4-2.5c0-.1 0-.1.1-.2 0-.1.1-.1.1-.2H83l-.1-.1h-.3c-.1 0-.2 0-.3-.1v-.3c0-.1 0-.2.1-.2l.1-.2c.1-.1.1-.2.1-.3l.2-.2V50c.2.2.2.5.2.8h0c0 .1 0 .1.1.2 0 .1.1.2.1.2v.8c0 .1 0 .1-.1.2l-.4.2.2.2zm-.5-7.4c.1 0 .1.1.1.2s-.1.1-.1 0-.1-.1-.1-.1.1.1.1-.1h0zm.6 1.7h0c.1.1 0 .2-.2.2 0-.1.1-.2.2-.2h0zm0-.3s-.1 0 0 0c-.1-.1 0-.1 0 0l.4-.1-.4.1zm.3 11.4c-.1.1-.1.1 0 0-.1.1-.1.1 0 0h0c-.1-.1-.1-.1 0 0h0zm0-10.6h0c-.1-.1 0-.2.2-.2 0 .2-.1.3-.2.2h0zm.2 12.7l-.2.2v-.2c0-.1.1 0 .2 0h0zm0-14c.1.1.1.2.1.2h-.2c.1 0 .2-.1.1-.2h0zm.2-.9c0 .1-.1.2-.2.2h0v-.1l.2-.1zm.1 12.7c-.2 0-.2.1-.2.2l-.1-.1.3-.1zm0-9.2c-.1.1-.2.1-.3.1.1 0 .2-.1.3-.1h0zm-.2-3.5h.4c0 .1 0 .1-.1.1h-.2s-.1 0-.1-.1h0zm0 13.8h0l.2-.1h.2l-.4.1zm.3-1c0 .1-.1.2-.1.2-.1.1-.1.1-.1.2-.1-.1-.1-.2-.1-.3.1 0 .2-.1.3-.1h0zm-.2-2.2c-.1 0-.1-.1 0-.2h0c.1-.1.3-.1.4 0h0-.3c-.1-.1-.2 0-.2 0s-.1.1.1.2h0zm0-8.2h0c.2-.1.2-.1.2 0h-.2zm.3.8c-.1 0-.1-.1 0-.2h.1c.1 0 .1.1.1.1l-.2.1zm.2 8.8c-.1-.1-.1-.1-.2-.1l.1-.1h.2l-.1.2zm.2-7.1c0-.1.1-.1.2-.2s.1.1 0 .2h-.2zm0 3.4h0c-.1-.1 0-.2.2-.2 0 .1 0 .2-.2.2h0zm.2-7.1v.2h-.2v-.2h.2zm-.2 9.5c0-.1.1-.2.2-.2s0 .2 0 .2h-.2zm0 1.1l.2-.2v.2h-.2zm.1-4h.2c0 .1-.1.2-.2.2s-.1-.1 0-.2zm.5-5.3c-.1 0-.1 0 0 0-.1-.2 0-.4.2-.4 0 .1 0 .2-.1.2s-.1.1-.1.2h0zm.5.2h0c-.1.1-.2.1-.2 0-.1 0-.2 0-.2-.1l.4.1zm-.4 8.9s.1-.1 0 0c.1 0 .1 0 .1.2s-.1.1-.2.1l.1-.3zm.1-8h0c0 .1-.1.1 0 0h0zm.1 3.4h0c.1-.1.1-.1.2 0h-.2c0 .1 0 .1 0 0h0zm.2-7l-.2.2c-.1-.2-.1-.3 0-.3l.2.1zm-.1 3.1h0l.2-.2v.1h-.1l-.1.1c.1-.1.1-.1 0 0h0zm0 3.4c-.1 0-.1 0 0 0-.1-.1 0-.2.1-.2 0 0-.1.1-.1.2h0zm-.1-2.4c0-.1.1-.1.2-.1 0 .1 0 .2-.2.1h0zm.3-4.1c.1 0 .1.1 0 .2v-.2zm.2 3.9c0 .1 0 .1 0 0-.2 0 0 .1 0 0h0zm.4 8.3c-.1.1-.2.2-.3.2l-.3.1c.4-.1.5-.2.6-.3h0zm0-2.3h0c.1.2-.1.2-.5.2 0-.1.1-.1.2-.1s.4.1.3-.1h0zm-.1-7.6c0 .1 0 .1 0 0h0zm.2.9h-.2v-.2h.2v.2zm0 1.4c0-.1.1-.1.4 0h-.4zm.4-.6h0c.1 0 .2 0 .2.1s0 .1.1.2h-.2c-.1 0-.1-.1-.1-.3h0zm.1-1.6c.3.1.3.2 0 .2h0v-.2zm.5 4.5h-.4c0-.1 0-.1.1-.1h.2c-.1.1 0 .2.1.1h0zm-.5 6.9c0-.1 0-.1 0 0 .1-.1.2-.1.2-.1h.2l-.4.1zm.2 1c0-.1 0-.2.1-.2.1-.1.1-.1.1-.2.1.1.1.2.1.3-.1.1-.2.1-.3.1h0zm.1-6.4c0 .1 0 .1 0 0h0zm.1 1.8c-.1 0-.1 0 0 0 .1-.1.1-.2.1-.2h.1c-.1 0-.1.1-.2.2h0zm.1-5.3h.2s0 .1-.2 0h0c-.1 0 0 .1 0 0h0zm.2 1.5h.4c0 .1-.1.1-.2.1s-.2 0-.2-.1h0zm0 5.5h0zm.3-7.2v.2h-.3l.3-.2zm0 3.4c0 .1 0 .2-.1.2h-.2c.1-.1.2-.2.3-.2h0zm-.1 3.6h0c0 .1 0 .1 0 0h0zM88 58c.1.1.1.1 0 0-.1.1-.1.1-.2.1.1.1.1 0 .2-.1h0zm.8.6v-.2c0-.1.1 0 .2 0h0v.1s-.1 0-.2.1h0zm4.6-1.5h-.5s-.1 0 0-.1c0 0 .1-.1.2-.1.2.1.3.1.3.2h0z"/><path d="M110.1 45.4c0 .1 0 .1 0 0 .2.1.3-.1.2-.2h1.7c.3 0 .5 0 .8.1.2.5.2 1.1.2 1.7v1.2c0 .5 0 .9-.2 1.4-.3.1-.6.1-.9.1s-.6 0-.9.1c-.1.2-.2.4-.2.7v.8c0 .3.1.5.1.6V56c.1 1.2-.2 2.3-.8 3.3-.3.5-.6.9-1 1.2l-.2.2c0 .1-.1.1-.2.1s-.2 0-.2.1h-.2c0 .1 0 .1-.2.1-.1 0-.2 0-.3.1-.3.2-.7.2-1 .2h-.6c-.1 0-.2 0-.3.1s-.3.1-.5.1h-4.5c-.1 0-.2 0-.3-.1s-.2-.1-.3-.1h-.4c0-.1-.1-.2-.2-.2-.2 0-.4-.1-.5-.1-.2-.1-.3-.1-.5-.1-.1-.1-.2-.2-.4-.2-.1 0-.2-.1-.2-.2h0-.2v-.2h-.4V60c-.4-.2-.7-.5-1-.8-.1 0-.1 0-.1-.1-.1-.1-.1-.2-.1-.3s-.1-.2-.2-.3c-.2 0-.2-.1-.2-.2-.1-.1-.1-.1-.1-.2s0-.2-.1-.2c-.1-.3-.2-.5-.2-.8v-1.7c.1 0 .2-.1.2-.2h0v-.4c.1 0 .2-.1.3-.3s.3-.3.3-.3V54s0-.1.1-.1h.1v-.2h.2v-.2h.4c.1 0 .1 0 .1-.1v-.1h.2c.3-.1.5-.3.8-.3 0 0 0 .1-.1.1H98c.1.1.1.1.2.1s.2-.1.2-.1c0-.1 0-.2-.1-.2h.1c.6-.2 1.2-.2 1.8 0h.2l.2.2h.2l.2.2c.1.1.3.2.4.3s.3.2.4.3v.2h.2v.2l.2.2c.1.1.1.1.1.2v.3c0 .1 0 .2-.1.3 0 .1 0 .1.1.1h.2c0 .1 0 .2-.1.4v.3c0 .1 0 .2.1.3 0 .1.1.2.4.2v-.2c.1 0 .2 0 .2.1s.1.1.2.1.2-.1.2-.2h.2v-.2l.1-.1c.1-.1.1-.1.1-.2s0-.2.1-.2c.1.1.1.3 0 .4l-.2.2s.1 0 .2-.1.1-.2.2-.2c0-.1 0-.2.1-.2s.1-.1.1-.2h-.5V55c0-.1.1-.2.1-.2.1-.1.1-.1.1-.2h-.2v-3.8c0-.5 0-1.1-.1-1.6h-1.2c-.2 0-.4 0-.5-.1-.2 0-.3-.1-.4-.2s-.1-.3-.1-.4c0-.2 0-.3.1-.6s0-.3 0-.4v-.8c0-.3-.1-.7-.1-1s0-.6.1-.8h3.4c.4 0 .8 0 1.2-.1h1c.3-.1.6-.1.9-.1h2.2v.1h-.2l-.1.6zm-14.7 10s.1-.1.2-.1h.3v-.1c-.3 0-.5.1-.5.2h0zm.5-.5h0c.1-.2.1-.2.2-.2s.1 0 .1-.1c-.1 0-.2.1-.3.1-.1.1-.1.2-.1.3l.1-.1zm.3 2.6s0-.1 0 0l-.3.1.3-.1zm.1-1.5c0 .1 0 .1-.1.2h.1c.2-.1.2-.2 0-.2zm.1-1.7c0-.1 0-.1.1-.2s.2-.1.2-.1 0-.1-.1-.1 0 .1-.1.1-.2.1-.2.1 0 .1.1.2h0zm-.1.8c.1 0 .2-.1.2-.2-.1 0-.2 0-.2.2h0zm.1 1.6v.2h.2c0-.1-.1-.2-.2-.2h0zm.3-1.1h.2v-.2c-.1-.1-.3 0-.2.2-.2 0-.2.1-.2.2l.2-.2zm.3 1v-.2c0-.1-.1 0-.2 0l.2.2zm-.2-3h0l.2.1.1-.1h.1v-.1h.2v-.1c-.2 0-.4.1-.6.2h0zm.2 5.2h.4c.1 0 .1 0 .1-.1l-.5.1zm.1 1h0l.1-.2s-.1.1-.1.2c-.1 0-.1 0 0 0h0zm.6-4.7c-.3 0-.4.1-.4.2.2 0 .4 0 .4-.2h0zm0-1.8h0c-.1 0-.1 0 0 0h0zm.4 6s-.1 0 0 0l-.1.2c0-.1 0-.1.1-.2h0zm.1-6H98c-.1 0 0 .1 0 .2l.2-.2zm0 2.3c.1.2.1.2.2.1s.1-.2 0-.3v.1l-.2.1zm1.2 2.7h0c-.1-.1-.1-.1-.2-.1s0 .1 0 .2c0-.1.1-.1.2-.1h0zm-.1 1.2c.1 0 .2-.1.2-.2h0l-.2.2zm.1-5.8h0c.1-.1 0-.1 0 0h0zm.3.3c.1 0 .2 0 .2-.1l.1-.1c-.1 0-.2 0-.3.2h0zm.1 1.7h.2c.1 0 0-.1 0-.2-.1 0-.1 0-.1.1l-.1.1zm0 2.9c.1 0 .2-.1.2-.2h-.2c-.1 0 .1.1 0 .2h0zm.2.4c.3 0 .4-.1.4-.2h-.4c-.1 0-.1 0-.1.1s0 0 .1.1h0zm.4 1c.1-.1.1-.1 0 0-.3-.1-.4-.1-.4 0 0-.1.1-.1.2-.1s.1 0 .2.1h0zm0-6.1c-.1.2-.1.2 0 .2.1-.2.1-.3 0-.2h0zm.2 5c.1 0 .2-.1.2-.2h.2c0-.1-.1-.1-.2-.1s-.1.1-.2.1v.2zm.3-1.4v.2l.1-.1s0-.1.1-.1h-.2zm.2-2.2c0-.1 0-.1 0 0 .2-.1.1-.1 0-.2-.1.1-.1.2 0 .2h0zm.3-9c-.1.1-.1.1 0 .2.1 0 .2-.1.2-.2h-.2zm.1-.4c.1 0 .2 0 .3-.1 0-.1 0-.1-.1-.1v.1h-.1l-.1.1c0-.2 0-.2 0 0h0zm.1 14.3h0c.2 0 .3-.1.3-.2h-.2c-.1 0-.1 0-.1.2h0zm.6-2.5v-.2h-.2v.2h.2zm0-11c0-.1-.1-.2-.1-.2l.1.2c-.1.1-.1.1 0 0h0zm.7-.7v-.2h-.2v.2h.2zm-.1 2l.2-.1c.1 0 .1-.1.1-.1v-.2c-.1 0-.2.1-.3.1 0 .1-.1.2 0 .3h0zm1-2h-.2v.2h.2V46zm.1 4.3v-.2h-.2v.2h.2zm-.1 5.2h0c.1-.1.1-.2.2-.2h0c-.1 0-.2.1-.2.2 0 0 0 .1 0 0h0zm.2.9s0-.1 0 0c-.1 0-.1 0 0 0zm0-4.7h.3s0-.1-.1-.1l-.2.1zm0-3.1c.1 0 .2-.1.2-.2s-.1.1-.2.2h0zm0-2.8c.1 0 .2 0 .2-.1l.1-.1c-.2-.1-.3 0-.3.2h0zm.2 4.9v-.2h-.2v.2h.2zm.1 3.1c0-.1.1-.2.1-.2-.2 0-.4.1-.4.2h.3zm0-5.5h0-.2.2zm.2 6.7v-.2h-.2v.2h.2zm-.2 4.9c.3 0 .4-.1.4-.2-.1 0-.2.1-.4.2h0zm.3-6.8h0c-.1.2 0 .2.1.2s.1-.1 0-.1.1-.1-.1-.1h0zm.1 7.2c0-.2.1-.2 0-.2.1.2.1.2 0 .2h0zm0-8.8h.2v-.2h-.1l-.1.2zm.4 3c0-.1-.1-.1-.2-.1l-.2.1h.4zm-.1-8.2c.1-.1.1-.2 0-.2s-.2.1-.2.2h.2zm0 2.7h0-.2.2zm0 2c-.1 0-.1 0 0 0h0c.2.1.2.1.2 0h-.2zm0-1.2c0-.1 0-.1 0 0 .2-.1.2-.1.2-.2s-.2-.1-.2 0-.1.2 0 .2h0zm.7 9c-.1 0-.1 0 0 0 .1.1.2.1.2 0h-.2zm.2-13.1v-.2h-.2v.2h.2zm-.3 9.8h0c.1-.1.1-.2.2-.2h0c-.1 0-.2 0-.2.2h0zm.9-10.1c.1.1.1.1.2.1h.2l.1-.1h-.5zm0 1.7l.2-.2h-.2v.2zm0 1c.1 0 .1 0 .2.1v-.1c0-.1 0 0-.2 0h0zm.1 2.3c0-.1.1-.2.1-.2.1-.1.1-.1.1-.2-.1 0-.2 0-.3.1.1.1.1.2.1.3h0zm.2-.6h0c-.1-.1-.1 0 0 0h0zm.2 0s0-.1 0 0c0-.2 0-.2 0 0 .1-.1.1-.1 0 0 .1-.1.1-.1.1-.2-.2 0-.3 0-.3.2h.2zm.2 5.5h0c.2.1.2.1.2 0h-.2zm-.1-9.2c.1 0 .2-.1.2-.2h0-.2v.2zm.1 2.4c.1 0 .2-.1.2-.2h-.2v.2zm.4 10.2h0l-.2-.1h-.2c0 .1 0 .1.1.1l.1-.1.2.1zm.2-13.1h.2s.1 0 .1-.1c.1-.1.1-.2.1-.3-.1.1-.1.1-.2.1s0 0 0 .1h0c-.1 0-.2.1-.2.2h0zm.5 11c-.1.1-.1.2.1.2-.1 0-.1 0-.1-.1.1 0 .1 0 0-.1h0zm.3-10.3c-.1 0-.1 0 0 0 0-.1 0-.1 0 0 .1-.1.1-.1 0 0 .1-.1.2-.1.2-.2s-.2-.1-.3 0 0 .2.1.2h0zm.7-.6v-.2h-.2v.2h.2zm1.8 0c0 .1.1.1.2 0 .1 0 .2 0 .2-.1s0-.2-.1-.2-.2 0-.2.1v.1c0 .1-.1.1-.1.1h0z"/></g><path d="M20 129c-1.1 2.1-3.1 3.2-5.9 3.2-7.5 0-11.3-6.9-11.3-20.6 0-10.7 4.4-17.3 11.7-17.3 1.5-.1 2.9.6 3.8 1.8.6-4.6 1-9.2 1-13.8 0-6.3-1-9.5-2.9-9.5-3.3 0-5.7 3-6.5 7.3-.5 2.5-.7 5.1-.9 7.6 0 1.3-.7 2-2.3 2-1 .1-2-.6-2.1-1.6v-.4c0-2.8.4-5.6 1-8.4 1.3-5.4 5.3-10.9 11.1-10.9 4.3 0 7.1 2 8.2 6 1.4 4 1.6 7.7 1.6 14 0 4.4-.4 10.1-1 16.8s-.9 11.5-.9 14.1c0 9.3 3.4 8 3.4 10.5 0 1.6-1 2.3-2.8 2.3-1.5-.1-4.2-2-5.2-3.1zm-5.2-1.3c1.4 0 2.8-.4 4-1.2-1.3-3-2-7.3-2-12.8 0-1.6.1-4.1.4-7.1s.4-5.7.4-7.4c-.9-.4-1.8-.5-2.7-.5-2.2 0-3.2 1.5-3.2 14.7-.1 6-.8 14.3 3.1 14.3zm33.4-15l-2.7-7.2c-.7-1.9-1.6-3.7-2.5-5.5-.8-1.7-1.7-3.4-2.7-5l.1 10.2.2 8.5c0 .9-.2 3-.4 6.3s-.4 6.3-.4 9c0 2.9-1.2 4.3-3.6 4.3-1.1 0-2-2.3-2-3.7l.4-8.8.4-9.6c0-3.8-.2-9.5-.4-17l-.3-16.8c0-1.7 0-3.3.2-5 .9-1.1 2.9-1.6 5.8-1.6 7.9 0 11.5 2.9 11.5 12.3 0 7-2.7 11.5-5.3 11.9 2.3 2.8 4.2 7.1 5.7 13.1.8 3.3 2 6.6 3.5 9.7 3 6.5 5.6 10.8 5.6 12.4 0 2.1-.8 3.2-2.5 3.2-2 0-4.2-4.8-8-14.9l-2.6-5.8zm-8-38.7l-.6 4.9c0 1.9.1 4.7.3 8.4l.3 4.9c3.8 0 5.7-1.4 5.7-4.3a40.28 40.28 0 0 0-.3-4.9 23.08 23.08 0 0 1-.3-3.7c-.1-3.4-1.8-5.2-5.1-5.3zm48.9 23.8l.1 5.5v7.7c0 16.9-4.7 22.8-16 22.8-6.1 0-9.1-6.9-9.1-20.8v-11.8c0-.4 0-2.3.1-5.9s.1-7.4.1-11.2c0-3 .6-5.9 1.8-8.6 1.1-2.5 3.7-4.1 6.5-3.9C79.4 71.6 84 73 86 76s3.1 8.1 3.1 15.7v6.1zm-8.5-11.2c-.4-7.2-2.3-10.8-5.6-10.8-2.8 0-4.1 5-4.1 15.1a73.54 73.54 0 0 0 .6 6.6c.9 7.8 1.3 15.7 1.3 23.5 0 4.3 3.1 8.7 5.1 8.7 2.4 0 3.6-7.9 3.6-23.6 0-1.1-.2-5.1-.6-12.1l-.3-7.4zm20.9-17.1c1.1 0 2.1 1.6 3.2 4.8.6-2.3 3.4-4.3 6.2-4.3 3-.2 5.9 1.2 7.8 3.6.8 1.3 1.4 2.8 1.7 4.3.8 3.7.8 6.3.8 11.6l.4 22.1c0 1.2 0 2.4-.1 3.6-.3 3.3-.2 6.7.1 10 .2 1.3.4 2.5.4 3.8s-1.9 2.6-3.8 2.6-2.9-.9-2.9-2.8c0-5.4-.1-11.3-.4-17.7-.4-8.6-.5-14.6-.5-18 0-1.2 0-2.3.1-3.5.1-1.6.2-3 .2-4.1 0-7.5-1.2-11.2-3.5-11.2-5.3 0-6.8 1.3-6.8 5.6 0 1.6-.2 5.9-.6 12.9 0 2-.2 4-.2 4.1l.1 19 .1 9.8c0 4.2-1.3 6.2-3.8 6.2s-3.7-.7-3.7-2.1.1-3.7.2-7.2a137.11 137.11 0 0 0 .5-11.8c0-2.6-.1-6.7-.2-12.1l-.2-12.3c.1-4.9.4-9.7 1.1-14.5.2-1.9 3.7-2.4 3.8-2.4zm34 3.3c2.3 0 2.7.9 2.7 2.8 0 .6-.3 4.5-.3 11.9 0 4.4.1 10.3.5 17.7s.4 13.8.4 18.8c0 6.3-1.2 9.5-3.6 9.5-1.7 0-2.5-.8-2.5-2.3 0-4.8-.2-12.1-.6-21.4s-.6-16.4-.6-20.9c.1-4.6.4-9.1.9-13.7.3-1.6 1.3-2.4 3.1-2.4zm29.5-5.9l1.1-.1c2 0 3.1 2.3 3.1 6.9V85c0 1.4-.1 7.5-.4 18.4l-.3 17.6c0 4.6-2.7 12.4-10.1 12.4-2.9 0-5.6-1-7.7-3-2.2-2-3.4-4.1-3.4-6.4 0-2 .6-3 1.7-3 2.6 0 2.1 9 9.3 9 1.4 0 2.2-3.5 2.7-10.3.1-3.1.9-8.2.9-12.7l-.1-10.7V85c.1-1.5.2-3 .5-4.4.3-1.2.5-2.5.6-3.8a23.76 23.76 0 0 0-.6-3.7c-.2-1.2-.4-2.4-.5-3.6 0-1.4 1.7-2.5 3.2-2.6zm25.9 64.5c-1.1 2-3 3.1-5.7 3.1-7.3 0-11-6.7-11-20.1 0-10.4 4.3-16.8 11.4-16.8 1.5-.1 2.9.6 3.7 1.8.6-4.4.9-8.9.9-13.4 0-6.1-.9-9.2-2.9-9.2-3.2 0-5.5 2.9-6.3 7-.5 2.4-.7 4.9-.8 7.4 0 1.3-.7 1.9-2.3 1.9-1 .1-1.9-.6-2-1.6v-.4c0-2.7.3-5.5.9-8.1 1.3-5.3 5.1-10.6 10.9-10.6 4.2 0 6.9 1.9 8 5.9 1.3 4 1.6 7.5 1.6 13.6 0 4.3-.4 9.8-1 16.4s-.8 11.2-.8 13.7c0 9.1 3.4 7.8 3.4 10.2 0 1.6-1 2.3-2.8 2.3-1.6-.1-4.2-2-5.2-3.1zm-5-1.2c1.4 0 2.7-.4 3.9-1.2-1.3-2.9-1.9-7.1-1.9-12.4 0-1.6.1-3.9.4-6.9s.4-5.5.4-7.2c-.9-.4-1.8-.5-2.8-.5-2.1 0-3.1 1.4-3.1 14.3 0 5.8-.7 13.9 3.1 13.9h0z" fill="#0a0a0a"/></svg>