<svg xmlns="http://www.w3.org/2000/svg" viewBox="0 0 94.9 94.6"><path d="M7.2 3.3h80.7c2 0 3.7 1.6 3.7 3.7v80.7c0 2-1.6 3.7-3.7 3.7H7.2c-2 0-3.7-1.6-3.7-3.7V6.9c0-2 1.7-3.6 3.7-3.6z" fill="#31373d"/><path d="M8.1 15.2h15.6V84c0 1.5-1.2 2.8-2.8 2.8h0-10c-1.5 0-2.8-1.2-2.8-2.8h0V15.2zm63.3 0H87V84c0 1.5-1.2 2.8-2.8 2.8h0-10.1c-1.5 0-2.8-1.2-2.8-2.8h0V15.2h.1zm-43.1 0h16.5v68.7c0 1.6-1.3 2.8-2.8 2.8h0-10.9c-1.6 0-2.8-1.3-2.8-2.8h0V15.2zm22 0h16.5v68.7c0 1.6-1.3 2.8-2.8 2.8h0-10.9c-1.6 0-2.8-1.3-2.8-2.8h0V15.2z" fill="#e1e8ed"/><path d="M18.2 11.3h14.7v48.4c0 1.2-1 2.3-2.3 2.3H20.4c-1.2 0-2.3-1-2.3-2.3l.1-48.4zm22 0h14.7v48.4c0 1.2-1 2.3-2.3 2.3H42.4c-1.2 0-2.3-1-2.3-2.3l.1-48.4zm22 0h14.7v48.4c0 1.2-1 2.3-2.3 2.3H64.4c-1.2 0-2.2-1-2.2-2.3V11.3z" fill="#31373d"/></svg>