<svg xmlns="http://www.w3.org/2000/svg" viewBox="0 0 172.9 121.5" fill="#cd1e2a"><path d="M85.8 62.8h0v.4l2.2 1.5-1.3 3.2-2.5-.6-.4.4.6 2.5-3.2 1.3-1.3-2.1h-.4l-1.3 2.1-3.2-1.2.6-2.5-.4-.4-2.5.6-1.3-3.2 2.1-1.3v-.4l-2.1-1.3 1.3-3.2 2.5.6.4-.4-.6-2.5 3.2-1.3 1.3 2.1h.4l1.3-2.1 3.2 1.3-.6 2.5.4.4 2.5-.6 1.3 3.2-2.2 1zm-1 1.1v-1.6l2-1.2-.7-1.7-2.2.5c-.2-.2-.3-.4-.5-.6s-.4-.4-.6-.5l.5-2.2-1.7-.6-1.2 2h-1.6l-1.2-2-1.7.7.5 2.2c-.2.2-.4.3-.6.5s-.4.4-.5.6l-2.2-.5-.7 1.7 2 1.2V64l-2 1.2.7 1.7 2.2-.5c.2.2.3.4.5.6s.4.4.6.5l-.5 2.2 1.7.7 1.2-2h1.6l1.2 2 1.7-.7-.5-2.2c.2-.2.4-.3.6-.5s.4-.4.5-.6l2.2.5.7-1.7-2-1.3zm-5.3-3.8c.4 0 .8.1 1.2.2s.7.4 1 .7.5.6.7 1 .2.8.2 1.2-.1.8-.2 1.2c-.2.4-.4.7-.7 1s-.6.5-1 .7-.8.2-1.2.2-.8-.1-1.2-.2-.7-.4-1-.7-.5-.6-.7-1-.2-.8-.2-1.2.1-.8.2-1.2c.2-.4.4-.7.7-1s.6-.5 1-.7.8-.2 1.2-.2zm0 5.2c.3 0 .6-.1.9-.2s.5-.3.7-.5.4-.4.5-.7.2-.5.2-.9c0-.3-.1-.6-.2-.9s-.3-.5-.5-.7-.4-.4-.7-.5-.5-.2-.9-.2c-.3 0-.6.1-.9.2s-.5.3-.7.5-.4.4-.5.7-.2.5-.2.9c0 .3.1.6.2.9s.3.5.5.7.4.4.7.5.6.2.9.2zM57.1 16.1c0 .4-.2.8-.4 1.2s-.5.7-.8 1-.7.5-1.1.6-.8.2-1.3.1c-.4 0-.8-.2-1.2-.4a2.36 2.36 0 0 1-.9-.8c-.3-.3-.5-.7-.6-1.1s-.2-.8-.1-1.2l.9-9.5c.1-.6.2-1.1.5-1.6a6.42 6.42 0 0 1 1-1.3c.4-.3.9-.6 1.4-.8s1.1-.2 1.7-.2c.6.1 1.1.2 1.6.5a6.42 6.42 0 0 1 1.3 1c.3.4.6.9.8 1.4s.2 1.1.2 1.7c0 .3-.1.6-.1.8.3.3.6.5.8.8l.6 1c.2.4.3.7.3 1.1.1.4.1.8 0 1.2-.1.6-.2 1.2-.5 1.7s-.6 1-1 1.4-.9.7-1.4.9c-.6.4-1.1.4-1.7.5zm-5.3-.5c0 .3 0 .6.1.8.1.3.2.5.4.7s.4.4.6.5.5.2.8.2.6 0 .8-.1c.3-.1.5-.2.7-.4s.4-.4.5-.6.2-.5.2-.8l.1-1.1h.5c.5 0 1 0 1.5-.2s.9-.4 1.2-.7c.4-.3.7-.7.9-1.1s.4-.9.4-1.4c0-.4 0-.8-.1-1.1-.1-.4-.2-.7-.4-1s-.4-.6-.7-.9-.6-.5-.9-.6c.2-.4.4-.8.4-1.3 0-.4 0-.9-.1-1.3s-.3-.8-.6-1.1-.6-.6-.9-.8c-.4-.2-.8-.3-1.2-.4-.4 0-.9 0-1.3.1s-.8.3-1.1.6-.6.6-.8.9c-.2.4-.3.8-.4 1.2l-.6 9.9zM15.8 40c.1 0 .3 0 .4.1s.2.1.3.2.2.2.2.3.1.3.1.4v13.8H4l-1.9-1.9V41c0-.1 0-.3.1-.4s.1-.2.2-.3.2-.2.3-.2c.1-.1.3-.1.4-.1h12.7zm0 1h-1.1v6.3H4.2V41H3.1v11.4l1.3 1.3h.8v-4.2h7.4v4.2h3.2V41zM5.3 46.3h8.5V41H5.3v5.3zm6.3 4.2H6.3v3.2h1.1v-2.1h1.1v2.1h3.2l-.1-3.2zm15.9 31.3c.1.1.1.1.1.2s.1.2.1.2c0 .1 0 .2.1.3v.2c0 .1 0 .2-.1.3 0 .1-.1.2-.2.3s-.2.1-.3.2c-.1 0-.2.1-.3.1H15c-.1 0-.2 0-.3-.1-.1 0-.2-.1-.3-.2s-.1-.2-.2-.3c0-.1-.1-.2-.1-.3v-.2c0-.1 0-.2.1-.3 0-.1.1-.2.1-.2 0-.1.1-.1.1-.2l1.4-1.4v-6.2H26v6.2l1.5 1.4zm-.6.9v-.2c0-.1 0-.1-.1-.2L25.5 81h-9l-1.3 1.3s-.1.1-.1.2v.2h11.8zm-10.2-2.5h8.5v-5.1h-8.5v5.1z"/><path d="M33.1 90.4c.2.4.4.8.5 1.2s.2.9.2 1.3v.9l-5.3 2.7-5.3-2.7v-.9c0-.3 0-.6.1-.8 0-.3.1-.5.2-.8s.2-.5.4-.8l-1.7-.9v4.9c.2.1.3.1.4.2l.3.3a.76.76 0 0 1 .2.4c0 .2.1.3.1.5v2.6H20v-2.6c0-.2 0-.3.1-.5 0-.2.1-.3.2-.4l.3-.3a.76.76 0 0 1 .4-.2v-5.4l-1.1-.5 8.5-4.2 8.5 4.2-3.8 1.8zm-10.9 5.5a.76.76 0 0 0-.2-.4c-.1-.1-.2-.2-.4-.2a.76.76 0 0 0-.4.2c-.1.1-.2.2-.2.4v1.6h1.1l.1-1.6zm.2-7.5l6.1 3.1 6.1-3.1-6.1-3.1-6.1 3.1zm10.4 4.8c0-.4 0-.8-.1-1.2s-.2-.7-.4-1.1l-3.7 1.8-3.7-1.8c-.2.3-.3.7-.4 1-.1.4-.1.7-.1 1.1v.2l4.2 2.1 4.2-2.1zM47.4 2.4c.5 0 .9.1 1.3.3s.8.4 1 .7c.3.3.5.6.7 1s.3.8.3 1.3c0 .3 0 .5-.1.8s-.2.5-.3.7a3.04 3.04 0 0 1-.5.7c-.2.2-.4.4-.6.5l.3 1.2c.1.4.1.8.1 1.2 0 .9-.2 1.8-.5 2.6s-.8 1.6-1.3 2.3l1.7 1.7-.7.7-1.7-1.7c-.7.6-1.4 1-2.3 1.3-.8.3-1.7.5-2.6.5s-1.8-.2-2.6-.5-1.6-.8-2.3-1.3l-1.7 1.7-.6-.8 1.7-1.7c-.6-.7-1-1.4-1.3-2.3s-.5-1.7-.5-2.6c0-.4 0-.8.1-1.2l.3-1.2c-.2-.1-.4-.3-.6-.5s-.3-.5-.5-.8-.2-.5-.3-.7c-.1-.3-.1-.5-.1-.8 0-.5.1-.9.3-1.3s.4-.8.7-1c.3-.3.6-.5 1-.7s.8-.3 1.3-.3c.3 0 .5 0 .8.1l.8.3a3.04 3.04 0 0 1 .7.5c.2.2.4.4.5.6l1.2-.3c.4-.1.8-.1 1.2-.1s.8 0 1.2.1l1.2.3c.1-.2.3-.4.5-.6s.4-.3.7-.5c.2-.1.5-.2.7-.3.3.1.6.1.8.1zm-10.3 1c-.3 0-.6.1-.9.2s-.5.3-.7.5-.4.4-.5.7-.2.6-.2.9.1.7.2 1 .4.6.6.8c.4-.7.8-1.3 1.3-1.8s1.1-1 1.8-1.3c-.2-.3-.5-.5-.8-.6-.1-.3-.4-.4-.8-.4zm5.2 13.7c.9 0 1.7-.2 2.5-.5s1.4-.8 2-1.4 1-1.2 1.4-2c.3-.8.5-1.6.5-2.5s-.2-1.7-.5-2.4-.8-1.4-1.4-2-1.2-1-2-1.4c-.8-.3-1.6-.5-2.5-.5s-1.7.2-2.5.5-1.4.8-2 1.4-1 1.2-1.4 2c-.3.8-.5 1.6-.5 2.5s.2 1.7.5 2.5.8 1.4 1.4 2 1.2 1 2 1.4 1.6.4 2.5.4zm3.2-6.3v1.1h-4.2V6.6h1.1v4.2h3.1zm3.4-3.4c.3-.2.5-.5.6-.8s.2-.6.2-1c0-.3-.1-.6-.2-.9s-.3-.5-.5-.7-.4-.4-.7-.5-.6-.2-.9-.2-.7.1-1 .2-.6.4-.8.6c.7.4 1.3.8 1.8 1.3.7.7 1.1 1.3 1.5 2zM36.4 117.1c0 .2 0 .3-.1.4l-.3.3c-.1.1-.3.1-.4.2-.1 0-.3.1-.4.1s-.3 0-.4-.1a.76.76 0 0 1-.4-.2l-.3-.3c-.1-.1-.1-.3-.1-.4 0-.2 0-.3.1-.4l.3-.3c.1-.1.3-.1.4-.2.1 0 .3-.1.4-.1h.4c.1 0 .2.1.4.2v-3.8l-3.5.9v4.7c0 .2 0 .3-.1.4l-.3.3c-.1.1-.3.1-.4.2-.1 0-.3.1-.4.1s-.3 0-.4-.1a.76.76 0 0 1-.4-.2l-.3-.3c-.1-.1-.1-.3-.1-.4 0-.2 0-.3.1-.4l.3-.3c.1-.1.3-.1.4-.2.1 0 .3-.1.4-.1h.4c.1 0 .2.1.4.2V113l4.5-1.1v5.2h-.2zm-5.3 1.5h.2c.1 0 .2-.1.2-.1l.2-.2c.1-.1.1-.1.1-.2s0-.2-.1-.2l-.2-.2c-.1-.1-.2-.1-.2-.1h-.4c-.1 0-.2.1-.2.1l-.2.2c-.1.1-.1.1-.1.2s0 .2.1.2l.2.2c.1.1.2.1.2.1.1-.2.2 0 .2 0zm4-1h.2c.1 0 .2-.1.2-.1l.2-.2c.1-.1.1-.1.1-.2s0-.2-.1-.2l-.2-.2c-.1-.1-.2-.1-.2-.1h-.4c-.1 0-.2.1-.2.1-.1 0-.1.1-.2.2s-.1.1-.1.2 0 .2.1.2l.2.2c.1 0 .2.1.2.1h.2zm21.4-66.1c.2 0 .4 0 .5.1s.3.2.5.3.2.3.3.5.1.4.1.5v3.9h-1.1v-3.9c0-.1 0-.2-.1-.3s-.2-.1-.3-.1H45.5c-.1 0-.2 0-.3.1s-.1.2-.1.3v3.9H44v-3.9c0-.2 0-.4.1-.5.1-.2.2-.3.3-.5s.3-.2.5-.3.4-.1.5-.1h2.8v-1.1h-.7c-.2 0-.4 0-.5-.1s-.3-.2-.5-.3c-.1-.1-.2-.3-.3-.5s-.1-.4-.1-.5v-.7H45v-2.1h1.1v-.7c0-.2 0-.4.1-.5.1-.2.2-.3.3-.5.1-.1.3-.2.5-.3s.4-.1.5-.1h2.8v-1.7a.78.78 0 0 1-.4-.4c-.1-.2-.1-.3-.1-.5 0-.1 0-.3.1-.4s.1-.2.2-.3.2-.2.3-.2c.1-.1.3-.1.4-.1s.3 0 .4.1.2.1.3.2.2.2.2.3c.1.1.1.3.1.4 0 .2 0 .4-.1.5a.78.78 0 0 1-.4.4v1.7h2.8c.2 0 .4 0 .5.1.2.1.3.2.5.3.1.1.2.3.3.5s.1.4.1.5v.7h1.1v2.1h-1.1v.7c0 .2 0 .4-.1.5s-.2.3-.3.5c-.1.1-.3.2-.5.3s-.4.1-.5.1h-.7v1.1h3.1zM47.3 49c0 .1 0 .2.1.3s.2.1.3.1h6.7c.1 0 .2 0 .3-.1s.1-.2.1-.3v-3.5c0-.1 0-.2-.1-.3s-.2-.1-.3-.1h-6.7c-.1 0-.2 0-.3.1s-.1.2-.1.3V49zm1.1-2.8h1.1v1.1h-1.1v-1.1zm1.1 5.3h3.2v-1.1h-3.2v1.1zm3.1-5.3h1.1v1.1h-1.1v-1.1zM27.9 57.3l-5.3-1.5-5.2 2 4.6-16 5.9 15.5zM22 54.8l-.3-8.5-2.8 9.7 3.1-1.2zm4.2.9l-3.6-9.5.4 8.6 3.2.9zm8 25.9H34s-.1 0-.1.1l-.1.1v.4l.2.2h.8V84h-1.2v.2c0 .1 0 .2-.1.3 0 .1-.1.2-.2.3s-.2.1-.3.2c-.1 0-.2.1-.3.1s-.2 0-.3-.1c-.1 0-.2-.1-.3-.2s-.1-.2-.2-.3c0-.1-.1-.2-.1-.3V84h-1.2v-1.2h-.2c-.1 0-.2 0-.3-.1-.1 0-.2-.1-.3-.2s-.1-.2-.2-.3c0-.1-.1-.2-.1-.3s0-.2.1-.3c0-.1.1-.2.2-.3s.2-.1.3-.2c.1 0 .2-.1.3-.1h.2v-1.2H32v-.2c0-.1 0-.2.1-.3 0-.1.1-.2.2-.3s.2-.1.3-.2c.1 0 .2-.1.3-.1s.2 0 .3.1c.1 0 .2.1.3.2s.1.2.2.3c0 .1.1.2.1.3v.2H35v1.6h-.8v.2zm0 1.2c-.1 0-.2 0-.3-.1-.1 0-.2-.1-.3-.2s-.1-.2-.2-.3c0-.1-.1-.2-.1-.3s0-.2.1-.3c0-.1.1-.2.2-.3s.2-.1.3-.2c.1 0 .2-.1.3-.1h.2v-.8h-1.2v-.8l-.2-.2h-.4l-.2.2v.8h-1.2v1.2h-.8s-.1 0-.1.1l-.1.1v.4l.2.2h.8v1.2h1.2v.8l.2.2h.4l.2-.2v-.8h1.2v-.6h-.2zm119.2 2.9c-.1.5-.2 1-.5 1.4-.2.4-.6.8-.9 1.1-.4.3-.8.5-1.2.7-.5.2-.9.2-1.4.2l-.7 4.4 1.3.2c.1 0 .2.1.3.2s.1.2.1.3-.1.2-.2.3-.2.1-.3.1l-3.5-.5c-.1 0-.2-.1-.3-.2s-.1-.2-.1-.3.1-.2.2-.3.2-.1.3-.1l1.3.2.7-4.4c-.5-.1-.9-.3-1.3-.6a4.74 4.74 0 0 1-1-1c-.3-.4-.4-.8-.6-1.3-.1-.5-.1-1 0-1.5l.3-1.2c.1-.4.3-.7.5-1.1l1.2-2.3 5.4.8.4 2.6c.1.4.1.8.1 1.2 0 .2-.1.7-.1 1.1zm-7-1.1c-.1.4 0 .8.1 1.2s.3.7.5 1.1.5.6.9.8c.3.2.7.4 1.2.4.4.1.8 0 1.2-.1s.8-.3 1.1-.5a2.36 2.36 0 0 0 .8-.9c.2-.3.4-.7.4-1.2.1-.3.1-.7.1-1s0-.7-.1-1c0-.3-.1-.7-.2-1s-.1-.7-.2-1l-4.2-.6-.9 1.8c-.2.3-.3.6-.4 1-.2.2-.2.6-.3 1zm23.3-1.8c.1.1.1.2.2.4v.4a.76.76 0 0 1-.2.4l-3.2 4.9c-.1.2-.3.3-.4.4s-.4.2-.6.2h-.6c-.2 0-.4-.1-.6-.2l-2.2-1.5c-.2-.1-.4-.3-.5-.4-.1-.2-.3-.3-.4-.5-.1-.1-.2-.2-.2-.3l-.3-.3c-.2-.1-.3-.2-.5-.2s-.3-.1-.5-.1-.3-.1-.5-.1c-.2-.1-.4-.1-.6-.3l-.9-.6c-.7-.5-1.4-1-2-1.6-.7-.6-1.2-1.2-1.7-1.9-.2-.2-.3-.5-.5-.7-.2-.3-.3-.6-.4-.8s-.1-.6-.1-.9.1-.6.3-.8l.1-.2c.1-.2.3-.3.5-.4s.4-.2.6-.2h.7c.2 0 .4 0 .6.1l1.1.3c.4.1.7.2 1.1.2 0-.1 0-.2.1-.3s.2-.2.3-.2.3 0 .4.1.2.2.2.3.1.3.1.4c.2 0 .4.1.6.1s.4.1.6.1v-.2c0-.1 0-.1.1-.2s.2-.2.3-.2.3 0 .4.1.2.2.2.3.1.3.1.4h1.2c0-.1 0-.2.1-.3s.2-.2.3-.2.3 0 .4.1l.2.2c0 .1.1.2.1.3h.6c.2 0 .4 0 .6.1.2 0 .4.1.5.2.3.2.4.4.6.6.1.2.2.4.3.7.1.2.1.5.2.7 0 .2.1.5.1.7.1.2.1.4.3.6.1.2.3.4.5.5.1.1.3.1.4.1s.3-.1.5-.1c.2-.1.3-.1.5-.1s.4 0 .6.2c.2-.7.3-.5.3-.3zm-15.5-4.1l12.4 8.1 2.3-3.5h-.1c-.2.1-.3.1-.5.1s-.3.1-.4.1h-.4a.76.76 0 0 1-.4-.2c-.3-.2-.5-.4-.7-.6s-.3-.5-.4-.7c-.1-.3-.2-.5-.2-.8-.1-.3-.1-.6-.2-.9h0c0-.2-.1-.3-.2-.4l-.3-.3c-.2-.1-.3-.1-.5-.1h-.5l.2 1c0 .1 0 .3-.1.4s-.2.1-.3.1-.3 0-.4-.1-.2-.2-.2-.3l-.3-1.2h-1.2l.2.8c0 .1 0 .3-.1.4s-.2.2-.3.2-.3 0-.4-.1-.2-.2-.2-.3l-.2-1.1c-.2 0-.4 0-.6-.1-.2 0-.4-.1-.6-.1 0 .1 0 .2.1.3 0 .1 0 .2.1.3v.3c0 .1 0 .2-.1.3s-.2.2-.3.2-.3 0-.4-.1-.2-.2-.2-.3l-.2-1.2-2.6-.6h-.7c-.1 0-.2 0-.4.1-.1 0-.2.1-.2.2h-.5zm10.7 9.6c.1.1.3.1.4.1s.3-.1.3-.2l.4-.5-11.6-7.6c.2.4.5.8.9 1.2a5.73 5.73 0 0 0 1.1 1.1 6.42 6.42 0 0 0 1.3 1l1.3.9c.2.1.3.2.5.3s.4.1.6.2c.2 0 .5.1.7.1l.6.3c.2.1.4.3.5.4s.2.3.3.4.2.3.3.4a1.38 1.38 0 0 0 .4.3l2 1.6z"/><path d="M16.6 63.9l1.2-1.2-.6-.3c-.2-.1-.3-.3-.5-.5l-.3-.6c-.1-.2-.1-.4-.1-.7s.1-.6.2-.8c.1-.3.3-.5.5-.7s.4-.3.7-.5c.3-.1.5-.2.8-.2s.6.1.8.2a3.04 3.04 0 0 1 .7.5c.2.2.3.4.5.7.1.3.2.5.2.8h4.2c.1 0 .3 0 .4.1s.2.1.3.2.2.2.2.3.1.3.1.4v3.2c0 .3-.1.6-.3.9s-.4.5-.7.6l.7.7H28c.2 0 .4 0 .6.1s.4.2.5.3.3.3.3.5c.1.2.1.4.1.6s0 .4-.1.6-.2.4-.3.5-.3.3-.5.3c-.2.1-.4.1-.6.1h-3.7a.76.76 0 0 1-.4-.2l-1.2-1.2-1.1 1.1v1.9c0 .2 0 .4-.1.6s-.2.4-.3.5-.3.3-.5.3c-.2.1-.4.1-.6.1s-.4 0-.6-.1-.4-.2-.5-.3-.3-.3-.3-.5c-.1-.2-.1-.4-.1-.6v-2.9a.76.76 0 0 1 .2-.4l1.7-1.7-1-.9-1.2 1.2c-.1.1-.2.2-.4.2h-2.6c-.2 0-.4 0-.6-.1s-.4-.2-.5-.3-.3-.3-.3-.5c-.1-.2-.1-.4-.1-.6s0-.4.1-.6.2-.4.3-.5.3-.3.5-.3c.2-.1.4-.1.6-.1h1.3v-.2zm1.1 2.2l1.4-1.4c.1-.1.2-.2.4-.2a.76.76 0 0 1 .4.2l1.6 1.6c.1.1.2.2.2.4s-.1.3-.2.4l-2 2v3a.76.76 0 0 0 .2.4c.1.1.2.2.4.2s.3-.1.4-.2.2-.2.2-.4v-2.3a.76.76 0 0 1 .2-.4l1.6-1.6c.1-.1.2-.2.4-.2a.76.76 0 0 1 .4.2l1.4 1.4H28a.76.76 0 0 0 .4-.2c.1-.1.2-.2.2-.4s-.1-.3-.2-.4-.2-.2-.4-.2h-2.6a.76.76 0 0 1-.4-.2l-2.1-2.1c-.1-.1-.2-.2-.2-.4v-1.6h-1.1a.76.76 0 0 1-.4-.2c-.1-.1-.2-.2-.2-.4a.76.76 0 0 1 .2-.4c.1-.1.2-.2.4-.2h1.6c.2 0 .3.1.4.2s.1.3.1.5v1.2c0 .2.1.4.1.5s.2.2.4.2a.76.76 0 0 0 .4-.2c.1-.1.2-.2.2-.4v-3.2h-4.5l-3 3c-.1.1-.2.1-.4.2h-1.6c-.2 0-.3.1-.4.1-.1.1-.1.2-.1.4a.76.76 0 0 0 .2.4c.1.1.2.2.4.2h2.3v.5zm.3-6.3c-.1.1-.2.1-.3.2s-.2.2-.2.4c0 .1-.1.3-.1.4s0 .3.1.4.1.2.2.3.2.2.3.2c.1.1.3.1.4.1s.3 0 .4-.1.2-.1.3-.2.2-.2.2-.3c.1-.1.1-.3.1-.4s0-.3-.1-.4-.1-.2-.2-.3-.2-.2-.3-.2c-.1-.1-.2-.1-.4-.1H18zm55.2 19.8h-7.4c0-.7.1-1.3.3-2l.7-1.8c.3-.6.7-1 1.2-1.5.4-.4.9-.8 1.5-1.2.5-.3 1.1-.6 1.8-.7.6-.2 1.3-.3 2-.3v7.5h-.1zm-.2 1.1l-5.2 5.2c-.7-.7-1.1-1.5-1.5-2.4s-.5-1.8-.5-2.8c0-.1 7.2-.1 7.2 0zm-.8-7.4c-.7.1-1.3.3-1.9.6s-1.1.7-1.6 1.1c-.5.5-.8 1-1.1 1.6s-.5 1.2-.6 1.9h5.2v-5.2zM67 81.7l.3 1.3.6 1.2 2.5-2.5H67zm7.3-8.4h.9c.3 0 .6 0 .9.1.3 0 .6.1.9.2l.9.3c.7.3 1.4.7 2 1.2s1.1 1.1 1.5 1.7.7 1.3 1 2.1c.2.7.3 1.5.3 2.3 0 .7-.1 1.4-.3 2.1s-.5 1.3-.8 1.9-.8 1.1-1.2 1.6c-.5.5-1 .9-1.6 1.2s-1.2.6-1.9.8-1.4.2-2.1.2c-1.1 0-2.1-.2-3-.6-1-.4-1.8-1-2.6-1.7l-.4-.4 5.5-5.5v-7.5zm.5 14.8c.6 0 1.2-.1 1.8-.2.6-.2 1.1-.4 1.6-.7a7.55 7.55 0 0 0 2.5-2.5c.3-.5.5-1.1.7-1.6.2-.6.2-1.2.2-1.8s-.1-1.2-.2-1.7-.4-1.1-.6-1.6c-.3-.5-.6-.9-1-1.4-.4-.4-.8-.8-1.3-1.1s-1-.6-1.5-.7c-.5-.2-1.1-.3-1.7-.4v7.1l-5 5c.6.5 1.3 1 2.1 1.2s1.6.4 2.4.4zm7 .7c.7 0 1.4.1 2.1.3s1.3.5 1.9.8 1.1.8 1.6 1.2c.5.5.9 1 1.2 1.6s.6 1.2.8 1.9.3 1.4.3 2.1-.1 1.4-.3 2.1-.5 1.3-.8 1.9-.8 1.1-1.2 1.6c-.5.5-1 .9-1.6 1.2s-1.2.6-1.9.8-1.4.3-2.1.3-1.4-.1-2.1-.3-1.3-.5-1.9-.8-1.1-.8-1.6-1.2c-.5-.5-.9-1-1.2-1.6s-.6-1.2-.8-1.9-.3-1.4-.3-2.1.1-1.4.3-2.1.5-1.3.8-1.9.8-1.1 1.2-1.6c.5-.5 1-.9 1.6-1.2s1.2-.6 1.9-.8 1.4-.3 2.1-.3zm-3.7 7.4c-.1-.7-.2-1.4-.5-2s-.6-1.2-1.1-1.9c-.4.5-.8 1.1-1.1 1.8s-.4 1.3-.5 2h3.2zm-1.6 4.9c.5-.5.8-1.1 1.1-1.8s.4-1.3.5-2H75c.1.7.2 1.4.5 2 .2.5.6 1.1 1 1.8zm4.8-11.3c-.8.1-1.5.2-2.2.5s-1.3.7-1.9 1.2c.6.6 1 1.3 1.4 2.1.3.8.5 1.6.6 2.5h2.1v-6.3zm-4.1 12c.6.5 1.2.9 1.9 1.2s1.4.5 2.2.5v-6.3h-2.1c-.1.9-.3 1.7-.6 2.5-.3.7-.8 1.5-1.4 2.1zm9.2-10.2c-.6-.5-1.2-.9-1.9-1.2s-1.4-.5-2.2-.5v6.3h2.1c.1-.9.3-1.7.6-2.5.4-.8.9-1.4 1.4-2.1zm-4 12c.8-.1 1.5-.2 2.2-.5s1.3-.7 1.9-1.2c-.6-.6-1-1.3-1.4-2.1-.3-.8-.5-1.6-.6-2.5h-2.1v6.3zm6.3-7.4c-.1-.7-.2-1.4-.5-2-.3-.7-.6-1.2-1.1-1.8-.5.5-.8 1.1-1.1 1.8s-.4 1.3-.5 2h3.2zm-3.1 1.1c.1.7.2 1.4.5 2s.6 1.2 1.1 1.8c.4-.5.8-1.1 1.1-1.8s.4-1.3.5-2h-3.2zm32.6-8.4c.2-.2.5-.3.8-.3a1.1 1.1 0 0 1 .8 0c.3 0 .5.1.8.3s.5.3.6.6c.2.2.3.5.4.8a1.1 1.1 0 0 1 0 .8c0 .3-.1.5-.3.8-.1.2-.3.5-.6.6l-3 2.2 1.2 7-3 2.2-2.1-6.4-1.7 1.3.2 1.2-3 2.2-1-3.2-2.7-1.9 3-2.2 1.1.5 1.7-1.3-5.5-3.9 3-2.2 6.3 3.2 3-2.3zm1.9 2.7l.3-.3c.1-.1.1-.2.1-.4v-.4a.76.76 0 0 0-.2-.4l-.3-.3c-.1-.1-.2-.1-.4-.1h-.4a.76.76 0 0 0-.4.2l-3.5 2.6-6.4-3.2-1.3.9L113 94l-3.4 2.5-1.1-.5-1.3.9 1.8 1.2.3 1.1c.1.4.2.7.4 1.1l1.3-.9-.2-1.2 3.4-2.5 2 6.4 1.3-.9-1.2-7 3.8-2.6zm47.2-51.1v16.9h-20.8V40.5h20.8zm-19.4 1.3V43H166v-1.3h-18.1zM166 56.1V44.3h-18.2V56l18.2.1zm-12-8.3c-.4 0-.7.1-1 .2s-.5.3-.8.5c-.2.2-.4.5-.5.8s-.2.7-.2 1.1.1.7.2 1 .3.6.5.8.4.4.7.5.6.2 1 .2c.2 0 .5 0 .7-.1.2 0 .4-.1.6-.2l.2.6c-.1.1-.4.1-.6.2-.3.1-.6.1-1 .1s-.8-.1-1.2-.2-.7-.3-1-.6-.5-.6-.6-1c-.2-.4-.2-.8-.2-1.3s.1-.9.2-1.3c.2-.4.4-.7.7-1s.6-.5 1-.7.8-.2 1.3-.2c.4 0 .7 0 .9.1s.4.1.5.2l-.2.6c-.1-.1-.3-.1-.5-.2s-.4-.1-.7-.1zm3 .5h1.3v1.3H157v-1.3zm0 2.5h1.3v1.3H157v-1.3zm3.7-3.8l2.6 6.5h-.9l-2.6-6.5h.9zm-1.4 51.8h8v20H146V98l13.3 13.3V98.8zm-12 18.8h16.4l-16.4-16.4v16.4zm2.7-9l6.3 6.3H150v-6.3zm1.3 3.2v1.7h1.7l-1.7-1.7zm13 4.4l1.3 1.3h.4v-17.3h-5.3v1.3h2.7v1.3h-2.7v1.3h2.7v1.3h-2.7v1.3h4v1.3h-4v1.3h2.7v1.3h-2.7v1.3h2.7v1.3h-1.7l1.3 1.3h1.7v1.3h-.4v.4zM14.2 25.5c0-.4.1-.8.3-1.2s.4-.7.7-1 .6-.5 1-.6c.4-.2.8-.2 1.2-.2s.9.1 1.2.3c.4.2.7.4 1 .7s.5.6.6 1c.2.4.2.8.2 1.2v.9l1.1.9c.3.3.6.7.9 1.1l.1-2.3a.76.76 0 0 1 .2-.4c.1-.1.2-.1.4-.1a.76.76 0 0 1 .4.2c.1.1.1.2.1.4L23.2 38a.76.76 0 0 1-.2.4c-.1.1-.2.1-.4.1a.76.76 0 0 1-.4-.2c-.1-.1-.1-.2-.1-.4l.1-2.3c-.3.4-.7.8-1.1 1.2s-.8.6-1.3.8-1 .4-1.5.5-1 .2-1.6.1l-3.2-.1.7-12.6zm8.3 6.7c0-.5 0-1-.1-1.4-.1-.5-.3-.9-.5-1.3a4.44 4.44 0 0 0-.8-1.1c-.3-.3-.7-.6-1-.9l-1.2-.6c-.4-.1-.9-.2-1.4-.2l-2.1-.1-.4 10.6 2.1.1c.5 0 1 0 1.4-.1.5-.1.9-.3 1.3-.5a4.44 4.44 0 0 0 1.1-.8c.3-.3.6-.7.9-1l.6-1.2c0-.7 0-1 .1-1.5zm-3-6.5c0-.3 0-.6-.1-.8-.1-.3-.2-.5-.4-.7s-.4-.4-.7-.5-.5-.2-.8-.2-.6 0-.8.1c-.3.1-.5.2-.7.4s-.4.4-.5.7-.2.5-.2.8h1.1c.4 0 .7 0 1.1.1.4 0 .7.1 1.1.1l1 .3-.1-.3zm81.3 26.1v3.7c0 .3-.1.6-.2.9s-.3.5-.4.8c-.2.2-.4.4-.7.6s-.6.3-.9.3c0 .4-.2.8-.3 1.2-.2.4-.4.7-.7 1s-.6.5-1 .7-.7.3-1.2.4v1.1h3.2v2.1h1.1v1.1h-9.5v-1.1h1.1v-2.1h3.2v-1.1c-.4-.1-.8-.2-1.2-.4s-.7-.4-1-.7-.5-.6-.7-1-.3-.7-.3-1.2l-.9-.3c-.3-.2-.5-.4-.7-.6s-.3-.5-.4-.8-.2-.6-.2-.9v-3.7h2.1v-1.1h7.4v1.1h2.2zm-10.5 3.5a.9.9 0 0 0 .1.5c.1.2.1.3.2.4l.3.3a.76.76 0 0 0 .4.2v-4h-1.1v2.6h.1zm4.7 4.9c.4 0 .7-.1 1-.2s.6-.3.8-.6.4-.5.6-.8.2-.7.2-1v-5.8h-5.3v5.8c0 .4.1.7.2 1s.3.6.6.8.5.4.8.6c.4.2.7.2 1.1.2zm-2.6 3.1v1.1h5.3v-1.1h-5.3zm7.4-10.5h-1.1v4.1c.2-.1.3-.1.4-.2l.3-.3a.76.76 0 0 0 .2-.4c.1-.2.1-.3.1-.5v-2.7h.1z"/><path d="M164.1 61.3c.2 0 .5 0 .7.1s.4.2.6.4.3.4.4.6.1.5.1.7v10.8c0 .2 0 .5-.1.7s-.2.4-.4.6-.4.3-.6.4-.5.1-.7.1h-15.6c-.2 0-.5 0-.7-.1s-.4-.2-.6-.4-.3-.4-.4-.6-.1-.5-.1-.7V63.2c0-.2 0-.5.1-.7s.2-.4.4-.6.4-.3.6-.4.5-.1.7-.1h4.2v-1.2c0-.2 0-.3.1-.5.1-.1.1-.3.3-.4.1-.1.2-.2.4-.3.1-.1.3-.1.5-.1h4.8a.9.9 0 0 1 .5.1c.2.1.3.1.4.3a1.38 1.38 0 0 1 .3.4.9.9 0 0 1 .1.5v1.2l4-.1zM148 73.9c0 .2.1.3.2.4a.76.76 0 0 0 .4.2h1.8v-12h-1.8c-.2 0-.3.1-.4.2a.76.76 0 0 0-.2.4v10.8zm3.6-11.3v12h9.6v-12h-9.6zm2.4-1.3h4.8v-1.2H154v1.2zm10.7 1.9c0-.2-.1-.3-.2-.4a.76.76 0 0 0-.4-.2h-1.8v12h1.8c.2 0 .3-.1.4-.2a.76.76 0 0 0 .2-.4V63.2zM15.9 97.1l.4.3c.7.6 1.3 1.2 1.8 1.8s.9 1.3 1.2 2 .6 1.4.7 2.2c.2.8.3 1.6.3 2.5l2.4 3.8-1.4 1.7-1.3-1.1-.4 2.3-4.4.4-.9-2.2-1.1 1.3-1.7-1.4 1.6-4.2-.2-2.5c0-.8.1-1.6.3-2.3s.5-1.5.8-2.2c.4-.7.8-1.4 1.4-2.1l.5-.3zM14 109.8c-.1-.3-.2-.5-.2-.8-.1-.3-.2-.5-.2-.8l-.8 2.1.5.4.7-.9zm5.4-4.9l-.3-1.9-.6-1.7c-.3-.5-.6-1.1-1-1.5-.4-.5-.8-1-1.4-1.4A15.26 15.26 0 0 0 15 100a12.2 12.2 0 0 0-.7 1.7c-.2.6-.3 1.2-.3 1.8v2l.3 2c.2.6.3 1.3.6 1.9l4.4-.4c.1-.7.2-1.3.2-2l-.1-2.1zm-1.3 1.4c-.2.2-.4.4-.6.5s-.5.2-.7.2-.5 0-.7-.1-.5-.2-.7-.4-.4-.4-.5-.6-.2-.5-.2-.7 0-.5.1-.7.2-.5.4-.7.4-.4.6-.5.5-.2.7-.2.5 0 .7.1.5.2.7.4.4.4.5.6.2.5.2.7 0 .5-.1.7-.2.5-.4.7zm.7 5.4c0-.3.1-.6.2-.9s.1-.6.2-.9l-3.9.4.6 1.6 2.9-.2zm-2.8-7.3c-.1.1-.1.2-.2.3v.4c0 .1 0 .2.1.3s.1.2.2.3.2.1.3.2h.4c.1 0 .2 0 .3-.1s.2-.1.3-.2.1-.2.2-.3v-.4c0-.1 0-.2-.1-.3s-.1-.2-.2-.3-.2-.1-.3-.2h-.4c-.1 0-.2 0-.3.1-.2.1-.3.1-.3.2zm.2 10c.2-.2.4-.4.6-.5s.5-.2.7-.2.5 0 .7.1.5.2.7.4.4.4.5.6.2.5.2.7 0 .5-.1.7-.2.5-.4.7l-1.2 1.5-1.5-1.2c-.2-.2-.4-.4-.5-.6s-.2-.5-.2-.7 0-.5.1-.7c.2-.3.3-.5.4-.8zm2.2 1.9c.1-.1.1-.2.2-.3v-.4c0-.1 0-.2-.1-.3s-.1-.2-.2-.3-.2-.1-.3-.2h-.4c-.1 0-.2 0-.3.1s-.2.1-.3.2-.1.2-.2.3v.4c0 .1 0 .2.1.3s.1.2.2.3l.7.6.6-.7zm2-8.7c0 .3 0 .5-.1.8 0 .3-.1.5-.1.8l1 .8.4-.5-1.2-1.9zm17.5-87.1c.1.1 0 .3 0 .4L36.5 24l-.3.3c-.1.1-.3 0-.4 0l-2.4 5.4.5-.2c.1-.1.3 0 .4 0l.3.3.4 1c.1.2.1.4.1.6s-.1.4-.1.6c-.1.2-.2.4-.3.5-.2.1-.3.3-.5.3-.1.1-.2.1-.3.3-.1.1-.1.3 0 .4.2.5.3 1 .3 1.5s-.1.9-.3 1.4c-.2.4-.5.8-.8 1.2-.3.3-.8.6-1.2.8-.6.2-1.2.3-1.9.3-.6 0-1.2-.2-1.8-.4s-1.1-.6-1.5-1-.8-1-1-1.6c-.2-.5-.3-1-.3-1.4 0-.5.1-1 .3-1.4s.5-.8.8-1.2c.3-.3.8-.6 1.2-.8.1-.1.2-.1.3-.3.1-.1.1-.3 0-.4-.1-.3-.2-.5-.1-.8 0-.3.1-.5.2-.8s.3-.5.5-.7.4-.3.7-.5c.3-.1.7-.2 1-.1.3 0 .7.2 1 .4l2-4.5c-.2-.1-.3-.2-.3-.3-.1-.1 0-.3 0-.4l1.4-3.1.3-.3c.1-.1.3 0 .4 0l2.7 1.2c0 .1.1.2.1.2zm-4 10.2l-1.2.5c-.1.1-.3 0-.4 0l-1.7-.8-.3-.3c-.1-.1 0-.3 0-.4l.5-1.1a.55.55 0 0 0-.5-.3h-.6c-.1.1-.3.1-.4.2s-.2.2-.2.3c-.1.1-.1.3-.1.4s0 .3.1.4c.1.2.1.4.1.6s-.1.4-.1.6c-.1.2-.2.4-.3.5-.2.1-.3.3-.5.3-.3.1-.6.3-.9.6-.2.2-.4.5-.6.8-.1.3-.2.6-.2 1 0 .3 0 .7.2 1 .2.5.4.9.8 1.2.3.3.7.6 1.2.8.4.2.9.3 1.4.3s1-.1 1.5-.2c.3-.1.6-.3.9-.6.2-.2.4-.5.6-.8.1-.3.2-.6.2-1s0-.7-.2-1c-.1-.2-.1-.4-.1-.6s.1-.4.1-.6c.1-.2.2-.4.3-.5.2-.1.3-.3.5-.3.1-.1.2-.1.3-.3.1-.1.1-.3 0-.4l-.4-.3zm-5.6 3.8l.4-1 2.4 1.1-.4 1-2.4-1.1zm.9-2l.4-1 2.4 1.1-.4 1-2.4-1.1zm3-2.5l2.7-6.1-.7-.3-2.7 6.1.7.3zm3.6-6.8l.9-2.1-1.7-.8-1 2.1 1.8.8zm1.1 35.9c.2 0 .4 0 .6.1s.4.2.5.3.3.3.3.5c.1.2.1.4.1.6v2.5c0 .2 0 .4-.1.6s-.2.4-.3.5-.3.3-.5.3c-.2.1-.4.1-.6.1h-.3v.9c0 .1 0 .3-.1.4 0 .1-.1.2-.2.3s-.2.2-.3.2-.2.1-.4.1h-5c-.1 0-.3 0-.4-.1-.1 0-.2-.1-.3-.2s-.2-.2-.2-.3-.1-.2-.1-.4v-6.7c-.2-.1-.3-.3-.5-.5-.1-.2-.2-.4-.2-.6s0-.3.1-.5a1.38 1.38 0 0 1 .3-.4c.1-.1.2-.2.4-.3.1-.1.3-.1.5-.1h5.6a.9.9 0 0 1 .5.1 1.38 1.38 0 0 1 .4.3 1.38 1.38 0 0 1 .3.4.9.9 0 0 1 .1.5v.3c0 .1-.1.2-.1.3-.1.1-.1.2-.2.3s-.2.2-.3.2v.1h.4v.2zm-6.6-1.9h-.2c-.1 0-.1.1-.2.1-.1.1-.1.1-.1.2v.2c0 .1 0 .2.1.4.1.1.2.2.3.2l.2.1v2.8c0 .1 0 .2.1.2.1.1.1.1.2.1s.2 0 .2-.1c.1-.1.1-.1.1-.2v-1.9c0-.1 0-.3.1-.4 0-.1.1-.2.2-.3s.2-.2.3-.2.2-.1.4-.1c.1 0 .3 0 .4.1.1 0 .2.1.3.2s.2.2.2.3.1.2.1.4v1.2c0 .1 0 .2.1.2.1.1.1.1.2.1s.2 0 .2-.1c.1-.1.1-.1.1-.2v-1.2c0-.1 0-.3.1-.4 0-.1.1-.2.2-.3s.2-.2.3-.2.2-.1.4-.1h1.8c.1-.1.2-.1.3-.3.1-.1.1-.2.1-.4v-.2c0-.1-.1-.1-.1-.2-.1-.2-.1-.2-.2-.2h-6.2v.2zm5.3 7.5c.1 0 .2 0 .2-.1.1-.1.1-.1.1-.2v-5.3h-1.6c-.1 0-.2 0-.2.1l-.1.1v1.2c0 .1 0 .3-.1.4 0 .1-.1.2-.2.3s-.2.2-.3.2-.2.1-.4.1c-.1 0-.3 0-.4-.1-.1 0-.2-.1-.3-.2s-.2-.2-.2-.3-.1-.2-.1-.4v-1.2c0-.1 0-.2-.1-.2-.1-.1-.1-.1-.2-.1s-.2 0-.2.1c-.1.1-.1.1-.1.2v1.9c0 .1 0 .3-.1.4 0 .1-.1.2-.2.3s-.2.2-.3.2-.2.1-.4.1c-.1 0-.2 0-.3-.1v2.2c0 .1 0 .2.1.2.1.1.1.1.2.1h.9v-2.2c0-.1 0-.2.1-.2.1-.1.1-.1.2-.1s.2 0 .2.1c.1.1.1.1.1.2v2.2h1.9v-2.8c0-.1 0-.2.1-.2.1-.1.1-.1.2-.1s.2 0 .2.1c.1.1.1.1.1.2v2.8s1.2 0 1.2.1zm.3.9v-.4h-5.8v.4c0 .1 0 .2.1.2.1.1.1.1.2.1h5c.1 0 .2 0 .2-.1.3 0 .3-.1.3-.2zm1.9-2.5v-2.5c0-.1 0-.3-.1-.4 0-.1-.1-.2-.2-.3s-.2-.2-.3-.2-.2-.1-.4-.1h-.3V64h.3c.1 0 .3 0 .4-.1.1 0 .2-.1.3-.2s.2-.2.2-.3c.1-.1.1-.1.1-.3z"/><path d="M124.2 79.9h1.7V81h-12.5c-.1.4-.1.7-.1 1.1s0 .7-.1 1.1 0 .7 0 1.1v1.1H110v-2.9c0-.4.1-.9.1-1.3H109v-1.1h1.4c.3-1.4.7-2.6 1.2-3.9.6-1.2 1.2-2.4 2.1-3.5-.8 0-1.5-.2-2.2-.5s-1.3-.8-1.8-1.3l-.4-.4.4-.4c.6-.5 1.2-.9 1.9-1.2s1.4-.4 2.2-.4c.9 0 1.6.2 2.4.5.7.3 1.4.8 2 1.4.4 0 .8.1 1.2.2s.8.3 1.1.5.7.5.9.7c.3.3.5.6.7 1s.4.7.5 1.1.2.8.2 1.2v.5h-.5c-.7 0-1.4-.2-2-.5s-1.2-.7-1.6-1.3c-.4.8-.9 1.4-1.6 1.9-.6.5-1.4.8-2.2 1l-.6 1.7-.5 1.7h2.4c.1-.5.3-.9.6-1.3s.6-.7.9-1c.4-.3.8-.5 1.2-.7s.9-.2 1.4-.2.9.1 1.4.2c.4.2.8.4 1.2.7s.7.6.9 1 .2.6.4 1.1zm-13.4-9.6c.4.4.9.6 1.5.8.5.2 1.1.3 1.7.3.5 0 1.1-.1 1.5-.2s1-.4 1.4-.7c-.4-.4-.9-.6-1.5-.8-.5-.2-1.1-.3-1.7-.3-.5 0-1.1.1-1.5.2s-1 .5-1.4.7zm2.7 6.5h-.8v-.4c-.3.7-.5 1.3-.7 1.9s-.4 1.3-.5 1.9l-.3 1.9c-.1.7-.1 1.3-.1 2h1.1c0-.7 0-1.3.1-1.9 0-.6.1-1.2.2-1.8s.2-1.2.4-1.8c.1-.7.3-1.3.6-1.8zm4.7-5.4c-.6 0-1.1.2-1.6.4s-.9.5-1.3.9a6.42 6.42 0 0 0-1 1.3c-.3.5-.4 1-.5 1.6.5 0 .9-.1 1.3-.3l1.1-.6c.3-.3.7-.6.9-.9.3-.4.5-.8.7-1.2.1-.2.1-.4.2-.6s.1-.3.2-.6zm5.1 10.7a.76.76 0 0 1 .4.2c.1.1.2.2.2.4a.76.76 0 0 1-.2.4c-.1.1-.2.2-.4.2H117a.76.76 0 0 1-.4-.2c-.1-.1-.2-.2-.2-.4a.76.76 0 0 1 .2-.4c.1-.1.2-.2.4-.2h6.3zm-6.2-2.2h6c-.1-.3-.3-.6-.5-.9s-.4-.5-.7-.7a2.47 2.47 0 0 0-.9-.4c-.3-.1-.6-.2-1-.2-.3 0-.7.1-1 .2s-.6.2-.9.4-.5.4-.7.7c0 .3-.2.7-.3.9zm5.1 4.3a.76.76 0 0 1 .4.2c.1.1.2.2.2.4a.76.76 0 0 1-.2.4c-.1.1-.2.2-.4.2H118a.76.76 0 0 1-.4-.2c-.1-.1-.2-.2-.2-.4a.76.76 0 0 1 .2-.4c.1-.1.2-.2.4-.2h4.2zm-3-12.8c0 .4-.1.7-.2 1.1.3.5.7.9 1.1 1.2s1 .5 1.5.6l-.3-1c-.1-.3-.3-.6-.5-.8l-.7-.7c-.3 0-.6-.2-.9-.4zM16.3 85.8c.1 0 .1 0 .2.1 0 .1.1.1.1.2v3.1c0 .2 0 .3-.1.4a.76.76 0 0 1-.2.4c-.1.1-.2.2-.3.2-.1.1-.2.1-.3.1v4.3c0 .1 0 .1-.1.2 0 .1-.1.1-.2.1s-.1 0-.2-.1c0-.1-.1-.1-.1-.2v-4.3c-.1 0-.2 0-.3-.1s-.2-.1-.3-.2-.1-.2-.2-.4c0-.1-.1-.3-.1-.4V86c0-.1 0-.1.1-.2 0-.1.1-.1.2-.1s.1 0 .2.1c0 .1.1.1.1.2v3.3c0 .1.1.1.1.2s.1.1.1.1h.2v-3.7c0-.1 0-.1.1-.2 0-.1.1-.1.2-.1s.1 0 .2.1c0 .1.1.1.1.2v3.8h.2c.1 0 .1-.1.1-.1 0-.1.1-.1.1-.2v-3.3c0-.1 0-.1.1-.2-.1-.1 0-.1 0-.1zm2.4 0v8.8c0 .1 0 .1-.1.2 0 .1-.1.1-.2.1s-.1 0-.2-.1c0-.1-.1-.1-.1-.2V92h-.6c-.1 0-.2 0-.3-.1-.1 0-.2-.1-.2-.1-.1-.1-.1-.1-.2-.3 0-.1-.1-.2-.1-.4v-3.3c0-.3 0-.5.1-.8.1-.2.2-.5.3-.6.1-.2.3-.3.5-.4s.4-.2.6-.2h.5zm-.4.5c-.1 0-.2.1-.3.2l-.3.3c-.1.1-.1.3-.2.4 0 .2-.1.3-.1.5v3.4c0 .1 0 .1.1.2 0 .1.1.1.2.1h.7l-.1-5.1zm137.1 2.3c.1 0 .2-.1.4-.1h.4c.4 0 .8 0 1.3.1.4 0 .8.1 1.3.1.5.1 1.1.1 1.6.2s1.1.2 1.6.4c.2.1.5.2.7.2.2.1.5.2.7.3.3.1.6.3.8.5s.4.5.6.7c.1.1.1.3.2.4a.9.9 0 0 1 .1.5v.5c0 .2-.1.3-.1.5-.1.2-.2.3-.5.4-.2.1-.5.2-.8.3s-.6.2-.8.2c-.3.1-.5.1-.7.2-.2 0-.4.1-.6.1s-.4.1-.6.2l-.2.1c-.1.1-.2.1-.3.2s-.2.2-.2.3c-.1.1-.1.2-.2.3s-.1.2-.2.3l-1.4 2.8c-.1.1-.1.2-.2.3s-.1.2-.2.4c0 .1-.1.2-.1.4v.6c0 .2.1.4.2.6s.2.4.2.5c.1.2.1.4.2.6l.3.8c.1.3.1.5.2.8s0 .5-.1.6-.2.3-.3.4-.3.2-.4.3c-.2.1-.3.2-.5.2-.2.1-.3.1-.5.1-.3 0-.7 0-1-.1l-.9-.3c-.2-.1-.4-.2-.6-.4-.2-.1-.4-.3-.6-.4-.2-.2-.4-.3-.6-.6-.2-.2-.5-.4-.7-.7-.2-.2-.5-.5-.7-.8s-.5-.5-.7-.8-.4-.5-.6-.8-.4-.5-.5-.7c-.1-.1-.1-.2-.2-.3s-.1-.2-.1-.4c-.1 0-.1-.1-.2-.1s-.1-.1-.2-.1l-.1-.1c0-.1 0-.1-.1-.2v-.3c0-.1 0-.3.1-.4 0-.2.1-.3.1-.4s.1-.3.1-.3c.1-.2.1-.4.2-.6l.3-.6c0-.1.1-.2.1-.2.1-.1.1-.2.2-.2h0c.1-.1.2-.2.4-.2.1-.1.2-.2.4-.2l1.4-2.7v-1c0-.1.1-.2.1-.4.1-.2.2-.4.3-.5.1-.2.2-.4.4-.5.1-.1.1-.1.2-.3s.2-.2.3-.3l.5-.5c.1-.1.3-.1.4-.1.2 0 .3.2.4.2zm8.5 3.7v-.6c0-.2-.1-.3-.2-.5-.1-.1-.2-.3-.4-.4s-.3-.2-.5-.3l-.6-.3c-.2-.1-.4-.2-.6-.2-.6-.2-1.2-.3-1.8-.4s-1.2-.1-1.8-.2c-.3 0-.6-.1-1-.1h-1c-.1 0-.2 0-.2.1-.1 0-.1.1-.2.1s-.1.1-.2.1-.2 0-.3-.1l-.1-.1-.7.7c-.2.3-.4.5-.5.8V92c0 .1 0 .2-.1.3 0 .1-.1.3-.2.5l-1 1.9c-.1.2-.2.3-.2.4s-.1.2-.2.3-.2.1-.3.2-.3.2-.5.3l-.1.1v.1c-.2.3-.3.6-.4.9s-.2.6-.2 1c.1.1.2.1.3.2s.1.2.1.3v.2c0 .1.1.1.1.2.2.3.4.5.6.8s.4.5.6.7l1.2 1.4c.4.4.8.9 1.3 1.2.2.1.3.3.5.4l.6.3c.2.1.3.2.5.2.2.1.4.1.5.1s.4 0 .5-.1c.2-.1.3-.2.5-.3 0-.1 0-.2-.1-.4s-.1-.4-.2-.6-.1-.4-.2-.6-.1-.3-.2-.4c0-.1-.1-.2-.1-.3a.76.76 0 0 0-.2-.4c0-.1-.1-.3-.1-.4s-.1-.2-.1-.3v-.8c0-.2.1-.4.1-.5.1-.2.1-.3.2-.5s.2-.3.2-.5l1.4-2.8c.1-.2.2-.3.3-.5s.2-.3.3-.5c.1-.1.2-.3.4-.4.1-.1.3-.2.5-.3h.2c.1 0 .2-.1.3-.1s.3-.1.4-.1.3-.1.4-.1.2-.1.3-.1.3-.1.5-.1.4-.1.6-.2.4-.1.6-.2c.3-.1.4-.1.5-.2zm-10 2l.3-.3h.4l.3.3v.4l-.3.3h-.4l-.3-.3c-.1 0 0-.3 0-.4zM42.4 44.7h-1.1V50h1.1v3.2h-3.2v-1L36 53.8v1.5h-3.2v-1.5l-3.2-1.6v1h-3.2V50h1.1v-5.3h-1.1v-3.2h3.1l3.3-1.6v-1.5H36v1.5l3.3 1.6h3.1v3.2zm-14.8-2.2v1.1h1.1v-1.1h-1.1zm1.1 9.5v-1h-1.1v1h1.1zm1-1l3.2 1.6V52H34v-5.3h-1.1v-1l-3.2-1.6v.5h-1.1V50h1.1v1zm6.4-9.5h-3.2V41l-3.2 1.6v.4l3.2 1.6v-1h3.2v1l3.2-1.6v-.4L36.1 41v.5zm-2.2-2.2v1.1H35v-1.1h-1.1zm0 6.5H35v-1.1h-1.1v1.1zm1.1 8.4v-1.1h-1.1v1.1H35zm5.3-4.2v-5.3h-1.1v-.5L36 45.8v1h-1V52h1.1v.5l3.2-1.6v-1h1zm0-7.5v1.1h1.1v-1.1h-1.1zm1 9.5v-1h-1.1v1h1.1z"/><path d="M32.7 70.7c.4 0 .7 0 1.1.1s.7.2 1 .4c.1.1.3.2.4.3s.3.2.4.4c.1.1.2.3.4.4.1.1.2.3.3.4v.2c0 .1 0 .2-.1.2-.1.1-.1.1-.2.1h-.2l-.1-.1c-.1-.1-.1-.2-.2-.3s-.1-.2-.2-.3c-.2-.2-.3-.4-.5-.5s-.4-.3-.6-.4-.5-.2-.7-.2c-.2-.1-.5-.1-.7-.1-.4 0-.8.1-1.2.2s-.7.3-1 .6l-.5.5H30c-.1 0-.2 0-.2-.1-.1-.1-.1-.1-.1-.2v-.1s0-.1.1-.1l.6-.6c.1-.1.2-.2.4-.2.1-.1.2-.1.4-.2l.8-.3c.1 0 .4-.1.7-.1zm0-.6c-.4 0-.8.1-1.2.2s-.8.3-1.2.4h-.1c-.1 0-.2 0-.2-.1-.1-.1-.1-.1-.1-.2s.1-.2.2-.3l.6-.3c.2-.1.4-.2.7-.2.2-.1.5-.1.7-.1h1.4c.2 0 .5.1.7.1.2.1.5.1.7.2l.6.3c.1.1.2.2.2.3s0 .2-.1.2c-.1.1-.1.1-.2.1h-.2c-.4-.2-.8-.3-1.2-.4-.4-.2-.8-.2-1.3-.2zm0 1.8c.4 0 .8.1 1.1.2.3.2.7.4.9.6.3.3.5.6.6.9.2.3.2.7.2 1.1 0 .3 0 .6-.1.9s-.1.6-.2.9a.76.76 0 0 1-.2.4c-.1.1-.1.3-.2.4a.76.76 0 0 0-.2.4l-.4.4h-.1c-.1 0-.2 0-.2-.1-.1-.1-.1-.1-.1-.2s0-.1.1-.2.1-.2.2-.3.1-.2.2-.3c.2-.4.4-.8.5-1.2s.2-.8.2-1.3c0-.3-.1-.6-.2-.9s-.3-.5-.5-.7-.4-.4-.7-.5-.6-.2-.9-.2-.6.1-.9.2-.5.3-.7.5-.4.4-.5.7-.2.6-.2.9c0 .1 0 .2-.1.2-.1.1-.1.1-.2.1s-.2 0-.2-.1c-.1-.1-.1-.1-.1-.2 0-.4.1-.8.2-1.1.2-.3.4-.7.6-.9.3-.3.6-.5.9-.6.5.2.8 0 1.2 0zm0 1.4c.2 0 .4 0 .6.1s.4.2.5.3.3.3.3.5c.1.2.1.4.1.6 0 .3 0 .7-.1 1s-.2.6-.4.9-.4.6-.6.8c-.2.3-.5.5-.8.7h-.2c-.1 0-.2 0-.2-.1.1.1.1 0 .1-.1v-.1l.1-.1c.1-.1.2-.1.3-.2s.2-.1.3-.2a4.44 4.44 0 0 0 .8-1.1 3.08 3.08 0 0 0 .3-1.3c0-.1 0-.3-.1-.4 0-.1-.1-.2-.2-.3s-.2-.2-.3-.2-.2-.1-.4-.1c-.1 0-.3 0-.4.1-.1 0-.2.1-.3.2s-.2.2-.2.3-.1.2-.1.4 0 .4-.1.6-.2.4-.3.5-.3.3-.5.3c-.2.1-.4.1-.6.1-.1 0-.2 0-.2-.1-.1-.1-.1-.1-.1-.2s0-.2.1-.2c-.1-.2 0-.2.1-.2s.3 0 .4-.1c.1 0 .2-.1.3-.2s.2-.2.2-.3.1-.2.1-.4 0-.4.1-.6.2-.4.3-.5.3-.3.5-.3.4-.1.6-.1zm.4 1.5c0 .4-.1.8-.2 1.1-.2.3-.4.7-.6.9-.3.3-.6.5-.9.6-.3.2-.7.2-1.1.2-.1 0-.2 0-.2-.1-.1-.1-.1-.1-.1-.2s0-.2.1-.2c.1-.1.1-.1.2-.1.3 0 .6-.1.9-.2s.5-.3.7-.5.4-.4.5-.7.2-.6.2-.9c0-.1 0-.2.1-.2.1-.1.1-.1.2-.1s.2 0 .2.1c-.1.2 0 .3 0 .3zm-7.8 44.5c-.3 0-.5 0-.8-.1s-.5-.2-.7-.3-.4-.3-.6-.5-.4-.4-.5-.6c0-.1-.1-.1-.1-.2v-.2s0-.1.1-.1l.1-.1h.2c.1 0 .1 0 .2.1.1 0 .1.1.1.1.2.3.5.6.8.8s.7.3 1.1.3.8-.1 1.1-.3.6-.5.8-.8c0-.1.1-.1.1-.1.1 0 .1-.1.2-.1s.2 0 .3.1.1.2.1.3v.2c-.1.1-.1.2-.2.3l-.3.3c-.3.3-.6.5-1 .6-.2.1-.6.3-1 .3zm-.8-3.9v.2c0 .1-.1.1-.1.2-.1.1-.1.1-.2.1h-.4c-.1 0-.1-.1-.2-.1-.1-.1-.1-.1-.1-.2s-.1-.2-.1-.2v-.2c0-.1.1-.1.1-.2.1-.1.1-.1.2-.1s.2-.1.2-.1c.1 0 .2 0 .2.1.1 0 .1.1.2.1s.1.1.1.2c.1.1.1.1.1.2zm1.6 0v-.2c0-.1.1-.1.1-.2.1-.1.1-.1.2-.1s.2-.1.2-.1c.1 0 .2 0 .2.1s.1.1.2.1c.1.1.1.1.1.2v.2c0 .1 0 .2-.1.2 0 .1-.1.1-.1.2-.1.1-.1.1-.2.1h-.4c-.1 0-.1-.1-.2-.1-.1-.1-.1-.1-.1-.2.2 0 .1 0 .1-.2zm7.6-12.1c.3 0 .6.1.8.2.3.1.5.3.7.5s.3.4.4.7.2.5.2.8v1.3H35v-1.3c0-.1 0-.3-.1-.4a.76.76 0 0 0-.2-.4l-.3-.3c-.1-.1-.2-.1-.4-.2 0 .1 0 .3.1.4v2.3c.3.3.5.6.6.9s.2.7.2 1.1-.1.7-.2 1.1c-.1.3-.3.7-.6.9l-.6-.6c.2-.2.3-.4.4-.6s.1-.5.1-.8-.1-.6-.2-.9c-.1.4-.3.9-.6 1.2s-.6.7-.9 1c-.4.3-.8.5-1.2.6s-.9.2-1.4.2-.9-.1-1.4-.2c-.4-.1-.8-.4-1.2-.6-.4-.3-.7-.6-.9-1s-.5-.8-.6-1.2c-.1.3-.2.6-.2.9s0 .5.1.8.2.5.4.6l-.6.6c-.3-.3-.5-.6-.6-.9s-.2-.7-.2-1.1.1-.7.2-1.1c.1-.3.4-.7.6-.9h0v-2.3c0-.1 0-.3.1-.4a.76.76 0 0 0-.4.2l-.3.3c-.1.1-.1.2-.2.4 0 .1-.1.3-.1.4v1.3h-.9v-1.3c0-.3.1-.6.2-.8.1-.3.3-.5.4-.7.2-.2.4-.3.7-.5.3-.1.5-.2.8-.2.1-.3.3-.6.5-.9-.3 0-.5-.1-.7-.3-.2-.1-.4-.3-.6-.5s-.3-.4-.4-.6-.1-.5-.1-.7V99h.9v1.3a.9.9 0 0 0 .1.5 1.38 1.38 0 0 0 .3.4c.1.1.3.2.4.3a.9.9 0 0 0 .5.1h.4c.2-.2.4-.3.6-.4-.1-.1-.1-.3-.2-.4 0-.2-.1-.3-.1-.5 0-.3.1-.6.2-.9l-.9-.9.6-.6.9.9c.2-.2.4-.3.7-.4.2-.1.5-.1.8-.1s.5 0 .8.1c.2.1.5.2.7.4l.9-.9.6.6-.9.9c.1.3.2.6.2.9 0 .2 0 .3-.1.5 0 .2-.1.3-.2.4.1.1.2.1.3.2s.2.1.3.2h.4c.2 0 .3 0 .5-.1s.3-.2.4-.3.2-.3.3-.4c.1-.2.1-.3.1-.5V99H35v1.3c0 .3 0 .5-.1.7s-.2.4-.4.6-.3.3-.6.5c-.2.1-.5.2-.7.3l.5.9zm-.5 1.8c0-.5-.1-.9-.3-1.3s-.4-.8-.7-1.1-.7-.6-1.1-.7a3.08 3.08 0 0 0-1.3-.3c-.5 0-.9.1-1.3.3s-.8.4-1.1.7-.6.7-.7 1.1a3.08 3.08 0 0 0-.3 1.3v1.7c0 .5.1.9.3 1.3s.4.8.7 1.1.7.6 1.1.7a3.08 3.08 0 0 0 1.3.3c.5 0 .9-.1 1.3-.3s.8-.4 1.1-.7.6-.7.7-1.1a3.08 3.08 0 0 0 .3-1.3v-1.7zm-3.4-6c-.2 0-.3 0-.5.1a1.38 1.38 0 0 0-.4.3c-.1.1-.2.3-.3.4-.1.2-.1.3-.1.5s.1.4.2.6c.2 0 .4-.1.6-.1h1.2c.2 0 .4.1.6.1.1-.2.2-.4.2-.6s0-.3-.1-.5a1.38 1.38 0 0 0-.3-.4c-.1-.1-.3-.2-.4-.3-.4-.1-.5-.1-.7-.1zM22 9.8c1-.2 2.1-.3 3.1-.2s2 .2 3 .5 1.9.7 2.9 1.2c.9.5 1.8 1.1 2.6 1.8.3.2.5.5.5.9.1.3 0 .7-.1 1s-.4.5-.7.7l.3 1.4v.5c0 .2-.1.3-.1.4-.1.1-.2.3-.3.4s-.2.2-.4.2c0 .2 0 .3-.1.5-.1.1-.1.3-.2.4l-.3.3h-.5c-.2 0-.5 0-.7-.1s-.4-.2-.6-.4L26.5 25c0 .2 0 .3-.1.5-.1.1-.1.3-.2.4l-.3.3c-.1.1-.3.1-.4.2H25c-.2 0-.3-.1-.5-.2-.1-.1-.3-.2-.4-.4-.1-.1-.2-.3-.2-.5l-2.4-12.6c-.1 0-.2-.1-.3-.2s-.2-.2-.2-.3c-.1-.1-.1-.2-.2-.3 0-.1-.1-.2-.1-.3V11c0-.2.1-.4.2-.6s.3-.3.4-.4c.3 0 .5-.1.7-.2zm10.7 5c.1 0 .3-.1.3-.2.1-.1.1-.3.1-.4s-.1-.2-.2-.3c-.7-.6-1.5-1.2-2.4-1.6-.8-.5-1.7-.8-2.6-1.1s-1.9-.4-2.8-.5c-1-.1-1.9 0-2.9.2-.1 0-.3.1-.3.2-.1.1-.1.3-.1.4s.1.3.2.3c.1.1.3.1.4.1l2.1-.2c.7 0 1.4.1 2.1.2s1.3.3 2 .6l1.9.9 1.8 1.2c.1.2.2.2.4.2zm-1 1.7h.2s.1.1.1.2v.4c0 .1.1.1.1.2 0 0 .1.1.2 0 .1 0 .1 0 .2-.1 0 0 .1-.1 0-.2l-.3-1.4c-.2 0-.3-.1-.4-.1-.1-.1-.2-.1-.4-.2a14.29 14.29 0 0 0-2-1.4c-.7-.4-1.4-.7-2.2-.9-.7-.2-1.5-.4-2.3-.4-.8-.1-1.6 0-2.4.2L24.8 25c0 .1.1.1.1.2.1 0 .1.1.2 0 .1 0 .1 0 .2-.1 0 0 0-.1.1-.1v-.4l5.5-8 .3 1.8c0 .1.1.1.1.2.1 0 .1.1.2 0 .1 0 .1 0 .2-.1 0-.1.1-.1 0-.2l-.3-1.6v-.2c.1.1.2 0 .3 0zm-6.4-.9h-.4a.76.76 0 0 1-.4-.2l-.3-.3c-.1-.1-.1-.2-.2-.4v-.4a.76.76 0 0 1 .2-.4l.3-.3c.1-.1.2-.1.4-.2h.4a.76.76 0 0 1 .4.2l.3.3c.1.1.1.2.2.4v.4c0 .1-.2.3-.2.4l-.3.3c-.1.1-.3.1-.4.2zm.8 4.2h.4a.76.76 0 0 1 .4.2l.3.3c.1.1.1.2.2.4v.4a.76.76 0 0 1-.2.4l-.3.3c-.1.1-.2.1-.4.2h-.4a.76.76 0 0 1-.4-.2l-.3-.3c-.1-.1-.1-.2-.2-.4v-.4a.76.76 0 0 1 .2-.4l.3-.3c.1-.1.2-.1.4-.2zm1.5-3.5h.4a.76.76 0 0 1 .4.2l.3.3c.1.1.1.2.2.4v.4a.76.76 0 0 1-.2.4l-.3.3c-.1.1-.2.1-.4.2h-.4a.76.76 0 0 1-.4-.2c-.1-.1-.2-.3-.3-.4s-.1-.2-.2-.4v-.4a.76.76 0 0 1 .2-.4l.3-.3c.1 0 .2-.1.4-.1z"/><path d="M166.6 14.1a3.08 3.08 0 0 1 1.3.3c.4.2.7.4 1 .7s.5.6.7 1 .3.8.3 1.3a3.08 3.08 0 0 1-.3 1.3c-.2.4-.4.7-.7 1s-.6.5-1 .7-.8.3-1.3.3c-.4 0-.8-.1-1.2-.2-.4-.2-.7-.4-1-.6-.3-.3-.5-.6-.7-.9-.2-.4-.3-.8-.3-1.2l-1.9-.3c-.2.6-.5 1.1-.9 1.6s-.9.8-1.4 1.1l.7 2.2h.2a3.08 3.08 0 0 1 1.3.3c.4.2.7.4 1 .7s.5.6.7 1 .3.8.3 1.3a3.08 3.08 0 0 1-.3 1.3c-.2.4-.4.7-.7 1s-.6.5-1 .7-.8.3-1.3.3a3.08 3.08 0 0 1-1.3-.3c-.4-.2-.7-.4-1-.7s-.5-.6-.7-1-.3-.8-.3-1.3c0-.6.1-1.1.4-1.6s.6-.9 1.1-1.2l-.7-2.2h-.8c-.8 0-1.5-.2-2.2-.5-.7-.4-1.3-.8-1.7-1.5l-2.6 1.3c.1.2.1.5.1.7a3.08 3.08 0 0 1-.3 1.3c-.2.4-.4.7-.7 1s-.6.5-1 .7-.8.3-1.3.3a3.08 3.08 0 0 1-1.3-.3c-.4-.2-.7-.4-1-.7s-.5-.6-.7-1-.3-.8-.3-1.3a3.08 3.08 0 0 1 .3-1.3c.2-.4.4-.7.7-1s.6-.5 1-.7.8-.3 1.3-.3.9.1 1.3.3a4.44 4.44 0 0 1 1.1.8l2.6-1.3c-.1-.5-.2-.9-.2-1.4 0-.6.1-1.2.3-1.7.2-.6.5-1.1.9-1.5l-1.5-1.9a3.08 3.08 0 0 1-1.3.3 3.08 3.08 0 0 1-1.3-.3c-.4-.2-.7-.4-1-.7s-.5-.6-.7-1-.3-.8-.3-1.3a3.08 3.08 0 0 1 .3-1.3c.2-.4.4-.7.7-1s.6-.5 1-.7.8-.3 1.3-.3a3.08 3.08 0 0 1 1.3.3c.4.2.7.4 1 .7s.5.6.7 1 .3.8.3 1.3c0 .7-.2 1.4-.6 1.9l1.5 1.9 1.1-.5c.4-.1.8-.2 1.2-.2.7 0 1.4.1 2 .4l2.1-3.1c-.3-.3-.5-.6-.6-1s-.2-.8-.2-1.2a3.08 3.08 0 0 1 .3-1.3c.2-.4.4-.7.7-1s.6-.5 1-.7.8-.3 1.3-.3a3.08 3.08 0 0 1 1.3.3c.4.2.7.4 1 .7s.5.6.7 1 .3.8.3 1.3a3.08 3.08 0 0 1-.3 1.3c-.2.4-.4.7-.7 1s-.6.5-1 .7-.8.3-1.3.3c-.4 0-.7-.1-1.1-.2l-2.1 3.1c.5.5.9 1 1.1 1.6.3.6.4 1.3.4 1.9l1.9.3c.1-.3.3-.6.5-.8s.4-.4.7-.6.5-.3.8-.4c.4.2.7 0 1 0zm-19.5 8.2c.2 0 .4 0 .6-.1s.4-.2.5-.3.3-.3.3-.5c.1-.2.1-.4.1-.6s0-.4-.1-.6-.2-.4-.3-.5-.3-.3-.5-.3c-.2-.1-.4-.1-.6-.1s-.4 0-.6.1-.4.2-.5.3-.3.3-.3.5c-.1.2-.1.4-.1.6s0 .4.1.6.2.4.3.5.3.3.5.3c.2.1.4.1.6.1zm1.6-14.6c0 .2 0 .4.1.6s.2.4.3.5.3.3.5.3c.2.1.4.1.6.1s.4 0 .6-.1.4-.2.5-.3.3-.3.3-.5c.1-.2.1-.4.1-.6s0-.4-.1-.6-.2-.4-.3-.5-.3-.3-.5-.3c-.2-.1-.4-.1-.6-.1s-.4 0-.6.1-.4.2-.5.3-.3.3-.3.5-.1.4-.1.6zm8.2 11.3a3.08 3.08 0 0 0 1.3-.3c.4-.2.7-.4 1-.7s.5-.6.7-1 .3-.8.3-1.3a3.08 3.08 0 0 0-.3-1.3c-.2-.4-.4-.7-.7-1s-.6-.5-1-.7-.8-.3-1.3-.3a3.08 3.08 0 0 0-1.3.3c-.4.2-.7.4-1 .7s-.5.6-.7 1-.3.8-.3 1.3a3.08 3.08 0 0 0 .3 1.3c.2.4.4.7.7 1s.6.5 1 .7c.4.3.8.3 1.3.3zm4.8 6.5c0-.2 0-.4-.1-.6s-.2-.4-.3-.5-.3-.3-.5-.3c-.2-.1-.4-.1-.6-.1s-.4 0-.6.1-.4.2-.5.3-.3.3-.3.5-.1.4-.1.6 0 .4.1.6.2.4.3.5.3.3.5.3c.2.1.4.1.6.1s.4 0 .6-.1.4-.2.5-.3.3-.3.3-.5c.1-.1.1-.3.1-.6zm1.7-21c-.2 0-.4 0-.6.1s-.4.2-.5.3-.3.3-.3.5c-.1.2-.1.4-.1.6s0 .4.1.6.2.4.3.5.3.3.5.3c.2.1.4.1.6.1s.4 0 .6-.1.4-.2.5-.3.3-.3.3-.5c.1-.2.1-.4.1-.6s0-.4-.1-.6-.2-.4-.3-.5-.3-.3-.5-.3c-.2-.1-.4-.1-.6-.1zm3.2 14.5c.2 0 .4 0 .6-.1s.4-.2.5-.3.3-.3.3-.5c.1-.2.1-.4.1-.6s0-.4-.1-.6-.2-.4-.3-.5-.3-.3-.5-.3c-.2-.1-.4-.1-.6-.1s-.4 0-.6.1-.4.2-.5.3-.3.3-.3.5c-.1.2-.1.4-.1.6s0 .4.1.6.2.4.3.5.3.3.5.3c.2.1.4.1.6.1zm-61.9 80.2c.2.6.2 1.3.2 1.9 0 .7-.1 1.3-.3 2l-.7 1.8c-.3.5-.7 1-1.2 1.5s-1 .8-1.5 1.2c-.5.3-1.1.6-1.8.7-.6.2-1.3.3-2 .3s-1.3-.1-2-.3l-1.8-.7c-.5-.3-1-.7-1.5-1.2s-.8-1-1.2-1.5-.6-1.1-.7-1.8-.3-1.3-.3-2 .1-1.3.3-2 .4-1.2.7-1.8c.3-.5.7-1 1.2-1.5s1-.8 1.5-1.2c.5-.3 1.1-.6 1.8-.7.6-.2 1.3-.3 2-.3.6 0 1.3.1 1.9.2l-.8.8v.1c-.2 0-.4 0-.5-.1s-.4 0-.5 0c-.6 0-1.1.1-1.7.2l-1.5.6a6.42 6.42 0 0 0-2.3 2.3c-.3.5-.5 1-.6 1.5s-.2 1.1-.2 1.7.1 1.1.2 1.7.4 1 .6 1.5a6.42 6.42 0 0 0 2.3 2.3c.5.3 1 .5 1.5.6.5.2 1.1.2 1.7.2s1.1-.1 1.7-.2l1.5-.6a6.42 6.42 0 0 0 2.3-2.3c.3-.5.5-1 .6-1.5.2-.5.2-1.1.2-1.7v-.5c0-.2 0-.4-.1-.5h.1l.9-.7zm-7.1-1.3a4.3 4.3 0 0 0-1.2.2c-.3.1-.7.4-1 .7s-.5.6-.7 1-.2.8-.2 1.2a4.3 4.3 0 0 0 .2 1.2c.2.4.4.7.7 1s.6.5 1 .7.8.2 1.2.2.8-.1 1.2-.2c.4-.2.7-.4 1-.7s.5-.6.7-1 .2-.8.2-1.2-.1-.7-.2-1.1h1.1c0 .2.1.4.1.5v.5c0 .6-.1 1.1-.3 1.6s-.5 1-.9 1.3c-.4.4-.8.7-1.3.9a4.53 4.53 0 0 1-1.6.3 4.53 4.53 0 0 1-1.6-.3c-.5-.2-1-.5-1.3-.9s-.7-.8-.9-1.3a4.53 4.53 0 0 1-.3-1.6c0-.6.1-1.1.3-1.6s.5-1 .9-1.3c.4-.4.8-.7 1.3-.9a4.53 4.53 0 0 1 1.6-.3h.5c.1 0 .4.1.5.1V98c-.3-.1-.7-.1-1-.1zm2.1.4v-2.4l3.2-3.2v3.1h3.1l-3.2 3.2h-2.4l-1.8 1.8v.3c0 .1 0 .3-.1.4s-.1.2-.2.3-.2.2-.3.2-.3.1-.4.1-.3 0-.4-.1-.2-.1-.3-.2-.2-.2-.2-.3c-.1-.1-.1-.3-.1-.4s0-.3.1-.4.1-.2.2-.3.2-.2.3-.2c.1-.1.3-.1.4-.1h.3l1.8-1.8zm1.1-.4h1.6l1.1-1.1h-1.6v-1.6l-1.1 1.1v1.6zm13.4-42.6c.2 0 .4.1.6.2s.3.3.4.4l1.2 1.8a4.49 4.49 0 0 1 .7 1.8c.1.6.1 1.3 0 1.9s-.4 1.2-.7 1.7c-.4.5-.8 1-1.4 1.4l-.6.4c-.2.1-.4.2-.5.2h-.6c-.2 0-.4 0-.6-.1-.2 0-.4-.1-.6-.1h-.5c-.2 0-.3.1-.5.2-.1.1-.2.2-.3.4-.1.1-.2.3-.2.5-.1.2-.1.4-.2.5-.1.2-.1.4-.2.6s-.2.3-.3.5a.78.78 0 0 1-.4.4l-.6.4a4.49 4.49 0 0 1-1.8.7c-.6.1-1.3.1-1.9 0s-1.2-.4-1.7-.7c-.5-.4-1-.8-1.4-1.4l-1.2-1.8c-.1-.2-.2-.4-.2-.6V64c.1-.3.2-.5.3-.7.2-.3.4-.6.7-.8l.9-.9c.3-.3.7-.6 1-.9.4-.3.7-.6 1.1-.8l1-.7 1.8-1.2 1.1-.7c.4-.2.8-.4 1.2-.7l1.2-.6c.4-.2.8-.3 1.2-.5l1.1-.3c.4 0 .6 0 .9.1zm.1 1.1c-.1-.1-.2-.2-.3-.2-.2 0-.5 0-.9.1s-.8.2-1.2.4l-1.3.6c-.5.2-.9.5-1.3.7s-.8.5-1.1.7l-.8.5c-.1.1-.3.2-.5.4s-.5.3-.7.5l-.9.6c-.3.2-.6.5-.9.7s-.6.5-.9.7-.5.5-.8.7c-.2.2-.4.5-.6.7s-.2.4-.3.6c0 .1 0 .3.1.4l1.2 1.8c.3.5.7.8 1.1 1.1s.9.5 1.4.6 1 .1 1.5 0 1-.3 1.4-.6l.6-.4c.1-.1.2-.2.2-.3.1-.1.1-.3.2-.4 0-.2.1-.3.2-.5s.1-.4.2-.6.2-.4.3-.5c.1-.2.3-.3.5-.5l.6-.3c.2 0 .4-.1.6-.1h.6c.2 0 .4.1.6.1h.5c.1 0 .3 0 .3-.1l.6-.4c.4-.3.8-.6 1.1-1.1.3-.4.5-.9.6-1.4s.1-1 0-1.5-.3-1-.6-1.4l-1.3-1.6zm-5.9 3.5c.1-.1.3-.1.4-.1s.3.1.3.2c.1.1.1.3.1.4s-.1.3-.2.3l-.9.6c-.1.1-.3.1-.4.1s-.3-.1-.3-.2c-.1-.1-.1-.3-.1-.4s.1-.3.2-.3l.9-.6z"/></svg>