<svg xmlns="http://www.w3.org/2000/svg" viewBox="0 0 106.8 122"><style><![CDATA[.G{enable-background:new}.H{opacity:.2}.I{opacity:.1}.J{opacity:.25}]]></style><path d="M53.5 2.2l51.1 29.5v59l-51.1 29.5L2.4 90.7v-59z" fill="#cd1f40"/><g fill="#fff"><path d="M27.9 75.9V46.4l25.6 14.8z" opacity=".3" class="G"/><path d="M27.9 46.4l25.6-14.7v29.5z" class="G H"/><path d="M79 16.9L53.5 2.2v29.5z" opacity=".3" class="G"/><path d="M104.6 31.7L79 16.9v29.5z" class="G J"/><path d="M104.6 61.2V31.7L79 46.4z" class="G I"/><path d="M27.9 16.9v29.5l25.6-14.7z" opacity=".3" class="G"/><path d="M53.5 2.2L27.9 16.9l25.6 14.8z" class="G J"/><path d="M2.4 31.7v29.5l25.5-14.8z" class="G H"/><path d="M27.9 16.9L2.4 31.7l25.5 14.7z" class="G J"/><path d="M2.4 61.2v29.5l25.5-14.8z" class="G H"/><path d="M27.9 46.4L2.4 61.2l25.5 14.7z" class="G I"/><path d="M27.9 75.9L2.4 90.7l25.5 14.7z" class="G I"/><path d="M53.5 120.2L79 105.4 53.5 90.7z" class="G H"/><path d="M53.5 90.7l-25.6 14.7 25.6 14.8z" class="G I"/><path d="M104.6 61.2L79 46.4v29.5z" class="G J"/><path d="M104.6 90.7V61.2L79 75.9z" class="G H"/><path d="M79 105.4l25.6-14.7L79 75.9z" class="G I"/><path d="M79 46.4L53.5 61.2 79 75.9z" class="G I"/><path d="M79 75.9L53.5 90.7 79 105.4z" class="G J"/><path d="M53.5 90.7L27.9 75.9l25.6-14.7z" class="G I"/><path d="M53.5 31.7l25.6 14.7-25.6 14.8z" opacity=".3" class="G"/><path d="M53.5 61.2l25.6 14.7-25.6 14.8zm25.6-14.7L53.5 31.7l25.6-14.8z" class="G H"/><path d="M27.9 105.4l25.6-14.7-25.6-14.8z" class="G H"/><path d="M62.8 40.6l12.7-7.4v14.7z"/><path d="M88.2 40.6v14.7l-12.7-7.4z"/><path d="M75.5 33.2l12.7 7.4-12.7 7.3zM62.8 55.3l12.7 7.3L62.8 70z"/><path d="M88.2 55.3l-12.7-7.4v14.7z"/><path d="M75.5 77.3L88.2 70l-12.7-7.4z"/><path d="M75.5 47.9l-12.7 7.4 12.7 7.3z"/><path d="M75.5 62.6L62.8 70l12.7 7.3zm0-29.4l-12.7-7.3v14.7z"/><path d="M75.5 77.2l12.7-7.3v14.7zM44.2 40.5l-12.7-7.3v14.7z"/><path d="M18.8 40.5v14.7l12.7-7.3z"/><path d="M31.5 33.2l-12.7 7.3 12.7 7.4zm12.7 22l-12.7 7.4 12.7 7.3z"/><path d="M18.7 55.2l12.8-7.3v14.7z"/><path d="M31.5 77.3l-12.8-7.4 12.8-7.3z"/><path d="M31.5 47.9l12.7 7.3-12.7 7.4z"/><path d="M31.5 62.6l12.7 7.3-12.7 7.4zm0-29.4l12.7-7.4v14.7z"/><path d="M31.5 77.2l-12.7-7.4v14.7zm12.9 9.3l-3.2-1.8v3.7z"/><path d="M38.1 86.5v3.7l3.1-1.8z"/><path d="M41.2 84.7l-3.1 1.8 3.1 1.9zm3.2 5.5L41.2 92l3.2 1.9z"/><path d="M38.1 90.2l3.1-1.8V92z"/><path d="M41.2 95.7l-3.1-1.8 3.1-1.9z"/><path d="M38.1 90.2l3.1 1.8-3.1 1.9z"/><path d="M41.2 92l3.2 1.9-3.2 1.8z"/><path d="M38.1 93.9v3.7l3.1-1.9z"/><path d="M38.1 97.6l3.1-1.9v3.7z"/><path d="M38.1 97.6l3.1 1.8-3.1 1.8zm3.1-12.9l3.2-1.9v3.7zm.1 11l-3.2-1.8v3.6zm12.2-14.6l-2.8-1.7v3.3z"/><path d="M47.9 81.1v3.2l2.8-1.6z"/><path d="M50.7 79.4l-2.8 1.7 2.8 1.6zm0 9.8l-2.8 1.6 2.8 1.6z"/><path d="M47.9 84.3l2.8-1.6v3.2z"/><path d="M50.7 89.2l-2.8-1.6 2.8-1.7z"/><path d="M47.9 84.3l2.8 1.6-2.8 1.7zm2.8-4.9l2.8-1.6v3.3z"/><path d="M50.7 89.2l-2.8-1.7v3.3zm2.8-8.1l2.8-1.7v3.3z"/><path d="M59.1 81.1v3.2l-2.8-1.6z"/><path d="M56.3 79.4l2.8 1.7-2.8 1.6zm0 9.8l2.8 1.6-2.8 1.6z"/><path d="M59.1 84.3l-2.8-1.6v3.2z"/><path d="M56.3 89.2l2.8-1.6-2.8-1.7z"/><path d="M59.1 84.3l-2.8 1.6 2.8 1.7zm-2.8-4.9l-2.8-1.6v3.3z"/><path d="M56.3 89.2l2.8-1.6v3.2zM53.5 94l2.8-1.6-2.8-1.6z"/><path d="M53.5 94l-2.8-1.6 2.8-1.6z"/><path d="M50.7 92.4l2.8-1.6-2.8-1.6z"/><path d="M56.3 92.4l-2.8-1.6 2.8-1.6zm9.7-8.1l-3.1-1.8V86z"/><path d="M62.9 86v3.5l3.1-1.8z"/><path d="M66 84.3L62.9 86l3.1 1.7z"/><path d="M62.9 89.5l3.1-1.8v3.5z"/><path d="M66 94.7l-3.1-1.8 3.1-1.7z"/><path d="M62.9 89.5l3.1 1.7-3.1 1.7z"/><path d="M62.9 92.9v3.5l3.1-1.7z"/><path d="M62.9 96.4l3.1-1.7v3.4z"/><path d="M66 96.4l-3.1 1.7 3.1 1.7z"/><path d="M62.9 94.7v3.4l3.1-1.7z"/></g></svg>