<svg id="b9580063-f3e9-4e65-ad7d-576a2669aa2d" xmlns="http://www.w3.org/2000/svg" viewBox="0 0 300 140"><defs><style>.ad409167-9dc9-4bdd-b628-ae4b706d545c{fill:#2ca6de;}.b5c333bf-2676-43a1-b1e4-673a46607fd3{fill:#f05c22;}.a9015743-e915-404a-a301-e1d74f9d9ca6{fill:#a8ce38;}.f5b702ea-f9a5-488a-a7e9-e1538136b4dd{fill:#0e4e95;}</style></defs><title>card-stemgames</title><path class="ad409167-9dc9-4bdd-b628-ae4b706d545c" d="M161.53,88.74a16.06,16.06,0,1,1,20.59,9.58,16,16,0,0,1-20.59-9.58"/><path class="b5c333bf-2676-43a1-b1e4-673a46607fd3" d="M171.9,39.1a10.67,10.67,0,1,1,13.67,6.39A10.67,10.67,0,0,1,171.9,39.1"/><path class="ad409167-9dc9-4bdd-b628-ae4b706d545c" d="M198.44,83.56a8,8,0,1,1,10.28,4.79,8,8,0,0,1-10.28-4.79"/><path class="a9015743-e915-404a-a301-e1d74f9d9ca6" d="M121.77,68.49a13.17,13.17,0,1,1,18.62,0,13.16,13.16,0,0,1-18.62,0"/><path class="b5c333bf-2676-43a1-b1e4-673a46607fd3" d="M131.84,32.26a10.73,10.73,0,1,1,15.18,0,10.73,10.73,0,0,1-15.18,0"/><path class="b5c333bf-2676-43a1-b1e4-673a46607fd3" d="M122.29,88.53a16,16,0,1,1,17.08-14.77,16,16,0,0,1-17.08,14.77"/><path class="a9015743-e915-404a-a301-e1d74f9d9ca6" d="M114.31,120.63a13.31,13.31,0,1,1,14.24-12.31,13.31,13.31,0,0,1-14.24,12.31"/><path class="a9015743-e915-404a-a301-e1d74f9d9ca6" d="M93.46,62.19a8,8,0,1,1,8.61-7.44,8.06,8.06,0,0,1-8.61,7.44"/><path class="f5b702ea-f9a5-488a-a7e9-e1538136b4dd" d="M124.21,121.56A8,8,0,1,1,135,125.15a8,8,0,0,1-10.78-3.59"/><path class="ad409167-9dc9-4bdd-b628-ae4b706d545c" d="M177.51,121.6a8,8,0,1,1,10.77,3.6,8,8,0,0,1-10.77-3.6"/><path class="a9015743-e915-404a-a301-e1d74f9d9ca6" d="M148.74,104.47a16,16,0,1,1,17.17-14.84,16.05,16.05,0,0,1-17.17,14.84"/><path class="f5b702ea-f9a5-488a-a7e9-e1538136b4dd" d="M146,102.5a13.41,13.41,0,1,1,18,6,13.4,13.4,0,0,1-18-6"/><path class="b5c333bf-2676-43a1-b1e4-673a46607fd3" d="M144.12,62.69a16,16,0,1,1,22.63,0,16,16,0,0,1-22.63,0"/><path class="f5b702ea-f9a5-488a-a7e9-e1538136b4dd" d="M129.51,70.63a13.64,13.64,0,1,1,18.3,6.09,13.6,13.6,0,0,1-18.3-6.09"/><path class="ad409167-9dc9-4bdd-b628-ae4b706d545c" d="M177.51,64a13.32,13.32,0,1,1,17.07,8,13.37,13.37,0,0,1-17.07-8"/><path class="f5b702ea-f9a5-488a-a7e9-e1538136b4dd" d="M151.49,79.77A16.08,16.08,0,1,1,173.07,87a16,16,0,0,1-21.58-7.19"/><path class="f5b702ea-f9a5-488a-a7e9-e1538136b4dd" d="M119,93.41a10.94,10.94,0,0,1,4.75-14.53A10.51,10.51,0,0,1,138,83.73a10.94,10.94,0,0,1-4.75,14.53A10.51,10.51,0,0,1,119,93.41"/></svg>