<svg xmlns="http://www.w3.org/2000/svg" viewBox="0 0 120.1 119.3"><linearGradient id="A" gradientUnits="userSpaceOnUse" x1="-1.964" y1="40.855" x2="132.876" y2="81.275"><stop offset="0" stop-color="#27c2f1"/><stop offset="1" stop-color="#164e67"/></linearGradient><circle cx="60.5" cy="59.6" r="57" fill="url(#A)"/><linearGradient id="B" gradientUnits="userSpaceOnUse" x1="24.557" y1="45.151" x2="120.477" y2="83.651"><stop offset="0" stop-color="#164e67"/><stop offset="1" stop-color="#163847"/></linearGradient><circle cx="60.5" cy="59.6" r="53.2" fill="url(#B)"/><linearGradient id="C" gradientUnits="userSpaceOnUse" x1="27.018" y1="76.809" x2="87.418" y2="83.609"><stop offset="0" stop-color="#27c2f1"/><stop offset="1" stop-color="#164e67"/></linearGradient><path d="M64.3 51.5c5.2-2.8 11.1-4.3 17-4.3-13.5-4-28.1-.4-38.3 9.3-5.3 4.9-9.4 11-11.9 17.9-3 7.3-3.9 15.2-2.6 23 .6 3.8 1.8 7.5 3.4 11a57.31 57.31 0 0 0 29.4 8.1c2.5 0 5-.2 7.5-.5-13.5-4.5-22.8-17-23.2-31.3C45 70.9 52.2 58 64.3 51.5z" fill="url(#C)"/><linearGradient id="D" gradientUnits="userSpaceOnUse" x1="44.715" y1="81.679" x2="107.716" y2="81.679"><stop offset="0" stop-color="#27c2f1"/><stop offset="1" stop-color="#164e67"/></linearGradient><path d="M107.7 91.6l-.8-.1c-7.2-.6-10.9-.9-14.5-2.5-8.8-4-12.6-12.3-13.6-14.5-1.8-4-2.7-8.4-2.6-12.8.3-5.2 2.1-10.2 5.1-14.5-4-.1-8.1.4-11.9 1.7a36.13 36.13 0 0 0-11.9 6.8c-4.4 3.7-7.9 8.3-10.2 13.6-5.9 14.2.1 27.4.9 28.9 2.2 4.6 5.4 8.7 9.4 11.9 2.6 2 5.5 3.8 8.5 5.1.5.2 1.1.5 1.7.8 16.2-2 30.7-10.9 39.9-24.4z" fill="url(#D)"/></svg>