<svg id="ff401e1b-3723-4571-8418-17e74ba04f57" xmlns="http://www.w3.org/2000/svg" viewBox="0 0 300 140"><defs><style>.a5a9f297-4657-464d-b8ca-8bc7a02f7119{fill:#f94f79;}.eab66640-f0fb-405c-8f9d-3b26945021bb{fill:#b5c1c6;}.bf10df07-d111-465c-82ef-55192c6de2dd{fill:#c3d1d8;}</style></defs><title>card-doseofsharks</title><polygon class="a5a9f297-4657-464d-b8ca-8bc7a02f7119" points="199.17 100.14 196.31 68.76 169.01 56.67 127.01 76.63 165.68 111.14 199.17 100.14"/><path class="eab66640-f0fb-405c-8f9d-3b26945021bb" d="M172.75,47.73s-10.2-21.2-29.22-29.21V47.73"/><path class="bf10df07-d111-465c-82ef-55192c6de2dd" d="M213.68,65.76l-50.91,8.79,1.28,13.59a10.39,10.39,0,0,0,9.23,9.35l32.12,3.43-.38,1.59-2.38,10.1-44.57,8.63a13.31,13.31,0,0,1-12-3.72l-11.89-12L125,96.18,104.5,75.38,82.08,96.17l13.26-34.1L82.08,29.64l24.08,18.09H217.92Z"/><path class="eab66640-f0fb-405c-8f9d-3b26945021bb" d="M205,102.51l-2.38,10.1-44.57,8.63a13.31,13.31,0,0,1-12-3.72l-11.89-12L125,96.18,104.5,75.38,82.08,96.17l13.26-34.1L82.08,29.64l24.08,18.09S125.35,93.67,154,106.15C175.23,115.37,195.75,107.33,205,102.51Z"/><path class="eab66640-f0fb-405c-8f9d-3b26945021bb" d="M129.5,89.93l-13.72,19.13s19.75-1.46,26.2-7.9"/><path d="M184.9,62.77a2.09,2.09,0,0,0,1.77-3.18l-1.74-2.78A2.08,2.08,0,1,0,181.41,59l1.73,2.77A2.07,2.07,0,0,0,184.9,62.77Z"/><path d="M198.11,62.77a2.09,2.09,0,0,0,1.77-1L201.61,59a2.08,2.08,0,1,0-3.53-2.21l-1.73,2.78a2.08,2.08,0,0,0,.66,2.86A2.15,2.15,0,0,0,198.11,62.77Z"/><path d="M219.55,46.44a2.08,2.08,0,0,0-1.63-.78H174a78.33,78.33,0,0,0-9.26-13.44,2.08,2.08,0,1,0-3.16,2.7,74.73,74.73,0,0,1,7.64,10.74H145.61V21.79a49.68,49.68,0,0,1,11.18,8.07,2.08,2.08,0,0,0,2.85-3,51.72,51.72,0,0,0-15.3-10.23,2.08,2.08,0,0,0-2.88,1.92V45.66H122.85a2.08,2.08,0,1,0,0,4.15H215.3L212,63.94,162.42,72.5a2.08,2.08,0,0,0-1.72,2.24L162,88.34a12.5,12.5,0,0,0,11.08,11.21l29.77,3.18-1.9,8.1-23.65,4.57a2.08,2.08,0,0,0,.39,4.12l.4,0,25-4.84a2.08,2.08,0,0,0,1.63-1.56l2.75-11.7a2.08,2.08,0,0,0-1.8-2.54l-4.52-.48-2.54-27.89,3.33-.58,0,3.38a2.07,2.07,0,0,0,2,2.1h0A2.09,2.09,0,0,0,206,73.32l0-4.14,8-1.37a2.09,2.09,0,0,0,1.67-1.58l4.25-18A2.09,2.09,0,0,0,219.55,46.44ZM196.88,97.91l-3.21-.34.55-4.33a2.08,2.08,0,0,0-4.13-.52l-.55,4.41-5.84-.62.4-3.28a2.08,2.08,0,0,0-4.13-.5l-.4,3.34-4.36-.47,0-3.57a2.08,2.08,0,0,0-2.06-2.1h0A2.08,2.08,0,0,0,171.09,92l0,2.78A8.34,8.34,0,0,1,166.12,88L165,76.27l3.48-.6.52,4.52A2.08,2.08,0,0,0,171.08,82h.24a2.08,2.08,0,0,0,1.83-2.3L172.61,75l4.64-.8.65,4.43a2.08,2.08,0,0,0,2,1.78l.3,0A2.08,2.08,0,0,0,182,78l-.66-4.54L188,72.31l.3,4.72a2.07,2.07,0,0,0,2.07,2h.13a2.08,2.08,0,0,0,2-2.21l-.33-5.18,2.35-.4Z"/><path d="M171,116.63l-13.27,2.56a11.17,11.17,0,0,1-10.13-3.14l-9.69-9.82a18.65,18.65,0,0,0,5.59-3.6,2.08,2.08,0,0,0-2.94-2.94c-2.34,2.34-7.33,4.34-14.42,5.79-2.15.44-4.19.76-5.9,1l11-15.34a2.08,2.08,0,1,0-3.38-2.42l-3,4.25L106,73.92a2.08,2.08,0,0,0-2.9-.06L87.3,88.5l10-25.68a2.05,2.05,0,0,0,0-1.54L86.86,35.83l18,13.57a2.08,2.08,0,0,0,1.25.41h9.76a2.08,2.08,0,1,0,0-4.15h-9.07L83.33,28a2.08,2.08,0,0,0-3.17,2.45l13,31.66-13,33.33a2.08,2.08,0,0,0,3.35,2.28l20.94-19.42L122.31,96.4l-8.22,11.45a2.08,2.08,0,0,0,1.69,3.29h.15a87.4,87.4,0,0,0,17.67-3.29l11,11.13a15.32,15.32,0,0,0,10.94,4.59,15.48,15.48,0,0,0,2.94-.28l13.27-2.57a2.08,2.08,0,1,0-.79-4.08Z"/><path d="M153.84,57.81a2.08,2.08,0,0,0-2.94,0,14.35,14.35,0,0,0,0,20.29,2.11,2.11,0,0,0,1.47.61,2.08,2.08,0,0,0,1.47-3.55,10.2,10.2,0,0,1,0-14.41A2.06,2.06,0,0,0,153.84,57.81Z"/><path d="M143.86,57.81a2.08,2.08,0,0,0-2.94,0,14.37,14.37,0,0,0,0,20.29,2.11,2.11,0,0,0,1.47.61,2.08,2.08,0,0,0,1.47-3.55,10.21,10.21,0,0,1,0-14.41A2.06,2.06,0,0,0,143.86,57.81Z"/></svg>