<?xml version="1.0" encoding="utf-8"?>
<!-- Generator: Adobe Illustrator 24.1.1, SVG Export Plug-In . SVG Version: 6.00 Build 0)  -->
<svg version="1.1" id="ff401e1b-3723-4571-8418-17e74ba04f57"
	 xmlns="http://www.w3.org/2000/svg" xmlns:xlink="http://www.w3.org/1999/xlink" x="0px" y="0px" viewBox="0 0 141.6 108.7"
	 style="enable-background:new 0 0 141.6 108.7;" xml:space="preserve">
<style type="text/css">
	.st0{fill:#F94F79;}
	.st1{fill:#B5C1C6;}
	.st2{fill:#C3D1D8;}
</style>
<polygon class="st0" points="120,84.5 117.1,53.1 89.8,41 47.8,60.9 86.5,95.5 "/>
<path class="st1" d="M93.5,32c0,0-10.2-21.2-29.2-29.2V32"/>
<path class="st2" d="M134.5,50.1l-50.9,8.8l1.3,13.6c0.5,4.9,4.3,8.8,9.2,9.3l32.1,3.4l-0.4,1.6l-2.4,10.1l-44.6,8.6
	c-4.4,0.8-8.9-0.6-12-3.7L55,89.8l-9.2-9.3L25.3,59.7L2.9,80.5l13.3-34.1L2.9,14L26.9,32h111.8L134.5,50.1z"/>
<path class="st1" d="M125.8,86.8l-2.4,10.1l-44.6,8.6c-4.4,0.8-8.9-0.6-12-3.7l-11.9-12l-9.2-9.3L25.3,59.7L2.9,80.5l13.3-34.1
	L2.9,14L26.9,32c0,0,19.2,45.9,47.8,58.4C96,99.7,116.5,91.6,125.8,86.8z"/>
<path class="st1" d="M50.3,74.2L36.6,93.4c0,0,19.8-1.5,26.2-7.9"/>
<path d="M105.7,47.1c1.2,0,2.1-0.9,2.1-2.1c0-0.4-0.1-0.8-0.3-1.1l-1.7-2.8c-0.5-1-1.8-1.4-2.8-0.9c-1,0.5-1.4,1.8-0.9,2.8
	c0.1,0.1,0.1,0.2,0.2,0.3l1.7,2.8C104.3,46.7,105,47.1,105.7,47.1z"/>
<path d="M118.9,47.1c0.7,0,1.4-0.4,1.8-1l1.7-2.8c0.6-1,0.3-2.3-0.7-2.9c-1-0.6-2.3-0.3-2.9,0.7l0,0l-1.7,2.8
	c-0.6,1-0.3,2.3,0.7,2.9C118.1,47,118.5,47.1,118.9,47.1z"/>
<path d="M140.3,30.8c-0.4-0.5-1-0.8-1.6-0.8H94.8c-2.6-4.8-5.7-9.3-9.3-13.4c-0.7-0.9-2-1.1-2.9-0.4c-0.9,0.7-1.1,2-0.4,2.9
	c0,0,0.1,0.1,0.1,0.1c2.9,3.3,5.4,6.9,7.6,10.7H66.4V6.1c4.1,2.2,7.8,4.9,11.2,8.1c0.9,0.7,2.2,0.5,2.9-0.4c0.6-0.8,0.6-1.9-0.1-2.6
	C76,6.9,70.8,3.4,65.1,0.9c-1.1-0.4-2.3,0.1-2.7,1.1c-0.1,0.3-0.2,0.5-0.2,0.8V30H43.6c-1.1-0.1-2.1,0.8-2.2,1.9
	c-0.1,1.1,0.8,2.1,1.9,2.2c0.1,0,0.2,0,0.3,0h92.5l-3.3,14.1l-49.6,8.6c-1.1,0.2-1.8,1.2-1.7,2.2l1.3,13.6
	c0.6,5.9,5.2,10.6,11.1,11.2l29.8,3.2l-1.9,8.1l-23.6,4.6c-1.1,0.2-1.9,1.3-1.6,2.4c0.2,1,1,1.7,2,1.7h0.4l25-4.8
	c0.8-0.2,1.4-0.8,1.6-1.6l2.8-11.7c0.3-1.1-0.4-2.2-1.6-2.5c-0.1,0-0.2,0-0.2,0l-4.5-0.5l-2.5-27.9l3.3-0.6v3.4c0,1.1,0.9,2.1,2,2.1
	l0,0c1.1,0,2.1-0.9,2.1-2.1v-4.1l8-1.4c0.8-0.1,1.5-0.8,1.7-1.6l4.3-18C140.9,31.9,140.7,31.3,140.3,30.8z M117.7,82.2l-3.2-0.3
	l0.6-4.3c0.1-1.1-0.7-2.2-1.8-2.3c-1.1-0.1-2.2,0.7-2.3,1.8l-0.6,4.4l-5.8-0.6l0.4-3.3c0.1-1.1-0.7-2.2-1.8-2.3s-2.2,0.7-2.3,1.8
	l0,0l-0.4,3.3L96,79.9v-3.6c0-1.1-0.9-2.1-2.1-2.1c0,0,0,0,0,0l0,0c-1.1,0-2.1,0.9-2.1,2.1v2.8c-2.8-1.2-4.7-3.8-5-6.8l-1.1-11.7
	l3.5-0.6l0.5,4.5c0.1,1,1,1.8,2.1,1.8h0.2c1.1-0.1,2-1.2,1.8-2.3l-0.5-4.7l4.6-0.8l0.6,4.4c0.1,1,1,1.8,2,1.8h0.3
	c1.1-0.1,2-1.2,1.8-2.3c0,0,0-0.1,0-0.1l-0.7-4.5l6.7-1.2l0.3,4.7c0,1.1,1,2,2.1,2h0.1c1.1,0,2-1,2-2.2c0,0,0,0,0-0.1L113,56
	l2.4-0.4L117.7,82.2z"/>
<path d="M91.8,100.9l-13.3,2.6c-3.7,0.7-7.5-0.5-10.1-3.1l-9.7-9.8c2.1-0.9,4-2.1,5.6-3.6c0.8-0.8,0.7-2.2-0.1-2.9
	c-0.8-0.7-2-0.7-2.8,0c-2.3,2.3-7.3,4.3-14.4,5.8c-2.2,0.4-4.2,0.8-5.9,1l11-15.3c0.7-0.9,0.5-2.2-0.4-2.9c-0.9-0.7-2.2-0.5-2.9,0.4
	c0,0-0.1,0.1-0.1,0.1l-3,4.3l-18.9-19c-0.8-0.8-2.1-0.8-2.9-0.1L8.1,72.8l10-25.7c0.2-0.5,0.2-1,0-1.5L7.6,20.1l18,13.6
	c0.4,0.3,0.8,0.4,1.3,0.4h9.8c1.1,0.1,2.1-0.8,2.2-1.9c0.1-1.1-0.8-2.1-1.9-2.2c-0.1,0-0.2,0-0.3,0h-9.1L4.1,12.3
	c-0.9-0.7-2.2-0.5-2.9,0.4c-0.4,0.6-0.5,1.4-0.3,2l13,31.7l-13,33.3c-0.4,1.1,0.1,2.3,1.2,2.7c0.7,0.3,1.6,0.1,2.2-0.4l20.9-19.4
	l17.9,18.1l-8.2,11.4c-0.7,0.9-0.5,2.2,0.5,2.9c0.4,0.3,0.8,0.4,1.2,0.4h0.2c6-0.5,11.9-1.6,17.7-3.3l11,11.1
	c2.9,2.9,6.8,4.6,10.9,4.6c1,0,2-0.1,2.9-0.3l13.3-2.6c1.1-0.2,1.9-1.2,1.8-2.4c-0.2-1.1-1.2-1.9-2.4-1.8
	C91.9,100.9,91.8,100.9,91.8,100.9L91.8,100.9z"/>
<path d="M74.6,42.1c-0.8-0.8-2.1-0.8-2.9,0c-5.6,5.6-5.6,14.7,0,20.3c0.4,0.4,0.9,0.6,1.5,0.6c1.1,0,2.1-0.9,2.1-2.1
	c0-0.6-0.2-1.1-0.6-1.5c-4-4-4-10.4,0-14.4C75.4,44.3,75.4,43,74.6,42.1C74.6,42.1,74.6,42.1,74.6,42.1z"/>
<path d="M64.6,42.1c-0.8-0.8-2.1-0.8-2.9,0c-5.6,5.6-5.6,14.7,0,20.3c0.4,0.4,0.9,0.6,1.5,0.6c1.1,0,2.1-0.9,2.1-2.1
	c0-0.6-0.2-1.1-0.6-1.5c-4-4-4-10.4,0-14.4C65.5,44.3,65.5,43,64.6,42.1C64.7,42.1,64.7,42.1,64.6,42.1z"/>
</svg>
