<svg id="a18e6705-54a0-442b-9ea5-70fbc465050e" xmlns="http://www.w3.org/2000/svg" viewBox="0 0 300 140"><defs><style>.a3a4ed2a-97f2-4c29-b587-7742cab30a02{fill:#a8ce38;}.aadb7140-ec18-4201-a918-bb25d00d8719{fill:#7473ac;}</style></defs><title>card-aronija</title><path class="a3a4ed2a-97f2-4c29-b587-7742cab30a02" d="M182.84,65.33a46.8,46.8,0,0,1,0-34.27A43,43,0,0,1,187,23.3a58.69,58.69,0,0,1,5.33-6.9,69.23,69.23,0,0,1,13-11.47l.41-.28.4.36a36.92,36.92,0,0,1,6.3,7.29,33.34,33.34,0,0,1,4,8.83,34,34,0,0,1,0,19.38A33.55,33.55,0,0,1,205.7,56.56,33.25,33.25,0,0,1,188.24,64l-.05-.29a37.43,37.43,0,0,0,16-8.9,34.4,34.4,0,0,0,9.35-15.2,33.46,33.46,0,0,0,.41-17.79A35.51,35.51,0,0,0,205.2,6l.81.09a43.77,43.77,0,0,0-12.88,11,42.86,42.86,0,0,0-4.59,7.13c-.69,1.23-1.22,2.55-1.82,3.81-.28.65-.52,1.31-.78,2s-.54,1.29-.74,2A64.55,64.55,0,0,0,182.9,40a55.25,55.25,0,0,0-1.1,8.32,64.93,64.93,0,0,0,1.31,16.92Z"/><path class="a3a4ed2a-97f2-4c29-b587-7742cab30a02" d="M204.3,13.7a67.69,67.69,0,0,1-1.11,12.46A74.69,74.69,0,0,1,200,38.28a72.41,72.41,0,0,1-12.22,21.77A116.24,116.24,0,0,0,198.6,37.8a106,106,0,0,0,3.49-11.86Q203.49,19.9,204.3,13.7Z"/><path class="aadb7140-ec18-4201-a918-bb25d00d8719" d="M72.69,45.39c0,.11,0,.14.14.07s.18-.17.07-.28c.18,0,.43,0,.75,0s.63-.05.9-.05a2.83,2.83,0,0,1,.78.1,5.34,5.34,0,0,1,.21,1.65v1.23a3.17,3.17,0,0,1-.21,1.39,2.26,2.26,0,0,1-.89.12,2.33,2.33,0,0,0-.9.12,2.34,2.34,0,0,0-.21.67,5.15,5.15,0,0,0,0,.79c0,.33,0,.51,0,.58v4.12a5.35,5.35,0,0,1-.83,3.27,4.87,4.87,0,0,1-1,1.24l-.18.21a.28.28,0,0,1-.21.09.28.28,0,0,0-.21.09h-.18c0,.07-.05.12-.16.12a.39.39,0,0,0-.28.11,2.08,2.08,0,0,1-1,.21h-.59a1,1,0,0,0-.35.1,1.14,1.14,0,0,1-.46.09h-4.5a.68.68,0,0,1-.3-.09.73.73,0,0,0-.3-.1h-.43c0-.14-.07-.21-.19-.21a3.18,3.18,0,0,1-.52-.11,4.12,4.12,0,0,0-.51-.12.57.57,0,0,0-.39-.18.25.25,0,0,1-.23-.19v-.05h-.21v-.18h-.39v-.21a4.8,4.8,0,0,1-1-.84s-.09-.05-.14-.11-.09-.17-.14-.28a.69.69,0,0,0-.16-.28c-.16,0-.23-.07-.23-.19a.28.28,0,0,1-.09-.21.28.28,0,0,0-.09-.21,3,3,0,0,1-.21-.81V55.36a.19.19,0,0,0,.21-.21v-.4c.07,0,.16-.11.3-.32s.25-.33.32-.33a.28.28,0,0,1,0-.16s0-.07.06-.07h.05v-.19h.21v-.23h.2a.34.34,0,0,0,.16,0c.05,0,.07,0,.07-.07v-.07h.21a6.39,6.39,0,0,1,.83-.35.14.14,0,0,1-.07.11c-.05,0-.07,0-.09,0h0a.62.62,0,0,0,.21.14.77.77,0,0,0,.2-.14.19.19,0,0,0-.11-.19s.07,0,.11,0a1.9,1.9,0,0,1,.92-.16,1.87,1.87,0,0,1,.92.16h.21l.18.21h.21l.18.19a3.48,3.48,0,0,0,.41.32,3.46,3.46,0,0,1,.42.3v.21h.21v.21l.2.19a.28.28,0,0,1,.09.21,2.06,2.06,0,0,1,0,.28,2,2,0,0,0,0,.34.15.15,0,0,0,.07.14.28.28,0,0,0,.12.05h0a2.6,2.6,0,0,1,0,.37,1.82,1.82,0,0,0,0,.35.66.66,0,0,0,.09.33c0,.14.14.21.39.21v-.21a.28.28,0,0,1,.21.09.28.28,0,0,0,.21.09c.11,0,.18-.07.18-.21H66a.38.38,0,0,1,0-.16c0-.05,0-.07.07-.07h0a.31.31,0,0,0,.11-.21.28.28,0,0,1,.09-.21c.1.17.1.31,0,.42a.72.72,0,0,0-.16.21c.07.07.14,0,.21-.07s.13-.16.2-.16a.32.32,0,0,1,.09-.21.29.29,0,0,0,.1-.21h-.42V55a.33.33,0,0,1,.12-.21.31.31,0,0,0,.11-.21h-.23c0-.34,0-.9,0-1.67s0-1.46,0-2.09a10.65,10.65,0,0,0-.1-1.61,5.47,5.47,0,0,0-.62,0c-.27,0-.48,0-.64,0a2.09,2.09,0,0,1-.53-.07.67.67,0,0,1-.41-.23.81.81,0,0,1-.09-.42c0-.16,0-.35,0-.56a4.22,4.22,0,0,0,0-.42c0-.18,0-.46,0-.83s0-.72,0-1a3.14,3.14,0,0,1,.09-.84H65l1.17,0c.52,0,1,.05,1.44.05a6.66,6.66,0,0,0,1.22-.09h1a3.39,3.39,0,0,1,.9-.1c.34,0,.73,0,1.17.05s.78,0,1,0a.18.18,0,0,1,0,.14s0,0-.06,0h-.07ZM58,55.38a.28.28,0,0,1,.16-.09.5.5,0,0,1,.16,0s.07,0,.09,0a.11.11,0,0,0,0-.09c-.3,0-.44.07-.44.21Zm.43-.51a.19.19,0,0,0,.07-.14v0c0-.07,0-.09.09-.09s.1,0,.1-.09a.4.4,0,0,0-.28.14.41.41,0,0,0-.14.3A.19.19,0,0,0,58.47,54.87Zm.28,2.63s0-.07-.07-.14l-.21.21ZM58.91,56a.35.35,0,0,1-.07.21.1.1,0,0,0,.07,0C59.05,56.06,59.05,56,58.91,56Zm.09-1.7c0-.07,0-.12.14-.16s.16-.07.18-.1,0-.07-.14-.14,0,.1-.13.14a1,1,0,0,0-.19.1s0,.07.14.14Zm-.11.81c.13,0,.2-.07.2-.23C59,54.87,58.89,54.94,58.89,55.1ZM59,56.68v.21h.2C59.18,56.75,59.12,56.68,59,56.68Zm.27-1.14c.12,0,.19,0,.21,0s0-.09,0-.21a.44.44,0,0,0-.3.14.4.4,0,0,0-.13.28Zm.33,1.07c0-.09,0-.14,0-.16s-.09,0-.21,0l.21.18Zm-.14-3a.31.31,0,0,0,.14.09s.06,0,.09,0l.09-.07a.33.33,0,0,1,.14,0s0-.07,0-.09a.07.07,0,0,1,.07,0,.11.11,0,0,0,.07,0s0,0,0-.09a.87.87,0,0,0-.6.2Zm.11,5.21a.54.54,0,0,1,.19.05.53.53,0,0,0,.16,0s.07,0,.07-.09h-.42Zm.16,1c.07,0,.12,0,.14-.07a.48.48,0,0,0,0-.11l0,0a.19.19,0,0,0-.21.21Zm.55-4.71c-.25,0-.39.07-.39.2C60.13,55.33,60.26,55.27,60.26,55.13Zm0-1.79s0,0-.09,0v0S60.17,53.34,60.22,53.34Zm.41,6a.08.08,0,0,0-.07,0v.18A.24.24,0,0,1,60.63,59.31Zm.14-6c-.09,0-.14,0-.16,0s0,.09,0,.21Zm0,2.26c.06.16.13.18.2.07a.27.27,0,0,0,0-.31.21.21,0,0,1,0,.14l-.07.07h0Zm1.12,2.72a.78.78,0,0,0,.05-.12v-.05c-.09,0-.14,0-.16,0s0,.09,0,.21A.15.15,0,0,0,61.87,58.29Zm-.09,1.18a.17.17,0,0,0,.18-.18Zm.14-5.79a.23.23,0,0,0,.14,0s0,0,0-.07a.23.23,0,0,0-.14,0Zm.3.26a.28.28,0,0,0,.2-.09l.14-.14a.54.54,0,0,0-.34.21Zm.13,1.77c.1,0,.14,0,.17,0s0-.09,0-.21a.15.15,0,0,0-.14.07c0,.05,0,.07,0,.1v.07Zm0,2.86c.12,0,.19-.07.19-.21s-.14,0-.16,0,0,.09,0,.21Zm.12.44c.25,0,.39-.07.39-.24H62.7a.34.34,0,0,0-.16,0c-.07,0-.09.05-.09.07a1.19,1.19,0,0,0,0,.14Zm.46,1c.11-.09.09-.14-.07-.14s-.25,0-.28.14a.24.24,0,0,1,.16-.09.33.33,0,0,1,.14,0A.27.27,0,0,0,63,60Zm0-6.11c-.12.16-.12.23,0,.23C63.09,53.92,63.09,53.85,62.93,53.85Zm.23,5c.14,0,.2-.07.23-.21h.2c0-.09-.09-.11-.2-.07a.73.73,0,0,1-.23.07Zm.25-1.39a.5.5,0,0,1,0,.21.27.27,0,0,0,.09-.12c0-.05.05-.07.07-.07h-.14Zm.21-2.26c0-.07,0-.11.07-.11s0-.05-.1-.12c-.11.16-.11.23,0,.23Zm.34-9c-.09.09-.09.14,0,.16s.19-.07.21-.16Zm.09-.4a.29.29,0,0,0,.28-.13c0-.07,0-.1-.07-.1a.08.08,0,0,1,0,.07.08.08,0,0,1-.07,0H64.1c-.09,0-.09,0,0,.11Zm.07,14.28a.11.11,0,0,0,.07,0c.14,0,.21-.07.21-.23h-.21A.35.35,0,0,1,64.12,60.08Zm.58-2.42v-.19h-.21v.19Zm0-11c0-.12,0-.18-.14-.18v.18C64.67,46.76,64.72,46.76,64.72,46.64Zm.71-.72v-.21H65.2v.21Zm-.09,2,.21-.14a.29.29,0,0,0,.13-.14.25.25,0,0,0,0-.16.4.4,0,0,0-.27.14.39.39,0,0,0-.14.3Zm1-2h-.23c0,.09,0,.14,0,.16s.09,0,.2,0Zm.14,4.3v-.21h-.18v.21Zm-.09,5.27a.14.14,0,0,0,.14-.07.37.37,0,0,0,0-.11l0,0a.19.19,0,0,0-.21.21Zm.21.86s0-.07,0-.09-.12.09,0,.09Zm0-4.69a.12.12,0,0,0,0,.14l.25-.07a.27.27,0,0,0,0-.14Zm0-3.12c.14,0,.21-.11.21-.18S66.67,48.48,66.67,48.59Zm0-2.81a.31.31,0,0,0,.21-.11l.13-.14c-.23,0-.34.07-.34.23Zm.21,4.88v-.18h-.21v.18Zm0,3.09a.21.21,0,0,1,.14-.2c-.23,0-.35.06-.35.2Zm.09-5.48s0,0,.07,0a.1.1,0,0,0-.07,0h-.18C66.88,48.29,67,48.31,67.06,48.27ZM67.2,55v-.23H67V55ZM67,59.87c.28,0,.41-.07.41-.19A.55.55,0,0,0,67,59.87Zm.28-6.77-.1.1c0,.11.07.14.21.07s.09-.07,0-.07S67.38,53.06,67.32,53.1Zm.09,7.23s0,0,0-.11.07-.12,0-.12C67.36,60.26,67.34,60.33,67.41,60.33Zm0-8.83c.12,0,.19,0,.21,0a.5.5,0,0,0,0-.21h-.2v.21Zm.44,3c0-.11-.07-.14-.18-.07l-.21.07Zm-.16-8.2q.16-.21,0-.21a.19.19,0,0,0-.21.21Zm0,2.69a.23.23,0,0,0,0-.14,0,0,0,0,0-.07,0,.23.23,0,0,0,0,.14Zm0,2.05c-.07,0-.12,0-.14,0l.18.07c.12,0,.16,0,.16-.09Zm0-1.23c0-.07,0-.12.09-.12s.09-.05.09-.12-.16-.07-.23,0,0,.19.07.19Zm.66,9c-.11,0-.11,0,0,.07s.19,0,.21-.07Zm.16-13.16v-.23h-.2v.23Zm-.2,9.86a.16.16,0,0,0,.14-.07.54.54,0,0,0,0-.12l0-.05a.18.18,0,0,0-.2.21Zm.8-10.11a.64.64,0,0,0,.21.14.22.22,0,0,0,.16,0,.16.16,0,0,0,.07-.14Zm0,1.67.21-.16h-.21Zm0,1.07a.24.24,0,0,1,.18.07.11.11,0,0,0,0-.07C69.31,48.06,69.24,48.06,69.11,48.2Zm.16,2.21a.31.31,0,0,1,.11-.21A.33.33,0,0,0,69.5,50a.28.28,0,0,0-.26.14.28.28,0,0,0,.07.3Zm.18-.51s0-.07-.07-.1l0,0a.23.23,0,0,0-.07.09.34.34,0,0,0,0,.14Zm.21-.1s0-.07,0-.09a.1.1,0,0,1,.07,0,.07.07,0,0,0,.07,0s0,0,0-.09c-.16,0-.25,0-.27.16l.09.05Zm.21,5.56c-.07,0-.12,0-.14,0l.18.07c.12,0,.16,0,.16-.09Zm-.1-9.21A.17.17,0,0,0,70,46c-.12,0-.19,0-.21,0s0,.07.07.16Zm.1,2.44c.13,0,.2-.07.2-.18a.28.28,0,0,0-.16.05s-.07,0-.07.06v0Zm.41,10.18a.07.07,0,0,0,0-.06.08.08,0,0,0-.07,0h-.1a.21.21,0,0,0-.13,0,.3.3,0,0,1-.12,0c0,.12,0,.14.09.09l.12-.09Zm.11-13.13h.21c.05,0,.09,0,.14-.11a.58.58,0,0,0,.07-.28.24.24,0,0,1-.16.09s0,0,0,.09h0c-.16,0-.26.12-.26.24Zm.53,11c-.14.14-.09.21.14.21,0,0-.07,0-.09-.07a.18.18,0,0,1,0-.11v0Zm.23-10.29a.12.12,0,0,1,0-.1.08.08,0,0,1,.07,0,.11.11,0,0,0,.07,0,.15.15,0,0,0,0-.1q-.1-.11-.27,0c-.07.12,0,.19.13.21Zm.76-.61v-.23H71.7v.23Zm1.74,0c0,.11.07.11.23,0a.32.32,0,0,0,.19-.26.34.34,0,0,0-.3.12c0,.07-.09.12-.14.12Z"/><path class="aadb7140-ec18-4201-a918-bb25d00d8719" d="M78.39,46.85c.07.07.09.07.09,0v-.07a.07.07,0,0,1,.09-.09.49.49,0,0,1,0,.25c0,.05-.06.07-.13.1a.42.42,0,0,0-.19.09v-.07s0-.05.07-.07a.38.38,0,0,1,.16-.05Zm10.15-1.93H81.05c-.18,0-.43,0-.76-.05s-.62,0-.89,0a2.83,2.83,0,0,0-.78.09l-.07,0s0,0-.07.05a.21.21,0,0,0,0,.14c-.14,0-.2.21-.2.61a17.19,17.19,0,0,0,.2,3.39,5.51,5.51,0,0,0,2,.21,5.63,5.63,0,0,0,0,.58c0,.26,0,.49,0,.7a1.6,1.6,0,0,1-.09.58v.6a.26.26,0,0,1,0,.42c.14,0,.14.21,0,.6v2.47a4.89,4.89,0,0,0,.21,1.83.28.28,0,0,0,.09.21.28.28,0,0,1,.09.21V58a.61.61,0,0,1,.21.42c.14,0,.14.07,0,.19h.2v.2h.21V59h0s0,0,.09.06a.22.22,0,0,1,.07.17.14.14,0,0,1,.14.07s.07.09.11.16a1.56,1.56,0,0,0,.14.19l.21.2v.21h.41v.21c.09,0,.14,0,.16,0s0,.09,0,.21h.42l.2.18a2.06,2.06,0,0,1,.42.12,1.66,1.66,0,0,0,.41.11,26.79,26.79,0,0,0,4,.21h3.24a.56.56,0,0,1,.28-.16l.36-.14c.12,0,.17-.09.17-.16h.2l.19-.19h0s0,0,.09-.07a.19.19,0,0,0,.07-.16.82.82,0,0,0,.23,0l.14-.07a1.14,1.14,0,0,0,.11-.14,1.1,1.1,0,0,1,.12-.14.61.61,0,0,0,.39-.21v-.19H94s0,0,.07-.07a.34.34,0,0,0,0-.16v-.42h.21a.61.61,0,0,0,.21-.39,1,1,0,0,1,.18-.63,3,3,0,0,0,.09-.79c0-.28,0-.61,0-1s-.05-.67-.05-.9a1.19,1.19,0,0,0,.21-.82V51.45c0-.11,0-.35,0-.69a4.78,4.78,0,0,1,0-.77.7.7,0,0,1,.21-.42,2.8,2.8,0,0,1,1-.09,3.72,3.72,0,0,0,1.06-.1,2.27,2.27,0,0,0,0-1.67V47.5c.14,0,.14-.07,0-.18s0-.45.05-.77,0-.61,0-.86a2.89,2.89,0,0,0-.09-.77H89v4.42h.6a1.11,1.11,0,0,0,.37.07h.32c.07,0,.12,0,.12.07V55.4a.61.61,0,0,1-.21.42V56l-.41.4h-.39a1.38,1.38,0,0,0-.51.11,1.74,1.74,0,0,1-.35.12,2.15,2.15,0,0,1-1.4-.39.63.63,0,0,1-.2-.42A38.7,38.7,0,0,1,86.77,51,3.53,3.53,0,0,1,87,49.52a1.92,1.92,0,0,1,.76-.09c.36,0,.57,0,.64-.09ZM78.23,48.2c0-.14.06-.14.2,0Zm0-2.88a.38.38,0,0,0,.23-.1.58.58,0,0,1,.37-.09l-.12.12-.09.09-.07.07s-.07,0-.11,0a.34.34,0,0,1-.19-.07Zm.53,1.48c0-.07,0-.09.07-.09a.41.41,0,0,1,.16,0l.18,0Zm.9-1.25v-.19h.2v0a.46.46,0,0,1-.07.07.2.2,0,0,1-.13.05Zm.34-.14a.17.17,0,0,1,.14.05s0,0,0,.07a.21.21,0,0,1-.14,0Zm.23,1.11c-.09-.11-.11-.2-.07-.27a.3.3,0,0,1,.25-.12.31.31,0,0,1-.11.21.33.33,0,0,0-.12.21Zm0,1.38v-.21a.14.14,0,0,1,.14.07.11.11,0,0,1,0,.11.18.18,0,0,1-.14.05Zm.25-1.75a.28.28,0,0,1-.07-.3.24.24,0,0,1,.23-.14.28.28,0,0,1-.09.21.28.28,0,0,0-.09.21Zm0,9.07V55h.19v.21Zm.12-.63c0,.07,0,.12,0,.12s-.07-.07,0-.14Zm.05,1.54c.16-.05.22-.12.2-.21.07.07.09.11.07.14Zm0,.34v-.2h.2v.2Zm.2-1.92c0,.13-.06.13-.18,0A.37.37,0,0,1,80.84,54.55Zm-.13-9c0-.16,0-.25.09-.28a.11.11,0,0,0,.09-.11c.07,0,.09,0,.07.14s-.14.25-.28.25Zm.11,8.23a.37.37,0,0,1,0-.14l.25-.07A.19.19,0,0,1,80.82,53.8Zm0-5.14v-.18h.21v.18Zm0,3.49v-.21h.21l0,.05a.37.37,0,0,1,0,.11s-.07.07-.14.07ZM81.4,47l0-.07.14-.07a.78.78,0,0,1,.21,0c0,.14-.14.21-.39.21Zm0,10.37h.39l0,0-.16.07a.79.79,0,0,1-.2,0Zm.6-12a.73.73,0,0,1-.26,0s0-.07.07-.17q.35,0,.21.21Zm0,8.46q-.42,0,0-.21Q82.25,53.59,82,53.8ZM82.13,52c0,.09-.09.14-.21.16s-.09-.07,0-.16Zm-.27,5.28c0-.14.06-.21.2-.21l.09,0c0,.12-.11.17-.27.17Zm.48-3.47c0-.07.07-.09.18-.09s.18,0,.21-.07c0,.12-.16.16-.42.16Zm.3-4.3c.13,0,.16,0,.06.12a.34.34,0,0,1-.27.07c-.05,0-.05-.09,0-.19s.14,0,.18.07Zm.06,9.21c0,.12-.06.16-.18.16s-.11,0,0-.16Zm.17-13.34-.05,0a.28.28,0,0,1-.16,0,.28.28,0,0,1-.21-.09Zm-.39.93v-.21h.18v.21Zm0,5.76.09-.09c.07-.05.09,0,.09.09Zm0,3.35c0-.12,0-.19,0-.21s.07,0,.16,0,0,.18,0,.2S82.59,55.43,82.5,55.43Zm0,2.44c0-.12,0-.19,0-.21s.07,0,.16,0a.5.5,0,0,1,0,.21S82.59,57.87,82.5,57.87Zm0-6.93a.28.28,0,0,1,.09-.21.28.28,0,0,0,.09-.21c.1.12.12.21.07.31a.25.25,0,0,1-.25.13Zm0-2.25v-.33a.22.22,0,0,0,.1.16.28.28,0,0,1,.09.17Zm0,5.76c0-.14.07-.21.19-.21s0,.19,0,.21-.06,0-.16,0Zm.14-1.25h.21a.1.1,0,0,1,0,.07s-.09.07-.2.07-.14-.07-.07-.17Zm.19,6.74v-.21h.2v.21Zm0-5.51v0s0,0,.07-.09a.2.2,0,0,1,.16-.07v.21Zm.3-5.44.05-.07a1.14,1.14,0,0,1,.36-.12q0,.21-.39.21Zm.05-2q0-.21.39-.21A.53.53,0,0,1,83.26,47Zm0,7.23a.19.19,0,0,1,.21-.21l0,0Zm.28-8.74v-.18h.18v.18Zm.11,8.16a.1.1,0,0,1-.07,0c0-.09.12-.13.28-.13Zm0-5.67v-.21Q83.88,47.78,83.67,48Zm0,10.23V58Q83.88,58,83.67,58.22Zm.67-12.65c-.12-.07-.19-.11-.19-.16s0-.09.09-.14.1-.09.1-.14.09,0,.09,0,0,.07-.05.14a.86.86,0,0,0,0,.18ZM84.57,51h-.21c0-.09.09-.14.21-.16S84.63,50.9,84.57,51Zm.11,6.67v-.19h.21v.19Zm0,1.07c0-.09,0-.14,0-.16s.09,0,.21,0-.07.19-.21.19Zm.13-4.65q0-.21.42-.21l0,.05-.18.11a.35.35,0,0,1-.21.07ZM85.12,46a.18.18,0,0,1,.2-.21v.07s0,0-.07.07a.34.34,0,0,1-.16,0Zm.16,6.62c-.14,0-.19-.09-.14-.21s.14-.11.14,0Zm-.12-1.81c0-.12.07-.19.21-.19s0,.14,0,.17a.5.5,0,0,1-.21,0Zm.21-.44a.19.19,0,0,1,.21-.21c0,.11,0,.18,0,.21s-.09,0-.2,0Zm0,3.48v-.07s0,0,.07-.07a.34.34,0,0,1,.16,0c0,.11,0,.18,0,.21s-.09,0-.2,0Zm0-8.29v-.19h.21C85.58,45.46,85.51,45.53,85.37,45.53Zm.32,4.81v-.21h.21v.21Zm.21,1.51v0a.51.51,0,0,0,0,.11.13.13,0,0,0,.12.07c-.25,0-.3-.07-.16-.21Zm.16-4.28,0,.09c-.11,0-.16-.11-.16-.27h.21ZM85.94,59c0-.12,0-.19,0-.22s.09,0,.2,0A.18.18,0,0,1,86,59Zm.39-13.6s-.06.07-.16.09L86,45.41s.05,0,.14,0Zm-.18,9.27c0-.11.12-.18.32-.18a.67.67,0,0,1-.14.11.31.31,0,0,1-.2.07Zm1-8.16v-.18c.07.07.09.14.07.18l-.07.14s0,.07,0,.07a.13.13,0,0,1-.12-.07s0-.07,0-.09a.18.18,0,0,1,.14,0Zm.14,1.23c-.12,0-.17.07-.17.17C87.11,47.78,87.16,47.73,87.28,47.73Zm-.17,10.49,0,0a.31.31,0,0,1,0-.09.14.14,0,0,1,.14-.07Zm.4.37c0,.07-.07.14-.19.18A.17.17,0,0,1,87.51,58.59Zm0-10.11c0,.11.06.11.2,0s.12,0,.14.07a.3.3,0,0,1-.25.11c-.12,0-.14-.07-.07-.18Zm.2-3.07c.09,0,.07.09-.09.19C87.69,45.57,87.71,45.5,87.71,45.41Zm1,11.88v-.21h.21v.21Zm.62-10.49-.2.1c-.07,0-.07,0,0-.07Zm-.2,10.51a.18.18,0,0,1,.2-.21l0,0Zm.27-8.62V48.5h.19v.19Zm.09,8.39a.19.19,0,0,1,.21-.21l.09.05c0,.11-.11.16-.27.16Zm1-10.51v0s0,0,.07-.06a.25.25,0,0,1,.16-.05c0,.11-.07.18-.21.18Zm1.21,4.14v-.19H92v.19Zm.42-5.21c-.09,0-.12,0-.07-.14s.16-.16.28,0,0,.09-.12.09-.11,0-.11.09Zm2.41-.07v0a.1.1,0,0,1,0,.07.2.2,0,0,1-.13.05Zm.9,1.58h-.42l.21-.21.11.1c.07,0,.1,0,.1-.1S95.59,46.87,95.48,47Zm0,.91h.18c0,.14-.09.21-.25.21C95.45,48.13,95.48,48.06,95.48,47.92Zm0-2.39a1.22,1.22,0,0,1,0-.42s.14,0,.34,0a.18.18,0,0,0-.2.19v.21Zm.78,3c.07.07.07.12,0,.14s-.18,0-.2,0,0-.12,0-.14.07,0,.16,0Z"/><path class="aadb7140-ec18-4201-a918-bb25d00d8719" d="M117.14,53.24a.18.18,0,0,1,.2.19h.23v.21H118l.39.42v.21a1.4,1.4,0,0,0,.2.16l.16.12c.05,0,.07.06.07.13s.21.14.21.42c.11,0,.18,0,.21,0a.34.34,0,0,1,0,.2v.21l.19.21v1.44a2.8,2.8,0,0,0,1.1,0,2,2,0,0,1,1,0,7.61,7.61,0,0,1,.21,2.1,7.33,7.33,0,0,1-.21,2.09,4.52,4.52,0,0,1-1,.09c-.36,0-.8,0-1.31,0s-.89,0-1.17,0h-3.51v-.23h-.62l-.21-.21a.29.29,0,0,1-.21-.1.26.26,0,0,0-.2-.09h-.21a.5.5,0,0,0,0-.21s-.07,0-.16,0a.61.61,0,0,1-.21-.42l-.21-.21c0-.14-.07-.21-.23-.21a.9.9,0,0,0-.2-.63V58a.88.88,0,0,1-.21-.65s0-.16,0-.42a3.73,3.73,0,0,0,0-.67,1.6,1.6,0,0,0-.21-.56v-.21a.19.19,0,0,1-.16-.07c-.05-.05-.09-.12-.14-.18a.94.94,0,0,0-.14-.19h-.41a5.09,5.09,0,0,0-1.86-.21c-.35.35-.35,1.05,0,2.09a.69.69,0,0,1,.41-.21q0,.21.42.21h.2l.28,0a2.58,2.58,0,0,1,.46-.05.4.4,0,0,1,.3.09,7.56,7.56,0,0,1,0,3.35,2.09,2.09,0,0,0,0,.35,1.19,1.19,0,0,1,.05.28.28.28,0,0,1-.09.21,4.27,4.27,0,0,1-1,.09c-.34,0-.73,0-1.19-.05s-.83,0-1.11,0v.23a.21.21,0,0,1-.16-.07.23.23,0,0,1-.07-.14v-.05h-5.37c-.18,0-.44,0-.76.05s-.6,0-.83,0a1.7,1.7,0,0,1-.61-.1,7,7,0,0,1-.21-2.07A7,7,0,0,1,100,57a2.64,2.64,0,0,1,1-.1,3.79,3.79,0,0,0,1.08-.11.28.28,0,0,0,.09-.21,1.53,1.53,0,0,0,0-.3,2.73,2.73,0,0,1,0-.38c.14-.11.21-.39.21-.81V49.27l-.51.07c-.3,0-.46,0-.5-.07A3.13,3.13,0,0,1,99.75,49v-4A.31.31,0,0,0,100,45a.29.29,0,0,1,.2-.12h5.56a.28.28,0,0,1,.21.09.28.28,0,0,0,.2.1.33.33,0,0,0,.21-.12.33.33,0,0,1,.21-.12h1.84l.2.21a3.4,3.4,0,0,1,1.66-.21,4.11,4.11,0,0,1,.68.1,4,4,0,0,0,.74.09,4.69,4.69,0,0,0,.83-.12,4.42,4.42,0,0,1,.82-.11,6.75,6.75,0,0,1,2.07.42h.39c.16,0,.23.07.23.21h.21a.68.68,0,0,1,.3.09.71.71,0,0,0,.32.09l.18.23a.75.75,0,0,1,.32.1.78.78,0,0,0,.32.09l.6.63.21.18V47a.59.59,0,0,0,.41.21v.44a.8.8,0,0,1,.21.05.45.45,0,0,1,.14.07l.06.07c0,.26.07.39.19.39v2.52h-.19v.41c-.16,0-.22.07-.22.21l-.21.21v.19c-.28.14-.41.28-.41.42a.21.21,0,0,0-.14,0s0,0,0,.07l0,.07h-.19c0,.17-.06.24-.2.24s-.19,0-.21,0,0,.09,0,.21c-.3,0-.44.07-.44.21Zm-16.89,4.09c-.27,0-.41.07-.41.19C100.12,57.52,100.25,57.45,100.25,57.33Zm1,0h-.21v.39C101.22,57.68,101.29,57.54,101.29,57.29Zm.55-11.62c.3,0,.43-.14.43-.42-.2,0-.32,0-.36.09a.49.49,0,0,0-.07.3Zm.5.2c.12,0,.17,0,.17-.16C102.46,45.83,102.41,45.87,102.34,45.87Zm.6,15.32c.14,0,.21-.14.21-.39a.13.13,0,0,1-.21,0,.13.13,0,0,0-.21,0,.51.51,0,0,1,.14.21.47.47,0,0,1,0,.14v0Zm0-11.74v-.21h-.19v.21Zm.16,2s0-.07-.12-.12a.11.11,0,0,1-.07,0c-.09,0-.09.11,0,.18ZM103,58c.12,0,.19,0,.21,0s0-.09,0-.21a.18.18,0,0,0-.2.21Zm.23-4.38c.28,0,.42-.06.42-.2A.63.63,0,0,0,103.19,53.61Zm.39-5.78v-.21h-.2v.21Zm-.16,9.36c.16,0,.26,0,.28-.16l-.09,0a.1.1,0,0,1,0,.09.08.08,0,0,1-.07,0,.07.07,0,0,0-.06,0s0,.05,0,.1Zm.09-5.95a.42.42,0,0,1-.06.21.06.06,0,0,0,.06,0Zm0,8.35a.14.14,0,0,0,.14-.07.22.22,0,0,0,0-.16.64.64,0,0,0-.14-.21,1,1,0,0,1-.05.18.68.68,0,0,0,0,.17s0,.07.09.07Zm0-13.23a.78.78,0,0,0,.21,0l.18-.07,0-.07c-.12-.12-.21-.14-.3-.07a.31.31,0,0,0-.14.28Zm0,14.07c.3,0,.44-.07.44-.21h-.32s0,0,0,.07l-.14.14Zm.55,0a1,1,0,0,0,.28,0s0-.09,0-.21a.18.18,0,0,1-.2-.16.19.19,0,0,1,0,.11.1.1,0,0,1-.07.05h0s-.07.09-.21.14a.28.28,0,0,0-.21.3,1,1,0,0,0,.3,0,.6.6,0,0,0,.21-.19,2.24,2.24,0,0,0,.13-.19Zm-.5-2.81c0-.09.07-.14.2-.14v-.21C103.68,57.24,103.61,57.36,103.61,57.59Zm.53,3.21a.29.29,0,0,0,0-.4c0,.05-.07.12-.2.24a.47.47,0,0,0-.21.37A.49.49,0,0,0,104.14,60.8Zm-.39-15a.3.3,0,0,0,.27-.11.17.17,0,0,0,0-.21.3.3,0,0,0-.27-.12v.44Zm.2,13.93c0,.14.07.21.19.21a.57.57,0,0,0-.12-.35q-.1-.14-.27.12Zm-.14-8.6a.2.2,0,0,1,.21.18c0-.25-.07-.37-.23-.37v.19Zm.42,6.06a.55.55,0,0,0-.14.28c0,.07,0,.12.14.12Zm.2,2.42q.21,0,0-.21h-.2v.21Zm0,.61c0,.14,0,.21-.16.21.12,0,.18,0,.21,0s0-.09-.07-.21Zm.23-8a.2.2,0,0,0-.21.14h.21C104.73,52.31,104.73,52.27,104.64,52.24Zm.12,5.61a.5.5,0,0,1-.3.11.45.45,0,0,1,.13.14,1.1,1.1,0,0,0,.12.14s.07,0,.14-.05C104.69,58.05,104.66,57.94,104.76,57.85Zm0,.74-.26-.09s0,0,0,.09ZM105,47.48c-.27,0-.41.07-.41.21C104.85,47.69,105,47.62,105,47.48Zm-.2,9.67a.19.19,0,0,0-.21-.21v.21Zm0,1.72c0-.12-.07-.19-.21-.19S104.66,58.85,104.8,58.87Zm0-2.07a.33.33,0,0,0,.27-.14c.07-.09,0-.19,0-.3,0,.07-.05.14-.16.21s-.14.14-.07.21Zm0-3.23a.17.17,0,0,0,.18-.14.13.13,0,0,1-.09,0h-.07s0,0,0,.07Zm.27-7c0-.3-.07-.44-.21-.44a1.72,1.72,0,0,1,.07.21.59.59,0,0,1,0,.14v.07a.11.11,0,0,0,0,.07h.09Zm0,14h-.21v.19s.05,0,.14.06.07,0,.07,0Zm0-15c-.13,0-.2,0-.2.16h.41C105.26,45.57,105.19,45.53,105.05,45.53Zm0,.39c-.09,0-.14,0-.14,0l.18.07c.1,0,.14,0,.17-.09Zm.25,5c0,.11.07.21.23.28h0s0-.05-.06-.1A.17.17,0,0,0,105.26,50.92Zm.3,8.92s0-.07-.09-.13,0,0,0,.06-.07.12,0,.12Zm-.18-14.06c.16,0,.25,0,.29-.07s0-.16,0-.37l0,.07a.35.35,0,0,0-.21-.07.37.37,0,0,1,.09.14c0,.05,0,.07,0,.09l-.07.1a.3.3,0,0,0,0,.13Zm0,13.44c0,.11.07.16.21.16s.16-.05,0-.16Zm.25-2.86v-.19h-.23v.19Zm-.2-6.93c.13,0,.2-.07.22-.21s-.18,0-.2,0a.5.5,0,0,0,0,.21Zm.34,11s-.09,0-.21,0,0,0,.14.07a.46.46,0,0,1,.07-.07Zm-.18.3a.16.16,0,0,1,.16.12l-.07.09a.61.61,0,0,0,.32-.16.19.19,0,0,0,0-.28c0,.07,0,.12-.14.12a.34.34,0,0,0-.25.09Zm.41-.7v.21h.21A.19.19,0,0,0,106,60.05Zm.25-3.25v-.21h-.21v.21Zm-.18,2.05a.18.18,0,0,0,.2-.19c-.11,0-.18,0-.2,0s0,.07,0,.17Zm.34.62h-.2a.21.21,0,0,0-.07.14.15.15,0,0,0,0,.1l.11.06.14.14Zm1.08-2.6a.65.65,0,0,0-.2,0l-.17.07s-.06,0-.09,0a.11.11,0,0,1-.07,0l-.09-.14a.63.63,0,0,0-.14-.12l-.13-.09-.07-.07s0,0,0-.07a.63.63,0,0,1,.14-.12.35.35,0,0,0-.21.07l-.16.09,0,.05q-.21.21,0,.21c.14.07.23.07.28,0s.09-.07.14,0V57a.37.37,0,0,1,.18,0,0,0,0,0,1,0,.07.12.12,0,0,0,0,.12.48.48,0,0,0,.18.14c-.07-.14,0-.26.16-.33s.28-.16.28-.28Zm-1.31,1.39a.56.56,0,0,0,.14.35c.09.12.18.12.25,0-.11-.07-.18-.14-.18-.21a.4.4,0,0,1,.09-.24.36.36,0,0,0,.09-.2.25.25,0,0,0-.2.09.28.28,0,0,1-.21.09Zm0,1.12a.28.28,0,0,1,.21-.09s0,0,0-.12h-.16s0,0,0,.07a.07.07,0,0,1,0,.07l0,0Zm.23-1.56v-.21h-.14c.12,0,.19-.07.21-.16l-.07-.07c-.14,0-.2.07-.2.21v.21Zm-.16,2.51c.21.12.32.07.37-.14a.26.26,0,0,1-.14.07.34.34,0,0,1-.16,0h-.09Zm.23-14.46c0-.27-.07-.41-.21-.41v.21Zm.16,13.18a.11.11,0,0,0-.11.12c0,.07,0,.09,0,.09h.16v.21h.21a.19.19,0,0,0,.21-.21c-.12.1-.21.12-.3.07a.26.26,0,0,1-.14-.25Zm0-1a.13.13,0,0,1,0-.09.08.08,0,0,1,.07,0,.08.08,0,0,0,.07,0,.11.11,0,0,0,0-.09c-.11-.12-.2-.09-.27.05s0,.16.07.16Zm0-7.09a.18.18,0,0,0,.2-.21c-.16,0-.25.05-.27.17l.07.06Zm.2,3.37c.14,0,.21,0,.21-.11s-.25-.1-.41.07-.07.14,0,.14S106.75,54.31,106.89,54.31ZM106.66,59a.35.35,0,0,0,.21-.07,1.14,1.14,0,0,0,.14-.11l.07-.05a.7.7,0,0,0-.42.21Zm.19-3.56c0-.14,0-.2-.16-.2v.41C106.8,55.68,106.85,55.61,106.85,55.47Zm.23,1.31c-.12,0-.19,0-.21,0s0,.09,0,.21h.2q.45-.42.21-.42a.19.19,0,0,1-.07.16s-.07.07-.09.07H107ZM107,58.31c-.09,0-.14,0-.14,0s0,.1.16.21Zm.07.7c0,.11.06.16.2.16s.16-.05,0-.16Zm.16.81c.13.14.2.14.2,0Zm0-14.41q0,.42.21.42Q107.47,45.41,107.26,45.41Zm.66,3.63c-.16,0-.25,0-.27.16l.09,0C107.86,49.24,107.92,49.18,107.92,49Zm-.11,12a.37.37,0,0,1,.09-.28.14.14,0,0,0-.14.07s0,.07,0,.09V61C107.79,61,107.81,61.05,107.81,61Zm.3-2.46c.14,0,.21,0,.21-.12-.33,0-.49,0-.46.12l0,.09C107.9,58.59,108,58.57,108.11,58.57Zm0,.72s0-.1.16-.14.14-.14.07-.3c-.12,0-.21.07-.28.23s0,.18.07.18Zm.2,1.39a.18.18,0,0,0-.2-.21c0,.12,0,.19,0,.21s.09,0,.21,0ZM108.11,48a.16.16,0,0,0,.14-.07.54.54,0,0,0,0-.12l0-.07c-.14,0-.21.07-.21.23Zm3.08,3.09a1,1,0,0,0,.59-.84c0-.21-.13-.39-.41-.56a2,2,0,0,0-1-.25,2.85,2.85,0,0,0-1.45.21.77.77,0,0,0-.09.42,5.62,5.62,0,0,0,.05.62c0,.26,0,.47,0,.63a5,5,0,0,0,1.86-.21ZM109,52.78c-.07,0-.12,0-.14,0l.14.07c.16,0,.23,0,.23-.07Zm.14-7.42c-.16,0-.23.14-.23.42C109,45.78,109.1,45.64,109.1,45.36Zm.27,12.16c.07-.07,0-.12-.14-.14s-.32,0-.34.07a0,0,0,0,0,0,.07h.48Zm-.43,2.19a.2.2,0,0,1,.06.11h.1c.07,0,.11,0,.11,0a.16.16,0,0,0,0-.09h-.25Zm.34,1.34a.23.23,0,0,0,.14,0s0,0,0-.07l0-.07Zm.83-12.46v.19C110,48.76,110,48.69,110.11,48.59ZM110.2,58a.29.29,0,0,1,.14-.21.34.34,0,0,0-.14,0q-.21.21,0,.21Zm-.09-5.76c0-.07,0-.12.16-.17h-.16Zm.23,1.28a.4.4,0,0,0,.2-.07l.14-.12.07,0a.25.25,0,0,0-.44.19Zm.48,6.29c-.28,0-.41.07-.41.21A.69.69,0,0,0,110.82,59.84Zm-.16-.2a.12.12,0,0,0,0-.14l-.18.21Zm-.14-8c0,.28.07.41.23.41a.26.26,0,0,0-.09-.2s0,0,.07,0a.18.18,0,0,0,.2-.21Zm.44-5.84v-.42h-.21v.42Zm.82,5.53a.19.19,0,0,0-.16.1.15.15,0,0,1-.13.09c.2,0,.32-.07.32-.21ZM111.6,48q.18-.07.18-.21C111.67,47.83,111.6,47.9,111.6,48Zm.34,3a.32.32,0,0,0-.09.21s0,0,.05-.09a.43.43,0,0,0,0-.14Zm.19-5.44c.2,0,.32,0,.37-.11a.7.7,0,0,0,.07-.33c-.3,0-.44.14-.44.42Zm.09,3.81a.35.35,0,0,0,.21-.07l.18-.11,0-.05c-.3,0-.44.07-.44.21Zm.41-1.27a.87.87,0,0,0-.27,0s0,.09,0,.21Zm0,3.32q-.21,0-.21.42c.07,0,.12-.05.17-.12a.42.42,0,0,0,.06-.21v-.11Zm-.14,4.65c-.09.12,0,.18.21.21Zm.6-10.44V45.5h-.18v.21ZM113,58.54a.9.9,0,0,1,.19.05.7.7,0,0,0,.18,0s.07,0,.07-.1H113Zm.23-2.88,0-.16-.21.21C113.16,55.8,113.21,55.78,113.23,55.66Zm.25-8.51a.5.5,0,0,0,0-.21s-.09,0-.21,0a.21.21,0,0,0,0,.14s0,0,.07,0l.07,0Zm-.2,10.65c.16,0,.23-.07.2-.21s0-.16-.13-.12l-.1.12c.1,0,.14,0,.16,0l-.16.19Zm0-6.23c.07,0,.11,0,.13-.07a.28.28,0,0,0,0-.12l0,0a.18.18,0,0,0-.2.21Zm.32,4a.34.34,0,0,0,.14,0s.09,0,.16-.1a.11.11,0,0,1-.12-.11c0-.07,0-.12-.09-.12s0,.19,0,.21a.48.48,0,0,1-.21,0A.39.39,0,0,1,113.6,55.59Zm.11-3.49a.21.21,0,0,0,.14,0l.07-.05h-.41A.26.26,0,0,0,113.71,52.1Zm-.18-4.71c.25,0,.37-.07.37-.19A.44.44,0,0,0,113.53,47.39Zm.39,6.9a.28.28,0,0,0-.21.09c-.07.07-.11.1-.16.1.23,0,.35-.07.35-.21Zm-.09,3.25s0-.11.16-.18.14-.14.07-.21a.17.17,0,0,1-.09.16,1,1,0,0,1-.16.09s0,.07,0,.14Zm0-1.32c.11,0,.21-.07.27-.23l0,0,0,0-.23.21Zm.41-9.9c.09-.07.12-.14.05-.21s-.14.21-.42.39c0,0,0,0,0,0Zm0,12.62c-.12-.12-.21-.14-.28,0a.22.22,0,0,0,.09.07Zm-.23-5.6v.21Q114.21,53.55,114,53.34Zm0,3.74.18-.21Q114,56.87,114,57.08Zm.09,3.88a.11.11,0,0,1,0-.09.08.08,0,0,1,.07,0,.08.08,0,0,0,.07,0,.13.13,0,0,0,0-.09.38.38,0,0,0-.28.11c0,.07,0,.1.07.1Zm0-6.25c.25,0,.36-.07.36-.21h-.2A.2.2,0,0,1,114.13,54.71Zm.18-9a.27.27,0,0,1-.14.23h.35v-.21C114.38,45.69,114.31,45.69,114.31,45.67Zm.16,2c-.11,0-.18,0-.2,0s0,.09,0,.21Zm-.18,12.2a.2.2,0,0,0,.16-.07.3.3,0,0,0,.07-.11v-.05c-.12-.07-.19-.09-.21-.07a.66.66,0,0,0,0,.25Zm.16-1.12a.5.5,0,0,0,.21,0s0-.09,0-.21l-.21.21Zm.48-7.15c0-.12,0-.19,0-.21s-.09,0-.21,0v.21Zm.25,3.3,0-.05c-.28,0-.42.07-.42.19A.65.65,0,0,0,115.18,54.92Zm.14-8a.83.83,0,0,0-.27,0s0,.1,0,.21Zm-.25,4.67s0,0,0-.09S115,51.59,115.07,51.59Zm0-1.67c.16,0,.25-.05.28-.14s-.05-.05-.07-.05,0,.1-.09.1-.1,0-.1.09Zm0,.42c.16,0,.25-.05.27-.16l-.07-.07a.18.18,0,0,0-.2.2Zm.16,1.21-.12,0,.26-.09A.47.47,0,0,0,115.3,51.55Zm.87-5.26c-.3,0-.43.07-.43.21A.59.59,0,0,0,116.17,46.29Zm-.3,10c.07,0,.07.09,0,.19H116a.19.19,0,0,1-.11,0s0-.05,0-.07v-.07Zm.35-8s0,0,0,0a.19.19,0,0,0-.21.21Zm.13.24q.21-.07.21-.21A.19.19,0,0,0,116.35,48.48Zm.14,6.72-.11.09c0,.11,0,.14.11.09l.09-.09C116.58,55.17,116.56,55.15,116.49,55.2Zm.3-.14a.25.25,0,0,0,.25-.14.27.27,0,0,0-.06-.31.29.29,0,0,1-.1.21.28.28,0,0,0-.09.21Zm.09-3.86a.32.32,0,0,1,.16-.14h-.16Zm0,3.35a.12.12,0,0,1,.1,0,.07.07,0,0,0,.09,0s0,0,0-.09A.22.22,0,0,0,116.88,54.55Zm.05-7a.5.5,0,0,0,.21,0s0-.07,0-.16l-.21.18Zm.21,11.44c0,.14,0,.21-.16.21.11,0,.18,0,.2,0s0-.09-.07-.2Zm.27-9a.43.43,0,0,0-.18.05l0,0c0,.11.07.14.23.09l.21-.09A.29.29,0,0,0,117.41,49.94Zm.19.1a.54.54,0,0,0,0-.12.26.26,0,0,0-.09-.14v.4A.24.24,0,0,1,117.6,50ZM118,55.4q-.42-.19-.42,0a.21.21,0,0,1,.21-.07l.14.07s0,0,.07-.07ZM117.6,58c0,.07,0,.12.06.14a.22.22,0,0,0,.16,0A.51.51,0,0,0,118,58Zm.16.56a.39.39,0,0,1-.05.14.8.8,0,0,0,0,.11s0,.08.1.15Zm.46-1.35a.18.18,0,0,0,.2-.21c-.16,0-.25,0-.27.16a.23.23,0,0,0,.07.07Zm.2-2.09v-.19h-.2v.19Zm.12,4.46q-.21-.1-.21,0Zm.3-9.67v-.18h-.21v.18Zm.41,10c.16,0,.25,0,.27-.16l-.09,0s0,.07,0,.09a.07.07,0,0,1-.07,0,.1.1,0,0,0-.07,0s0,0,0,.09Zm.62.63c-.09,0-.14,0-.14,0l.14.07c.11,0,.18,0,.21-.09Zm.18.44v-.21h-.2V61Zm.58-3.14c.13,0,.2,0,.2-.11s-.27-.1-.43.07,0,.11,0,.14S120.49,57.82,120.63,57.82Z"/><path class="aadb7140-ec18-4201-a918-bb25d00d8719" d="M122.81,57.24c0-.12.14-.19.41-.19C123.22,57.17,123.09,57.24,122.81,57.24Zm5.44-7.2c-.11,0-.18,0-.2,0s0-.09,0-.21-.13.07,0,.21c-.11,0-.18,0-.2,0s0,.07,0,.16v.21h0s0,0-.07.07a.34.34,0,0,0-.05.16l0,.07a.63.63,0,0,0-.12.14.44.44,0,0,0-.07.21v.21h-.2a.36.36,0,0,0,0,.14.35.35,0,0,0,.07.09s0,0,0,.09a.17.17,0,0,1-.07.14v.4H127v.21c0,.14-.07.21-.19.21v.39h-.21v.4l-.2.21V54l-.21.19v.21l-.18.21a7.36,7.36,0,0,0-.32.74l-.28.7v.39a.36.36,0,0,1-.11.21.33.33,0,0,0-.12.21l-.76,0c-.32,0-.57-.05-.78-.05a.93.93,0,0,0-.48.09,2,2,0,0,0-.18,1v.39a3.93,3.93,0,0,1,0,1.3,2.78,2.78,0,0,0,0,1.12.8.8,0,0,0,.8.39h.6a13.17,13.17,0,0,0,1.72.1c.62,0,1.31,0,2,0s1.27-.05,1.61-.05c.19,0,.42,0,.69.05s.51,0,.71,0a1.61,1.61,0,0,0,.58-.1V56.8h-.21l-.46,0c-.23,0-.46,0-.69,0a1.76,1.76,0,0,0-.62.09.45.45,0,0,1,.09-.23.71.71,0,0,0,.1-.37h3.81a.68.68,0,0,0,.09.3.74.74,0,0,1,.09.32h-1.61V57h.42c0,.12-.14.19-.42.19a.86.86,0,0,1,.21.63v1.6a5.2,5.2,0,0,0-.21,1.63h.81c.71.07,1.49.09,2.36.09s1.82,0,2.83-.05l2.23,0h1.21a2.66,2.66,0,0,1,.35,0c.16,0,.27,0,.37,0a1.37,1.37,0,0,0,.34-.07,1,1,0,0,0,.35-.21,7.2,7.2,0,0,0,.18-2v-.39c0-.07,0-.26,0-.54a2.31,2.31,0,0,0,0-.65.75.75,0,0,0-.2-.42H141a1.18,1.18,0,0,1-.21-.81.07.07,0,0,1-.06,0,.31.31,0,0,0,.06-.19h-.2v-.19a.19.19,0,0,0-.21-.21V55c0-.1-.09-.21-.14-.33a1.22,1.22,0,0,0-.14-.28,1,1,0,0,0-.16-.21V54a.18.18,0,0,0-.2-.21,1.72,1.72,0,0,0-.21-.82.57.57,0,0,1-.14-.23,1.87,1.87,0,0,0-.13-.28.19.19,0,0,0-.17-.09v-.42c.07-.09.07-.16,0-.18a1.44,1.44,0,0,1-.39-1,21.55,21.55,0,0,1-1.21-2.86l-.21-.21v-.39h-.18v-.63h-.21v-.39h-.21V46l-.2-.21v-.4h-.19a.39.39,0,0,0-.14-.3.4.4,0,0,0-.29-.14h-1.8a4.11,4.11,0,0,0-.94-.09c-.32,0-.66,0-1,0s-.64.05-.81.05h-1.19a.35.35,0,0,0-.28.14.55.55,0,0,0-.11.3v.21a.34.34,0,0,0-.16,0,.37.37,0,0,0-.14.14.66.66,0,0,1-.14.18v.42a.18.18,0,0,1-.2.19v.21l-.19.21v.25a.1.1,0,0,1,0,.07.18.18,0,0,1-.14,0c.11.05.18.11.18.21h-.2V48h-.21v.42l-.21.21v.19c0,.14-.07.21-.18.21v.2l-.21.21v.4a.19.19,0,0,1,.21.21Zm-5.16,8.46q-.21,0,0-.21a.07.07,0,0,1,.06,0A.31.31,0,0,0,123.09,58.5Zm2-.47v0s0-.05,0-.07a.17.17,0,0,1,.14-.05.52.52,0,0,1-.12.28.33.33,0,0,1-.27.14c-.07-.12-.1-.19,0-.21a.64.64,0,0,1,.28,0Zm-.23-.39q.39,0,.39-.21.21,0,0,.21a.29.29,0,0,0-.2.11.33.33,0,0,1-.21.12Zm.23,3h-.18v-.21h.18Zm0-1.19v-.18h.39a.88.88,0,0,1-.42.18Zm.46.79c0-.11.2-.18.59-.18a.45.45,0,0,1-.2.21.45.45,0,0,1-.23,0,.57.57,0,0,0-.19,0Zm.23-5h-.19a.23.23,0,0,1,0-.14s0,0,.07,0a.23.23,0,0,1,0,.14Zm.57.42h-.41c0-.07,0-.09.07-.09l.16,0A.49.49,0,0,0,126.3,55.66Zm-.11,3.19,0,0c.09.05.14.09.12.12s-.12.06-.37.06a.13.13,0,0,1,0-.09.11.11,0,0,1,.07,0,.1.1,0,0,0,.07,0,.15.15,0,0,0,0-.1Zm-.1-5.24h.21c0,.12-.07.14-.21.07S126,53.61,126.09,53.61Zm.35.4c0,.12-.14.19-.41.19C126,54.08,126.16,54,126.44,54Zm-.3,6.07a.19.19,0,0,1,.21-.21l.2-.14s0-.07,0-.14a1.19,1.19,0,0,1,0-.14.29.29,0,0,1,.13.32.53.53,0,0,1-.55.31Zm.23-6.7V53.2h.18A.17.17,0,0,1,126.37,53.38Zm.32-1.09a.48.48,0,0,1,.21,0,.5.5,0,0,1,0,.21h-.21Zm0,3h.21c.11,0,.11,0,0,.07S126.69,55.36,126.69,55.24Zm0,4.16c0-.07,0-.09.1-.09s.09,0,.09-.09.11,0,.07.14-.16.16-.28,0Zm.16,1.1c-.09,0-.11,0-.06-.14s.16-.17.27-.07l0,0a.28.28,0,0,0-.12,0s-.07.07-.07.14Zm.1-3.65c.07.07.09.11.07.14l-.26.06Zm.32-1.05V56h-.42V55.8Zm-.19-4.07h-.2v-.21C127,51.52,127.1,51.59,127.1,51.73Zm.05-.37v-.07a.1.1,0,0,1,0-.07.2.2,0,0,1,.13,0q0,.21-.18.21Zm.55,9.16h-.2c0-.07,0-.09.11-.09a.11.11,0,0,0,.09,0Zm.19-8.62c.11.11.09.2,0,.27s-.14,0-.14-.07,0-.07,0-.09a.11.11,0,0,1,.07,0s0,0,.07,0,0,0,0-.09Zm-.07-.07,0,0,.25-.18a.13.13,0,0,1,0,.09.11.11,0,0,1-.07,0,.07.07,0,0,0-.07,0,.11.11,0,0,0,0,.09Zm0,1q0-.18.21,0Zm.09-3.56v0s0-.05.07-.09a.2.2,0,0,1,.16-.07c0,.11,0,.18,0,.2s-.09,0-.21,0Zm0,9.35c0-.09,0-.14,0-.16s.09,0,.2,0l0,.05a.1.1,0,0,1,0,.07.2.2,0,0,1-.13,0Zm.16-2.37v-.21Q128.23,56.08,128,56.29Zm.39-8v.42c-.11,0-.16-.07-.16-.21S128.3,48.29,128.41,48.29Zm.28,2.63a.59.59,0,0,1-.39.18A.68.68,0,0,1,128.69,50.92Zm-.39,5.9a.47.47,0,0,0,.32.21.26.26,0,0,0-.11,0l-.07,0h-.05a.07.07,0,0,1,0-.07v-.16Zm.39-6.2-.18.21c0-.12,0-.19,0-.21s.07,0,.16,0Zm-.18,7.09c0-.12,0-.19,0-.21s.07,0,.16,0Zm.25-5.14-.19-.21.1,0a.18.18,0,0,1,.13,0s0,.07-.06.14Zm.11,2s.1-.06.12,0,0,0,0,.09-.06.16-.16.16Zm.23-8.36c.07,0,.09,0,.09.07a.73.73,0,0,1,0,.16,1,1,0,0,0-.05.18c-.07-.07-.09-.11-.09-.14a.31.31,0,0,1,.05-.11.37.37,0,0,0,0-.14Zm.16,9.57c-.13-.07-.2-.11-.18-.14a.82.82,0,0,1,.34,0,.2.2,0,0,0-.13.18Zm.26,3.26a.19.19,0,0,1-.21.21c-.12,0-.18,0-.21,0s0-.09,0-.21Zm-.26,0a.8.8,0,0,1,.28,0C129.52,59.19,129.42,59.19,129.26,59.1Zm0-7,.07,0a.18.18,0,0,1,.13,0,.28.28,0,0,1,.21.09c0,.12-.07.16-.21.16S129.29,52.27,129.29,52.15Zm.25,1.07a.35.35,0,0,1-.14-.07c0-.07.09-.12.28-.14-.12,0-.16.09-.16.21Zm-.12-7.16h.19a.23.23,0,0,1,.07.14.1.1,0,0,1-.14.07c-.07,0-.12-.09-.12-.23Zm0,1.84c0-.14.07-.21.19-.21l.2.21Zm.28-2.47a.19.19,0,0,1-.21.21c0-.11,0-.18,0-.21s.09,0,.2,0Zm0,13.67c-.11-.14-.13-.23-.09-.28a.2.2,0,0,0,.07-.11c.07.06.07.11,0,.14s-.07.11,0,.27Zm0-4.69.2-.21a.18.18,0,0,1-.2-.19c.14-.14.2-.14.2,0v.19C129.81,54.34,129.75,54.41,129.61,54.41Zm.11-2.51c-.14-.12-.14-.19,0-.19h.21C129.93,51.83,129.86,51.9,129.72,51.9Zm0,5.32a.76.76,0,0,1-.1-.21s0,0,.12,0a.45.45,0,0,0,.14,0c-.12.07-.16.14-.16.21Zm-.05-1.77a.17.17,0,0,1,.23-.23Zm.3-10.2h.39l-.07,0a.17.17,0,0,1-.14.05.25.25,0,0,1-.2-.09Zm.3,1.39c0,.14-.07.14-.19,0S130.18,46.39,130.3,46.64Zm0,3.26c0,.11,0,.18,0,.21s-.06,0-.16,0,.07-.21.19-.21Zm-.19,1.83h.19v.19h-.19Zm0,8.58h.18a.17.17,0,0,1,0,.14,0,0,0,0,1-.06,0,.17.17,0,0,1-.05-.14Zm0-6.74.18-.21a.27.27,0,0,1,0,.14Zm.64-4.44H131a.45.45,0,0,1-.14.07c-.14,0-.21,0-.19-.07s.05,0,.14,0Zm.42-3.63c-.07-.16-.07-.25,0-.28l.2.05,0,.07a.1.1,0,0,1-.05.07.2.2,0,0,1-.13.05Zm.18,7.23v.14h-.16c.07,0,.11,0,.14-.14Zm.21-4.62,0,0-.25.18c-.05,0-.07,0-.05,0Zm-.23,1.18s0-.07,0-.09a.1.1,0,0,1,.07,0,.08.08,0,0,0,.07,0s0,0,0-.09.09.07.07.16-.16.16-.28.05Zm.25,5.93c-.23-.12-.28-.21-.12-.28a.3.3,0,0,1,.28.07h0s0,0-.06.07a.28.28,0,0,0-.05.16Zm.44-2.54a.35.35,0,0,1,.06-.16,1.84,1.84,0,0,0,.1-.16.11.11,0,0,1-.07,0l-.14-.09a.27.27,0,0,0-.14.05.44.44,0,0,1-.18,0,.55.55,0,0,1-.28-.09.89.89,0,0,1,0-.28.58.58,0,0,1,.09-.23l.14-.23a1.25,1.25,0,0,0,.13-.26l.05-.07a.35.35,0,0,0,.07-.14.78.78,0,0,0,0-.21v-.63a1.19,1.19,0,0,1,.21.82l0,0a.9.9,0,0,0,.05.19.51.51,0,0,0,.14.21v.81a.26.26,0,0,1-.07.17l-.19.14-.18.13Zm-.51-7.39c.09,0,.12.07.07.21s-.07.12-.07,0-.09-.09-.07-.09S131.56,45.36,131.56,45.29Zm.57,1.75.1,0c0,.12-.12.17-.28.17a.19.19,0,0,1,.21-.21Zm0-.33s-.07-.05-.07-.07.07,0,.19,0l.25,0Zm.35,11.37c-.05.07-.1.09-.12.07s0,0,0-.07V58c0-.09,0-.14.06-.12Zm0-10.62s0,0-.07-.05.12-.14.28-.14C132.71,47.39,132.64,47.46,132.5,47.46Zm.19,12.71-.21.19c0-.1,0-.14,0-.17s.09,0,.21,0Zm0-14c.07.12.09.19.07.21s-.09,0-.21,0c.12,0,.17-.07.17-.21Zm.14-.86a.19.19,0,0,1-.21.21l0,0s0,0,0-.09A.14.14,0,0,1,132.8,45.27Zm.09,12.65c-.16,0-.23.09-.2.18-.07-.07-.1-.11-.07-.14Zm0-9.21a.37.37,0,0,1-.25.12.68.68,0,0,0,.28-.12Zm-.18-3.42h.41c0,.07,0,.1-.07.1a1,1,0,0,1-.18,0,1,1,0,0,0-.18-.05Zm0,13.81c0-.07,0-.09.07-.09l.16,0a.55.55,0,0,0,.18.05Zm.32-1a.36.36,0,0,1-.11.21.33.33,0,0,0-.12.21c-.09-.12-.11-.21-.05-.31a.35.35,0,0,1,.28-.14Zm-.21-2.28a.13.13,0,0,1,0-.21.28.28,0,0,1,.42,0h-.09a.8.8,0,0,0-.21,0A.15.15,0,0,0,132.82,55.8Zm0-8.21.12-.07c.06,0,.09,0,.09.07Zm.32.89q-.21,0,0-.21l.07,0c.09,0,.12.1.09.12Zm.23,8.76a.29.29,0,0,0-.23-.09s0,0,.07-.1h.19Zm.12-7.06c0-.1.09-.14.2-.17s.07.07,0,.17Zm.09,3.34-.09,0c0-.12.11-.17.27-.17a.18.18,0,0,1-.2.21Zm.16-7.06c0,.09,0,.13,0,.16a.5.5,0,0,1-.21,0c0-.09,0-.14,0-.16A.48.48,0,0,1,133.72,46.46Zm-.18,9.5c0-.14.06-.21.2-.21s0,.19,0,.21-.09,0-.21,0Zm0,1.09.2-.2c0,.11,0,.18,0,.2s-.09,0-.21,0ZM133.7,53h.18c0,.11-.07.16-.18.16S133.58,53.1,133.7,53Zm.52-5.33c-.06,0-.09,0-.06-.14s.13-.25.27-.25a.31.31,0,0,1-.11.21.33.33,0,0,0-.12.21Zm.51.28-.07.05a.21.21,0,0,1-.14,0,.28.28,0,0,1-.2-.1Zm-.39,8.84a.1.1,0,0,1,.07-.05s.07.09.07.21-.07.14-.16.07Zm.07-8h.18l-.2.09S134.34,48.9,134.41,48.83Zm.09,3.37c.07,0,.09,0,.09-.07s0,0,.09.09l-.2.09s0,0,0-.09Zm.21-7-.19.21c-.07-.17-.07-.26,0-.28Zm-.09,3.13-.05,0,.25-.18a.15.15,0,0,1,0,.09.11.11,0,0,1-.07,0,.08.08,0,0,0-.07,0s0,0,0,.1Zm0,3.4c-.07,0-.09,0-.09-.05s.07-.11.23-.14a.24.24,0,0,0-.14.21Zm-.07-2.35c0-.07.07-.09.19-.09A.22.22,0,0,1,134.59,49.43Zm.26-4.11q.19,0,0,.21Zm.16,3.9c0,.07,0,.09-.07.05S135,49.24,135,49.22Zm.45,8.25a1.27,1.27,0,0,1-.27.21l-.25.14C135.17,57.59,135.35,57.47,135.46,57.47Zm0-2.25.14.11c0,.07-.18.1-.55.1,0-.07.07-.1.21-.1S135.46,55.29,135.46,55.22Zm-.09-7.63s0,0-.11.07A.24.24,0,0,1,135.37,47.59Zm.14.89h-.18v-.21h.18Zm.07,1.46c0-.14.14-.14.41,0Zm.34-.63H136s.05,0,.07.07a.42.42,0,0,1,.05.17c-.1,0-.14,0-.17,0s0-.09,0-.21Zm.17-1.6c.25.14.27.21,0,.21,0,0,0,0,0,0a.08.08,0,0,0,0-.07l-.07-.12Zm.41,4.49h-.41c0-.07,0-.1.06-.1a.77.77,0,0,1,.17,0A.7.7,0,0,0,136.5,52.2Zm-.41,6.9c0-.07,0-.09.06-.09a.68.68,0,0,1,.17,0,.45.45,0,0,0,.18.05Zm.13,1a.29.29,0,0,1,.1-.21.32.32,0,0,0,.09-.21.28.28,0,0,1,.07.3.26.26,0,0,1-.26.14Zm.16-6.42c0,.07,0,.07-.11,0Zm.07,1.77c-.07,0-.09,0,0-.07s.09-.11.07-.14.09,0,.11,0a.26.26,0,0,0-.14.2Zm.12-5.27h.2s-.06.06-.16.09l-.18-.07S136.48,50.18,136.57,50.18Zm.2,1.53h.39c0,.09-.06.14-.2.14s-.21-.05-.21-.14Zm0,5.44s0,0,.07,0Zm.3-7.21c0,.12,0,.19,0,.21s-.09,0-.2,0l-.05,0Zm0,3.4a.17.17,0,0,1-.23.23.19.19,0,0,1,.21-.21Zm-.14,3.6c.12,0,.09.05-.07.14A.19.19,0,0,0,137,56.94Zm.28,1.16c.07.07.07.12,0,.14a.53.53,0,0,1-.18,0c.11,0,.16-.07.16-.21Zm.85.54c0-.1,0-.14,0-.17s.09,0,.21,0l0,0s0,0,0,.07a.23.23,0,0,1-.14,0Zm4.61-1.42h-.2a.75.75,0,0,1-.28,0s-.07,0,0-.07a.4.4,0,0,1,.16-.07c.23,0,.34,0,.34.17Z"/><path class="aadb7140-ec18-4201-a918-bb25d00d8719" d="M159.31,45.39c0,.11,0,.14.13.07s.19-.17.07-.28c.19,0,.44,0,.76,0s.62-.05.9-.05a2.88,2.88,0,0,1,.78.1,5.38,5.38,0,0,1,.2,1.65v1.23a3.21,3.21,0,0,1-.2,1.39,2.33,2.33,0,0,1-.9.12,2.23,2.23,0,0,0-.89.12,1.85,1.85,0,0,0-.21.67,5.15,5.15,0,0,0,0,.79c0,.33.05.51.05.58v4.12a5.35,5.35,0,0,1-.83,3.27,4.87,4.87,0,0,1-1,1.24l-.19.21a.25.25,0,0,1-.2.09.28.28,0,0,0-.21.09h-.18c0,.07,0,.12-.16.12a.38.38,0,0,0-.28.11,2.11,2.11,0,0,1-1,.21h-.6a1,1,0,0,0-.34.1,1.14,1.14,0,0,1-.46.09H150a.68.68,0,0,1-.3-.09.73.73,0,0,0-.3-.1H149c0-.14-.07-.21-.18-.21a3.43,3.43,0,0,1-.53-.11,3.74,3.74,0,0,0-.5-.12.61.61,0,0,0-.39-.18.25.25,0,0,1-.23-.19v-.05H147v-.18h-.39v-.21a4.8,4.8,0,0,1-1-.84c-.05,0-.1-.05-.14-.11a1.82,1.82,0,0,1-.14-.28.83.83,0,0,0-.16-.28c-.16,0-.23-.07-.23-.19a.28.28,0,0,1-.09-.21.32.32,0,0,0-.09-.21,3,3,0,0,1-.21-.81V55.36a.19.19,0,0,0,.21-.21v-.4c.06,0,.16-.11.29-.32s.26-.33.33-.33a.38.38,0,0,1,0-.16s0-.07.07-.07h.05v-.19h.2v-.23h.21a.38.38,0,0,0,.16,0c.05,0,.07,0,.07-.07v-.07h.21a7,7,0,0,1,.82-.35.12.12,0,0,1-.07.11s-.06,0-.09,0h0a.77.77,0,0,0,.2.14.62.62,0,0,0,.21-.14.21.21,0,0,0-.11-.19s.06,0,.11,0a2.72,2.72,0,0,1,1.84,0h.2l.19.21h.21l.18.19a3.48,3.48,0,0,0,.41.32,3.46,3.46,0,0,1,.42.3v.21h.2v.21l.21.19a.28.28,0,0,1,.09.21,2.06,2.06,0,0,1,0,.28,1.33,1.33,0,0,0-.05.34c0,.07,0,.12.07.14a.25.25,0,0,0,.11.05h.05a1.72,1.72,0,0,1-.05.37,2.88,2.88,0,0,0,0,.35.66.66,0,0,0,.09.33c0,.14.14.21.39.21v-.21a.28.28,0,0,1,.21.09.25.25,0,0,0,.2.09c.12,0,.19-.07.19-.21h.2a.38.38,0,0,1,0-.16c0-.05.05-.07.07-.07h0a.33.33,0,0,0,.12-.21.28.28,0,0,1,.09-.21.33.33,0,0,1,0,.42c-.12.12-.16.19-.16.21s.13,0,.2-.07.14-.16.21-.16a.28.28,0,0,1,.09-.21.28.28,0,0,0,.09-.21H153V55a.33.33,0,0,1,.12-.21.36.36,0,0,0,.11-.21H153c0-.34,0-.9,0-1.67s0-1.46,0-2.09a10.79,10.79,0,0,0-.09-1.61,5.38,5.38,0,0,0-.62,0c-.28,0-.48,0-.64,0a2,2,0,0,1-.53-.07.67.67,0,0,1-.41-.23.82.82,0,0,1-.1-.42c0-.16,0-.35.05-.56s0-.35,0-.42,0-.46,0-.83-.05-.72-.05-1a3.12,3.12,0,0,1,.1-.84h.82l1.17,0c.53,0,1,.05,1.45.05a6.66,6.66,0,0,0,1.22-.09h1a3.36,3.36,0,0,1,.89-.1c.35,0,.74,0,1.18.05s.78,0,1,0a.23.23,0,0,1,0,.14.13.13,0,0,1-.07,0h-.07Zm-14.66,10a.32.32,0,0,1,.16-.09.53.53,0,0,1,.16,0c.05,0,.07,0,.1,0a.11.11,0,0,0,0-.09c-.3,0-.43.07-.43.21Zm.44-.51a.19.19,0,0,0,.07-.14v0c0-.07,0-.09.09-.09s.09,0,.09-.09a.4.4,0,0,0-.27.14.37.37,0,0,0-.14.3A.2.2,0,0,0,145.09,54.87Zm.28,2.63s0-.07-.07-.14l-.21.21Zm.16-1.51a.44.44,0,0,1-.07.21.08.08,0,0,0,.07,0C145.66,56.06,145.66,56,145.53,56Zm.09-1.7c0-.07,0-.12.14-.16s.16-.07.18-.1,0-.07-.14-.14,0,.1-.14.14-.16.07-.18.1,0,.07.14.14Zm-.12.81c.14,0,.21-.07.21-.23C145.57,54.87,145.5,54.94,145.5,55.1Zm.09,1.58v.21h.21A.19.19,0,0,0,145.59,56.68Zm.28-1.14a.5.5,0,0,0,.21,0s0-.09,0-.21a.41.41,0,0,0-.3.14.42.42,0,0,0-.14.28Zm.32,1.07c0-.09,0-.14,0-.16s-.09,0-.21,0l.21.18Zm-.14-3a.46.46,0,0,0,.14.09c.05,0,.07,0,.09,0l.1-.07a.33.33,0,0,1,.13,0s0-.07,0-.09,0,0,.07,0a.07.07,0,0,0,.06,0s0,0,0-.09a.85.85,0,0,0-.6.2Zm.12,5.21a.55.55,0,0,1,.18.05l.16,0c.05,0,.07,0,.07-.09h-.41Zm.16,1a.14.14,0,0,0,.14-.07.37.37,0,0,0,0-.11l0,0a.19.19,0,0,0-.21.21Zm.55-4.71c-.25,0-.39.07-.39.2C146.74,55.33,146.88,55.27,146.88,55.13Zm0-1.79s-.05,0-.1,0v0A.15.15,0,0,1,146.84,53.34Zm.41,6a.1.1,0,0,0-.07,0v.18A.2.2,0,0,1,147.25,59.31Zm.14-6c-.1,0-.14,0-.16,0s0,.09,0,.21Zm0,2.26c.07.16.14.18.21.07a.27.27,0,0,0,0-.31.21.21,0,0,1,0,.14l-.07.07h0Zm1.13,2.72a.54.54,0,0,0,0-.12v-.05c-.09,0-.13,0-.16,0s0,.09,0,.21A.15.15,0,0,0,148.49,58.29Zm-.09,1.18a.17.17,0,0,0,.18-.18Zm.13-5.79a.21.21,0,0,0,.14,0s0,0,0-.07a.21.21,0,0,0-.14,0Zm.3.26a.28.28,0,0,0,.21-.09,1.74,1.74,0,0,1,.14-.14.58.58,0,0,0-.35.21Zm.14,1.77c.09,0,.14,0,.16,0s0-.09,0-.21a.14.14,0,0,0-.13.07c0,.05-.05.07-.05.1v.07Zm0,2.86q.18,0,.18-.21c-.09,0-.13,0-.16,0s0,.09,0,.21Zm.12.44c.25,0,.39-.07.39-.24h-.16a.38.38,0,0,0-.17,0c-.06,0-.09.05-.09.07s0,.07.05.14Zm.46,1c.11-.09.09-.14-.07-.14s-.26,0-.28.14a.24.24,0,0,1,.16-.09.37.37,0,0,1,.14,0,.27.27,0,0,0,.14.05Zm0-6.11c-.12.16-.12.23,0,.23C149.71,53.92,149.71,53.85,149.55,53.85Zm.23,5c.13,0,.2-.07.22-.21h.21c0-.09-.09-.11-.21-.07a.63.63,0,0,1-.22.07Zm.25-1.39c0,.11,0,.18,0,.21a.29.29,0,0,0,.1-.12c0-.05,0-.07.07-.07H150Zm.2-2.26c0-.07,0-.11.07-.11s0-.05-.09-.12c-.11.16-.11.23,0,.23Zm.35-9c-.09.09-.09.14,0,.16a.24.24,0,0,0,.21-.16Zm.09-.4a.29.29,0,0,0,.28-.13c0-.07,0-.1-.07-.1a.08.08,0,0,1,0,.07.08.08,0,0,1-.07,0h-.07c-.1,0-.1,0,0,.11Zm.07,14.28a.1.1,0,0,0,.07,0c.14,0,.21-.07.21-.23h-.21A.35.35,0,0,1,150.74,60.08Zm.57-2.42v-.19h-.2v.19Zm0-11c0-.12-.05-.18-.14-.18v.18C151.29,46.76,151.34,46.76,151.34,46.64Zm.71-.72v-.21h-.23v.21Zm-.09,2,.2-.14a.31.31,0,0,0,.14-.14.25.25,0,0,0,0-.16.42.42,0,0,0-.28.14.42.42,0,0,0-.14.3Zm1-2h-.23c0,.09,0,.14,0,.16a.5.5,0,0,0,.21,0Zm.14,4.3v-.21h-.19v.21ZM153,55.54c.07,0,.11,0,.13-.07a.25.25,0,0,0,.05-.11l0,0a.18.18,0,0,0-.2.21Zm.2.86s0-.07,0-.09c-.12.07-.12.09,0,.09Zm0-4.69a.17.17,0,0,0,0,.14l.26-.07a.39.39,0,0,0-.05-.14Zm0-3.12c.14,0,.21-.11.21-.18S153.29,48.48,153.29,48.59Zm0-2.81a.31.31,0,0,0,.21-.11l.14-.14c-.23,0-.35.07-.35.23Zm.21,4.88v-.18h-.21v.18Zm.05,3.09a.2.2,0,0,1,.14-.2c-.23,0-.35.06-.35.2Zm.09-5.48a.07.07,0,0,0,.07,0,.13.13,0,0,0-.07,0h-.18C153.5,48.29,153.56,48.31,153.68,48.27Zm.14,6.69v-.23h-.19V55Zm-.16,4.91c.27,0,.41-.07.41-.19A.55.55,0,0,0,153.66,59.87Zm.27-6.77-.09.1c0,.11.07.14.21.07s.09-.07,0-.07S154,53.06,153.93,53.1Zm.09,7.23s0,0,0-.11.07-.12,0-.12C154,60.26,154,60.33,154,60.33Zm0-8.83c.12,0,.19,0,.21,0a.5.5,0,0,0,0-.21H154v.21Zm.44,3c0-.11-.07-.14-.19-.07l-.2.07Zm-.16-8.2q.16-.21,0-.21a.19.19,0,0,0-.21.21ZM154.23,49a.23.23,0,0,0,0-.14s-.05,0-.07,0a.18.18,0,0,0-.05.14Zm0,2.05c-.06,0-.11,0-.13,0l.18.07c.11,0,.16,0,.16-.09Zm0-1.23c0-.07,0-.12.1-.12s.09-.05.09-.12-.16-.07-.23,0-.05.19.07.19Zm.67,9c-.12,0-.12,0,0,.07s.18,0,.21-.07Zm.16-13.16v-.23h-.21v.23Zm-.21,9.86a.15.15,0,0,0,.14-.07.78.78,0,0,0,.05-.12l0-.05a.19.19,0,0,0-.21.21Zm.81-10.11a.73.73,0,0,0,.2.14.25.25,0,0,0,.17,0,.16.16,0,0,0,.06-.14Zm0,1.67.21-.16h-.21Zm0,1.07a.26.26,0,0,1,.19.07.11.11,0,0,0,0-.07Q155.93,48,155.72,48.2Zm.16,2.21a.33.33,0,0,1,.12-.21.31.31,0,0,0,.11-.21.27.27,0,0,0-.25.14.28.28,0,0,0,.07.3Zm.19-.51s0-.07-.07-.1l0,0a.17.17,0,0,0-.07.09.24.24,0,0,0,0,.14Zm.2-.1s0-.07,0-.09a.08.08,0,0,1,.07,0,.08.08,0,0,0,.07,0s0,0,0-.09c-.16,0-.25,0-.28.16l.09.05Zm.21,5.56a.26.26,0,0,0-.14,0l.19.07c.11,0,.16,0,.16-.09Zm-.09-9.21a.17.17,0,0,0,.18-.18c-.11,0-.18,0-.2,0s0,.07.07.16Zm.09,2.44c.14,0,.21-.07.21-.18a.25.25,0,0,0-.16.05c-.05,0-.07,0-.07.06v0Zm.42,10.18a.06.06,0,0,0,0-.06s0,0-.07,0h-.09a.25.25,0,0,0-.14,0,.26.26,0,0,1-.11,0c0,.12,0,.14.09.09l.12-.09ZM157,45.64h.21s.09,0,.13-.11a.49.49,0,0,0,.07-.28c-.07.07-.11.09-.16.09s0,0,0,.09h0c-.16,0-.25.12-.25.24Zm.53,11c-.14.14-.09.21.14.21-.05,0-.07,0-.1-.07a.26.26,0,0,1,0-.11v0Zm.23-10.29a.15.15,0,0,1,0-.1.11.11,0,0,1,.07,0,.08.08,0,0,0,.07,0s.05,0,.05-.1-.16-.07-.28,0,0,.19.14.21Zm.76-.61v-.23h-.21v.23Zm1.74,0c0,.11.07.11.23,0a.16.16,0,1,0-.11-.14c0,.07-.1.12-.14.12Z"/><path class="aadb7140-ec18-4201-a918-bb25d00d8719" d="M69.2,129c-1.11,2.09-3.07,3.19-5.9,3.19-7.49,0-11.3-6.88-11.3-20.64,0-10.68,4.42-17.32,11.67-17.32A4.32,4.32,0,0,1,67.48,96a99.91,99.91,0,0,0,1-13.76c0-6.26-1-9.46-2.95-9.46-3.31,0-5.65,3-6.51,7.25a55.84,55.84,0,0,0-.86,7.62c0,1.35-.73,2-2.33,2a1.88,1.88,0,0,1-2.09-2.09,38.22,38.22,0,0,1,1-8.36C56.05,73.8,60,68.27,65.88,68.27c4.3,0,7.13,2,8.23,6,1.36,4,1.6,7.74,1.6,14,0,4.43-.37,10.08-1,16.84s-.86,11.54-.86,14.12c0,9.34,3.44,8,3.44,10.45,0,1.59-1,2.33-2.83,2.33C72.88,132,70.18,130.07,69.2,129ZM64,127.73a7.4,7.4,0,0,0,4-1.23c-1.35-3-2-7.25-2-12.77,0-1.6.12-4.06.37-7.13s.37-5.65.37-7.37A6.47,6.47,0,0,0,64,98.74c-2.21,0-3.19,1.47-3.19,14.74C60.85,119.38,60.11,127.73,64,127.73Z"/><path class="aadb7140-ec18-4201-a918-bb25d00d8719" d="M97.37,112.73c-1.18-3.3-2.12-5.67-2.71-7.2A49.26,49.26,0,0,0,92.12,100,32,32,0,0,0,89.41,95c0,2.37,0,5.75.09,10.15s.17,7.2.17,8.47c0,.93-.17,3-.43,6.35s-.42,6.26-.42,9c0,2.88-1.18,4.32-3.64,4.32-1.1,0-2-2.28-2-3.72,0-1.61.17-4.57.42-8.81s.43-7.45.43-9.56c0-3.81-.17-9.49-.43-17s-.34-13.12-.34-16.85a44,44,0,0,1,.17-5c.93-1.1,2.88-1.61,5.76-1.61,7.87,0,11.51,2.88,11.51,12.28,0,7-2.71,11.51-5.33,11.93,2.28,2.8,4.15,7.11,5.67,13.12a53.11,53.11,0,0,0,3.47,9.65c3,6.52,5.59,10.84,5.59,12.45,0,2.12-.85,3.22-2.46,3.22-2,0-4.23-4.83-8-14.9ZM89.41,74c-.42,3.13-.59,4.82-.59,4.91,0,1.94.08,4.74.34,8.38l.25,4.91c3.81,0,5.67-1.44,5.67-4.32a39.2,39.2,0,0,0-.33-4.91,33.49,33.49,0,0,1-.34-3.72C94.41,75.9,92.71,74.13,89.41,74Z"/><path class="aadb7140-ec18-4201-a918-bb25d00d8719" d="M138.29,97.84c.12,2.51.12,4.43.12,5.5V111c0,16.86-4.66,22.83-16,22.83-6.09,0-9.08-6.93-9.08-20.8V101.19c0-.36,0-2.27.12-5.86s.12-7.41.12-11.23a20.64,20.64,0,0,1,1.79-8.61,6.71,6.71,0,0,1,6.46-3.94c6.81,0,11.35,1.43,13.38,4.42s3.11,8.13,3.11,15.66Zm-8.48-11.23c-.36-7.17-2.28-10.76-5.62-10.76-2.75,0-4.07,5-4.07,15.06a49.48,49.48,0,0,0,.6,6.58A204.57,204.57,0,0,1,122,121c0,4.31,3.1,8.73,5.14,8.73,2.39,0,3.58-7.89,3.58-23.55,0-1.07-.24-5.14-.6-12.07Z"/><path class="aadb7140-ec18-4201-a918-bb25d00d8719" d="M150.72,69.51c1.08,0,2.15,1.56,3.23,4.79.6-2.28,3.35-4.31,6.22-4.31a9.19,9.19,0,0,1,7.77,3.59,12.1,12.1,0,0,1,1.67,4.3c.84,3.71.84,6.34.84,11.6l.35,22.11a32,32,0,0,1-.11,3.59,57.8,57.8,0,0,0,.11,10,19.65,19.65,0,0,1,.36,3.82c0,1.32-1.91,2.63-3.82,2.63s-2.87-.95-2.87-2.75c0-5.38-.12-11.35-.36-17.69-.36-8.6-.48-14.58-.48-18a26.94,26.94,0,0,1,.12-3.46c.12-1.56.24-3,.24-4.07,0-7.53-1.19-11.24-3.47-11.24-5.25,0-6.81,1.32-6.81,5.62,0,1.56-.24,5.86-.6,12.91,0,2-.24,4-.24,4.07,0,6.09,0,12.43.12,19l.12,9.81c0,4.18-1.31,6.21-3.82,6.21s-3.71-.72-3.71-2.15.12-3.71.24-7.17c.36-4.66.48-8.61.48-11.84,0-2.63-.12-6.69-.24-12.07s-.24-9.56-.24-12.31A126.1,126.1,0,0,1,146.9,72C147.14,70,150.6,69.51,150.72,69.51Z"/><path class="aadb7140-ec18-4201-a918-bb25d00d8719" d="M184.74,72.77c2.26,0,2.71.9,2.71,2.82,0,.57-.34,4.52-.34,11.86,0,4.4.12,10.27.46,17.72S188,118.94,188,124c0,6.32-1.24,9.48-3.61,9.48-1.7,0-2.49-.79-2.49-2.26,0-4.85-.22-12.08-.56-21.44s-.57-16.37-.57-20.89a124.39,124.39,0,0,1,.91-13.66C181.92,73.56,182.94,72.77,184.74,72.77Z"/><path class="aadb7140-ec18-4201-a918-bb25d00d8719" d="M214.19,66.89l1.06-.1c2,0,3.08,2.31,3.08,6.94V85c0,1.45-.1,7.51-.39,18.39s-.29,16.75-.29,17.62c0,4.62-2.69,12.42-10.11,12.42a11.11,11.11,0,0,1-7.7-3c-2.21-2-3.37-4.14-3.37-6.36,0-2,.58-3,1.74-3,2.59,0,2.11,9,9.33,9,1.35,0,2.22-3.46,2.7-10.3.1-3.08.87-8.18.87-12.71,0-2.31,0-5.87-.1-10.69V85a41.12,41.12,0,0,1,.48-4.43,35.24,35.24,0,0,0,.58-3.75,17.7,17.7,0,0,0-.58-3.66,26.1,26.1,0,0,1-.48-3.56C211,68.05,212.74,67,214.19,66.89Z"/><path class="aadb7140-ec18-4201-a918-bb25d00d8719" d="M240.11,131.4c-1.08,2-3,3.1-5.74,3.1-7.29,0-11-6.69-11-20.08,0-10.4,4.31-16.85,11.36-16.85a4.19,4.19,0,0,1,3.71,1.79A97.91,97.91,0,0,0,239.39,86c0-6.1-.95-9.2-2.87-9.2-3.22,0-5.5,2.87-6.33,7a53.34,53.34,0,0,0-.84,7.41c0,1.32-.72,1.91-2.27,1.91a1.83,1.83,0,0,1-2-2A37.34,37.34,0,0,1,226,83c1.32-5.26,5.14-10.64,10.88-10.64,4.19,0,6.94,1.92,8,5.86,1.32,4,1.56,7.53,1.56,13.63,0,4.3-.36,9.8-1,16.38s-.84,11.23-.84,13.74c0,9.09,3.35,7.77,3.35,10.16,0,1.56-1,2.27-2.75,2.27C243.7,134.38,241.07,132.47,240.11,131.4Zm-5-1.2A7.24,7.24,0,0,0,239,129c-1.31-2.87-1.91-7.06-1.91-12.44,0-1.55.12-3.94.36-6.93s.36-5.5.36-7.17a6.28,6.28,0,0,0-2.75-.48c-2.15,0-3.11,1.43-3.11,14.34C232,122.07,231.26,130.2,235.09,130.2Z"/></svg>