<svg xmlns="http://www.w3.org/2000/svg" viewBox="0 0 342.04 234.05"><defs><style>.abf37943-d642-4c41-8a53-ea7b3a08c33c{fill:#fdc14f;}.ab04393e-b2bd-4171-a8e0-61cb4690927a{fill:#6ebe8b;}.fa616259-df1e-41e3-a93a-3a5aaca8927e{fill:#f03c57;}.b63cc6b3-016d-46dd-941b-9895c2c8ca41{fill:#f2744b;}.a993e87f-b4eb-4ea9-82ed-8ed21425923e{fill:#452c70;}.bc0f4474-bbda-486e-8102-e2ebaf2a0846{fill:#f8f9f3;}.ab78e47e-575d-42c7-bf75-e912e27f49e4{fill:#ef3d57;}</style></defs><title>Asset 6</title><g id="a6143183-f897-459b-908b-bd522ed8face" data-name="Layer 2"><g id="b0b56e9c-9bb1-4556-85fc-d25f4dd31d71" data-name="Layer 3"><rect class="abf37943-d642-4c41-8a53-ea7b3a08c33c" x="171.71" y="3.38" width="167.09" height="193.3"/><path class="ab04393e-b2bd-4171-a8e0-61cb4690927a" d="M267.66,36.65a3.05,3.05,0,0,0,0-.52c0-4-6.08-7.19-13.59-7.19s-13.59,3.22-13.59,7.19a3.68,3.68,0,0,0,.06.66c-12.2,1.77-20.72,5.76-20.72,10.4,0,6.28,15.56,11.37,34.76,11.37s34.77-5.09,34.77-11.37C289.4,42.42,280.41,38.34,267.66,36.65Z"/><rect class="ab04393e-b2bd-4171-a8e0-61cb4690927a" x="171.71" y="197.08" width="168.65" height="31.7"/><path class="fa616259-df1e-41e3-a93a-3a5aaca8927e" d="M195.39,199.23,245.08,58.56l19.76.58,49.5,139.31a147.8,147.8,0,0,1-71,12.72A145.75,145.75,0,0,1,195.39,199.23Z"/><ellipse class="b63cc6b3-016d-46dd-941b-9895c2c8ca41" cx="255.02" cy="204" rx="60.7" ry="13.27"/><path class="a993e87f-b4eb-4ea9-82ed-8ed21425923e" d="M167.18,234.05V0H342V234.05Zm7.69-170.19a23.22,23.22,0,0,1,2.67-9c3.68-6.68,3.68-13,0-19.72a23.22,23.22,0,0,1-2.67-9Zm0,41.13a23.22,23.22,0,0,1,2.67-9c3.68-6.69,3.68-13,0-19.73a23.22,23.22,0,0,1-2.67-9Zm0,41.12a23.22,23.22,0,0,1,2.67-9c3.68-6.68,3.68-13,0-19.39a26.51,26.51,0,0,1-2.67-9.36Zm0,41.13a23.22,23.22,0,0,1,2.67-9c3.68-6.69,3.68-13,0-19.39a27.09,27.09,0,0,1-2.67-9Zm159.82,39.12V199.27h-2v.34A3.65,3.65,0,0,1,329,203a3.59,3.59,0,0,1-3.34-3.34v-.34H317L318.3,203v1c0,2.68-2,5-5.68,7.36l.33,1a3.44,3.44,0,0,1-3.67,3.35,3.49,3.49,0,0,1-3-1.68q-3.51,1-8,2a188.73,188.73,0,0,1-27.41,3.68,3.22,3.22,0,0,1,2,3c0,4.68-7,4.68-7,0a3.25,3.25,0,0,1,1.34-3l-12.37.33c-7.69.34-16.39-.33-26.08-1,0,4.68-7,4.68-7,0l.33-1q-6-1-11-2-20.07-4.52-20.06-12l.33-1,1.34-3.68H174.87v27.09h69.21c1-3,5.68-3,6.68,0H295.9c-2-.34-3-1.34-3-3.35,0-4.68,7-4.68,7,0,0,2-1,3-3,3.35ZM190.25,193.59a20.24,20.24,0,0,1-.34-4.68,21.72,21.72,0,0,1,3-10.7c3.68-6.69,3.68-13,0-19.39-4-7.69-4-14.72,0-21.74,3.68-6.68,3.68-13,0-19.72a20.54,20.54,0,0,1,0-21.4c3.68-6.69,3.68-13,0-19.73a20.54,20.54,0,0,1,0-21.4c3.68-6.68,3.68-13,0-19.72a21.72,21.72,0,0,1-3-10.7V7.69h-7.69a26.74,26.74,0,0,1-2.67,7,18.41,18.41,0,0,0,0,19.39,21.15,21.15,0,0,1,0,21.74c-3.68,6.68-3.68,13,0,19.39a21.13,21.13,0,0,1,0,21.73c-3.68,6.69-3.68,13,0,19.39a21.15,21.15,0,0,1,0,21.74c-3.68,6.68-3.68,13,0,19.72a20.54,20.54,0,0,1,0,21.4,22.43,22.43,0,0,0-2.68,9.7,20,20,0,0,0,.67,4.68Zm-6.36,29.76c-3.34,3.34-8-1.34-5-5C181.89,215,186.9,220.34,183.89,223.35Zm5-11.71c-3,3-8.36-2-4.68-5A3.43,3.43,0,1,1,188.91,211.64Zm5.35-18,13-36.45a22.34,22.34,0,0,1-2-9.36,21.14,21.14,0,0,1,2.68-10.7c3.34-6.68,3.67-13,0-19.72A22.12,22.12,0,0,1,208,96c3.67-6.69,3.67-13,0-19.73a22.12,22.12,0,0,1,0-21.4c3.67-6.68,3.34-13,0-19.72a22.37,22.37,0,0,1-2.68-11V7.69h-8a24.9,24.9,0,0,1-2.34,7,18.41,18.41,0,0,0,0,19.39,22.79,22.79,0,0,1,0,21.74c-3.68,6.68-3.68,13,0,19.39a22.77,22.77,0,0,1,0,21.73c-3.68,6.69-3.35,13,0,19.39,4,7.69,3.68,14.72,0,21.74-3.68,6.68-3.68,13,0,19.72a22.12,22.12,0,0,1,0,21.4,22.43,22.43,0,0,0-2.68,9.7,20.24,20.24,0,0,0,.34,4.68ZM313,204.29l-1.33-4c-3.68-2-9.37-3.68-17.06-5.35a133,133,0,0,0-22.06-2.68c-1.34,0-1.34-2.34.33-2.34,16.38,1.34,30.43,3.68,37.45,7.36L262.13,60.18l-7.35.34-7.69-.34L198.94,197.27a27.28,27.28,0,0,1,6.35-2.34c1.34-.34,2,1.67.67,2a31.82,31.82,0,0,0-8,3.35l-1.34,4c1,2.34,6.35,4.35,15.38,6.35,11.7,2.34,26.08,3.68,42.8,3.68a220.5,220.5,0,0,0,42.46-3.68C306.6,208.64,312,206.63,313,204.29ZM206,221.67c-3.34,3.35-8.36-1.67-5-5S209.3,218.33,206,221.67Zm14.38-197.6V7.69h-7.69a26.81,26.81,0,0,1-2.68,7c-3.68,6.69-3.68,13,0,19.39a21.1,21.1,0,0,1,0,21.74c-3.68,6.68-3.68,13,0,19.39,4,7.69,4,14.71,0,21.73-3.68,6.69-3.68,13,0,19.73a20.49,20.49,0,0,1,0,21.4,22.34,22.34,0,0,0-2.67,9.69,18.15,18.15,0,0,0,1,6.36L222,115a22,22,0,0,1-1.67-8.36,21.62,21.62,0,0,1,3-10.7c3.68-6.69,3.68-13,0-19.39-4-7.69-4-14.72,0-21.74l.33-.33c-3.68-2-5.35-4.35-5.35-7q0-4.51,7-8a22.81,22.81,0,0,0-2-4.34,21.62,21.62,0,0,1-3-10.7Zm41.79,165.51a1,1,0,1,1,0,2h-7.35A243.37,243.37,0,0,0,218,194.26a.89.89,0,0,1-1-1c-.33-.67,0-1,.67-1a248.28,248.28,0,0,1,37.12-2.67ZM236.72,39.45q-15,3-15,8c0,1.67,1.33,3,4.34,4.34,1.67-3.67,5-7,10.7-9.36a1.23,1.23,0,0,1-.33-1Zm-1-15.71v-16h-8a24.27,24.27,0,0,1-2.34,7c-3.67,6.69-3.67,13,0,19.39a17.73,17.73,0,0,1,2,4.68,40.84,40.84,0,0,1,10.7-3l.33-.67a25.3,25.3,0,0,1-2.67-10.7Zm1,49.15a26,26,0,0,1-1-7.36,21.45,21.45,0,0,1,1-6.68,67.39,67.39,0,0,1-11.37-3.35v.34c-3.67,6.68-3.67,13,0,19.39a22.77,22.77,0,0,1,0,21.73,22.38,22.38,0,0,0-2.67,9.7,25.33,25.33,0,0,0,.67,5Zm16.72-15.72V46.47c-5.69,0-10-.66-13.71-2.34-6,2.34-9.7,5.35-11.37,9Q237.89,56.67,253.44,57.17ZM251.1,24.41V7.69h-8a18.45,18.45,0,0,1-2.67,7,22.4,22.4,0,0,0-2.68,9.7,16.19,16.19,0,0,0,2.34,8.69c2.68-3,6.36-4.68,11-5.68Zm-9.7,35.1-2.34-.33a18,18,0,0,0-1,6.35v3.68Zm-1.67-18.72c.33.34.67.34,1.67.67.34-3.68,2.68-7,7-9.36-.67-.34-1.33-.34-2-.67C242.07,33.77,239.73,36.78,239.73,40.79Zm10.36-9.36a28.75,28.75,0,0,1,5.69-1.34h-2a22.87,22.87,0,0,0-4.68.67Zm16-8V7.69h-7.69a26.39,26.39,0,0,1-2.67,7,22.4,22.4,0,0,0-2.68,9.7l.34,3h1.34a22.42,22.42,0,0,1,12.37,3.67,21.45,21.45,0,0,1-1-6.68Zm-10,33.77c10-.33,18.39-1.67,24.75-4-1.34-3.68-5-6.69-11.37-9-3.68,1.68-8,2.34-13.38,2.34Zm12.37,4.68,13.71,38.79a18.12,18.12,0,0,1,2-4.68c3.68-6.69,3.68-13,0-19.73-3.68-7-3.34-14.38-.34-21.06a57.71,57.71,0,0,1-14.37,4Zm13-54.16h-8a18.45,18.45,0,0,1-2.67,7,22,22,0,0,0,0,19.39l1,1.68c6.35,1.33,11.37,3,14.71,5a18.39,18.39,0,0,0-2.34-5.68,25.32,25.32,0,0,1-2.68-10.7Zm-9,31.76.33,2a1.23,1.23,0,0,1-.33,1c5.68,2.34,9.36,5.69,11,9.36,2.68-1.33,4-2.67,4-4.34Q287.54,42.46,272.5,39.45ZM296.57,23.4V7.69h-7.69a27.1,27.1,0,0,1-2.67,7,18.41,18.41,0,0,0,0,19.39,23.64,23.64,0,0,1,2.67,8.7,7.21,7.21,0,0,1,2,4.68c0,2-1,4-3.35,5.68l-1.33,2.68c-3.35,6.68-3.68,13,0,19.39a21.13,21.13,0,0,1,0,21.73,21,21,0,0,0-2.68,7.69l13.71,38.45a19.77,19.77,0,0,1,2.34-6c3.68-6.68,3.68-13,0-19.39-4-7.69-4-14.71,0-21.73,3.68-6.69,3.68-13,0-19.73a20.54,20.54,0,0,1,0-21.4c3.68-6.68,3.68-13,0-19.72a21.62,21.62,0,0,1-3-10.7ZM312,7.69h-8a24.64,24.64,0,0,1-2.35,7,18.45,18.45,0,0,0,0,19.39,22.79,22.79,0,0,1,0,21.74c-3.67,6.68-3.67,13,0,19.39a22.77,22.77,0,0,1,0,21.73c-3.67,6.69-3.34,13,0,19.39,4,7.69,3.68,14.72,0,21.74a22.34,22.34,0,0,0-2.67,9.69l13,37.78a24.47,24.47,0,0,1,2.68-7.35c3.67-6.69,3.34-13,0-19.39-4-7.69-3.68-14.72,0-21.74,3.67-6.68,3.67-13,0-19.72a22.12,22.12,0,0,1,0-21.4c3.67-6.69,3.67-13,0-19.73a22.12,22.12,0,0,1,0-21.4c3.67-6.68,3.34-13,0-19.72A21.14,21.14,0,0,1,312,24.41Zm2.34,183.89.67,2h12.37a17.94,17.94,0,0,1-.33-4.35,26.74,26.74,0,0,1,2.67-11,18.41,18.41,0,0,0,0-19.39,22.79,22.79,0,0,1,0-21.74c3.68-6.68,3.68-13,0-19.39a22.77,22.77,0,0,1,0-21.73c3.68-6.69,3.34-13,0-19.39-4-7.69-3.68-14.72,0-21.74,3.68-6.68,3.34-13,0-19.72A21.13,21.13,0,0,1,327,24.41V7.69h-7.69a26.81,26.81,0,0,1-2.68,7c-3.68,6.69-3.68,13,0,19.39a21.15,21.15,0,0,1,0,21.74c-3.68,6.68-3.68,13,0,19.39,4,7.69,4,14.71,0,21.73-3.68,6.69-3.68,13,0,19.73a20.54,20.54,0,0,1,0,21.4c-3.68,6.68-3.68,13,0,19.72a20.54,20.54,0,0,1,0,21.4,22.57,22.57,0,0,0-2.67,10Zm12,31.1a3.55,3.55,0,0,1-6-2.34,4,4,0,0,1,3.68-3.68C327,216.66,328.33,220.67,326.33,222.68Zm8-215a26.74,26.74,0,0,1-2.67,7c-3.68,6.69-3.68,13,0,19.39,1.67,3.35,2.67,6.36,2.67,9Zm0,39.12a18.73,18.73,0,0,1-2.67,9c-3.68,6.68-3.68,13,0,19.39a21.05,21.05,0,0,1,2.67,9.36Zm0,41.12a18.73,18.73,0,0,1-2.67,9c-3.68,6.69-3.68,13,0,19.73a18.73,18.73,0,0,1,2.67,9Zm0,41.13a18.73,18.73,0,0,1-2.67,9c-3.68,6.68-3.68,13,0,19.72a18.73,18.73,0,0,1,2.67,9Zm0,64.53V170.18a18.73,18.73,0,0,1-2.67,9,22.45,22.45,0,0,0-2.68,10,17.19,17.19,0,0,0,.67,4.35Z"/><path class="bc0f4474-bbda-486e-8102-e2ebaf2a0846" d="M260.46,123.38l10.7,10.69-3,3.35-7.36-7v31.09h-4.34V143.44h-3.68v18.05h-4.35V130.4l-7,7-3.34-3.35,11-10.69a2,2,0,0,1,2-1,6.5,6.5,0,0,1-2.68-5.35c0-8.36,12.37-8.36,12.37,0a6.49,6.49,0,0,1-2.67,5.35A3,3,0,0,1,260.46,123.38Z"/><rect class="ab04393e-b2bd-4171-a8e0-61cb4690927a" x="4.5" y="5.15" width="165.91" height="226.36"/><path class="ab78e47e-575d-42c7-bf75-e912e27f49e4" d="M26.22,108.45H54.61a53.63,53.63,0,0,1,0-21.91c1-5,1.93-8.87,5.08-12.33,6.39-7,16.76-6.27,19-6.07L79,33.51c-6.34-.36-11.89-.34-16.43-.19-6.8.23-10.27.36-13.89,1.56a33.27,33.27,0,0,0-13.7,9,34.76,34.76,0,0,0-6.85,11.35A35.33,35.33,0,0,0,26,68.14Q26.13,88.3,26.22,108.45Z"/><path class="b63cc6b3-016d-46dd-941b-9895c2c8ca41" d="M148.55,108.45H120.16a53.63,53.63,0,0,0,0-21.91c-1.05-5-1.93-8.87-5.08-12.33-6.39-7-16.76-6.27-19-6.07l-.39-34.63c6.34-.36,11.89-.34,16.43-.19,6.8.23,10.27.36,13.89,1.56a33.27,33.27,0,0,1,13.7,9,34.94,34.94,0,0,1,6.85,11.35,35.33,35.33,0,0,1,2.15,12.91Q148.65,88.3,148.55,108.45Z"/><path class="abf37943-d642-4c41-8a53-ea7b3a08c33c" d="M26.22,126H54.61a53.63,53.63,0,0,0,0,21.91c1,5,1.93,8.87,5.08,12.33,6.39,7,16.76,6.27,19,6.06L79,200.88c-6.34.36-11.89.35-16.43.2-6.8-.23-10.27-.37-13.89-1.57a33.27,33.27,0,0,1-13.7-9,34.52,34.52,0,0,1-6.85-11.35A35.3,35.3,0,0,1,26,166.25Q26.13,146.1,26.22,126Z"/><path class="bc0f4474-bbda-486e-8102-e2ebaf2a0846" d="M148.55,126H120.16l-23.71-.68-1.17,22.5,24.9.09a20.29,20.29,0,0,1-5.08,12.33c-7.24,7.9-18.13,6.21-19,6.06l-.39,34.63c6.34.36,11.89.35,16.43.2,6.8-.23,10.27-.37,13.89-1.57a33.27,33.27,0,0,0,13.7-9,34.7,34.7,0,0,0,6.85-11.35,35.3,35.3,0,0,0,2.15-12.91Q148.65,146.1,148.55,126Z"/><path class="a993e87f-b4eb-4ea9-82ed-8ed21425923e" d="M0,234.05V0H174.87V234.05ZM44.8,7.69,7.69,44.8V62.19l54.5-54.5Zm20.4,0L7.69,65.2V82.58l16-16V65.2A34.82,34.82,0,0,1,58.85,30.43h1.33L82.58,7.69Zm-40.79,0L7.69,24.41V41.79l34.1-34.1ZM7.69,21.06,21.06,7.69H7.69Zm16,48.48-16,16V103l16-16Zm0,20.73-16,16v17.39l16-16.38Zm-16,36.45V144.1l16-16v-3.35c0-2,1-3,2.67-3h3.35l1.67-1.33v-8h-5a2.45,2.45,0,0,1-2.34-2Zm16,4.35-16,16v17.72l16-16.38Zm0,20.73-16,16V184.9l16-16.05Zm-16,36.44v17l20.06-20.06a32.52,32.52,0,0,1-4-13.37Zm0,20.06V226l29.76-29.76a32.19,32.19,0,0,1-8.36-9.36Zm20.4,18.06L51.49,203a33.83,33.83,0,0,1-12.37-5.35L10.7,226.36Zm1-119.7H51.82V87.6c0-11.7,9.37-21.4,20.07-21.4h5.35V35.78H58.85A29.75,29.75,0,0,0,29.09,65.2Zm22.73,20.73H29.09v41.46a29.75,29.75,0,0,0,29.76,29.42H77.24V167.84h-5c-11,0-20.4-9.69-20.4-21.39Zm-20.73,99H47.81l22.74-22.74H58.85a22.3,22.3,0,0,1-4.68-.33Zm18.73-114v9.36h.67L100.3,71.89H95a2.47,2.47,0,0,1-2.68-2.68V63.53h-1L57.51,97.3v12c0,2-1,3-2.68,3Zm24.07,91.28L51.16,226.36H68.88l23.74-24.08a2,2,0,0,1-.34-1.34v-8.69h-7l-2.68,2.68v6a2.46,2.46,0,0,1-2.67,2.68ZM53.5,121.7h1.33c1.67,0,2.68,1,2.68,3v10.37L114.68,77.9a15.38,15.38,0,0,0-11-6Zm4-27.41,22.4-22.4H72.22c-8,0-14.71,6.68-14.71,15.71Zm0,44.13v8a18.26,18.26,0,0,0,1.67,7.35l19.06-19.06V130.4c0-2,1-3,3.34-3h4.35l31.76-31.77v-8a15.62,15.62,0,0,0-2-7.69Zm20.73-.67L60.18,155.81a14.79,14.79,0,0,0,11.37,6.35l16-16h-6c-2.34,0-3.34-1-3.34-3.34ZM79.91,30.43h.67L103.31,7.69H85.93L63.19,30.43ZM95,203.62h-.34L71.89,226.36H89.27L112,203.62Zm-2.68-57.51H90.61l-16,16h5.35a2.46,2.46,0,0,1,2.67,2.67v5.69h1.34l19.39-19.39H95a2.47,2.47,0,0,1-2.68-2.68Zm8.36-115.68L123.38,7.69H106.32L82.25,31.76a2.05,2.05,0,0,1,.33,1.34v8.69h6.69l3-3V33.1A2.46,2.46,0,0,1,95,30.43ZM88.27,63.53H82.58v5.68Zm-1.34,107h5.35v-5.35Zm5.35-43.13v-2.68l.34-1-3.68,3.68ZM115,203.62,92.28,226.36h17.39l57.51-57.85V151.13l-16.05,16.38v1.34a35,35,0,0,1-34.78,34.77ZM121.37,112l-1,.33c-1.68,0-2.68-1-2.68-3V98.63L94,122l1-.34h16.71Zm-15.05,39.12-11,11H103a14.29,14.29,0,0,0,14-11ZM98,35.78V66.2h5c11,0,20.06,9.7,20.06,21.4v19.06h22.74V65.2a29.69,29.69,0,0,0-29.43-29.42Zm0,162.49h18.39a29.69,29.69,0,0,0,29.43-29.42V127.39H98v18.39H120a2.94,2.94,0,0,1,3,2.67c-1.34,11-9.7,19.39-20.06,19.39H98ZM144.11,7.69H126.38L104,30.43h12.37a22.44,22.44,0,0,1,4.69.33ZM130.4,226.36l36.78-37.12V171.86l-54.5,54.5Zm11.7-114H124.71L115,121.7H132.4ZM164.5,7.69H147.11l-23.4,23.4a32.68,32.68,0,0,1,12,5.35Zm-14,218.67,16.72-16.72V192.25l-33.77,34.11Zm16.72-119V89.94l-16.05,16v3.34c0,2-1,3-2.68,3h-3.34l-9.7,9.36h13a2.65,2.65,0,0,1,2.68,1.68Zm0-81.92V8L137.75,37.78a35.21,35.21,0,0,1,8,9Zm0,20.4V28.42L147.11,48.81a29.74,29.74,0,0,1,4,13ZM151.13,82.25l16.05-16V48.81l-16.05,16V82.25Zm0,20.73L167.18,86.6V69.21L151.13,85.59Zm16.05,7.36-16.05,16v17.39l16.05-16.05Zm0,20.39-16.05,16.05v17.39l16.05-16Zm0,81.92-13.71,13.71h13.71Z"/></g></g></svg>