<svg xmlns="http://www.w3.org/2000/svg" viewBox="0 0 342.1 234.05"><defs><style>.ff9187f0-c3b5-4dfe-b8aa-2bca73d0f66c{fill:#f03c57;}.e7067ecd-16b7-465a-bc4a-e05af7f989a1{fill:#6ebe8b;}.ac8a49e5-d146-4385-8cb2-2de75363eafe{fill:#f3744b;}.b9443bf3-b9ff-4e24-8648-f157a1fbee6a{fill:#fdc14f;}.ec88f165-4829-4c0e-9f37-1c11637935b6{fill:#f8f9f3;}.ae3cfc13-9705-45f4-bab3-8a11f0c5b2de{fill:#452c70;}</style></defs><title>Asset 12</title><g id="ae8faba2-8541-4352-bb7a-3b46aa32931e" data-name="Layer 2"><g id="fa85bc9c-f0b0-43e5-8a81-61175d6603a3" data-name="Layer 3"><polygon class="ff9187f0-c3b5-4dfe-b8aa-2bca73d0f66c" points="201.34 228.9 201.34 206.78 192.83 198.27 201.34 189.76 201.34 127.98 195.32 119.7 201.34 113.68 201.34 91.81 205.35 77.1 211.7 64.86 222.4 55.34 236.45 48.48 253.11 47.31 254.67 2.54 199.5 7.69 176.41 30.26 170.15 51.16 170.15 228.9 201.34 228.9"/><polygon class="e7067ecd-16b7-465a-bc4a-e05af7f989a1" points="225.67 228.9 225.67 211.24 225.96 181.77 205.82 163.63 225.67 148.32 226.53 141.71 225.67 136.9 225.67 119.44 228.87 107.7 233.94 100.76 242.49 98.82 252.28 99.02 254.25 83.91 254.07 48.17 224.2 52.27 205.76 70.3 200.76 86.98 200.76 228.9 225.67 228.9"/><polygon class="ac8a49e5-d146-4385-8cb2-2de75363eafe" points="282.76 228.9 282.76 211.24 282.46 181.77 302.6 163.63 282.76 148.32 281.89 141.71 282.76 136.9 282.76 119.44 279.55 107.7 274.48 100.76 265.94 98.82 256.14 99.02 254.18 83.91 254.35 48.17 284.23 52.27 302.66 70.3 307.66 86.98 307.66 228.9 282.76 228.9"/><polygon class="b9443bf3-b9ff-4e24-8648-f157a1fbee6a" points="307.15 228.9 307.15 206.78 315.67 198.27 307.15 189.76 307.15 127.98 313.17 119.7 307.15 113.68 307.15 91.81 303.14 77.1 296.79 64.86 286.09 55.34 272.05 48.48 255.39 47.31 253.82 2.54 308.99 7.69 332.08 30.26 338.34 51.16 338.34 228.9 307.15 228.9"/><rect class="ec88f165-4829-4c0e-9f37-1c11637935b6" x="195.32" y="113.45" width="12.04" height="12.04" transform="translate(143.45 -107.38) rotate(45)"/><rect class="ec88f165-4829-4c0e-9f37-1c11637935b6" x="195.32" y="192.25" width="12.04" height="12.04" transform="translate(199.17 -84.3) rotate(45)"/><rect class="ec88f165-4829-4c0e-9f37-1c11637935b6" x="301.46" y="113.45" width="12.04" height="12.04" transform="translate(174.53 -182.43) rotate(45)"/><rect class="ec88f165-4829-4c0e-9f37-1c11637935b6" x="301.46" y="192.25" width="12.04" height="12.04" transform="translate(230.26 -159.35) rotate(45)"/><polygon class="b9443bf3-b9ff-4e24-8648-f157a1fbee6a" points="284.46 149.86 223.75 149.86 212.41 161.86 298.63 161.86 284.46 149.86"/><polygon class="ff9187f0-c3b5-4dfe-b8aa-2bca73d0f66c" points="283.66 177.44 221.06 177.44 209.36 165.44 298.28 165.44 283.66 177.44"/><path class="ae3cfc13-9705-45f4-bab3-8a11f0c5b2de" d="M167.24,234.05V0H342.1V234.05ZM251.49,7.69H240.12A70.47,70.47,0,0,0,188.3,29.42a54.26,54.26,0,0,0-13.37,28.42V226.36H198V206.63l-8.7-8.69,8.7-9V128.73l-8.7-9,8.7-9V99.3c0-4.34-.34-9,4-22.07,2.34-6.35,5.35-12,9.69-16.71,9.37-10,22.74-15.38,39.79-15.72Zm-44.13,112-6-6-6,6,6,6Zm0,78.24-6-6-6,6,6,5.68ZM251.49,57.17,206,85.59c-.67,3.35-1,6.69-1.34,9.7L251.49,66.2ZM204.68,98v9l46.81-29.42v-9Zm46.81-17.72-46.81,29.09V111l4.68,4.35,15-9.36a18.94,18.94,0,0,1,4-6c4.35-5,11-8,19.73-9l3.34-1.67ZM211,117l2.34,2.68-8.7,8.69v1.34l17.72-11v-2.34a16.84,16.84,0,0,1,.67-7Zm11.36,4.35-17.72,11v9l17.72-11ZM204.68,152.8l17.72-11v-8.69l-17.72,10.7Zm17.72-8.36-17.72,11v2.68l17.72-11Zm-13,28.42-4.68-3v6Zm9.37,5.68-7.36-4.34-6.69,4.34v8.7Zm3.67,11.71-10,6.35,1,1.34-8.7,8.69v3.68l17.72-11Zm0,11.7-17.72,11v8.69l17.72-11Zm-17.72,24.41h13.71l4-2.34v-10.7l-17.72,11Zm17.72-45.48-1.67-1-15.38,9.7,5.35,5.35,11.7-7Zm-10-110.67a46.79,46.79,0,0,0-5.68,12.37l44.8-28.08V51.16a102.52,102.52,0,0,0-10.7,1.33Zm.67,97.3,2.68,1.34,2.34-1.34Zm15.05-15-13.71,8.36h81.91l-13.37-8.36Zm5.68-98.3a40.49,40.49,0,0,0-17.39,10.7Zm-16.05,116,7,4.69,11.71-7.36h-14Zm9.36,5.69h14.38l13.37-8.36h-14Zm32.1-8.36-13.71,8.36h14.38l13.37-8.36ZM257.84,16.05l13.38-8.36H257.84Zm0,2.67v8.7L285.6,10.36a63.77,63.77,0,0,0-11-2Zm0,20.4L298,14c-3-1-6-2-9.37-3L257.84,30.09Zm0,2.67v3a65.86,65.86,0,0,1,8.36.67l42.13-26.41a30,30,0,0,0-8-4Zm0,9.37V90.94c10.37.34,18.39,3.35,23.41,9,4.35,4.68,6,10,6,16.38v30.76l17.38,11V128.39l-9-8.69,9-8.7V99c-.33-1,1-19.73-12-34.11C284.59,56.51,272.89,51.82,257.84,51.16Zm19.4,116.35-13.38,8.36h15.38l13.38-8.36ZM316.69,25.08a43.52,43.52,0,0,0-6.35-4.68L269.55,45.81a81.11,81.11,0,0,1,9.69,2.67Zm7,7.35-2.67-3-2.68-2.67L281.92,49.48a57.94,57.94,0,0,1,7.69,4.35ZM304.65,170.18l-17.38,10.7v45.48h17.38V206.63l-9-8.69,9-9ZM329.06,40.46a25.51,25.51,0,0,0-4-6.36L291.61,55.17a42.4,42.4,0,0,1,5.69,5.35Zm3.68,9.36a64.06,64.06,0,0,0-2.68-7.36L299,61.85a43.23,43.23,0,0,1,4.35,6.36ZM308,125.72l6-6-6-6-6,6Zm6,72.22-6-6-6,6,6,5.68ZM334.41,60.18V57.84l-1-6L304.32,70.21a41.35,41.35,0,0,1,3.34,6.69Zm0,11.37v-9L308.33,79.24c.67,2.34,1.34,5,2,7.69Zm0,11.37V74.23l-23.74,15a35.68,35.68,0,0,1,.34,8.36Zm0,2.67L311,100.31v9l23.4-14.71ZM311,128.73v3.34l23.4-14.38v-9l-15.71,9.7L320,119.7Zm0,15,23.4-14.71v-9L311,134.74Zm23.4-12L311,146.11v9l23.4-14.71ZM311,166.51l23.4-14.38v-9L311,157.81v8.7Zm23.4-12L311,169.18v9l23.4-14.71Zm0,11.7L311,180.55v8.36l.66.33,22.74-14.37ZM311,206.63v5.68l23.4-14.37v-9l-15,9.69Zm0,8.36v9l23.4-14.72v-9Zm.33,11.37h14.38l8.69-5.69V212Zm.33-115,5.69,5.68,17.05-11V97.3ZM313,190.91l5.69,5.35,15.71-9.69v-9Zm21.4,35.45v-3l-4.68,3Z"/><path class="e7067ecd-16b7-465a-bc4a-e05af7f989a1" d="M10.89,147.19A92.22,92.22,0,0,0,28.5,166.88a94.21,94.21,0,0,0,22.3,13.83,97.19,97.19,0,0,0,28.05,7.57,89.76,89.76,0,0,0,39-3.4,87.61,87.61,0,0,0,49-39.78,99.87,99.87,0,0,1-7.17,32.74c-3.85,9.48-11.48,27.59-30.79,40.3a74.74,74.74,0,0,1-35.48,12.14c-29,2.1-49.62-14-55.69-18.92-4.34-3.51-33.09-26.73-29.35-54.78A39,39,0,0,1,10.89,147.19Z"/><rect class="ff9187f0-c3b5-4dfe-b8aa-2bca73d0f66c" x="1.37" y="5.34" width="171.91" height="10.24"/><rect class="ff9187f0-c3b5-4dfe-b8aa-2bca73d0f66c" x="1.37" y="16.15" width="171.91" height="13.65"/><rect class="ff9187f0-c3b5-4dfe-b8aa-2bca73d0f66c" x="1.37" y="30.65" width="171.91" height="13.65"/><rect class="ff9187f0-c3b5-4dfe-b8aa-2bca73d0f66c" x="1.37" y="45.15" width="171.91" height="13.65"/><rect class="ac8a49e5-d146-4385-8cb2-2de75363eafe" x="1.37" y="59.55" width="171.91" height="13.65"/><rect class="ac8a49e5-d146-4385-8cb2-2de75363eafe" x="1.37" y="73.94" width="171.91" height="13.65"/><rect class="ac8a49e5-d146-4385-8cb2-2de75363eafe" x="1.37" y="88.33" width="171.91" height="13.65"/><rect class="ac8a49e5-d146-4385-8cb2-2de75363eafe" x="1.37" y="102.73" width="171.91" height="13.65"/><rect class="b9443bf3-b9ff-4e24-8648-f157a1fbee6a" x="1.37" y="117.39" width="171.91" height="13.65"/><rect class="b9443bf3-b9ff-4e24-8648-f157a1fbee6a" x="1.37" y="131.93" width="171.91" height="13.65"/><polygon class="b9443bf3-b9ff-4e24-8648-f157a1fbee6a" points="154.52 159.91 20.13 159.91 11.63 146.26 165.86 146.26 154.52 159.91"/><polygon class="b9443bf3-b9ff-4e24-8648-f157a1fbee6a" points="134.04 174.5 41.49 174.5 24.3 160.85 153.19 160.85 134.04 174.5"/><rect class="b9443bf3-b9ff-4e24-8648-f157a1fbee6a" x="47.36" y="175.17" width="10.22" height="5.41"/><rect class="b9443bf3-b9ff-4e24-8648-f157a1fbee6a" x="115.24" y="175.17" width="14.25" height="7.11"/><path class="ec88f165-4829-4c0e-9f37-1c11637935b6" d="M86.93,213.32a1.34,1.34,0,0,1,0,2.67h-10a1.34,1.34,0,0,1,0-2.67Z"/><path class="ec88f165-4829-4c0e-9f37-1c11637935b6" d="M92.75,195.93a1.34,1.34,0,0,1,0,2.67H82.5a1.34,1.34,0,0,1,0-2.67Z"/><path class="ec88f165-4829-4c0e-9f37-1c11637935b6" d="M110.45,205.63a1.34,1.34,0,0,1,0,2.67H100.19a1.34,1.34,0,0,1,0-2.67Z"/><path class="ec88f165-4829-4c0e-9f37-1c11637935b6" d="M123.69,185.93a1.34,1.34,0,0,1,0,2.67H113.43a1.34,1.34,0,0,1,0-2.67Z"/><path class="ec88f165-4829-4c0e-9f37-1c11637935b6" d="M133.34,209.67a1.34,1.34,0,0,1,0,2.67H123.08a1.34,1.34,0,0,1,0-2.67Z"/><path class="ec88f165-4829-4c0e-9f37-1c11637935b6" d="M110.59,221.69a1.34,1.34,0,0,1,0,2.67H100.33a1.34,1.34,0,0,1,0-2.67Z"/><path class="ec88f165-4829-4c0e-9f37-1c11637935b6" d="M62.2,217a1.34,1.34,0,0,1,0,2.68H51.94a1.34,1.34,0,0,1,0-2.68Z"/><path class="ec88f165-4829-4c0e-9f37-1c11637935b6" d="M67.32,202a1.34,1.34,0,0,1,0,2.67H57.06a1.34,1.34,0,0,1,0-2.67Z"/><path class="ec88f165-4829-4c0e-9f37-1c11637935b6" d="M41.49,202a1.34,1.34,0,0,1,0,2.67H31.23a1.34,1.34,0,0,1,0-2.67Z"/><path class="ec88f165-4829-4c0e-9f37-1c11637935b6" d="M57.39,184a1.34,1.34,0,0,1,0,2.67H47.14a1.34,1.34,0,0,1,0-2.67Z"/><path class="ec88f165-4829-4c0e-9f37-1c11637935b6" d="M30.13,184a1.34,1.34,0,0,1,0,2.67H19.87a1.34,1.34,0,0,1,0-2.67Z"/><path class="ec88f165-4829-4c0e-9f37-1c11637935b6" d="M30.13,168.77a1.34,1.34,0,0,1,0,2.68H19.87a1.34,1.34,0,0,1,0-2.68Z"/><path class="ec88f165-4829-4c0e-9f37-1c11637935b6" d="M151.25,173.83a1.34,1.34,0,0,1,0,2.67H141a1.34,1.34,0,0,1,0-2.67Z"/><path class="ec88f165-4829-4c0e-9f37-1c11637935b6" d="M151.25,190a1.34,1.34,0,0,1,0,2.68H141a1.34,1.34,0,0,1,0-2.68Z"/><path class="ae3cfc13-9705-45f4-bab3-8a11f0c5b2de" d="M0,234.05V0H174.87V234.05Zm7.69-130.4c-.33,4-.67,8-.67,12.37H31.09c.34-4.35.67-8.36,1-12.37ZM7,118A74.64,74.64,0,0,0,8.69,130.4H32.1c-.34-4-.67-8-1-12.37Zm25.41-16.72c.67-4,1.67-8,2.68-12H9.7c-.67,4-1.34,8-1.68,12ZM9.36,132.74a63.38,63.38,0,0,0,5.35,12h20.4c-1-4-2-8-2.68-12Zm4-58.18c-1.33,4-2.34,8-3.34,12.37H35.78c1.67-4.35,3.34-8.36,5.35-12.37ZM49.82,183.89a81,81,0,0,1-20.73-12.37l-3.34-2.67a80.19,80.19,0,0,1-14.38-16,128.41,128.41,0,0,0,12.37,31.09l1.67,3a87.28,87.28,0,0,0,11,15l2.68,2.67A73.7,73.7,0,0,0,54.17,217l4.68,2.68A58.46,58.46,0,0,0,87.6,227,62.87,62.87,0,0,0,105,224.35l6.35-2.34a66.53,66.53,0,0,0,16-9.7l3.34-2.67a91.82,91.82,0,0,0,15.05-17l2-2.68a136.33,136.33,0,0,0,15.05-34.77,70.51,70.51,0,0,1-13,15l-4.35,3.68-4,2.68a89.5,89.5,0,0,1-18.72,9.36l-9,2.67a99.59,99.59,0,0,1-56.84-1.67Zm1-123.71H18.72c-1.67,4-3.34,8-4.68,12.37H42.13a47.41,47.41,0,0,1,5.35-8ZM16.05,147.11a63.52,63.52,0,0,0,9.36,12.38H41.13c-2-4-3.68-8-5.35-12.38ZM26.41,45.81a105.93,105.93,0,0,0-6.68,12.37h33.1a46.35,46.35,0,0,1,17-12.37Zm1,115.68a90.27,90.27,0,0,0,16.71,12.37h6.69l-3.34-4.34a47.51,47.51,0,0,1-5.35-8ZM37.11,31.43a115.5,115.5,0,0,0-9.36,12H76.23a50.38,50.38,0,0,1,22.4,0h48.48a112.86,112.86,0,0,0-9.36-12Zm98.64-2.34a97.55,97.55,0,0,0-15-12.37H54.5a73.7,73.7,0,0,0-15,12.37ZM52.83,175.87H48.15a38.44,38.44,0,0,0,8.35,4ZM116.69,14.71A61.1,61.1,0,0,0,87.6,7a61.39,61.39,0,0,0-29.42,7.69Zm5.68,43.47h32.77a106.73,106.73,0,0,0-6.35-12.37H105a47.38,47.38,0,0,1,15,10ZM112,130.4h54.5c.67-3.35,1-6.69,1.33-10H112Zm49.48,14.37a46.9,46.9,0,0,0,4.35-12H112v5q15.54.51,21.06,7Zm-39.12,31.1a43.59,43.59,0,0,1-5.68,5.35c4.35-1.67,8.69-3.35,12.7-5.35Zm2-115.69a80.52,80.52,0,0,1,8.36,12.37h28.08c-1.33-4.34-3-8.35-4.68-12.37Zm9,113.68a85.94,85.94,0,0,0,16.05-12.37H132.74a80,80,0,0,1-8.36,12.37Zm31.42-86.93c-1-4.35-2-8.36-3-12.37H134.07a79.49,79.49,0,0,1,5,12.37Zm-30.76,72.56h17.39a51.74,51.74,0,0,0,8.69-12.38H134.74c1.68,3.35,1.68,7-.33,11.37Z"/></g></g></svg>