<svg xmlns="http://www.w3.org/2000/svg" viewBox="0 0 342.04 234.05"><defs><style>.e8fb2b1d-fee8-49f2-be04-0d254bc28bde{fill:#6ebe8b;}.a2a59f43-565b-4dac-ad73-0ab81cb56499{fill:#ef3d57;}.edd1f4e9-6c70-432b-8738-db35492d8b09{fill:#f2744b;}.ebc92f6a-a801-47b2-991e-a4340f2ffe35{fill:#fdc14f;}.e6746b14-0c75-48a5-809c-07b103253757{fill:#f8f9f3;}.f41d3902-0c42-41e3-8cdc-a141a293e76d{fill:#452c70;}.a5a6c6f1-fa56-44fc-9a20-194048d97bd7{fill:#f03c57;}</style></defs><title>Asset 4</title><g id="e98ec090-e912-4acd-9b51-2a322810f310" data-name="Layer 2"><g id="a14d5b77-1ab8-4241-935e-d46914705bd8" data-name="Layer 3"><rect class="e8fb2b1d-fee8-49f2-be04-0d254bc28bde" x="4.5" y="5.15" width="165.91" height="226.36"/><path class="a2a59f43-565b-4dac-ad73-0ab81cb56499" d="M26.22,108.45H54.61a53.63,53.63,0,0,1,0-21.91c1-5,1.93-8.87,5.08-12.33,6.39-7,16.76-6.27,19-6.07L79,33.51c-6.34-.36-11.89-.34-16.43-.19-6.8.23-10.27.36-13.89,1.56a33.27,33.27,0,0,0-13.7,9,34.76,34.76,0,0,0-6.85,11.35A35.33,35.33,0,0,0,26,68.14Q26.13,88.3,26.22,108.45Z"/><path class="edd1f4e9-6c70-432b-8738-db35492d8b09" d="M148.55,108.45H120.16a53.63,53.63,0,0,0,0-21.91c-1.05-5-1.93-8.87-5.08-12.33-6.39-7-16.76-6.27-19-6.07l-.39-34.63c6.34-.36,11.89-.34,16.43-.19,6.8.23,10.27.36,13.89,1.56a33.27,33.27,0,0,1,13.7,9,34.94,34.94,0,0,1,6.85,11.35,35.33,35.33,0,0,1,2.15,12.91Q148.65,88.3,148.55,108.45Z"/><path class="ebc92f6a-a801-47b2-991e-a4340f2ffe35" d="M26.22,126H54.61a53.63,53.63,0,0,0,0,21.91c1,5,1.93,8.87,5.08,12.33,6.39,7,16.76,6.27,19,6.06L79,200.88c-6.34.36-11.89.35-16.43.2-6.8-.23-10.27-.37-13.89-1.57a33.27,33.27,0,0,1-13.7-9,34.52,34.52,0,0,1-6.85-11.35A35.3,35.3,0,0,1,26,166.25Q26.13,146.1,26.22,126Z"/><path class="e6746b14-0c75-48a5-809c-07b103253757" d="M148.55,126H120.16l-23.71-.68-1.17,22.5,24.9.09a20.29,20.29,0,0,1-5.08,12.33c-7.24,7.9-18.13,6.21-19,6.06l-.39,34.63c6.34.36,11.89.35,16.43.2,6.8-.23,10.27-.37,13.89-1.57a33.27,33.27,0,0,0,13.7-9,34.7,34.7,0,0,0,6.85-11.35,35.3,35.3,0,0,0,2.15-12.91Q148.65,146.1,148.55,126Z"/><path class="f41d3902-0c42-41e3-8cdc-a141a293e76d" d="M0,234.05V0H174.87V234.05ZM44.8,7.69,7.69,44.8V62.19l54.5-54.5Zm20.4,0L7.69,65.2V82.58l16-16V65.2A34.82,34.82,0,0,1,58.85,30.43h1.33L82.58,7.69Zm-40.79,0L7.69,24.41V41.79l34.1-34.1ZM7.69,21.06,21.06,7.69H7.69Zm16,48.48-16,16V103l16-16Zm0,20.73-16,16v17.39l16-16.38Zm-16,36.45V144.1l16-16v-3.35c0-2,1-3,2.67-3h3.35l1.67-1.33v-8h-5a2.45,2.45,0,0,1-2.34-2Zm16,4.35-16,16v17.72l16-16.38Zm0,20.73-16,16V184.9l16-16.05Zm-16,36.44v17l20.06-20.06a32.52,32.52,0,0,1-4-13.37Zm0,20.06V226l29.76-29.76a32.19,32.19,0,0,1-8.36-9.36Zm20.4,18.06L51.49,203a33.83,33.83,0,0,1-12.37-5.35L10.7,226.36Zm1-119.7H51.82V87.6c0-11.7,9.37-21.4,20.07-21.4h5.35V35.78H58.85A29.75,29.75,0,0,0,29.09,65.2Zm22.73,20.73H29.09v41.46a29.75,29.75,0,0,0,29.76,29.42H77.24V167.84h-5c-11,0-20.4-9.69-20.4-21.39Zm-20.73,99H47.81l22.74-22.74H58.85a22.3,22.3,0,0,1-4.68-.33Zm18.73-114v9.36h.67L100.3,71.89H95a2.47,2.47,0,0,1-2.68-2.68V63.53h-1L57.51,97.3v12c0,2-1,3-2.68,3Zm24.07,91.28L51.16,226.36H68.88l23.74-24.08a2,2,0,0,1-.34-1.34v-8.69h-7l-2.68,2.68v6a2.46,2.46,0,0,1-2.67,2.68ZM53.5,121.7h1.33c1.67,0,2.68,1,2.68,3v10.37L114.68,77.9a15.38,15.38,0,0,0-11-6Zm4-27.41,22.4-22.4H72.22c-8,0-14.71,6.68-14.71,15.71Zm0,44.13v8a18.26,18.26,0,0,0,1.67,7.35l19.06-19.06V130.4c0-2,1-3,3.34-3h4.35l31.76-31.77v-8a15.62,15.62,0,0,0-2-7.69Zm20.73-.67L60.18,155.81a14.79,14.79,0,0,0,11.37,6.35l16-16h-6c-2.34,0-3.34-1-3.34-3.34ZM79.91,30.43h.67L103.31,7.69H85.93L63.19,30.43ZM95,203.62h-.34L71.89,226.36H89.27L112,203.62Zm-2.68-57.51H90.61l-16,16h5.35a2.46,2.46,0,0,1,2.67,2.67v5.69h1.34l19.39-19.39H95a2.47,2.47,0,0,1-2.68-2.68Zm8.36-115.68L123.38,7.69H106.32L82.25,31.76a2.05,2.05,0,0,1,.33,1.34v8.69h6.69l3-3V33.1A2.46,2.46,0,0,1,95,30.43ZM88.27,63.53H82.58v5.68Zm-1.34,107h5.35v-5.35Zm5.35-43.13v-2.68l.34-1-3.68,3.68ZM115,203.62,92.28,226.36h17.39l57.51-57.85V151.13l-16.05,16.38v1.34a35,35,0,0,1-34.78,34.77ZM121.37,112l-1,.33c-1.68,0-2.68-1-2.68-3V98.63L94,122l1-.34h16.71Zm-15.05,39.12-11,11H103a14.29,14.29,0,0,0,14-11ZM98,35.78V66.2h5c11,0,20.06,9.7,20.06,21.4v19.06h22.74V65.2a29.69,29.69,0,0,0-29.43-29.42Zm0,162.49h18.39a29.69,29.69,0,0,0,29.43-29.42V127.39H98v18.39H120a2.94,2.94,0,0,1,3,2.67c-1.34,11-9.7,19.39-20.06,19.39H98ZM144.11,7.69H126.38L104,30.43h12.37a22.44,22.44,0,0,1,4.69.33ZM130.4,226.36l36.78-37.12V171.86l-54.5,54.5Zm11.7-114H124.71L115,121.7H132.4ZM164.5,7.69H147.11l-23.4,23.4a32.68,32.68,0,0,1,12,5.35Zm-14,218.67,16.72-16.72V192.25l-33.77,34.11Zm16.72-119V89.94l-16.05,16v3.34c0,2-1,3-2.68,3h-3.34l-9.7,9.36h13a2.65,2.65,0,0,1,2.68,1.68Zm0-81.92V8L137.75,37.78a35.21,35.21,0,0,1,8,9Zm0,20.4V28.42L147.11,48.81a29.74,29.74,0,0,1,4,13ZM151.13,82.25l16.05-16V48.81l-16.05,16V82.25Zm0,20.73L167.18,86.6V69.21L151.13,85.59Zm16.05,7.36-16.05,16v17.39l16.05-16.05Zm0,20.39-16.05,16.05v17.39l16.05-16Zm0,81.92-13.71,13.71h13.71Z"/><polygon class="e6746b14-0c75-48a5-809c-07b103253757" points="170.09 193.55 170.09 229.57 223.01 229.57 287.21 4.82 222.53 4.82 170.09 193.55"/><polygon class="a5a6c6f1-fa56-44fc-9a20-194048d97bd7" points="171.4 4.82 222.53 4.82 172.44 182.42 171.4 4.82"/><polygon class="a5a6c6f1-fa56-44fc-9a20-194048d97bd7" points="227.02 229.57 254.12 126.75 285.54 229.57 227.02 229.57"/><polygon class="ebc92f6a-a801-47b2-991e-a4340f2ffe35" points="294.23 32.34 262.24 141.3 254.61 122.91 287.21 11.03 294.23 32.34"/><polygon class="e8fb2b1d-fee8-49f2-be04-0d254bc28bde" points="301.67 53.16 269.68 162.12 262.05 143.73 294.65 31.86 301.67 53.16"/><polygon class="ebc92f6a-a801-47b2-991e-a4340f2ffe35" points="308.91 81.56 276.92 190.51 269.29 172.13 300.75 60.25 308.91 81.56"/><polygon class="e8fb2b1d-fee8-49f2-be04-0d254bc28bde" points="315.57 106.26 285.57 209.83 275.67 198.81 309.12 82.4 315.57 106.26"/><polygon class="ebc92f6a-a801-47b2-991e-a4340f2ffe35" points="322.82 128.99 295.93 223.21 282.91 221.54 316.36 105.13 322.82 128.99"/><polygon class="e8fb2b1d-fee8-49f2-be04-0d254bc28bde" points="329.22 158.71 308.07 230.17 295.05 228.5 322.76 134.85 329.22 158.71"/><polygon class="ebc92f6a-a801-47b2-991e-a4340f2ffe35" points="336.24 184.4 322.76 230.17 309.74 228.5 329.79 160.54 336.24 184.4"/><polygon class="e8fb2b1d-fee8-49f2-be04-0d254bc28bde" points="324.99 228.58 336.24 228.58 336.24 187.05 324.99 228.58"/><polygon class="a5a6c6f1-fa56-44fc-9a20-194048d97bd7" points="287.21 4.82 336.24 179.05 338.35 4.82 287.21 4.82"/><path class="f41d3902-0c42-41e3-8cdc-a141a293e76d" d="M167.18,234.05V0H342V234.05Zm7.69-41.8v34.11h47.47L281.86,7.69H225.35Zm0-24.74L218.67,7.69h-43.8Zm105.32,58.85-25.41-94-25.75,94Zm-20.73-101h6L290.89,32.1l-4.35-15.72L258.12,120Zm38.45-67.54-5-18.39L264.47,143.1l2,8h6Zm2,7.36L271.49,168.85l2,8h6l25.41-93.28Zm7,25.74L278.51,194.59l2,8h5.69L312,109.33Zm7,25.75L285.54,220.34V221h10L319,135.08ZM334.69,13.37A20,20,0,0,1,330,11c-4.34-3.67-9.36-3.67-13.7,0-5.69,4-11,4-16.72,0-2.34-1.67-4.35-2.67-6.69-2.67h-1.67l2.34,9a11.62,11.62,0,0,1,7.36,3c5,3,9,3,14,0,5.35-4,11-4,16.38,0a10.47,10.47,0,0,0,3.35,1.67Zm0,11A20.8,20.8,0,0,1,330,22.07c-4.34-3.68-9.36-3.68-13.7,0-5.69,4-11,4-16.72,0-2-1.67-3.68-2.34-5.35-2.34l2.67,9.36a29.2,29.2,0,0,1,4,2.34c5,3.68,9,3.68,14,0,5.35-4,11-4,16.38,0a12.74,12.74,0,0,0,3.35,2Zm0,11.37A20.8,20.8,0,0,1,330,33.44c-4.34-3.68-9.36-3.68-13.7,0-5.69,3.67-11,3.67-16.72,0l-2-1.68,2.68,10.7.67.34c5,3.67,9,3.67,14,0,5.35-4,11-4,16.38,0a12.39,12.39,0,0,0,3.35,2Zm-8.7,125-5-18.39-23.07,83.93h10ZM317.3,7.69H298.58L300.92,9c5,3.68,9,3.68,14,0Zm17.39,39.12A12.32,12.32,0,0,1,330,44.47a11.52,11.52,0,0,0-13.7,0c-3,2-5.69,3-8.36,3a15.29,15.29,0,0,1-6.69-1.67l3,10a12.13,12.13,0,0,0,3.68.67,11.79,11.79,0,0,0,7-2.34c5.35-4,11-4,16.38,0a10.47,10.47,0,0,0,3.35,1.67Zm0,11.37A20.8,20.8,0,0,1,330,55.84c-4.34-3.68-9.36-3.68-13.7,0-3,2-5.69,3-8.36,3a9.09,9.09,0,0,1-3-.34l2.34,9.36h.67a12.3,12.3,0,0,0,7-2.67c5.35-3.68,11-3.68,16.38,0a12.39,12.39,0,0,0,3.35,2Zm0,11.36A20,20,0,0,1,330,67.2c-4.34-3.67-9.36-3.67-13.7,0-3,1.68-5.69,2.68-8.36,2.68l2.34,9A12.37,12.37,0,0,0,315,76.57c5.35-4,11-4,16.38,0a12.39,12.39,0,0,0,3.35,2Zm0,11A12.32,12.32,0,0,1,330,78.24a11.52,11.52,0,0,0-13.7,0A11.44,11.44,0,0,1,311,80.91l2.34,8,1.67-1c5.35-4,11-4,16.38,0a10.32,10.32,0,0,0,3.35,1.68ZM312,226.36h10l11-39.79-5-18.73ZM334.69,92A20.8,20.8,0,0,1,330,89.61c-4.34-3.68-9.36-3.68-13.7,0l-2.68,1.67,2,7.35A12.73,12.73,0,0,1,323,96.29,15.48,15.48,0,0,1,331.34,99a12.39,12.39,0,0,0,3.35,2Zm0,11.36A20,20,0,0,1,330,101c-4.34-3.67-9.36-3.34-13.7-.33l2,7.69a11.77,11.77,0,0,1,4.68-1,13.48,13.48,0,0,1,8.36,3,12.39,12.39,0,0,0,3.35,2Zm0,11.37A13.82,13.82,0,0,1,330,112a11.79,11.79,0,0,0-7-2.34,12.29,12.29,0,0,0-4,.67l2.34,8.35H323a13.54,13.54,0,0,1,8.36,3,10.32,10.32,0,0,0,3.35,1.68Zm0,11a12.47,12.47,0,0,1-4.69-2.34,11.72,11.72,0,0,0-7-2.34h-1l2.34,8.69a16,16,0,0,1,7,3,10.47,10.47,0,0,0,3.35,1.67Zm0,11a12.18,12.18,0,0,1-4.69-2.34,11.27,11.27,0,0,0-5-2.34l2.67,9.69c1,.34,2,1.34,3.68,2.34a10.32,10.32,0,0,0,3.35,1.68Zm0,58.51-8.7,31.1h8.7Zm0-47.14a20.8,20.8,0,0,1-4.69-2.34l-1.67-1.34,3,10.7a12.39,12.39,0,0,0,3.35,2Zm0-140.43H329L331.34,9a12.39,12.39,0,0,0,3.35,2Zm0,159.82v-8a10,10,0,0,1-2.68-1.34Z"/><path class="f41d3902-0c42-41e3-8cdc-a141a293e76d" d="M181.89,83.92c-.34,1-1.34,1-1.67,0-.67-.33-.67-1,0-1.67l6.68-7c1.34-1.34,3.35.67,2,1.67Z"/><path class="f41d3902-0c42-41e3-8cdc-a141a293e76d" d="M187.24,100.31a1.41,1.41,0,1,1,2,2l-7,7a2.09,2.09,0,0,1-2,0,1.25,1.25,0,0,1,0-2Z"/><path class="f41d3902-0c42-41e3-8cdc-a141a293e76d" d="M184.56,54.17a1,1,0,0,1-2,0c-.67-.67-.67-1.34,0-1.68l7-7c1.34-1.34,3.34.34,2,1.67Z"/><path class="f41d3902-0c42-41e3-8cdc-a141a293e76d" d="M187.91,23.74a1.55,1.55,0,0,1-1.68,0,1.27,1.27,0,0,1,0-2l7-7c1.34-1.34,3,.67,1.68,2Z"/><path class="f41d3902-0c42-41e3-8cdc-a141a293e76d" d="M200.61,58.18a1.42,1.42,0,0,1,2,2l-7,7a2.11,2.11,0,0,1-2,0,1.25,1.25,0,0,1,0-2Z"/><path class="f41d3902-0c42-41e3-8cdc-a141a293e76d" d="M202,35.78q-1.5,1.5-2,0c-.67-.34-.67-1,0-1.68l7-7c1.34-1.33,3,.67,1.67,2Z"/><path class="f41d3902-0c42-41e3-8cdc-a141a293e76d" d="M238.06,223c-3.35,3.35-8.36-1.67-5-5S241.4,219.67,238.06,223Z"/><path class="f41d3902-0c42-41e3-8cdc-a141a293e76d" d="M248.09,204.29a3.72,3.72,0,0,1-3.68,3.68,3.55,3.55,0,0,1-2.34-6C244.08,199.94,248.09,201.28,248.09,204.29Z"/><path class="f41d3902-0c42-41e3-8cdc-a141a293e76d" d="M246.75,189.58c-3.34-3.35,1.34-8,5-5C255.11,187.57,249.76,192.59,246.75,189.58Z"/><path class="f41d3902-0c42-41e3-8cdc-a141a293e76d" d="M251.77,159.15c3.34-3.34,8.36,1.67,5,5S248.42,162.49,251.77,159.15Z"/><path class="f41d3902-0c42-41e3-8cdc-a141a293e76d" d="M257.12,219.33c-3.35,3.35-8-1.33-5-5C255.11,211,260.13,216.32,257.12,219.33Z"/><path class="f41d3902-0c42-41e3-8cdc-a141a293e76d" d="M256.78,176.87a3.55,3.55,0,0,1,6-2.34c2,2,.67,6-2.34,6A4.27,4.27,0,0,1,256.78,176.87Z"/><path class="f41d3902-0c42-41e3-8cdc-a141a293e76d" d="M261.46,204.29c-3.34-3.35,1.34-8,5-5C269.82,202.28,264.47,207.3,261.46,204.29Z"/><path class="f41d3902-0c42-41e3-8cdc-a141a293e76d" d="M271.83,223c-3.35,3.35-8.36-1.67-5-5S275.17,219.67,271.83,223Z"/></g></g></svg>