<svg xmlns="http://www.w3.org/2000/svg" viewBox="0 0 342.04 234.05"><defs><style>.ea2d952c-0fc7-4d1e-b2bb-dc4baea61d49{fill:#f03c57;}.b1e82093-4d71-422f-a9e1-bb6b7e707a65{fill:#6ebe8b;}.fa72a461-c4fb-4065-b642-93be41253927{fill:#f3744b;}.f2249231-afbe-47b8-a1da-081a929c02f0{fill:#fdc14f;}.a30d7e39-58ce-4847-bacc-b2998af27c4f{fill:#f8f9f3;}.f81e7db4-3c97-4a88-ae12-92d266d6425a{fill:#452c70;}.a941d263-5329-4686-8325-eb0037a86e2f{fill:#bfbbbc;}.a9757197-88fc-4946-9d83-651cad130f74{fill:#878986;}</style></defs><title>Asset 9</title><g id="e8a0d58f-6989-4afd-994d-212bb83f1173" data-name="Layer 2"><g id="a0681a43-c09d-462b-bd9e-cef1cc2a17a7" data-name="Layer 3"><polygon class="ea2d952c-0fc7-4d1e-b2bb-dc4baea61d49" points="201.28 228.9 201.28 206.78 192.77 198.27 201.28 189.76 201.28 127.98 195.26 119.7 201.28 113.68 201.28 91.81 205.29 77.1 211.65 64.86 222.34 55.34 236.39 48.48 253.05 47.31 254.61 2.54 199.44 7.69 176.35 30.26 170.09 51.16 170.09 228.9 201.28 228.9"/><polygon class="b1e82093-4d71-422f-a9e1-bb6b7e707a65" points="225.61 228.9 225.61 211.24 225.9 181.77 205.77 163.63 225.61 148.32 226.47 141.71 225.61 136.9 225.61 119.44 228.81 107.7 233.88 100.76 242.43 98.82 252.22 99.02 254.19 83.91 254.01 48.17 224.14 52.27 205.71 70.3 200.71 86.98 200.71 228.9 225.61 228.9"/><polygon class="fa72a461-c4fb-4065-b642-93be41253927" points="282.7 228.9 282.7 211.24 282.41 181.77 302.54 163.63 282.7 148.32 281.83 141.71 282.7 136.9 282.7 119.44 279.49 107.7 274.42 100.76 265.88 98.82 256.08 99.02 254.12 83.91 254.29 48.17 284.17 52.27 302.6 70.3 307.6 86.98 307.6 228.9 282.7 228.9"/><polygon class="f2249231-afbe-47b8-a1da-081a929c02f0" points="307.09 228.9 307.09 206.78 315.61 198.27 307.09 189.76 307.09 127.98 313.11 119.7 307.1 113.68 307.09 91.81 303.08 77.1 296.73 64.86 286.03 55.34 271.99 48.48 255.33 47.31 253.77 2.54 308.93 7.69 332.02 30.26 338.28 51.16 338.28 228.9 307.09 228.9"/><rect class="a30d7e39-58ce-4847-bacc-b2998af27c4f" x="195.26" y="113.45" width="12.04" height="12.04" transform="translate(143.43 -107.34) rotate(45)"/><rect class="a30d7e39-58ce-4847-bacc-b2998af27c4f" x="195.26" y="192.25" width="12.04" height="12.04" transform="translate(199.15 -84.25) rotate(45)"/><rect class="a30d7e39-58ce-4847-bacc-b2998af27c4f" x="301.4" y="113.45" width="12.04" height="12.04" transform="translate(174.52 -182.39) rotate(45)"/><rect class="a30d7e39-58ce-4847-bacc-b2998af27c4f" x="301.4" y="192.25" width="12.04" height="12.04" transform="translate(230.24 -159.31) rotate(45)"/><polygon class="f2249231-afbe-47b8-a1da-081a929c02f0" points="284.4 149.86 223.69 149.86 212.35 161.86 298.57 161.86 284.4 149.86"/><polygon class="ea2d952c-0fc7-4d1e-b2bb-dc4baea61d49" points="283.6 177.44 221 177.44 209.3 165.44 298.22 165.44 283.6 177.44"/><path class="f81e7db4-3c97-4a88-ae12-92d266d6425a" d="M167.18,234.05V0H342V234.05ZM251.43,7.69H240.06a70.47,70.47,0,0,0-51.82,21.73,54.26,54.26,0,0,0-13.37,28.42V226.36h23.07V206.63l-8.7-8.69,8.7-9V128.73l-8.7-9,8.7-9V99.3c0-4.34-.34-9,4-22.07,2.34-6.35,5.35-12,9.69-16.71,9.37-10,22.74-15.38,39.79-15.72Zm-44.13,112-6-6-6,6,6,6Zm0,78.24-6-6-6,6,6,5.68ZM251.43,57.17,206,85.59c-.67,3.35-1,6.69-1.34,9.7L251.43,66.2ZM204.62,98v9l46.81-29.42v-9Zm46.81-17.72-46.81,29.09V111l4.68,4.35,15-9.36a18.94,18.94,0,0,1,4-6c4.35-5,11-8,19.73-9l3.34-1.67ZM211,117l2.34,2.68-8.7,8.69v1.34l17.72-11v-2.34a16.84,16.84,0,0,1,.67-7Zm11.36,4.35-17.72,11v9l17.72-11ZM204.62,152.8l17.72-11v-8.69l-17.72,10.7Zm17.72-8.36-17.72,11v2.68l17.72-11Zm-13,28.42-4.68-3v6Zm9.37,5.68-7.36-4.34-6.69,4.34v8.7Zm3.67,11.71-10,6.35,1,1.34-8.7,8.69v3.68l17.72-11Zm0,11.7-17.72,11v8.69l17.72-11Zm-17.72,24.41h13.71l4-2.34v-10.7l-17.72,11Zm17.72-45.48-1.67-1-15.38,9.7,5.35,5.35,11.7-7Zm-10-110.67a46.79,46.79,0,0,0-5.68,12.37l44.8-28.08V51.16a102.52,102.52,0,0,0-10.7,1.33Zm.67,97.3,2.68,1.34,2.34-1.34Zm15.05-15-13.71,8.36h81.92l-13.38-8.36Zm5.68-98.3c-7,2.35-12.7,5.69-17.38,10.7Zm-16.05,116,7,4.69,11.71-7.36h-14Zm9.36,5.69H241.4l13.38-8.36H240.73Zm32.1-8.36-13.71,8.36h14.38l13.38-8.36ZM257.79,16.05l13.37-8.36H257.79Zm0,2.67v8.7l27.75-17.06a63.77,63.77,0,0,0-11-2Zm0,20.4L297.91,14c-3-1-6-2-9.37-3L257.79,30.09Zm0,2.67v3a65.84,65.84,0,0,1,8.35.67l42.13-26.41a30,30,0,0,0-8-4Zm0,9.37V90.94c10.36.34,18.38,3.35,23.4,9,4.35,4.68,6,10,6,16.38v30.76l17.38,11V128.39l-9-8.69,9-8.7V99c-.33-1,1-19.73-12-34.11C284.53,56.51,272.83,51.82,257.79,51.16Zm19.39,116.35-13.38,8.36h15.38l13.38-8.36ZM316.63,25.08a43.52,43.52,0,0,0-6.35-4.68L269.49,45.81a81.11,81.11,0,0,1,9.69,2.67Zm7,7.35-2.67-3-2.68-2.67L281.86,49.48a57.94,57.94,0,0,1,7.69,4.35ZM304.59,170.18l-17.38,10.7v45.48h17.38V206.63l-9-8.69,9-9ZM329,40.46a25.51,25.51,0,0,0-4-6.36L291.55,55.17a42.4,42.4,0,0,1,5.69,5.35Zm3.68,9.36A64.06,64.06,0,0,0,330,42.46L298.91,61.85a43.23,43.23,0,0,1,4.35,6.36Zm-24.74,75.9,6-6-6-6-6,6Zm6,72.22-6-6-6,6,6,5.68ZM334.35,60.18V57.84l-1-6L304.26,70.21a41.35,41.35,0,0,1,3.34,6.69Zm0,11.37v-9L308.27,79.24c.67,2.34,1.34,5,2,7.69Zm0,11.37V74.23l-23.74,15a35.68,35.68,0,0,1,.34,8.36Zm0,2.67L311,100.31v9l23.4-14.71ZM311,128.73v3.34l23.4-14.38v-9l-15.71,9.7L320,119.7Zm0,15,23.4-14.71v-9L311,134.74Zm23.4-12L311,146.11v9l23.4-14.71ZM311,166.51l23.4-14.38v-9L311,157.81v8.7Zm23.4-12L311,169.18v9l23.4-14.71Zm0,11.7L311,180.55v8.36l.67.33,22.73-14.37ZM311,206.63v5.68l23.4-14.37v-9l-15,9.69Zm0,8.36v9l23.4-14.72v-9Zm.33,11.37h14.38l8.69-5.69V212Zm.34-115L317.3,117l17.05-11V97.3ZM313,190.91l5.69,5.35,15.71-9.69v-9Zm21.4,35.45v-3l-4.68,3Z"/><path class="a30d7e39-58ce-4847-bacc-b2998af27c4f" d="M171.18,231.5H146.1L48.85,116.8Q97.47,59.92,146.1,3.06h25.08Z"/><polygon class="f2249231-afbe-47b8-a1da-081a929c02f0" points="16.21 102.32 5.54 102.32 5.54 88.23 27.55 88.23 16.21 102.32"/><polygon class="f2249231-afbe-47b8-a1da-081a929c02f0" points="27.55 87.51 5.54 87.51 5.54 73.43 38.89 73.43 27.55 87.51"/><polygon class="fa72a461-c4fb-4065-b642-93be41253927" points="39.17 72.71 5.83 72.71 5.83 59.19 50.51 59.19 39.17 72.71"/><polygon class="fa72a461-c4fb-4065-b642-93be41253927" points="50.51 58.75 5.83 58.75 5.83 45.23 61.85 45.23 50.51 58.75"/><polygon class="fa72a461-c4fb-4065-b642-93be41253927" points="64.68 43.98 5.83 43.98 5.83 30.46 76.02 30.46 64.68 43.98"/><polygon class="ea2d952c-0fc7-4d1e-b2bb-dc4baea61d49" points="76.02 29.66 5.83 29.66 5.83 16.14 87.36 16.14 76.02 29.66"/><polygon class="ea2d952c-0fc7-4d1e-b2bb-dc4baea61d49" points="87.36 15.02 5.83 15.02 5.83 6.34 98.7 6.34 87.36 15.02"/><polygon class="f2249231-afbe-47b8-a1da-081a929c02f0" points="15.91 132.13 5.25 132.13 5.25 146.22 27.25 146.22 15.91 132.13"/><polygon class="f2249231-afbe-47b8-a1da-081a929c02f0" points="27.25 146.93 5.25 146.93 5.25 161.02 38.59 161.02 27.25 146.93"/><polygon class="fa72a461-c4fb-4065-b642-93be41253927" points="38.88 161.74 5.53 161.74 5.53 175.26 50.21 175.26 38.88 161.74"/><polygon class="fa72a461-c4fb-4065-b642-93be41253927" points="50.21 175.7 5.53 175.7 5.53 189.22 61.55 189.22 50.21 175.7"/><polygon class="fa72a461-c4fb-4065-b642-93be41253927" points="64.39 190.47 5.53 190.47 5.53 203.99 75.73 203.99 64.39 190.47"/><polygon class="ea2d952c-0fc7-4d1e-b2bb-dc4baea61d49" points="75.73 204.78 5.53 204.78 5.53 218.31 87.06 218.31 75.73 204.78"/><polygon class="ea2d952c-0fc7-4d1e-b2bb-dc4baea61d49" points="87.06 219.43 5.53 219.43 5.53 228.11 98.4 228.11 87.06 219.43"/><polygon class="a941d263-5329-4686-8325-eb0037a86e2f" points="105.55 5.93 105.55 12.09 109.5 12.58 114.65 11.7 122.38 7.69 122.77 6.34 105.55 5.93"/><polygon class="b1e82093-4d71-422f-a9e1-bb6b7e707a65" points="105.55 12.97 105.55 23.07 109.17 23.83 114.16 23.07 119.7 20.41 124.53 18.4 131.09 19.04 136.07 8.37 127.17 6.34 120.81 9.25 116.8 11.7 112.6 13.17 109.5 13.36 105.55 12.97"/><polygon class="a9757197-88fc-4946-9d83-651cad130f74" points="126.32 18.89 120.81 20.11 116.8 22.56 112.6 24.02 109.5 24.22 105.55 23.83 105.55 33.93 109.17 34.69 115.01 34.21 128.2 19.93 126.32 18.89"/><polygon class="b1e82093-4d71-422f-a9e1-bb6b7e707a65" points="105.55 35.08 113.18 35.37 106.32 44.57 105.55 35.08"/><polygon class="b1e82093-4d71-422f-a9e1-bb6b7e707a65" points="105.72 191.8 109.5 192.71 116.87 201.51 114.58 202.95 110.41 203.99 105.45 203.28 105.72 191.8"/><polygon class="a9757197-88fc-4946-9d83-651cad130f74" points="105.45 204.38 105.45 214.32 109.11 215.21 114.52 214.32 122.8 209.8 117.78 202.62 111.85 204.78 105.45 204.38"/><polygon class="b1e82093-4d71-422f-a9e1-bb6b7e707a65" points="105.45 215.21 109.5 215.67 114.01 214.95 117.72 213.12 123.85 210.19 135.08 222.84 132.52 223.17 126.98 221.01 122.08 221.6 116.87 224.35 112.04 226.35 104.74 226.35 105.45 215.21"/><polygon class="a941d263-5329-4686-8325-eb0037a86e2f" points="114.01 227.14 117.19 224.8 121.7 222.43 125.15 221.67 130.43 222.84 137.02 225.97 133.82 228.11 114.01 227.14"/><polygon class="a941d263-5329-4686-8325-eb0037a86e2f" points="98.4 3.06 101.97 6.34 101.97 54.67 48.85 118.83 101.97 182.46 101.97 228.11 4 115.58 98.4 3.06"/><rect class="f2249231-afbe-47b8-a1da-081a929c02f0" x="146.45" y="3.06" width="24.73" height="225.05"/><path class="f81e7db4-3c97-4a88-ae12-92d266d6425a" d="M0,234.05V0H174.87V234.05ZM7.69,7.69v7H49.48a53,53,0,0,1,12.71-7Zm0,21.4H33.1a91,91,0,0,1,13-12.37H7.69Zm23.4,2.34H7.69v12H22.4l1.34-2.34c1.34-1.68,3.34,0,2.34,1.33l-.67,1H62.19l10.7-12H34.77l-3.68,4c-.33.34-.66.67-1,.67l-1-.33a1.26,1.26,0,0,1,0-2ZM7.69,45.81V58.18h7a71.24,71.24,0,0,1,6.35-12.37Zm0,14.37V72.55H9c1.34-4.34,3-8.35,4.68-12.37Zm0,41.13h5l10.69-12H7.69v12Zm0,43.13v.33H23.4l-10.69-12h-5Zm0,17.05v12.37h6c-1.67-4-3.34-8-4.68-12.37Zm0,14.38v12.37H60.52l-10.7-12.37H17.72l2.68,5.68a1.22,1.22,0,0,1-.67,1.67l-.67.34c-.67,0-1-.34-1.34-1l-3-6.69Zm20.73,18.72a51.9,51.9,0,0,0,6.35,8H72.89l-10.7-12H7.69v12h23.4c-1.67-2-3.34-4-5-6.36C25.08,194.93,27.08,193.25,28.42,194.59ZM33.1,205H7.69v12.37H85.26L74.56,205H36.78l1,1a1.57,1.57,0,0,1-.33,2,1.53,1.53,0,0,1-1.67,0Zm53.83,14.37H7.69v7h54.5a76.51,76.51,0,0,1-7.36-3.68,1.35,1.35,0,1,1,1.34-2.34,52.75,52.75,0,0,0,14,6H93Zm12.71-36.11L44.8,119a3.06,3.06,0,0,1,0-4l54.84-64.2V9.7L8,117,99.64,224.35ZM25.08,86.93l10.7-12.37H11.37a74,74,0,0,0-3,12.37Zm10.7,72.56-10.7-12.38H8.36a74.35,74.35,0,0,0,3,12.38Zm1.67-86.94,10.7-12.37H16.72c-1.67,4-3.35,8-4.68,12.37Zm10.7,101.31-10.7-12.37H12c1.33,4.35,3,8.36,4.68,12.37ZM49.82,58.18l10.7-12.37H24.07a71.24,71.24,0,0,0-6.35,12.37ZM74.56,29.09l10.7-12.37H51.16A100.58,100.58,0,0,0,36.78,29.09Zm75.23,197.27h17.39V7.69H149.79V87.27c0,4-6.69,4-6.69,0V9.7L51.82,117,143.1,224V120.37H116.35c-4.34,0-4.34-6.69,0-6.69h30.1l1,.33a2.67,2.67,0,0,1,2.34,3ZM86.93,14.71l6-7H70.21a72.7,72.7,0,0,0-15.71,7Zm19.39-7V11a12.36,12.36,0,0,0,4,.67,11.79,11.79,0,0,0,7-2.34A8.3,8.3,0,0,1,120,7.69Zm21.74,10,5-6L132.4,11a11.54,11.54,0,0,0-13.71,0c-3,2-5.68,3-8.35,3a12.36,12.36,0,0,1-4-.67v8.7a7.14,7.14,0,0,0,4,1,12.3,12.3,0,0,0,7-2.67,13.3,13.3,0,0,1,8-3Zm-1.68,2h-1a10.9,10.9,0,0,0-6.69,2.34c-3,2-5.68,3-8.35,3a12.63,12.63,0,0,1-4-.67v9a12.54,12.54,0,0,0,8,0Zm-20.06,23.4,5.69-7-1.67.33a12.67,12.67,0,0,1-4-.66Zm9,158.48-6.69-7.69-2.34-.67v9a12.36,12.36,0,0,0,4,.67A8,8,0,0,0,115.35,201.61Zm6.35,7.69-5-6a10.32,10.32,0,0,1-6.35,2,12.36,12.36,0,0,1-4-.67v8.7a7.23,7.23,0,0,0,4,1,12.25,12.25,0,0,0,7-2.68A30.29,30.29,0,0,1,121.7,209.3Zm11.37,13.38L123.38,211a20,20,0,0,0-4.69,2.34c-3,2-5.68,3-8.35,3a12.67,12.67,0,0,1-4-.66v9a12.36,12.36,0,0,0,4,.67,11.79,11.79,0,0,0,7-2.34,13.37,13.37,0,0,1,8-3A12.63,12.63,0,0,1,133.07,222.68Zm2,3.68a8.49,8.49,0,0,1-2.68-1.68,11.54,11.54,0,0,0-13.71,0,8.36,8.36,0,0,1-2.67,1.68Z"/></g></g></svg>