<svg id="fcce2ee0-8f5e-4b2d-b59f-f1875cea15fd" xmlns="http://www.w3.org/2000/svg" viewBox="0 0 300 140"><defs><style>.fc8a8dfc-34ed-4677-98e3-27e44672029c{fill:#e6273f;}</style></defs><title>card-stak</title><path class="fc8a8dfc-34ed-4677-98e3-27e44672029c" d="M99.79,78.06A27.13,27.13,0,0,0,95,72.7q-2.81-2.42-6.38-5.1A47.5,47.5,0,0,1,83,63.07a17.19,17.19,0,0,1-3.51-4.4,14.39,14.39,0,0,1-1.53-4.46,29.19,29.19,0,0,1-.38-4.85c0-3.4.48-6,1.46-7.78a4.73,4.73,0,0,1,4.4-2.68,3.24,3.24,0,0,1,2.94,1.72,13.17,13.17,0,0,1,1.46,4.79,33.5,33.5,0,0,1,.32,6.25q-.12,3.18-.63,8.42l13.77,7.14q-.25-4.34.26-24.36A29.94,29.94,0,0,0,100.23,36a16.39,16.39,0,0,0-3.12-5.74,15.38,15.38,0,0,0-5.49-4,19.86,19.86,0,0,0-8.23-1.53q-9,0-14.22,5.74T64,48.47a35.11,35.11,0,0,0,1.09,9.18,29,29,0,0,0,3,7.21,30.31,30.31,0,0,0,4.46,5.87A54.36,54.36,0,0,0,78,75.64a43.65,43.65,0,0,1,8.54,8.61,15.31,15.31,0,0,1,2.81,9,12.63,12.63,0,0,1-1.21,5.87,3.73,3.73,0,0,1-3.38,2.3,4.3,4.3,0,0,1-3.45-1.53,9.79,9.79,0,0,1-1.85-4.21,46,46,0,0,1-.83-6.06,31.69,31.69,0,0,1,0-5.68q-9.56-5.75-13.52-9.31c.17,2,.24,5.16.19,9.37s.13,9.38.51,15.5,2.36,10.48,5.94,13.08a18.11,18.11,0,0,0,12.62,3.25q8.81,0,14.1-5.93t5.29-16.27a34,34,0,0,0-1-8.86A22.3,22.3,0,0,0,99.79,78.06Z"/><path class="fc8a8dfc-34ed-4677-98e3-27e44672029c" d="M223.5,83.42a7.27,7.27,0,0,1-.51-3.13h0a13.54,13.54,0,0,1,.76-3.12q.76-1.92,5.81-11.29T236,54.21H220.44q-.76,1.78-4.66,10.27t-7.21,11.8l-.25-4.09q-.13-3.94.25-19.32t1.92-21.24l-16-4.85q.11,4,.12,12.11a46.29,46.29,0,0,0-5.42-5.5,38.73,38.73,0,0,0-13.79-7.8,33.86,33.86,0,0,0-14.87-1.14,42.2,42.2,0,0,0-15.13,5.42A38.06,38.06,0,0,0,133.3,40.72a35.37,35.37,0,0,0-5.92,13.65l-.49,0a24,24,0,0,1-2.94-.06,5.07,5.07,0,0,1-3.06-.77c-.68-.51-1-1.62-1-3.32a52.45,52.45,0,0,1,.19-6.63c.22-2.47.49-4.72.83-6.76l-15.43-.13q1,6.12.51,59.19h0a48.33,48.33,0,0,0,1,9.89,11.72,11.72,0,0,0,3.38,5.8,13.08,13.08,0,0,0,8.93,3.64A44.09,44.09,0,0,0,132.76,113l-4.34-12a9,9,0,0,1-6.63-.63c-1.79-1-2.68-3.32-2.68-6.89q-.14-18.75.12-20.92c.17-1.79.6-2.94,1.28-3.45a5.45,5.45,0,0,1,2.93-.89,32,32,0,0,1,3.53-.07c.17,1.34.39,2.71.67,4.09a62,62,0,0,0,7.29,18.48,62,62,0,0,0,12.31,15.72,36.25,36.25,0,0,0,13.68,7.86,31.44,31.44,0,0,0,14.65.75,46.27,46.27,0,0,0,15.06-5.67c1.24-.72,2.41-1.47,3.51-2.24q-.1,4.82-.24,6.24l15.95.12c-.26-1.36-.51-4.55-.77-9.56s-.38-8.42-.38-10.21l.13-5.23q2.94,1.41,6.38,11.87t4.08,13.26q3.06-.25,16.58-.25-1.53-3.57-6.57-15.5T223.5,83.42ZM194.54,73c0,.72,0,1.44,0,2.14a5.23,5.23,0,0,1-.45.49A4.87,4.87,0,0,1,189,77q-2.7-.87-15.49-26.33Q169.68,44,164.86,43t-10.44,2.2a16.2,16.2,0,0,0-4.6,3.76,12.84,12.84,0,0,0-2.29,4.2,10,10,0,0,0-.4,4.28,15.12,15.12,0,0,0,1.07,4l5.6,10.47,9.39-5.42a51.51,51.51,0,0,1-5-8.53q-1.31-3.15.91-4.43a3.15,3.15,0,0,1,2.82-.08q1.61.62,3.16,3.55a11.5,11.5,0,0,1,1.37,5.32q0,2.72-2.66,7.5a38.9,38.9,0,0,0-3.95,9.87q-1,4.48,1.69,9.7,3,5.66,7.69,7a10.51,10.51,0,0,0,8.58-.83,11.41,11.41,0,0,0,4.39-4.38,12.88,12.88,0,0,0,1.7-5.47c-.17-1,.28-1.14,1.34-.48a11.56,11.56,0,0,0,9.21.09q0,3.75-.07,7a40.45,40.45,0,0,1-11.22,8.68q-8.67,4.86-18.94,1.5T145.28,84.17a52.34,52.34,0,0,1-5.72-13.86,35.29,35.29,0,0,1-.9-12.66,24.74,24.74,0,0,1,3.82-10.6,24.27,24.27,0,0,1,8.39-7.79,30,30,0,0,1,10.6-3.84,21.5,21.5,0,0,1,10.37,1,29.18,29.18,0,0,1,9.92,6.21,49,49,0,0,1,9.11,11.82,48.66,48.66,0,0,1,3.74,7.83C194.59,65.64,194.57,69.19,194.54,73ZM175.31,85.69a2.36,2.36,0,0,1-2.54-.08,6.67,6.67,0,0,1-2.35-2.54,8.37,8.37,0,0,1-.69-5.28,15,15,0,0,1,2-5.49c.38-.71.82-.71,1.32,0A52.89,52.89,0,0,1,176.4,79h0C177.81,82.23,177.45,84.46,175.31,85.69Z"/></svg>