<svg id="b3f0fe5e-1420-4ac6-83bc-c58f29362ea9" xmlns="http://www.w3.org/2000/svg" viewBox="0 0 300 140"><defs><style>.ba134ad0-0faf-4dee-90f1-483c06103854{fill:#ffdd15;}.a3710ea2-d292-4ee3-b5ec-01a1c7a7949d{fill:#404041;}</style></defs><title>card-mladipomazu</title><path class="ba134ad0-0faf-4dee-90f1-483c06103854" d="M33.23,88a14.17,14.17,0,0,1-3,.48,22.62,22.62,0,0,1-4-.36,7,7,0,0,1-.35-3c-.06-3.35-.06-6.51-.06-10.09,0-1.61-.06-4-.06-5.85V65.12c-.66,1.61-.9,3.34-1.55,5a46.89,46.89,0,0,1-1.79,5.49L22.07,77c-.3.89-.54,1.85-.78,2.86s-.65,2.09-.95,3.29a5.11,5.11,0,0,1-1.38.24,19,19,0,0,1-4.41.06c-.06-.24,0-.24.18-.42-.06-.06-.24,0-.24-.18-.78-3.34-2-5.85-2.75-8.89-.18-.78-.48-1.62-.71-2.33a4.53,4.53,0,0,1-.24-.9c-.66-1.91-1.32-3.88-2.09-6a8.82,8.82,0,0,0-.12,2.15c0,.9-.18,1.61-.18,2.51,0,2.33.12,4.65.3,7.22a75.07,75.07,0,0,1,0,11.52c-.24.18-.24-.06-.48-.12a15.32,15.32,0,0,1-3.46.36A24,24,0,0,0,1.54,88c-.06-1,.06-2,.06-3.1s-.06-2.09-.12-3c0-.77.06-1.55.06-2.32,0-1.91-.18-3.82-.18-5.73a29.65,29.65,0,0,1,.06-4c-.18-3.64,0-7.16-.18-11,0-.48.06-1.08.06-1.74a13.32,13.32,0,0,0,0-1.55.46.46,0,0,1,.12-.3c-.24-.29-.18-1.07-.18-1.55,0-1.13-.18-2.33-.18-3.58s0-2.51.06-3.7c.24-.18.42-.06.71-.06A17,17,0,0,0,4.7,46c.66-.06,1.37,0,2.09,0a12.26,12.26,0,0,1,2.92.42,2.48,2.48,0,0,1,1.14.12,4.85,4.85,0,0,1,.41,1.79c.24.18.24.48.3.78a2.52,2.52,0,0,1,.3,1.25,9.22,9.22,0,0,1,.78,2.27c.77,2.86,1.43,5.73,2.32,8.59s1.73,5.61,2.27,8.54c.18-.48.42-1.08.6-1.73a30,30,0,0,0,1.07-4.12c0-.18.18-.06.12-.24-.06.06-.06,0-.06-.06l1.44-4.89c.65-1.73.89-3.53,1.37-5.26a42.25,42.25,0,0,0,1.85-7c.42,0,.54-.24.95-.3h.18c.18,0,.18-.06.24-.06A8.79,8.79,0,0,1,26.24,46c.3,0,.66-.12,1-.12a13.78,13.78,0,0,1,3.16.18,11,11,0,0,1,2.81.48c.06,1.25-.24,2.63-.18,4,0,.42.18.77,0,1.19A16.68,16.68,0,0,1,33.05,56c0,.3.06.66.06,1a2.61,2.61,0,0,0-.06.83c.18,3-.12,5.67.06,8.24.18,3.34-.18,6.32,0,9.25,0,.48.06,1,.06,1.43,0,.66-.24,1.25-.06,1.67.06.18.18.12.18.3s-.18.48-.18.72c0,.89.18,1.67.18,2.56C33.23,83.92,33.41,86.07,33.23,88ZM11,48.29c-.06,0-.06.18,0,.18,0-.18.47.12.29-.12-.06.06-.06.06-.06,0l0-.06Zm.35,1.19c0,.06-.12,0-.06.18.12,0,.18,0,.24-.06S11.38,49.48,11.32,49.48Z"/><path class="ba134ad0-0faf-4dee-90f1-483c06103854" d="M46.24,52c-.06,1.85,0,3.7-.12,5.55s-.18,3.82-.18,5.73,0,3.76-.06,5.67c-.12,3.11.12,6.45,0,9.79l-.12,6.69a11.46,11.46,0,0,0,.06,2.09c.06.29.36.35.18.71a14.6,14.6,0,0,1-2.81,0,15.13,15.13,0,0,0-3.28-.12c-.36.06-.53.18-.83.12A2.6,2.6,0,0,1,39,86.54C39,85.17,39,84.21,39,82.9s.06-3.16,0-4.72l-.24-8c0-1.55.06-3,.12-4.48V61.29c0-.53.12-1,.12-1.49-.12-2.09,0-4.12,0-6.27-.06-.83.12-1.73.12-2.56,0-.3-.06-.6-.06-.9V48a3.91,3.91,0,0,0,0-1.67c.18,0,.24-.24.24-.41,2,.17,4.65-.12,6.8.17-.06.18.18.12.3.24A44.76,44.76,0,0,0,46.24,52Z"/><path class="ba134ad0-0faf-4dee-90f1-483c06103854" d="M72.38,88.46c-1.43.18-3.52-.3-4.77-.24a10.41,10.41,0,0,1-.9-2,7,7,0,0,1-1.43,1.25l-.6.24c-.18.06-.36.24-.54.3l-.47.12c-.42.18-1,.3-1.5.48a3.39,3.39,0,0,1-1.13.18,15.08,15.08,0,0,1-2.86.06,12.38,12.38,0,0,1-2.93-1.14A14.71,14.71,0,0,1,52.8,86a9.66,9.66,0,0,1-1.55-3.52v-.66l-.18-.41a8.82,8.82,0,0,1,0-1.26,9.66,9.66,0,0,1,.06-1.37,11,11,0,0,1,2.21-4.48c.48,0,.78-.41,1.14-.65A19.82,19.82,0,0,1,58,71.51c1.25-.54,2.68-.9,4-1.43a29.5,29.5,0,0,1,3.23-1c.3-1.37.12-4.06-1.37-4.36A3.58,3.58,0,0,0,60.68,64a2.71,2.71,0,0,0-1,.42,2.88,2.88,0,0,0-1.14,1.13,3.68,3.68,0,0,0-.77,2.63c0,.23.24.35.18.65a5.81,5.81,0,0,1-2.69,0c-1.37-.12-2.45-.12-3.7-.18l-.42-.35c0-3.11.36-5.61,1.91-7.35.24-.23.78-.59,1-.83a3.35,3.35,0,0,1,.77-.78,4.73,4.73,0,0,1,.72-.53l.48-.12c.12-.12.24-.3.42-.36l.71-.24a12.16,12.16,0,0,1,3.64-.6c.24,0,.06.06.24-.06a14.62,14.62,0,0,1,5,.84,9.85,9.85,0,0,1,2.15.89c.6.54,1.26,1,1.85,1.5a5.46,5.46,0,0,1,.84.89c.18.3.24.78.54,1.08a25.19,25.19,0,0,1,.77,6.68c.12,2.27.06,4.54,0,6.8-.12,2.09-.06,4.18-.06,6.33,0,.66.12,1.31.12,2s.06,1.43.06,2.15v.54A2.42,2.42,0,0,1,72.38,88.46ZM65.22,74.85h-.06C63,75.57,60.62,76,59,77.42c-.3.83-.89,1.43-.71,2.44a2.58,2.58,0,0,0,.95,1.56c1.79,1.25,4.48.47,5.67-.9C65.52,79,65.16,76.88,65.22,74.85Z"/><path class="ba134ad0-0faf-4dee-90f1-483c06103854" d="M98.16,48.59c0,.72.18,1.43.12,2.15s.06,1.49,0,2.27c-.12,1.61-.18,3.1-.18,4.59s.12,2.93.06,4.36c-.06,2.68.06,5.43.18,8.12.06,1.25,0,2.56-.06,3.7a33.25,33.25,0,0,0,0,3.46c0,1.13-.06,2.27,0,3.4.06,2.27-.12,4.6,0,6.69a2.91,2.91,0,0,1,.12,1.13A18.2,18.2,0,0,1,93.15,88a15,15,0,0,1-.54-2.09c-.17.12-.23.3-.41.42a5.6,5.6,0,0,1-.9.78c-.18.18-.24.35-.42.47a6.85,6.85,0,0,1-3.22,1.08,14,14,0,0,1-5.61-.84,9.71,9.71,0,0,1-1.73-1,13.49,13.49,0,0,1-1.61-1.14,2.45,2.45,0,0,1-.42-.77,4.53,4.53,0,0,1-.66-.84,23.21,23.21,0,0,1-.77-5.73,29.43,29.43,0,0,1-.06-5.13,23.3,23.3,0,0,1-.06-4.6c.12-1.13.36-2.26.59-3.4a4.66,4.66,0,0,1,1.08-2.39A9.56,9.56,0,0,1,85,57.54a10.6,10.6,0,0,1,6,1.79c.06-1.55.06-3.58.06-5.61,0-1.25.12-2.56.06-3.82a22,22,0,0,1,.18-3.52c.54-.18,1-.06,1.37-.24a42,42,0,0,1,5.43.24C98.46,47,98.1,47.75,98.16,48.59ZM84.68,66.08a5.53,5.53,0,0,1-.36.89,5.79,5.79,0,0,0-.54,2.75L83.9,75A29.78,29.78,0,0,0,84.2,79a5.07,5.07,0,0,0,1,2.63,4.84,4.84,0,0,0,2.27.59c.3-.18.48,0,.78,0a2.44,2.44,0,0,0,1.43-.77,5.18,5.18,0,0,0,.6-1c.06-.06.12-.06.12-.12a7.68,7.68,0,0,0,.53-.83,10.07,10.07,0,0,0,.3-3.53c0-1.37.06-2.74-.06-4.17-.12-1.85-.12-4.24-1-5.91a.6.6,0,0,1-.24-.3,9.24,9.24,0,0,0-1.85-1,.45.45,0,0,0-.36,0,1.53,1.53,0,0,0-1.13-.17A2.83,2.83,0,0,0,84.68,66.08Z"/><path class="ba134ad0-0faf-4dee-90f1-483c06103854" d="M111.12,60.71a63.76,63.76,0,0,1,.29,8.17c-.12,1.67,0,3.34-.12,5-.11,2-.23,3.76-.17,5.67,0,2.74.17,5.49.11,8.17-.17.12-.17.36-.29.48a24.29,24.29,0,0,1-6.27,0c-.48.42-.78-.06-.84-.66-.06-1,.12-2,.12-3,0-2.15-.24-4.48-.18-6.74,0-1.14-.06-2.45,0-3.7a5.79,5.79,0,0,0,0-1,27.15,27.15,0,0,1,.18-3.76V65.66c0-1.19.18-2.27.18-3.34a30.54,30.54,0,0,1,.12-4.12,15.46,15.46,0,0,1,6.21,0c.12,0,.18.12.18.24.18-.06.24,0,.48,0C111,59.15,111.29,60.11,111.12,60.71Zm.29-10.09a12.58,12.58,0,0,1-.29,2.74c-.06,0-.18,0-.18.12a2.75,2.75,0,0,0-1-.06H109c-.12,0-.3-.12-.42-.12-1.49-.11-3-.11-4.54-.17.06-2.33.12-4.42.12-6.33.12-.18.3-.18.18-.36a37.17,37.17,0,0,1,6.81.12Z"/><path class="a3710ea2-d292-4ee3-b5ec-01a1c7a7949d" d="M35.21,84.46a25.4,25.4,0,0,0-.06,3.7c0,.48.12,1.08-.06,1.25s-.42.06-.6.12c-.41.06-.77.24-1.25.3-1.25.18-3,.18-4.12.42A10.8,10.8,0,0,1,26,87.92a12.21,12.21,0,0,0-.18-1.55c-.06-.9,0-1.79,0-2.69,0-3.58-.12-6.8-.12-10.38-1,3.82-2.39,7.22-3.4,11-1.14.18-2.45.48-3.64.72-.3.06-.66,0-.9.06s-.24.24-.42.3-.53-.48-.95-.42c-.42-.48-1-.78-1.43-1.26a.91.91,0,0,0-.48-.35.25.25,0,0,1,.18-.36c-.06-.06-.24,0-.24-.18-.66-2.63-1.61-5.31-2.39-7.64-.18-.54-.24-1.14-.42-1.67a27.13,27.13,0,0,1-1-3.23c.18,2.63.18,5.2.24,7.76.06.9-.06,1.73,0,2.63.06,1.73.24,3.58.3,5.67,0,1.13-.18,2.15-.24,3.28a47.21,47.21,0,0,1-5.37.48c-.18,0-.36.12-.54.06S4.71,90,4.53,90A10.1,10.1,0,0,1,3,89.12a6.28,6.28,0,0,0-.66-.48,2.42,2.42,0,0,0-.95-.72c.18-2.56-.12-5.73.06-8.41-.18-1.2-.12-2.75-.18-4.12,0-1.2.06-2.45,0-3.7-.06-2.09,0-4,0-6.09.06-1.13-.06-2.27-.06-3.46.06-2.15-.12-4.36.12-6.93a2,2,0,0,1-.18-1l-.12-2.57C1,50.8,1,50,1,49.19a15.33,15.33,0,0,1,.12-2.87c1-.06,2.39-.18,3.52-.36A10,10,0,0,1,6,46a5.44,5.44,0,0,1,2,0,20.22,20.22,0,0,0,2.75.42c.42,1,.65,2.21.95,3.1,0,.06,0,.06.06.06a1.32,1.32,0,0,0,.36.9c-.24.18.12.36-.12.42.06.06.18-.12.18.06.48,1.61.9,3.34,1.31,5l1.32,5c.71,2.87,1.91,5.73,2.38,8.78a8.82,8.82,0,0,0,.66-2.33,3.33,3.33,0,0,0,.3-.78,3.44,3.44,0,0,0,.24-.83c.18-.66.59-1.25.42-1.91l.23-.18a3.92,3.92,0,0,1,.48-1.91,16.87,16.87,0,0,1,1-3.4c.41-1.14.65-2.33,1-3.46.42-1.85.9-3.59,1.43-5.2a13.64,13.64,0,0,0,.78-3.34c.42-.06.9-.3,1.37-.36l2.21-.12a23.83,23.83,0,0,1,5.91.54c.06.06.06.18.06.36l1.49,1.55a.16.16,0,0,0,.18.18c.06,2.57.18,5,.12,7.34-.06,2.09-.06,4.42,0,6.86,0,1.14-.12,2.33-.06,3.53a6.13,6.13,0,0,0,.18,1c.06,2.87-.18,6.21,0,9.61.06,1.67.06,3.34.06,5C35.21,82.79,35.21,83.56,35.21,84.46ZM26.5,87.68a10.91,10.91,0,0,0,6.2-.06,24.26,24.26,0,0,0-.12-5.13,2.71,2.71,0,0,0,.06-1.55,9.54,9.54,0,0,0,0-1.31c-.06-.66-.12-1.38-.12-2,0-.48.12-1,.12-1.44s-.12-1-.12-1.55V73.06a24.27,24.27,0,0,1,.12-3c.06-1.62-.06-3.41-.12-5.14V63.69c0-2.63-.12-5.07.06-7.52a39.26,39.26,0,0,0-.06-4.6,41.16,41.16,0,0,1,.12-4.71,25.72,25.72,0,0,0-4.77-.48,16.94,16.94,0,0,0-3.64.36c-.54,2.57-1.44,5-2.09,7.46l-.36,1.49c-.9,3.11-1.79,6-2.57,9.07-.47,1.74-1.07,3.53-1.55,5.26-.06.23,0,.53-.18.77-.53-.06-.71-.65-.77-1.07-.24-.78-.3-1.55-.48-2.21s-.48-1.43-.66-2.15A54.37,54.37,0,0,1,14,59.57a1.88,1.88,0,0,1-.36-1,3.5,3.5,0,0,1-.24-1.08c-.17-.77-.47-1.43-.65-2.15-.18-.41-.06-.77-.24-1.19s-.24-.66-.3-1.07c-.18-.72-.48-1.44-.66-2.15l-.12-.66c-.06-.24-.35-.48-.17-.78-.42-.41-.3-.95-.48-1.43l-.42-1.25c-.54-.18-1.13,0-1.79-.18-2.15-.48-4.72-.06-6.92.12-.18,3.34.29,6.44.29,9.61,0,1.67-.17,3.16-.11,4.77v2.09c0,.78.05,1.49.05,2.39,0,2.09-.11,3.94-.05,5.79C2,76.94,2,82,2,87.44a14.45,14.45,0,0,0,6.21.06,17,17,0,0,0,.12-2.44c0-.24.12-.54.06-.72a4.41,4.41,0,0,1-.12-.48,12.34,12.34,0,0,1,0-1.49.46.46,0,0,1,.12-.3c-.24-.42-.06-.65-.12-1.07s-.06-1.43-.06-2.15a23.77,23.77,0,0,0-.12-3,11.21,11.21,0,0,1-.12-2.51c0-1-.06-2-.12-3a23.36,23.36,0,0,1,.12-2.92c0-1,.06-2.15.18-3.4.18-.06.3-.24.48-.3.48.24.54.84.72,1.25l.59,1.5a30.42,30.42,0,0,0,1,3,20.05,20.05,0,0,1,1,3c.24,1.14.6,2.09.84,3.11C13.6,78,14.32,80.64,15,83a20.51,20.51,0,0,0,4.65-.18c.06-.06.12-.36.42-.42.24-1,.48-2,.78-2.86.17-1.2.83-2.69,1.07-3.94.42-1.14.78-2.39,1.25-3.64a32.2,32.2,0,0,1,1.2-3.88,4,4,0,0,1,.41-1.61l.48-1.68c.3-.29.18-.89.72-.83s.36,1.07.36,1.73-.06,1.31-.06,1.79a28.35,28.35,0,0,0,.06,3.4c0,.24.06.18.12.36a.54.54,0,0,0-.18.42,13,13,0,0,0,.06,3V77.6c-.06,1.61,0,3,0,4.47A33.71,33.71,0,0,0,26.5,87.68Zm-20.95,2c-.48-.41-1.08-.65-1.62-1.07a1.93,1.93,0,0,1-.12-.36c-.29.06-.77-.3-1.19-.12a5,5,0,0,0,1.37,1A3.13,3.13,0,0,0,5.55,89.65Zm1.73-.12a6.31,6.31,0,0,0-1.44-1c0-.18-.06-.06,0-.24-.41.18-1,0-1.31.06a6.77,6.77,0,0,1,1.25.78c.24.17.36.41.54.47S6.86,89.53,7.28,89.53Zm2.44-.18c-.65-.17-1-1.19-1.67-1.25a2.62,2.62,0,0,0-1,.06,1.08,1.08,0,0,0-.66.18,6.3,6.3,0,0,1,1.37,1.13A9.25,9.25,0,0,0,9.72,89.35ZM9.78,71c-.06-.06-.12.06-.18.06-.41,0-.95-1.19-1.25-1.19a14.35,14.35,0,0,1,.06,1.61c0,.18.06-.06.24-.06a3,3,0,0,0,.77,1c.24.24.72.6.54,1,0-.06,0-.06-.06,0v.06c-.65-.42-1-1-1.43-1.43,0,.41.06.71.06,1.19l.84.72c.23.29.89.71.65,1C10,75,10,75,9.9,75,9.42,75,9,74,8.53,74a15.12,15.12,0,0,0,.06,1.55,11.24,11.24,0,0,0,1.67,1.31c0-2.39-.18-4.66-.24-7.22a17.44,17.44,0,0,0-1.55-1.55l-.12,1.07c.3.24.54.6.84.9S9.84,70.61,9.78,71ZM10,68.11c-.18,0,0-.18-.18-.18-.41-1-.71-2.15-1.13-3.17a23.27,23.27,0,0,0-.18,2.69,10.37,10.37,0,0,1,1.19,1.13c.18.18.18.3.36.3C10.08,68.46,9.9,68.35,10,68.11Zm.42,13.07c-.18-1.2.06-2.51-.12-3.88a4.94,4.94,0,0,1-1.61-1.14v1.56a7.6,7.6,0,0,1,1.61,1.55c-.18,0-.18.06-.24.06a4.59,4.59,0,0,1-1.31-1c-.06.66.18,1.2,0,1.73.18.06.12-.12.3-.12Zm0,.36c-.66,0-1.13-.9-1.67-1.2l.12,1.43c.18,0,.18.18.36.18a5.89,5.89,0,0,0,1,.84c.18.18.24.3.3.24C10.44,82.55,10.38,82,10.38,81.54Zm.18,6.38c-.66-.18-1.14-.83-1.79-1.13,0,.42-.06.59-.06,1a10.08,10.08,0,0,0,1.73,1.32A9,9,0,0,1,10.56,87.92Zm0-2.09L8.83,84.64c.06.66-.06,1,0,1.61a6.05,6.05,0,0,1,1.37,1.08c.18.17.3.29.36.23A4.2,4.2,0,0,0,10.56,85.83Zm-.06-2.27c-.72-.23-1-.83-1.67-1.25V84c.65.42,1.07.84,1.73,1.26C10.5,84.58,10.56,84.22,10.5,83.56Zm1.25-34a.19.19,0,0,0,.12-.06C12.05,49.72,11.81,49.66,11.75,49.6Zm5.73,35c-.24-.42-1.07-.6-.89-1.13-.42,0-.6-.12-1,0C16.23,84,16.59,84.7,17.48,84.64Zm2.21-.3L19,83.86a1.56,1.56,0,0,0-.65-.41c-.42-.18-1,.23-1.37.06a4.06,4.06,0,0,0,1.25,1c-.06.06-.06.06,0,.12A6.08,6.08,0,0,0,19.69,84.34ZM21.3,84l-1.19-.89c-.18.3-.72.12-.9.3.42.06.72.71,1.14.89A1.48,1.48,0,0,0,21.3,84Zm1-1.61a4.55,4.55,0,0,1-1.49-1.07,6.38,6.38,0,0,1-.36,1.43c.53.24.95.66,1.49,1A6,6,0,0,0,22.26,82.37ZM23,80.28a3.66,3.66,0,0,1-1.55-1.07c-.18.48-.3,1-.48,1.55.48.42.9.84,1.44,1.25A18.07,18.07,0,0,0,23,80.28ZM23.75,78l.48-1.55c-.72,0-1.14-.71-1.67-1.13a27.16,27.16,0,0,0-1,3.34L23,79.92l.48-1.43-.72-.71c-.23-.24-.71-.54-.71-.78a.28.28,0,0,1,.3-.3c.18,0,.47.48.65.66Zm1-3.22c-.71-.3-1.07-.89-1.61-1.31l-.42,1.37c.54.42,1,1,1.56,1.37Zm.54-2.09a15.46,15.46,0,0,1-1.43-1.31l-.54,1.55c.54.48,1,1,1.55,1.43Zm.42-1.85a8.11,8.11,0,0,1-1.31-1.25v-.12c-.18.42-.24.89-.42,1.31a15.46,15.46,0,0,0,1.49,1.43A2.33,2.33,0,0,0,25.72,70.85Zm0-5.67c.18,0,0-.24,0-.06l-.66,2.21c.24.3.72.72.48,1.13-.42-.06-.36-.35-.66-.53-.18.42-.24.83-.41,1.31.65,0,.83.72,1.25,1Zm3.16,24.29c.18.18.42.36.6.18a8.1,8.1,0,0,1-1.25-1c-.06-.18.06-.06.06-.24-.42.06-.66-.18-1.08-.12Zm2,.06c-.3-.41-.77-.59-1-1a6.39,6.39,0,0,0-1.08,0C29.48,88.94,29.78,89.77,30.91,89.53Zm.78-.12A10.18,10.18,0,0,0,34,89.18c-.48-.18-.72-1.08-1.2-1.08-.24-.06-.24.12-.48.12.18.42.72.54.78,1-.66.17-.9-.6-1.43-.78-.18,0-.18.06-.36.06s-.6-.06-.78.12Zm1.37-40a3.64,3.64,0,0,0,0,1.61c.54.18.9.77,1.37,1.19a16.55,16.55,0,0,1,0-1.73l-.3.06ZM33,55.93a8.49,8.49,0,0,1,.06,1.79,2.65,2.65,0,0,1,1,1L33.9,59c-.42.06-.6-.59-.78-.53a8.74,8.74,0,0,1-.06,1.19c.48.42.84.9,1.31,1.31,0-.89.06-2.14,0-3a2.43,2.43,0,0,0,0-.66,8,8,0,0,0-.65-.65A5,5,0,0,0,33,55.93Zm.06,17.31,1.07,1.13c.18.18.18.36.36.3,0-1.85,0-4.12.06-6.21a15.37,15.37,0,0,1-1.43-1.37,17.8,17.8,0,0,1,0,1.79,11.41,11.41,0,0,1,1.37,1.55c-.18,0-.06.18-.12.24s-.41-.18-.65-.47-.42-.54-.6-.54a17.84,17.84,0,0,1-.06,1.79l.72.6c.24.23.53.35.59.77-.06,0,0,.12-.06.12a3.34,3.34,0,0,1-1.25-1A8.6,8.6,0,0,0,33.06,73.24Zm1.43-20.71c-.65,0-.89-.78-1.43-1a13.05,13.05,0,0,0,.06,1.5,7.2,7.2,0,0,0,1.31,1.25A15,15,0,0,1,34.49,52.53Zm-1.43-3.76a5.19,5.19,0,0,1,1.37,1.49c-.06-.42,0-.89-.06-1.55-.18.06-.06-.06-.24-.06a8,8,0,0,0-1-1.14A9.29,9.29,0,0,1,33.06,48.77Zm0,15.28,1,1c.17.18.23.24.29.24a6.8,6.8,0,0,0,.06-1.91c-.65,0-.83-.89-1.31-1.07Zm0,9.91a11.36,11.36,0,0,1,0,1.43,12.29,12.29,0,0,0,1.43,1.19,11.36,11.36,0,0,1,0-1.43C33.72,75,33.54,74.37,33.06,74Zm1.43,3.28c-.47-.3-.83-.84-1.37-1.14a6.16,6.16,0,0,1-.06,1.5c.06.18.12,0,.18,0A6.54,6.54,0,0,0,34.55,79C34.55,78.37,34.49,78,34.49,77.24ZM33.12,55.39c.42.18.66.6,1,.9.05.18.17.24.29.18,0-.54.06-1.14.06-1.67a4.21,4.21,0,0,1-1.31-1A14.36,14.36,0,0,0,33.12,55.39Zm1.43,12.42c0-.78-.24-1.08-.18-1.79l-1.25-1.2a12.47,12.47,0,0,0,0,1.5A20.12,20.12,0,0,0,34.55,67.81Zm0,11.64c-.06-.06-.12-.06-.3-.06l-.65-.6c-.18-.18-.3-.42-.48-.36.42.18,0,.54,0,.72a3,3,0,0,0,.06.77c.54.42.9.9,1.43,1.32A17.35,17.35,0,0,1,34.55,79.45Zm-1.43-18A15.15,15.15,0,0,0,34.37,63V61.6c-.47-.42-.83-.83-1.25-1.25Zm1.49,20.29c-.65-.23-.89-.77-1.43-1.19a6.79,6.79,0,0,1,0,1.91,4.78,4.78,0,0,0,1.13,1c.06.17.18.29.36.23C34.67,83,34.67,82.43,34.61,81.77Zm.06,2.39c-.71-.06-1-.65-1.43-1a17.81,17.81,0,0,0,0,1.79l.66.71c.23.18.41.54.71.54C34.61,85.47,34.67,84.94,34.67,84.16Zm0,4.84c-.06-.9-.12-1.56-.12-2.45-.65.18-.83-.54-1.25-.78a18.37,18.37,0,0,1-.06,1.91A6.33,6.33,0,0,0,34.67,89Z"/><path class="a3710ea2-d292-4ee3-b5ec-01a1c7a7949d" d="M48.29,72.64c0,.6-.06,1.38,0,2,0,.06-.06.18.11.24a.61.61,0,0,0-.11.3,14.33,14.33,0,0,0,.05,2.69c0,.83.06,1.73.06,2.62.06,1.85.24,3.76.12,5.43-.06,1.32-.29,2.75-.23,4.3-.18.12-.36.12-.54.36a3.73,3.73,0,0,0-1.37.12c-.6.06-1.32-.12-1.74.12-.17.06-.23-.18-.35-.12-.42,0-.9.06-1.32.06a2,2,0,0,1-1.19-.18c-.12-.18.18-.24.36-.24a13.38,13.38,0,0,1-2.75-2c-.65,0-.42-1.13-.36-1.79.06-1.43-.17-2.93,0-4.24C39,80.82,39,79.39,39,78s-.06-2.74-.12-4.11c0-.84-.11-1.68-.11-2.51-.06-2.27-.06-4.6,0-6.8a8.86,8.86,0,0,1,.06-1.26c0-.42,0-.89,0-1.31,0-1.91,0-4,0-5.91.06-2.45,0-4.89,0-7.34A9.59,9.59,0,0,0,39,46.44c.06-.18.24-.18.18-.48a16.91,16.91,0,0,0,3.47-.06c.35,0,.65.12,1,.12.12,0,.24-.06.36-.06a17.08,17.08,0,0,1,1.85.12,5.82,5.82,0,0,1,.77.66,26.07,26.07,0,0,0,1.62,2.8c.17.12.06.24.29.3-.23,5,.18,10,.18,14.57,0,1.43-.18,2.86-.24,4.17S48.29,71.27,48.29,72.64Zm-3.11,15a8.79,8.79,0,0,0-.06-1.25c0-.66.06-1.31.06-2s.06-1.31.06-2V78.55c.06-3.22-.12-6.33-.06-9.31a7.88,7.88,0,0,0,0-1.19c0-1.73-.06-3.46,0-5.43.06-1,0-1.91,0-2.75a50,50,0,0,0,.18-5.19c0-1.26.06-2.57.12-3.82s-.12-2.87,0-4.18a37,37,0,0,0-5.79.06c-.18,1.67,0,3.4-.06,5.19-.18,5.73-.06,12.77-.24,17.37-.06,2.86.24,5.55.3,8.12,0,3.7-.12,6.92-.12,10.14C41.48,87.5,43.15,87.68,45.18,87.68Zm-1.37,2.57a10.21,10.21,0,0,1-1.61-1.61c-.12-.12-.24-.42-.42-.48s-.24,0-.3,0a6.69,6.69,0,0,0-1.55,0,16.34,16.34,0,0,0,3.16,2.09Zm1.31-.06a18.89,18.89,0,0,0-1.55-1.55c-.18,0-.36-.06-.36-.24s.06-.06.06-.12a4.65,4.65,0,0,0-1-.12,7.4,7.4,0,0,0,1,1.13C43.75,89.77,44.23,90.43,45.12,90.19Zm2-.06a6.08,6.08,0,0,1-1.67-1.79,13.91,13.91,0,0,0-1.55-.06,6.62,6.62,0,0,1,.89,1c.24.29.6.89.9,1S46.61,90.13,47.09,90.13Zm.9-3.64c-1-.36-1.49-1.19-2.21-1.85,0,.72-.06,1.25,0,1.85.54-.06.83.54,1.13,1s.54.72.66,1c-.9-.24-1.13-1.31-1.79-1.67,0,.54,0,1,.3,1.19-.06.12,0,.24-.06.42a4.34,4.34,0,0,0,1.67,1.43c-.06.12-.06.24.12.18C47.81,89.06,47.87,87.68,48,86.49Zm.24-21.13c-.06-.12-.18.06-.24,0A25.35,25.35,0,0,1,45.84,63a16.76,16.76,0,0,0-.06,1.73c.83.48,1.31,1.62,2.09,2.27,0,.06.18.3.18.18A9.53,9.53,0,0,0,48.23,65.36Zm-2.45,2.09c.36-.06.54.3.77.6s.6.71,1,1c.12.18.36.42.48.36,0-.54.06-1.19.06-1.61-.72-.9-1.5-1.73-2.21-2.63h-.06C45.84,65.9,45.78,66.67,45.78,67.45Zm0,2.21c.83.48,1.13,1.43,1.91,2,0,.06.18.3.18.12.06-.6,0-1.26.06-1.85a11.54,11.54,0,0,1-2.15-2.33Zm0,.54c.06,2.08.06,4.41.06,6.86.06.06.12-.18.24-.12A9,9,0,0,0,48,79.27c-.18-.84-.06-1.61-.18-2.39-.06.18-.12,0-.3,0-.18-.48-1-1.07-1.37-1.55-.12-.18-.36-.66.06-.66.12,0,.18.18.24.3a10.44,10.44,0,0,1,1.43,1.73V74.79a18.06,18.06,0,0,1-1.49-1.61c-.18-.3-.72-.66-.3-1,.42.48.89,1.08,1.31,1.5.18.18.36.47.48.41.12-.71-.12-1.13,0-1.73C47.09,71.75,46.44,70.79,45.78,70.2Zm2.27,14.44a20.56,20.56,0,0,1-2.21-2.33c0,.6,0,1.14-.06,1.85.77.66,1.37,1.55,2.21,2.15A7.5,7.5,0,0,0,48.05,84.64Zm.06-.54a10.14,10.14,0,0,1-.06-1.91c-.72-.83-1.55-1.55-2.21-2.39.06-.11.06-.23.24-.29a17.62,17.62,0,0,1,1.43,1.55c.18.12.36.42.48.36a12.5,12.5,0,0,0,0-1.5c-.12-.17-.36-.35-.54-.59-.54-.6-1.19-1.38-1.61-1.91-.06,1.67-.06,3.1,0,4.53.06.12.12-.12.24-.06a6.88,6.88,0,0,0,1.49,1.73C47.75,83.8,47.93,84.1,48.11,84.1ZM45.84,59.45a19.57,19.57,0,0,0,2.33,2.69,17.65,17.65,0,0,1,0-1.79c-.06,0-.24,0-.3-.06-.72-.78-1.2-1.73-1.91-2.51A7.83,7.83,0,0,1,45.84,59.45Zm2.39,3.46c-.72-.95-1.62-1.79-2.39-2.74v2.27c.71,1,1.55,1.79,2.39,2.74C48.29,64.23,48.23,63.81,48.23,62.91ZM46,57.54c.06-.06.06-.12.18-.12.71.84,1.25,1.85,2,2.69,0-1.91-.12-3.34-.18-5.43-.06,0-.24.06-.3-.06-.42-.9-1.14-1.55-1.61-2.39v2.33a13.43,13.43,0,0,1,1.61,2c.12.18.48.53.18.77-.72-.65-1.08-1.55-1.79-2.21C46.14,56.23,46,56.71,46,57.54Zm2-5.49c-.06-.06-.12.18-.24.06-.48-.6-.78-1.55-1.37-2h.12c-.18-.12-.18-.42-.36-.54a18.35,18.35,0,0,1-.06,1.85,5.84,5.84,0,0,1,.65,1.08A17.38,17.38,0,0,1,48,54.2C48,53.36,47.93,53,48,52.05ZM46.14,49c0,.06.18,0,.18.12.53.89,1.19,1.79,1.67,2.8-.06-.59.06-1.37,0-2-.9-.71-1.08-2.09-1.85-2.92A10.78,10.78,0,0,0,46.14,49Z"/><path class="a3710ea2-d292-4ee3-b5ec-01a1c7a7949d" d="M50.88,81.36a4.43,4.43,0,0,1,0-1.26,9.66,9.66,0,0,1,.06-1.37A10.15,10.15,0,0,1,53,74.31c.18-.06.18.06.24,0A20.88,20.88,0,0,1,62,70a10.89,10.89,0,0,1,3-1c.18-1.07.3-2.86-.6-3.46a2.21,2.21,0,0,0-.77-.3,1.85,1.85,0,0,0-.72-.3,4.38,4.38,0,0,0-2.33.6,4,4,0,0,0-1.85,3.34c0,.36.12.66-.06,1a.34.34,0,0,1,0,.41c-1.79.12-3,.12-5,.18,0-.06-.06-.18,0-.29a13.38,13.38,0,0,1-1.25-1.44c-.3,0-.36-.06-.54-.06a6.63,6.63,0,0,0,.72.78c.29.3,1,.6.65,1a1.94,1.94,0,0,1-1-.65l-1-1a.2.2,0,0,1,0-.3.28.28,0,0,1-.35-.17c0-1.32.12-2.57.23-3.7a6.19,6.19,0,0,1,1.56-3.41,8,8,0,0,1,1.91-1.85,2.4,2.4,0,0,1,.65-.53c.12-.12.3-.12.42-.18s.3-.24.48-.3a9.46,9.46,0,0,1,1-.36,16.55,16.55,0,0,1,3.82-.6,15.56,15.56,0,0,1,4.72.78,10.39,10.39,0,0,1,1.61.66,4,4,0,0,1,1.43,1h.36a11.55,11.55,0,0,1,3.76,3.34A12.47,12.47,0,0,1,74,68.7l.24,4.12c.18,2.69-.06,5.19.06,7.76l.18,2.09c.06,2.27.12,4.89.12,7-.12.12-.24.12-.36.3-.18-.06-.24-.18-.36-.24a23.77,23.77,0,0,1-2.92.12c-.72.06-1.37.42-2.09.18-.12-.12.18-.18.06-.3-.48-.65-1.19-1.07-1.67-1.67.06-.48-.36-.66-.42-1.13a6,6,0,0,1-3.28,3.1c-.3.06-.54.24-.78.3-.53.12-1.25-.06-1.67.36-.48-.12-1.37-.06-2.09-.18-3-.48-4.47-2.81-6.5-4.48,0-.12.12-.12.06-.24L52,85c-.06-.06,0-.12-.06-.18a.19.19,0,0,0-.12-.06A6.78,6.78,0,0,1,51,82.31v-.48C51,81.65,50.88,81.54,50.88,81.36Zm.59.41v.54a6,6,0,0,0,1.08,2.57l.29.54a6.56,6.56,0,0,0,1.56,1.19l.89.54a11.84,11.84,0,0,0,3.05,1.13,9.81,9.81,0,0,0,1.31-.12A6.26,6.26,0,0,0,61.5,88a9.53,9.53,0,0,0,3.88-1.61c.18-.18.48-.3.6-.48s.29-.65.35-.65c.48-.12.42.71.6,1s.3,1,.6,1.25a32.65,32.65,0,0,0,4.23.3c-.11-.3-.17-.53,0-.77a27.72,27.72,0,0,1-.11-3c0-.59-.18-1.25-.18-1.85.06-1.67,0-3.52.06-5.19V75c0-.42.06-.9.06-1.37l-.12-4c-.06-.72,0-1.43-.06-2.15a17.59,17.59,0,0,0-.66-4.3l-.12-.36a5.28,5.28,0,0,0-.83-1.37,15.76,15.76,0,0,0-2-1.79c0,.06,0,.06-.06.06a6.23,6.23,0,0,0-3.11-1.13c-.3-.24-.89-.24-1.25-.42-.66-.06-1.37-.18-2-.18a5.21,5.21,0,0,0-1.31.18,6.81,6.81,0,0,0-2.87.54c-.77,0-1.31.65-2,.89l-1.49,1.37-.3.3c-1.55,1.49-2,4-2.09,6.81,1.85.06,3.82.35,5.79.3a6.16,6.16,0,0,1,.18-2.09c.06-.24.24-.3.24-.54a4.74,4.74,0,0,1,2.75-2.39c1.73-.6,3.16.48,4.35,1.2l.54.65a6.24,6.24,0,0,1,.48,3.58c.65.48-.3.78-.6.9-1.85.36-3.58,1.25-5.43,1.79a24.88,24.88,0,0,0-4.24,2c-.65.6-1.43,1.13-2.15,1.67-.12.36-.41.54-.53.89a.45.45,0,0,0-.06.3.51.51,0,0,0-.3.18,6.85,6.85,0,0,0-.9,3.52A8.36,8.36,0,0,0,51.47,81.77ZM55.05,70c-.3-.3-.89-.66-.77-1.2-.54.06-1-.12-1.32,0A5.71,5.71,0,0,0,54.1,70C54.28,70,54.75,70.08,55.05,70Zm3.41-.06a10,10,0,0,1-1.26-1,7.78,7.78,0,0,0-1.19,0,2.59,2.59,0,0,1,.65,1c-.53.18-.77-.72-1.25-1a1.82,1.82,0,0,0-.83-.06c.29.24.53,1,1,1.14a5.26,5.26,0,0,0,1.61-.18A4.45,4.45,0,0,0,58.46,69.9Zm1.91,20.35c-.42-.36-.9-1.19-1.44-1.37-.36-.12-.83,0-1.25-.18.18.36.78.59,1,1.07-.12-.06-.12.06-.23.06-1.08-.71-1.79-1.73-3.23-2.09a.58.58,0,0,0-.53-.24C56.13,88.88,57.74,90.19,60.37,90.25Zm-1.74-22.8c-.41-.3-.53-.78-.89-1.13-.42,1-.42,2.56.54,2.92A11.5,11.5,0,0,1,58.63,67.45Zm-1,12.83a2.52,2.52,0,0,1-.12-1.19,3.45,3.45,0,0,1,.6-1.55v-.3c1.79-1.85,4.47-2.39,7.22-3.17.12.12.06.48.18.6-.18,1.91.42,4.18-.3,5.79-.6,1.19-1.91,1.61-3.16,2.21a5.28,5.28,0,0,1-3.41-.84c-.06-.06-.06-.18-.17-.23s-.24-.18-.36-.24A4.26,4.26,0,0,1,57.62,80.28Zm2-14.56a3.92,3.92,0,0,0-.78-1A8.13,8.13,0,0,0,58,65.84,5.38,5.38,0,0,0,58.75,67,5.06,5.06,0,0,1,59.59,65.72ZM58,79.33a2.56,2.56,0,0,0,1.91,2.5c-.06-.29-.3-.65-.18-1.07C58.87,80.52,58.57,79.8,58,79.33Zm.12-.54a8.07,8.07,0,0,0,1.19,1.37c.12.12.24.36.42.3A10.82,10.82,0,0,1,60.07,79a12,12,0,0,1-1.44-1.49C58.46,78,58.16,78.25,58.1,78.79Zm.83-1.67a4.11,4.11,0,0,0,1.44,1.43c.06-.24.29-.42.41-.71a4,4,0,0,0-1.13-1.14A7.65,7.65,0,0,1,58.93,77.12Zm1.73-12.06c-.35-.24-.29-.77-.65-1-.24.18-.66.24-.84.48a5.75,5.75,0,0,1,.72,1Zm1.5,25a7,7,0,0,0-1.26-1.07c0-.12.06-.18.06-.24-.48,0-.83.12-1.37.12A17.54,17.54,0,0,0,61,90.25,7.72,7.72,0,0,0,62.16,90Zm.59-14.08a11,11,0,0,0-.83.89,7,7,0,0,0-1.79,3.4c-.06.72.06,1.67.59,1.79a3.6,3.6,0,0,0,1.61-.12,7.64,7.64,0,0,0,1-.53,3.9,3.9,0,0,0,1.31-1c.72-1.55.24-4.06.3-5.61h-.06A15.16,15.16,0,0,0,62.75,75.93Zm-2.56.53A6.73,6.73,0,0,0,61,77.54c.18-.48.72-.78.78-1.2A4.17,4.17,0,0,1,61,76C60.78,76.22,60.37,76.28,60.19,76.46ZM61.8,64.7c-.06-.35-.6-.59-.42-1a4,4,0,0,0-.9.18l.54.95A2.49,2.49,0,0,1,61.8,64.7Zm2.09,24.83L62.51,88.4a3.93,3.93,0,0,0-1.19.3A13.71,13.71,0,0,1,62.75,90Zm.18-24.65a8.92,8.92,0,0,0-2.21-1c.12.3.3.42.42.72C62.87,64.35,63.59,64.76,64.07,64.88ZM61.86,75.81c.12.06.24.29.36.23.23-.29.59-.41.83-.71A4.13,4.13,0,0,0,61.86,75.81Zm4.59,10.26c-.18.48-1,.84-1.31,1.14l-.12.17c-.06.06-.24,0-.36.12a6.32,6.32,0,0,1-1.61.66c.36.48.84.84,1.2,1.25a4.72,4.72,0,0,0,.89-.65A3.64,3.64,0,0,0,64.07,88c.35-.6,1,.18,1.31.48C65.86,87.8,66.75,87,66.45,86.07ZM70,89.71a13.57,13.57,0,0,0-1.13-1.49,1.93,1.93,0,0,0-.84-.06A5,5,0,0,0,70,89.71Zm3.41-.3c-.48-.29-1-.71-1.44-1.07-.35.12-.59-.12-1,.06a9.69,9.69,0,0,1,.66.89c-.6.12-.78-.65-1.2-1a5,5,0,0,1-1,0c.3.48.65.9.89,1.37C71.47,89.41,72.36,89.65,73.44,89.41ZM70.51,61.3a6.21,6.21,0,0,1,.9,2.27c.83.3,1.13,1.19,1.67,1.79A6.29,6.29,0,0,0,70.51,61.3Zm2.75,4.84c-.66-.6-1-1.44-1.67-2a14.4,14.4,0,0,1,.17,1.61.45.45,0,0,1,.3.06c.42.72.9,1.37,1.32,2.15-.72-.12-1-1.14-1.5-1.61,0,.41.06.59.06,1.07.24.36.6.72.84,1.07a13.48,13.48,0,0,1,.72,1.26c-.18.06-.24,0-.36,0a13.16,13.16,0,0,0-1.2-1.61,5,5,0,0,1,0,1c.66.6,1.14,1.61,1.74,2.15A32.68,32.68,0,0,0,73.26,66.14Zm.59,14.68c0-.78,0-1.43-.06-2.27-.53-.77-1.25-1.43-1.79-2.21-.06.78.06,1.32-.06,2.09.18,0,.18.12.3.12A23.44,23.44,0,0,0,73.85,80.82Zm.06.54c-.83-.66-1.19-1.67-2-2.39.06.6.06,1.37.06,2,.06.06.24.06.24.12.6.71,1.2,1.43,1.73,2.15C74,82.49,73.91,82,73.91,81.36Zm-.17-8.3a12,12,0,0,1-.06-1.43C73,71.21,72.6,70.37,72,69.72c0,.42.06.71.06,1.13C72.72,71.45,73.08,72.4,73.74,73.06ZM74,83.51c-.65-.36-1.25-1.44-1.91-2a8.33,8.33,0,0,0,0,1.73c0,.12.12,0,.24,0l1.79,2.32C74,85.12,74.09,84.16,74,83.51Zm-.18-7.58a2.4,2.4,0,0,0-.47-.66c-.36-.48-.9-.9-1.26-1.31.06.77-.06,1.43,0,2.14L72.3,76a12.51,12.51,0,0,0,1.49,1.86C73.62,77.12,73.91,76.46,73.79,75.93Zm0-.66a16.61,16.61,0,0,0-.05-1.67c-.6-.66-1.08-1.55-1.68-2.09v1.91A15.75,15.75,0,0,1,73.79,75.27ZM74,85.77c-.77-.47-1.19-1.43-1.91-2a13.53,13.53,0,0,0,0,1.56c.12,0,.12-.18.3-.12.66.65,1.08,1.55,1.67,2.26C74.09,87,74.09,86.31,74,85.77Zm.12,3.64c-.06-.71,0-.83-.06-1.55-.77-.65-1.13-1.67-1.91-2.33-.12,1,.18,1.62.06,2.45C72.9,88.4,73.5,88.94,74.15,89.41Z"/><path class="a3710ea2-d292-4ee3-b5ec-01a1c7a7949d" d="M100.52,90.55c-.72,0-1.44-.12-2.21-.12a15.17,15.17,0,0,0-2.39.12,16.3,16.3,0,0,1-2.69-2.63c-.47.3-.89.78-1.43,1.08-.3.18-.6.24-.89.41s-.48.36-.78.54a6.55,6.55,0,0,1-3.34.54,15.46,15.46,0,0,1-3.88-.6,5.47,5.47,0,0,1-1.67-1.13,20.71,20.71,0,0,1-1.5-1.61c-.53-.6-.89-1.26-1.31-1.79a.54.54,0,0,1-.06-.3,3.27,3.27,0,0,1-.89-1.79,26.18,26.18,0,0,1-.66-5.14c-.12-1.43-.12-2.86-.12-4.23,0-1.56-.18-3-.12-4.54a32.17,32.17,0,0,1,.48-3.22,15.59,15.59,0,0,1,.66-2.39c.18-.36.23-.6.59-.84a8.91,8.91,0,0,1,1.32-2.09,5.39,5.39,0,0,1,1.85-1.61,8.34,8.34,0,0,1,1.61-1,4.91,4.91,0,0,1,1.79-.66c2.39-.3,4.59.84,6.15,1.73.06-.83-.06-1.85,0-2.86S91,54.56,91,53.66c0-.59.12-1.13.12-1.67.06-2-.24-3.94.11-5.61,2.09-.6,4.3-.12,7-.06a21.53,21.53,0,0,0,1.61,2.45c.24.24.3.6.54.83,0,1.85.06,3.64-.06,5.55.06,2.75.12,5.44.18,8.3,0,.9,0,1.73.06,2.63.23,2.32.17,4.59.29,6.92.06,1.37.18,2.75.12,4.06,0,.36-.06.72-.06,1.07-.12,1.56.06,2.93,0,4.36-.06.84-.18,1.61-.18,2.51,0,.65.06,1.37.06,2.09,0,.35-.06.71-.06,1,.06.78.42,1.43.48,2.21C100.93,90.55,100.69,90.31,100.52,90.55Zm-7-3.17a9.24,9.24,0,0,0,4.24.36V84.16a30.49,30.49,0,0,1,0-4.06,19.84,19.84,0,0,1-.06-3.28c.06-1-.12-2.09-.06-3.1,0-.3.12-.6.12-.9,0-1.31-.06-2.8-.12-4.24s-.12-2.62-.12-3.88c-.06-.65-.12-1.37-.12-2s.06-1.32.06-2c-.06-2.39-.24-5-.06-7.41.06-.65.06-1.31.06-1.91s.18-1.13-.06-1.43a4,4,0,0,0-.06-1.49c.12-.48.06-1,.18-1.49-.18-.06-.24.18-.48.12-.06-.06.12-.18-.12-.18a18.79,18.79,0,0,0-5.19,0c-.12,2.68,0,5.13-.06,7.82-.06,1.85,0,3.7-.06,5.31-.42.24-.59-.12-.89-.3a2.29,2.29,0,0,1-.6-.18,2.24,2.24,0,0,0-.42-.36c-.24-.12-.47-.18-.71-.3a7.94,7.94,0,0,0-3.88-.83,5,5,0,0,0-1.56.42,1.1,1.1,0,0,1-.47.24,8.73,8.73,0,0,0-4.6,4.95c-.06.06-.24-.06-.18.12a5.59,5.59,0,0,0-.59,1.85,22.9,22.9,0,0,0-.48,5.79c.06,2.09-.06,4.24.12,6.39.18,1.61.18,3.16.48,4.59a7.84,7.84,0,0,0,.35,1.37c.24.72.9,1.14,1.2,1.79.41.24.83.6,1.31.9a11.84,11.84,0,0,0,3.88,1.37,14.86,14.86,0,0,0,4,0c.42-.12.83-.24,1.19-.36.18-.17.42-.23.54-.41a.44.44,0,0,1,.36-.12c.65-.72,1.49-1.2,1.91-2.15.3.06.24.36.36.54s.17.23.23.35v.48A9.46,9.46,0,0,1,93.53,87.38Zm-9.67,2.27c-.53-.65-1.31-1.07-1.73-1.79-.77-.3-1.43-.83-2.09-1.13C81.18,87.86,82,89.24,83.86,89.65Zm1.79.3a12.55,12.55,0,0,0-1.37-1.25.46.46,0,0,1,.12-.3A8.3,8.3,0,0,1,83,88c.36.6,1.07.9,1.43,1.49.06.12-.18.12-.06.18A7.49,7.49,0,0,0,85.65,90Zm6.27-14.38v2.32a9.82,9.82,0,0,1-.24,1.5,18.8,18.8,0,0,1-1.07,1.79,3.25,3.25,0,0,1-1.67,1.37,6.89,6.89,0,0,1-4.18-.72,7.81,7.81,0,0,1-.84-1.43,5.57,5.57,0,0,1-.18-1.13,52.78,52.78,0,0,1-.47-8.6,10.17,10.17,0,0,1-.12-1.85,5.72,5.72,0,0,1,.77-2.27,5.05,5.05,0,0,1,1.56-2.2c.35-.06.77-.24,1.19-.36a5.73,5.73,0,0,1,4.06,1.79c1,1.91,1,4.71,1.13,7.4C91.92,74,91.86,74.79,91.92,75.57Zm-8.18-6.51a11.84,11.84,0,0,0,.06,1.37c.66.36,1,1.08,1.73,1.44A21.68,21.68,0,0,1,86,68.82c-.59-.53-1.13-1.19-1.73-1.73a6.89,6.89,0,0,0-.48,1.31c.6.6,1.56,1.14,1.68,1.91-.18,0-.18.06-.36.06a4.21,4.21,0,0,0-.84-.89C84.1,69.3,83.92,69,83.74,69.06ZM83.8,71a16.63,16.63,0,0,1,0,1.73A10.7,10.7,0,0,1,85.42,74a7,7,0,0,1,.06-1.56C84.94,71.93,84.34,71.51,83.8,71Zm.12,3.82c.6.3,1,.9,1.56,1.25,0-.53-.06-1-.06-1.61-.54-.36-1.08-.89-1.62-1.19C83.92,73.66,83.8,74.37,83.92,74.79Zm.3,2a7.4,7.4,0,0,0,1.43,1.31c-.06-.53-.12-.95-.17-1.55,0,.12-.12.06-.24.06a6.53,6.53,0,0,0-1.32-1.25A5.76,5.76,0,0,0,84,76.82C84,76.76,84.1,76.88,84.22,76.82ZM84.28,79c.78.24,1.14.89,1.79,1.25-.12-.65-.24-1.13-.36-1.73-.65.06-1.13-.71-1.67-1.07A12.26,12.26,0,0,0,84.28,79Zm2.27,3a3.82,3.82,0,0,1-.36-1.25,13.23,13.23,0,0,1-1.79-1.31C84.52,80.82,85.12,82,86.55,82Zm-2-15.4c.54.6,1.07,1.14,1.67,1.74a5.79,5.79,0,0,0,.18-1.08,11.65,11.65,0,0,0-1.49-1.49A2.12,2.12,0,0,0,84.52,66.61ZM88.1,90a11.27,11.27,0,0,0-1.49-1.43,17.86,17.86,0,0,1-1.85-.06A20.76,20.76,0,0,0,86.55,90,6.44,6.44,0,0,0,88.1,90ZM85.18,65.42a14.38,14.38,0,0,0,1.49,1.43c.06-.41.36-.65.48-1-.3-.42-.66-.78-1-1.2A1.41,1.41,0,0,0,85.18,65.42ZM91.32,74a17.82,17.82,0,0,0-.17-1.8,11.49,11.49,0,0,0-.06-1.49c-.12-1.49-.3-3.76-1-4.71a1.57,1.57,0,0,0-1.73-.72,1.88,1.88,0,0,0-.66.48c0,.12.18.3,0,.42s-.24-.18-.24.06c-.23.35-.65.77-.47,1.25a.47.47,0,0,0-.24.24,23.34,23.34,0,0,0-.9,7A27.12,27.12,0,0,0,87.09,82c0,.06-.12.06-.12.18a10.35,10.35,0,0,0,1.91-.06,1.27,1.27,0,0,0,.53-.42c.12-.11.3-.11.3-.17.24-.18.3-.48.48-.72A10.06,10.06,0,0,0,91,79.45c.47-1,.29-2.45.29-3.88A14.35,14.35,0,0,1,91.32,74Zm-4.65-9.43c.24.29.54.65.83,1a2.51,2.51,0,0,1,1-.66c-.24-.06-.78-.35-.78-.12A1.42,1.42,0,0,0,86.67,64.53Zm5,24.11c-.3-.36-.71-.54-1-.9a2.68,2.68,0,0,1-1,.48c.18.36.66.42.66,1-.18-.12-.12.06-.36.06-.3-.3-.6-.54-.89-.84a6.52,6.52,0,0,1-1.56.24c.36.48.9.71,1.2,1.31A8.48,8.48,0,0,0,91.62,88.64Zm1.32-1.79c-.06-.3-.24-.66-.3-1,0,.36-.48.42-.48.66,0,.06.3.24.36.42a1,1,0,0,1,.18.59c-.06.06-.12.06-.3.06-.24-.23-.36-.59-.66-.77-.18.24-.48.42-.65.65a3.5,3.5,0,0,0,1,.9c.24-.36.9-.42,1-.9C93.11,87.38,93,87,92.94,86.85ZM96.76,90a14.13,14.13,0,0,1-1.62-1.67c-.35,0-.83-.24-1-.18A7.49,7.49,0,0,0,96.22,90,1.59,1.59,0,0,0,96.76,90ZM100,90a6.76,6.76,0,0,1-1.85-1.61,10.42,10.42,0,0,1-1.37,0c.29.48,1,.89,1,1.43-.3,0-.54-.3-.72-.54a1.71,1.71,0,0,1-.83-.89c-.12,0-.3,0-.36-.06.36.66,1.07,1,1.49,1.67C98.31,90,99.26,90,100,90Zm-2-34c.77.42,1.07,1.25,1.85,1.67V56.53A12.52,12.52,0,0,0,98,54.74,4.79,4.79,0,0,0,98,56.05Zm0-7.28a2.29,2.29,0,0,1,.54.54,13.35,13.35,0,0,1,1.25,1.91c-.06,0-.12.06-.18.11A4.4,4.4,0,0,1,98.49,50c-.12-.18-.18-.36-.36-.42a12.15,12.15,0,0,1,0,2.09c.06.06.24,0,.24.12a7.87,7.87,0,0,1,1.31,1.67c-.48.48-1.19-1.13-1.55-1.25A18,18,0,0,1,98,54.08a13.09,13.09,0,0,0,1.91,1.73c-.06-1.61.06-4.06,0-6-.06,0-.18.12-.18,0a15.69,15.69,0,0,0-1.67-2.56A11.83,11.83,0,0,0,98,48.77Zm1.91,9.55A14.1,14.1,0,0,1,98,56.53V57.9c.48.42,1,.84,1.49,1.19.12.12.18.3.36.3A5.4,5.4,0,0,1,99.92,58.32Zm-1.79,2c0-.06,0-.06.06-.12.42,0,.65.59,1,.89s.54.48.72.66V59.87H99.5c-.3-.6-1-.9-1.43-1.43A17.41,17.41,0,0,0,98.13,60.35Zm-.06,2.21A12,12,0,0,0,98.13,64c.65.54,1.07,1.37,1.79,1.85a10.44,10.44,0,0,0,0-1.37C99.26,63.87,98.67,63.21,98.07,62.56Zm.06-.36c.71.42,1.13,1.19,1.79,1.67,0-.48-.06-1.14-.06-1.55a12.72,12.72,0,0,1-1.73-1.79A15.47,15.47,0,0,0,98.13,62.2ZM100,66.61a18.13,18.13,0,0,1-1.91-1.91c0,.84,0,1.44.06,2.21a4.41,4.41,0,0,1,1.19,1c.12.12.3.24.42.36s.18.29.36.29C100.1,67.87,100.1,67.21,100,66.61Zm.18,2.51c-.12,0-.18.06-.3.06-.36-.72-1.08-1.13-1.73-1.73a15.63,15.63,0,0,1,.12,1.67c.3.24.59.54,1,.84a3.68,3.68,0,0,0,1,.65A12.29,12.29,0,0,1,100.22,69.12Zm.12,4.36c-.12,0-.18.06-.24.06a7.35,7.35,0,0,0-1.73-1.61c-.06.41.06.83,0,1.13.36.3.53.66.89,1s.9.65,1.14,1.19a.51.51,0,0,1-.42,0l-.24-.12a11.36,11.36,0,0,1-1.43-1.43,10.75,10.75,0,0,0,0,2,8.63,8.63,0,0,0,1,.89c.3.3,1.43,1,.6,1.2a12.14,12.14,0,0,0-1.61-1.38A7.47,7.47,0,0,0,98.37,78h.18c.53.66,1.25,1,1.67,1.68a.43.43,0,0,1-.42.23,20.94,20.94,0,0,0-1.49-1.49,12.23,12.23,0,0,0,0,1.49c.12,0,.18-.11.3-.11a8.44,8.44,0,0,0,1.73,1.85,24.87,24.87,0,0,0-.06-3c0-.42.12-.83.12-1.31C100.46,76,100.4,74.79,100.34,73.48Zm-.6-2.69a14.74,14.74,0,0,1-1.43-1c0,.53.06,1,.06,1.55.59.54,1.31,1.07,1.91,1.55C100.34,71.93,100.34,71.27,99.74,70.79ZM98.31,82.31c.18-.06.18.12.3.12.47.6,1.07,1,1.55,1.61.06-.59.06-1.13.18-1.91,0,0-.24.06-.3,0-.48-.77-1.26-1.19-1.73-1.91Zm1.85,2.21c-.18.06-.18,0-.36.06.06-.12-.06-.18-.06-.24-.3-.36-.72-.78-1.07-1.13-.06-.12-.18-.3-.3-.24v1.25c.12,0,.12.12.24.12a8.17,8.17,0,0,0,.77.72c.12.12,1,1.07.36,1.07-.18,0-.06-.18-.24-.3a1.31,1.31,0,0,0-.3-.18c-.3-.29-.53-.71-.89-.83a9.59,9.59,0,0,0,.06,1.37c0,.12.12-.06.18,0,.53.6,1.25,1,1.55,1.73-.84,0-1.14-.83-1.73-1.25-.06.6.18,1,.12,1.37a7.66,7.66,0,0,0,2.09,1.73C100,88.52,100.22,86.07,100.16,84.52Z"/><path class="a3710ea2-d292-4ee3-b5ec-01a1c7a7949d" d="M103.83,78.37c0-2.09-.06-3.94,0-5.91.06-2.21.18-5.19.3-7.93.18-2.33-.06-4.18.24-6.33a18,18,0,0,1,6.21,0c.12,0,.18.12.18.24.18-.06.24,0,.42,0,.77,1.07,1.43,2.15,2.26,3.16a2.4,2.4,0,0,1,.6,1.08c.06.17-.18.11-.3.11a3.51,3.51,0,0,0,.18,1.44,11.57,11.57,0,0,0,0,2.5,15.49,15.49,0,0,0,.06,1.79c.06.3.48.6.06.84.12,3,.12,6.86.12,10a5.69,5.69,0,0,0,.12,2.09c0,.18-.18.18-.18.35-.12,2.69-.24,5.2-.48,7.82-.18.18-.12.36-.24.6-.24.06-.3-.06-.53.12a19.24,19.24,0,0,0-2.63,0,29.9,29.9,0,0,1-3.28,0,23.8,23.8,0,0,1-2.39-1.91,1.57,1.57,0,0,1-.48-.18,9.31,9.31,0,0,1,0-3.16c.06-1-.12-1.85-.12-2.75C103.89,80.94,103.83,79.63,103.83,78.37Zm.24-25.18c0-2.27.06-4.12.06-6.45.18-.06.24,0,.18-.24a23.3,23.3,0,0,1,4.12-.12c.77,0,1.79.24,2.69.18v.36c.83.59,1.25,1.55,2.26,2a34.43,34.43,0,0,1,0,3.52,4.63,4.63,0,0,0-.12.89c0,.72.24,1.62-.35,1.91a10,10,0,0,0-3.23.06c-.83.06-1.67-.23-2.38-.12-.06-.11-.36,0-.48-.17-.12.06-.06-.12-.18-.18a16.13,16.13,0,0,1-2.21-1.26c0-.12-.12-.12-.06-.24C104.25,53.24,104.13,53.24,104.07,53.19Zm.42,23.21c-.06,2,0,3.82.06,5.79.06,1.79.06,3.4,0,5.43a30.09,30.09,0,0,0,6.15,0,51,51,0,0,0-.06-6.08c0-1.14-.06-2.27-.06-3.41,0-.77.12-1.49.12-2.32.06-1.56.06-2.63.12-3.88V69.54c0-.12-.06-.24-.06-.36,0-.3.06-.54.06-.83.06-.6,0-1.26,0-1.85.06-2.39-.24-5.44-.24-7.64A13.57,13.57,0,0,0,105,58.8c-.12,2.14-.12,4.35-.18,6.14-.06.84-.06,1.73-.06,2.69-.12,2-.24,3.94-.24,6Zm.18-23.81c1.91-.12,4.06.3,6,.24a16.67,16.67,0,0,0,0-3.46c0,.05.06.05.06.11-.12-.41,0-1.25-.18-2.26a26.15,26.15,0,0,0-5.73-.12C104.73,49.07,104.67,50.74,104.67,52.59Zm3.88,2.21A17.15,17.15,0,0,1,107,53.3a5,5,0,0,0-2,0A7,7,0,0,0,108.55,54.8Zm-.24,35.09a8.75,8.75,0,0,1-1.49-1.49,14,14,0,0,0-1.55-.06A18.65,18.65,0,0,0,107.36,90C107.59,89.83,108.13,90,108.31,89.89Zm1.61-1.61a3,3,0,0,0-.72.12c.18.18.42.36.6.54s.42.41.48.65-.18.06-.24,0a5.7,5.7,0,0,1-1.49-1.25c-.42,0-.72.06-1.08.06.06.24.36.48.66.72s.54.71.78.77a7.59,7.59,0,0,0,1.13-.06h2.57a4.38,4.38,0,0,0-.78-.77c-.24-.3-.48-.78-.83-.9S110.28,88.28,109.92,88.28Zm1-34.8a4.19,4.19,0,0,0-1.5,0,4.63,4.63,0,0,1,1,1.14.21.21,0,0,1-.12.06c-.72-.18-1-.84-1.67-1.2-.06-.06.06-.12-.06-.18-.18.12-.66-.11-.9.06.42.36.66.6,1,1s.48.54,1,.54c.72-.06,1.79-.18,2.69-.24A12.33,12.33,0,0,1,110.88,53.48Zm.24-.47c.35.59,1.07.89,1.61,1.31a1.49,1.49,0,0,0,.06-.54,12.56,12.56,0,0,1-1.5-1.61A2.07,2.07,0,0,1,111.12,53Zm.06-4.72c0,.06.17.06.23.06A15.86,15.86,0,0,1,113,50.2a5,5,0,0,0-.06-1c-.72-.36-1.08-1.08-1.73-1.5A2.4,2.4,0,0,1,111.18,48.29Zm0,11a4.29,4.29,0,0,1,0,1.2c.72.89,1.26,2,2,2.8-.12-.42,0-.89-.12-1.25a3.45,3.45,0,0,0-.47-.66A24.23,24.23,0,0,0,111.18,59.33Zm0,18.33a37.86,37.86,0,0,0,2.5,2.92c.06-.6,0-1.61,0-2a12.1,12.1,0,0,1-2.45-2.45C111.23,76.7,111.18,77.06,111.18,77.66Zm0,.71c0,.36,0,1.08,0,1.61.84.9,1.56,1.85,2.33,2.75-.06-.54.24-1.08.12-1.49-.06-.18-.42-.42-.6-.66C112.43,79.86,111.65,78.85,111.18,78.37Zm1.73-28c0,.06-.06.06-.12.06-.54-.54-1-1.07-1.56-1.61a10.08,10.08,0,0,0,.06,1.19,17.91,17.91,0,0,0,1.62,1.43A3.49,3.49,0,0,0,112.91,50.38Zm.65,32.89c-.83-.84-1.49-1.79-2.33-2.57,0,.54,0,1.19.06,1.85.06.06.24.18.3.24a27.45,27.45,0,0,0,1.85,2.33C113.44,84.34,113.56,83.92,113.56,83.27Zm-.71-31.16a16.24,16.24,0,0,1-1.5-1.37,2.65,2.65,0,0,0-.06.71,13.58,13.58,0,0,0,1.5,1.68C112.73,52.89,112.91,52.47,112.85,52.11Zm.47,11.94c-.65-.9-1.37-1.79-2-2.75.06.9.06,1.85.18,2.69-.06-.24.12-.24.12-.36.6.78,1.14,1.61,1.79,2.33A10.45,10.45,0,0,0,113.32,64.05Zm.42,12c-.06-.12-.48-.35-.66-.53-.53-.66-1.25-1.5-1.73-2-.06.89-.06,1.07-.06,2a18.3,18.3,0,0,0,2.45,2.74c0-.41-.06-.77-.06-1.25A5.18,5.18,0,0,0,113.74,76.1Zm-.36,9.55c-.71-.83-1.43-1.61-2.09-2.5a18,18,0,0,0,.06,1.85c0-.12.12-.12.24-.12a17,17,0,0,0,1.73,2.21C113.32,86.43,113.38,86.25,113.38,85.65Zm-.12,2a28.7,28.7,0,0,1-2-2.44c.06.65.06,1.67.06,2.5a16.19,16.19,0,0,0,1.73,1.79C113.14,88.82,113.26,88.34,113.26,87.68Zm.36-16.41a31.28,31.28,0,0,1-2.21-2.57c-.06.6,0,1.55-.06,2.09.6.78,1.38,1.67,2,2.39.12.06.18.24.3.18A12.51,12.51,0,0,1,113.62,71.27Zm.12,2.75a17.13,17.13,0,0,1-2.39-2.57,12.17,12.17,0,0,1,0,1.49.36.36,0,0,1,.24.06,6.7,6.7,0,0,0,1,1.31,5.1,5.1,0,0,0,1.13,1.14A11.32,11.32,0,0,1,113.74,74Zm-.3-7.52a16.6,16.6,0,0,1-2-2.39,15.5,15.5,0,0,0,0,1.67c.6.66,1.2,1.49,1.79,2.15.06.06.12.24.24.18C113.44,67.57,113.5,67,113.44,66.5Zm.12,4.29c0-.77,0-1.43-.06-2a25.25,25.25,0,0,1-2-2.26,13.34,13.34,0,0,0,0,1.55C112.19,68.94,112.85,69.9,113.56,70.79Z"/><path class="ba134ad0-0faf-4dee-90f1-483c06103854" d="M140.26,97.81c-.06.78.06,1.55,0,2.33a5.79,5.79,0,0,0,0,1,25.8,25.8,0,0,1-6.68-.06c0-.24-.12-.24-.24-.3.18-4.54.06-9,0-14-.12-4.24-.18-7.64-.24-12.35V72.63c0-.66.06-1.32.06-2,0-1-.06-2-.06-3,0-.77-.06-1.61-.06-2.27-.06-.29.06-.47.06-.71s-.12-.6-.12-.84a14.53,14.53,0,0,1,.06-1.61c0-.83.06-1.67,0-2.57a1.64,1.64,0,0,0,.18-.59,16,16,0,0,1,5.07,0,9.49,9.49,0,0,1,.54,2.09,5,5,0,0,0,.72-.48c.11-.06.17-.24.29-.36a2.47,2.47,0,0,1,.78-.48c.12-.12.3-.12.42-.18a7.09,7.09,0,0,1,2.21-.71c.77-.12,1.67-.06,2.5-.12a6.22,6.22,0,0,1,1.43.12,18,18,0,0,1,3.71,1.19c.53.84,1.49,1.43,2.09,2.27,1.19,1.79,1.31,4.12,1.31,7.1,0,2.39.06,5.2.12,7.88v1.91a15.67,15.67,0,0,1-.18,3.76,4.15,4.15,0,0,1-.84,1.79c-.06,1.14-.89,1.49-1.25,2.33a2.7,2.7,0,0,0-1,.83c-.3.06-.72.24-.78.48a5.43,5.43,0,0,0-1.25.54,8.45,8.45,0,0,1-2,.24,22.11,22.11,0,0,1-3.47-.12,1.41,1.41,0,0,1-.71-.18c-.12-.06-.3,0-.42,0a7.22,7.22,0,0,1-2.27-1.25C140.32,90.89,140.32,94.65,140.26,97.81Zm.06-29.54c0,1.55-.12,3,0,4.65.24,2.81,0,5.61.3,8.06.36.36.42.72.78,1a4.9,4.9,0,0,0,2,.71,4.44,4.44,0,0,0,3.52-1.19,10.2,10.2,0,0,0,.47-4.12c.12-1.31,0-3,0-4.54a23.36,23.36,0,0,0-.23-4.47c-.24-1.43-.84-2.51-2-2.87a.65.65,0,0,1-.54-.12A4.74,4.74,0,0,0,140.26,68C140.2,68.15,140.38,68.09,140.32,68.27Z"/><path class="ba134ad0-0faf-4dee-90f1-483c06103854" d="M180.13,78l.06.06c-.06,0-.06,0-.06.06a3.56,3.56,0,0,0,0,1.13,11.2,11.2,0,0,1-.6,4.48,5.73,5.73,0,0,1-1.25,1.73,10.7,10.7,0,0,1-1.85,1.79,7.09,7.09,0,0,1-1.55.89,7,7,0,0,1-1.31.42,10.5,10.5,0,0,1-7,.12c-.18-.06-.18.06-.36.06A12.5,12.5,0,0,1,162.34,87a7.51,7.51,0,0,1-1.07-.78l-.48-.65a5.67,5.67,0,0,1-1.19-2.09,16.38,16.38,0,0,1-.72-5.55c-.06-2.27.18-5-.06-7.28a9.49,9.49,0,0,1-.17-2.33l.29-1.61a8.65,8.65,0,0,1,1-2.81c.24-.48.59-.89.77-1.37A13.34,13.34,0,0,1,163.36,60a8.38,8.38,0,0,1,3.76-1.31,19.52,19.52,0,0,1,8.42,1.73,1.07,1.07,0,0,0,.77.24c.06,0,.12.06.18.06l1.43,1.31a19.69,19.69,0,0,1,1.38,2.45,15.91,15.91,0,0,1,.59,3,29.4,29.4,0,0,1,.24,4.12v4a12.81,12.81,0,0,0,0,2.15C180.13,77.88,180.07,78,180.13,78Zm-7-4.72c-.06-1.13.06-2.27,0-3.22a2.55,2.55,0,0,1-.12-.66c0-.18.06-.36,0-.47a10,10,0,0,0-.18-1.32,3.35,3.35,0,0,0-2.15-2.39c-.3.06-.42-.11-.66-.11-.59.11-1.31.06-1.85.17a7.77,7.77,0,0,0-1,.66,4.4,4.4,0,0,0-.9,1,4.13,4.13,0,0,0-.35,1.61c-.12,1.49-.06,3.4-.06,4.95v4.6a1.57,1.57,0,0,0,.06.53,2.91,2.91,0,0,0,.18,1.08,4,4,0,0,0,.65,1.25A3.11,3.11,0,0,0,170,82.59a.85.85,0,0,0,.36-.12,10.39,10.39,0,0,0,1.32-.53,7,7,0,0,1,1.25-1.14,7.68,7.68,0,0,0,.36-1.85A43.7,43.7,0,0,0,173.09,73.28Z"/><path class="ba134ad0-0faf-4dee-90f1-483c06103854" d="M214,58.61a13.27,13.27,0,0,1,2.15.83,6,6,0,0,1,.95.6c.24.06.36.24.66.24a11.29,11.29,0,0,1,2.21,2.8l.18.42c.18.36.36.42.48.9a7.29,7.29,0,0,1,.18,1.61c.12,1.31.35,2.74.35,4.24s-.11,3.22-.06,4.71c.06,2.87-.29,6.39-.23,9.07l.12,4.06c0,.3.11.78-.24,1.08-.24,0-.24-.18-.42-.24-1.91.06-3.82.24-5.79.12a1.21,1.21,0,0,0-.48-.24,2,2,0,0,1,0-.6C214,87,214,85.65,214,84.33s.24-3,.18-4.53c-.06-.72-.12-1.44-.12-2.15s.12-1.38.12-2v-4.3A12.4,12.4,0,0,0,214,68.7a3.88,3.88,0,0,0-.24-.78,2.37,2.37,0,0,0-.71-1.37,2.84,2.84,0,0,0-1.26-.9,2.93,2.93,0,0,0-1.61-.24,3.23,3.23,0,0,0-1.79.6c-.48.3-.78.72-1.19.95a1.85,1.85,0,0,1-.42.84,3,3,0,0,1-.18,1.07c.24,2.09.06,5,.12,7.11.06,1.25.06,3,.06,4.29a10.15,10.15,0,0,1,0,1.91,32.38,32.38,0,0,0,.12,3.41c0,1.19-.06,2.32-.12,3.52-2,0-4.42.12-6.63,0-.18-.12-.18-.3-.29-.36-.12-1.25-.18-2.69-.18-4.12-.06-.77.06-1.61,0-2.45s-.18-1.67-.18-2.56.12-2,.18-2.93.12-1.91.12-2.8a21.73,21.73,0,0,0-.06-2.81,8.88,8.88,0,0,0-.12-1.19,8.75,8.75,0,0,0-.18-1.25,3.15,3.15,0,0,0-.24-1c0-.06-.12-.18-.18-.3a.36.36,0,0,1-.06-.24c-.06-.18-.24-.29-.3-.41l-.24-.42L198,66c-.06-.06-.12-.24-.24-.3s-.24-.06-.3-.06a3.74,3.74,0,0,0-4,.78,3.89,3.89,0,0,0-.78,2.09,3.65,3.65,0,0,0-.17,1.13.83.83,0,0,0,.11.36,13.48,13.48,0,0,1-.23,2.68c-.06.72.06,1.44-.06,2.09.06,3-.18,6.09-.06,9.19a33.48,33.48,0,0,1,.06,3.47c0,.65.23,1.37-.06,1.91-2,.18-4.72-.18-6.63,0-.12-.06-.12-.24-.24-.3a19.82,19.82,0,0,1,.06-3.28,14.55,14.55,0,0,0-.3-2.27,46.64,46.64,0,0,1,0-5.67V73.65a6.69,6.69,0,0,1,0-1.55c.06-.12-.23-.06-.06-.12-.06-.84-.06-1.61-.06-2.51a47.44,47.44,0,0,1-.35-4.77c.06-1,.47-1.79.06-2.75.29-1-.12-2,.29-3a19.55,19.55,0,0,1,5.61.18c-.06.29.18.89-.06.95.24.24.24.78.42,1.08a3.43,3.43,0,0,1,1-.9,9.79,9.79,0,0,1,4.18-1.37,4.15,4.15,0,0,1,1.49-.06,8.32,8.32,0,0,1,4.47,1.07,1.21,1.21,0,0,0,.48.24,6.1,6.1,0,0,0,1.55,1.49v.06a8.89,8.89,0,0,1,6.93-3.22C212.06,58.43,213.08,58.55,214,58.61Zm-9.79,3a.21.21,0,0,1-.06.12C204.12,61.71,204.18,61.71,204.18,61.65Z"/><path class="ba134ad0-0faf-4dee-90f1-483c06103854" d="M246.68,89.2c-1.43.18-3.52-.3-4.78-.24a10.73,10.73,0,0,1-.89-2,7.71,7.71,0,0,1-1.43,1.26l-.6.24c-.18.06-.36.23-.54.29l-.48.12c-.41.18-1,.3-1.49.48a3.43,3.43,0,0,1-1.13.18,15.19,15.19,0,0,1-2.87.06,12.72,12.72,0,0,1-2.92-1.13,14.93,14.93,0,0,1-2.45-1.74,9.42,9.42,0,0,1-1.55-3.52v-.65l-.18-.42a8.68,8.68,0,0,1,0-1.25,9.73,9.73,0,0,1,.06-1.38A10.8,10.8,0,0,1,227.64,75c.48,0,.78-.42,1.13-.66a20.57,20.57,0,0,1,3.52-2.09c1.26-.54,2.69-.89,4.06-1.43a29.5,29.5,0,0,1,3.23-1c.29-1.37.12-4-1.38-4.35a3.54,3.54,0,0,0-3.22-.72,2.76,2.76,0,0,0-1,.42,3,3,0,0,0-1.13,1.13,3.68,3.68,0,0,0-.78,2.63c0,.24.24.36.18.65a5.76,5.76,0,0,1-2.68,0c-1.37-.11-2.45-.11-3.7-.17l-.42-.36c0-3.11.36-5.61,1.91-7.34.24-.24.78-.6,1-.84a3,3,0,0,1,.77-.78,6.62,6.62,0,0,1,.72-.53l.47-.12c.12-.12.24-.3.42-.36l.72-.24a12.11,12.11,0,0,1,3.64-.6c.24,0,.06.06.24-.06a14.86,14.86,0,0,1,5,.84,9.61,9.61,0,0,1,2.15.9c.6.53,1.25,1,1.85,1.49a6.42,6.42,0,0,1,.84.89c.18.3.24.78.53,1.08a24.84,24.84,0,0,1,.78,6.68c.12,2.27.06,4.54,0,6.81-.12,2.09-.06,4.17-.06,6.32,0,.66.12,1.32.12,2s.06,1.43.06,2.15v.54A2.43,2.43,0,0,1,246.68,89.2Zm-7.16-13.61h-.06c-2.15.72-4.54,1.2-6.21,2.57-.3.84-.9,1.43-.72,2.45a2.6,2.6,0,0,0,1,1.55c1.79,1.25,4.47.48,5.67-.9C239.81,79.71,239.46,77.62,239.52,75.59Z"/><path class="ba134ad0-0faf-4dee-90f1-483c06103854" d="M256.23,74.69c2-2.81,3.7-5.79,5.61-8.6-3.16-.11-7-.23-10.51-.29-.06-.24,0-.48-.35-.54.06-1.91-.24-3.58-.06-5.61l.35-.42c2-.18,4.36-.18,6.63-.24.06,0,.06-.06.12-.06,1.79,0,3.76.12,5.67.18a15.12,15.12,0,0,0,2.33-.06c1.49-.06,3,.06,4.77.06a35.76,35.76,0,0,1,.3,3.7,4,4,0,0,1,0,1.2,8.79,8.79,0,0,1-.06,1.25c-.06.83-.72,1.37-1,2.15-.23,0-.12.3-.35.3a14.18,14.18,0,0,1-1.85,3c-1.32,1.85-2.45,4-3.88,5.79l-1,1.37a15.85,15.85,0,0,0-1,1.38c-.24.35-.36.65-.6,1a21.64,21.64,0,0,0-1.79,2.75c3.28-.06,5.73-.18,9.13,0a7.28,7.28,0,0,1,2.27.17c0,2,.42,4.3-.12,6.15a8.22,8.22,0,0,1-2.15.18,7.37,7.37,0,0,1-1.61-.06c-5.19-.06-10.74.18-15.64.12a1.51,1.51,0,0,0-.47-.36,34.43,34.43,0,0,1-.06-5.55c.06-.18-.12-.18-.18-.3.83-1.49,1.85-2.86,2.74-4.35a23.6,23.6,0,0,1,1.38-2.09Zm12.29-27.87a32.51,32.51,0,0,1-2.44,3.82c-.9,1.37-1.5,2.62-2.39,3.82-1,.18-2.51,0-3.88.06-.36,0-1.31.41-1.49-.42a12.84,12.84,0,0,0-1.73-3,10.88,10.88,0,0,0-2.27-2.62c-.18-.54-.66-.78-1-1.26.18-.23,0-.35.06-.65,1.61.06,3.17-.12,4.66-.06a40,40,0,0,1,3,2.68c1-.65,1.49-1.79,2.39-2.5.18,0,.12.06.3.06,1.13-.18,2.68,0,3.82-.06C268,46.64,268.28,46.52,268.52,46.82Z"/><path class="ba134ad0-0faf-4dee-90f1-483c06103854" d="M276.16,85.29c-1.37-2.75-1.31-6.45-1.31-10,.06-3.16.18-6.33.12-9.25-.06-2,.18-4.48,0-6.45,1.61-.77,4.71-.59,6.62-.3a1.21,1.21,0,0,0,.48.24,33.24,33.24,0,0,1,0,4.24.81.81,0,0,1,.12.48c.06,1.25.12,2.57.06,3.94-.06,1,0,2-.06,3s-.12,1.67-.18,2.51.06,1.43.12,2.21a22.7,22.7,0,0,1,.06,2.92,5.52,5.52,0,0,0,.48,2.75A3.23,3.23,0,0,0,285.89,83a6,6,0,0,0,1.85-.54,4.8,4.8,0,0,0,1.61-2,3.88,3.88,0,0,0,.06-1.67c-.06-.89.06-1.85,0-2.68a10.71,10.71,0,0,1-.12-1.38c0-2.44-.12-5.07,0-7.76a51,51,0,0,0,.06-7.4,6.46,6.46,0,0,1,2.15-.29c1.14-.06,2,0,3.28,0a3.14,3.14,0,0,1,1.08.18.78.78,0,0,1,.53,0,26.64,26.64,0,0,1,.06,3.11c.12,4.35.18,9.31,0,14.26,0,.9,0,1.85.06,2.75,0,1.19-.12,2.27-.12,3.4a16.76,16.76,0,0,1,.12,1.73,32.34,32.34,0,0,0,0,4.06c-.17.24-.23.24-.17.54-.18,0-.3,0-.36.18a21.85,21.85,0,0,1-4.78-.12c-.18-.78-.53-1.44-.65-2.27a9.18,9.18,0,0,1-5.91,2.45,9.74,9.74,0,0,0-1.43,0,11.41,11.41,0,0,1-3-.66,4.42,4.42,0,0,1-1.43-.66,8.51,8.51,0,0,1-1.67-1.67A7.1,7.1,0,0,1,276.16,85.29Z"/><path class="a3710ea2-d292-4ee3-b5ec-01a1c7a7949d" d="M156.61,69.94c.18,2.87.72,6.27.42,9.67-.06.66-.12,1.31-.18,1.91a6.15,6.15,0,0,0-.24,2.21c-.11.42-.47.77-.35,1.19-.06.12-.24.12-.36.18-.36.6-.72,1.19-1.08,1.73s-.89,1-1.25,1.49c-.36.06-.6.42-.83.6a9,9,0,0,1-2,1,5.32,5.32,0,0,1-1,.48,9.64,9.64,0,0,1-3.52.36,19.34,19.34,0,0,1-3.34-.18c.18,3.22.12,6.39.24,10.09v1.37a7.28,7.28,0,0,1-.12,1.61c-.24.12-.3-.06-.54,0s-.24.18-.36.24a14.39,14.39,0,0,0-3.58.24c-.42,0-.84-.06-1.31-.06-.12-.06,0-.3-.12-.36a21,21,0,0,1-3.7-2.92c.18-5.79,0-10.57-.12-15.82-.06-3.28-.12-7.34-.12-10.15,0-1.25.06-2.68,0-4.17,0-2,0-3.88-.06-6.09-.06-1.31,0-2.51-.06-3.76a2,2,0,0,0,0-1.2.85.85,0,0,0,.18-.59,16.34,16.34,0,0,1,5.13,0,10.67,10.67,0,0,1,.54,2.21c.18-.24.48-.36.71-.6a2.77,2.77,0,0,1,.42-.42,6.07,6.07,0,0,1,1.55-.77,8.41,8.41,0,0,1,3.76-.6,9.11,9.11,0,0,1,4.72.95c.3.18.66.24.83.36s.36.54.6.66.3.06.42.12a12.76,12.76,0,0,1,1.25.77,6.91,6.91,0,0,1,2.51,2.39,7.45,7.45,0,0,1,.84,2.69A27.15,27.15,0,0,1,156.61,69.94Zm-22.68,30.62a35.52,35.52,0,0,0,5.67.12c.06-1.49.12-3,.12-4.36,0-.3-.12-.66-.12-.95,0-1.56.18-3,.18-4.3a25,25,0,0,1,0-4.24c.06-.12.3-.06.42,0s.06.24.18.3a5.69,5.69,0,0,0,3.46,1.37c.3.06.6.06.9.12,2,.06,4.24.06,5.49-1,.12-.18.12-.36.3-.42.35.3.53-.18.77-.36-.18,0-.24-.12-.18-.3l.18-.18c.18,0,.24.18.48.18.42-.65,1.13-1.13,1.19-2a7.76,7.76,0,0,0,.78-2.44,32.39,32.39,0,0,0,0-4.18c0-2.39-.06-5-.06-7.58a30.83,30.83,0,0,0-.3-5.25,6,6,0,0,0-1.73-3.23,13.67,13.67,0,0,0-1.31-1.25c-.06-.06-.18,0-.24-.06s-.06-.12-.12-.12-.42-.18-.6-.3c-.59-.18-1.19-.36-1.79-.59A24.69,24.69,0,0,0,144,59.5a1.66,1.66,0,0,1-.54.06,15.12,15.12,0,0,0-2.2.59,9.77,9.77,0,0,1-1,.66c-.3.24-.48.65-.89.71-.24.3-.3.6-.48.78-.24-.06-.24-.42-.48-.54a15.18,15.18,0,0,0-.48-2.26,20.32,20.32,0,0,0-4.29.06c.06,2.2,0,3.81.06,5.31.12,2.5.06,4.89.06,7.58,0,1.31.06,2.09,0,3.16-.06,3.4,0,6.8.11,10.45.06,1.37,0,2.8.06,4.23.18,3.52.12,7,.06,10.21C133.93,100.5,133.87,100.56,133.93,100.56Zm4.3,3a14.41,14.41,0,0,0-2.33-2.27,14,14,0,0,1-1.43-.11,19.82,19.82,0,0,0,2.87,2.14c.12.06.18.24.29.24A2,2,0,0,0,138.23,103.54Zm2-.12a18.17,18.17,0,0,1-2.21-2.09c-.24.12-.89-.06-1.13.06a8.72,8.72,0,0,0,1,1.08c.24.24.78,1,1.08,1.07S139.84,103.42,140.2,103.42Zm1.67-.12c-.24-.41-.65-.59-1.07-1-.24-.24-.78-1-1.14-1s-.59.12-.95.06c.48.72,1.37,1.38,2,2.09A4.43,4.43,0,0,1,141.87,103.3Zm-2.09-29.12c-.06-1.08-.12-2.15-.12-3.17.06-.77.12-1.55.12-2.38a1.73,1.73,0,0,1-.06-.78c.12-.6.6-.95.78-1.43,1.25-.84,2.69-2.09,4.89-1.43l.6.29c1.67,1,1.79,3.41,1.91,5.73a23.38,23.38,0,0,1,.06,2.93c0,.89.06,1.79.06,2.57s-.06,1.43-.06,2a10.48,10.48,0,0,1-.12,1.91,11.06,11.06,0,0,1-.54,1.68c-.53.12-.83.71-1.43.89s-1.07.18-1.67.36a9.46,9.46,0,0,0-1.37-.18c-.54-.12-1-.48-1.38-.54-.23-.24-.47-.41-.71-.65a11.79,11.79,0,0,0-.78-1.5C140,78.36,139.84,76.27,139.78,74.18Zm2.75,27.57c-.12,0,0,.12-.12.06-.72-.6-1.37-1.49-2.15-2.15.12.54-.18,1,0,1.44.06.11.42.29.54.47.59.54,1.19,1.08,1.73,1.5C142.47,102.65,142.59,102.17,142.53,101.75Zm-2.27-7.4c.06.18.36.36.54.6a9.52,9.52,0,0,0,1.67,1.73,10.15,10.15,0,0,1,0-1.91c-.78-.3-1.43-1.31-2.21-1.91C140.38,93.28,140.14,93.87,140.26,94.35Zm0,2.33a11,11,0,0,0,1.91,2.09c.12.12.24.36.36.3,0-.42,0-1.14-.06-1.85a11,11,0,0,1-2.21-2.15A14.41,14.41,0,0,0,140.26,96.68Zm2.27,2.86a.26.26,0,0,0-.3-.06c-.66-.65-1.37-1.25-2-2a11.52,11.52,0,0,0,0,1.44c.72.83,1.55,1.61,2.27,2.44A9.5,9.5,0,0,0,142.53,99.54Zm-2.27-31.63c.66.72,1.37,1.31,2,2,.06-.54.3-.89.36-1.37A18.89,18.89,0,0,0,140.92,67,3.27,3.27,0,0,0,140.26,67.91Zm0,2.27a18.26,18.26,0,0,0,1.49,1.43c.06.12.36.42.42.3.06-.48,0-1.13.06-1.67-.06,0-.06.12-.18.06-.54-.54-1.13-1-1.67-1.61C140.32,69.1,140.32,69.7,140.26,70.18Zm0,2.15c.66.59,1.19,1.37,1.91,2a15.45,15.45,0,0,1,0-1.67,25.17,25.17,0,0,0-1.91-1.73Zm.12,2.56A13.68,13.68,0,0,0,142.47,77c-.3-.65-.06-1.43-.3-2a2.32,2.32,0,0,0-.42-.47c-.47-.42-1.13-1.14-1.49-1.44C140.32,73.64,140.32,74.24,140.38,74.89Zm1.31,15c-.53-.47-.89-1.13-1.43-1.61a10.64,10.64,0,0,0,.06,1.32c.66.71,1.31,1.43,2,2.15a8.88,8.88,0,0,1-.06-1.2,5.28,5.28,0,0,0-.6-.36A.27.27,0,0,1,141.69,89.87Zm.78,4.54c-.06-.83-.06-1.55-.12-2.39-.12,0-.18-.06-.3-.06a21,21,0,0,1-1.73-1.67c0,.66,0,1.2-.06,1.85C141,92.86,141.81,93.69,142.47,94.41Zm-2.09-18.8c0,.54.06.9.06,1.43a9.52,9.52,0,0,0,2.09,2c-.06.06,0,.12.06.12a11.53,11.53,0,0,0-.12-1.49A22.9,22.9,0,0,1,140.38,75.61Zm.18,4.12a23.1,23.1,0,0,0,2.15,1.85,9,9,0,0,1-.06-1.79c-.72-.66-1.49-1.2-2.21-1.91C140.5,78.59,140.44,79,140.56,79.73Zm2.21,2.21h-.24c-.6-.48-1.31-1-2-1.56a1,1,0,0,0,.36.9c.24.78,1,1.13,1.91,1.25C142.89,82.41,142.71,82.18,142.77,81.94Zm.42,8.17a11.43,11.43,0,0,1-1-1.31c-.48-.12-.89-.48-1.25-.54a9.13,9.13,0,0,0,1.49,1.67C142.71,89.87,142.89,90.17,143.19,90.11Zm-1.91-23.39c.53.41,1,.83,1.49,1.25.06-1.37,1-1.91,2-2.51a3.26,3.26,0,0,0-1.85.3c.18.18.65.54.3.78-.36-.12-.42-.48-.72-.54C142,65.94,141.63,66.48,141.28,66.72Zm3.93-1c-.53.3-1.31.54-1.61,1.2a9.5,9.5,0,0,0-.53,2,18.33,18.33,0,0,0-.3,6.56,37.48,37.48,0,0,1,.42,4.24,10.58,10.58,0,0,0,.23,2.8c0,.06-.11.12-.17.18a4.94,4.94,0,0,0,3.64-1.13,4.14,4.14,0,0,1,.29-1c.36-2.8.06-5.55.24-8-.24-2-.06-5-1.25-6.39C145.81,66,145.57,65.52,145.21,65.7Zm2.15,24.53a6.24,6.24,0,0,1-1.13-1,2.15,2.15,0,0,0-1.07,0c0,.24.47.36.53.77-.77.06-.95-.71-1.55-.89a3.49,3.49,0,0,1-1.19-.24c.12.48.71.78,1,1.25C145,90.23,146.05,90.23,147.36,90.23Zm2-.3c-.35-.23-.65-.53-1-.77a12,12,0,0,1-1.43.06c.41.36.83.65,1.19,1C148.56,90.11,149,90.05,149.33,89.93Zm1.38-.53a6.23,6.23,0,0,0-1-.72c-.18.18-.54.18-.71.36a8.77,8.77,0,0,0,.83.72Zm1.13-.66a6.25,6.25,0,0,1-1.07-.72c-.12.18-.42.18-.48.42a9.37,9.37,0,0,0,.89.72C151.36,89,151.72,89,151.84,88.74ZM153,88c-.41-.17-.71-.47-1.13-.65-.18.18-.42.24-.54.54a3.66,3.66,0,0,1,1,.77A9.2,9.2,0,0,1,153,88Zm1.38-1.37a9.28,9.28,0,0,0-1.2-1c-.18.53-.65.83-.89,1.31.42.18.65.54,1,.78A3.89,3.89,0,0,0,154.35,86.59Zm-1.67-24.53c.12.18.23.3.35.48-.06-.18.12-.12.06-.24A1,1,0,0,0,152.68,62.06Zm.47.66a6.73,6.73,0,0,1,.78,1.91,3,3,0,0,1,1.67,1.61c-.06.06-.12.18-.24.18-.48-.36-.77-.9-1.31-1.2.06.6.18,1.32.24,2.09,0-.18.12,0,.18-.12.41.66,1.13,1,1.61,1.56,0-1.73-.42-3.94-1.49-5.14C154,63.73,153.81,62.72,153.15,62.72Zm2.39,22c-.54-.3-1-.83-1.55-1.07-.18.42-.18,1-.6,1.13a.89.89,0,0,1-.06.42c.48.24.84.72,1.31,1A13.1,13.1,0,0,1,155.54,84.74ZM154.35,72c0,.12.06-.06.18,0a10.54,10.54,0,0,0,1.91,1.79c-.12-1.37-.36-3-.36-4.66-.78-.11-1.2-.89-1.85-1.31,0,.54.06.9.06,1.49a5.94,5.94,0,0,1,1.37,1.32c.06.18.36.24.18.53-.66-.12-1-.95-1.61-1.25C154.35,70.54,154.29,71.19,154.35,72Zm1.73,10.68c-.54-.47-1.08-1-1.67-1.43a8.8,8.8,0,0,1-.18,1.85,9.13,9.13,0,0,0,1.55,1.25A1.87,1.87,0,0,0,156,84C155.78,83.55,156.14,83.19,156.08,82.65Zm.36-8.53h-.3c-.6-.54-1.26-1-1.79-1.55,0,.77-.06,1.49,0,2.14.59.78,1.49,1.26,2,2.09-.36.42-.84-.35-1.14-.65a3.33,3.33,0,0,1-.48-.36c-.11-.18-.23-.36-.35-.36v2.15A9.2,9.2,0,0,0,156,79c-.06.24.36.24.3.54,0,.06-.06.06-.06.12-.84-.3-1.2-1-1.91-1.43,0,.89.12,1.67.06,2.44.12.06.12-.06.29-.06a7.43,7.43,0,0,0,1.5,1.56A33.73,33.73,0,0,0,156.44,74.12Z"/><path class="a3710ea2-d292-4ee3-b5ec-01a1c7a7949d" d="M183,77.76c0,.36.06.72.06,1.07a12.74,12.74,0,0,1-.18,2.09,9,9,0,0,1-.12,1.32,9.88,9.88,0,0,1-.41,1.19,14,14,0,0,1-10.09,8.24c-.18-.06-.12.17-.24.17s-.18-.17-.36-.17a13.91,13.91,0,0,1-6.92-1.62,11.06,11.06,0,0,1-3.52-3.16,2.66,2.66,0,0,1-.48-.66c-.18-.35-.54-.77-.3-1a10,10,0,0,1-1.37-3.7,18.64,18.64,0,0,1-.18-4.12,18.38,18.38,0,0,1,.06-3.64c-.24-1,0-2.27-.18-3.34a11,11,0,0,1-.12-2.15,17.39,17.39,0,0,1,.3-1.73,9.35,9.35,0,0,1,.42-1.55,23.51,23.51,0,0,1,1.31-2.45,11.34,11.34,0,0,1,3.94-3.16,7.41,7.41,0,0,1,2.51-.66,19.28,19.28,0,0,1,8.95,2c.54-.12.9.36,1.19.3a12.3,12.3,0,0,1,3.23,2.86,10.65,10.65,0,0,1,1.25,3.22c.24,1.14.3,2.45.48,3.77s.53,2.5.65,3.76S182.92,76.74,183,77.76Zm-22.14,7,.48.48c.18.18.3.42.42.54a12.59,12.59,0,0,0,1.43,1c.18.06.3.3.42.36s.41.06.53.12a5.29,5.29,0,0,0,1.55.71,2.14,2.14,0,0,1,1.26.3,11.31,11.31,0,0,0,4,.36c.3-.06.59-.18.89-.24.12,0,.18.06.3.06a5.93,5.93,0,0,0,1.25-.42,10,10,0,0,0,1.32-.41c.12,0,.18-.12.3-.18a12.61,12.61,0,0,0,1.25-.72,10.82,10.82,0,0,0,.83-.83c.6-.54,1-1.14,1.56-1.68,0-.11-.12-.41,0-.53s.23.06.35-.06a3,3,0,0,0,.3-1.49,10.17,10.17,0,0,0,.24-3.05c-.06-1.79,0-3.34,0-4.95,0-1.37-.12-2.93-.06-4.3a26.28,26.28,0,0,0-.65-4.71,15.9,15.9,0,0,0-1.38-2.69,4.79,4.79,0,0,1-1-1,7.17,7.17,0,0,0-.9-.41,6.53,6.53,0,0,0-.83-.48,7.73,7.73,0,0,0-1.26-.36c-.35-.06-.71-.3-1.07-.36-.18-.06-.42-.06-.6-.12-.36-.06-.65-.23-1.07-.29a19.71,19.71,0,0,0-3.82-.18c-.18,0-.48.06-.72.06-.54.23-1.25.41-1.85.65a6.75,6.75,0,0,1-1.37.9,2.32,2.32,0,0,1-.72.65,1.26,1.26,0,0,1-.24.36c-.06.06-.18.06-.29.18a10.06,10.06,0,0,0-1.56,2.45,14.73,14.73,0,0,0-1.07,5.37c0,.12.18.12.18.3s0,.48.12.71c-.12.84.12,2,.06,2.93,0,1.07-.06,2.27,0,3.4a31,31,0,0,0,.06,3.34,9,9,0,0,0,.71,2.87A8.71,8.71,0,0,0,160.84,84.8Zm5.49,5.07c-.66-.41-1-1.13-1.61-1.55-.36-.24-.9-.41-1.31-.65A11.05,11.05,0,0,1,161.08,86c0-.12-.18-.36-.24-.3a11.45,11.45,0,0,0,5.79,4.65C166.75,90.23,166.33,90.05,166.33,89.87ZM165,69.64c0-.12.06-.18.18-.24a9.55,9.55,0,0,1,.3-2.38c.11-.36.41-.6.53-1,.42-.12.54-.54,1-.66a.47.47,0,0,1,.12-.65c.24.06.18.24.24.3a6.28,6.28,0,0,1,3.94-.12c.53.41,1.31.71,1.67,1.31a8.62,8.62,0,0,1,.59,2.33,41.73,41.73,0,0,1,.18,4.71c0,1.67.3,3.23.18,4.9a7.06,7.06,0,0,1-.66,3.22c-.23,0-.29.24-.29.36a2.34,2.34,0,0,1-1.91,1.07c-.3.06-.54.24-.84.3a5.66,5.66,0,0,1-3-.6,5.6,5.6,0,0,1-1.85-3.16c-.36-1.91-.06-4.18-.12-6.33A29.23,29.23,0,0,0,165,69.64ZM168.72,91c-.42-.48-1-1-1.49-1.55-.24-.36-.42-.66-.78-.66-.18.12-.48,0-.78-.12.6.72,1.32,1.43,2,2.09A5.71,5.71,0,0,1,168.72,91Zm-3-18.74a2.11,2.11,0,0,0,.48.6,10.3,10.3,0,0,0,1.26,1.43c.06.06.17.18.29.12a12,12,0,0,0,.06-1.5,18.38,18.38,0,0,1-2.09-2.14C165.85,71.25,165.61,71.73,165.73,72.21Zm0-2.21c.66.84,1.38,1.61,2.09,2.39,0-.54.06-1,.06-1.55-.95-.48-1.37-1.74-2-2.39C165.85,68.81,165.79,69.52,165.73,70Zm0,4.42c.06.12.18.12.24.24.48.59,1.08,1.19,1.56,1.79.05.06.17.35.23.17a17.77,17.77,0,0,1,0-1.79c-.89-.35-1.37-1.19-2-1.85A11.43,11.43,0,0,1,165.73,74.42Zm0,2.26c.54.48,1.08,1.08,1.62,1.56.18.18.35.47.47.41,0-.47-.06-.89-.06-1.49a22.87,22.87,0,0,1-2-2A13.31,13.31,0,0,1,165.73,76.68Zm.12,2.09a16.37,16.37,0,0,0,1.73,1.79c.18.18.36.54.54.54a14,14,0,0,1-.18-1.73c-.77-.66-1.49-1.37-2.21-2.09C165.79,77.88,165.79,78.18,165.85,78.77Zm.12-11c.54.66,1,1.55,1.5,2.21.17.18.29.48.47.48a10.49,10.49,0,0,1,.18-1.44c-.65-.65-1.25-1.49-1.91-2.14A1.91,1.91,0,0,0,166,67.79Zm2.63,14.68a7.41,7.41,0,0,1-.42-1.07c-.18-.06-.12,0-.24,0A18.73,18.73,0,0,1,166,79.67,3.83,3.83,0,0,0,168.6,82.47Zm-2-15.93c.54.65,1,1.31,1.55,1.91.12-.42.24-.9.36-1.32-.54-.29-.78-.89-1.19-1.31A8.15,8.15,0,0,0,166.57,66.54Zm4.6,24.65c-.54-.6-1.32-1.32-1.91-1.91a10,10,0,0,1-1.79-.3,6.58,6.58,0,0,0,.95,1.07,6,6,0,0,0,1.07,1C170,91.25,170.69,91.07,171.17,91.19ZM167.7,65.58c.3.42.6.9.9,1.26a2.9,2.9,0,0,1,1.19-1.67C169,65.28,168.06,65.17,167.7,65.58Zm2.33-.06c-.3.06-.6.54-.77.84-.84,1.73-.84,4.54-1,7.34-.06,1.31-.06,2.63,0,3.88a18.61,18.61,0,0,0,.42,3.82,2.57,2.57,0,0,0,.65,1.25,2.34,2.34,0,0,0,1-.12c.12-.06.24,0,.36-.06a7.19,7.19,0,0,0,1.13-.71c.3-.3,1-.66,1.14-1a4.62,4.62,0,0,0,.29-1.85c.12-2-.06-4.41-.17-6.74,0-.72.06-1.49,0-2.09-.06-.84-.24-1.85-.24-2.45a3.27,3.27,0,0,0-2-2.27C170.63,65.52,170.33,65.4,170,65.52Zm2.87,25.37c-.54-.42-1.08-1.19-1.61-1.67-.12-.12-.42.06-.6.06s-.54-.06-.78.06c.6.59,1.2,1.19,1.79,1.79A2,2,0,0,0,172.9,90.89Zm1.61-.48a11.73,11.73,0,0,1-1.43-1.61c-.42.12-.84.18-1.32.3.48.66,1.08,1.13,1.61,1.73A3.71,3.71,0,0,0,174.51,90.41Zm2.39-1.31a11.44,11.44,0,0,0-1.26-1.25,2.75,2.75,0,0,0-.65.35c.29.48.71.84,1,1.32a.54.54,0,0,1-.3.06,5.93,5.93,0,0,1-1.19-1.26,5.19,5.19,0,0,0-1,.42c.48.42.84,1.08,1.38,1.49.06,0,0,.06,0,.06A11.63,11.63,0,0,0,176.9,89.1ZM178.33,88c-.78,0-1-.71-1.49-1-.18.24-.54.36-.72.6.36.41.72.83,1.07,1.25A8,8,0,0,0,178.33,88Zm1-1.13a.45.45,0,0,1-.24-.12c-.18-.12-.83-1.13-.95-1.07s-.24.24-.3.3c-.24.29-.48.41-.66.71.36.42.84.78,1.2,1.25h0A7.49,7.49,0,0,0,179.34,86.89ZM178,62.3H178a10.59,10.59,0,0,1,1.37,2.87c.78.53,1.14,1.43,1.79,2.08-.47-2.14-1.31-3.88-3-4.77C178.15,62.42,178,62.12,178,62.3Zm2.45,23.4a3,3,0,0,1-1.26-1.2c-.24.3-.71.54-.65.84s.35.54.47.72a3.57,3.57,0,0,0,.66.65A7,7,0,0,0,180.42,85.7Zm1-1.55c-.71-.12-1.13-.84-1.67-1.26a3.88,3.88,0,0,1-.36,1.26,14.82,14.82,0,0,0,1.26,1.37A6.86,6.86,0,0,0,181.37,84.15Zm0-16.12c-.18-.12-.3-.3-.48-.42-.29-.36-.65-.89-.95-1.25-.06-.12-.24-.3-.3-.3.12.72.18,1.25.3,2a7.13,7.13,0,0,0,1.61,1.67A16.91,16.91,0,0,1,181.37,68Zm1,11.88c-.36.12-.54-.12-.84-.36-.48-.48-1.13-1.25-1.49-1.67.12.77-.12,1.43.06,2a4.35,4.35,0,0,0,.83,1,7.76,7.76,0,0,0,.9,1c.06.06.3.12.3.3-.6.23-1-.36-1.26-.72a3,3,0,0,0-.77-.78,6.32,6.32,0,0,1-.3,1.61A7.41,7.41,0,0,0,181.55,84a20.77,20.77,0,0,0,.78-2.27C182,81.28,182.57,80.56,182.39,79.91Zm-.72-9.37a5.18,5.18,0,0,0-.84-.78c-.29-.3-.53-.54-.83-.83.06.47.18.95,0,1.25a11.54,11.54,0,0,0,.95,1.31,8.59,8.59,0,0,1,.9,1.32c-.9-.12-1.19-1.2-1.79-1.68v1.32a14.11,14.11,0,0,0,2.27,2.68c-.12-1.37-.48-2.8-.6-3.94C181.67,71,181.73,70.78,181.67,70.54Zm-1.61,4.59c.77.84,1.55,1.61,2.39,2.39,0-.54-.06-1.31-.12-2.15-.12.06-.18-.06-.3-.06a12.76,12.76,0,0,1-1.91-2.09C180.06,74.06,180.12,74.54,180.06,75.13Zm2.39,2.81c-.9-.66-1.56-1.49-2.39-2.15v1.37a16.7,16.7,0,0,0,2.39,2.69A10.11,10.11,0,0,0,182.45,77.94Z"/><path class="a3710ea2-d292-4ee3-b5ec-01a1c7a7949d" d="M223.65,84.92c-.06.9,0,1.85,0,2.81a26.06,26.06,0,0,0-.06,3.76c0,.12-.24.18-.3.06.06.47-.36.35-.78.35-.95,0-2-.17-3.22-.23l-2.63-.12c-.18-.18.06-.3.06-.42-.89-.48-1.55-1.26-2.44-1.85a.38.38,0,0,1,.11-.3c0-.12-.35-.06-.35-.18,0-1.73-.12-3.64,0-5.49.12-2.21.06-4.48.12-6.69.06-.71-.06-1.37-.06-2.08,0-2.45.41-5.14-.48-7.52A5.7,5.7,0,0,0,212,65.76a5.42,5.42,0,0,0-1.26.48c-.29.24-.65.6-.47,1a1.68,1.68,0,0,0-.42,1.14,18.48,18.48,0,0,0-.3,4c0,1.49-.06,3-.12,4.47-.06,1.68.12,3.29.12,5s-.12,3.22-.06,4.83a9.72,9.72,0,0,1,.06,1.85,16.43,16.43,0,0,1-.36,2.39.35.35,0,0,0-.53.36,4.68,4.68,0,0,0-1.32.24,16.1,16.1,0,0,1-1.67-.06h-2.92c-.12-.06,0-.24-.06-.3a14,14,0,0,1-1.2-1,13.44,13.44,0,0,1-1.37-1.25c-.24-.36-.24-.54-.24-1.19-.12-1.2-.18-2.69-.18-4.12a9.54,9.54,0,0,0,0-1.31c-.06-.9-.18-1.86-.18-2.81.06-.66.18-1.31.18-2l.18-3.28a18,18,0,0,0-.18-3.64c.06-.06-.06-.24.06-.18a2.28,2.28,0,0,1-.18-1,6.23,6.23,0,0,0-.3-1.73c-.11-.24-.29-.36-.29-.65a1.79,1.79,0,0,1-.42-.66c-.12-.18-.36-.24-.54-.42-1.67-.24-2.74,1.19-2.86,2.75s0,3.16,0,4.83c0,1.37-.24,2.87-.3,4.3-.18,2.21-.3,4.24-.3,6.56s.06,4.42,0,6.57a1,1,0,0,0-.42.42,2.13,2.13,0,0,0-.66.18c-1.25-.06-2.56.06-4.11-.12a10,10,0,0,1-1.44-.12c-.17-.06-.41-.36-.65-.54-.66-.54-1.26-1.13-1.85-1.67,0-1.61.06-3.22-.06-4.6l-.12-1.43c0-.48-.12-.95-.12-1.37,0-1.73.18-3.4.18-5.08,0-.53-.06-1.07-.06-1.61a7.61,7.61,0,0,0-.12-1.73,33.19,33.19,0,0,0,0-3.46c.06-.12,0-.06.12-.06,0-.18-.06-.06-.12-.18-.06-1.07-.24-2.21-.36-3.4a7.22,7.22,0,0,1,0-1.61c0-.18.12-.24.18-.42A9.15,9.15,0,0,0,185,62.9c0-.36-.18-.66-.18-1,0-.18.12-.24.12-.36.06-.47-.12-1,.06-1.37-.06,0-.18-.3,0-.18-.18-.24,0-.71.06-1.07a1.33,1.33,0,0,0,.66-.3c1,.24,2.26,0,3.4.18l1.61.36a9.72,9.72,0,0,0,.36,2c1.43-2.21,5.43-2.69,8.71-2.15a5.62,5.62,0,0,1,1,.24c.35.18.71.3,1,.47.06.06.18.06.18.12s.06.18.12.18.12,0,.18.06c.66.42,1.37,1.08,2,1.61.18-.29.54-.35.77-.59l.3-.42a4.48,4.48,0,0,1,.9-.54l.36-.36a6.89,6.89,0,0,1,3.28-1.19,11.36,11.36,0,0,1,4,.18,4.4,4.4,0,0,1,1,.3,6.56,6.56,0,0,1,1,.3A17.19,17.19,0,0,1,218,60.39a2.53,2.53,0,0,1,.77.48A4.88,4.88,0,0,1,219.89,62a9.84,9.84,0,0,1,1.91,2.45,13.7,13.7,0,0,1,1.73,4.89c.18,1.32.12,2.63.24,4.18C224,77.28,223.77,81,223.65,84.92Zm-9.08,3.58a14.38,14.38,0,0,0,3.59-.06,14.21,14.21,0,0,0,2.26,0,33.25,33.25,0,0,1,0-3.46c0-.72-.18-1.49-.18-2.27,0-1.79.18-3.58.3-5.25a32.39,32.39,0,0,1,0-4.18c-.06-1.37.12-2.92,0-4.35-.06-1.14-.18-2.27-.3-3.29a8.27,8.27,0,0,0-1.25-3c-.12-.12.24-.06.06-.18a7.29,7.29,0,0,0-1.85-2A18,18,0,0,0,213,59.14c-3-.18-3.94-.3-6.32,1.19a2,2,0,0,0-1.2,1c-.36.06-.6.35-.95.53,0,.24-.06.48-.3.54a12.65,12.65,0,0,0-1.61-1.37,6.11,6.11,0,0,0-1.32-1c-.06-.06-.24-.06-.29-.12l-.36-.18a11.68,11.68,0,0,0-2.51-.29,5.36,5.36,0,0,0-1.67-.06c-1.91.23-4.24.35-5.13,2.62a2.43,2.43,0,0,0-.66,0c-.18-1-.42-1.61-.6-2.45a29.27,29.27,0,0,0-4.53-.17c.12,3.7-.3,7,.18,10.44-.18.54.06,1.13-.06,1.73a13.57,13.57,0,0,1,.12,3.1V80c0,.89-.06,1.73,0,2.56a10.17,10.17,0,0,1,.06,1.32,6.09,6.09,0,0,0,.17,1c.12,1.14-.11,2.63,0,3.88,2.09-.06,3.76.18,5.85,0-.12-1.49.06-2.92-.06-4.42-.12-1.85-.06-3.7,0-5.67,0-1,.12-1.85.06-2.62,0-1.08,0-2.15.06-2.93l.18-1.43a16.61,16.61,0,0,0,0-2.45,8.83,8.83,0,0,1,.54-2.56,4.44,4.44,0,0,1,1.67-1.49,3.63,3.63,0,0,1,2.21-.3c.24.06.18-.18.36-.12s.71.18,1.07.36.48.41.72.53a6.51,6.51,0,0,1,1.49,3.7l.18,1.5a50.63,50.63,0,0,1-.18,7.34c-.06,1.37-.06,2.5,0,3.7.12,2.15-.06,4.71.24,6.56,2.09,0,3.82.06,5.91,0,.06-2-.06-4.35,0-6.5s-.12-4.36-.12-6.51V70.66c0-.6-.06-1.2-.06-1.79s.18-1,.18-1.38c.3-.12.24-.47.41-.77a7.08,7.08,0,0,1,1.2-1,5.57,5.57,0,0,1,1.43-.77c.24-.06.54,0,.78-.06a4.45,4.45,0,0,1,3.22,1,1.59,1.59,0,0,0,.3.36l.42.48a8,8,0,0,1,.59,2.5c0,2.33.12,5.08,0,7.76-.12,2.15,0,4.06-.06,6.09S214.57,86.83,214.57,88.5Zm-25.42,2.39c-.36-.6-.9-1-1.26-1.55a12.34,12.34,0,0,0-1.49,0C187.24,89.93,187.83,91,189.15,90.89Zm1.55.12a11.63,11.63,0,0,1-1.31-1.61,8,8,0,0,1-1.2-.06C189,90,189.21,91.13,190.7,91Zm1.07,0c-.41-.42-1-1.08-1.37-1.61h-.66c.36.65,1,1,1.44,1.61A1.91,1.91,0,0,0,191.77,91Zm1.91-.12c-.59-.48-1.07-1.07-1.61-1.55a7.23,7.23,0,0,1-1.13.12A17.59,17.59,0,0,0,192.25,91C192.85,91,193.33,91.13,193.68,90.89Zm.36-8.77c-.6-.66-1.13-1.32-1.67-2,0,.35-.06.95-.06,1.55A24.36,24.36,0,0,0,194,83.49Zm.12-1.85a20.43,20.43,0,0,1-1.79-2.09v1.19a15.25,15.25,0,0,0,1.73,2.09A7.09,7.09,0,0,1,194.16,80.27ZM194.1,84a22.86,22.86,0,0,1-1.73-1.68c0,.9.06,1.32.06,2.21.36.54.9,1,1.25,1.5.06.11.24.29.12.47-.3.06-.47-.36-.65-.59l-.66-.72c-.06.48.06.89,0,1.31a7.45,7.45,0,0,0,1.61,1.79C194.16,87,194,85.58,194.1,84Zm0,5c-.12-.3-.54-.6-.83-.84l-.78-1a8.83,8.83,0,0,0,0,1.79c.42.36.84.84,1.19,1.13.12.12.18.36.36.3A6.12,6.12,0,0,0,194.1,89Zm.3-11.34a19.13,19.13,0,0,1-1.91-1.91c-.06.6,0,1.19-.06,1.85.66.66,1.07,1.49,1.73,2.09C194.22,79,194.28,78.36,194.4,77.64Zm.06-1.85c-.72-.66-1.25-1.55-2-2.27a13.35,13.35,0,0,0,0,1.55,14.24,14.24,0,0,0,1.91,2A9.15,9.15,0,0,0,194.46,75.79Zm.18-2.21a10,10,0,0,1-2-2.21l-.18,1.55c.78.72,1.31,1.68,2.09,2.39A16.76,16.76,0,0,1,194.64,73.58Zm0-.36c-.06-.89-.06-2-.06-2.74a8.29,8.29,0,0,1-1.85-1.67,5.76,5.76,0,0,0,0,2C193.44,71.55,193.86,72.51,194.64,73.22Zm0-4.77c-.06.06-.06.06-.12.06-.54-.3-.9-1-1.31-1.55a8,8,0,0,0-.42,1.31c.06,0,.12.06.18.06a9.22,9.22,0,0,0,1.61,1.79A14.54,14.54,0,0,0,194.64,68.45Zm.6-1.61c-.36-.24-.54-.72-.9-1a9,9,0,0,0-.84.72,11.18,11.18,0,0,0,1.2,1.55A6.38,6.38,0,0,1,195.24,66.84Zm1.91-1.32a4.13,4.13,0,0,0-2.27.06,4,4,0,0,0,.59,1A3.45,3.45,0,0,1,197.15,65.52Zm6.92,25.37A18.17,18.17,0,0,1,202.28,89c-.42.06-1.08-.12-1.37,0a14.65,14.65,0,0,0,2.2,1.73c.12,0,.06.24.18.18A3.35,3.35,0,0,0,204.07,90.89Zm2.09,0A20.73,20.73,0,0,1,204.07,89h-1.25l1,1.07c.36.3.66.78,1,.9S205.74,90.83,206.16,90.89Zm2.21-.18A5.2,5.2,0,0,1,206.64,89c-.24.06-.36-.06-.54,0a10.37,10.37,0,0,1,.77,1c.18.24.54.36.54.66A3.94,3.94,0,0,1,205.62,89a3.79,3.79,0,0,0-.83,0c.47.66,1.13,1.13,1.61,1.79.06.06.12-.06.24.06s-.06.06-.06.18A4.35,4.35,0,0,0,208.37,90.71Zm.71-19.87c-.06-.12-.12.06-.3,0-.71-.78-1.19-1.8-2-2.57a7.22,7.22,0,0,0,0,1.61c.84.84,1.44,1.91,2.27,2.69Zm.06,2.2a12.79,12.79,0,0,1-2.33-2.38c0,.53.06,1.07.06,1.79.48.65,1.08,1.19,1.62,1.79a2.56,2.56,0,0,1,.41.65l-.18.18c-.71-.59-1.25-1.31-1.91-2v1.73l1,1.14c.36.42.84.77.89,1.25A3.78,3.78,0,0,1,207.23,76c-.12-.12-.24-.36-.42-.36,0,.54.06,1.07.06,1.61A22.07,22.07,0,0,0,209,79.73C208.84,77.46,209.14,75.31,209.14,73Zm0,14.69a12.13,12.13,0,0,1-.12-1.67c-.89-.48-1.49-1.56-2.15-2.21.12.71,0,1.25.06,1.79l1.62,1.55C208.72,87.37,209,87.79,209.14,87.73Zm-.12-5V80c-.12-.06-.18.06-.3,0a16.3,16.3,0,0,1-1.79-2.09,17.38,17.38,0,0,0,0,2.5C207.59,81.22,208.31,82,209,82.71Zm-2.09.36A30.49,30.49,0,0,0,209,85.7c-.06-.78,0-1.61,0-2.63-.83-.48-1.31-1.31-2.09-1.85C207,81.88,206.87,82.47,206.93,83.07Zm2.15,5.25c-.65-.71-1.43-1.31-2.15-2a3.38,3.38,0,0,1,0,.78l1.91,2v.12c-.41-.06-.71-.42-1-.66a5.09,5.09,0,0,0-.9-.77,5,5,0,0,1,0,.95,7,7,0,0,0,1.85,1.61A9.57,9.57,0,0,0,209.08,88.32Zm.24-19.75c-.6-.54-.95-1.44-1.61-1.91a2.28,2.28,0,0,0-.66,1c.72,1,1.32,2,2,2.87A17.42,17.42,0,0,1,209.32,68.57Zm.36-1.55c-.3-.42-.66-.72-.9-1.14-.17.18-.53.18-.59.48.42.54.77,1.13,1.19,1.61A4.59,4.59,0,0,0,209.68,67Zm1.73-1.5a3.74,3.74,0,0,0-2.15.12,5,5,0,0,0,.66.9A2.68,2.68,0,0,1,211.41,65.52Zm6.8,25.61a13.37,13.37,0,0,1-2-2c-.48.06-.84,0-1.26.06.42.3.84.71,1.26,1.07A3,3,0,0,0,218.21,91.13Zm1.85.12c-.53-.72-1.31-1.43-2-2.15a9.29,9.29,0,0,0-1.32.06c.66.71,1.43,1.31,2,2A8.25,8.25,0,0,1,220.06,91.25Zm2.27.18a11.18,11.18,0,0,1-1.67-2.27c-.42-.3-1.31-.06-1.85-.18.42.84,1.31,1.43,1.79,2.33C221.2,91.37,221.8,91.43,222.33,91.43Zm-2.92-29.19c.42.9,1.13,1.49,1.25,2.69.12,0,.12-.18.3-.12.36.65.9,1.19,1.31,1.85a12.79,12.79,0,0,0-2.09-3.82C219.83,62.72,219.71,62.3,219.41,62.24Zm3,4.78c-.71,0-1.13-1.2-1.67-1.56.06.54.18,1.44.24,2.33.78.6,1.37,1.49,2.09,2.15A11,11,0,0,0,222.45,67Zm.78,15.69a7,7,0,0,1-2.33-2.44,17.35,17.35,0,0,1-.06,1.79,25.4,25.4,0,0,0,2.39,2.68C223.17,84,223.23,83.49,223.23,82.71Zm0,2.63a5.59,5.59,0,0,0-.6-.6c-.6-.65-1.37-1.49-1.79-2,.06.72,0,1.08.06,1.85a17.23,17.23,0,0,0,2.27,2.81C223.05,86.65,223.41,85.94,223.23,85.34Zm0,2.62a16.22,16.22,0,0,1-2.33-2.68,17.8,17.8,0,0,0,0,1.79,15.93,15.93,0,0,0,2.21,2.27A10.71,10.71,0,0,1,223.23,88Zm.18-10.44c-.18,0-.18.06-.3.06A12.69,12.69,0,0,1,221,75.31c0,.6.06,1.25.06,2a18.8,18.8,0,0,0,1.61,1.61,4.58,4.58,0,0,1,.54.54c0,.06-.12.24-.24.24s-.42-.36-.48-.42L221,77.94l-.12,1.91c.18.06.18-.12.24-.06a18.5,18.5,0,0,0,1.61,2.09c.12.18.3.53.54.53C223.29,80.8,223.41,79.25,223.41,77.52Zm-.36,12.41c-.78-.65-1.43-1.49-2.15-2.14a5.65,5.65,0,0,1,.06,1,13.27,13.27,0,0,0,1.49,2c.18.18.36.48.66.48C223.11,90.89,223.05,90.41,223.05,89.93Zm-1.67-17.24a11.11,11.11,0,0,0,1.91,2.2c0-.77,0-1.61-.06-2.38,0,.12-.06.24-.18.24-.66-.72-1.31-1.44-1.91-2.21,0,1.31-.06,2.56-.12,4.12h.24a14.39,14.39,0,0,0,1.37,2c.3.12.36.54.72.6v-2c-.06-.12-.06.06-.18,0A3.43,3.43,0,0,1,221.86,74C221.5,73.58,220.84,72.92,221.38,72.69ZM223,70.36c-.72-.6-1.25-1.32-1.91-1.91a11.4,11.4,0,0,1,.06,1.43l2.15,2.57c0-.66-.06-1.5-.12-2.15C223.11,70.18,223.11,70.42,223,70.36Z"/><path class="a3710ea2-d292-4ee3-b5ec-01a1c7a7949d" d="M225.52,82.24a4.43,4.43,0,0,1,0-1.26,9.59,9.59,0,0,1,.06-1.37,10.16,10.16,0,0,1,2.09-4.42c.18-.06.18.06.24,0a20.84,20.84,0,0,1,8.71-4.29,11,11,0,0,1,3-1c.17-1.07.29-2.86-.6-3.46a2.35,2.35,0,0,0-.78-.3,1.87,1.87,0,0,0-.71-.3,4.36,4.36,0,0,0-2.33.6,4,4,0,0,0-1.85,3.34c0,.36.12.66-.06,1a.34.34,0,0,1,0,.41c-1.79.12-3.05.12-5,.18,0-.06-.06-.18,0-.3A13.46,13.46,0,0,1,227,69.58c-.3,0-.36-.06-.54-.06a6.63,6.63,0,0,0,.72.78c.3.3,1,.6.66,1a2,2,0,0,1-1-.65l-1-1a.2.2,0,0,1,0-.3.29.29,0,0,1-.36-.18,35,35,0,0,1,.24-3.7,6.18,6.18,0,0,1,1.55-3.4,8.21,8.21,0,0,1,1.91-1.85,2.89,2.89,0,0,1,.66-.54c.12-.11.29-.11.41-.17s.3-.24.48-.3a9.71,9.71,0,0,1,1-.36,16.37,16.37,0,0,1,3.82-.6,15.5,15.5,0,0,1,4.71.78,10.57,10.57,0,0,1,1.61.65,4.18,4.18,0,0,1,1.44,1h.35A11.34,11.34,0,0,1,247.48,64a12.45,12.45,0,0,1,1.14,5.55l.24,4.12c.18,2.69-.06,5.19.06,7.76l.18,2.09c.05,2.27.11,4.89.11,7-.11.12-.23.12-.35.3-.18-.06-.24-.18-.36-.24a23.93,23.93,0,0,1-2.93.12c-.71.06-1.37.42-2.09.18-.11-.12.18-.18.06-.3-.47-.66-1.19-1.07-1.67-1.67.06-.48-.36-.66-.41-1.13a6,6,0,0,1-3.29,3.1c-.3.06-.53.24-.77.3-.54.12-1.26-.06-1.67.36-.48-.12-1.38-.06-2.09-.18-3-.48-4.48-2.81-6.51-4.48,0-.12.12-.12.06-.24l-.54-.83c-.06-.06,0-.12-.06-.18a.19.19,0,0,0-.12-.06,7.18,7.18,0,0,1-.83-2.45v-.48C225.64,82.53,225.52,82.41,225.52,82.24Zm.6.41v.54a6,6,0,0,0,1.07,2.57l.3.53a6.28,6.28,0,0,0,1.55,1.2l.9.53a11.42,11.42,0,0,0,3,1.14,9.52,9.52,0,0,0,1.31-.12,6.23,6.23,0,0,0,1.85-.18A9.55,9.55,0,0,0,240,87.25c.18-.18.48-.3.6-.48s.3-.66.36-.66c.48-.11.42.72.59,1s.3,1,.6,1.25a32.8,32.8,0,0,0,4.24.3c-.12-.3-.18-.54,0-.77a25.42,25.42,0,0,1-.12-3c0-.6-.18-1.25-.18-1.85.06-1.67,0-3.52.06-5.19v-2c0-.42.06-.9.06-1.37l-.12-4c-.06-.72,0-1.44-.06-2.15a17.59,17.59,0,0,0-.66-4.3l-.11-.36a5,5,0,0,0-.84-1.37,14.45,14.45,0,0,0-2-1.79c0,.06,0,.06-.06.06a6.23,6.23,0,0,0-3.1-1.13c-.3-.24-.9-.24-1.26-.42-.65-.06-1.37-.18-2-.18a5.34,5.34,0,0,0-1.31.18,6.76,6.76,0,0,0-2.86.54c-.78,0-1.32.65-2,.89l-1.5,1.37-.29.3c-1.56,1.49-2,4-2.09,6.81,1.85.06,3.82.35,5.79.29a6.2,6.2,0,0,1,.18-2.09c.06-.23.23-.29.23-.53a4.77,4.77,0,0,1,2.75-2.39c1.73-.6,3.16.48,4.36,1.19l.53.66a6.24,6.24,0,0,1,.48,3.58c.66.48-.3.78-.59.9-1.86.36-3.59,1.25-5.44,1.79a24.78,24.78,0,0,0-4.23,2c-.66.59-1.44,1.13-2.15,1.67-.12.36-.42.54-.54.89a.45.45,0,0,0-.06.3.51.51,0,0,0-.3.18,7,7,0,0,0-.89,3.52A8.36,8.36,0,0,0,226.12,82.65Zm3.58-11.81c-.3-.3-.9-.66-.78-1.2-.54.06-.95-.12-1.31,0a5.67,5.67,0,0,0,1.13,1.26C228.92,70.84,229.4,71,229.7,70.84Zm3.4-.06a9.19,9.19,0,0,1-1.25-1,7.91,7.91,0,0,0-1.2,0,2.74,2.74,0,0,1,.66,1c-.54.17-.78-.72-1.25-1a1.85,1.85,0,0,0-.84-.06c.3.24.54,1,1,1.14a5.69,5.69,0,0,0,1.62-.18A4.36,4.36,0,0,0,233.1,70.78ZM235,91.13c-.42-.36-.9-1.2-1.43-1.37-.36-.12-.84,0-1.26-.18.18.35.78.59,1,1.07-.12-.06-.12.06-.24.06C232,90,231.25,89,229.82,88.62a.58.58,0,0,0-.54-.24C230.77,89.76,232.38,91.07,235,91.13Zm-1.73-22.8c-.42-.3-.54-.78-.9-1.14-.41,1-.41,2.57.54,2.93A10.51,10.51,0,0,1,233.28,68.33Zm-1,12.83a2.54,2.54,0,0,1-.12-1.19,3.45,3.45,0,0,1,.6-1.55v-.3c1.79-1.85,4.48-2.39,7.22-3.17.12.12.06.48.18.6-.18,1.91.42,4.18-.3,5.79-.59,1.19-1.91,1.61-3.16,2.21a5.25,5.25,0,0,1-3.4-.84c-.06-.06-.06-.18-.18-.24s-.24-.17-.36-.23A4.26,4.26,0,0,1,232.26,81.16Zm2-14.56a3.87,3.87,0,0,0-.77-1,7.43,7.43,0,0,0-.84,1.08,5.3,5.3,0,0,0,.78,1.19A4.87,4.87,0,0,1,234.23,66.6Zm-1.61,13.61a2.58,2.58,0,0,0,1.91,2.5c-.06-.3-.3-.65-.18-1.07C233.52,81.4,233.22,80.68,232.62,80.21Zm.12-.54A9,9,0,0,0,233.93,81c.12.12.24.36.42.3a10.82,10.82,0,0,1,.36-1.49,11.92,11.92,0,0,1-1.43-1.49C233.1,78.89,232.8,79.13,232.74,79.67Zm.84-1.67A4.16,4.16,0,0,0,235,79.43c.06-.24.3-.42.42-.72a4.22,4.22,0,0,0-1.14-1.13A7.41,7.41,0,0,1,233.58,78Zm1.73-12.06c-.36-.24-.3-.77-.66-1-.24.18-.66.24-.83.47a6.85,6.85,0,0,1,.71,1Zm1.49,25a6.9,6.9,0,0,0-1.25-1.07c0-.12.06-.18.06-.24-.48,0-.84.12-1.38.12a17.67,17.67,0,0,0,1.44,1.43A7.87,7.87,0,0,0,236.8,90.89Zm.6-14.09c-.24.18-.54.6-.84.9a7,7,0,0,0-1.79,3.4c-.06.72.06,1.67.6,1.79a3.61,3.61,0,0,0,1.61-.12,8.14,8.14,0,0,0,1-.53,4,4,0,0,0,1.32-1c.71-1.55.24-4.06.3-5.61h-.06A15,15,0,0,0,237.4,76.8Zm-2.57.54a7.43,7.43,0,0,0,.84,1.08c.17-.48.71-.78.77-1.2a3.83,3.83,0,0,1-.77-.3C235.43,77.1,235,77.16,234.83,77.34Zm1.61-11.76c-.06-.36-.6-.59-.42-1a4,4,0,0,0-.89.18l.54,1A2.36,2.36,0,0,1,236.44,65.58Zm2.09,24.83-1.37-1.13a3.92,3.92,0,0,0-1.2.3,13.72,13.72,0,0,1,1.44,1.31Zm.18-24.65a8.42,8.42,0,0,0-2.21-1c.12.3.3.42.42.71C237.52,65.22,238.23,65.64,238.71,65.76ZM236.5,76.68c.12.06.24.3.36.24.24-.3.6-.41.83-.71A4.54,4.54,0,0,0,236.5,76.68ZM241.1,87c-.18.48-1,.84-1.32,1.13l-.12.18c0,.06-.23,0-.35.12a6.55,6.55,0,0,1-1.62.66c.36.48.84.83,1.2,1.25a5,5,0,0,0,.89-.65,3.4,3.4,0,0,0-1.07-.78c.36-.6,1,.18,1.31.48C240.5,88.68,241.4,87.91,241.1,87Zm3.58,3.64a14,14,0,0,0-1.14-1.49,1.87,1.87,0,0,0-.83-.06A4.94,4.94,0,0,0,244.68,90.59Zm3.4-.3c-.48-.3-1-.71-1.43-1.07-.36.12-.6-.12-1,.06a8.5,8.5,0,0,1,.66.89c-.6.12-.78-.65-1.19-1a5.09,5.09,0,0,1-1,0c.3.48.66.89.9,1.37C246.11,90.29,247,90.53,248.08,90.29Zm-2.92-28.11a6.37,6.37,0,0,1,.89,2.27c.84.3,1.13,1.19,1.67,1.79A6.32,6.32,0,0,0,245.16,62.18ZM247.9,67c-.66-.6-1-1.44-1.67-2a14.41,14.41,0,0,1,.18,1.61.45.45,0,0,1,.3.06c.42.71.89,1.37,1.31,2.15-.72-.12-1-1.14-1.49-1.62,0,.42.06.6.06,1.08.24.36.59.72.83,1.07a13.48,13.48,0,0,1,.72,1.26c-.18.06-.24,0-.36,0A13.05,13.05,0,0,0,246.59,69a5,5,0,0,1,0,1c.65.6,1.13,1.61,1.73,2.15A32.68,32.68,0,0,0,247.9,67Zm.6,14.68c0-.78,0-1.43-.06-2.27-.54-.78-1.26-1.43-1.79-2.21-.06.78.06,1.31-.06,2.09.18,0,.18.12.3.12A20.42,20.42,0,0,0,248.5,81.7Zm.06.54c-.84-.66-1.2-1.68-2-2.39.06.59.06,1.37.06,2,.06.06.24.06.24.12.59.71,1.19,1.43,1.73,2.15C248.62,83.37,248.56,82.83,248.56,82.24Zm-.18-8.3a12,12,0,0,1-.06-1.43c-.72-.42-1.08-1.26-1.67-1.91,0,.41.06.71.06,1.13C247.36,72.33,247.72,73.28,248.38,73.94Zm.24,10.44c-.66-.35-1.26-1.43-1.91-2a8.43,8.43,0,0,0,0,1.74c0,.11.12,0,.24,0l1.79,2.32C248.68,86,248.74,85,248.62,84.38Zm-.18-7.58a2.61,2.61,0,0,0-.48-.65c-.36-.48-.89-.9-1.25-1.32.06.78-.06,1.44,0,2.15l.24-.12a10.85,10.85,0,0,0,1.49,1.85C248.26,78,248.56,77.34,248.44,76.8Zm0-.65a13.85,13.85,0,0,0-.06-1.67c-.6-.66-1.08-1.56-1.67-2.09V74.3A16.71,16.71,0,0,1,248.44,76.15Zm.24,10.5c-.78-.48-1.2-1.43-1.91-2a13.36,13.36,0,0,0,0,1.55c.12,0,.12-.17.3-.11.65.65,1.07,1.55,1.67,2.26C248.74,87.91,248.74,87.19,248.68,86.65Zm.12,3.64c-.06-.71,0-.83-.06-1.55-.78-.66-1.14-1.67-1.91-2.33-.12,1,.18,1.61.06,2.45C247.54,89.28,248.14,89.82,248.8,90.29Z"/><path class="a3710ea2-d292-4ee3-b5ec-01a1c7a7949d" d="M273.6,62.9c0,.18-.18.18-.18.3-.18,1.37-.3,3.16-.36,4.47,0,.06-.18.06-.24.12-1.73,2.45-3.34,5-5,7.52-.84,1.25-1.79,2.45-2.57,3.76s-1.85,2.33-2.69,3.58c2.33.06,4.36.06,6.57.12a6.51,6.51,0,0,1,1.61.12c.24.06.42.42.66.6.59.66,1.37,1.07,2,1.67-.18,1.91.06,4.12-.12,5.73.18,0,.18.18.12.42a19.49,19.49,0,0,1-4.24.24,48.59,48.59,0,0,0-5.13-.06c-2.51.06-5.2.06-7.35.06a3.66,3.66,0,0,0-1.79.29c-1.31-1-2.68-2-3.93-3a29.49,29.49,0,0,1,.05-5.55c0-.12-.17-.12-.17-.24.71-1.37,1.67-2.57,2.38-3.88a21,21,0,0,1,1.26-1.91l6.26-9.49a10.48,10.48,0,0,0-1.91-.12,26.47,26.47,0,0,0-3.1.06c-.12,0-.24.06-.36.06s-.48-.18-.71-.18-.3.06-.42.06a4.19,4.19,0,0,1-1.49-1.07c-.48-.36-.84-.78-1.38-1.14.06-.18-.06-.35-.24-.47,0-1.85-.23-3.53-.12-5.55.18-.18.3-.18.36-.42,6.27-.18,12.48,0,19.46.18a18.57,18.57,0,0,0,2.69,3.34A.64.64,0,0,0,273.6,62.9ZM259.27,83.37c-.06-.3-.3-.3-.36-.6a4.17,4.17,0,0,1,.6-1.13c.24-.42.54-.78.72-1.08,1.49-2.2,3.1-4.17,4.53-6.2.48-.72.9-1.5,1.38-2.21a74.47,74.47,0,0,0,4.23-6.45c-.06-.18.12-.18.12-.36s-.18-.06-.12-.23c.42-1.74,0-3.88,0-5.44-.89.12-1.49-.17-2,.12a28.35,28.35,0,0,0-3.16-.12,17.71,17.71,0,0,1-1.79,0c-3.58,0-7.76-.41-11.82-.06a14.32,14.32,0,0,0,0,2.27c0,.54.18,1.08,0,1.44.12,0,.06.11.06.23.06.42.06,1,.12,1.5,3.1-.06,7,.29,10.15.29.24.24.53,0,.65.36s-.47.9-.71,1.26a5.31,5.31,0,0,1-.84,1.19,14.14,14.14,0,0,1-1.67,2.63l-1.61,2.68c-.24.3-.54.6-.78,1-.06.06,0,.18-.06.29a21.27,21.27,0,0,0-1.25,1.8c-.24.35-.54.65-.78.95a4,4,0,0,1-.35.72c-.72,1.13-1.32,2.2-2.09,3.34-.24.42-.78,1-.84,1.31a2.69,2.69,0,0,0-.06.72,29.43,29.43,0,0,0,.06,5.13c4.66-.06,9.19,0,14.15,0a28.52,28.52,0,0,0,4.53,0,17,17,0,0,0,.06-5.25C267.09,83.19,262.91,83.25,259.27,83.37ZM255.09,66.9a13.52,13.52,0,0,1-1.25-1.26c-.42-.06-.84,0-1.25-.06.06,0-.24.06-.3.12a8,8,0,0,0,2,1.49C254.44,66.9,254.85,67,255.09,66.9Zm2.09,24.17c-.83-.6-1.67-1.14-2.5-1.79-.54.06-1.56,0-2.15.06.77.59,1.85,1,2.62,1.55.06.12,0,.12,0,.3C255.81,91.13,256.59,91.13,257.18,91.07ZM268.64,47c.18.54.24,1.31.78,1.61v.3c-.66.24-.66,1-1.2,1.37l-.29.42a10,10,0,0,0-2.39,4.12c-.18,0-.18.12-.36.12.18.18.12.24.12.48a2.81,2.81,0,0,1-1.55.65h-1.49a15.89,15.89,0,0,0-2.39,0c-.18-.77-1-1.07-1.55-1.55v-.3l-.24-.3a9.18,9.18,0,0,0-2.45-4.41A23.63,23.63,0,0,0,253.24,47c-.18-.18.06-.24.06-.48.54,0,1-.41,1.79-.41a15.8,15.8,0,0,0,1.85-.12c.42,0,.6.12.9-.06s.89.59,1,.77a11.09,11.09,0,0,1,.84.84c.42,0,1.25.83,1.49,1.25a29.17,29.17,0,0,1,2.15-2.39,14.6,14.6,0,0,0,3.94.12,8.68,8.68,0,0,1,1.25,0Zm-9.79,6.87c1.44-.18,3,0,4.6-.3a1,1,0,0,0,.3-.66,3.37,3.37,0,0,0,.77-1.61,15.49,15.49,0,0,1,3-4.18,33.26,33.26,0,0,1-4.12-.12,9.85,9.85,0,0,0-1.85,2.09l-.48.18-.48-.18c-.71-.89-1.79-1.37-2.44-2.27-.18,0-.12-.12-.3-.18a20.62,20.62,0,0,0-3.82.18c1.25,1.61,3,2.93,3.94,5A16.94,16.94,0,0,0,258.85,53.83Zm-1.49,13.42c-.18-.29-.48-.41-.66-.65s-.59-.84-.89-.9-.78.06-1.31-.06c.35.66,1.13,1,1.61,1.67A8.72,8.72,0,0,1,257.36,67.25Zm2,23.82c-.54-.42-1.19-1-1.67-1.31a1.88,1.88,0,0,0-.66-.48,4.55,4.55,0,0,0-1.55.06,23.25,23.25,0,0,1,2.39,1.79A6.08,6.08,0,0,0,259.33,91.07Zm0-23.88a9.81,9.81,0,0,1-1.43-1.37c-.54.06-1.08-.18-1.37-.06.41.48,1,1,1.31,1.32-.06,0,0,.11,0,.17A13.41,13.41,0,0,0,259.33,67.19Zm2,23.88a22.13,22.13,0,0,1-2.21-1.55c0-.12-.06-.12,0-.24a10.44,10.44,0,0,0-1.37,0c.78.54,1.43,1.25,2.21,1.85A9.66,9.66,0,0,0,261.36,91.07Zm-.42-23.7c.36-.59.6-.89,1-1.43h-1.79c.18.42.53.66.65,1.14-.36.11-.47-.24-.65-.42a4.2,4.2,0,0,1-.48-.6c-.12-.06,0-.12-.06-.18a5.09,5.09,0,0,0-1,0c.36.48,1,.78,1.2,1.43A7.14,7.14,0,0,1,260.94,67.37Zm-.06-11.87a.27.27,0,0,1,.3,0c-.78-.48-1.19-1.56-2.09-1.14a6.54,6.54,0,0,0,1.37,1.14Zm-.65,26.08c-.24.42-.48.77-.72,1.19.66-.12,1.31,0,1.91-.12C261.06,82.3,260.64,81.94,260.23,81.58Zm3.52,9.49c-.66-.54-1.38-1-2-1.43a.38.38,0,0,1,0-.36c-.78,0-1.49-.06-2.09,0,.36.3.83.59,1.25,1s.9.78,1.32.84A13.25,13.25,0,0,0,263.75,91.07Zm-1.08-9.31c-.53-.48-1-1-1.55-1.43a11.16,11.16,0,0,0-.66,1,9.12,9.12,0,0,1,1.32,1.25c0,.06-.06.06-.06.18h.42C262.2,82.24,262.49,82.06,262.67,81.76Zm.48-26.32A3.62,3.62,0,0,1,262,54.3h-.66a1.87,1.87,0,0,0-.66.06c.3.42,1.26.6,1,1.14a1.87,1.87,0,0,0,.66-.06Zm.42,25.06A10.86,10.86,0,0,1,262,79c-.18.36-.48.66-.66,1a14.91,14.91,0,0,1,1.55,1.31C263.09,81,263.45,80.86,263.57,80.5ZM265.9,91c-.72-.48-1.38-1.08-2.21-1.55a.36.36,0,0,0-.06-.24,14.4,14.4,0,0,1-1.61,0c.53.48,1.25.89,1.91,1.37.18.12.41.42.59.48C264.94,91.19,265.36,90.89,265.9,91Zm-.42-13.19A5.63,5.63,0,0,0,264,76.39a8.91,8.91,0,0,0-.78,1.13c.42.6,1.07.9,1.37,1.55-.12.06-.06.18-.18.18-.53-.42-1-.89-1.55-1.37-.12.3-.42.48-.53.77a18.22,18.22,0,0,0,1.55,1.62A12.21,12.21,0,0,0,265.48,77.82Zm-.84-22.56-1.07-1.2c-.3.18-.78-.06-1,.12.18.6,1.14.6,1,1.26A1.91,1.91,0,0,0,264.64,55.26Zm1-2.15c-.42-.18-.6-.54-.9-1-.18.66-.48,1-.65,1.68.29.29.53.71.95.89C265.18,54.24,265.36,53.65,265.6,53.11Zm.89,23.34a16.22,16.22,0,0,0-1.43-1.56,12.85,12.85,0,0,0-.78,1.14,11.59,11.59,0,0,1,1.56,1.43A5.46,5.46,0,0,1,266.49,76.45ZM268,91c-.17-.18-.41-.24-.59-.42s-.3-.24-.42-.36-.18-.06-.24-.12c-.71-.47-1.13-1.13-2.39-.83A24.91,24.91,0,0,1,266.49,91,6.69,6.69,0,0,0,268,91Zm-1.61-39.39c-.47-.18-.59-.6-1-.9a2.09,2.09,0,0,0-.42.9c.42.3.42.83.9,1C266.08,52.21,266.25,52,266.43,51.62Zm.78,23.63c-.48-.48-.84-1.07-1.37-1.61a6,6,0,0,0-.48.84A12.51,12.51,0,0,0,266.79,76,3.23,3.23,0,0,0,267.21,75.25Zm.24-24.71-1.26-1.13a2,2,0,0,0-.41.83,5.57,5.57,0,0,0,1,1.08Zm.83,23.16c-.47-.54-.89-1.13-1.37-1.67-.18.48-.6.72-.77,1.19.47.6.89,1.14,1.37,1.67A7.59,7.59,0,0,0,268.28,73.7ZM268,49.17l-.3-.36a5.66,5.66,0,0,1-.6-.6,7.49,7.49,0,0,0-.54.72c.3.42.9.84,1.14,1.31a1,1,0,0,0,.3-.41C268.28,49.65,268.4,49.35,268,49.17Zm2.08,41.9a12.22,12.22,0,0,1-2.62-1.79,2.29,2.29,0,0,0-.9.06,13.92,13.92,0,0,1,2.09,1.73A11.32,11.32,0,0,0,270.07,91.07Zm-1-18.44a19.65,19.65,0,0,0-1.37-1.73,2.81,2.81,0,0,1-.48.65c.42.66,1,1.14,1.31,1.79A3.41,3.41,0,0,0,269.06,72.63Zm-.12-23.94c-.3-.42-.42-.83-.66-1.13l-.18-.42c-.17.24-.41.3-.59.72a.72.72,0,0,1,.3.3l.23.35c.18.24.24.48.54.66C268.64,48.93,268.88,48.93,268.94,48.69ZM270,71a8.67,8.67,0,0,0-1.37-1.55c-.12.3-.48.66-.65,1a9.22,9.22,0,0,1,1.25,1.73A3.92,3.92,0,0,0,270,71Zm.48,18.21a12.22,12.22,0,0,1-2.09.12,1.59,1.59,0,0,0,1.14.71,9.6,9.6,0,0,0,1.13,1c.78.06,1.49-.12,2.15-.12,0-.12.06-.36,0-.42,0,.12-.12.12-.24.18A13.15,13.15,0,0,1,270.49,89.22Zm.72-19.88c-.42-.59-1-1.13-1.43-1.67a7.22,7.22,0,0,1-.72,1.37l1.25,1.62C270.61,70.24,270.85,69.76,271.21,69.34Zm1.19-1.79a5.28,5.28,0,0,1-1.55-1.67c0,.3-.78,1.2-.78,1.37a3,3,0,0,1,.36.42c.36.42.72.84,1,1.26C271.69,68.39,272.16,68.09,272.4,67.55ZM270.85,89c.66.48,1.37.89,2,1.37a7.87,7.87,0,0,0,0-1.19A19.63,19.63,0,0,0,271,87.67,4.66,4.66,0,0,1,270.85,89ZM273,62.78a21,21,0,0,1-2-2.45c.06.3,0,.6.06.9v.59c.12.12.36.06.48.12a4.48,4.48,0,0,1,.65.84,10.23,10.23,0,0,0,.72.83C272.94,63.26,272.94,63.14,273,62.78Zm-2,21.07a5.68,5.68,0,0,1,0,1,9.58,9.58,0,0,1,1.91,1.85,5.34,5.34,0,0,0-.06-1.43c-.42-.3-.84-.66-1.31-1C271.39,84.15,271.09,83.79,271,83.85Zm1.67-17.55c0,.18-.18.06-.24.12-.48-.42-.89-1.08-1.37-1.55v.53a4.19,4.19,0,0,0,1.55,1.68A2.93,2.93,0,0,0,272.64,66.3Zm.24,20.77c-.66-.48-1.13-1.07-1.85-1.55A12.25,12.25,0,0,1,271,87c.54.54,1.25.95,1.79,1.49A11.89,11.89,0,0,1,272.88,87.07Zm-.06-22.8a25.36,25.36,0,0,0-1.67-1.91v1.79a24.87,24.87,0,0,0,1.55,2C272.7,65.52,272.82,65.05,272.82,64.27Z"/><path class="a3710ea2-d292-4ee3-b5ec-01a1c7a7949d" d="M274.94,73.34c0-3,.06-6,0-8.77-.06-.84.12-1.67.12-2.45s0-1.73-.06-2.62a5.59,5.59,0,0,1,2.44-.54,23.34,23.34,0,0,1,4.12.24,1.48,1.48,0,0,0,.54.24c.66.83,1.19,1.85,2,2.68.12.12-.06.18-.06.3.36.24.48.66.72,1-.06.06-.24.12-.24.18,0,3.11.12,6.69.24,9.61.06,1.32,0,2.75.12,4a2,2,0,0,0,.35.84c0,.18-.18.12-.18.18.3,1.55.42,3.34,1.38,4.17.24.06.42.06.53.24.3,0,.48-.24.84-.3A5.62,5.62,0,0,0,289,80.92a8.44,8.44,0,0,0,.48-1.31,33.49,33.49,0,0,1-.12-3.64c0-.24-.12-.54-.12-.78-.06-1.55.06-3.16-.06-4.77-.06-2.45.3-5.31.24-7.88a26.18,26.18,0,0,0-.12-3.1,2.83,2.83,0,0,1,1-.24,40.51,40.51,0,0,1,5.37.06.16.16,0,0,1,.18.18c.12-.06.12-.24.3-.12s.06.18.17.12a33.69,33.69,0,0,0,2.51,3.76c-.12.29.06.71.06,1.07a8.33,8.33,0,0,1,0,1.73c-.06,1.61-.06,3.34,0,5,.06,2.15-.06,4.42-.06,6.63,0,1.73-.12,4.36,0,6.39a16.62,16.62,0,0,1,0,1.73,34.13,34.13,0,0,0,.06,3.46,5.14,5.14,0,0,1,0,1.67c-.12.18-.3.12-.48.3a24.2,24.2,0,0,1-3.82.36c-.41,0-.95-.06-.95-.48a17.7,17.7,0,0,1-1.79-1.08c-.24-.23-.36-.53-.66-.65-.24.06-.36.24-.54.36-.71.35-1.49.59-2.26.89a10.94,10.94,0,0,1-4.78,1,7.5,7.5,0,0,1-4.24-1.67,19.72,19.72,0,0,1-2.68-3.47,3.68,3.68,0,0,0-.66-1.25,8.22,8.22,0,0,1-.65-2.21c-.06-.36-.24-.71-.3-1.07-.06-.54-.06-1.14-.12-1.73a17.84,17.84,0,0,1-.18-1.85C274.76,76.74,274.94,75,274.94,73.34Zm.48,3.94a27.24,27.24,0,0,0,.35,4.36,13.38,13.38,0,0,0,.24,1.73l.36.89a6,6,0,0,0,1.19,2,8.57,8.57,0,0,0,.9,1.08,1.5,1.5,0,0,0,.42.24c.12.12.24.3.36.41a4.8,4.8,0,0,0,1.25.48,13.29,13.29,0,0,0,4.41.54,9.76,9.76,0,0,0,4.36-1.55,3.92,3.92,0,0,1,.72-.66c.18-.18.42-.71.65-.71.48,0,.3,1.07.6,1.31a5.33,5.33,0,0,0,.48,1.55,28.64,28.64,0,0,0,3.94-.06c-.06-.18.24-.3.3-.48s-.12-.36-.12-.47c-.06-.48.18-1,.12-1.56a4.69,4.69,0,0,1,.12-1.85,13.72,13.72,0,0,1-.24-2.26c0-.12.12-.3.12-.42s-.06-.36-.06-.54.06-.36.06-.48c.06-1.37-.12-2.68-.06-4,.12-5.79.06-11.1,0-16.95a33.35,33.35,0,0,0-5.91-.12c-.06.84,0,1.91,0,2.93.06,1.55-.12,3.58-.18,5.31-.06,1.19,0,2.33,0,3.52,0,1-.06,1.91-.06,2.93,0,1.85.24,3.88.24,5.73-.06.12-.18.12-.24.23-.54,2.27-2.75,3.35-5.55,2.93-.42-.18-.66-.48-1.13-.48a4,4,0,0,1-1.38-2.45c-.12-1.31.12-2.8-.06-4.23-.06-.78-.18-1.67-.18-2.45s.12-1.49.18-2.33,0-1.73,0-2.62c.06-2.69.06-6.21-.06-9a14.93,14.93,0,0,0-6,.06c.12,1.38,0,3,0,4.06C275.47,68.69,275.36,73.1,275.42,77.28Zm6.14,13.25c-.42-.66-1.07-1.13-1.49-1.79a3.26,3.26,0,0,1-1.73-.89A6.56,6.56,0,0,0,281.56,90.53Zm2,.48c-.42-.6-1.07-1.08-1.49-1.67-.54-.12-.9-.24-1.43-.36.47.66,1.07,1.19,1.55,1.79C282.7,90.83,283.11,91,283.59,91Zm-1.43-13.73a.45.45,0,0,1,.3.06,22.38,22.38,0,0,0,2.33,2c-.12-.54-.12-1-.24-1.55-.42-.36-.78-.78-1.26-1.14-.12-.23-.41-.41-.59-.59s-.48-.42-.54-.72c.24-.24.48.12.6.24a15.05,15.05,0,0,0,1.13,1.13c.18.12.3.42.54.36,0-.42-.06-.83-.06-1.49-.72-1-1.67-1.79-2.33-2.86A37.4,37.4,0,0,0,282.16,77.28ZM282,63.73c.12,0,.12.06.12.12.06,1.37.12,2.51.06,3.82.06.06.18.06.24.12.36.54.83,1.2,1.25,1.73.12.12.36.42.48.36-.06-.78-.12-1.13-.12-1.91-.12.06-.12.06-.18,0a11,11,0,0,1-1.25-2c-.18-.24-.54-.66-.18-.83.6.83,1,1.79,1.61,2.5.06-.89-.06-1.61,0-2.21-.66-.83-1.25-1.79-1.91-2.62C282.16,63.14,282.28,63.55,282,63.73Zm0,8.72c.06.06.12-.06.24,0A21.59,21.59,0,0,0,284.37,75a16.57,16.57,0,0,0-.12-2,5.18,5.18,0,0,0-.78-.77c-.53-.6-.89-1.08-1.31-1.61C282.16,71.13,282.1,71.85,282,72.45Zm.12-10.21c.72.84,1.19,1.85,1.91,2.69.12-.36-.12-1.32,0-1.61-.24-.36-.42-.78-.66-1.08,0-.06.06-.12.06-.18-.47-.54-.89-1.31-1.37-1.79C282.1,61.11,282.16,61.58,282.16,62.24Zm2,8.24a14.9,14.9,0,0,1-2-2.39c-.06.78-.06,1.73-.06,2.21.12,0,.18,0,.18.06a11.19,11.19,0,0,0,1.91,2.15C284.25,71.91,284.19,71.31,284.19,70.48Zm-2,7.1c.06.9,0,1.43.12,2.21.06-.06.06-.18.12-.18.48.36.89.83,1.43,1.25s1.13.72,1.67,1.14a8.54,8.54,0,0,1-.6-1.85A35.47,35.47,0,0,0,282.16,77.58Zm3.58,5.07a26.13,26.13,0,0,1-3.46-2.8c-.12,2.56,2.27,3.4,4.12,2.86a.74.74,0,0,1-.48-.24A.19.19,0,0,1,285.74,82.65ZM285.32,91c-.47-.54-1.19-.84-1.43-1.61a4.36,4.36,0,0,1-1.25,0,21.09,21.09,0,0,0,1.61,1.67A3.13,3.13,0,0,0,285.32,91Zm3.82-1.14c-.47-.29-.77-.77-1.25-1.13a5.9,5.9,0,0,1-1.19.42c.29.42.77.71,1.07,1.13-.06,0-.06.12-.12.12-.72-.18-1-.71-1.49-1.13a15.24,15.24,0,0,1-1.79.18,10.38,10.38,0,0,0,.83,1,2.89,2.89,0,0,0,.66.54c.24.06.6-.18.84-.24C287.53,90.47,288.37,90.17,289.14,89.87Zm1.2-.47a4.28,4.28,0,0,0-1-1.26c0-.06.06-.18,0-.18-.36.24-.65.42-.95.6.35.42.77.78,1.19,1.2A3.1,3.1,0,0,1,290.34,89.4Zm.71-.48c-.24-.6-.36-1.37-.65-1.91a2.82,2.82,0,0,1-.9.78,3.59,3.59,0,0,1,1.13,1.43C290.81,89.1,291,89,291.05,88.92ZM295.89,91c-.42-.36-.84-.78-1.2-1.14-.12-.17-.18-.35-.35-.41s-.78.06-1.14,0h-1.07a9.44,9.44,0,0,0,1.79,1.19c.24.12.42.36.59.42A5.44,5.44,0,0,0,295.89,91Zm.06-1.73c-.18.18-.66,0-1,.18a9.56,9.56,0,0,0,.78.77c.18.24.42.66.71.78a4.81,4.81,0,0,0,1.56-.18C297.26,90.29,296.6,89.82,296,89.28Zm.41-.36c0,.06.3.3.42.42a14.93,14.93,0,0,1,1.49,1.19c.06.12-.17.18,0,.3.06-.06.12-.06.18-.12V86.06c-.06-.12-.18,0-.18-.12a13.34,13.34,0,0,0-1.79-2,6.22,6.22,0,0,1-.06,1.49c.12,0,.12-.06.24-.06.42.83,1.26,1.37,1.67,2.21-.06.12-.12.18-.17.18a15.72,15.72,0,0,1-1.74-2.15,12.94,12.94,0,0,0,.12,2.15h.24c.3.47.78,1,1.14,1.49.12.06.41.36.12.54a13.77,13.77,0,0,1-1.62-1.62,1.63,1.63,0,0,1,0,.54C296.42,88.74,296.31,88.86,296.36,88.92Zm.06-5.55c.24.06.3.3.42.48.42.47,1,.83,1.32,1.31.11.12.11.3.29.3.06-.6,0-1.49,0-2.09-.12-.06-.12,0-.18-.06-.59-.72-1.25-1.31-1.85-2.09C296.42,81.7,296.36,82.65,296.42,83.37Zm0-20.83a6.1,6.1,0,0,1,1.14,1.55,7.16,7.16,0,0,0,.89,1.19c.06.12.06.24-.12.42-.83-.59-1.19-1.67-1.85-2.5-.06,1,.06,1.43,0,2.44.12,0,.06-.12.24-.06.54.72,1.14,1.44,1.73,2.09a35.08,35.08,0,0,0,0-4.35,13.06,13.06,0,0,1-2-2.93A12.84,12.84,0,0,1,296.42,62.54Zm0,14.32c.06.06.18-.06.3-.06a24.43,24.43,0,0,0,1.73,1.79,13.34,13.34,0,0,0,0-1.55c-.59-.71-1.31-1.37-2-2.09A17.79,17.79,0,0,1,296.42,76.86Zm0,.24a14,14,0,0,1,.06,1.61c.3.78,1.5,1.26,1.79,2,0,.06.12.3-.06.42-.23-.06-.35-.36-.47-.6a6.27,6.27,0,0,1-1.26-1.31,8.18,8.18,0,0,1-.06,1.73c.06.06.18-.06.3,0a13.43,13.43,0,0,0,1.73,1.85c-.29-1.25.36-3-.24-3.94C297.8,78.36,296.84,77.58,296.42,77.1ZM298.51,75c-.71-.65-1.37-1.31-2-2a12.33,12.33,0,0,0,0,1.5.47.47,0,0,1,.24.24c.42.47.9,1,1.32,1.43.17.12.35.36.47.36A12.47,12.47,0,0,0,298.51,75Zm-2-6.86a.51.51,0,0,1,.36-.12c.3,1.07,1.14,1.61,1.61,2.51,0-.84-.06-1.73,0-2.39h-.18c-.53-.78-1.25-1.37-1.79-2.15C296.48,66.66,296.54,67.37,296.48,68.09Zm0,.3v2c.06.06.18-.06.24-.06a22.6,22.6,0,0,0,1.73,2.09,14.36,14.36,0,0,0,0-1.61c-.06-.06-.06,0-.18,0A26,26,0,0,1,296.48,68.39Zm0,4.24c.12.06.06-.06.18-.06a14.7,14.7,0,0,0,1.85,1.85c0-.54-.06-1.08-.06-1.61-.12,0-.12,0-.24,0-.53-.72-1.25-1.32-1.73-2.09Z"/></svg>