<svg xmlns="http://www.w3.org/2000/svg" viewBox="0 0 342.04 234.05"><defs><style>.a3c9e75b-278a-4cab-8214-bbe80fd1bbbd{fill:#f8f9f3;}.a2e335d8-8a1c-4db6-8f49-c915b57fbcab{fill:#fdc14f;}.a47928b3-a501-4b4c-9a1e-71670d9f2225{fill:#f3744b;}.b3c4d160-90e2-485b-af2a-3770899114da{fill:#f03c57;}.a53967cd-248a-4cd3-a782-ffab5ea53c4e{fill:#bfbbbc;}.a99a625b-980d-4ecf-b811-1a4cfb0cf00e{fill:#6ebe8b;}.a4b54241-47df-46a5-a8ed-7042d61fd97c{fill:#878986;}.a6ad5f45-1d6c-44b9-a1e1-8723386a6c1f{fill:#452c70;}</style></defs><title>Asset 7</title><g id="a39a8089-7a60-4107-b9ef-36cd37ca0438" data-name="Layer 2"><g id="a8df78e0-4bd7-4222-b15f-7a33fcaaba22" data-name="Layer 3"><path class="a3c9e75b-278a-4cab-8214-bbe80fd1bbbd" d="M171.18,231.5H146.1L48.85,116.8Q97.47,59.92,146.1,3.06h25.08Z"/><polygon class="a2e335d8-8a1c-4db6-8f49-c915b57fbcab" points="16.21 102.32 5.54 102.32 5.54 88.23 27.55 88.23 16.21 102.32"/><polygon class="a2e335d8-8a1c-4db6-8f49-c915b57fbcab" points="27.55 87.51 5.54 87.51 5.54 73.43 38.89 73.43 27.55 87.51"/><polygon class="a47928b3-a501-4b4c-9a1e-71670d9f2225" points="39.17 72.71 5.83 72.71 5.83 59.19 50.51 59.19 39.17 72.71"/><polygon class="a47928b3-a501-4b4c-9a1e-71670d9f2225" points="50.51 58.75 5.83 58.75 5.83 45.23 61.85 45.23 50.51 58.75"/><polygon class="a47928b3-a501-4b4c-9a1e-71670d9f2225" points="64.68 43.98 5.83 43.98 5.83 30.46 76.02 30.46 64.68 43.98"/><polygon class="b3c4d160-90e2-485b-af2a-3770899114da" points="76.02 29.66 5.83 29.66 5.83 16.14 87.36 16.14 76.02 29.66"/><polygon class="b3c4d160-90e2-485b-af2a-3770899114da" points="87.36 15.02 5.83 15.02 5.83 6.34 98.7 6.34 87.36 15.02"/><polygon class="a2e335d8-8a1c-4db6-8f49-c915b57fbcab" points="15.91 132.13 5.25 132.13 5.25 146.22 27.25 146.22 15.91 132.13"/><polygon class="a2e335d8-8a1c-4db6-8f49-c915b57fbcab" points="27.25 146.93 5.25 146.93 5.25 161.02 38.59 161.02 27.25 146.93"/><polygon class="a47928b3-a501-4b4c-9a1e-71670d9f2225" points="38.88 161.74 5.53 161.74 5.53 175.26 50.21 175.26 38.88 161.74"/><polygon class="a47928b3-a501-4b4c-9a1e-71670d9f2225" points="50.21 175.7 5.53 175.7 5.53 189.22 61.55 189.22 50.21 175.7"/><polygon class="a47928b3-a501-4b4c-9a1e-71670d9f2225" points="64.39 190.47 5.53 190.47 5.53 203.99 75.73 203.99 64.39 190.47"/><polygon class="b3c4d160-90e2-485b-af2a-3770899114da" points="75.73 204.78 5.53 204.78 5.53 218.31 87.06 218.31 75.73 204.78"/><polygon class="b3c4d160-90e2-485b-af2a-3770899114da" points="87.06 219.43 5.53 219.43 5.53 228.11 98.4 228.11 87.06 219.43"/><polygon class="a53967cd-248a-4cd3-a782-ffab5ea53c4e" points="105.55 5.93 105.55 12.09 109.5 12.58 114.65 11.7 122.38 7.69 122.77 6.34 105.55 5.93"/><polygon class="a99a625b-980d-4ecf-b811-1a4cfb0cf00e" points="105.55 12.97 105.55 23.07 109.17 23.83 114.16 23.07 119.7 20.41 124.53 18.4 131.09 19.04 136.07 8.37 127.17 6.34 120.81 9.25 116.8 11.7 112.6 13.17 109.5 13.36 105.55 12.97"/><polygon class="a4b54241-47df-46a5-a8ed-7042d61fd97c" points="126.32 18.89 120.81 20.11 116.8 22.56 112.6 24.02 109.5 24.22 105.55 23.83 105.55 33.93 109.17 34.69 115.01 34.21 128.2 19.93 126.32 18.89"/><polygon class="a99a625b-980d-4ecf-b811-1a4cfb0cf00e" points="105.55 35.08 113.18 35.37 106.32 44.57 105.55 35.08"/><polygon class="a99a625b-980d-4ecf-b811-1a4cfb0cf00e" points="105.72 191.8 109.5 192.71 116.87 201.51 114.58 202.95 110.41 203.99 105.45 203.28 105.72 191.8"/><polygon class="a4b54241-47df-46a5-a8ed-7042d61fd97c" points="105.45 204.38 105.45 214.32 109.11 215.21 114.52 214.32 122.8 209.8 117.78 202.62 111.85 204.78 105.45 204.38"/><polygon class="a99a625b-980d-4ecf-b811-1a4cfb0cf00e" points="105.45 215.21 109.5 215.67 114.01 214.95 117.72 213.12 123.85 210.19 135.08 222.84 132.52 223.17 126.98 221.01 122.08 221.6 116.87 224.35 112.04 226.35 104.74 226.35 105.45 215.21"/><polygon class="a53967cd-248a-4cd3-a782-ffab5ea53c4e" points="114.01 227.14 117.19 224.8 121.7 222.43 125.15 221.67 130.43 222.84 137.02 225.97 133.82 228.11 114.01 227.14"/><polygon class="a53967cd-248a-4cd3-a782-ffab5ea53c4e" points="98.4 3.06 101.97 6.34 101.97 54.67 48.85 118.83 101.97 182.46 101.97 228.11 4 115.58 98.4 3.06"/><rect class="a2e335d8-8a1c-4db6-8f49-c915b57fbcab" x="146.45" y="3.06" width="24.73" height="225.05"/><path class="a6ad5f45-1d6c-44b9-a1e1-8723386a6c1f" d="M0,234.05V0H174.87V234.05ZM7.69,7.69v7H49.48a53,53,0,0,1,12.71-7Zm0,21.4H33.1a91,91,0,0,1,13-12.37H7.69Zm23.4,2.34H7.69v12H22.4l1.34-2.34c1.34-1.68,3.34,0,2.34,1.33l-.67,1H62.19l10.7-12H34.77l-3.68,4c-.33.34-.66.67-1,.67l-1-.33a1.26,1.26,0,0,1,0-2ZM7.69,45.81V58.18h7a71.24,71.24,0,0,1,6.35-12.37Zm0,14.37V72.55H9c1.34-4.34,3-8.35,4.68-12.37Zm0,41.13h5l10.69-12H7.69v12Zm0,43.13v.33H23.4l-10.69-12h-5Zm0,17.05v12.37h6c-1.67-4-3.34-8-4.68-12.37Zm0,14.38v12.37H60.52l-10.7-12.37H17.72l2.68,5.68a1.22,1.22,0,0,1-.67,1.67l-.67.34c-.67,0-1-.34-1.34-1l-3-6.69Zm20.73,18.72a51.9,51.9,0,0,0,6.35,8H72.89l-10.7-12H7.69v12h23.4c-1.67-2-3.34-4-5-6.36C25.08,194.93,27.08,193.25,28.42,194.59ZM33.1,205H7.69v12.37H85.26L74.56,205H36.78l1,1a1.57,1.57,0,0,1-.33,2,1.53,1.53,0,0,1-1.67,0Zm53.83,14.37H7.69v7h54.5a76.51,76.51,0,0,1-7.36-3.68,1.35,1.35,0,1,1,1.34-2.34,52.75,52.75,0,0,0,14,6H93Zm12.71-36.11L44.8,119a3.06,3.06,0,0,1,0-4l54.84-64.2V9.7L8,117,99.64,224.35ZM25.08,86.93l10.7-12.37H11.37a74,74,0,0,0-3,12.37Zm10.7,72.56-10.7-12.38H8.36a74.35,74.35,0,0,0,3,12.38Zm1.67-86.94,10.7-12.37H16.72c-1.67,4-3.35,8-4.68,12.37Zm10.7,101.31-10.7-12.37H12c1.33,4.35,3,8.36,4.68,12.37ZM49.82,58.18l10.7-12.37H24.07a71.24,71.24,0,0,0-6.35,12.37ZM74.56,29.09l10.7-12.37H51.16A100.58,100.58,0,0,0,36.78,29.09Zm75.23,197.27h17.39V7.69H149.79V87.27c0,4-6.69,4-6.69,0V9.7L51.82,117,143.1,224V120.37H116.35c-4.34,0-4.34-6.69,0-6.69h30.1l1,.33a2.67,2.67,0,0,1,2.34,3ZM86.93,14.71l6-7H70.21a72.7,72.7,0,0,0-15.71,7Zm19.39-7V11a12.36,12.36,0,0,0,4,.67,11.79,11.79,0,0,0,7-2.34A8.3,8.3,0,0,1,120,7.69Zm21.74,10,5-6L132.4,11a11.54,11.54,0,0,0-13.71,0c-3,2-5.68,3-8.35,3a12.36,12.36,0,0,1-4-.67v8.7a7.14,7.14,0,0,0,4,1,12.3,12.3,0,0,0,7-2.67,13.3,13.3,0,0,1,8-3Zm-1.68,2h-1a10.9,10.9,0,0,0-6.69,2.34c-3,2-5.68,3-8.35,3a12.63,12.63,0,0,1-4-.67v9a12.54,12.54,0,0,0,8,0Zm-20.06,23.4,5.69-7-1.67.33a12.67,12.67,0,0,1-4-.66Zm9,158.48-6.69-7.69-2.34-.67v9a12.36,12.36,0,0,0,4,.67A8,8,0,0,0,115.35,201.61Zm6.35,7.69-5-6a10.32,10.32,0,0,1-6.35,2,12.36,12.36,0,0,1-4-.67v8.7a7.23,7.23,0,0,0,4,1,12.25,12.25,0,0,0,7-2.68A30.29,30.29,0,0,1,121.7,209.3Zm11.37,13.38L123.38,211a20,20,0,0,0-4.69,2.34c-3,2-5.68,3-8.35,3a12.67,12.67,0,0,1-4-.66v9a12.36,12.36,0,0,0,4,.67,11.79,11.79,0,0,0,7-2.34,13.37,13.37,0,0,1,8-3A12.63,12.63,0,0,1,133.07,222.68Zm2,3.68a8.49,8.49,0,0,1-2.68-1.68,11.54,11.54,0,0,0-13.71,0,8.36,8.36,0,0,1-2.67,1.68Z"/><polygon class="a3c9e75b-278a-4cab-8214-bbe80fd1bbbd" points="170.09 193.55 170.09 229.57 223.01 229.57 287.21 4.82 222.53 4.82 170.09 193.55"/><polygon class="b3c4d160-90e2-485b-af2a-3770899114da" points="171.4 4.82 222.53 4.82 172.44 182.42 171.4 4.82"/><polygon class="b3c4d160-90e2-485b-af2a-3770899114da" points="227.02 229.57 254.12 126.75 285.54 229.57 227.02 229.57"/><polygon class="a2e335d8-8a1c-4db6-8f49-c915b57fbcab" points="294.23 32.34 262.24 141.3 254.61 122.91 287.21 11.03 294.23 32.34"/><polygon class="a99a625b-980d-4ecf-b811-1a4cfb0cf00e" points="301.67 53.16 269.68 162.12 262.05 143.73 294.65 31.86 301.67 53.16"/><polygon class="a2e335d8-8a1c-4db6-8f49-c915b57fbcab" points="308.91 81.56 276.92 190.51 269.29 172.13 300.75 60.25 308.91 81.56"/><polygon class="a99a625b-980d-4ecf-b811-1a4cfb0cf00e" points="315.57 106.26 285.57 209.83 275.67 198.81 309.12 82.4 315.57 106.26"/><polygon class="a2e335d8-8a1c-4db6-8f49-c915b57fbcab" points="322.82 128.99 295.93 223.21 282.91 221.54 316.36 105.13 322.82 128.99"/><polygon class="a99a625b-980d-4ecf-b811-1a4cfb0cf00e" points="329.22 158.71 308.07 230.17 295.05 228.5 322.76 134.85 329.22 158.71"/><polygon class="a2e335d8-8a1c-4db6-8f49-c915b57fbcab" points="336.24 184.4 322.76 230.17 309.74 228.5 329.79 160.54 336.24 184.4"/><polygon class="a99a625b-980d-4ecf-b811-1a4cfb0cf00e" points="324.99 228.58 336.24 228.58 336.24 187.05 324.99 228.58"/><polygon class="b3c4d160-90e2-485b-af2a-3770899114da" points="287.21 4.82 336.24 179.05 338.35 4.82 287.21 4.82"/><path class="a6ad5f45-1d6c-44b9-a1e1-8723386a6c1f" d="M167.18,234.05V0H342V234.05Zm7.69-41.8v34.11h47.47L281.86,7.69H225.35Zm0-24.74L218.67,7.69h-43.8Zm105.32,58.85-25.41-94-25.75,94Zm-20.73-101h6L290.89,32.1l-4.35-15.72L258.12,120Zm38.45-67.54-5-18.39L264.47,143.1l2,8h6Zm2,7.36L271.49,168.85l2,8h6l25.41-93.28Zm7,25.74L278.51,194.59l2,8h5.69L312,109.33Zm7,25.75L285.54,220.34V221h10L319,135.08ZM334.69,13.37A20,20,0,0,1,330,11c-4.34-3.67-9.36-3.67-13.7,0-5.69,4-11,4-16.72,0-2.34-1.67-4.35-2.67-6.69-2.67h-1.67l2.34,9a11.62,11.62,0,0,1,7.36,3c5,3,9,3,14,0,5.35-4,11-4,16.38,0a10.47,10.47,0,0,0,3.35,1.67Zm0,11A20.8,20.8,0,0,1,330,22.07c-4.34-3.68-9.36-3.68-13.7,0-5.69,4-11,4-16.72,0-2-1.67-3.68-2.34-5.35-2.34l2.67,9.36a29.2,29.2,0,0,1,4,2.34c5,3.68,9,3.68,14,0,5.35-4,11-4,16.38,0a12.74,12.74,0,0,0,3.35,2Zm0,11.37A20.8,20.8,0,0,1,330,33.44c-4.34-3.68-9.36-3.68-13.7,0-5.69,3.67-11,3.67-16.72,0l-2-1.68,2.68,10.7.67.34c5,3.67,9,3.67,14,0,5.35-4,11-4,16.38,0a12.39,12.39,0,0,0,3.35,2Zm-8.7,125-5-18.39-23.07,83.93h10ZM317.3,7.69H298.58L300.92,9c5,3.68,9,3.68,14,0Zm17.39,39.12A12.32,12.32,0,0,1,330,44.47a11.52,11.52,0,0,0-13.7,0c-3,2-5.69,3-8.36,3a15.29,15.29,0,0,1-6.69-1.67l3,10a12.13,12.13,0,0,0,3.68.67,11.79,11.79,0,0,0,7-2.34c5.35-4,11-4,16.38,0a10.47,10.47,0,0,0,3.35,1.67Zm0,11.37A20.8,20.8,0,0,1,330,55.84c-4.34-3.68-9.36-3.68-13.7,0-3,2-5.69,3-8.36,3a9.09,9.09,0,0,1-3-.34l2.34,9.36h.67a12.3,12.3,0,0,0,7-2.67c5.35-3.68,11-3.68,16.38,0a12.39,12.39,0,0,0,3.35,2Zm0,11.36A20,20,0,0,1,330,67.2c-4.34-3.67-9.36-3.67-13.7,0-3,1.68-5.69,2.68-8.36,2.68l2.34,9A12.37,12.37,0,0,0,315,76.57c5.35-4,11-4,16.38,0a12.39,12.39,0,0,0,3.35,2Zm0,11A12.32,12.32,0,0,1,330,78.24a11.52,11.52,0,0,0-13.7,0A11.44,11.44,0,0,1,311,80.91l2.34,8,1.67-1c5.35-4,11-4,16.38,0a10.32,10.32,0,0,0,3.35,1.68ZM312,226.36h10l11-39.79-5-18.73ZM334.69,92A20.8,20.8,0,0,1,330,89.61c-4.34-3.68-9.36-3.68-13.7,0l-2.68,1.67,2,7.35A12.73,12.73,0,0,1,323,96.29,15.48,15.48,0,0,1,331.34,99a12.39,12.39,0,0,0,3.35,2Zm0,11.36A20,20,0,0,1,330,101c-4.34-3.67-9.36-3.34-13.7-.33l2,7.69a11.77,11.77,0,0,1,4.68-1,13.48,13.48,0,0,1,8.36,3,12.39,12.39,0,0,0,3.35,2Zm0,11.37A13.82,13.82,0,0,1,330,112a11.79,11.79,0,0,0-7-2.34,12.29,12.29,0,0,0-4,.67l2.34,8.35H323a13.54,13.54,0,0,1,8.36,3,10.32,10.32,0,0,0,3.35,1.68Zm0,11a12.47,12.47,0,0,1-4.69-2.34,11.72,11.72,0,0,0-7-2.34h-1l2.34,8.69a16,16,0,0,1,7,3,10.47,10.47,0,0,0,3.35,1.67Zm0,11a12.18,12.18,0,0,1-4.69-2.34,11.27,11.27,0,0,0-5-2.34l2.67,9.69c1,.34,2,1.34,3.68,2.34a10.32,10.32,0,0,0,3.35,1.68Zm0,58.51-8.7,31.1h8.7Zm0-47.14a20.8,20.8,0,0,1-4.69-2.34l-1.67-1.34,3,10.7a12.39,12.39,0,0,0,3.35,2Zm0-140.43H329L331.34,9a12.39,12.39,0,0,0,3.35,2Zm0,159.82v-8a10,10,0,0,1-2.68-1.34Z"/><path class="a6ad5f45-1d6c-44b9-a1e1-8723386a6c1f" d="M181.89,83.92c-.34,1-1.34,1-1.67,0-.67-.33-.67-1,0-1.67l6.68-7c1.34-1.34,3.35.67,2,1.67Z"/><path class="a6ad5f45-1d6c-44b9-a1e1-8723386a6c1f" d="M187.24,100.31a1.41,1.41,0,1,1,2,2l-7,7a2.09,2.09,0,0,1-2,0,1.25,1.25,0,0,1,0-2Z"/><path class="a6ad5f45-1d6c-44b9-a1e1-8723386a6c1f" d="M184.56,54.17a1,1,0,0,1-2,0c-.67-.67-.67-1.34,0-1.68l7-7c1.34-1.34,3.34.34,2,1.67Z"/><path class="a6ad5f45-1d6c-44b9-a1e1-8723386a6c1f" d="M187.91,23.74a1.55,1.55,0,0,1-1.68,0,1.27,1.27,0,0,1,0-2l7-7c1.34-1.34,3,.67,1.68,2Z"/><path class="a6ad5f45-1d6c-44b9-a1e1-8723386a6c1f" d="M200.61,58.18a1.42,1.42,0,0,1,2,2l-7,7a2.11,2.11,0,0,1-2,0,1.25,1.25,0,0,1,0-2Z"/><path class="a6ad5f45-1d6c-44b9-a1e1-8723386a6c1f" d="M202,35.78q-1.5,1.5-2,0c-.67-.34-.67-1,0-1.68l7-7c1.34-1.33,3,.67,1.67,2Z"/><path class="a6ad5f45-1d6c-44b9-a1e1-8723386a6c1f" d="M238.06,223c-3.35,3.35-8.36-1.67-5-5S241.4,219.67,238.06,223Z"/><path class="a6ad5f45-1d6c-44b9-a1e1-8723386a6c1f" d="M248.09,204.29a3.72,3.72,0,0,1-3.68,3.68,3.55,3.55,0,0,1-2.34-6C244.08,199.94,248.09,201.28,248.09,204.29Z"/><path class="a6ad5f45-1d6c-44b9-a1e1-8723386a6c1f" d="M246.75,189.58c-3.34-3.35,1.34-8,5-5C255.11,187.57,249.76,192.59,246.75,189.58Z"/><path class="a6ad5f45-1d6c-44b9-a1e1-8723386a6c1f" d="M251.77,159.15c3.34-3.34,8.36,1.67,5,5S248.42,162.49,251.77,159.15Z"/><path class="a6ad5f45-1d6c-44b9-a1e1-8723386a6c1f" d="M257.12,219.33c-3.35,3.35-8-1.33-5-5C255.11,211,260.13,216.32,257.12,219.33Z"/><path class="a6ad5f45-1d6c-44b9-a1e1-8723386a6c1f" d="M256.78,176.87a3.55,3.55,0,0,1,6-2.34c2,2,.67,6-2.34,6A4.27,4.27,0,0,1,256.78,176.87Z"/><path class="a6ad5f45-1d6c-44b9-a1e1-8723386a6c1f" d="M261.46,204.29c-3.34-3.35,1.34-8,5-5C269.82,202.28,264.47,207.3,261.46,204.29Z"/><path class="a6ad5f45-1d6c-44b9-a1e1-8723386a6c1f" d="M271.83,223c-3.35,3.35-8.36-1.67-5-5S275.17,219.67,271.83,223Z"/></g></g></svg>