<svg xmlns="http://www.w3.org/2000/svg" viewBox="0 0 342.1 234.05"><defs><style>.b27c703e-65c9-4542-8ada-011aff890fd9{fill:#6ebe8b;}.a826395e-8a0a-40f2-828a-3c7aae141dcf{fill:#f03c57;}.e735d9c8-cb87-4887-8fb3-1e97dae50ecd{fill:#f3744b;}.b8758c1a-27a5-4036-8edd-201455ed5281{fill:#fdc14f;}.aeda4391-8f90-4afe-8dda-97c88e02ea03{fill:#f8f9f3;}.a7237fec-2e73-48de-abc9-4c613fd5b4db{fill:#452c70;}</style></defs><title>Asset 10</title><g id="ab26b681-3118-44b8-9be4-5042f2d9de13" data-name="Layer 2"><g id="a5744a7f-bdc1-4164-a134-34a4bb0a3866" data-name="Layer 3"><path class="b27c703e-65c9-4542-8ada-011aff890fd9" d="M10.89,147.19A92.22,92.22,0,0,0,28.5,166.88a94.21,94.21,0,0,0,22.3,13.83,97.19,97.19,0,0,0,28.05,7.57,89.76,89.76,0,0,0,39-3.4,87.61,87.61,0,0,0,49-39.78,99.87,99.87,0,0,1-7.17,32.74c-3.85,9.48-11.48,27.59-30.79,40.3a74.74,74.74,0,0,1-35.48,12.14c-29,2.1-49.62-14-55.69-18.92-4.34-3.51-33.09-26.73-29.35-54.78A39,39,0,0,1,10.89,147.19Z"/><rect class="a826395e-8a0a-40f2-828a-3c7aae141dcf" x="1.37" y="5.34" width="171.91" height="10.24"/><rect class="a826395e-8a0a-40f2-828a-3c7aae141dcf" x="1.37" y="16.15" width="171.91" height="13.65"/><rect class="a826395e-8a0a-40f2-828a-3c7aae141dcf" x="1.37" y="30.65" width="171.91" height="13.65"/><rect class="a826395e-8a0a-40f2-828a-3c7aae141dcf" x="1.37" y="45.15" width="171.91" height="13.65"/><rect class="e735d9c8-cb87-4887-8fb3-1e97dae50ecd" x="1.37" y="59.55" width="171.91" height="13.65"/><rect class="e735d9c8-cb87-4887-8fb3-1e97dae50ecd" x="1.37" y="73.94" width="171.91" height="13.65"/><rect class="e735d9c8-cb87-4887-8fb3-1e97dae50ecd" x="1.37" y="88.33" width="171.91" height="13.65"/><rect class="e735d9c8-cb87-4887-8fb3-1e97dae50ecd" x="1.37" y="102.73" width="171.91" height="13.65"/><rect class="b8758c1a-27a5-4036-8edd-201455ed5281" x="1.37" y="117.39" width="171.91" height="13.65"/><rect class="b8758c1a-27a5-4036-8edd-201455ed5281" x="1.37" y="131.93" width="171.91" height="13.65"/><polygon class="b8758c1a-27a5-4036-8edd-201455ed5281" points="154.52 159.91 20.13 159.91 11.63 146.26 165.86 146.26 154.52 159.91"/><polygon class="b8758c1a-27a5-4036-8edd-201455ed5281" points="134.04 174.5 41.49 174.5 24.3 160.85 153.19 160.85 134.04 174.5"/><rect class="b8758c1a-27a5-4036-8edd-201455ed5281" x="47.36" y="175.17" width="10.22" height="5.41"/><rect class="b8758c1a-27a5-4036-8edd-201455ed5281" x="115.24" y="175.17" width="14.25" height="7.11"/><path class="aeda4391-8f90-4afe-8dda-97c88e02ea03" d="M86.93,213.32a1.34,1.34,0,0,1,0,2.67h-10a1.34,1.34,0,0,1,0-2.67Z"/><path class="aeda4391-8f90-4afe-8dda-97c88e02ea03" d="M92.75,195.93a1.34,1.34,0,0,1,0,2.67H82.5a1.34,1.34,0,0,1,0-2.67Z"/><path class="aeda4391-8f90-4afe-8dda-97c88e02ea03" d="M110.45,205.63a1.34,1.34,0,0,1,0,2.67H100.19a1.34,1.34,0,0,1,0-2.67Z"/><path class="aeda4391-8f90-4afe-8dda-97c88e02ea03" d="M123.69,185.93a1.34,1.34,0,0,1,0,2.67H113.43a1.34,1.34,0,0,1,0-2.67Z"/><path class="aeda4391-8f90-4afe-8dda-97c88e02ea03" d="M133.34,209.67a1.34,1.34,0,0,1,0,2.67H123.08a1.34,1.34,0,0,1,0-2.67Z"/><path class="aeda4391-8f90-4afe-8dda-97c88e02ea03" d="M110.59,221.69a1.34,1.34,0,0,1,0,2.67H100.33a1.34,1.34,0,0,1,0-2.67Z"/><path class="aeda4391-8f90-4afe-8dda-97c88e02ea03" d="M62.2,217a1.34,1.34,0,0,1,0,2.68H51.94a1.34,1.34,0,0,1,0-2.68Z"/><path class="aeda4391-8f90-4afe-8dda-97c88e02ea03" d="M67.32,202a1.34,1.34,0,0,1,0,2.67H57.06a1.34,1.34,0,0,1,0-2.67Z"/><path class="aeda4391-8f90-4afe-8dda-97c88e02ea03" d="M41.49,202a1.34,1.34,0,0,1,0,2.67H31.23a1.34,1.34,0,0,1,0-2.67Z"/><path class="aeda4391-8f90-4afe-8dda-97c88e02ea03" d="M57.39,184a1.34,1.34,0,0,1,0,2.67H47.14a1.34,1.34,0,0,1,0-2.67Z"/><path class="aeda4391-8f90-4afe-8dda-97c88e02ea03" d="M30.13,184a1.34,1.34,0,0,1,0,2.67H19.87a1.34,1.34,0,0,1,0-2.67Z"/><path class="aeda4391-8f90-4afe-8dda-97c88e02ea03" d="M30.13,168.77a1.34,1.34,0,0,1,0,2.68H19.87a1.34,1.34,0,0,1,0-2.68Z"/><path class="aeda4391-8f90-4afe-8dda-97c88e02ea03" d="M151.25,173.83a1.34,1.34,0,0,1,0,2.67H141a1.34,1.34,0,0,1,0-2.67Z"/><path class="aeda4391-8f90-4afe-8dda-97c88e02ea03" d="M151.25,190a1.34,1.34,0,0,1,0,2.68H141a1.34,1.34,0,0,1,0-2.68Z"/><path class="a7237fec-2e73-48de-abc9-4c613fd5b4db" d="M0,234.05V0H174.87V234.05Zm7.69-130.4c-.33,4-.67,8-.67,12.37H31.09c.34-4.35.67-8.36,1-12.37ZM7,118A74.64,74.64,0,0,0,8.69,130.4H32.1c-.34-4-.67-8-1-12.37Zm25.41-16.72c.67-4,1.67-8,2.68-12H9.7c-.67,4-1.34,8-1.68,12ZM9.36,132.74a63.38,63.38,0,0,0,5.35,12h20.4c-1-4-2-8-2.68-12Zm4-58.18c-1.33,4-2.34,8-3.34,12.37H35.78c1.67-4.35,3.34-8.36,5.35-12.37ZM49.82,183.89a81,81,0,0,1-20.73-12.37l-3.34-2.67a80.19,80.19,0,0,1-14.38-16,128.41,128.41,0,0,0,12.37,31.09l1.67,3a87.28,87.28,0,0,0,11,15l2.68,2.67A73.7,73.7,0,0,0,54.17,217l4.68,2.68A58.46,58.46,0,0,0,87.6,227,62.87,62.87,0,0,0,105,224.35l6.35-2.34a66.53,66.53,0,0,0,16-9.7l3.34-2.67a91.82,91.82,0,0,0,15.05-17l2-2.68a136.33,136.33,0,0,0,15.05-34.77,70.51,70.51,0,0,1-13,15l-4.35,3.68-4,2.68a89.5,89.5,0,0,1-18.72,9.36l-9,2.67a99.59,99.59,0,0,1-56.84-1.67Zm1-123.71H18.72c-1.67,4-3.34,8-4.68,12.37H42.13a47.41,47.41,0,0,1,5.35-8ZM16.05,147.11a63.52,63.52,0,0,0,9.36,12.38H41.13c-2-4-3.68-8-5.35-12.38ZM26.41,45.81a105.93,105.93,0,0,0-6.68,12.37h33.1a46.35,46.35,0,0,1,17-12.37Zm1,115.68a90.27,90.27,0,0,0,16.71,12.37h6.69l-3.34-4.34a47.51,47.51,0,0,1-5.35-8ZM37.11,31.43a115.5,115.5,0,0,0-9.36,12H76.23a50.38,50.38,0,0,1,22.4,0h48.48a112.86,112.86,0,0,0-9.36-12Zm98.64-2.34a97.55,97.55,0,0,0-15-12.37H54.5a73.7,73.7,0,0,0-15,12.37ZM52.83,175.87H48.15a38.44,38.44,0,0,0,8.35,4ZM116.69,14.71A61.1,61.1,0,0,0,87.6,7a61.39,61.39,0,0,0-29.42,7.69Zm5.68,43.47h32.77a106.73,106.73,0,0,0-6.35-12.37H105a47.38,47.38,0,0,1,15,10ZM112,130.4h54.5c.67-3.35,1-6.69,1.33-10H112Zm49.48,14.37a46.9,46.9,0,0,0,4.35-12H112v5q15.54.51,21.06,7Zm-39.12,31.1a43.59,43.59,0,0,1-5.68,5.35c4.35-1.67,8.69-3.35,12.7-5.35Zm2-115.69a80.52,80.52,0,0,1,8.36,12.37h28.08c-1.33-4.34-3-8.35-4.68-12.37Zm9,113.68a85.94,85.94,0,0,0,16.05-12.37H132.74a80,80,0,0,1-8.36,12.37Zm31.42-86.93c-1-4.35-2-8.36-3-12.37H134.07a79.49,79.49,0,0,1,5,12.37Zm-30.76,72.56h17.39a51.74,51.74,0,0,0,8.69-12.38H134.74c1.68,3.35,1.68,7-.33,11.37Z"/><polygon class="aeda4391-8f90-4afe-8dda-97c88e02ea03" points="170.15 193.55 170.15 229.57 223.07 229.57 287.27 4.82 222.59 4.82 170.15 193.55"/><polygon class="a826395e-8a0a-40f2-828a-3c7aae141dcf" points="171.46 4.82 222.59 4.82 172.5 182.42 171.46 4.82"/><polygon class="a826395e-8a0a-40f2-828a-3c7aae141dcf" points="227.08 229.57 254.18 126.75 285.6 229.57 227.08 229.57"/><polygon class="b8758c1a-27a5-4036-8edd-201455ed5281" points="294.29 32.34 262.3 141.3 254.67 122.91 287.27 11.03 294.29 32.34"/><polygon class="b27c703e-65c9-4542-8ada-011aff890fd9" points="301.73 53.16 269.74 162.12 262.11 143.73 294.71 31.86 301.73 53.16"/><polygon class="b8758c1a-27a5-4036-8edd-201455ed5281" points="308.97 81.56 276.98 190.51 269.35 172.13 300.81 60.25 308.97 81.56"/><polygon class="b27c703e-65c9-4542-8ada-011aff890fd9" points="315.63 106.26 285.63 209.83 275.73 198.81 309.18 82.4 315.63 106.26"/><polygon class="b8758c1a-27a5-4036-8edd-201455ed5281" points="322.88 128.99 295.99 223.21 282.97 221.54 316.42 105.13 322.88 128.99"/><polygon class="b27c703e-65c9-4542-8ada-011aff890fd9" points="329.28 158.71 308.13 230.17 295.11 228.5 322.82 134.85 329.28 158.71"/><polygon class="b8758c1a-27a5-4036-8edd-201455ed5281" points="336.3 184.4 322.82 230.17 309.8 228.5 329.85 160.54 336.3 184.4"/><polygon class="b27c703e-65c9-4542-8ada-011aff890fd9" points="325.05 228.58 336.3 228.58 336.3 187.05 325.05 228.58"/><polygon class="a826395e-8a0a-40f2-828a-3c7aae141dcf" points="287.27 4.82 336.3 179.05 338.41 4.82 287.27 4.82"/><path class="a7237fec-2e73-48de-abc9-4c613fd5b4db" d="M167.24,234.05V0H342.1V234.05Zm7.69-41.8v34.11H222.4L281.92,7.69H225.41Zm0-24.74L218.73,7.69h-43.8Zm105.32,58.85-25.42-94-25.74,94Zm-20.73-101h6L291,32.1,286.6,16.38,258.18,120ZM298,57.84l-5-18.39L264.53,143.1l2,8h6Zm2,7.36L271.55,168.85l2,8h6L305,83.59Zm7,25.74L278.57,194.59l2,8h5.68L312,109.33Zm7,25.75L285.6,220.34V221h10L319,135.08ZM334.75,13.37A20,20,0,0,1,330.06,11c-4.34-3.67-9.36-3.67-13.7,0-5.69,4-11,4-16.72,0-2.34-1.67-4.35-2.67-6.69-2.67h-1.67l2.34,9a11.64,11.64,0,0,1,7.36,3c5,3,9,3,14,0,5.35-4,11-4,16.38,0a10.47,10.47,0,0,0,3.35,1.67Zm0,11a20.8,20.8,0,0,1-4.69-2.34c-4.34-3.68-9.36-3.68-13.7,0-5.69,4-11,4-16.72,0-2-1.67-3.68-2.34-5.35-2.34L297,29.09a29.2,29.2,0,0,1,4,2.34c5,3.68,9,3.68,14,0,5.35-4,11-4,16.38,0a12.74,12.74,0,0,0,3.35,2Zm0,11.37a20.8,20.8,0,0,1-4.69-2.34c-4.34-3.68-9.36-3.68-13.7,0-5.69,3.67-11,3.67-16.72,0l-2-1.68,2.68,10.7.67.34c5,3.67,9,3.67,14,0,5.35-4,11-4,16.38,0a12.39,12.39,0,0,0,3.35,2Zm-8.7,125-5-18.39L298,226.36h10ZM317.36,7.69H298.63L301,9c5,3.68,9,3.68,14,0Zm17.39,39.12a12.32,12.32,0,0,1-4.69-2.34,11.52,11.52,0,0,0-13.7,0c-3,2-5.69,3-8.36,3a15.29,15.29,0,0,1-6.69-1.67l3,10a12.13,12.13,0,0,0,3.68.67,11.79,11.79,0,0,0,7-2.34c5.35-4,11-4,16.38,0a10.47,10.47,0,0,0,3.35,1.67Zm0,11.37a20.8,20.8,0,0,1-4.69-2.34c-4.34-3.68-9.36-3.68-13.7,0-3,2-5.69,3-8.36,3a9.09,9.09,0,0,1-3-.34l2.34,9.36H308a12.3,12.3,0,0,0,7-2.67c5.35-3.68,11-3.68,16.38,0a12.39,12.39,0,0,0,3.35,2Zm0,11.36a20,20,0,0,1-4.69-2.34c-4.34-3.67-9.36-3.67-13.7,0-3,1.68-5.69,2.68-8.36,2.68l2.34,9A12.44,12.44,0,0,0,315,76.57c5.35-4,11-4,16.38,0a12.39,12.39,0,0,0,3.35,2Zm0,11a12.32,12.32,0,0,1-4.69-2.34,11.52,11.52,0,0,0-13.7,0A11.44,11.44,0,0,1,311,80.91l2.34,8,1.67-1c5.35-4,11-4,16.38,0a10.32,10.32,0,0,0,3.35,1.68ZM312,226.36h10l11-39.79-5-18.73ZM334.75,92a20.8,20.8,0,0,1-4.69-2.34c-4.34-3.68-9.36-3.68-13.7,0l-2.68,1.67,2,7.35A12.73,12.73,0,0,1,323,96.29,15.48,15.48,0,0,1,331.4,99a12.39,12.39,0,0,0,3.35,2Zm0,11.36a20,20,0,0,1-4.69-2.34c-4.34-3.67-9.36-3.34-13.7-.33l2,7.69a11.77,11.77,0,0,1,4.68-1,13.48,13.48,0,0,1,8.36,3,12.39,12.39,0,0,0,3.35,2Zm0,11.37a13.82,13.82,0,0,1-4.69-2.67,11.79,11.79,0,0,0-7-2.34,12.29,12.29,0,0,0-4,.67l2.34,8.35H323a13.54,13.54,0,0,1,8.36,3,10.32,10.32,0,0,0,3.35,1.68Zm0,11a12.47,12.47,0,0,1-4.69-2.34,11.72,11.72,0,0,0-7-2.34h-1l2.34,8.69a16,16,0,0,1,7,3,10.47,10.47,0,0,0,3.35,1.67Zm0,11a12.18,12.18,0,0,1-4.69-2.34,11.27,11.27,0,0,0-5-2.34l2.67,9.69c1,.34,2,1.34,3.68,2.34a10.32,10.32,0,0,0,3.35,1.68Zm0,58.51-8.7,31.1h8.7Zm0-47.14a20.8,20.8,0,0,1-4.69-2.34l-1.67-1.34,3,10.7a12.39,12.39,0,0,0,3.35,2Zm0-140.43h-5.69L331.4,9a12.39,12.39,0,0,0,3.35,2Zm0,159.82v-8a10,10,0,0,1-2.68-1.34Z"/><path class="a7237fec-2e73-48de-abc9-4c613fd5b4db" d="M182,83.92c-.34,1-1.34,1-1.67,0-.67-.33-.67-1,0-1.67l6.68-7c1.34-1.34,3.35.67,2,1.67Z"/><path class="a7237fec-2e73-48de-abc9-4c613fd5b4db" d="M187.3,100.31a1.41,1.41,0,1,1,2,2l-7,7a2.09,2.09,0,0,1-2,0,1.25,1.25,0,0,1,0-2Z"/><path class="a7237fec-2e73-48de-abc9-4c613fd5b4db" d="M184.62,54.17a1,1,0,0,1-2,0c-.67-.67-.67-1.34,0-1.68l7-7c1.33-1.34,3.34.34,2,1.67Z"/><path class="a7237fec-2e73-48de-abc9-4c613fd5b4db" d="M188,23.74a1.53,1.53,0,0,1-1.67,0,1.26,1.26,0,0,1,0-2l7-7c1.34-1.34,3,.67,1.68,2Z"/><path class="a7237fec-2e73-48de-abc9-4c613fd5b4db" d="M200.67,58.18a1.42,1.42,0,0,1,2,2l-7,7a2.11,2.11,0,0,1-2,0,1.25,1.25,0,0,1,0-2Z"/><path class="a7237fec-2e73-48de-abc9-4c613fd5b4db" d="M202,35.78c-1,1-1.67,1-2,0-.67-.34-.67-1,0-1.68l7-7c1.34-1.33,3,.67,1.67,2Z"/><path class="a7237fec-2e73-48de-abc9-4c613fd5b4db" d="M238.12,223c-3.35,3.35-8.36-1.67-5-5S241.46,219.67,238.12,223Z"/><path class="a7237fec-2e73-48de-abc9-4c613fd5b4db" d="M248.15,204.29a3.72,3.72,0,0,1-3.68,3.68,3.55,3.55,0,0,1-2.34-6C244.14,199.94,248.15,201.28,248.15,204.29Z"/><path class="a7237fec-2e73-48de-abc9-4c613fd5b4db" d="M246.81,189.58c-3.34-3.35,1.34-8,5-5C255.17,187.57,249.82,192.59,246.81,189.58Z"/><path class="a7237fec-2e73-48de-abc9-4c613fd5b4db" d="M251.83,159.15c3.34-3.34,8.35,1.67,5,5S248.48,162.49,251.83,159.15Z"/><path class="a7237fec-2e73-48de-abc9-4c613fd5b4db" d="M257.18,219.33c-3.35,3.35-8-1.33-5-5C255.17,211,260.18,216.32,257.18,219.33Z"/><path class="a7237fec-2e73-48de-abc9-4c613fd5b4db" d="M256.84,176.87a3.55,3.55,0,0,1,6-2.34c2,2,.67,6-2.34,6A4.27,4.27,0,0,1,256.84,176.87Z"/><path class="a7237fec-2e73-48de-abc9-4c613fd5b4db" d="M261.52,204.29c-3.34-3.35,1.34-8,5-5C269.88,202.28,264.53,207.3,261.52,204.29Z"/><path class="a7237fec-2e73-48de-abc9-4c613fd5b4db" d="M271.89,223c-3.35,3.35-8.36-1.67-5-5S275.23,219.67,271.89,223Z"/></g></g></svg>