<svg xmlns="http://www.w3.org/2000/svg" viewBox="0 0 342.1 234.05"><defs><style>.e40a4102-60d2-48bc-a5c0-623ca67c70b8{fill:#fdc14f;}.f83ffd35-4650-4955-b140-39c2f08d34fd{fill:#6ebe8b;}.b771ef0d-6cef-454a-9894-eba1e2e86935{fill:#f03c57;}.adf6608c-de37-4a7f-85cb-7677f313e8b0{fill:#f2744b;}.fe6915bd-262e-41bd-9c77-81dfb7a4b073{fill:#452c70;}.a56aa2f0-6025-4c17-b4f7-94cecf687aaa{fill:#f8f9f3;}.e0d78a56-281e-47b3-980c-3a784f24c75a{fill:#f3744b;}</style></defs><title>Asset 11</title><g id="adea5a20-4956-4273-b9f8-7caf73303cea" data-name="Layer 2"><g id="f5de1d7e-16c6-4ff5-81a9-cec40085e3f6" data-name="Layer 3"><rect class="e40a4102-60d2-48bc-a5c0-623ca67c70b8" x="171.77" y="3.38" width="167.09" height="193.3"/><path class="f83ffd35-4650-4955-b140-39c2f08d34fd" d="M267.72,36.65a3.05,3.05,0,0,0,0-.52c0-4-6.08-7.19-13.59-7.19s-13.59,3.22-13.59,7.19a3.68,3.68,0,0,0,.06.66c-12.2,1.77-20.72,5.76-20.72,10.4,0,6.28,15.56,11.37,34.76,11.37s34.77-5.09,34.77-11.37C289.46,42.42,280.47,38.34,267.72,36.65Z"/><rect class="f83ffd35-4650-4955-b140-39c2f08d34fd" x="171.77" y="197.08" width="168.65" height="31.7"/><path class="b771ef0d-6cef-454a-9894-eba1e2e86935" d="M195.45,199.23,245.14,58.56l19.76.58,49.5,139.31a147.8,147.8,0,0,1-71,12.72A145.75,145.75,0,0,1,195.45,199.23Z"/><ellipse class="adf6608c-de37-4a7f-85cb-7677f313e8b0" cx="255.08" cy="204" rx="60.7" ry="13.27"/><path class="fe6915bd-262e-41bd-9c77-81dfb7a4b073" d="M167.24,234.05V0H342.1V234.05Zm7.69-170.19a23.22,23.22,0,0,1,2.67-9c3.68-6.68,3.68-13,0-19.72a23.22,23.22,0,0,1-2.67-9Zm0,41.13a23.22,23.22,0,0,1,2.67-9c3.68-6.69,3.68-13,0-19.73a23.22,23.22,0,0,1-2.67-9Zm0,41.12a23.22,23.22,0,0,1,2.67-9c3.68-6.68,3.68-13,0-19.39a26.51,26.51,0,0,1-2.67-9.36Zm0,41.13a23.22,23.22,0,0,1,2.67-9c3.68-6.69,3.68-13,0-19.39a27.09,27.09,0,0,1-2.67-9Zm159.82,39.12V199.27h-2v.34a3.65,3.65,0,0,1-3.68,3.34,3.59,3.59,0,0,1-3.34-3.34v-.34H317l1.34,3.68v1c0,2.68-2,5-5.68,7.36l.33,1a3.45,3.45,0,0,1-3.68,3.35,3.49,3.49,0,0,1-3-1.68q-3.51,1-8,2a188.69,188.69,0,0,1-27.42,3.68,3.21,3.21,0,0,1,2,3c0,4.68-7,4.68-7,0a3.25,3.25,0,0,1,1.34-3l-12.37.33c-7.69.34-16.39-.33-26.08-1,0,4.68-7,4.68-7,0l.33-1q-6-1-11-2Q191,211.47,191,204l.34-1,1.34-3.68H174.93v27.09h69.21c1-3,5.68-3,6.68,0H296c-2-.34-3-1.34-3-3.35,0-4.68,7-4.68,7,0,0,2-1,3-3,3.35ZM190.31,193.59a20.24,20.24,0,0,1-.34-4.68,21.62,21.62,0,0,1,3-10.7c3.68-6.69,3.68-13,0-19.39-4-7.69-4-14.72,0-21.74,3.68-6.68,3.68-13,0-19.72A20.54,20.54,0,0,1,193,96c3.68-6.69,3.68-13,0-19.73a20.54,20.54,0,0,1,0-21.4c3.68-6.68,3.68-13,0-19.72a21.62,21.62,0,0,1-3-10.7V7.69h-7.69a26.74,26.74,0,0,1-2.67,7,18.41,18.41,0,0,0,0,19.39,21.15,21.15,0,0,1,0,21.74c-3.68,6.68-3.68,13,0,19.39a21.13,21.13,0,0,1,0,21.73c-3.68,6.69-3.68,13,0,19.39a21.15,21.15,0,0,1,0,21.74c-3.68,6.68-3.68,13,0,19.72a20.54,20.54,0,0,1,0,21.4,22.3,22.3,0,0,0-2.68,9.7,20,20,0,0,0,.67,4.68ZM184,223.35c-3.34,3.34-8-1.34-5-5C182,215,187,220.34,184,223.35Zm5-11.71c-3,3-8.36-2-4.68-5A3.43,3.43,0,1,1,189,211.64Zm5.35-18,13-36.45a22.34,22.34,0,0,1-2-9.36,21.14,21.14,0,0,1,2.68-10.7c3.34-6.68,3.67-13,0-19.72A22.12,22.12,0,0,1,208,96c3.67-6.69,3.67-13,0-19.73a22.12,22.12,0,0,1,0-21.4c3.67-6.68,3.34-13,0-19.72a22.37,22.37,0,0,1-2.68-11V7.69h-8a24.9,24.9,0,0,1-2.34,7,18.41,18.41,0,0,0,0,19.39,22.84,22.84,0,0,1,0,21.74c-3.68,6.68-3.68,13,0,19.39A22.82,22.82,0,0,1,195,97c-3.68,6.69-3.35,13,0,19.39,4,7.69,3.67,14.72,0,21.74-3.68,6.68-3.68,13,0,19.72a22.17,22.17,0,0,1,0,21.4,22.43,22.43,0,0,0-2.68,9.7,20.24,20.24,0,0,0,.34,4.68ZM313,204.29l-1.34-4c-3.67-2-9.36-3.68-17.05-5.35a133.11,133.11,0,0,0-22.06-2.68c-1.34,0-1.34-2.34.33-2.34,16.38,1.34,30.43,3.68,37.45,7.36L262.19,60.18l-7.35.34-7.69-.34L199,197.27a27.28,27.28,0,0,1,6.35-2.34c1.34-.34,2,1.67.67,2a31.82,31.82,0,0,0-8,3.35l-1.34,4c1,2.34,6.35,4.35,15.38,6.35,11.7,2.34,26.08,3.68,42.8,3.68a220.5,220.5,0,0,0,42.46-3.68C306.66,208.64,312,206.63,313,204.29ZM206,221.67c-3.34,3.35-8.36-1.67-5-5S209.36,218.33,206,221.67ZM220.4,24.07V7.69h-7.69a26.81,26.81,0,0,1-2.68,7c-3.68,6.69-3.68,13,0,19.39a21.15,21.15,0,0,1,0,21.74c-3.68,6.68-3.68,13,0,19.39,4,7.69,4,14.71,0,21.73-3.68,6.69-3.68,13,0,19.73a20.54,20.54,0,0,1,0,21.4,22.34,22.34,0,0,0-2.67,9.69,18.15,18.15,0,0,0,1,6.36L222.07,115a22,22,0,0,1-1.67-8.36,21.62,21.62,0,0,1,3-10.7c3.67-6.69,3.67-13,0-19.39-4-7.69-4-14.72,0-21.74l.33-.33c-3.68-2-5.35-4.35-5.35-7q0-4.51,7-8a22.81,22.81,0,0,0-2-4.34,21.62,21.62,0,0,1-3-10.7Zm41.79,165.51a1,1,0,1,1,0,2h-7.35a243.37,243.37,0,0,0-36.78,2.68.89.89,0,0,1-1-1c-.33-.67,0-1,.67-1a248.28,248.28,0,0,1,37.12-2.67ZM236.78,39.45q-15,3-15,8c0,1.67,1.33,3,4.34,4.34,1.67-3.67,5-7,10.7-9.36a1.23,1.23,0,0,1-.33-1Zm-1-15.71v-16h-8a24.27,24.27,0,0,1-2.34,7c-3.67,6.69-3.67,13,0,19.39a18.07,18.07,0,0,1,2,4.68,40.84,40.84,0,0,1,10.7-3l.33-.67a25.3,25.3,0,0,1-2.67-10.7Zm1,49.15a26,26,0,0,1-1-7.36,21.45,21.45,0,0,1,1-6.68,67.11,67.11,0,0,1-11.37-3.35v.34c-3.67,6.68-3.67,13,0,19.39a22.77,22.77,0,0,1,0,21.73,22.38,22.38,0,0,0-2.67,9.7,25.33,25.33,0,0,0,.67,5ZM253.5,57.17V46.47c-5.69,0-10-.66-13.71-2.34-6,2.34-9.7,5.35-11.37,9Q237.95,56.67,253.5,57.17Zm-2.34-32.76V7.69h-8a18.45,18.45,0,0,1-2.67,7,22.4,22.4,0,0,0-2.68,9.7,16.19,16.19,0,0,0,2.34,8.69c2.68-3,6.36-4.68,11-5.68Zm-9.7,35.1-2.34-.33a18,18,0,0,0-1,6.35v3.68Zm-1.67-18.72c.33.34.67.34,1.67.67.34-3.68,2.68-7,7-9.36-.67-.34-1.33-.34-2-.67C242.13,33.77,239.79,36.78,239.79,40.79Zm10.36-9.36a28.75,28.75,0,0,1,5.69-1.34h-2a22.87,22.87,0,0,0-4.68.67Zm16-8V7.69h-7.69a26.39,26.39,0,0,1-2.67,7,22.4,22.4,0,0,0-2.68,9.7l.34,3h1.34a22.42,22.42,0,0,1,12.37,3.67,21.45,21.45,0,0,1-1-6.68Zm-10,33.77c10-.33,18.39-1.67,24.74-4-1.33-3.68-5-6.69-11.36-9-3.68,1.68-8,2.34-13.38,2.34Zm12.37,4.68,13.71,38.79a17.78,17.78,0,0,1,2-4.68c3.68-6.69,3.68-13,0-19.73-3.68-7-3.35-14.38-.34-21.06a57.71,57.71,0,0,1-14.37,4Zm13-54.16h-8a18.49,18.49,0,0,1-2.68,7,22,22,0,0,0,0,19.39l1,1.68c6.35,1.33,11.36,3,14.71,5a18.64,18.64,0,0,0-2.34-5.68,25.32,25.32,0,0,1-2.68-10.7Zm-9,31.76.33,2a1.23,1.23,0,0,1-.33,1c5.68,2.34,9.36,5.69,11,9.36,2.67-1.33,4-2.67,4-4.34Q287.6,42.46,272.56,39.45ZM296.63,23.4V7.69h-7.69a26.81,26.81,0,0,1-2.68,7,18.45,18.45,0,0,0,0,19.39,23.49,23.49,0,0,1,2.68,8.7,7.21,7.21,0,0,1,2,4.68c0,2-1,4-3.35,5.68l-1.34,2.68c-3.34,6.68-3.67,13,0,19.39a21.08,21.08,0,0,1,0,21.73,21.11,21.11,0,0,0-2.67,7.69L297.3,143.1a19.77,19.77,0,0,1,2.34-6c3.68-6.68,3.68-13,0-19.39-4-7.69-4-14.71,0-21.73,3.68-6.69,3.68-13,0-19.73a20.54,20.54,0,0,1,0-21.4c3.68-6.68,3.68-13,0-19.72a21.62,21.62,0,0,1-3-10.7ZM312,7.69h-8a24.64,24.64,0,0,1-2.35,7,18.45,18.45,0,0,0,0,19.39,22.79,22.79,0,0,1,0,21.74c-3.67,6.68-3.67,13,0,19.39a22.77,22.77,0,0,1,0,21.73c-3.67,6.69-3.34,13,0,19.39,4,7.69,3.68,14.72,0,21.74a22.34,22.34,0,0,0-2.67,9.69l13,37.78a24.7,24.7,0,0,1,2.67-7.35c3.68-6.69,3.35-13,0-19.39-4-7.69-3.67-14.72,0-21.74,3.68-6.68,3.68-13,0-19.72a22.17,22.17,0,0,1,0-21.4c3.68-6.69,3.68-13,0-19.73a22.17,22.17,0,0,1,0-21.4c3.68-6.68,3.35-13,0-19.72A21.23,21.23,0,0,1,312,24.41Zm2.34,183.89.67,2h12.37a17.94,17.94,0,0,1-.33-4.35,26.74,26.74,0,0,1,2.67-11,18.41,18.41,0,0,0,0-19.39,22.79,22.79,0,0,1,0-21.74c3.68-6.68,3.68-13,0-19.39a22.77,22.77,0,0,1,0-21.73c3.68-6.69,3.34-13,0-19.39-4-7.69-3.68-14.72,0-21.74,3.68-6.68,3.34-13,0-19.72a21.13,21.13,0,0,1-2.67-10.7V7.69h-7.69a26.81,26.81,0,0,1-2.68,7c-3.68,6.69-3.68,13,0,19.39a21.15,21.15,0,0,1,0,21.74c-3.68,6.68-3.68,13,0,19.39,4,7.69,4,14.71,0,21.73-3.68,6.69-3.68,13,0,19.73a20.54,20.54,0,0,1,0,21.4c-3.68,6.68-3.68,13,0,19.72a20.54,20.54,0,0,1,0,21.4,22.57,22.57,0,0,0-2.67,10Zm12,31.1a3.55,3.55,0,0,1-6-2.34,4,4,0,0,1,3.68-3.68C327.06,216.66,328.39,220.67,326.39,222.68Zm8-215a26.74,26.74,0,0,1-2.67,7c-3.68,6.69-3.68,13,0,19.39,1.67,3.35,2.67,6.36,2.67,9Zm0,39.12a18.73,18.73,0,0,1-2.67,9c-3.68,6.68-3.68,13,0,19.39a21.05,21.05,0,0,1,2.67,9.36Zm0,41.12a18.73,18.73,0,0,1-2.67,9c-3.68,6.69-3.68,13,0,19.73a18.73,18.73,0,0,1,2.67,9Zm0,41.13a18.73,18.73,0,0,1-2.67,9c-3.68,6.68-3.68,13,0,19.72a18.73,18.73,0,0,1,2.67,9Zm0,64.53V170.18a18.73,18.73,0,0,1-2.67,9,22.45,22.45,0,0,0-2.68,10,17.19,17.19,0,0,0,.67,4.35Z"/><path class="a56aa2f0-6025-4c17-b4f7-94cecf687aaa" d="M260.52,123.38l10.7,10.69-3,3.35-7.36-7v31.09h-4.34V143.44h-3.68v18.05h-4.35V130.4l-7,7-3.34-3.35,11-10.69a2,2,0,0,1,2-1,6.5,6.5,0,0,1-2.68-5.35c0-8.36,12.37-8.36,12.37,0a6.49,6.49,0,0,1-2.67,5.35A3,3,0,0,1,260.52,123.38Z"/><path class="f83ffd35-4650-4955-b140-39c2f08d34fd" d="M10.89,147.19A92.22,92.22,0,0,0,28.5,166.88a94.21,94.21,0,0,0,22.3,13.83,97.19,97.19,0,0,0,28.05,7.57,89.76,89.76,0,0,0,39-3.4,87.61,87.61,0,0,0,49-39.78,99.87,99.87,0,0,1-7.17,32.74c-3.85,9.48-11.48,27.59-30.79,40.3a74.74,74.74,0,0,1-35.48,12.14c-29,2.1-49.62-14-55.69-18.92-4.34-3.51-33.09-26.73-29.35-54.78A39,39,0,0,1,10.89,147.19Z"/><rect class="b771ef0d-6cef-454a-9894-eba1e2e86935" x="1.37" y="5.34" width="171.91" height="10.24"/><rect class="b771ef0d-6cef-454a-9894-eba1e2e86935" x="1.37" y="16.15" width="171.91" height="13.65"/><rect class="b771ef0d-6cef-454a-9894-eba1e2e86935" x="1.37" y="30.65" width="171.91" height="13.65"/><rect class="b771ef0d-6cef-454a-9894-eba1e2e86935" x="1.37" y="45.15" width="171.91" height="13.65"/><rect class="e0d78a56-281e-47b3-980c-3a784f24c75a" x="1.37" y="59.55" width="171.91" height="13.65"/><rect class="e0d78a56-281e-47b3-980c-3a784f24c75a" x="1.37" y="73.94" width="171.91" height="13.65"/><rect class="e0d78a56-281e-47b3-980c-3a784f24c75a" x="1.37" y="88.33" width="171.91" height="13.65"/><rect class="e0d78a56-281e-47b3-980c-3a784f24c75a" x="1.37" y="102.73" width="171.91" height="13.65"/><rect class="e40a4102-60d2-48bc-a5c0-623ca67c70b8" x="1.37" y="117.39" width="171.91" height="13.65"/><rect class="e40a4102-60d2-48bc-a5c0-623ca67c70b8" x="1.37" y="131.93" width="171.91" height="13.65"/><polygon class="e40a4102-60d2-48bc-a5c0-623ca67c70b8" points="154.52 159.91 20.13 159.91 11.63 146.26 165.86 146.26 154.52 159.91"/><polygon class="e40a4102-60d2-48bc-a5c0-623ca67c70b8" points="134.04 174.5 41.49 174.5 24.3 160.85 153.19 160.85 134.04 174.5"/><rect class="e40a4102-60d2-48bc-a5c0-623ca67c70b8" x="47.36" y="175.17" width="10.22" height="5.41"/><rect class="e40a4102-60d2-48bc-a5c0-623ca67c70b8" x="115.24" y="175.17" width="14.25" height="7.11"/><path class="a56aa2f0-6025-4c17-b4f7-94cecf687aaa" d="M86.93,213.32a1.34,1.34,0,0,1,0,2.67h-10a1.34,1.34,0,0,1,0-2.67Z"/><path class="a56aa2f0-6025-4c17-b4f7-94cecf687aaa" d="M92.75,195.93a1.34,1.34,0,0,1,0,2.67H82.5a1.34,1.34,0,0,1,0-2.67Z"/><path class="a56aa2f0-6025-4c17-b4f7-94cecf687aaa" d="M110.45,205.63a1.34,1.34,0,0,1,0,2.67H100.19a1.34,1.34,0,0,1,0-2.67Z"/><path class="a56aa2f0-6025-4c17-b4f7-94cecf687aaa" d="M123.69,185.93a1.34,1.34,0,0,1,0,2.67H113.43a1.34,1.34,0,0,1,0-2.67Z"/><path class="a56aa2f0-6025-4c17-b4f7-94cecf687aaa" d="M133.34,209.67a1.34,1.34,0,0,1,0,2.67H123.08a1.34,1.34,0,0,1,0-2.67Z"/><path class="a56aa2f0-6025-4c17-b4f7-94cecf687aaa" d="M110.59,221.69a1.34,1.34,0,0,1,0,2.67H100.33a1.34,1.34,0,0,1,0-2.67Z"/><path class="a56aa2f0-6025-4c17-b4f7-94cecf687aaa" d="M62.2,217a1.34,1.34,0,0,1,0,2.68H51.94a1.34,1.34,0,0,1,0-2.68Z"/><path class="a56aa2f0-6025-4c17-b4f7-94cecf687aaa" d="M67.32,202a1.34,1.34,0,0,1,0,2.67H57.06a1.34,1.34,0,0,1,0-2.67Z"/><path class="a56aa2f0-6025-4c17-b4f7-94cecf687aaa" d="M41.49,202a1.34,1.34,0,0,1,0,2.67H31.23a1.34,1.34,0,0,1,0-2.67Z"/><path class="a56aa2f0-6025-4c17-b4f7-94cecf687aaa" d="M57.39,184a1.34,1.34,0,0,1,0,2.67H47.14a1.34,1.34,0,0,1,0-2.67Z"/><path class="a56aa2f0-6025-4c17-b4f7-94cecf687aaa" d="M30.13,184a1.34,1.34,0,0,1,0,2.67H19.87a1.34,1.34,0,0,1,0-2.67Z"/><path class="a56aa2f0-6025-4c17-b4f7-94cecf687aaa" d="M30.13,168.77a1.34,1.34,0,0,1,0,2.68H19.87a1.34,1.34,0,0,1,0-2.68Z"/><path class="a56aa2f0-6025-4c17-b4f7-94cecf687aaa" d="M151.25,173.83a1.34,1.34,0,0,1,0,2.67H141a1.34,1.34,0,0,1,0-2.67Z"/><path class="a56aa2f0-6025-4c17-b4f7-94cecf687aaa" d="M151.25,190a1.34,1.34,0,0,1,0,2.68H141a1.34,1.34,0,0,1,0-2.68Z"/><path class="fe6915bd-262e-41bd-9c77-81dfb7a4b073" d="M0,234.05V0H174.87V234.05Zm7.69-130.4c-.33,4-.67,8-.67,12.37H31.09c.34-4.35.67-8.36,1-12.37ZM7,118A74.64,74.64,0,0,0,8.69,130.4H32.1c-.34-4-.67-8-1-12.37Zm25.41-16.72c.67-4,1.67-8,2.68-12H9.7c-.67,4-1.34,8-1.68,12ZM9.36,132.74a63.38,63.38,0,0,0,5.35,12h20.4c-1-4-2-8-2.68-12Zm4-58.18c-1.33,4-2.34,8-3.34,12.37H35.78c1.67-4.35,3.34-8.36,5.35-12.37ZM49.82,183.89a81,81,0,0,1-20.73-12.37l-3.34-2.67a80.19,80.19,0,0,1-14.38-16,128.41,128.41,0,0,0,12.37,31.09l1.67,3a87.28,87.28,0,0,0,11,15l2.68,2.67A73.7,73.7,0,0,0,54.17,217l4.68,2.68A58.46,58.46,0,0,0,87.6,227,62.87,62.87,0,0,0,105,224.35l6.35-2.34a66.53,66.53,0,0,0,16-9.7l3.34-2.67a91.82,91.82,0,0,0,15.05-17l2-2.68a136.33,136.33,0,0,0,15.05-34.77,70.51,70.51,0,0,1-13,15l-4.35,3.68-4,2.68a89.5,89.5,0,0,1-18.72,9.36l-9,2.67a99.59,99.59,0,0,1-56.84-1.67Zm1-123.71H18.72c-1.67,4-3.34,8-4.68,12.37H42.13a47.41,47.41,0,0,1,5.35-8ZM16.05,147.11a63.52,63.52,0,0,0,9.36,12.38H41.13c-2-4-3.68-8-5.35-12.38ZM26.41,45.81a105.93,105.93,0,0,0-6.68,12.37h33.1a46.35,46.35,0,0,1,17-12.37Zm1,115.68a90.27,90.27,0,0,0,16.71,12.37h6.69l-3.34-4.34a47.51,47.51,0,0,1-5.35-8ZM37.11,31.43a115.5,115.5,0,0,0-9.36,12H76.23a50.38,50.38,0,0,1,22.4,0h48.48a112.86,112.86,0,0,0-9.36-12Zm98.64-2.34a97.55,97.55,0,0,0-15-12.37H54.5a73.7,73.7,0,0,0-15,12.37ZM52.83,175.87H48.15a38.44,38.44,0,0,0,8.35,4ZM116.69,14.71A61.1,61.1,0,0,0,87.6,7a61.39,61.39,0,0,0-29.42,7.69Zm5.68,43.47h32.77a106.73,106.73,0,0,0-6.35-12.37H105a47.38,47.38,0,0,1,15,10ZM112,130.4h54.5c.67-3.35,1-6.69,1.33-10H112Zm49.48,14.37a46.9,46.9,0,0,0,4.35-12H112v5q15.54.51,21.06,7Zm-39.12,31.1a43.59,43.59,0,0,1-5.68,5.35c4.35-1.67,8.69-3.35,12.7-5.35Zm2-115.69a80.52,80.52,0,0,1,8.36,12.37h28.08c-1.33-4.34-3-8.35-4.68-12.37Zm9,113.68a85.94,85.94,0,0,0,16.05-12.37H132.74a80,80,0,0,1-8.36,12.37Zm31.42-86.93c-1-4.35-2-8.36-3-12.37H134.07a79.49,79.49,0,0,1,5,12.37Zm-30.76,72.56h17.39a51.74,51.74,0,0,0,8.69-12.38H134.74c1.68,3.35,1.68,7-.33,11.37Z"/></g></g></svg>