<svg xmlns="http://www.w3.org/2000/svg" viewBox="0 0 342.04 234.05"><defs><style>.bf547544-01ef-4021-9431-24e53726847b{fill:#6ebe8b;}.b919dc8b-cb76-42ba-9267-6c718d3fcba4{fill:#ef3d57;}.f7343737-ef30-473c-8bef-0779f857416a{fill:#f2744b;}.b6fa1ce3-b00d-40fa-a20f-54aa2bb18526{fill:#fdc14f;}.a27c357b-db8d-4af0-9189-03caf23bd98f{fill:#f8f9f3;}.b6ac8949-abaa-4b43-b697-438e7610dde6{fill:#452c70;}.acc9eec0-aaa9-4a50-98c9-27be711e00f9{fill:#f03c57;}.e18ecaa0-e2d6-489b-8740-7d9515b04413{fill:#f3744b;}</style></defs><title>Asset 5</title><g id="a857e378-41e0-4f6a-a260-313e710338d9" data-name="Layer 2"><g id="ffdde7a6-89a2-4ed7-8aee-c2a553a71201" data-name="Layer 3"><rect class="bf547544-01ef-4021-9431-24e53726847b" x="4.5" y="5.15" width="165.91" height="226.36"/><path class="b919dc8b-cb76-42ba-9267-6c718d3fcba4" d="M26.22,108.45H54.61a53.63,53.63,0,0,1,0-21.91c1-5,1.93-8.87,5.08-12.33,6.39-7,16.76-6.27,19-6.07L79,33.51c-6.34-.36-11.89-.34-16.43-.19-6.8.23-10.27.36-13.89,1.56a33.27,33.27,0,0,0-13.7,9,34.76,34.76,0,0,0-6.85,11.35A35.33,35.33,0,0,0,26,68.14Q26.13,88.3,26.22,108.45Z"/><path class="f7343737-ef30-473c-8bef-0779f857416a" d="M148.55,108.45H120.16a53.63,53.63,0,0,0,0-21.91c-1.05-5-1.93-8.87-5.08-12.33-6.39-7-16.76-6.27-19-6.07l-.39-34.63c6.34-.36,11.89-.34,16.43-.19,6.8.23,10.27.36,13.89,1.56a33.27,33.27,0,0,1,13.7,9,34.94,34.94,0,0,1,6.85,11.35,35.33,35.33,0,0,1,2.15,12.91Q148.65,88.3,148.55,108.45Z"/><path class="b6fa1ce3-b00d-40fa-a20f-54aa2bb18526" d="M26.22,126H54.61a53.63,53.63,0,0,0,0,21.91c1,5,1.93,8.87,5.08,12.33,6.39,7,16.76,6.27,19,6.06L79,200.88c-6.34.36-11.89.35-16.43.2-6.8-.23-10.27-.37-13.89-1.57a33.27,33.27,0,0,1-13.7-9,34.52,34.52,0,0,1-6.85-11.35A35.3,35.3,0,0,1,26,166.25Q26.13,146.1,26.22,126Z"/><path class="a27c357b-db8d-4af0-9189-03caf23bd98f" d="M148.55,126H120.16l-23.71-.68-1.17,22.5,24.9.09a20.29,20.29,0,0,1-5.08,12.33c-7.24,7.9-18.13,6.21-19,6.06l-.39,34.63c6.34.36,11.89.35,16.43.2,6.8-.23,10.27-.37,13.89-1.57a33.27,33.27,0,0,0,13.7-9,34.7,34.7,0,0,0,6.85-11.35,35.3,35.3,0,0,0,2.15-12.91Q148.65,146.1,148.55,126Z"/><path class="b6ac8949-abaa-4b43-b697-438e7610dde6" d="M0,234.05V0H174.87V234.05ZM44.8,7.69,7.69,44.8V62.19l54.5-54.5Zm20.4,0L7.69,65.2V82.58l16-16V65.2A34.82,34.82,0,0,1,58.85,30.43h1.33L82.58,7.69Zm-40.79,0L7.69,24.41V41.79l34.1-34.1ZM7.69,21.06,21.06,7.69H7.69Zm16,48.48-16,16V103l16-16Zm0,20.73-16,16v17.39l16-16.38Zm-16,36.45V144.1l16-16v-3.35c0-2,1-3,2.67-3h3.35l1.67-1.33v-8h-5a2.45,2.45,0,0,1-2.34-2Zm16,4.35-16,16v17.72l16-16.38Zm0,20.73-16,16V184.9l16-16.05Zm-16,36.44v17l20.06-20.06a32.52,32.52,0,0,1-4-13.37Zm0,20.06V226l29.76-29.76a32.19,32.19,0,0,1-8.36-9.36Zm20.4,18.06L51.49,203a33.83,33.83,0,0,1-12.37-5.35L10.7,226.36Zm1-119.7H51.82V87.6c0-11.7,9.37-21.4,20.07-21.4h5.35V35.78H58.85A29.75,29.75,0,0,0,29.09,65.2Zm22.73,20.73H29.09v41.46a29.75,29.75,0,0,0,29.76,29.42H77.24V167.84h-5c-11,0-20.4-9.69-20.4-21.39Zm-20.73,99H47.81l22.74-22.74H58.85a22.3,22.3,0,0,1-4.68-.33Zm18.73-114v9.36h.67L100.3,71.89H95a2.47,2.47,0,0,1-2.68-2.68V63.53h-1L57.51,97.3v12c0,2-1,3-2.68,3Zm24.07,91.28L51.16,226.36H68.88l23.74-24.08a2,2,0,0,1-.34-1.34v-8.69h-7l-2.68,2.68v6a2.46,2.46,0,0,1-2.67,2.68ZM53.5,121.7h1.33c1.67,0,2.68,1,2.68,3v10.37L114.68,77.9a15.38,15.38,0,0,0-11-6Zm4-27.41,22.4-22.4H72.22c-8,0-14.71,6.68-14.71,15.71Zm0,44.13v8a18.26,18.26,0,0,0,1.67,7.35l19.06-19.06V130.4c0-2,1-3,3.34-3h4.35l31.76-31.77v-8a15.62,15.62,0,0,0-2-7.69Zm20.73-.67L60.18,155.81a14.79,14.79,0,0,0,11.37,6.35l16-16h-6c-2.34,0-3.34-1-3.34-3.34ZM79.91,30.43h.67L103.31,7.69H85.93L63.19,30.43ZM95,203.62h-.34L71.89,226.36H89.27L112,203.62Zm-2.68-57.51H90.61l-16,16h5.35a2.46,2.46,0,0,1,2.67,2.67v5.69h1.34l19.39-19.39H95a2.47,2.47,0,0,1-2.68-2.68Zm8.36-115.68L123.38,7.69H106.32L82.25,31.76a2.05,2.05,0,0,1,.33,1.34v8.69h6.69l3-3V33.1A2.46,2.46,0,0,1,95,30.43ZM88.27,63.53H82.58v5.68Zm-1.34,107h5.35v-5.35Zm5.35-43.13v-2.68l.34-1-3.68,3.68ZM115,203.62,92.28,226.36h17.39l57.51-57.85V151.13l-16.05,16.38v1.34a35,35,0,0,1-34.78,34.77ZM121.37,112l-1,.33c-1.68,0-2.68-1-2.68-3V98.63L94,122l1-.34h16.71Zm-15.05,39.12-11,11H103a14.29,14.29,0,0,0,14-11ZM98,35.78V66.2h5c11,0,20.06,9.7,20.06,21.4v19.06h22.74V65.2a29.69,29.69,0,0,0-29.43-29.42Zm0,162.49h18.39a29.69,29.69,0,0,0,29.43-29.42V127.39H98v18.39H120a2.94,2.94,0,0,1,3,2.67c-1.34,11-9.7,19.39-20.06,19.39H98ZM144.11,7.69H126.38L104,30.43h12.37a22.44,22.44,0,0,1,4.69.33ZM130.4,226.36l36.78-37.12V171.86l-54.5,54.5Zm11.7-114H124.71L115,121.7H132.4ZM164.5,7.69H147.11l-23.4,23.4a32.68,32.68,0,0,1,12,5.35Zm-14,218.67,16.72-16.72V192.25l-33.77,34.11Zm16.72-119V89.94l-16.05,16v3.34c0,2-1,3-2.68,3h-3.34l-9.7,9.36h13a2.65,2.65,0,0,1,2.68,1.68Zm0-81.92V8L137.75,37.78a35.21,35.21,0,0,1,8,9Zm0,20.4V28.42L147.11,48.81a29.74,29.74,0,0,1,4,13ZM151.13,82.25l16.05-16V48.81l-16.05,16V82.25Zm0,20.73L167.18,86.6V69.21L151.13,85.59Zm16.05,7.36-16.05,16v17.39l16.05-16.05Zm0,20.39-16.05,16.05v17.39l16.05-16Zm0,81.92-13.71,13.71h13.71Z"/><polygon class="acc9eec0-aaa9-4a50-98c9-27be711e00f9" points="201.28 228.9 201.28 206.78 192.77 198.27 201.28 189.76 201.28 127.98 195.26 119.7 201.28 113.68 201.28 91.81 205.29 77.1 211.65 64.86 222.34 55.34 236.39 48.48 253.05 47.31 254.61 2.54 199.44 7.69 176.35 30.26 170.09 51.16 170.09 228.9 201.28 228.9"/><polygon class="bf547544-01ef-4021-9431-24e53726847b" points="225.61 228.9 225.61 211.24 225.9 181.77 205.77 163.63 225.61 148.32 226.47 141.71 225.61 136.9 225.61 119.44 228.81 107.7 233.88 100.76 242.43 98.82 252.22 99.02 254.19 83.91 254.01 48.17 224.14 52.27 205.71 70.3 200.71 86.98 200.71 228.9 225.61 228.9"/><polygon class="e18ecaa0-e2d6-489b-8740-7d9515b04413" points="282.7 228.9 282.7 211.24 282.41 181.77 302.54 163.63 282.7 148.32 281.83 141.71 282.7 136.9 282.7 119.44 279.49 107.7 274.42 100.76 265.88 98.82 256.08 99.02 254.12 83.91 254.29 48.17 284.17 52.27 302.6 70.3 307.6 86.98 307.6 228.9 282.7 228.9"/><polygon class="b6fa1ce3-b00d-40fa-a20f-54aa2bb18526" points="307.09 228.9 307.09 206.78 315.61 198.27 307.09 189.76 307.09 127.98 313.11 119.7 307.1 113.68 307.09 91.81 303.08 77.1 296.73 64.86 286.03 55.34 271.99 48.48 255.33 47.31 253.77 2.54 308.93 7.69 332.02 30.26 338.28 51.16 338.28 228.9 307.09 228.9"/><rect class="a27c357b-db8d-4af0-9189-03caf23bd98f" x="195.26" y="113.45" width="12.04" height="12.04" transform="translate(143.43 -107.34) rotate(45)"/><rect class="a27c357b-db8d-4af0-9189-03caf23bd98f" x="195.26" y="192.25" width="12.04" height="12.04" transform="translate(199.15 -84.25) rotate(45)"/><rect class="a27c357b-db8d-4af0-9189-03caf23bd98f" x="301.4" y="113.45" width="12.04" height="12.04" transform="translate(174.52 -182.39) rotate(45)"/><rect class="a27c357b-db8d-4af0-9189-03caf23bd98f" x="301.4" y="192.25" width="12.04" height="12.04" transform="translate(230.24 -159.31) rotate(45)"/><polygon class="b6fa1ce3-b00d-40fa-a20f-54aa2bb18526" points="284.4 149.86 223.69 149.86 212.35 161.86 298.57 161.86 284.4 149.86"/><polygon class="acc9eec0-aaa9-4a50-98c9-27be711e00f9" points="283.6 177.44 221 177.44 209.3 165.44 298.22 165.44 283.6 177.44"/><path class="b6ac8949-abaa-4b43-b697-438e7610dde6" d="M167.18,234.05V0H342V234.05ZM251.43,7.69H240.06a70.47,70.47,0,0,0-51.82,21.73,54.26,54.26,0,0,0-13.37,28.42V226.36h23.07V206.63l-8.7-8.69,8.7-9V128.73l-8.7-9,8.7-9V99.3c0-4.34-.34-9,4-22.07,2.34-6.35,5.35-12,9.69-16.71,9.37-10,22.74-15.38,39.79-15.72Zm-44.13,112-6-6-6,6,6,6Zm0,78.24-6-6-6,6,6,5.68ZM251.43,57.17,206,85.59c-.67,3.35-1,6.69-1.34,9.7L251.43,66.2ZM204.62,98v9l46.81-29.42v-9Zm46.81-17.72-46.81,29.09V111l4.68,4.35,15-9.36a18.94,18.94,0,0,1,4-6c4.35-5,11-8,19.73-9l3.34-1.67ZM211,117l2.34,2.68-8.7,8.69v1.34l17.72-11v-2.34a16.84,16.84,0,0,1,.67-7Zm11.36,4.35-17.72,11v9l17.72-11ZM204.62,152.8l17.72-11v-8.69l-17.72,10.7Zm17.72-8.36-17.72,11v2.68l17.72-11Zm-13,28.42-4.68-3v6Zm9.37,5.68-7.36-4.34-6.69,4.34v8.7Zm3.67,11.71-10,6.35,1,1.34-8.7,8.69v3.68l17.72-11Zm0,11.7-17.72,11v8.69l17.72-11Zm-17.72,24.41h13.71l4-2.34v-10.7l-17.72,11Zm17.72-45.48-1.67-1-15.38,9.7,5.35,5.35,11.7-7Zm-10-110.67a46.79,46.79,0,0,0-5.68,12.37l44.8-28.08V51.16a102.52,102.52,0,0,0-10.7,1.33Zm.67,97.3,2.68,1.34,2.34-1.34Zm15.05-15-13.71,8.36h81.92l-13.38-8.36Zm5.68-98.3c-7,2.35-12.7,5.69-17.38,10.7Zm-16.05,116,7,4.69,11.71-7.36h-14Zm9.36,5.69H241.4l13.38-8.36H240.73Zm32.1-8.36-13.71,8.36h14.38l13.38-8.36ZM257.79,16.05l13.37-8.36H257.79Zm0,2.67v8.7l27.75-17.06a63.77,63.77,0,0,0-11-2Zm0,20.4L297.91,14c-3-1-6-2-9.37-3L257.79,30.09Zm0,2.67v3a65.84,65.84,0,0,1,8.35.67l42.13-26.41a30,30,0,0,0-8-4Zm0,9.37V90.94c10.36.34,18.38,3.35,23.4,9,4.35,4.68,6,10,6,16.38v30.76l17.38,11V128.39l-9-8.69,9-8.7V99c-.33-1,1-19.73-12-34.11C284.53,56.51,272.83,51.82,257.79,51.16Zm19.39,116.35-13.38,8.36h15.38l13.38-8.36ZM316.63,25.08a43.52,43.52,0,0,0-6.35-4.68L269.49,45.81a81.11,81.11,0,0,1,9.69,2.67Zm7,7.35-2.67-3-2.68-2.67L281.86,49.48a57.94,57.94,0,0,1,7.69,4.35ZM304.59,170.18l-17.38,10.7v45.48h17.38V206.63l-9-8.69,9-9ZM329,40.46a25.51,25.51,0,0,0-4-6.36L291.55,55.17a42.4,42.4,0,0,1,5.69,5.35Zm3.68,9.36A64.06,64.06,0,0,0,330,42.46L298.91,61.85a43.23,43.23,0,0,1,4.35,6.36Zm-24.74,75.9,6-6-6-6-6,6Zm6,72.22-6-6-6,6,6,5.68ZM334.35,60.18V57.84l-1-6L304.26,70.21a41.35,41.35,0,0,1,3.34,6.69Zm0,11.37v-9L308.27,79.24c.67,2.34,1.34,5,2,7.69Zm0,11.37V74.23l-23.74,15a35.68,35.68,0,0,1,.34,8.36Zm0,2.67L311,100.31v9l23.4-14.71ZM311,128.73v3.34l23.4-14.38v-9l-15.71,9.7L320,119.7Zm0,15,23.4-14.71v-9L311,134.74Zm23.4-12L311,146.11v9l23.4-14.71ZM311,166.51l23.4-14.38v-9L311,157.81v8.7Zm23.4-12L311,169.18v9l23.4-14.71Zm0,11.7L311,180.55v8.36l.67.33,22.73-14.37ZM311,206.63v5.68l23.4-14.37v-9l-15,9.69Zm0,8.36v9l23.4-14.72v-9Zm.33,11.37h14.38l8.69-5.69V212Zm.34-115L317.3,117l17.05-11V97.3ZM313,190.91l5.69,5.35,15.71-9.69v-9Zm21.4,35.45v-3l-4.68,3Z"/></g></g></svg>