<svg xmlns="http://www.w3.org/2000/svg" viewBox="0 0 342.04 234.05"><defs><style>.bb4612b3-8ffe-4136-aa9f-8d587e4e52f1{fill:#fdc14f;}.f4afde7e-5cce-4577-9962-e19d345869fd{fill:#6ebe8b;}.f251e92f-a260-4163-aeb5-850aca54d28b{fill:#f03c57;}.a1cf5365-ade6-497e-af72-5e4d3e865450{fill:#f2744b;}.a9a4d32f-187e-48d5-8027-0785a7064398{fill:#452c70;}.f86a4632-09f8-4ecf-b278-88ebb2f99768{fill:#f8f9f3;}.b55cb9af-0014-4d89-812b-dca2001a97d9{fill:#f3744b;}.bf653e2e-7b00-4a3c-aab1-8ea4b393fefd{fill:#bfbbbc;}.aea8de4b-7380-4053-9c84-e89b9dbfa98c{fill:#878986;}</style></defs><title>Asset 8</title><g id="bb70f168-0e7a-4cb6-8169-7da00c7161b5" data-name="Layer 2"><g id="a2c540bd-8909-4683-b492-b89a354c35cb" data-name="Layer 3"><rect class="bb4612b3-8ffe-4136-aa9f-8d587e4e52f1" x="171.71" y="3.38" width="167.09" height="193.3"/><path class="f4afde7e-5cce-4577-9962-e19d345869fd" d="M267.66,36.65a3.05,3.05,0,0,0,0-.52c0-4-6.08-7.19-13.59-7.19s-13.59,3.22-13.59,7.19a3.68,3.68,0,0,0,.06.66c-12.2,1.77-20.72,5.76-20.72,10.4,0,6.28,15.56,11.37,34.76,11.37s34.77-5.09,34.77-11.37C289.4,42.42,280.41,38.34,267.66,36.65Z"/><rect class="f4afde7e-5cce-4577-9962-e19d345869fd" x="171.71" y="197.08" width="168.65" height="31.7"/><path class="f251e92f-a260-4163-aeb5-850aca54d28b" d="M195.39,199.23,245.08,58.56l19.76.58,49.5,139.31a147.8,147.8,0,0,1-71,12.72A145.75,145.75,0,0,1,195.39,199.23Z"/><ellipse class="a1cf5365-ade6-497e-af72-5e4d3e865450" cx="255.02" cy="204" rx="60.7" ry="13.27"/><path class="a9a4d32f-187e-48d5-8027-0785a7064398" d="M167.18,234.05V0H342V234.05Zm7.69-170.19a23.22,23.22,0,0,1,2.67-9c3.68-6.68,3.68-13,0-19.72a23.22,23.22,0,0,1-2.67-9Zm0,41.13a23.22,23.22,0,0,1,2.67-9c3.68-6.69,3.68-13,0-19.73a23.22,23.22,0,0,1-2.67-9Zm0,41.12a23.22,23.22,0,0,1,2.67-9c3.68-6.68,3.68-13,0-19.39a26.51,26.51,0,0,1-2.67-9.36Zm0,41.13a23.22,23.22,0,0,1,2.67-9c3.68-6.69,3.68-13,0-19.39a27.09,27.09,0,0,1-2.67-9Zm159.82,39.12V199.27h-2v.34A3.65,3.65,0,0,1,329,203a3.59,3.59,0,0,1-3.34-3.34v-.34H317L318.3,203v1c0,2.68-2,5-5.68,7.36l.33,1a3.44,3.44,0,0,1-3.67,3.35,3.49,3.49,0,0,1-3-1.68q-3.51,1-8,2a188.73,188.73,0,0,1-27.41,3.68,3.22,3.22,0,0,1,2,3c0,4.68-7,4.68-7,0a3.25,3.25,0,0,1,1.34-3l-12.37.33c-7.69.34-16.39-.33-26.08-1,0,4.68-7,4.68-7,0l.33-1q-6-1-11-2-20.07-4.52-20.06-12l.33-1,1.34-3.68H174.87v27.09h69.21c1-3,5.68-3,6.68,0H295.9c-2-.34-3-1.34-3-3.35,0-4.68,7-4.68,7,0,0,2-1,3-3,3.35ZM190.25,193.59a20.24,20.24,0,0,1-.34-4.68,21.72,21.72,0,0,1,3-10.7c3.68-6.69,3.68-13,0-19.39-4-7.69-4-14.72,0-21.74,3.68-6.68,3.68-13,0-19.72a20.54,20.54,0,0,1,0-21.4c3.68-6.69,3.68-13,0-19.73a20.54,20.54,0,0,1,0-21.4c3.68-6.68,3.68-13,0-19.72a21.72,21.72,0,0,1-3-10.7V7.69h-7.69a26.74,26.74,0,0,1-2.67,7,18.41,18.41,0,0,0,0,19.39,21.15,21.15,0,0,1,0,21.74c-3.68,6.68-3.68,13,0,19.39a21.13,21.13,0,0,1,0,21.73c-3.68,6.69-3.68,13,0,19.39a21.15,21.15,0,0,1,0,21.74c-3.68,6.68-3.68,13,0,19.72a20.54,20.54,0,0,1,0,21.4,22.43,22.43,0,0,0-2.68,9.7,20,20,0,0,0,.67,4.68Zm-6.36,29.76c-3.34,3.34-8-1.34-5-5C181.89,215,186.9,220.34,183.89,223.35Zm5-11.71c-3,3-8.36-2-4.68-5A3.43,3.43,0,1,1,188.91,211.64Zm5.35-18,13-36.45a22.34,22.34,0,0,1-2-9.36,21.14,21.14,0,0,1,2.68-10.7c3.34-6.68,3.67-13,0-19.72A22.12,22.12,0,0,1,208,96c3.67-6.69,3.67-13,0-19.73a22.12,22.12,0,0,1,0-21.4c3.67-6.68,3.34-13,0-19.72a22.37,22.37,0,0,1-2.68-11V7.69h-8a24.9,24.9,0,0,1-2.34,7,18.41,18.41,0,0,0,0,19.39,22.79,22.79,0,0,1,0,21.74c-3.68,6.68-3.68,13,0,19.39a22.77,22.77,0,0,1,0,21.73c-3.68,6.69-3.35,13,0,19.39,4,7.69,3.68,14.72,0,21.74-3.68,6.68-3.68,13,0,19.72a22.12,22.12,0,0,1,0,21.4,22.43,22.43,0,0,0-2.68,9.7,20.24,20.24,0,0,0,.34,4.68ZM313,204.29l-1.33-4c-3.68-2-9.37-3.68-17.06-5.35a133,133,0,0,0-22.06-2.68c-1.34,0-1.34-2.34.33-2.34,16.38,1.34,30.43,3.68,37.45,7.36L262.13,60.18l-7.35.34-7.69-.34L198.94,197.27a27.28,27.28,0,0,1,6.35-2.34c1.34-.34,2,1.67.67,2a31.82,31.82,0,0,0-8,3.35l-1.34,4c1,2.34,6.35,4.35,15.38,6.35,11.7,2.34,26.08,3.68,42.8,3.68a220.5,220.5,0,0,0,42.46-3.68C306.6,208.64,312,206.63,313,204.29ZM206,221.67c-3.34,3.35-8.36-1.67-5-5S209.3,218.33,206,221.67Zm14.38-197.6V7.69h-7.69a26.81,26.81,0,0,1-2.68,7c-3.68,6.69-3.68,13,0,19.39a21.1,21.1,0,0,1,0,21.74c-3.68,6.68-3.68,13,0,19.39,4,7.69,4,14.71,0,21.73-3.68,6.69-3.68,13,0,19.73a20.49,20.49,0,0,1,0,21.4,22.34,22.34,0,0,0-2.67,9.69,18.15,18.15,0,0,0,1,6.36L222,115a22,22,0,0,1-1.67-8.36,21.62,21.62,0,0,1,3-10.7c3.68-6.69,3.68-13,0-19.39-4-7.69-4-14.72,0-21.74l.33-.33c-3.68-2-5.35-4.35-5.35-7q0-4.51,7-8a22.81,22.81,0,0,0-2-4.34,21.62,21.62,0,0,1-3-10.7Zm41.79,165.51a1,1,0,1,1,0,2h-7.35A243.37,243.37,0,0,0,218,194.26a.89.89,0,0,1-1-1c-.33-.67,0-1,.67-1a248.28,248.28,0,0,1,37.12-2.67ZM236.72,39.45q-15,3-15,8c0,1.67,1.33,3,4.34,4.34,1.67-3.67,5-7,10.7-9.36a1.23,1.23,0,0,1-.33-1Zm-1-15.71v-16h-8a24.27,24.27,0,0,1-2.34,7c-3.67,6.69-3.67,13,0,19.39a17.73,17.73,0,0,1,2,4.68,40.84,40.84,0,0,1,10.7-3l.33-.67a25.3,25.3,0,0,1-2.67-10.7Zm1,49.15a26,26,0,0,1-1-7.36,21.45,21.45,0,0,1,1-6.68,67.39,67.39,0,0,1-11.37-3.35v.34c-3.67,6.68-3.67,13,0,19.39a22.77,22.77,0,0,1,0,21.73,22.38,22.38,0,0,0-2.67,9.7,25.33,25.33,0,0,0,.67,5Zm16.72-15.72V46.47c-5.69,0-10-.66-13.71-2.34-6,2.34-9.7,5.35-11.37,9Q237.89,56.67,253.44,57.17ZM251.1,24.41V7.69h-8a18.45,18.45,0,0,1-2.67,7,22.4,22.4,0,0,0-2.68,9.7,16.19,16.19,0,0,0,2.34,8.69c2.68-3,6.36-4.68,11-5.68Zm-9.7,35.1-2.34-.33a18,18,0,0,0-1,6.35v3.68Zm-1.67-18.72c.33.34.67.34,1.67.67.34-3.68,2.68-7,7-9.36-.67-.34-1.33-.34-2-.67C242.07,33.77,239.73,36.78,239.73,40.79Zm10.36-9.36a28.75,28.75,0,0,1,5.69-1.34h-2a22.87,22.87,0,0,0-4.68.67Zm16-8V7.69h-7.69a26.39,26.39,0,0,1-2.67,7,22.4,22.4,0,0,0-2.68,9.7l.34,3h1.34a22.42,22.42,0,0,1,12.37,3.67,21.45,21.45,0,0,1-1-6.68Zm-10,33.77c10-.33,18.39-1.67,24.75-4-1.34-3.68-5-6.69-11.37-9-3.68,1.68-8,2.34-13.38,2.34Zm12.37,4.68,13.71,38.79a18.12,18.12,0,0,1,2-4.68c3.68-6.69,3.68-13,0-19.73-3.68-7-3.34-14.38-.34-21.06a57.71,57.71,0,0,1-14.37,4Zm13-54.16h-8a18.45,18.45,0,0,1-2.67,7,22,22,0,0,0,0,19.39l1,1.68c6.35,1.33,11.37,3,14.71,5a18.39,18.39,0,0,0-2.34-5.68,25.32,25.32,0,0,1-2.68-10.7Zm-9,31.76.33,2a1.23,1.23,0,0,1-.33,1c5.68,2.34,9.36,5.69,11,9.36,2.68-1.33,4-2.67,4-4.34Q287.54,42.46,272.5,39.45ZM296.57,23.4V7.69h-7.69a27.1,27.1,0,0,1-2.67,7,18.41,18.41,0,0,0,0,19.39,23.64,23.64,0,0,1,2.67,8.7,7.21,7.21,0,0,1,2,4.68c0,2-1,4-3.35,5.68l-1.33,2.68c-3.35,6.68-3.68,13,0,19.39a21.13,21.13,0,0,1,0,21.73,21,21,0,0,0-2.68,7.69l13.71,38.45a19.77,19.77,0,0,1,2.34-6c3.68-6.68,3.68-13,0-19.39-4-7.69-4-14.71,0-21.73,3.68-6.69,3.68-13,0-19.73a20.54,20.54,0,0,1,0-21.4c3.68-6.68,3.68-13,0-19.72a21.62,21.62,0,0,1-3-10.7ZM312,7.69h-8a24.64,24.64,0,0,1-2.35,7,18.45,18.45,0,0,0,0,19.39,22.79,22.79,0,0,1,0,21.74c-3.67,6.68-3.67,13,0,19.39a22.77,22.77,0,0,1,0,21.73c-3.67,6.69-3.34,13,0,19.39,4,7.69,3.68,14.72,0,21.74a22.34,22.34,0,0,0-2.67,9.69l13,37.78a24.47,24.47,0,0,1,2.68-7.35c3.67-6.69,3.34-13,0-19.39-4-7.69-3.68-14.72,0-21.74,3.67-6.68,3.67-13,0-19.72a22.12,22.12,0,0,1,0-21.4c3.67-6.69,3.67-13,0-19.73a22.12,22.12,0,0,1,0-21.4c3.67-6.68,3.34-13,0-19.72A21.14,21.14,0,0,1,312,24.41Zm2.34,183.89.67,2h12.37a17.94,17.94,0,0,1-.33-4.35,26.74,26.74,0,0,1,2.67-11,18.41,18.41,0,0,0,0-19.39,22.79,22.79,0,0,1,0-21.74c3.68-6.68,3.68-13,0-19.39a22.77,22.77,0,0,1,0-21.73c3.68-6.69,3.34-13,0-19.39-4-7.69-3.68-14.72,0-21.74,3.68-6.68,3.34-13,0-19.72A21.13,21.13,0,0,1,327,24.41V7.69h-7.69a26.81,26.81,0,0,1-2.68,7c-3.68,6.69-3.68,13,0,19.39a21.15,21.15,0,0,1,0,21.74c-3.68,6.68-3.68,13,0,19.39,4,7.69,4,14.71,0,21.73-3.68,6.69-3.68,13,0,19.73a20.54,20.54,0,0,1,0,21.4c-3.68,6.68-3.68,13,0,19.72a20.54,20.54,0,0,1,0,21.4,22.57,22.57,0,0,0-2.67,10Zm12,31.1a3.55,3.55,0,0,1-6-2.34,4,4,0,0,1,3.68-3.68C327,216.66,328.33,220.67,326.33,222.68Zm8-215a26.74,26.74,0,0,1-2.67,7c-3.68,6.69-3.68,13,0,19.39,1.67,3.35,2.67,6.36,2.67,9Zm0,39.12a18.73,18.73,0,0,1-2.67,9c-3.68,6.68-3.68,13,0,19.39a21.05,21.05,0,0,1,2.67,9.36Zm0,41.12a18.73,18.73,0,0,1-2.67,9c-3.68,6.69-3.68,13,0,19.73a18.73,18.73,0,0,1,2.67,9Zm0,41.13a18.73,18.73,0,0,1-2.67,9c-3.68,6.68-3.68,13,0,19.72a18.73,18.73,0,0,1,2.67,9Zm0,64.53V170.18a18.73,18.73,0,0,1-2.67,9,22.45,22.45,0,0,0-2.68,10,17.19,17.19,0,0,0,.67,4.35Z"/><path class="f86a4632-09f8-4ecf-b278-88ebb2f99768" d="M260.46,123.38l10.7,10.69-3,3.35-7.36-7v31.09h-4.34V143.44h-3.68v18.05h-4.35V130.4l-7,7-3.34-3.35,11-10.69a2,2,0,0,1,2-1,6.5,6.5,0,0,1-2.68-5.35c0-8.36,12.37-8.36,12.37,0a6.49,6.49,0,0,1-2.67,5.35A3,3,0,0,1,260.46,123.38Z"/><path class="f86a4632-09f8-4ecf-b278-88ebb2f99768" d="M171.18,231.5H146.1L48.85,116.8Q97.47,59.92,146.1,3.06h25.08Z"/><polygon class="bb4612b3-8ffe-4136-aa9f-8d587e4e52f1" points="16.21 102.32 5.54 102.32 5.54 88.23 27.55 88.23 16.21 102.32"/><polygon class="bb4612b3-8ffe-4136-aa9f-8d587e4e52f1" points="27.55 87.51 5.54 87.51 5.54 73.43 38.89 73.43 27.55 87.51"/><polygon class="b55cb9af-0014-4d89-812b-dca2001a97d9" points="39.17 72.71 5.83 72.71 5.83 59.19 50.51 59.19 39.17 72.71"/><polygon class="b55cb9af-0014-4d89-812b-dca2001a97d9" points="50.51 58.75 5.83 58.75 5.83 45.23 61.85 45.23 50.51 58.75"/><polygon class="b55cb9af-0014-4d89-812b-dca2001a97d9" points="64.68 43.98 5.83 43.98 5.83 30.46 76.02 30.46 64.68 43.98"/><polygon class="f251e92f-a260-4163-aeb5-850aca54d28b" points="76.02 29.66 5.83 29.66 5.83 16.14 87.36 16.14 76.02 29.66"/><polygon class="f251e92f-a260-4163-aeb5-850aca54d28b" points="87.36 15.02 5.83 15.02 5.83 6.34 98.7 6.34 87.36 15.02"/><polygon class="bb4612b3-8ffe-4136-aa9f-8d587e4e52f1" points="15.91 132.13 5.25 132.13 5.25 146.22 27.25 146.22 15.91 132.13"/><polygon class="bb4612b3-8ffe-4136-aa9f-8d587e4e52f1" points="27.25 146.93 5.25 146.93 5.25 161.02 38.59 161.02 27.25 146.93"/><polygon class="b55cb9af-0014-4d89-812b-dca2001a97d9" points="38.88 161.74 5.53 161.74 5.53 175.26 50.21 175.26 38.88 161.74"/><polygon class="b55cb9af-0014-4d89-812b-dca2001a97d9" points="50.21 175.7 5.53 175.7 5.53 189.22 61.55 189.22 50.21 175.7"/><polygon class="b55cb9af-0014-4d89-812b-dca2001a97d9" points="64.39 190.47 5.53 190.47 5.53 203.99 75.73 203.99 64.39 190.47"/><polygon class="f251e92f-a260-4163-aeb5-850aca54d28b" points="75.73 204.78 5.53 204.78 5.53 218.31 87.06 218.31 75.73 204.78"/><polygon class="f251e92f-a260-4163-aeb5-850aca54d28b" points="87.06 219.43 5.53 219.43 5.53 228.11 98.4 228.11 87.06 219.43"/><polygon class="bf653e2e-7b00-4a3c-aab1-8ea4b393fefd" points="105.55 5.93 105.55 12.09 109.5 12.58 114.65 11.7 122.38 7.69 122.77 6.34 105.55 5.93"/><polygon class="f4afde7e-5cce-4577-9962-e19d345869fd" points="105.55 12.97 105.55 23.07 109.17 23.83 114.16 23.07 119.7 20.41 124.53 18.4 131.09 19.04 136.07 8.37 127.17 6.34 120.81 9.25 116.8 11.7 112.6 13.17 109.5 13.36 105.55 12.97"/><polygon class="aea8de4b-7380-4053-9c84-e89b9dbfa98c" points="126.32 18.89 120.81 20.11 116.8 22.56 112.6 24.02 109.5 24.22 105.55 23.83 105.55 33.93 109.17 34.69 115.01 34.21 128.2 19.93 126.32 18.89"/><polygon class="f4afde7e-5cce-4577-9962-e19d345869fd" points="105.55 35.08 113.18 35.37 106.32 44.57 105.55 35.08"/><polygon class="f4afde7e-5cce-4577-9962-e19d345869fd" points="105.72 191.8 109.5 192.71 116.87 201.51 114.58 202.95 110.41 203.99 105.45 203.28 105.72 191.8"/><polygon class="aea8de4b-7380-4053-9c84-e89b9dbfa98c" points="105.45 204.38 105.45 214.32 109.11 215.21 114.52 214.32 122.8 209.8 117.78 202.62 111.85 204.78 105.45 204.38"/><polygon class="f4afde7e-5cce-4577-9962-e19d345869fd" points="105.45 215.21 109.5 215.67 114.01 214.95 117.72 213.12 123.85 210.19 135.08 222.84 132.52 223.17 126.98 221.01 122.08 221.6 116.87 224.35 112.04 226.35 104.74 226.35 105.45 215.21"/><polygon class="bf653e2e-7b00-4a3c-aab1-8ea4b393fefd" points="114.01 227.14 117.19 224.8 121.7 222.43 125.15 221.67 130.43 222.84 137.02 225.97 133.82 228.11 114.01 227.14"/><polygon class="bf653e2e-7b00-4a3c-aab1-8ea4b393fefd" points="98.4 3.06 101.97 6.34 101.97 54.67 48.85 118.83 101.97 182.46 101.97 228.11 4 115.58 98.4 3.06"/><rect class="bb4612b3-8ffe-4136-aa9f-8d587e4e52f1" x="146.45" y="3.06" width="24.73" height="225.05"/><path class="a9a4d32f-187e-48d5-8027-0785a7064398" d="M0,234.05V0H174.87V234.05ZM7.69,7.69v7H49.48a53,53,0,0,1,12.71-7Zm0,21.4H33.1a91,91,0,0,1,13-12.37H7.69Zm23.4,2.34H7.69v12H22.4l1.34-2.34c1.34-1.68,3.34,0,2.34,1.33l-.67,1H62.19l10.7-12H34.77l-3.68,4c-.33.34-.66.67-1,.67l-1-.33a1.26,1.26,0,0,1,0-2ZM7.69,45.81V58.18h7a71.24,71.24,0,0,1,6.35-12.37Zm0,14.37V72.55H9c1.34-4.34,3-8.35,4.68-12.37Zm0,41.13h5l10.69-12H7.69v12Zm0,43.13v.33H23.4l-10.69-12h-5Zm0,17.05v12.37h6c-1.67-4-3.34-8-4.68-12.37Zm0,14.38v12.37H60.52l-10.7-12.37H17.72l2.68,5.68a1.22,1.22,0,0,1-.67,1.67l-.67.34c-.67,0-1-.34-1.34-1l-3-6.69Zm20.73,18.72a51.9,51.9,0,0,0,6.35,8H72.89l-10.7-12H7.69v12h23.4c-1.67-2-3.34-4-5-6.36C25.08,194.93,27.08,193.25,28.42,194.59ZM33.1,205H7.69v12.37H85.26L74.56,205H36.78l1,1a1.57,1.57,0,0,1-.33,2,1.53,1.53,0,0,1-1.67,0Zm53.83,14.37H7.69v7h54.5a76.51,76.51,0,0,1-7.36-3.68,1.35,1.35,0,1,1,1.34-2.34,52.75,52.75,0,0,0,14,6H93Zm12.71-36.11L44.8,119a3.06,3.06,0,0,1,0-4l54.84-64.2V9.7L8,117,99.64,224.35ZM25.08,86.93l10.7-12.37H11.37a74,74,0,0,0-3,12.37Zm10.7,72.56-10.7-12.38H8.36a74.35,74.35,0,0,0,3,12.38Zm1.67-86.94,10.7-12.37H16.72c-1.67,4-3.35,8-4.68,12.37Zm10.7,101.31-10.7-12.37H12c1.33,4.35,3,8.36,4.68,12.37ZM49.82,58.18l10.7-12.37H24.07a71.24,71.24,0,0,0-6.35,12.37ZM74.56,29.09l10.7-12.37H51.16A100.58,100.58,0,0,0,36.78,29.09Zm75.23,197.27h17.39V7.69H149.79V87.27c0,4-6.69,4-6.69,0V9.7L51.82,117,143.1,224V120.37H116.35c-4.34,0-4.34-6.69,0-6.69h30.1l1,.33a2.67,2.67,0,0,1,2.34,3ZM86.93,14.71l6-7H70.21a72.7,72.7,0,0,0-15.71,7Zm19.39-7V11a12.36,12.36,0,0,0,4,.67,11.79,11.79,0,0,0,7-2.34A8.3,8.3,0,0,1,120,7.69Zm21.74,10,5-6L132.4,11a11.54,11.54,0,0,0-13.71,0c-3,2-5.68,3-8.35,3a12.36,12.36,0,0,1-4-.67v8.7a7.14,7.14,0,0,0,4,1,12.3,12.3,0,0,0,7-2.67,13.3,13.3,0,0,1,8-3Zm-1.68,2h-1a10.9,10.9,0,0,0-6.69,2.34c-3,2-5.68,3-8.35,3a12.63,12.63,0,0,1-4-.67v9a12.54,12.54,0,0,0,8,0Zm-20.06,23.4,5.69-7-1.67.33a12.67,12.67,0,0,1-4-.66Zm9,158.48-6.69-7.69-2.34-.67v9a12.36,12.36,0,0,0,4,.67A8,8,0,0,0,115.35,201.61Zm6.35,7.69-5-6a10.32,10.32,0,0,1-6.35,2,12.36,12.36,0,0,1-4-.67v8.7a7.23,7.23,0,0,0,4,1,12.25,12.25,0,0,0,7-2.68A30.29,30.29,0,0,1,121.7,209.3Zm11.37,13.38L123.38,211a20,20,0,0,0-4.69,2.34c-3,2-5.68,3-8.35,3a12.67,12.67,0,0,1-4-.66v9a12.36,12.36,0,0,0,4,.67,11.79,11.79,0,0,0,7-2.34,13.37,13.37,0,0,1,8-3A12.63,12.63,0,0,1,133.07,222.68Zm2,3.68a8.49,8.49,0,0,1-2.68-1.68,11.54,11.54,0,0,0-13.71,0,8.36,8.36,0,0,1-2.67,1.68Z"/></g></g></svg>