<svg xmlns="http://www.w3.org/2000/svg" viewBox="0 0 211.25 41.31"><defs><style>.a2bca997-a70a-4098-a1f1-46322d5a0795{fill:#ffdd15;}.a3ea777d-7fbb-47aa-8b24-5cc8d9e5d245{fill:#404041;}</style></defs><title>Asset 1</title><g id="be0ba411-09d5-4802-8a1f-bf1477024e99" data-name="Layer 2"><g id="b311a776-beb5-4dcb-9524-c0d24b6d7ce0" data-name="Layer 1"><path class="a2bca997-a70a-4098-a1f1-46322d5a0795" d="M22.85,29.9a10,10,0,0,1-2.12.34A16.91,16.91,0,0,1,17.9,30a4.84,4.84,0,0,1-.26-2.12c0-2.37,0-4.61,0-7.15,0-1.14,0-2.83,0-4.15V13.65c-.47,1.15-.64,2.37-1.1,3.52a34,34,0,0,1-1.27,3.89l-.26,1c-.21.64-.38,1.32-.55,2s-.46,1.48-.67,2.32a3.47,3.47,0,0,1-1,.17,12.54,12.54,0,0,1-3.13,0c0-.17,0-.17.13-.29,0,0-.17,0-.17-.13-.55-2.37-1.4-4.15-1.95-6.3a15.9,15.9,0,0,0-.5-1.65,2.66,2.66,0,0,1-.17-.64C6.47,16.28,6,14.88,5.46,13.4a6.11,6.11,0,0,0-.09,1.52c0,.64-.13,1.15-.13,1.78,0,1.65.09,3.3.22,5.12a54.33,54.33,0,0,1,0,8.17c-.17.12-.17,0-.34-.09a11.53,11.53,0,0,1-2.46.26,16.48,16.48,0,0,0-2.28-.3c0-.72,0-1.4,0-2.2s0-1.48-.08-2.16,0-1.1,0-1.65c0-1.35-.13-2.71-.13-4.06A22.46,22.46,0,0,1,.29,17c-.12-2.58,0-5.07-.12-7.78,0-.34,0-.76,0-1.23a10.06,10.06,0,0,0,0-1.1.33.33,0,0,1,.08-.21,2.38,2.38,0,0,1-.12-1.1C.17,4.73,0,3.88,0,3S0,1.22.08.37c.17-.13.3,0,.51,0a11.76,11.76,0,0,0,2-.26c.47,0,1,0,1.48,0a8.78,8.78,0,0,1,2.08.3A1.84,1.84,0,0,1,7,.45a3.46,3.46,0,0,1,.3,1.27c.17.13.17.34.21.55a2,2,0,0,1,.21.89,6.51,6.51,0,0,1,.55,1.61c.55,2,1,4.06,1.65,6.09s1.23,4,1.61,6.05c.12-.34.29-.76.42-1.22a21.18,21.18,0,0,0,.76-2.92c0-.13.13,0,.09-.17,0,0,0,0,0,0l1-3.46c.46-1.23.63-2.5,1-3.73A29.69,29.69,0,0,0,16,.41c.3,0,.39-.17.68-.21h.13c.13,0,.13,0,.17,0a6.55,6.55,0,0,1,.89,0c.21,0,.46-.09.67-.09a9.87,9.87,0,0,1,2.25.13,7.34,7.34,0,0,1,2,.34c.05.88-.17,1.86-.12,2.83,0,.3.12.55,0,.85a12,12,0,0,1,0,3c0,.21,0,.47,0,.68a2,2,0,0,0,0,.59c.13,2.16-.09,4,0,5.84.13,2.37-.13,4.48,0,6.56,0,.34,0,.67,0,1s-.17.89,0,1.19c0,.12.13.08.13.21s-.13.34-.13.51c0,.63.13,1.18.13,1.82C22.85,27,23,28.51,22.85,29.9ZM7.06,1.72s0,.13,0,.13.34.08.22-.08c0,0,0,0,0,0l0-.05Zm.26.85s-.09,0,0,.13.12,0,.17-.05S7.36,2.57,7.32,2.57Z"/><path class="a2bca997-a70a-4098-a1f1-46322d5a0795" d="M32.07,4.34c0,1.31,0,2.62-.09,3.94s-.12,2.7-.12,4.06,0,2.66,0,4c-.09,2.2.08,4.57,0,6.94L31.73,28a8.59,8.59,0,0,0,0,1.48c.05.22.26.26.13.51a10.14,10.14,0,0,1-2,0,10.78,10.78,0,0,0-2.33-.08A1.61,1.61,0,0,1,27,30a1.86,1.86,0,0,1,0-1.18c0-1,0-1.65,0-2.58s0-2.25,0-3.35l-.17-5.67c0-1.1,0-2.15.09-3.17V10.94c0-.38.08-.72.08-1.06C26.87,8.4,27,7,27,5.44c0-.59.09-1.23.09-1.82C27,3.41,27,3.2,27,3V1.51A2.66,2.66,0,0,0,27,.32c.13,0,.17-.17.17-.3,1.4.13,3.3-.08,4.82.13,0,.13.13.09.22.17A30,30,0,0,0,32.07,4.34Z"/><path class="a2bca997-a70a-4098-a1f1-46322d5a0795" d="M50.6,30.2c-1,.12-2.49-.21-3.38-.17a7,7,0,0,1-.64-1.44,5.22,5.22,0,0,1-1,.89l-.43.17c-.12,0-.25.17-.38.21l-.34.08a10.88,10.88,0,0,1-1.05.34,2.37,2.37,0,0,1-.81.13,10.51,10.51,0,0,1-2,0,9.07,9.07,0,0,1-2.07-.8,10.8,10.8,0,0,1-1.74-1.23,6.84,6.84,0,0,1-1.1-2.5v-.46l-.12-.3a5.28,5.28,0,0,1,0-.89,7.32,7.32,0,0,1,0-1,7.73,7.73,0,0,1,1.56-3.17c.34,0,.55-.3.81-.47a14.11,14.11,0,0,1,2.49-1.48c.89-.38,1.91-.63,2.88-1a19.44,19.44,0,0,1,2.29-.72c.21-1,.08-2.88-1-3.09a2.51,2.51,0,0,0-2.28-.51,1.89,1.89,0,0,0-.68.3,2.05,2.05,0,0,0-.8.8,2.55,2.55,0,0,0-.55,1.86c0,.17.17.26.12.47a4.19,4.19,0,0,1-1.9,0c-1-.09-1.73-.09-2.62-.13l-.3-.25c0-2.2.25-4,1.36-5.21.16-.17.55-.42.71-.59a2.39,2.39,0,0,1,.55-.55,3.37,3.37,0,0,1,.51-.38l.34-.08a.76.76,0,0,1,.3-.26l.5-.17a8.75,8.75,0,0,1,2.59-.42c.16,0,0,0,.16,0a10.22,10.22,0,0,1,3.56.59,7.18,7.18,0,0,1,1.52.63c.43.38.89.68,1.31,1.06a4.06,4.06,0,0,1,.6.64c.12.21.16.55.38.76a18.25,18.25,0,0,1,.55,4.74c.08,1.6,0,3.21,0,4.82s-.05,3-.05,4.48c0,.47.09.94.09,1.44s0,1,0,1.53v.38A1.73,1.73,0,0,1,50.6,30.2Zm-5.08-9.65h0c-1.52.51-3.21.85-4.4,1.82-.21.59-.63,1-.51,1.74a1.85,1.85,0,0,0,.68,1.1,3.27,3.27,0,0,0,4-.64C45.74,23.47,45.48,22,45.52,20.55Z"/><path class="a2bca997-a70a-4098-a1f1-46322d5a0795" d="M68.88,1.93c0,.51.13,1,.08,1.53S69,4.52,69,5.07c-.08,1.14-.12,2.2-.12,3.25s.08,2.08,0,3.09c0,1.91,0,3.85.13,5.76A25,25,0,0,1,69,19.79c-.08.76,0,1.61,0,2.45s0,1.61,0,2.42c.05,1.6-.08,3.25,0,4.73a2,2,0,0,1,.09.81,13.24,13.24,0,0,1-3.72-.34,12.08,12.08,0,0,1-.39-1.48c-.12.08-.16.21-.29.29a3.05,3.05,0,0,1-.64.55c-.12.13-.17.26-.29.34a4.79,4.79,0,0,1-2.29.76,9.8,9.8,0,0,1-4-.59,7,7,0,0,1-1.23-.67,9.84,9.84,0,0,1-1.14-.81,1.67,1.67,0,0,1-.3-.55,3.38,3.38,0,0,1-.47-.59,16.63,16.63,0,0,1-.55-4.06,22.23,22.23,0,0,1,0-3.64,16.72,16.72,0,0,1,0-3.26,22.52,22.52,0,0,1,.42-2.41,3.29,3.29,0,0,1,.76-1.69,6.77,6.77,0,0,1,4.7-3.77,7.5,7.5,0,0,1,4.27,1.27c0-1.1,0-2.54,0-4,0-.89.08-1.82,0-2.7a15.3,15.3,0,0,1,.13-2.5c.38-.13.67,0,1-.17a29.87,29.87,0,0,1,3.85.17C69.09.83,68.84,1.34,68.88,1.93Zm-9.56,12.4a4.78,4.78,0,0,1-.26.64,4.16,4.16,0,0,0-.38,1.94l.09,3.77A20.63,20.63,0,0,0,59,23.47a3.48,3.48,0,0,0,.72,1.86,3.41,3.41,0,0,0,1.61.43c.21-.13.33,0,.55,0a1.73,1.73,0,0,0,1-.55,3.36,3.36,0,0,0,.42-.68c.05,0,.09,0,.09-.09a4.89,4.89,0,0,0,.38-.59,7.29,7.29,0,0,0,.21-2.5c0-1,0-1.94,0-3a11,11,0,0,0-.72-4.19A.36.36,0,0,1,63,14a6.21,6.21,0,0,0-1.31-.67.23.23,0,0,0-.25,0,1,1,0,0,0-.81-.13A2,2,0,0,0,59.32,14.33Z"/><path class="a2bca997-a70a-4098-a1f1-46322d5a0795" d="M78.06,10.52a43.26,43.26,0,0,1,.21,5.8c-.08,1.18,0,2.37-.08,3.51-.09,1.4-.17,2.67-.13,4,0,1.95.13,3.89.08,5.8-.12.08-.12.25-.21.34a17.77,17.77,0,0,1-4.44,0c-.34.29-.55,0-.59-.47,0-.68.08-1.4.08-2.16,0-1.52-.17-3.17-.12-4.78,0-.8,0-1.73,0-2.62a4.33,4.33,0,0,0,0-.72A18.93,18.93,0,0,1,73,16.57V14c0-.85.13-1.61.13-2.37a23,23,0,0,1,.08-2.92,10.92,10.92,0,0,1,4.41,0c.08,0,.12.08.12.17s.17,0,.34,0C78,9.42,78.19,10.1,78.06,10.52Zm.21-7.15a8.43,8.43,0,0,1-.21,2s-.13,0-.13.08a2,2,0,0,0-.72,0h-.63c-.09,0-.21-.08-.3-.08-1-.09-2.11-.09-3.21-.13,0-1.65.08-3.13.08-4.48.09-.13.21-.13.13-.26A26.08,26.08,0,0,1,78.1.5Z"/><path class="a3ea777d-7fbb-47aa-8b24-5cc8d9e5d245" d="M24.25,27.36a17.77,17.77,0,0,0,0,2.63c0,.33.08.76,0,.88s-.3.05-.43.09c-.29,0-.55.17-.89.21-.88.13-2.11.13-2.92.3a7.94,7.94,0,0,1-2.2-1.65,9.26,9.26,0,0,0-.12-1.1c0-.64,0-1.27,0-1.91,0-2.54-.09-4.82-.09-7.36-.72,2.71-1.69,5.12-2.41,7.83-.8.13-1.73.34-2.58.51-.21,0-.46,0-.63,0s-.17.17-.3.21-.38-.34-.68-.3c-.29-.33-.67-.55-1-.88a.65.65,0,0,0-.34-.26.17.17,0,0,1,.13-.25s-.17,0-.17-.13c-.47-1.86-1.15-3.77-1.7-5.42-.12-.38-.17-.8-.29-1.18a17.35,17.35,0,0,1-.72-2.28C7,19.2,7,21,7,22.84c0,.63,0,1.22,0,1.86,0,1.22.17,2.54.21,4,0,.8-.13,1.52-.17,2.32a32.9,32.9,0,0,1-3.81.34c-.12,0-.25.09-.38,0s-.21-.12-.34-.16a7.11,7.11,0,0,1-1.06-.6A5,5,0,0,0,1,30.32a1.61,1.61,0,0,0-.68-.5c.13-1.82-.08-4.06,0-6C.22,23,.26,21.91.22,20.93s0-1.73,0-2.62c0-1.48,0-2.84,0-4.32,0-.8,0-1.6,0-2.45C.22,10,.09,8.45.26,6.63A1.55,1.55,0,0,1,.13,6L.05,4.13C0,3.5,0,2.91,0,2.36a10.58,10.58,0,0,1,.08-2C.81.28,1.78.2,2.59.07a7.49,7.49,0,0,1,1,0A3.66,3.66,0,0,1,5,.12,15.1,15.1,0,0,0,6.9.41c.3.68.47,1.57.68,2.2,0,0,0,0,0,0a1,1,0,0,0,.26.64c-.17.13.08.25-.09.29,0,0,.13-.08.13,0,.34,1.14.63,2.37.93,3.51l.93,3.55c.51,2,1.35,4.06,1.69,6.22a6.13,6.13,0,0,0,.47-1.65,2.05,2.05,0,0,0,.21-.55,2.42,2.42,0,0,0,.17-.59c.13-.47.42-.89.3-1.35l.16-.13a2.82,2.82,0,0,1,.34-1.36,12.2,12.2,0,0,1,.68-2.41,24.86,24.86,0,0,0,.68-2.45,36.83,36.83,0,0,1,1-3.68A9.36,9.36,0,0,0,16,.37c.3,0,.64-.21,1-.25L18.58,0a16.9,16.9,0,0,1,4.19.38s0,.13,0,.26l1.06,1.1c0,.08,0,.12.13.12,0,1.82.12,3.56.08,5.21,0,1.48,0,3.13,0,4.86,0,.81-.08,1.65,0,2.5a3.77,3.77,0,0,0,.13.72c0,2-.13,4.4,0,6.81,0,1.18,0,2.37,0,3.55C24.25,26.18,24.25,26.73,24.25,27.36Zm-6.18,2.29a7.85,7.85,0,0,0,4.4,0A16.91,16.91,0,0,0,22.39,26a2,2,0,0,0,0-1.1,7.21,7.21,0,0,0,0-.93c0-.47-.08-1-.08-1.44s.08-.68.08-1-.08-.72-.08-1.1v-1.1a16.49,16.49,0,0,1,.08-2.16c0-1.14,0-2.41-.08-3.63v-.85c0-1.86-.09-3.6,0-5.33a29.55,29.55,0,0,0,0-3.26A28.65,28.65,0,0,1,22.43.71,18.45,18.45,0,0,0,19.05.37a12,12,0,0,0-2.58.25c-.39,1.82-1,3.56-1.49,5.29L14.73,7c-.63,2.2-1.27,4.27-1.82,6.43-.34,1.23-.76,2.5-1.1,3.72,0,.17,0,.38-.13.55-.38,0-.5-.46-.55-.76-.16-.55-.21-1.1-.33-1.56s-.34-1-.47-1.53a36.88,36.88,0,0,1-1.14-4.1A1.42,1.42,0,0,1,8.93,9a2.52,2.52,0,0,1-.16-.76c-.13-.55-.34-1-.47-1.52-.13-.3,0-.55-.17-.85S8,5.45,7.92,5.15c-.13-.51-.34-1-.47-1.52l-.08-.47c0-.17-.25-.34-.13-.55C7,2.32,7,1.93,6.9,1.6L6.61.71C6.23.58,5.8.71,5.34.58A17.22,17.22,0,0,0,.43.67C.3,3,.64,5.23.64,7.48c0,1.18-.13,2.24-.08,3.38v1.48c0,.55,0,1.06,0,1.7,0,1.48-.09,2.79,0,4.1C.68,22,.73,25.59.68,29.48a10.36,10.36,0,0,0,4.4,0,11.47,11.47,0,0,0,.09-1.73c0-.17.08-.38,0-.51s0-.13-.08-.34a7.49,7.49,0,0,1,0-1.06.33.33,0,0,1,.08-.21c-.17-.3,0-.46-.08-.76s0-1,0-1.52A16.15,16.15,0,0,0,5,21.27a7.77,7.77,0,0,1-.09-1.78c0-.72,0-1.44-.08-2.15a17.74,17.74,0,0,1,.08-2.08c0-.72,0-1.52.13-2.41.13,0,.21-.17.34-.21.34.17.38.59.51.89l.42,1.06A20.48,20.48,0,0,0,7,16.74a15.2,15.2,0,0,1,.72,2.16c.17.8.42,1.48.59,2.2.63,1.65,1.14,3.56,1.61,5.21a14.89,14.89,0,0,0,3.3-.13s.08-.26.29-.3c.17-.72.34-1.39.55-2,.13-.84.6-1.9.77-2.79s.55-1.69.88-2.58a23.45,23.45,0,0,1,.85-2.75,2.85,2.85,0,0,1,.3-1.14l.33-1.19c.22-.21.13-.63.51-.59S18,13.57,18,14a11,11,0,0,0-.05,1.26A21.06,21.06,0,0,0,18,17.72c0,.17,0,.12.08.25a.4.4,0,0,0-.13.3A9.16,9.16,0,0,0,18,20.42V22.5c-.05,1.14,0,2.11,0,3.17A24.3,24.3,0,0,0,18.07,29.65ZM3.22,31c-.34-.29-.76-.46-1.14-.76A1.26,1.26,0,0,1,2,30c-.22,0-.56-.21-.85-.09a3.27,3.27,0,0,0,1,.72A2.08,2.08,0,0,0,3.22,31ZM4.45,31a4.22,4.22,0,0,0-1-.68c0-.12,0,0,0-.17-.29.13-.72,0-.93.05a4.05,4.05,0,0,1,.89.55c.17.12.26.29.38.33S4.15,31,4.45,31Zm1.73-.13c-.46-.12-.72-.84-1.18-.89a1.8,1.8,0,0,0-.68,0,.76.76,0,0,0-.46.12,4.45,4.45,0,0,1,1,.81A6.82,6.82,0,0,0,6.18,30.83Zm.05-13c-.05,0-.09.05-.13.05-.3,0-.68-.85-.89-.85a10.86,10.86,0,0,1,0,1.14c0,.13,0,0,.17,0a2.29,2.29,0,0,0,.55.68c.17.17.51.42.38.72,0-.05,0-.05,0,0v0a7.44,7.44,0,0,1-1-1c0,.3,0,.51,0,.85l.59.51c.17.21.63.5.47.72-.05,0-.05,0-.09,0-.34,0-.68-.76-1-.76,0,.33,0,.63,0,1.1A8,8,0,0,0,6.56,22c0-1.7-.12-3.3-.16-5.12a14.27,14.27,0,0,0-1.1-1.1l-.09.76c.21.17.38.42.59.63S6.27,17.55,6.23,17.84Zm.12-2.07c-.12,0,0-.13-.12-.13-.3-.72-.51-1.52-.81-2.24a17.41,17.41,0,0,0-.12,1.9,7.88,7.88,0,0,1,.84.81c.13.13.13.21.26.21C6.44,16,6.31,15.94,6.35,15.77ZM6.65,25c-.13-.85,0-1.78-.09-2.75a3.56,3.56,0,0,1-1.14-.81v1.1a5.65,5.65,0,0,1,1.14,1.1c-.12,0-.12,0-.16,0A3.22,3.22,0,0,1,5.46,23c0,.46.13.84,0,1.22.13,0,.09-.08.22-.08Zm0,.25c-.47,0-.8-.63-1.19-.85l.09,1c.13,0,.13.13.25.13a4.8,4.8,0,0,0,.68.59c.13.13.17.21.21.17C6.69,26,6.65,25.63,6.65,25.29Zm.13,4.53c-.47-.13-.81-.6-1.27-.81,0,.3,0,.43,0,.72a7.07,7.07,0,0,0,1.23.93A5.36,5.36,0,0,1,6.78,29.82Zm0-1.48-1.23-.85c0,.47,0,.68,0,1.14a4.29,4.29,0,0,1,1,.76c.13.13.21.22.26.17A3.13,3.13,0,0,0,6.78,28.34Zm0-1.61c-.5-.17-.72-.59-1.18-.89v1.23c.46.29.76.59,1.23.89C6.73,27.45,6.78,27.19,6.73,26.73ZM7.62,2.65a.16.16,0,0,0,.09,0C7.83,2.74,7.66,2.7,7.62,2.65Zm4.06,24.84c-.17-.3-.76-.42-.63-.8-.3,0-.42-.09-.72,0C10.8,27,11.05,27.53,11.68,27.49Zm1.57-.21-.47-.34a1.19,1.19,0,0,0-.46-.3c-.3-.12-.68.17-1,.05a2.9,2.9,0,0,0,.88.72s0,0,0,.08A4.12,4.12,0,0,0,13.25,27.28ZM14.39,27l-.84-.63c-.13.21-.51.08-.64.21.3,0,.51.51.81.64A1.05,1.05,0,0,0,14.39,27Zm.68-1.14A3.16,3.16,0,0,1,14,25.12a4.75,4.75,0,0,1-.25,1c.38.17.67.46,1.06.67A4.63,4.63,0,0,0,15.07,25.88Zm.51-1.48a2.56,2.56,0,0,1-1.1-.76c-.13.34-.21.72-.34,1.1.34.3.63.59,1,.89C15.28,25.29,15.45,24.87,15.58,24.4Zm.55-1.61.34-1.1c-.51,0-.81-.5-1.19-.8a18.23,18.23,0,0,0-.72,2.37l1.06.89.34-1-.51-.51c-.17-.17-.51-.38-.51-.55a.21.21,0,0,1,.21-.21c.13,0,.34.34.47.47Zm.72-2.28c-.51-.21-.77-.64-1.15-.93l-.29,1c.38.3.72.68,1.1,1ZM17.23,19a11.92,11.92,0,0,1-1-.93l-.38,1.1c.38.34.72.72,1.1,1Zm.29-1.31c-.38-.22-.59-.6-.93-.89v-.09c-.12.3-.17.64-.29.93a11.26,11.26,0,0,0,1.05,1A1.6,1.6,0,0,0,17.52,17.72Zm0-4c.13,0,0-.17,0,0l-.46,1.57c.17.21.51.51.34.8-.3,0-.26-.25-.47-.38-.13.3-.17.6-.3.93.47,0,.6.51.89.68Zm2.25,17.22c.12.12.29.25.42.12a6.48,6.48,0,0,1-.89-.67c0-.13,0-.05,0-.17-.29,0-.46-.13-.76-.09Zm1.43,0c-.21-.3-.55-.42-.72-.72a4.75,4.75,0,0,0-.76,0C20.19,30.54,20.4,31.13,21.2,31Zm.55-.09a7.16,7.16,0,0,0,1.65-.16c-.33-.13-.5-.77-.84-.77-.17,0-.17.09-.34.09.13.29.51.38.55.68-.47.12-.64-.43-1-.55-.12,0-.12,0-.25,0s-.42,0-.55.08Zm1-28.39a2.62,2.62,0,0,0,0,1.15c.38.12.63.55,1,.84,0-.5,0-.59,0-1.22l-.21,0Zm0,4.66a6.38,6.38,0,0,1,0,1.27,1.82,1.82,0,0,1,.67.72l-.08.17c-.3,0-.42-.43-.55-.38a6.49,6.49,0,0,1,0,.84c.34.3.59.64.93.93,0-.63,0-1.52,0-2.16a1.77,1.77,0,0,0,0-.46,5.21,5.21,0,0,0-.47-.47A3.57,3.57,0,0,0,22.69,7.14Zm0,12.27.76.8c.13.13.13.26.25.21,0-1.31,0-2.92,0-4.4a10.26,10.26,0,0,1-1-1c0,.51,0,.8,0,1.27a7.41,7.41,0,0,1,1,1.1c-.12,0,0,.13-.08.17s-.3-.13-.47-.34-.29-.38-.42-.38c0,.3,0,1,0,1.27l.5.42c.17.17.39.26.43.55,0,0,0,.09,0,.09a2.17,2.17,0,0,1-.89-.68A6.53,6.53,0,0,0,22.73,19.41Zm1-14.68c-.46,0-.63-.55-1-.72a9.84,9.84,0,0,0,0,1.06A4.67,4.67,0,0,0,23.7,6,11.26,11.26,0,0,1,23.74,4.73Zm-1-2.67a4,4,0,0,1,1,1.06c0-.3,0-.64,0-1.1-.13,0,0,0-.17,0a5.82,5.82,0,0,0-.72-.81A6.93,6.93,0,0,1,22.73,2.06Zm0,10.83.67.72c.13.13.17.17.22.17a5.09,5.09,0,0,0,0-1.35c-.47,0-.59-.64-.93-.76Zm0,7a8.5,8.5,0,0,1,0,1,7.86,7.86,0,0,0,1,.85,8.67,8.67,0,0,1,0-1C23.19,20.64,23.07,20.21,22.73,19.92Zm1,2.32c-.34-.21-.59-.59-1-.8a4.62,4.62,0,0,1,0,1.06c0,.12.08,0,.12,0a4.59,4.59,0,0,0,.93,1C23.78,23.05,23.74,22.75,23.74,22.24Zm-1-15.48c.3.12.46.42.68.63,0,.13.12.17.21.13,0-.38,0-.8,0-1.19-.38-.12-.59-.42-.93-.71A10.81,10.81,0,0,0,22.77,6.76Zm1,8.8c0-.55-.16-.76-.12-1.27l-.89-.85a9.34,9.34,0,0,0,0,1.06A12.65,12.65,0,0,0,23.78,15.56Zm0,8.25s-.08,0-.21,0l-.46-.43c-.13-.12-.21-.29-.34-.25.3.13,0,.38,0,.51a2.37,2.37,0,0,0,0,.55c.38.29.64.63,1,.93A10.45,10.45,0,0,1,23.78,23.81Zm-1-12.74a10.18,10.18,0,0,0,.89,1.06v-1c-.34-.3-.59-.59-.89-.89Zm1.06,14.39c-.47-.17-.64-.55-1-.85a4.77,4.77,0,0,1,0,1.36,3.51,3.51,0,0,0,.81.72c0,.12.12.21.25.17C23.87,26.31,23.87,25.92,23.83,25.46Zm0,1.69c-.51,0-.68-.46-1-.68,0,.47,0,.81,0,1.27l.47.51c.17.13.3.38.51.38C23.83,28.08,23.87,27.7,23.87,27.15Zm0,3.43c0-.64-.09-1.1-.09-1.74-.46.13-.59-.38-.88-.55a11.23,11.23,0,0,1,0,1.36A4.42,4.42,0,0,0,23.87,30.58Z"/><path class="a3ea777d-7fbb-47aa-8b24-5cc8d9e5d245" d="M33.52,19c0,.42,0,1,0,1.39,0,0,0,.13.08.17a.46.46,0,0,0-.08.21,10.25,10.25,0,0,0,0,1.91c0,.59,0,1.22,0,1.86,0,1.31.17,2.66.09,3.85,0,.93-.21,1.94-.17,3-.13.09-.25.09-.38.26a2.58,2.58,0,0,0-1,.08c-.43,0-.93-.08-1.23.09-.13,0-.17-.13-.25-.09-.3,0-.64,0-.94,0a1.37,1.37,0,0,1-.84-.13c-.09-.13.13-.17.25-.17a9.35,9.35,0,0,1-1.94-1.4c-.47,0-.3-.8-.26-1.27,0-1-.12-2.07,0-3,0-1.06,0-2.07,0-3.09s0-1.95-.08-2.92c0-.59-.09-1.18-.09-1.78,0-1.6,0-3.25,0-4.82a5.37,5.37,0,0,1,.05-.89c0-.29,0-.63,0-.93,0-1.35,0-2.83,0-4.19,0-1.73,0-3.47,0-5.2a6.68,6.68,0,0,0,0-1.61c0-.13.17-.13.13-.34A11.9,11.9,0,0,0,29.5,0c.25,0,.47.09.72.09.08,0,.17,0,.25,0a12.85,12.85,0,0,1,1.32.09,5.55,5.55,0,0,1,.55.46,17,17,0,0,0,1.14,2c.12.09,0,.17.21.21-.17,3.51.13,7.07.13,10.33,0,1-.13,2-.17,3S33.52,18,33.52,19Zm-2.2,10.66a6.63,6.63,0,0,0,0-.89c0-.47,0-.93,0-1.4s0-.93,0-1.39v-2.8c0-2.28-.08-4.48,0-6.6a5.89,5.89,0,0,0,0-.84c0-1.23,0-2.46,0-3.85,0-.68,0-1.36,0-2,.08-1.23.17-2.45.13-3.68,0-.89,0-1.82.08-2.71s-.08-2,0-3a27.8,27.8,0,0,0-4.1,0c-.13,1.19,0,2.41,0,3.68-.13,4.07-.05,9.06-.17,12.32,0,2,.17,3.93.21,5.75,0,2.62-.09,4.91-.09,7.19C28.7,29.52,29.88,29.65,31.32,29.65Zm-1,1.82a7.35,7.35,0,0,1-1.15-1.15c-.08-.08-.16-.29-.29-.33s-.17,0-.21,0a4.5,4.5,0,0,0-1.1,0,11.76,11.76,0,0,0,2.24,1.48Zm.93,0c-.38-.33-.68-.8-1.1-1.1-.13,0-.26,0-.26-.16s0-.05,0-.09a3.52,3.52,0,0,0-.68-.08,5.36,5.36,0,0,0,.68.8C30.3,31.13,30.64,31.59,31.28,31.42Zm1.39,0a4.34,4.34,0,0,1-1.18-1.27,10.48,10.48,0,0,0-1.1,0,4.82,4.82,0,0,1,.63.68c.17.21.43.63.64.72S32.34,31.38,32.67,31.38Zm.64-2.58c-.72-.25-1.06-.84-1.57-1.31,0,.51,0,.89,0,1.31.38,0,.6.38.81.68a7.35,7.35,0,0,1,.46.72c-.63-.17-.8-.93-1.27-1.19,0,.38,0,.72.21.85,0,.08,0,.17,0,.3a3.11,3.11,0,0,0,1.19,1c-.05.09-.05.17.08.13C33.18,30.62,33.22,29.65,33.31,28.8Zm.17-15c0-.08-.13,0-.17,0a18.4,18.4,0,0,1-1.52-1.69c0,.38-.09.85-.05,1.23.6.34.93,1.14,1.48,1.61,0,0,.13.21.13.12A6.37,6.37,0,0,0,33.48,13.82ZM31.74,15.3c.26,0,.38.22.55.43s.43.51.68.72c.08.12.25.29.34.25,0-.38,0-.85,0-1.14-.51-.64-1.06-1.23-1.56-1.86h-.05C31.79,14.2,31.74,14.75,31.74,15.3Zm0,1.57c.6.34.81,1,1.36,1.4,0,0,.12.21.12.08.05-.42,0-.89.05-1.31a8.22,8.22,0,0,1-1.53-1.65Zm0,.38c.05,1.48.05,3.13.05,4.87,0,0,.08-.13.16-.09a6.77,6.77,0,0,0,1.36,1.65c-.13-.59,0-1.14-.13-1.69,0,.13-.08,0-.21,0-.13-.34-.72-.76-1-1.1-.09-.13-.26-.47,0-.47.08,0,.13.13.17.22a6.62,6.62,0,0,1,1,1.22V20.51a14.77,14.77,0,0,1-1-1.14c-.13-.22-.51-.47-.22-.68.3.34.64.76.94,1.06.12.12.25.34.33.29.09-.5-.08-.8,0-1.22C32.67,18.35,32.21,17.67,31.74,17.25Zm1.61,10.24a14.53,14.53,0,0,1-1.56-1.65,12.29,12.29,0,0,1-.05,1.31c.55.47,1,1.1,1.57,1.52A5.6,5.6,0,0,0,33.35,27.49Zm0-.38a7.62,7.62,0,0,1,0-1.35c-.51-.6-1.1-1.1-1.56-1.7,0-.08,0-.17.16-.21A13.28,13.28,0,0,1,33,25c.13.09.25.3.34.26a9.36,9.36,0,0,0,0-1.06c-.09-.13-.26-.26-.38-.43-.38-.42-.85-1-1.14-1.35-.05,1.19-.05,2.2,0,3.22,0,.08.08-.09.16-.05A5.15,5.15,0,0,0,33,26.77C33.14,26.9,33.27,27.11,33.39,27.11ZM31.79,9.63a13.25,13.25,0,0,0,1.65,1.91,10.67,10.67,0,0,1,0-1.27.43.43,0,0,1-.22,0c-.5-.55-.84-1.23-1.35-1.78A5.86,5.86,0,0,1,31.79,9.63Zm1.69,2.46c-.51-.68-1.14-1.27-1.69-1.95v1.61c.5.68,1.1,1.27,1.69,1.95C33.52,13,33.48,12.72,33.48,12.09ZM31.91,8.28s0-.08.13-.08c.51.59.89,1.31,1.4,1.9,0-1.35-.09-2.37-.13-3.85,0,0-.17,0-.21,0-.3-.64-.81-1.1-1.15-1.69V6.17A9.36,9.36,0,0,1,33.1,7.6c.08.13.34.38.12.55-.5-.46-.76-1.1-1.27-1.56C32,7.35,31.91,7.69,31.91,8.28Zm1.4-3.89s-.09.13-.17,0c-.34-.42-.55-1.1-1-1.4h.08c-.13-.08-.13-.29-.25-.38A11.3,11.3,0,0,1,32,4a3.88,3.88,0,0,1,.47.76,13,13,0,0,1,.89,1.18C33.31,5.32,33.27,5.07,33.31,4.39ZM32,2.19s.12,0,.12.08c.38.64.85,1.27,1.19,2,0-.42,0-1,0-1.39-.64-.51-.76-1.49-1.31-2.08A6.54,6.54,0,0,0,32,2.19Z"/><path class="a3ea777d-7fbb-47aa-8b24-5cc8d9e5d245" d="M35.36,25.16a2.65,2.65,0,0,1,0-.89,7.32,7.32,0,0,1,0-1,7.13,7.13,0,0,1,1.48-3.13c.13,0,.13,0,.17,0a15,15,0,0,1,6.18-3.05,7.93,7.93,0,0,1,2.11-.72c.13-.76.21-2-.42-2.45a1.76,1.76,0,0,0-.55-.21,1.23,1.23,0,0,0-.51-.21,3.05,3.05,0,0,0-1.65.42,2.82,2.82,0,0,0-1.31,2.37c0,.25.08.47,0,.68a.25.25,0,0,1,0,.29c-1.27.09-2.16.09-3.56.13,0,0,0-.13,0-.21a10.14,10.14,0,0,1-.89-1c-.21,0-.25,0-.38,0a5.05,5.05,0,0,0,.51.55c.21.21.72.42.47.68a1.38,1.38,0,0,1-.68-.47l-.72-.67a.16.16,0,0,1,0-.22.19.19,0,0,1-.25-.12,23.73,23.73,0,0,1,.17-2.63,4.3,4.3,0,0,1,1.1-2.41A5.61,5.61,0,0,1,38,9.55a2.07,2.07,0,0,1,.46-.38c.09-.08.22-.08.3-.13s.21-.17.34-.21a7.34,7.34,0,0,1,.72-.25,11.65,11.65,0,0,1,2.71-.43,11.34,11.34,0,0,1,3.34.55A7.51,7.51,0,0,1,47,9.17a3,3,0,0,1,1,.72h.25a8.11,8.11,0,0,1,2.67,2.37,8.87,8.87,0,0,1,.8,3.93l.17,2.92c.13,1.91,0,3.68,0,5.5l.13,1.48c0,1.61.08,3.47.08,5-.08.08-.17.08-.25.21-.13,0-.17-.13-.25-.17a16.08,16.08,0,0,1-2.08.08c-.51.05-1,.3-1.48.13-.08-.08.13-.13,0-.21-.33-.47-.84-.76-1.18-1.19,0-.33-.25-.46-.3-.8a4.2,4.2,0,0,1-2.32,2.2c-.22,0-.38.17-.55.21-.38.09-.89,0-1.19.26-.34-.09-1,0-1.48-.13-2.16-.34-3.17-2-4.61-3.17,0-.09.08-.09,0-.17l-.38-.6s0-.08,0-.12a.12.12,0,0,0-.09-.05,4.93,4.93,0,0,1-.59-1.73V25.5C35.44,25.37,35.36,25.29,35.36,25.16Zm.42.3v.38a4.16,4.16,0,0,0,.76,1.82l.21.38a4.74,4.74,0,0,0,1.1.85l.64.38a8.06,8.06,0,0,0,2.15.8,7.45,7.45,0,0,0,.94-.08,4.39,4.39,0,0,0,1.31-.13,6.72,6.72,0,0,0,2.75-1.14c.12-.13.34-.21.42-.34s.21-.47.25-.47c.34-.08.3.51.43.72s.21.68.42.89a22.78,22.78,0,0,0,3,.21.54.54,0,0,1,0-.55A19,19,0,0,1,50.08,27c0-.42-.13-.88-.13-1.31,0-1.18,0-2.49,0-3.68V20.64c0-.3,0-.64,0-1L50,16.83c0-.51,0-1,0-1.53a12.55,12.55,0,0,0-.46-3L49.36,12a3.51,3.51,0,0,0-.59-1,9.7,9.7,0,0,0-1.44-1.27s0,0,0,0a4.49,4.49,0,0,0-2.2-.8c-.21-.17-.64-.17-.89-.3-.47,0-1-.12-1.44-.12a3.49,3.49,0,0,0-.93.12,4.86,4.86,0,0,0-2,.39c-.55,0-.93.46-1.44.63l-1.06,1-.21.21c-1.1,1.06-1.4,2.84-1.48,4.83,1.31,0,2.71.25,4.1.21a4.38,4.38,0,0,1,.13-1.48c0-.17.17-.21.17-.38a3.35,3.35,0,0,1,2-1.69c1.22-.43,2.24.33,3.09.84l.38.47a4.48,4.48,0,0,1,.33,2.54c.47.33-.21.55-.42.63-1.31.25-2.54.89-3.85,1.27a17.52,17.52,0,0,0-3,1.4c-.47.42-1,.8-1.53,1.18-.08.25-.29.38-.38.63a.36.36,0,0,0,0,.22.37.37,0,0,0-.21.12,4.92,4.92,0,0,0-.64,2.5A6.27,6.27,0,0,0,35.78,25.46Zm2.54-8.38c-.21-.21-.64-.46-.55-.84-.38,0-.68-.09-.93,0a3.94,3.94,0,0,0,.8.88C37.77,17.08,38.11,17.17,38.32,17.08Zm2.41,0a6,6,0,0,1-.89-.68,6,6,0,0,0-.85,0,1.84,1.84,0,0,1,.47.68c-.38.13-.55-.51-.89-.68a1.37,1.37,0,0,0-.59,0c.21.17.38.68.72.8A3.63,3.63,0,0,0,39.84,17,3.33,3.33,0,0,0,40.73,17Zm1.35,14.43c-.29-.26-.63-.85-1-1a7.83,7.83,0,0,1-.89-.12c.13.25.55.42.68.76-.09,0-.09,0-.17,0-.76-.51-1.27-1.23-2.29-1.48a.42.42,0,0,0-.38-.17A6,6,0,0,0,42.08,31.47ZM40.86,15.3c-.3-.21-.38-.55-.64-.8-.29.72-.29,1.82.38,2.07A8.44,8.44,0,0,1,40.86,15.3Zm-.72,9.1a1.75,1.75,0,0,1-.09-.84,2.39,2.39,0,0,1,.43-1.11v-.21c1.27-1.31,3.17-1.69,5.12-2.24.08.09,0,.34.12.42-.12,1.36.3,3-.21,4.11-.42.84-1.35,1.14-2.24,1.56a3.64,3.64,0,0,1-2.41-.59s0-.13-.13-.17-.17-.12-.25-.17A2.82,2.82,0,0,1,40.14,24.4Zm1.39-10.32A2.35,2.35,0,0,0,41,13.4a5.51,5.51,0,0,0-.59.76,3.86,3.86,0,0,0,.55.85A3.51,3.51,0,0,1,41.53,14.08Zm-1.14,9.64a1.82,1.82,0,0,0,1.36,1.78,1.32,1.32,0,0,1-.13-.76C41,24.57,40.81,24.06,40.39,23.72Zm.09-.38a6.42,6.42,0,0,0,.84,1c.09.08.17.25.3.21a8.22,8.22,0,0,1,.25-1.06,7.84,7.84,0,0,1-1-1.06C40.73,22.79,40.52,23,40.48,23.34Zm.59-1.18a2.87,2.87,0,0,0,1,1c.05-.16.21-.29.3-.5a2.94,2.94,0,0,0-.8-.81A5.75,5.75,0,0,1,41.07,22.16Zm1.22-8.55c-.25-.17-.21-.55-.46-.72-.17.13-.47.17-.59.34a4.66,4.66,0,0,1,.51.72ZM43.35,31.3a4.54,4.54,0,0,0-.89-.76c0-.09,0-.13,0-.17-.34,0-.6.08-1,.08a12.27,12.27,0,0,0,1,1A7.6,7.6,0,0,0,43.35,31.3Zm.43-10c-.17.13-.38.43-.6.64a5,5,0,0,0-1.27,2.41c0,.51.05,1.18.43,1.27a2.56,2.56,0,0,0,1.14-.09,4.64,4.64,0,0,0,.68-.38,2.83,2.83,0,0,0,.93-.67c.51-1.1.17-2.88.21-4h0A9.43,9.43,0,0,0,43.78,21.31ZM42,21.69a4.41,4.41,0,0,0,.59.76c.13-.33.51-.54.55-.84a4.13,4.13,0,0,1-.55-.21C42.38,21.52,42.08,21.57,42,21.69Zm1.14-8.33c0-.26-.42-.42-.3-.68a2.92,2.92,0,0,0-.63.13l.38.68A1.59,1.59,0,0,1,43.1,13.36ZM44.58,31l-1-.8a2.59,2.59,0,0,0-.85.21,10,10,0,0,1,1,.93Zm.13-17.47a5.58,5.58,0,0,0-1.57-.72c.09.21.21.29.3.5C43.86,13.1,44.37,13.4,44.71,13.49Zm-1.57,7.74c.09,0,.17.21.26.17.16-.21.42-.3.59-.51A2.86,2.86,0,0,0,43.14,21.23Zm3.26,7.28c-.13.33-.68.59-.93.8l-.09.13s-.17,0-.25.08A4.87,4.87,0,0,1,44,30c.25.33.59.59.84.88a3,3,0,0,0,.64-.46,2.65,2.65,0,0,0-.76-.55c.25-.42.72.13.93.34C46,29.73,46.61,29.18,46.4,28.51Zm2.54,2.58A10.59,10.59,0,0,0,48.13,30a1.26,1.26,0,0,0-.59,0A3.65,3.65,0,0,0,48.94,31.09Zm2.41-.22c-.34-.21-.68-.5-1-.76-.25.09-.42-.08-.72.05a6.43,6.43,0,0,1,.47.63c-.42.08-.55-.47-.85-.72a3.72,3.72,0,0,1-.67,0c.21.34.46.64.63,1C50,30.87,50.59,31,51.35,30.87ZM49.28,11a4.36,4.36,0,0,1,.63,1.6c.59.22.8.85,1.19,1.27A4.52,4.52,0,0,0,49.28,11Zm1.94,3.42c-.46-.42-.72-1-1.18-1.43a11,11,0,0,1,.12,1.14.36.36,0,0,1,.22,0c.29.51.63,1,.93,1.52-.51-.08-.72-.8-1.06-1.14,0,.3,0,.42,0,.76.17.26.42.51.59.76s.38.6.51.89c-.13,0-.17,0-.25,0a10.51,10.51,0,0,0-.85-1.14,3.83,3.83,0,0,1,0,.68c.47.42.81,1.14,1.23,1.52A23.28,23.28,0,0,0,51.22,14.37Zm.43,10.41c0-.55,0-1,0-1.61-.38-.55-.89-1-1.27-1.56a14.63,14.63,0,0,1,0,1.48c.13,0,.13.08.21.08A15.39,15.39,0,0,0,51.65,24.78Zm0,.38c-.59-.46-.85-1.18-1.4-1.69,0,.42,0,1,0,1.4.05,0,.17,0,.17.08.43.51.85,1,1.23,1.52C51.73,26,51.69,25.59,51.69,25.16Zm-.13-5.88a8.87,8.87,0,0,1,0-1c-.51-.3-.76-.89-1.19-1.36,0,.3.05.51.05.81C50.84,18.14,51.1,18.82,51.56,19.28Zm.17,7.41c-.47-.26-.89-1-1.35-1.44a5,5,0,0,0,0,1.22c0,.09.08,0,.17,0l1.27,1.65C51.77,27.83,51.82,27.15,51.73,26.69Zm-.13-5.38a1.72,1.72,0,0,0-.34-.46c-.25-.34-.63-.64-.88-.93,0,.55-.05,1,0,1.52l.17-.09a7.91,7.91,0,0,0,1.05,1.32C51.48,22.16,51.69,21.69,51.6,21.31Zm0-.46a10.6,10.6,0,0,0,0-1.19c-.42-.46-.76-1.1-1.18-1.48v1.36A11.55,11.55,0,0,1,51.6,20.85Zm.17,7.44c-.55-.33-.84-1-1.35-1.43a10.09,10.09,0,0,0,0,1.1c.08,0,.08-.13.21-.09.47.47.76,1.1,1.19,1.61A10.13,10.13,0,0,0,51.77,28.29Zm.09,2.58c0-.5,0-.59,0-1.1-.56-.46-.81-1.18-1.36-1.65-.08.68.13,1.15,0,1.74C51,30.16,51.39,30.54,51.86,30.87Z"/><path class="a3ea777d-7fbb-47aa-8b24-5cc8d9e5d245" d="M70.55,31.68c-.51,0-1-.09-1.57-.09a10.15,10.15,0,0,0-1.69.09,12,12,0,0,1-1.91-1.86c-.33.21-.63.55-1,.76-.21.13-.42.17-.64.29s-.33.26-.55.39a4.78,4.78,0,0,1-2.37.38,11.15,11.15,0,0,1-2.75-.43,3.78,3.78,0,0,1-1.18-.8,14.3,14.3,0,0,1-1.06-1.14c-.38-.43-.63-.89-.93-1.27a.41.41,0,0,1,0-.21,2.29,2.29,0,0,1-.64-1.27,19.53,19.53,0,0,1-.46-3.64c-.09-1-.09-2-.09-3s-.12-2.11-.08-3.21a21.88,21.88,0,0,1,.34-2.29,10.52,10.52,0,0,1,.46-1.69,1.2,1.2,0,0,1,.43-.59,6,6,0,0,1,.93-1.48,3.72,3.72,0,0,1,1.31-1.14,5.63,5.63,0,0,1,1.14-.68,3.76,3.76,0,0,1,1.27-.47,7.22,7.22,0,0,1,4.36,1.23c0-.59,0-1.31,0-2s0-1.35,0-2c0-.42.08-.8.08-1.18a23.49,23.49,0,0,1,.09-4c1.48-.42,3-.09,5,0A14.74,14.74,0,0,0,70,2.06c.17.17.21.42.38.59,0,1.32,0,2.58,0,3.94,0,1.94.08,3.85.12,5.88,0,.63,0,1.23,0,1.86.17,1.65.12,3.26.21,4.91,0,1,.12,2,.08,2.88,0,.25,0,.5,0,.76-.08,1.1,0,2.07,0,3.09,0,.59-.13,1.14-.13,1.77,0,.47,0,1,0,1.48,0,.26,0,.51,0,.72,0,.55.3,1,.34,1.57C70.84,31.68,70.67,31.51,70.55,31.68Zm-5-2.24a6.62,6.62,0,0,0,3,.25V27.15a21.25,21.25,0,0,1,0-2.88,13.76,13.76,0,0,1,0-2.32c0-.72-.09-1.48,0-2.2,0-.21.09-.43.09-.64,0-.93,0-2-.09-3s-.08-1.86-.08-2.75c0-.47-.08-1-.08-1.44s0-.93,0-1.4c0-1.69-.17-3.51,0-5.24,0-.47,0-.93,0-1.36s.12-.8,0-1a2.81,2.81,0,0,0,0-1.06c.09-.34,0-.72.13-1.06-.13,0-.17.13-.34.09S68.18.75,68,.75a13.34,13.34,0,0,0-3.68,0c-.09,1.9,0,3.64,0,5.54,0,1.31,0,2.63,0,3.77-.29.17-.42-.09-.63-.21a2.35,2.35,0,0,1-.43-.13,1.29,1.29,0,0,0-.29-.25c-.17-.09-.34-.13-.51-.22a5.62,5.62,0,0,0-2.75-.59,3.48,3.48,0,0,0-1.1.3.84.84,0,0,1-.34.17,6.23,6.23,0,0,0-3.26,3.51s-.17,0-.12.08A3.94,3.94,0,0,0,54.38,14a16.63,16.63,0,0,0-.34,4.1c.05,1.48,0,3,.09,4.53.13,1.14.13,2.24.34,3.25a5.85,5.85,0,0,0,.25,1c.17.51.64.8.85,1.27.29.17.59.42.93.63a8.26,8.26,0,0,0,2.75,1,10.3,10.3,0,0,0,2.83,0c.3-.08.6-.16.85-.25s.3-.17.38-.3a.32.32,0,0,1,.25-.08c.47-.51,1.06-.85,1.36-1.52.21,0,.17.25.25.38s.13.17.17.25v.34A6.89,6.89,0,0,1,65.6,29.44ZM58.74,31c-.38-.46-.93-.76-1.23-1.27-.55-.21-1-.59-1.48-.8C56.84,29.77,57.43,30.75,58.74,31Zm1.27.22a9.05,9.05,0,0,0-1-.89.31.31,0,0,1,.08-.21,6.56,6.56,0,0,1-1-.26c.25.42.76.64,1,1.06,0,.08-.12.08,0,.13A5.35,5.35,0,0,0,60,31.26Zm4.44-10.2v1.65a6.19,6.19,0,0,1-.17,1.06A14.69,14.69,0,0,1,63.52,25a2.24,2.24,0,0,1-1.18,1,4.92,4.92,0,0,1-3-.51,5.73,5.73,0,0,1-.6-1,4.35,4.35,0,0,1-.12-.81,36.59,36.59,0,0,1-.34-6.09,7.8,7.8,0,0,1-.09-1.31,4.11,4.11,0,0,1,.55-1.61,3.76,3.76,0,0,1,1.1-1.57,7.13,7.13,0,0,0,.85-.25,4.12,4.12,0,0,1,2.88,1.27c.67,1.35.67,3.34.8,5.25C64.45,20,64.41,20.51,64.45,21.06Zm-5.79-4.61a9,9,0,0,0,0,1c.46.25.72.76,1.23,1a16.11,16.11,0,0,1,.33-2.16c-.42-.38-.8-.85-1.22-1.23a4.4,4.4,0,0,0-.34.93c.42.42,1.1.81,1.18,1.36-.12,0-.12,0-.25,0a2.81,2.81,0,0,0-.59-.64C58.91,16.62,58.78,16.4,58.66,16.45Zm0,1.35c0,.42,0,.85,0,1.23a7.31,7.31,0,0,1,1.14.89,5.24,5.24,0,0,1,0-1.1C59.5,18.48,59.08,18.18,58.7,17.8Zm.08,2.71c.43.21.68.63,1.1.89,0-.38,0-.72,0-1.15-.38-.25-.76-.63-1.14-.84C58.78,19.7,58.7,20.21,58.78,20.51ZM59,22a5.27,5.27,0,0,0,1,.93c0-.38-.08-.68-.13-1.1,0,.08-.08,0-.17,0a4.62,4.62,0,0,0-.93-.89,3.92,3.92,0,0,0,.09,1S58.91,22,59,22Zm0,1.52c.55.17.8.64,1.27.89-.09-.47-.17-.8-.26-1.23-.46,0-.8-.51-1.18-.76A9.05,9.05,0,0,0,59,23.47Zm1.61,2.16a2.82,2.82,0,0,1-.26-.89,8.6,8.6,0,0,1-1.27-.93C59.21,24.78,59.63,25.63,60.65,25.63ZM59.21,14.71c.38.43.76.81,1.18,1.23a3.54,3.54,0,0,0,.13-.76,8.84,8.84,0,0,0-1.06-1.06A1.41,1.41,0,0,0,59.21,14.71ZM61.75,31.3a8.57,8.57,0,0,0-1.06-1,10.84,10.84,0,0,1-1.31,0,14.16,14.16,0,0,0,1.27,1A4.83,4.83,0,0,0,61.75,31.3ZM59.67,13.87a12.65,12.65,0,0,0,1.06,1c0-.29.25-.46.34-.72-.21-.29-.47-.55-.72-.84A1,1,0,0,0,59.67,13.87ZM64,19.92a9.21,9.21,0,0,0-.13-1.27,8.71,8.71,0,0,0,0-1.06,8.47,8.47,0,0,0-.68-3.34A1.11,1.11,0,0,0,62,13.74a1.22,1.22,0,0,0-.47.34c0,.08.13.21,0,.29s-.17-.12-.17.05c-.17.25-.46.55-.34.88a.46.46,0,0,0-.17.17,16.81,16.81,0,0,0-.63,5A19.11,19.11,0,0,0,61,25.59s-.09,0-.09.12a7,7,0,0,0,1.36,0,1,1,0,0,0,.38-.3c.08-.08.21-.08.21-.12.17-.13.21-.34.34-.51a7.11,7.11,0,0,0,.55-.93A7.18,7.18,0,0,0,64,21.06,10.86,10.86,0,0,1,64,19.92Zm-3.3-6.69a8.94,8.94,0,0,0,.59.68,1.88,1.88,0,0,1,.72-.47c-.17,0-.55-.25-.55-.08A1,1,0,0,0,60.73,13.23Zm3.51,17.09c-.21-.25-.51-.38-.72-.63a1.78,1.78,0,0,1-.72.34c.13.25.47.29.47.68-.13-.09-.09,0-.26,0-.21-.21-.42-.38-.63-.59a4.86,4.86,0,0,1-1.1.16c.25.34.63.51.85.94A6.1,6.1,0,0,0,64.24,30.32Zm.93-1.26c0-.22-.17-.47-.21-.72,0,.25-.34.29-.34.46s.21.17.26.3a.72.72,0,0,1,.12.42s-.08,0-.21,0c-.17-.17-.25-.42-.46-.55-.13.17-.34.3-.47.47a2.72,2.72,0,0,0,.72.63c.17-.25.63-.29.68-.63C65.3,29.44,65.21,29.18,65.17,29.06Zm2.71,2.24a9.82,9.82,0,0,1-1.14-1.19c-.26,0-.59-.17-.72-.12A5.31,5.31,0,0,0,67.5,31.3,1.18,1.18,0,0,0,67.88,31.3Zm2.28,0a5.08,5.08,0,0,1-1.31-1.14,7.84,7.84,0,0,1-1,0c.21.33.72.63.72,1-.21,0-.38-.21-.51-.38a1.24,1.24,0,0,1-.59-.63c-.08,0-.21,0-.25-.05.25.47.76.72,1,1.19C69,31.26,69.66,31.3,70.16,31.3ZM68.77,7.22c.55.3.76.89,1.31,1.19V7.56a9.83,9.83,0,0,0-1.31-1.27A3.22,3.22,0,0,0,68.77,7.22Zm0-5.16a1.7,1.7,0,0,1,.38.38A9.08,9.08,0,0,1,70,3.8a.23.23,0,0,0-.13.08,3.22,3.22,0,0,1-.8-.93c-.09-.13-.13-.25-.26-.3a8.13,8.13,0,0,1,0,1.48c.05,0,.17,0,.17.09A5.22,5.22,0,0,1,70,5.4c-.33.34-.84-.8-1.1-.88a11.11,11.11,0,0,1-.08,1.31,9.19,9.19,0,0,0,1.35,1.22c0-1.14,0-2.87,0-4.27,0,0-.12.09-.12,0A11.43,11.43,0,0,0,68.81,1,9.06,9.06,0,0,0,68.77,2.06Zm1.35,6.77a9.54,9.54,0,0,1-1.35-1.27v1c.34.3.72.6,1.06.85.08.09.12.21.25.21A4.13,4.13,0,0,1,70.12,8.83Zm-1.27,1.44s0,0,.05-.09c.29,0,.46.43.67.64s.38.34.51.46V9.93h-.25c-.21-.42-.68-.63-1-1A13,13,0,0,0,68.85,10.27Zm0,1.57a8.87,8.87,0,0,0,0,1c.47.38.77,1,1.27,1.31a7.85,7.85,0,0,0,0-1C69.66,12.77,69.23,12.3,68.81,11.84Zm0-.26c.51.3.81.85,1.27,1.19,0-.34,0-.81,0-1.1a9.83,9.83,0,0,1-1.23-1.27A11.58,11.58,0,0,0,68.85,11.58Zm1.36,3.13a12.39,12.39,0,0,1-1.36-1.35c0,.59,0,1,.05,1.56a3.31,3.31,0,0,1,.84.68c.09.09.21.17.3.25s.12.22.25.22C70.25,15.6,70.25,15.14,70.21,14.71Zm.12,1.78c-.08,0-.12,0-.21,0-.25-.51-.76-.8-1.22-1.23,0,.43.08.77.08,1.19.21.17.42.38.68.59a2.63,2.63,0,0,0,.72.47A7.53,7.53,0,0,1,70.33,16.49Zm.09,3.09c-.09,0-.13,0-.17,0A5.14,5.14,0,0,0,69,18.48c0,.29,0,.59,0,.8.26.21.38.47.64.68s.63.46.8.84a.31.31,0,0,1-.3,0L70,20.72a7.56,7.56,0,0,1-1-1,8.15,8.15,0,0,0,0,1.4,6.64,6.64,0,0,0,.72.64c.21.21,1,.71.42.84a8.61,8.61,0,0,0-1.14-1,5.64,5.64,0,0,0,0,1.14h.13c.38.47.89.72,1.18,1.19a.3.3,0,0,1-.29.17A11.78,11.78,0,0,0,69,23.05a9.3,9.3,0,0,0,0,1.06c.09,0,.13-.09.21-.09a6.13,6.13,0,0,0,1.23,1.31,18.58,18.58,0,0,0,0-2.11c0-.3.08-.6.08-.93C70.5,21.4,70.46,20.51,70.42,19.58ZM70,17.67A8.65,8.65,0,0,1,69,17c0,.39,0,.68,0,1.1.43.39.93.77,1.36,1.1C70.42,18.48,70.42,18,70,17.67Zm-1,8.17c.13,0,.13.08.21.08.34.43.76.72,1.1,1.15,0-.43,0-.81.13-1.36,0,0-.17.05-.21,0-.34-.55-.89-.84-1.23-1.35Zm1.31,1.57c-.13,0-.13,0-.25,0,0-.09,0-.13,0-.17-.22-.26-.51-.55-.77-.81,0-.08-.12-.21-.21-.16v.88c.09,0,.09.09.17.09.13.17.34.29.55.51s.72.76.26.76c-.13,0,0-.13-.17-.21a.84.84,0,0,0-.21-.13c-.22-.21-.39-.51-.64-.59a7.24,7.24,0,0,0,0,1c0,.08.09,0,.13,0,.38.42.89.68,1.1,1.23-.59,0-.8-.6-1.23-.89,0,.42.13.68.09,1a5.54,5.54,0,0,0,1.48,1.23A13.1,13.1,0,0,1,70.29,27.41Z"/><path class="a3ea777d-7fbb-47aa-8b24-5cc8d9e5d245" d="M72.9,23.05c0-1.48,0-2.8,0-4.19,0-1.57.12-3.68.21-5.63.13-1.65,0-3,.17-4.48a12.74,12.74,0,0,1,4.4,0c.08,0,.13.08.13.17s.17,0,.29,0c.55.76,1,1.52,1.61,2.24a1.63,1.63,0,0,1,.42.76c.05.13-.12.08-.21.08a2.41,2.41,0,0,0,.13,1,8.12,8.12,0,0,0,0,1.78,11.86,11.86,0,0,0,0,1.27c0,.21.34.42,0,.59.09,2.16.09,4.86.09,7.06a4.09,4.09,0,0,0,.08,1.49c0,.12-.12.12-.12.25-.09,1.9-.17,3.68-.34,5.54-.13.13-.09.26-.17.42s-.21,0-.38.09a14.43,14.43,0,0,0-1.86,0,22.63,22.63,0,0,1-2.33,0,17.84,17.84,0,0,1-1.69-1.35,1.09,1.09,0,0,1-.34-.13,6.48,6.48,0,0,1,0-2.24c0-.68-.09-1.32-.09-1.95C72.94,24.87,72.9,23.94,72.9,23.05Zm.17-17.86c0-1.61,0-2.92,0-4.57.13,0,.17,0,.13-.17A17.54,17.54,0,0,1,76.16.37c.55,0,1.27.17,1.9.13V.75c.59.42.89,1.1,1.61,1.4,0,.8,0,1.65,0,2.49a3.52,3.52,0,0,0-.09.64c0,.5.17,1.14-.25,1.35a7,7,0,0,0-2.29,0c-.59,0-1.18-.17-1.69-.08,0-.09-.25,0-.34-.13s0-.08-.12-.13a11.48,11.48,0,0,1-1.57-.88c0-.09-.08-.09,0-.17S73.11,5.23,73.07,5.19Zm.29,16.46c0,1.4,0,2.71,0,4.11s0,2.41,0,3.85a21.8,21.8,0,0,0,4.35,0,36.35,36.35,0,0,0,0-4.32c0-.8,0-1.61,0-2.41,0-.55.08-1.06.08-1.65,0-1.1,0-1.86.09-2.75V16.79c0-.09,0-.17,0-.26s0-.38,0-.59c0-.42,0-.89,0-1.31,0-1.69-.17-3.85-.17-5.42a9.69,9.69,0,0,0-4,0c-.08,1.52-.08,3.09-.13,4.36,0,.59,0,1.22,0,1.9-.08,1.4-.17,2.79-.17,4.27Zm.13-16.88c1.35-.09,2.88.21,4.23.17a11.9,11.9,0,0,0,0-2.46s0,0,0,.09c-.08-.3,0-.89-.12-1.61A18.47,18.47,0,0,0,73.57.88C73.53,2.27,73.49,3.46,73.49,4.77Zm2.75,1.56a14,14,0,0,1-1.1-1,3.18,3.18,0,0,0-1.44,0A5,5,0,0,0,76.24,6.33Zm-.17,24.88A6.58,6.58,0,0,1,75,30.16a10.59,10.59,0,0,0-1.1-.05,13.51,13.51,0,0,0,1.48,1.19C75.56,31.17,75.94,31.26,76.07,31.21Zm1.14-1.14c-.17,0-.34,0-.5.09.12.12.29.25.42.38s.3.29.34.46-.13,0-.17,0a4.12,4.12,0,0,1-1.06-.89c-.3,0-.51.05-.76.05,0,.16.25.33.46.5s.38.51.55.55a4.57,4.57,0,0,0,.81,0h1.82a3.57,3.57,0,0,0-.55-.55c-.17-.21-.34-.55-.59-.63S77.47,30.07,77.21,30.07ZM77.89,5.4a3.13,3.13,0,0,0-1.06,0,3.27,3.27,0,0,1,.72.81.14.14,0,0,1-.08,0c-.51-.13-.72-.59-1.19-.85,0,0,0-.08,0-.12s-.46-.09-.63,0a9.24,9.24,0,0,1,.71.68c.26.25.34.38.68.38.51,0,1.27-.13,1.91-.17A10.07,10.07,0,0,1,77.89,5.4Zm.17-.33c.25.42.76.63,1.14.93a1.14,1.14,0,0,0,0-.38,9.41,9.41,0,0,1-1-1.15A1.47,1.47,0,0,1,78.06,5.07Zm0-3.35c0,.05.13.05.17.05a11,11,0,0,1,1.1,1.31,3.83,3.83,0,0,0,0-.72c-.51-.26-.76-.76-1.23-1.06A1.47,1.47,0,0,1,78.1,1.72Zm0,7.83a2.63,2.63,0,0,1,0,.85c.51.63.89,1.39,1.44,2-.08-.3,0-.64-.08-.89a2.25,2.25,0,0,0-.34-.47A14.58,14.58,0,0,0,78.1,9.55Zm0,13a24.66,24.66,0,0,0,1.78,2.07c0-.42,0-1.14,0-1.39a8.69,8.69,0,0,1-1.74-1.74C78.14,21.86,78.1,22.12,78.1,22.54Zm0,.51c0,.25,0,.76,0,1.14.6.63,1.1,1.31,1.65,1.95,0-.38.17-.77.09-1.06,0-.13-.3-.3-.42-.47C79,24.11,78.44,23.39,78.1,23.05ZM79.33,3.2s0,0-.09,0c-.38-.38-.71-.77-1.1-1.15a6.43,6.43,0,0,0,0,.85,13,13,0,0,0,1.14,1A2.49,2.49,0,0,0,79.33,3.2Zm.46,23.32c-.59-.6-1.05-1.27-1.65-1.82a12.29,12.29,0,0,0,0,1.31l.21.17a16.66,16.66,0,0,0,1.31,1.65C79.71,27.28,79.79,27,79.79,26.52Zm-.5-22.09a12.19,12.19,0,0,1-1.06-1,2,2,0,0,0,0,.51,10,10,0,0,0,1,1.18C79.2,5,79.33,4.68,79.29,4.43Zm.34,8.46c-.47-.63-1-1.27-1.44-1.94,0,.63,0,1.31.12,1.9,0-.17.09-.17.09-.25.42.55.8,1.14,1.27,1.65A8,8,0,0,0,79.63,12.89Zm.29,8.55c0-.09-.34-.25-.46-.38-.38-.47-.89-1.06-1.23-1.44,0,.63,0,.76,0,1.4A12.3,12.3,0,0,0,79.92,23c0-.29,0-.55,0-.89A3.78,3.78,0,0,0,79.92,21.44Zm-.25,6.77c-.51-.59-1-1.14-1.48-1.78a10.84,10.84,0,0,0,0,1.31c0-.08.08-.08.17-.08a10.43,10.43,0,0,0,1.23,1.56C79.63,28.76,79.67,28.63,79.67,28.21Zm-.09,1.44a18.92,18.92,0,0,1-1.39-1.74c0,.47,0,1.19,0,1.78A11.28,11.28,0,0,0,79.46,31C79.5,30.45,79.58,30.11,79.58,29.65ZM79.84,18a20.44,20.44,0,0,1-1.57-1.82c0,.43,0,1.1,0,1.48.42.55,1,1.19,1.44,1.7.08,0,.12.17.21.12A8.32,8.32,0,0,1,79.84,18ZM79.92,20a11.69,11.69,0,0,1-1.69-1.82,9.25,9.25,0,0,1,0,1.06.27.27,0,0,1,.17,0,4.84,4.84,0,0,0,.72.93,3.57,3.57,0,0,0,.8.8A8.48,8.48,0,0,1,79.92,20Zm-.21-5.33a11.64,11.64,0,0,1-1.4-1.69,11.61,11.61,0,0,0,0,1.18c.43.47.85,1.06,1.27,1.52,0,0,.09.17.17.13C79.71,15.39,79.75,15,79.71,14.63Zm.08,3c0-.55,0-1,0-1.43a18,18,0,0,1-1.44-1.61,10.08,10.08,0,0,0,0,1.1C78.82,16.36,79.29,17,79.79,17.67Z"/><path class="a2bca997-a70a-4098-a1f1-46322d5a0795" d="M98.72,36.83c0,.55,0,1.1,0,1.65a4.33,4.33,0,0,0,0,.72,18.37,18.37,0,0,1-4.74,0c0-.17-.08-.17-.17-.22.13-3.21,0-6.34,0-9.9-.08-3-.12-5.41-.17-8.75V19c0-.46,0-.93,0-1.39,0-.72,0-1.44,0-2.16,0-.55,0-1.14,0-1.61a2,2,0,0,1,0-.51c0-.21-.08-.42-.08-.59a10.86,10.86,0,0,1,0-1.14c0-.59,0-1.19,0-1.82a1.29,1.29,0,0,0,.13-.42,11.43,11.43,0,0,1,3.6,0,7.77,7.77,0,0,1,.38,1.48,3.69,3.69,0,0,0,.5-.34c.09,0,.13-.17.22-.25A1.56,1.56,0,0,1,99,9.88c.08-.09.21-.09.29-.13a5.08,5.08,0,0,1,1.57-.51c.55-.08,1.18,0,1.77-.08a4.74,4.74,0,0,1,1,.08,12.4,12.4,0,0,1,2.62.85c.38.59,1.06,1,1.48,1.61.85,1.27.93,2.92.93,5,0,1.69,0,3.68.09,5.59v1.35a11.29,11.29,0,0,1-.13,2.67,3,3,0,0,1-.59,1.27c0,.8-.63,1.05-.89,1.65a1.85,1.85,0,0,0-.72.59c-.21,0-.51.17-.55.34a3.78,3.78,0,0,0-.89.38,6.73,6.73,0,0,1-1.39.17,15.4,15.4,0,0,1-2.46-.09.91.91,0,0,1-.5-.13.76.76,0,0,0-.3,0,4.9,4.9,0,0,1-1.61-.88C98.76,31.92,98.76,34.59,98.72,36.83Zm0-20.94c0,1.1-.08,2.15,0,3.3.17,2,0,4,.22,5.71.25.25.29.5.55.72a3.38,3.38,0,0,0,1.39.5,3.14,3.14,0,0,0,2.5-.84,7.22,7.22,0,0,0,.34-2.92c.08-.93,0-2.16,0-3.22a16.26,16.26,0,0,0-.17-3.17,2.27,2.27,0,0,0-1.4-2,.45.45,0,0,1-.38-.09,3.38,3.38,0,0,0-3.09,1.82C98.68,15.8,98.81,15.76,98.76,15.89Z"/><path class="a2bca997-a70a-4098-a1f1-46322d5a0795" d="M127,22.78l0,0s0,0,0,.05a2.68,2.68,0,0,0,0,.8,7.73,7.73,0,0,1-.42,3.17,4.07,4.07,0,0,1-.89,1.23,7.1,7.1,0,0,1-1.31,1.27,5,5,0,0,1-1.1.63,4.23,4.23,0,0,1-.93.3,7.47,7.47,0,0,1-5,.09c-.13-.05-.13,0-.26,0a8.93,8.93,0,0,1-2.7-1.27,5.36,5.36,0,0,1-.77-.55l-.33-.47a3.89,3.89,0,0,1-.85-1.48,11.49,11.49,0,0,1-.51-3.93c0-1.61.13-3.51,0-5.16a6.62,6.62,0,0,1-.13-1.65l.21-1.15a6.25,6.25,0,0,1,.68-2,10.44,10.44,0,0,0,.55-1,9.26,9.26,0,0,1,1.91-1.73,5.74,5.74,0,0,1,2.66-.93,13.71,13.71,0,0,1,6,1.22.76.76,0,0,0,.55.17s.08,0,.12,0l1,.93a13.5,13.5,0,0,1,1,1.74,10.59,10.59,0,0,1,.43,2.16A22.06,22.06,0,0,1,127,18.3v2.83a9.6,9.6,0,0,0,0,1.52C127,22.7,126.94,22.78,127,22.78Zm-5-3.34c0-.8,0-1.61,0-2.29a1.77,1.77,0,0,1-.08-.46,1,1,0,0,0,0-.34c0-.25,0-.68-.13-.93a2.36,2.36,0,0,0-1.52-1.69c-.21,0-.3-.09-.47-.09-.42.09-.93,0-1.31.13a4.59,4.59,0,0,0-.72.47,3,3,0,0,0-.63.67,3,3,0,0,0-.26,1.14c-.08,1.06,0,2.42,0,3.52v3.25a1.2,1.2,0,0,0,0,.38A2.21,2.21,0,0,0,117,24a3,3,0,0,0,.46.89,3.06,3.06,0,0,0,.64.76,2.94,2.94,0,0,0,1.69.42.65.65,0,0,0,.26-.08c.33-.13.59-.22.93-.39a5.49,5.49,0,0,1,.88-.8,5.24,5.24,0,0,0,.26-1.31A31,31,0,0,0,122,19.44Z"/><path class="a2bca997-a70a-4098-a1f1-46322d5a0795" d="M151,9a9.08,9.08,0,0,1,1.53.59,4.89,4.89,0,0,1,.67.42c.17,0,.26.17.47.17a8.21,8.21,0,0,1,1.57,2l.12.3c.13.25.26.29.34.63a5.54,5.54,0,0,1,.13,1.14c.08.93.25,2,.25,3s-.08,2.28,0,3.34c0,2-.21,4.53-.17,6.43l.08,2.88c0,.21.09.55-.17.76-.16,0-.16-.13-.29-.17-1.35,0-2.71.17-4.1.09a.84.84,0,0,0-.34-.17,1.24,1.24,0,0,1,0-.43c-.05-.84-.05-1.82-.05-2.75s.17-2.11.13-3.21c0-.51-.08-1-.08-1.53s.08-1,.08-1.43V18.05a9.35,9.35,0,0,0-.08-1.86,2.9,2.9,0,0,0-.17-.55,1.7,1.7,0,0,0-.51-1,2.05,2.05,0,0,0-.89-.63,2.11,2.11,0,0,0-1.14-.17,2.3,2.3,0,0,0-1.27.42c-.34.21-.55.51-.85.68a1.25,1.25,0,0,1-.29.59,2.28,2.28,0,0,1-.13.76c.17,1.49,0,3.56.08,5,.05.89.05,2.11.05,3a7.6,7.6,0,0,1,0,1.35,21.56,21.56,0,0,0,.08,2.41c0,.85,0,1.65-.08,2.5-1.44,0-3.13.08-4.7,0-.13-.09-.13-.21-.21-.26-.09-.88-.13-1.9-.13-2.92,0-.55,0-1.14,0-1.73s-.12-1.19-.12-1.82.08-1.44.12-2.07.09-1.36.09-2a14.49,14.49,0,0,0,0-2,6.91,6.91,0,0,0-.08-.85,5.62,5.62,0,0,0-.13-.89,2,2,0,0,0-.17-.71s-.08-.13-.12-.22a.2.2,0,0,1-.05-.16c0-.13-.16-.22-.21-.3l-.17-.3-.29-.17c-.05,0-.09-.17-.17-.21s-.17,0-.21,0a2.67,2.67,0,0,0-2.84.55,2.79,2.79,0,0,0-.55,1.48,2.79,2.79,0,0,0-.13.8.67.67,0,0,0,.09.26,10.17,10.17,0,0,1-.17,1.9c0,.51,0,1,0,1.48,0,2.12-.13,4.32,0,6.52,0,.8.08,1.65,0,2.45,0,.47.17,1,0,1.36-1.44.12-3.35-.13-4.7,0-.09,0-.09-.17-.17-.21a15,15,0,0,1,0-2.33,9.86,9.86,0,0,0-.21-1.61,31.72,31.72,0,0,1,0-4v-3a5.05,5.05,0,0,1,0-1.1c0-.09-.17,0,0-.09,0-.59,0-1.14,0-1.77a31.4,31.4,0,0,1-.26-3.39c0-.67.34-1.27,0-1.94.22-.68-.08-1.44.22-2.16a13.57,13.57,0,0,1,4,.13c0,.21.13.63,0,.67.17.17.17.55.3.76a2.51,2.51,0,0,1,.67-.63,7,7,0,0,1,3-1,2.85,2.85,0,0,1,1-.05,5.93,5.93,0,0,1,3.18.77.85.85,0,0,0,.33.16A4.31,4.31,0,0,0,144,11.15v0a6.28,6.28,0,0,1,4.9-2.28C149.62,8.91,150.34,9,151,9ZM144,11.19a.14.14,0,0,1,0,.09S144,11.24,144,11.19Z"/><path class="a2bca997-a70a-4098-a1f1-46322d5a0795" d="M174.16,30.72c-1,.13-2.5-.21-3.39-.17a7.73,7.73,0,0,1-.63-1.43,5.26,5.26,0,0,1-1,.88l-.42.17c-.13,0-.25.17-.38.22l-.34.08c-.29.13-.67.21-1.06.34a2.53,2.53,0,0,1-.8.13,11.4,11.4,0,0,1-2,0,8.65,8.65,0,0,1-2.07-.81A10.17,10.17,0,0,1,160.28,29a6.84,6.84,0,0,1-1.1-2.5V26l-.13-.3a6.6,6.6,0,0,1,0-.89,5.75,5.75,0,0,1,0-1,7.78,7.78,0,0,1,1.56-3.18c.34,0,.55-.29.81-.46A14.11,14.11,0,0,1,164,18.71c.89-.38,1.91-.64,2.88-1a21.3,21.3,0,0,1,2.28-.72c.22-1,.09-2.87-1-3.09a2.51,2.51,0,0,0-2.28-.5,2,2,0,0,0-.68.29,2.08,2.08,0,0,0-.8.81,2.55,2.55,0,0,0-.55,1.86c0,.17.17.25.12.46a3.93,3.93,0,0,1-1.9,0c-1-.08-1.74-.08-2.62-.12l-.3-.26c0-2.2.25-4,1.35-5.2.17-.17.55-.42.72-.59a2.39,2.39,0,0,1,.55-.55,3.37,3.37,0,0,1,.51-.38l.34-.09c.08-.08.17-.21.29-.25l.51-.17A8.71,8.71,0,0,1,166,8.76c.17,0,0,.05.17,0a10.71,10.71,0,0,1,3.56.59,7.21,7.21,0,0,1,1.52.64c.42.38.89.68,1.31,1.06a4.4,4.4,0,0,1,.59.63c.13.21.17.55.38.76a17.48,17.48,0,0,1,.55,4.74c.09,1.61.05,3.22,0,4.83s0,3,0,4.48c0,.47.09.93.09,1.44s0,1,0,1.52v.38A1.73,1.73,0,0,1,174.16,30.72Zm-5.08-9.64h0c-1.52.5-3.22.84-4.4,1.82-.21.59-.63,1-.51,1.73a1.85,1.85,0,0,0,.68,1.1,3.26,3.26,0,0,0,4-.63C169.29,24,169,22.52,169.08,21.08Z"/><path class="a2bca997-a70a-4098-a1f1-46322d5a0795" d="M180.93,20.44c1.4-2,2.62-4.11,4-6.1-2.25-.08-5-.17-7.45-.21,0-.17,0-.34-.25-.38,0-1.35-.17-2.54-.05-4l.26-.29c1.44-.13,3.09-.13,4.69-.17,0,0,0,0,.09,0,1.27,0,2.66.08,4,.12a10.11,10.11,0,0,0,1.65,0c1.06,0,2.16,0,3.38,0a24.16,24.16,0,0,1,.21,2.63,2.37,2.37,0,0,1,0,.84,6.55,6.55,0,0,1,0,.89c0,.59-.51,1-.68,1.52-.16,0-.08.22-.25.22a10.36,10.36,0,0,1-1.31,2.11c-.93,1.31-1.74,2.84-2.75,4.11l-.72,1c-.25.34-.55.68-.72,1s-.25.47-.42.68a14.52,14.52,0,0,0-1.27,2c2.33-.05,4.06-.13,6.47,0a5,5,0,0,1,1.61.12c0,1.4.3,3.05-.08,4.36a6.24,6.24,0,0,1-1.53.13,4.94,4.94,0,0,1-1.14-.05c-3.68,0-7.62.13-11.09.09a.9.9,0,0,0-.33-.25,24.8,24.8,0,0,1-.05-3.94c.05-.13-.08-.13-.12-.21.59-1.06,1.31-2,1.94-3.09A17.24,17.24,0,0,1,180,22ZM189.64.68a21.42,21.42,0,0,1-1.73,2.71c-.63,1-1.06,1.86-1.69,2.7-.68.13-1.78,0-2.75,0-.26,0-.93.29-1.06-.3a9.07,9.07,0,0,0-1.23-2.12,7.82,7.82,0,0,0-1.61-1.86c-.12-.38-.46-.55-.67-.89.13-.17,0-.25,0-.46,1.14,0,2.24-.09,3.3,0,.8.5,1.31,1.27,2.12,1.9.67-.47,1-1.27,1.69-1.78.13,0,.08.05.21.05.8-.13,1.9,0,2.71-.05C189.26.55,189.48.47,189.64.68Z"/><path class="a2bca997-a70a-4098-a1f1-46322d5a0795" d="M195.06,28c-1-1.95-.93-4.57-.93-7.11,0-2.24.13-4.48.08-6.56,0-1.44.13-3.17,0-4.57,1.15-.55,3.35-.42,4.7-.21a.78.78,0,0,0,.34.17,23.19,23.19,0,0,1,0,3,.57.57,0,0,1,.08.33c0,.89.09,1.82,0,2.8,0,.67,0,1.43,0,2.15s-.08,1.19-.12,1.78,0,1,.08,1.57a15.28,15.28,0,0,1,0,2.07,4,4,0,0,0,.34,1.95,2.3,2.3,0,0,0,2.29,1,4.24,4.24,0,0,0,1.31-.38,3.51,3.51,0,0,0,1.14-1.44,2.6,2.6,0,0,0,0-1.18c0-.64.05-1.32,0-1.91a7.93,7.93,0,0,1-.08-1c0-1.74-.09-3.6,0-5.5a35.54,35.54,0,0,0,0-5.25,4.58,4.58,0,0,1,1.52-.21,23,23,0,0,1,2.33,0,2.06,2.06,0,0,1,.76.13.6.6,0,0,1,.38,0,17.77,17.77,0,0,1,0,2.2c.08,3.09.12,6.6,0,10.11,0,.64,0,1.31,0,1.95,0,.84-.09,1.61-.09,2.41,0,.42.13.8.09,1.23a21.14,21.14,0,0,0,0,2.87c-.13.17-.17.17-.13.38-.13,0-.21,0-.25.13a15.38,15.38,0,0,1-3.39-.08c-.12-.55-.38-1-.46-1.61A6.46,6.46,0,0,1,201.07,31c-.3.05-.68-.08-1,0a8,8,0,0,1-2.15-.46,3.05,3.05,0,0,1-1-.47,6.31,6.31,0,0,1-1.19-1.18A5.72,5.72,0,0,1,195.06,28Z"/><path class="a3ea777d-7fbb-47aa-8b24-5cc8d9e5d245" d="M110.31,17.07a44,44,0,0,1,.3,6.85c0,.47-.08.94-.13,1.36a4.46,4.46,0,0,0-.17,1.56c-.08.3-.33.55-.25.85,0,.08-.17.08-.25.13-.26.42-.51.84-.77,1.22s-.63.68-.88,1.06c-.26,0-.43.3-.6.42a6.17,6.17,0,0,1-1.43.72,3.65,3.65,0,0,1-.72.34,6.83,6.83,0,0,1-2.5.26,13.49,13.49,0,0,1-2.37-.13c.13,2.28.09,4.53.17,7.15v1a5.61,5.61,0,0,1-.08,1.15c-.17.08-.22,0-.39,0s-.17.12-.25.16a10.9,10.9,0,0,0-2.54.17c-.29,0-.59,0-.93,0-.08,0,0-.21-.08-.25a15.32,15.32,0,0,1-2.63-2.08c.13-4.1,0-7.48-.08-11.21,0-2.33-.09-5.2-.09-7.19,0-.89,0-1.9,0-3,0-1.44,0-2.75,0-4.32,0-.93,0-1.78,0-2.66a1.45,1.45,0,0,0,0-.85.66.66,0,0,0,.13-.42,11.62,11.62,0,0,1,3.63,0,7.9,7.9,0,0,1,.39,1.56c.12-.17.33-.25.5-.42a2.12,2.12,0,0,1,.3-.3,4.72,4.72,0,0,1,1.1-.55,6,6,0,0,1,2.67-.42,6.36,6.36,0,0,1,3.34.68c.21.12.46.17.59.25s.25.38.42.47.21,0,.3.08c.3.13.59.38.89.55a4.85,4.85,0,0,1,1.77,1.69,5.36,5.36,0,0,1,.6,1.91A20.46,20.46,0,0,1,110.31,17.07ZM94.24,38.78a25.46,25.46,0,0,0,4,.08c0-1.06.08-2.12.08-3.09,0-.21-.08-.46-.08-.68,0-1.1.12-2.11.12-3a18.9,18.9,0,0,1,0-3c0-.08.21,0,.3,0s0,.17.13.22a4,4,0,0,0,2.45,1c.21,0,.42,0,.63.08,1.4.05,3,.05,3.9-.67.08-.13.08-.26.21-.3.25.21.38-.13.55-.25-.13,0-.17-.09-.13-.22l.13-.12c.13,0,.17.12.34.12.29-.46.8-.8.84-1.43a5.3,5.3,0,0,0,.55-1.74,22.49,22.49,0,0,0,0-3c0-1.69,0-3.55,0-5.37a22.23,22.23,0,0,0-.21-3.73,4.21,4.21,0,0,0-1.23-2.28,8.5,8.5,0,0,0-.93-.89s-.13,0-.17,0,0-.09-.08-.09-.3-.12-.43-.21c-.42-.13-.84-.25-1.26-.42a16.07,16.07,0,0,0-2.59,0,1.2,1.2,0,0,1-.38,0,10.59,10.59,0,0,0-1.56.42,7.36,7.36,0,0,1-.72.47c-.21.17-.34.46-.64.5-.17.22-.21.43-.33.55-.17,0-.17-.29-.34-.38A11.41,11.41,0,0,0,97,9.67a14,14,0,0,0-3,0c0,1.56,0,2.71,0,3.76.09,1.78,0,3.47,0,5.38,0,.93,0,1.48,0,2.24,0,2.41,0,4.82.08,7.4,0,1,0,2,0,3,.13,2.49.09,5,0,7.23C94.24,38.73,94.19,38.78,94.24,38.78Zm3,2.11a9.74,9.74,0,0,0-1.65-1.61,8.59,8.59,0,0,1-1-.08,13.6,13.6,0,0,0,2,1.52c.08,0,.12.17.21.17A1.48,1.48,0,0,0,97.28,40.89Zm1.4-.08a13.74,13.74,0,0,1-1.57-1.48c-.17.08-.63,0-.8,0a6.05,6.05,0,0,0,.72.76c.17.17.55.72.76.76S98.42,40.81,98.68,40.81Zm1.18-.09c-.17-.29-.46-.42-.76-.72s-.55-.67-.8-.72-.43.09-.68,0c.34.5,1,1,1.4,1.48A2.94,2.94,0,0,1,99.86,40.72ZM98.38,20.07c0-.76-.08-1.52-.08-2.24,0-.55.08-1.1.08-1.69a1.29,1.29,0,0,1,0-.55c.08-.42.42-.68.55-1,.89-.59,1.9-1.48,3.47-1l.42.21c1.19.72,1.27,2.41,1.36,4.06a17.57,17.57,0,0,1,0,2.07c0,.64,0,1.27,0,1.82s0,1,0,1.44a7.12,7.12,0,0,1-.09,1.36,7.11,7.11,0,0,1-.38,1.18c-.38.09-.59.51-1,.64s-.76.12-1.19.25a8.77,8.77,0,0,0-1-.13c-.38-.08-.68-.34-1-.38s-.34-.29-.51-.46a8.82,8.82,0,0,0-.55-1.06C98.51,23,98.42,21.55,98.38,20.07Zm2,19.55c-.09,0,0,.09-.09,0-.5-.42-1-1-1.52-1.52.09.38-.13.68,0,1,0,.08.3.21.38.33.42.39.85.77,1.23,1.06C100.29,40.26,100.37,39.92,100.33,39.62Zm-1.61-5.25c0,.13.26.26.38.43A6.29,6.29,0,0,0,100.29,36a6.09,6.09,0,0,1,0-1.35c-.55-.21-1-.93-1.57-1.35C98.81,33.61,98.64,34,98.72,34.37Zm0,1.65a7.8,7.8,0,0,0,1.35,1.49c.09.08.17.25.26.21,0-.3,0-.81,0-1.31a7.87,7.87,0,0,1-1.57-1.53A10.84,10.84,0,0,0,98.72,36Zm1.61,2a.18.18,0,0,0-.21-.05c-.47-.46-1-.89-1.4-1.39a8.5,8.5,0,0,0,0,1c.51.59,1.1,1.15,1.61,1.74A7.15,7.15,0,0,0,100.33,38.06ZM98.72,15.63c.47.51,1,.93,1.44,1.4,0-.38.21-.64.25-1A12.66,12.66,0,0,0,99.19,15,2.59,2.59,0,0,0,98.72,15.63Zm0,1.61a11.21,11.21,0,0,0,1.06,1c0,.09.25.3.29.22.05-.34,0-.81.05-1.19-.05,0-.05.09-.13,0-.38-.38-.8-.72-1.18-1.14C98.76,16.48,98.76,16.9,98.72,17.24Zm0,1.52c.47.43.85,1,1.35,1.4a11.78,11.78,0,0,1,0-1.19c-.42-.38-.84-.84-1.35-1.22Zm.09,1.82a9.23,9.23,0,0,0,1.48,1.52c-.22-.46-.05-1-.22-1.43a1.34,1.34,0,0,0-.29-.34c-.34-.3-.8-.81-1.06-1C98.76,19.69,98.76,20.12,98.81,20.58Zm.93,10.62c-.38-.34-.64-.8-1-1.14a8,8,0,0,0,0,.93c.47.51.93,1,1.44,1.52a6.49,6.49,0,0,1,0-.84c-.09-.05-.3-.21-.42-.26A.17.17,0,0,1,99.74,31.2Zm.55,3.22c-.05-.6-.05-1.1-.09-1.7-.08,0-.13,0-.21,0-.42-.38-.85-.76-1.23-1.18,0,.46,0,.84,0,1.31C99.23,33.32,99.82,33.91,100.29,34.42ZM98.81,21.09c0,.38,0,.63,0,1a6.7,6.7,0,0,0,1.48,1.44.05.05,0,0,0,0,.09,8.78,8.78,0,0,0-.08-1.06A15.9,15.9,0,0,1,98.81,21.09ZM98.93,24a16.42,16.42,0,0,0,1.53,1.31,6,6,0,0,1,0-1.27c-.5-.46-1-.85-1.56-1.35C98.89,23.2,98.85,23.5,98.93,24Zm1.57,1.56h-.17c-.42-.33-.93-.71-1.4-1.1a.7.7,0,0,0,.26.64c.17.55.67.8,1.35.89C100.58,25.91,100.46,25.74,100.5,25.57Zm.29,5.8a9.82,9.82,0,0,1-.67-.93c-.34-.08-.64-.34-.89-.38a6.62,6.62,0,0,0,1.06,1.18C100.46,31.2,100.58,31.41,100.79,31.37ZM99.44,14.79c.38.29.72.59,1.06.88,0-1,.72-1.35,1.39-1.77a2.28,2.28,0,0,0-1.31.21c.13.13.47.38.21.55-.25-.09-.29-.34-.5-.38S99.69,14.62,99.44,14.79Zm2.79-.72c-.38.21-.93.38-1.14.84a6.69,6.69,0,0,0-.38,1.44A13.07,13.07,0,0,0,100.5,21a26.06,26.06,0,0,1,.29,3,7.28,7.28,0,0,0,.17,2s-.08.08-.12.12a3.5,3.5,0,0,0,2.58-.8,2.56,2.56,0,0,1,.21-.72c.25-2,0-3.93.17-5.67-.17-1.39,0-3.51-.89-4.53C102.66,14.28,102.49,13.94,102.23,14.07Zm1.53,17.39a4.62,4.62,0,0,1-.81-.68,1.5,1.5,0,0,0-.76,0c0,.17.34.25.38.55-.55,0-.68-.51-1.1-.64a2.37,2.37,0,0,1-.84-.17c.08.34.5.55.67.89C102.11,31.46,102.83,31.46,103.76,31.46Zm1.39-.22c-.25-.17-.46-.38-.72-.55a7.18,7.18,0,0,1-1,0c.29.25.59.46.84.72C104.6,31.37,104.9,31.33,105.15,31.24Zm1-.38a4.41,4.41,0,0,0-.72-.5c-.13.12-.38.12-.51.25a7.75,7.75,0,0,0,.59.51Zm.8-.46a4.58,4.58,0,0,1-.76-.51c-.09.13-.3.13-.34.3a6.88,6.88,0,0,0,.63.5C106.59,30.57,106.84,30.57,106.93,30.4Zm.8-.55c-.29-.13-.5-.34-.8-.47-.13.13-.3.17-.38.38a2.93,2.93,0,0,1,.68.55A4.54,4.54,0,0,1,107.73,29.85Zm1-1a7,7,0,0,0-.85-.67c-.13.38-.47.59-.63.93a4.8,4.8,0,0,1,.71.55A2.81,2.81,0,0,0,108.71,28.87Zm-1.19-17.39c.09.13.17.22.26.34,0-.12.08-.08,0-.17A.87.87,0,0,0,107.52,11.48Zm.34.47a5,5,0,0,1,.55,1.35,2.12,2.12,0,0,1,1.18,1.15s-.08.12-.16.12c-.34-.25-.55-.63-.94-.84.05.42.13.93.17,1.48,0-.13.09,0,.13-.09.3.47.8.72,1.14,1.1a5.85,5.85,0,0,0-1.05-3.63C108.45,12.67,108.33,12,107.86,12Zm1.69,15.61c-.38-.21-.72-.59-1.1-.76-.12.3-.12.68-.42.81a.64.64,0,0,1,0,.29c.34.17.59.51.93.72A9.25,9.25,0,0,1,109.55,27.56Zm-.84-9c0,.08,0,0,.12,0a7.87,7.87,0,0,0,1.36,1.27c-.09-1-.26-2.12-.26-3.3-.55-.09-.84-.64-1.31-.93,0,.38,0,.63,0,1.05a4.19,4.19,0,0,1,1,.94c0,.12.25.16.12.38-.46-.09-.72-.68-1.14-.89C108.71,17.49,108.66,18,108.71,18.51Zm1.22,7.57c-.38-.34-.76-.68-1.18-1a5.94,5.94,0,0,1-.13,1.31,7.66,7.66,0,0,0,1.1.89,1.56,1.56,0,0,0,.13-.26C109.72,26.72,110,26.46,109.93,26.08Zm.26-6H110c-.43-.38-.89-.72-1.27-1.1,0,.55,0,1.06,0,1.52.42.55,1.05.89,1.39,1.49-.25.29-.59-.26-.8-.47a2,2,0,0,1-.34-.25c-.08-.13-.17-.26-.25-.26v1.53a7.15,7.15,0,0,0,1.18,1c0,.17.25.17.21.38,0,0,0,0,0,.09-.59-.22-.85-.68-1.35-1,0,.64.08,1.19,0,1.74.08,0,.08-.05.21-.05a5,5,0,0,0,1.06,1.1A23.54,23.54,0,0,0,110.19,20Z"/><path class="a3ea777d-7fbb-47aa-8b24-5cc8d9e5d245" d="M129,22.61c0,.26,0,.51,0,.76a9.79,9.79,0,0,1-.13,1.49,6.85,6.85,0,0,1-.08.93,7,7,0,0,1-.3.84A9.45,9.45,0,0,1,127,29.17a9.66,9.66,0,0,1-5.59,3.3c-.13,0-.08.13-.17.13s-.13-.13-.25-.13a9.9,9.9,0,0,1-4.91-1.14,8,8,0,0,1-2.5-2.24,2.36,2.36,0,0,1-.34-.47c-.12-.25-.38-.55-.21-.72a7,7,0,0,1-1-2.62,13.38,13.38,0,0,1-.13-2.92,13,13,0,0,1,0-2.58c-.17-.72,0-1.61-.13-2.37a8.07,8.07,0,0,1-.09-1.52c.05-.39.13-.85.22-1.23a6,6,0,0,1,.29-1.1,18.84,18.84,0,0,1,.93-1.74A8.12,8.12,0,0,1,116,9.58a5.21,5.21,0,0,1,1.77-.46,13.67,13.67,0,0,1,6.35,1.43c.38-.08.63.26.84.22a8.57,8.57,0,0,1,2.29,2,7.38,7.38,0,0,1,.89,2.28c.17.81.21,1.74.34,2.67s.38,1.77.46,2.66S129,21.89,129,22.61Zm-15.7,5,.34.33c.12.13.21.3.29.38a8.14,8.14,0,0,0,1,.72c.13.05.21.22.3.26s.29,0,.38.08c.38.17.67.47,1.1.51a1.53,1.53,0,0,1,.89.21,8.25,8.25,0,0,0,2.83.26c.21-.05.42-.13.63-.17s.13,0,.22,0a4,4,0,0,0,.88-.3,9.06,9.06,0,0,0,.94-.29c.08,0,.12-.09.21-.13a8.8,8.8,0,0,0,.89-.51,8.2,8.2,0,0,0,.59-.59c.42-.38.72-.8,1.1-1.19,0-.08-.09-.29,0-.38s.17.05.25,0a2,2,0,0,0,.21-1.06,7.2,7.2,0,0,0,.17-2.15c0-1.27,0-2.37,0-3.52,0-1-.08-2.07,0-3a18.27,18.27,0,0,0-.47-3.34,11.44,11.44,0,0,0-1-1.91,3.37,3.37,0,0,1-.68-.68,4.42,4.42,0,0,0-.63-.29,3.57,3.57,0,0,0-.59-.34,4.84,4.84,0,0,0-.89-.25c-.25-.05-.51-.22-.76-.26s-.3,0-.43-.08-.46-.17-.76-.21a13.11,13.11,0,0,0-2.7-.13c-.13,0-.34,0-.51,0-.38.17-.89.3-1.31.47a5.1,5.1,0,0,1-1,.63,1.85,1.85,0,0,1-.5.47,1.23,1.23,0,0,1-.17.25s-.13,0-.22.13a7.31,7.31,0,0,0-1.1,1.73,10.48,10.48,0,0,0-.76,3.81c0,.08.13.08.13.21a2.66,2.66,0,0,0,.08.51c-.08.59.09,1.44,0,2.07s0,1.61,0,2.41a20.79,20.79,0,0,0,0,2.37,6,6,0,0,0,.51,2A5.71,5.71,0,0,0,113.31,27.61Zm3.89,3.59c-.46-.29-.68-.8-1.14-1.1-.25-.17-.64-.29-.93-.46a8,8,0,0,1-1.65-1.19c0-.08-.13-.25-.17-.21a8.15,8.15,0,0,0,4.1,3.3C117.5,31.46,117.2,31.33,117.2,31.2Zm-.93-14.34c0-.09,0-.13.13-.17a6.68,6.68,0,0,1,.21-1.69c.08-.26.3-.43.38-.68.3-.08.38-.38.68-.47a.33.33,0,0,1,.08-.46c.17,0,.13.17.17.21a4.41,4.41,0,0,1,2.79-.08c.38.29.93.5,1.19.93a5.68,5.68,0,0,1,.42,1.65,29,29,0,0,1,.13,3.34c0,1.18.21,2.28.13,3.47a5.11,5.11,0,0,1-.47,2.28c-.17,0-.21.17-.21.26a1.65,1.65,0,0,1-1.36.76c-.21,0-.38.17-.59.21a4.07,4.07,0,0,1-2.16-.42,4.08,4.08,0,0,1-1.31-2.25,31.43,31.43,0,0,1-.08-4.48A19.57,19.57,0,0,0,116.27,16.86ZM118.89,32c-.29-.34-.71-.72-1-1.1-.17-.25-.3-.46-.55-.46s-.34,0-.55-.09c.42.51.93,1,1.39,1.48A4.05,4.05,0,0,1,118.89,32Zm-2.11-13.28a1.53,1.53,0,0,0,.34.42,6.78,6.78,0,0,0,.89,1s.12.12.21.08a9,9,0,0,0,0-1.06,12.51,12.51,0,0,1-1.48-1.52C116.86,18,116.69,18.34,116.78,18.68Zm0-1.57c.46.59,1,1.14,1.48,1.69,0-.38,0-.71,0-1.1-.67-.33-1-1.22-1.44-1.69C116.86,16.27,116.82,16.77,116.78,17.11Zm0,3.13c0,.09.13.09.17.17.34.43.76.85,1.1,1.27,0,0,.13.26.17.13,0-.51,0-.85,0-1.27-.64-.25-1-.85-1.44-1.31A8.43,8.43,0,0,1,116.78,20.24Zm0,1.61c.38.34.76.76,1.14,1.1.13.13.26.34.34.3,0-.34,0-.64,0-1.06a15.05,15.05,0,0,1-1.44-1.44A10.06,10.06,0,0,1,116.78,21.85Zm.08,1.48a11.42,11.42,0,0,0,1.23,1.27c.13.13.25.38.38.38a10.34,10.34,0,0,1-.13-1.23c-.55-.46-1-1-1.56-1.48C116.82,22.7,116.82,22.91,116.86,23.33Zm.09-7.78c.38.46.72,1.1,1.06,1.56.12.13.21.34.33.34a7.51,7.51,0,0,1,.13-1c-.46-.47-.89-1.06-1.35-1.53A1.34,1.34,0,0,0,117,15.55ZM118.81,26a6.11,6.11,0,0,1-.3-.77c-.12,0-.08,0-.17,0A12.18,12.18,0,0,1,117,24,2.74,2.74,0,0,0,118.81,26Zm-1.44-11.3c.38.46.72.93,1.1,1.35.09-.29.17-.63.25-.93-.38-.21-.54-.63-.84-.93A6.13,6.13,0,0,0,117.37,14.66Zm3.26,17.47c-.38-.42-.93-.93-1.35-1.35a7.47,7.47,0,0,1-1.27-.21,6.41,6.41,0,0,0,.67.76,4.28,4.28,0,0,0,.76.72A11.89,11.89,0,0,0,120.63,32.13ZM118.18,14c.21.3.42.64.63.89a2,2,0,0,1,.85-1.18C119.11,13.77,118.43,13.69,118.18,14Zm1.65,0c-.22,0-.43.38-.55.59-.6,1.23-.6,3.22-.68,5.21,0,.93,0,1.86,0,2.75a13.14,13.14,0,0,0,.29,2.7,1.85,1.85,0,0,0,.47.89A1.74,1.74,0,0,0,120,26c.08,0,.17,0,.25,0a5.76,5.76,0,0,0,.8-.51,6.44,6.44,0,0,0,.81-.68,3.17,3.17,0,0,0,.21-1.31,46.39,46.39,0,0,0-.13-4.78,14.58,14.58,0,0,0,0-1.48c0-.6-.17-1.31-.17-1.74a2.3,2.3,0,0,0-1.43-1.61C120.25,13.94,120,13.85,119.83,13.94Zm2,18c-.38-.3-.77-.85-1.15-1.18-.08-.09-.29,0-.42,0s-.38,0-.55,0L121,32.09A1.41,1.41,0,0,0,121.86,31.92Zm1.14-.34a9.39,9.39,0,0,1-1-1.14c-.29.08-.59.13-.93.21a14.82,14.82,0,0,0,1.14,1.23A2.55,2.55,0,0,0,123,31.58Zm1.69-.93a8.31,8.31,0,0,0-.89-.89c-.12.09-.34.13-.46.26.21.34.5.59.72.93a.43.43,0,0,1-.22,0,4.18,4.18,0,0,1-.84-.89,3.62,3.62,0,0,0-.72.3c.34.29.59.76,1,1.06,0,0,0,0,0,0A8.15,8.15,0,0,0,124.69,30.65Zm1-.76c-.55,0-.72-.51-1.06-.72-.13.17-.38.25-.51.42l.76.89A6,6,0,0,0,125.71,29.89Zm.72-.8a.32.32,0,0,1-.17-.09c-.13-.08-.6-.8-.68-.76s-.17.17-.21.21a5.45,5.45,0,0,0-.47.51c.26.3.59.55.85.89h0A7,7,0,0,0,126.43,29.09Zm-1-17.44h0a7.28,7.28,0,0,1,1,2c.55.38.8,1,1.27,1.48a4.68,4.68,0,0,0-2.12-3.39S125.45,11.53,125.45,11.65Zm1.74,16.59a2.09,2.09,0,0,1-.89-.85c-.17.22-.51.38-.47.6s.26.38.34.5a2.28,2.28,0,0,0,.47.47A4.41,4.41,0,0,0,127.19,28.24Zm.67-1.1c-.5-.09-.8-.59-1.18-.89a2.82,2.82,0,0,1-.25.89,9.06,9.06,0,0,0,.88,1A4,4,0,0,0,127.86,27.14Zm0-11.42c-.12-.09-.21-.22-.33-.3-.22-.25-.47-.63-.68-.89,0-.08-.17-.21-.21-.21.08.51.12.89.21,1.44A5.14,5.14,0,0,0,128,16.94C127.91,16.44,127.91,16.22,127.86,15.72Zm.72,8.42c-.25.08-.38-.09-.59-.26-.34-.34-.8-.89-1.06-1.18.09.55-.08,1,0,1.44a3.07,3.07,0,0,0,.59.72,5.65,5.65,0,0,0,.63.71c.05.05.21.09.21.22-.42.17-.67-.26-.88-.51a2.33,2.33,0,0,0-.55-.55,4.71,4.71,0,0,1-.22,1.14A5.14,5.14,0,0,0,128,27a14.41,14.41,0,0,0,.55-1.61C128.33,25.11,128.71,24.6,128.58,24.14Zm-.5-6.65a3.92,3.92,0,0,0-.6-.55l-.59-.59c0,.34.13.68,0,.89a6.93,6.93,0,0,0,.68.93,5.65,5.65,0,0,1,.63.93c-.63-.08-.84-.85-1.27-1.18v.93a10.3,10.3,0,0,0,1.61,1.9c-.08-1-.34-2-.42-2.79C128.08,17.79,128.12,17.66,128.08,17.49Zm-1.15,3.26c.55.59,1.1,1.14,1.7,1.69,0-.38,0-.93-.09-1.52-.08,0-.13,0-.21,0A9.1,9.1,0,0,1,127,19.4C126.93,20,127,20.33,126.93,20.75Zm1.7,2c-.64-.47-1.1-1.06-1.7-1.52v1a11.64,11.64,0,0,0,1.7,1.9A7.57,7.57,0,0,0,128.63,22.74Z"/><path class="a3ea777d-7fbb-47aa-8b24-5cc8d9e5d245" d="M157.83,27.69c0,.63,0,1.31,0,2a18.09,18.09,0,0,0,0,2.66c0,.09-.17.13-.21,0,0,.33-.26.25-.55.25-.68,0-1.4-.13-2.29-.17l-1.86-.08c-.13-.13,0-.22,0-.3-.63-.34-1.1-.89-1.73-1.31a.24.24,0,0,1,.08-.21c0-.09-.25-.05-.25-.13,0-1.23-.08-2.58,0-3.89.08-1.57,0-3.18.08-4.74a14.63,14.63,0,0,0,0-1.48c0-1.74.3-3.64-.34-5.33a3.73,3.73,0,0,0-1.14-.89,3.77,3.77,0,0,0-.89.34c-.21.17-.46.42-.34.67a1.21,1.21,0,0,0-.29.81,12.61,12.61,0,0,0-.21,2.83c0,1.06,0,2.12-.09,3.18s.09,2.32.09,3.51-.09,2.28,0,3.42a6.59,6.59,0,0,1,0,1.32,12.34,12.34,0,0,1-.26,1.69.27.27,0,0,1-.25,0,.24.24,0,0,1-.13.25,3.48,3.48,0,0,0-.93.17c-.38,0-.76,0-1.18,0H143c-.08,0,0-.17,0-.21a10.08,10.08,0,0,1-.85-.68,11.62,11.62,0,0,1-1-.89c-.17-.25-.17-.38-.17-.84-.08-.85-.12-1.91-.12-2.92a7.21,7.21,0,0,0,0-.93c-.05-.64-.13-1.32-.13-2,0-.47.13-.93.13-1.4l.12-2.33a13.66,13.66,0,0,0-.12-2.58s-.05-.17,0-.12a1.56,1.56,0,0,1-.13-.68,4.35,4.35,0,0,0-.21-1.23c-.09-.17-.21-.25-.21-.46a1.36,1.36,0,0,1-.3-.47c-.08-.13-.25-.17-.38-.29a1.88,1.88,0,0,0-2,1.94c-.08,1.1,0,2.24,0,3.43,0,1-.17,2-.21,3-.13,1.57-.21,3-.21,4.66s0,3.13,0,4.65a.72.72,0,0,0-.3.3,1.24,1.24,0,0,0-.46.13c-.89,0-1.82,0-2.92-.09a7.42,7.42,0,0,1-1-.08,4.13,4.13,0,0,1-.47-.38c-.46-.38-.88-.81-1.31-1.19,0-1.14.05-2.28,0-3.26l-.08-1c0-.34-.09-.68-.09-1,0-1.22.13-2.41.13-3.59,0-.38,0-.76,0-1.14a5.66,5.66,0,0,0-.09-1.23,22.2,22.2,0,0,0,0-2.45c0-.09,0,0,.09,0s0,0-.09-.12c0-.77-.17-1.57-.25-2.42a5.43,5.43,0,0,1,0-1.14c0-.13.08-.17.12-.29a5.62,5.62,0,0,0,.05-.89c0-.26-.13-.47-.13-.72s.08-.17.08-.26c.05-.33-.08-.67.05-1-.05,0-.13-.21,0-.13-.13-.17,0-.5,0-.76A.85.85,0,0,0,131,9c.72.17,1.61,0,2.42.13l1.14.25a7.27,7.27,0,0,0,.25,1.4c1-1.57,3.85-1.91,6.18-1.53a4.23,4.23,0,0,1,.68.17c.25.13.5.22.72.34,0,0,.12,0,.12.09s.05.12.09.12.08,0,.12.05a14.65,14.65,0,0,1,1.44,1.14c.13-.21.38-.26.55-.42l.22-.3a3,3,0,0,1,.63-.38l.25-.26A4.92,4.92,0,0,1,148.1,9a8.09,8.09,0,0,1,2.84.13,2.76,2.76,0,0,1,.67.21,3.7,3.7,0,0,1,.72.21,11.34,11.34,0,0,1,1.52.76,1.48,1.48,0,0,1,.55.34,3.68,3.68,0,0,1,.77.8,6.82,6.82,0,0,1,1.35,1.74,9.58,9.58,0,0,1,1.23,3.47c.12.93.08,1.86.17,3C158.09,22.27,157.92,24.9,157.83,27.69Zm-6.43,2.54a10.79,10.79,0,0,0,2.54,0,10.82,10.82,0,0,0,1.61,0,22.42,22.42,0,0,1,0-2.46c0-.51-.13-1.06-.13-1.61,0-1.26.13-2.53.21-3.72a22.49,22.49,0,0,1,0-3c0-1,.09-2.07,0-3.09,0-.8-.13-1.61-.21-2.33a6,6,0,0,0-.89-2.11c-.08-.09.17,0,0-.13a5.33,5.33,0,0,0-1.31-1.4,13.35,13.35,0,0,0-3-1c-2.11-.13-2.79-.21-4.48.85A1.39,1.39,0,0,0,145,11c-.25,0-.42.25-.68.38,0,.17,0,.34-.21.38a8.75,8.75,0,0,0-1.14-1,4.47,4.47,0,0,0-.93-.68s-.17,0-.21-.09l-.26-.12a7.67,7.67,0,0,0-1.77-.21,3.8,3.8,0,0,0-1.19-.05c-1.35.17-3,.26-3.64,1.86a1.77,1.77,0,0,0-.46,0c-.13-.67-.3-1.14-.43-1.73a19.85,19.85,0,0,0-3.21-.13A72.22,72.22,0,0,0,131,17c-.12.38,0,.8,0,1.22a9.68,9.68,0,0,1,.09,2.2v3.73c0,.63,0,1.22,0,1.82a7.55,7.55,0,0,1,0,.93,3.77,3.77,0,0,0,.13.72c.08.8-.09,1.86,0,2.75,1.48,0,2.66.12,4.14,0-.08-1.06.05-2.08,0-3.13-.08-1.31,0-2.63,0-4,0-.68.09-1.31,0-1.86,0-.77,0-1.53.05-2.08l.12-1a11.17,11.17,0,0,0,0-1.74,6.34,6.34,0,0,1,.38-1.82,3.16,3.16,0,0,1,1.19-1.05,2.56,2.56,0,0,1,1.56-.22c.17,0,.13-.12.26-.08s.5.13.76.25.34.3.51.38a4.57,4.57,0,0,1,1,2.63l.13,1.05a35.31,35.31,0,0,1-.13,5.21c0,1,0,1.78,0,2.62.09,1.52,0,3.34.17,4.66,1.48,0,2.71,0,4.19,0,0-1.44,0-3.09,0-4.62s-.08-3.08-.08-4.61V17.58c0-.43,0-.85,0-1.27s.13-.68.13-1c.21-.09.17-.34.3-.55a4.76,4.76,0,0,1,.84-.72,3.65,3.65,0,0,1,1-.55c.17,0,.38,0,.55,0a3.2,3.2,0,0,1,2.28.72,1.27,1.27,0,0,0,.22.26l.29.34a5.75,5.75,0,0,1,.43,1.77c0,1.65.08,3.6,0,5.5-.09,1.53,0,2.88-.05,4.32S151.4,29,151.4,30.23Zm-18,1.69c-.26-.42-.64-.68-.89-1.1a9.37,9.37,0,0,0-1.06,0C132,31.24,132.45,32,133.38,31.92Zm1.1.09a8.19,8.19,0,0,1-.93-1.15,4.84,4.84,0,0,1-.85,0C133.25,31.29,133.42,32.09,134.48,32Zm.76,0a14.66,14.66,0,0,1-1-1.15h-.46c.25.47.72.72,1,1.15A1.44,1.44,0,0,0,135.24,32Zm1.35-.09c-.42-.34-.76-.76-1.14-1.1a5.44,5.44,0,0,1-.8.09,10.82,10.82,0,0,0,.93,1.1C136,32,136.34,32.09,136.59,31.92Zm.26-6.22c-.43-.46-.81-.93-1.19-1.4,0,.26,0,.68,0,1.1a14.75,14.75,0,0,0,1.23,1.27Zm.08-1.31a14.63,14.63,0,0,1-1.27-1.48v.84a10.36,10.36,0,0,0,1.23,1.49A5.44,5.44,0,0,1,136.93,24.39Zm0,2.66a13.71,13.71,0,0,1-1.23-1.18c0,.64,0,.93,0,1.57.26.38.64.72.89,1,0,.09.17.22.09.34s-.34-.25-.47-.42l-.46-.51c-.05.34,0,.64,0,.93a5.12,5.12,0,0,0,1.14,1.27C136.93,29.13,136.85,28.16,136.89,27.05Zm0,3.52a2.09,2.09,0,0,0-.59-.6l-.55-.67a5.94,5.94,0,0,0,0,1.27c.29.25.59.59.84.8.09.09.13.25.26.21A4.59,4.59,0,0,0,136.89,30.57Zm.21-8a13.31,13.31,0,0,1-1.35-1.36c-.05.43,0,.85-.05,1.32.47.46.77,1.05,1.23,1.48C137,23.5,137,23,137.1,22.53Zm0-1.31c-.51-.47-.89-1.1-1.39-1.61a8.07,8.07,0,0,0,0,1.1,9.86,9.86,0,0,0,1.35,1.39A6.78,6.78,0,0,0,137.14,21.22Zm.13-1.57a7.26,7.26,0,0,1-1.4-1.56l-.12,1.1c.55.5.93,1.18,1.48,1.69A10.11,10.11,0,0,1,137.27,19.65Zm0-.25c0-.64,0-1.4,0-1.95a5.83,5.83,0,0,1-1.32-1.18,4.28,4.28,0,0,0,0,1.43C136.42,18.21,136.72,18.89,137.27,19.4Zm0-3.39s0,0-.09,0c-.38-.21-.63-.71-.93-1.1a6.46,6.46,0,0,0-.29.94s.08,0,.12,0a6.38,6.38,0,0,0,1.15,1.27A11,11,0,0,0,137.27,16Zm.42-1.14c-.25-.17-.38-.51-.63-.68a5.51,5.51,0,0,0-.59.51,7.25,7.25,0,0,0,.84,1.1A5.8,5.8,0,0,1,137.69,14.87Zm1.36-.93a2.91,2.91,0,0,0-1.61,0,2.38,2.38,0,0,0,.42.68A2.46,2.46,0,0,1,139.05,13.94Zm4.9,18a12.63,12.63,0,0,1-1.27-1.35c-.29,0-.76-.09-1,0a9.91,9.91,0,0,0,1.57,1.22c.08,0,0,.17.12.13A2.5,2.5,0,0,0,144,31.92Zm1.48,0A16.88,16.88,0,0,1,144,30.57h-.88l.67.76c.26.21.47.55.68.63S145.14,31.88,145.43,31.92Zm1.57-.13a3.77,3.77,0,0,1-1.23-1.22c-.17,0-.25-.05-.38,0a8.1,8.1,0,0,1,.55.67c.13.17.38.26.38.47a2.82,2.82,0,0,1-1.27-1.14,2.31,2.31,0,0,0-.59,0c.34.46.81.8,1.14,1.27.05,0,.09-.05.17,0s0,0,0,.13A3.06,3.06,0,0,0,147,31.79Zm.51-14.09c0-.08-.09.05-.21,0-.51-.55-.85-1.26-1.4-1.81a5.43,5.43,0,0,0,0,1.14c.59.59,1,1.35,1.61,1.9Zm0,1.57a8.79,8.79,0,0,1-1.65-1.69c0,.38,0,.76,0,1.27a17.12,17.12,0,0,0,1.15,1.27,1.64,1.64,0,0,1,.29.46l-.13.13c-.5-.42-.88-.93-1.35-1.4v1.23l.72.8c.25.3.59.55.63.89a2.63,2.63,0,0,1-1.05-.89c-.09-.08-.17-.25-.3-.25,0,.38,0,.76,0,1.14A16.06,16.06,0,0,0,147.42,24C147.34,22.4,147.55,20.88,147.55,19.27Zm0,10.41a9.15,9.15,0,0,1-.08-1.19c-.64-.33-1.06-1.1-1.53-1.56a11.67,11.67,0,0,1,0,1.27l1.15,1.1C147.25,29.42,147.42,29.72,147.55,29.68Zm-.08-3.56v-1.9c-.09,0-.13,0-.22,0A12.07,12.07,0,0,1,146,22.74a13.22,13.22,0,0,0,0,1.78C146.45,25.07,147,25.62,147.47,26.12Zm-1.49.26a21.67,21.67,0,0,0,1.49,1.86c-.05-.55,0-1.14,0-1.86-.6-.34-.93-.93-1.49-1.31C146,25.53,145.94,26,146,26.38Zm1.53,3.72c-.47-.51-1-.93-1.53-1.44a2,2,0,0,1,0,.55l1.36,1.44v.09a1.67,1.67,0,0,1-.72-.47,3.78,3.78,0,0,0-.64-.55,3.06,3.06,0,0,1,0,.68,5.22,5.22,0,0,0,1.32,1.14A7.31,7.31,0,0,0,147.51,30.1Zm.17-14c-.43-.38-.68-1-1.14-1.36a1.64,1.64,0,0,0-.47.72c.51.68.93,1.4,1.44,2A11,11,0,0,1,147.68,16.1Zm.25-1.1c-.21-.3-.46-.51-.63-.81-.13.13-.38.13-.43.34.3.38.55.81.85,1.14A2.76,2.76,0,0,0,147.93,15Zm1.23-1.06a2.65,2.65,0,0,0-1.53.08,3.41,3.41,0,0,0,.47.64A1.93,1.93,0,0,1,149.16,13.94ZM154,32.09a9.8,9.8,0,0,1-1.44-1.44c-.34,0-.59,0-.89,0,.3.22.6.51.89.77A2.2,2.2,0,0,0,154,32.09Zm1.31.08c-.38-.5-.93-1-1.39-1.52a6.86,6.86,0,0,0-.93,0c.46.51,1,.93,1.43,1.44A6.27,6.27,0,0,1,155.29,32.17Zm1.61.13a7.34,7.34,0,0,1-1.18-1.61c-.3-.21-.93,0-1.32-.12.3.59.94,1,1.27,1.65C156.1,32.26,156.52,32.3,156.9,32.3Zm-2.07-20.69c.29.64.8,1.06.89,1.91.08,0,.08-.13.21-.09.25.47.63.85.93,1.31A9.56,9.56,0,0,0,155.38,12C155.12,12,155,11.65,154.83,11.61ZM157,15c-.51,0-.81-.85-1.19-1.1,0,.38.13,1,.17,1.65.55.42,1,1.05,1.48,1.52A7.75,7.75,0,0,0,157,15Zm.55,11.12a4.89,4.89,0,0,1-1.65-1.73c0,.51,0,.8,0,1.27a17.07,17.07,0,0,0,1.7,1.9A13.83,13.83,0,0,1,157.54,26.12Zm0,1.87a4.32,4.32,0,0,0-.43-.43c-.42-.46-1-1-1.27-1.44,0,.51,0,.77,0,1.32a11.85,11.85,0,0,0,1.6,2C157.41,28.92,157.66,28.41,157.54,28Zm0,1.86a10.92,10.92,0,0,1-1.65-1.91,10.75,10.75,0,0,0,0,1.27,10.88,10.88,0,0,0,1.56,1.61A6.36,6.36,0,0,1,157.54,29.85Zm.12-7.41c-.12,0-.12,0-.21,0A9.16,9.16,0,0,1,156,20.88c0,.42,0,.89,0,1.39a13.85,13.85,0,0,0,1.15,1.15,3.41,3.41,0,0,1,.38.38s-.09.17-.17.17-.3-.26-.34-.3L156,22.74l-.08,1.35c.12.05.12-.08.16,0a12.49,12.49,0,0,0,1.15,1.48c.08.13.21.38.38.38C157.58,24.77,157.66,23.67,157.66,22.44Zm-.25,8.8c-.55-.46-1-1-1.52-1.52a4.35,4.35,0,0,1,0,.72A8,8,0,0,0,157,31.88c.12.13.25.34.46.34C157.45,31.92,157.41,31.58,157.41,31.24ZM156.22,19a8.33,8.33,0,0,0,1.36,1.56c0-.55,0-1.14,0-1.69,0,.08,0,.17-.13.17-.47-.51-.93-1-1.36-1.57,0,.93,0,1.82-.08,2.92h.17c.21.55.68.89,1,1.4.21.08.26.38.51.42V20.79c0-.08,0,.05-.13,0a2.53,2.53,0,0,1-.93-.84C156.31,19.65,155.84,19.19,156.22,19Zm1.15-1.65c-.51-.43-.89-.93-1.36-1.36a8.7,8.7,0,0,1,0,1l1.53,1.82c0-.47,0-1.06-.09-1.53C157.45,17.24,157.45,17.41,157.37,17.37Z"/><path class="a3ea777d-7fbb-47aa-8b24-5cc8d9e5d245" d="M159.16,25.79a3.31,3.31,0,0,1,0-.89,7.4,7.4,0,0,1,0-1,7.24,7.24,0,0,1,1.48-3.13c.13,0,.13.05.17,0a14.82,14.82,0,0,1,6.18-3,7.78,7.78,0,0,1,2.12-.72c.12-.76.21-2-.43-2.46a1.66,1.66,0,0,0-.55-.21,1.38,1.38,0,0,0-.51-.21,3.17,3.17,0,0,0-1.65.42,2.87,2.87,0,0,0-1.31,2.37c0,.26.09.47,0,.68a.27.27,0,0,1,0,.3c-1.27.08-2.16.08-3.55.12,0,0-.05-.12,0-.21a9.91,9.91,0,0,1-.89-1c-.21,0-.26-.05-.38-.05a3.92,3.92,0,0,0,.5.55c.22.22.72.43.47.68a1.4,1.4,0,0,1-.68-.46l-.72-.68a.14.14,0,0,1,0-.21.21.21,0,0,1-.25-.13,23.38,23.38,0,0,1,.17-2.62,4.47,4.47,0,0,1,1.1-2.42,5.8,5.8,0,0,1,1.35-1.31,2.52,2.52,0,0,1,.47-.38c.08-.08.21-.08.29-.12s.22-.17.34-.22a7.34,7.34,0,0,1,.72-.25,11.78,11.78,0,0,1,2.71-.42,10.68,10.68,0,0,1,3.34.55,6.41,6.41,0,0,1,1.15.46,2.86,2.86,0,0,1,1,.72h.25a8.12,8.12,0,0,1,2.67,2.37,8.89,8.89,0,0,1,.8,3.94l.17,2.92c.13,1.9,0,3.68.05,5.5l.12,1.48c0,1.6.09,3.47.09,5-.09.08-.17.08-.26.21-.12,0-.17-.13-.25-.17a17.92,17.92,0,0,1-2.07.09c-.51,0-1,.29-1.48.12-.09-.08.12-.12,0-.21-.34-.46-.85-.76-1.19-1.18.05-.34-.25-.47-.29-.81a4.25,4.25,0,0,1-2.33,2.2c-.21,0-.38.17-.55.21-.38.09-.89,0-1.19.26-.33-.09-1,0-1.48-.13-2.15-.34-3.17-2-4.61-3.17,0-.09.09-.09,0-.17l-.38-.59c0-.05,0-.09,0-.13a.12.12,0,0,0-.08,0,5.07,5.07,0,0,1-.6-1.74v-.34C159.24,26,159.16,25.91,159.16,25.79Zm.42.29v.38a4.35,4.35,0,0,0,.76,1.82l.22.38a4.3,4.3,0,0,0,1.1.85l.63.38a8.13,8.13,0,0,0,2.16.8,7.45,7.45,0,0,0,.93-.08,4.36,4.36,0,0,0,1.31-.13,6.72,6.72,0,0,0,2.75-1.14c.13-.13.34-.21.42-.34s.22-.46.26-.46c.34-.09.29.5.42.72s.21.67.42.88a22.93,22.93,0,0,0,3,.22c-.09-.22-.13-.39,0-.55a19.2,19.2,0,0,1-.09-2.16c0-.43-.12-.89-.12-1.31,0-1.19,0-2.5,0-3.69V21.26c0-.3,0-.64,0-1l-.08-2.84c0-.51,0-1,0-1.52a12.56,12.56,0,0,0-.46-3l-.09-.25a3.48,3.48,0,0,0-.59-1,11,11,0,0,0-1.44-1.27s0,0,0,0a4.4,4.4,0,0,0-2.2-.81c-.21-.17-.63-.17-.89-.29a13.75,13.75,0,0,0-1.44-.13,3.58,3.58,0,0,0-.93.13,4.75,4.75,0,0,0-2,.38c-.55,0-.93.46-1.44.63l-1,1-.22.21c-1.1,1.06-1.39,2.83-1.48,4.82,1.32,0,2.71.25,4.11.21a4.64,4.64,0,0,1,.12-1.48c.05-.17.17-.21.17-.38A3.35,3.35,0,0,1,165.76,13c1.23-.42,2.24.34,3.09.84l.38.47a4.42,4.42,0,0,1,.34,2.54c.46.34-.21.55-.42.63-1.32.26-2.54.89-3.85,1.27a17.27,17.27,0,0,0-3,1.4c-.46.42-1,.8-1.52,1.18-.09.26-.3.38-.38.64,0,0,0,.12,0,.21s-.16.08-.21.13a4.88,4.88,0,0,0-.63,2.49A6.31,6.31,0,0,0,159.58,26.08Zm2.54-8.38c-.21-.21-.63-.46-.55-.84-.38,0-.68-.09-.93,0a4.25,4.25,0,0,0,.8.89C161.57,17.7,161.91,17.79,162.12,17.7Zm2.41,0a8.28,8.28,0,0,1-.89-.67,4.65,4.65,0,0,0-.84,0,1.86,1.86,0,0,1,.46.67c-.38.13-.55-.51-.88-.67a1.25,1.25,0,0,0-.6,0c.21.17.38.68.72.81a4,4,0,0,0,1.14-.13A3,3,0,0,0,164.53,17.66Zm1.36,14.43c-.3-.25-.64-.85-1-1s-.59,0-.89-.13c.13.25.55.42.68.76-.08,0-.08,0-.17,0-.76-.5-1.27-1.22-2.28-1.48a.44.44,0,0,0-.38-.17A5.85,5.85,0,0,0,165.89,32.09Zm-1.23-16.16c-.3-.21-.38-.55-.63-.81-.3.72-.3,1.82.38,2.08A6.94,6.94,0,0,1,164.66,15.93ZM163.94,25a1.75,1.75,0,0,1-.08-.84,2.46,2.46,0,0,1,.42-1.1v-.21c1.27-1.32,3.17-1.7,5.12-2.25.08.09,0,.34.13.43-.13,1.35.29,3-.22,4.1-.42.85-1.35,1.14-2.24,1.57a3.74,3.74,0,0,1-2.41-.6s0-.12-.13-.16-.17-.13-.25-.17A2.88,2.88,0,0,1,163.94,25Zm1.4-10.32a3.16,3.16,0,0,0-.55-.68,5.67,5.67,0,0,0-.6.77,3.8,3.8,0,0,0,.55.84A3.71,3.71,0,0,1,165.34,14.7Zm-1.15,9.65a1.82,1.82,0,0,0,1.36,1.77c0-.21-.21-.46-.13-.76C164.83,25.19,164.62,24.69,164.19,24.35Zm.09-.38a6.35,6.35,0,0,0,.85,1c.08.08.17.25.29.21a6.84,6.84,0,0,1,.26-1.06,7.83,7.83,0,0,1-1-1.05C164.53,23.42,164.32,23.59,164.28,24Zm.59-1.19a2.93,2.93,0,0,0,1,1c0-.17.21-.3.29-.51a2.65,2.65,0,0,0-.8-.8A5.8,5.8,0,0,1,164.87,22.78Zm1.23-8.54c-.26-.17-.21-.55-.47-.72-.17.12-.46.17-.59.33a5.2,5.2,0,0,1,.51.72Zm1.06,17.68a4.85,4.85,0,0,0-.89-.76c0-.09,0-.13,0-.17-.34,0-.59.08-1,.08a9.73,9.73,0,0,0,1,1A4.67,4.67,0,0,0,167.16,31.92Zm.42-10a7.64,7.64,0,0,0-.59.63A4.91,4.91,0,0,0,165.72,25c0,.51,0,1.19.42,1.27a2.55,2.55,0,0,0,1.14-.08,6.52,6.52,0,0,0,.68-.38,3,3,0,0,0,.93-.68c.51-1.1.17-2.88.21-4h0A10,10,0,0,0,167.58,21.94Zm-1.82.38a5.51,5.51,0,0,0,.59.76c.13-.34.51-.55.55-.85a2.48,2.48,0,0,1-.55-.21C166.18,22.15,165.89,22.19,165.76,22.32ZM166.9,14c0-.25-.42-.42-.29-.68a2.9,2.9,0,0,0-.64.13l.38.68A1.85,1.85,0,0,1,166.9,14Zm1.48,17.6-1-.8a2.65,2.65,0,0,0-.85.21,9,9,0,0,1,1,.93Zm.13-17.47a6.29,6.29,0,0,0-1.56-.72c.08.21.21.3.29.51C167.66,13.73,168.17,14,168.51,14.11ZM167,21.85c.08,0,.16.21.25.17.17-.21.42-.3.59-.51A3.09,3.09,0,0,0,167,21.85Zm3.25,7.28c-.12.34-.67.59-.93.8l-.08.13s-.17,0-.26.08a4.7,4.7,0,0,1-1.14.47c.25.34.59.59.85.89a3.69,3.69,0,0,0,.63-.47,2.52,2.52,0,0,0-.76-.55c.25-.42.72.13.93.34C169.78,30.36,170.41,29.81,170.2,29.13Zm2.54,2.58a10.5,10.5,0,0,0-.8-1.06,1.44,1.44,0,0,0-.59,0A3.46,3.46,0,0,0,172.74,31.71Zm2.41-.21c-.34-.21-.67-.51-1-.76-.26.08-.43-.09-.72,0a5,5,0,0,1,.46.63c-.42.09-.55-.46-.84-.72a3.06,3.06,0,0,1-.68,0c.21.34.47.64.64,1C173.76,31.5,174.39,31.67,175.15,31.5Zm-2.07-19.93a4.3,4.3,0,0,1,.63,1.61c.6.21.81.84,1.19,1.27A4.44,4.44,0,0,0,173.08,11.57ZM175,15c-.47-.43-.72-1-1.19-1.44A11,11,0,0,1,174,14.7c.08,0,.17,0,.21,0,.3.51.63,1,.93,1.53-.51-.09-.72-.81-1.06-1.15,0,.3,0,.43,0,.77.16.25.42.5.59.76a8.85,8.85,0,0,1,.51.89c-.13,0-.17,0-.26,0a9.6,9.6,0,0,0-.84-1.15,3.83,3.83,0,0,1,0,.68c.46.42.8,1.14,1.22,1.52A23.2,23.2,0,0,0,175,15Zm.42,10.4c0-.54,0-1,0-1.6-.38-.55-.89-1-1.27-1.57,0,.55,0,.93,0,1.48.12,0,.12.09.21.09A14.78,14.78,0,0,0,175.45,25.4Zm0,.39c-.59-.47-.84-1.19-1.39-1.7,0,.43,0,1,0,1.4,0,0,.17,0,.17.08.42.51.84,1,1.22,1.53C175.53,26.59,175.49,26.21,175.49,25.79Zm-.13-5.89a8.87,8.87,0,0,1,0-1c-.51-.3-.76-.89-1.18-1.35,0,.29,0,.5,0,.8C174.65,18.76,174.9,19.44,175.36,19.9Zm.17,7.41c-.46-.26-.88-1-1.35-1.44a6.32,6.32,0,0,0,0,1.23c0,.08.08,0,.17,0l1.27,1.65C175.58,28.45,175.62,27.77,175.53,27.31Zm-.12-5.37a2.1,2.1,0,0,0-.34-.47c-.26-.34-.64-.63-.89-.93,0,.55,0,1,0,1.52l.17-.08a8.89,8.89,0,0,0,1.06,1.31C175.28,22.78,175.49,22.32,175.41,21.94Zm0-.47a8.34,8.34,0,0,0,0-1.18c-.42-.47-.76-1.1-1.18-1.49v1.36A12.57,12.57,0,0,1,175.41,21.47Zm.17,7.45c-.55-.34-.85-1-1.36-1.44a10.09,10.09,0,0,0,0,1.1c.09,0,.09-.13.21-.09.47.47.77,1.1,1.19,1.61C175.62,29.81,175.62,29.3,175.58,28.92Zm.08,2.58c0-.51,0-.59,0-1.1-.55-.47-.81-1.19-1.36-1.65-.08.67.13,1.14.05,1.73C174.77,30.78,175.2,31.16,175.66,31.5Z"/><path class="a3ea777d-7fbb-47aa-8b24-5cc8d9e5d245" d="M193.24,12.08c0,.12-.13.12-.13.21-.12,1-.21,2.24-.25,3.17,0,0-.13,0-.17.09-1.23,1.73-2.37,3.55-3.55,5.33-.6.89-1.27,1.73-1.82,2.66s-1.31,1.65-1.91,2.54c1.65,0,3.09,0,4.66.09a4.39,4.39,0,0,1,1.14.08c.17,0,.3.3.47.42.42.47,1,.77,1.39,1.19-.13,1.35,0,2.92-.08,4.06.12,0,.12.13.08.3a13.9,13.9,0,0,1-3,.17,33.86,33.86,0,0,0-3.64,0c-1.78,0-3.68,0-5.21,0a2.51,2.51,0,0,0-1.26.21c-.94-.72-1.91-1.4-2.8-2.12a20.73,20.73,0,0,1,.05-3.93c0-.09-.13-.09-.13-.17.51-1,1.18-1.82,1.69-2.75a13.83,13.83,0,0,1,.89-1.36l4.44-6.72a7,7,0,0,0-1.35-.09,20,20,0,0,0-2.2,0c-.09,0-.17.05-.26.05s-.33-.13-.5-.13-.22,0-.3,0c-.38-.08-.76-.51-1.06-.76s-.59-.55-1-.8a.31.31,0,0,0-.17-.34c0-1.31-.17-2.5-.08-3.94.12-.12.21-.12.25-.29,4.44-.13,8.84,0,13.79.12a12.25,12.25,0,0,0,1.91,2.37A.5.5,0,0,0,193.24,12.08ZM183.09,26.59c-.05-.21-.22-.21-.26-.42a2.92,2.92,0,0,1,.43-.81c.16-.29.38-.55.5-.76,1.06-1.56,2.2-3,3.22-4.4.34-.51.63-1.06,1-1.56,1.06-1.49,2.12-3,3-4.57-.05-.13.08-.13.08-.26s-.13,0-.08-.17a17.08,17.08,0,0,0,0-3.85c-.64.09-1.06-.12-1.44.09a19.15,19.15,0,0,0-2.25-.09c-.33,0-.8,0-1.26,0-2.54,0-5.5-.29-8.38,0a9.6,9.6,0,0,0,0,1.61c0,.38.13.76,0,1,.08,0,0,.09,0,.17,0,.3,0,.72.09,1.06,2.2,0,5,.21,7.19.21.17.17.38,0,.46.26s-.34.63-.5.88a4,4,0,0,1-.6.85,9.52,9.52,0,0,1-1.18,1.86L182,19.57c-.17.21-.38.42-.55.67-.05.05,0,.13-.05.21-.29.39-.63.85-.88,1.27-.17.26-.39.47-.55.68a3.07,3.07,0,0,1-.26.51c-.51.8-.93,1.56-1.48,2.37-.17.29-.55.68-.59.93a2,2,0,0,0,0,.51,20.2,20.2,0,0,0,0,3.64c3.3-.05,6.51,0,10,0a21.48,21.48,0,0,0,3.21,0,11.9,11.9,0,0,0,0-3.73C188.63,26.46,185.67,26.51,183.09,26.59Zm-3-11.68a8.22,8.22,0,0,1-.88-.89c-.3,0-.6,0-.89,0,0,0-.17,0-.21.09a6.07,6.07,0,0,0,1.43,1C179.66,14.91,180,15,180.12,14.91Zm1.49,17.14c-.6-.43-1.19-.81-1.78-1.27-.38,0-1.1,0-1.52,0,.55.42,1.31.68,1.86,1.1,0,.09,0,.09,0,.21C180.63,32.09,181.18,32.09,181.61,32.05ZM189.73.78c.13.38.17.93.55,1.14v.21c-.47.17-.47.68-.85,1l-.21.29a7.19,7.19,0,0,0-1.69,2.92c-.13,0-.13.09-.26.09.13.12.09.17.09.34a2,2,0,0,1-1.1.46H185.2a10.6,10.6,0,0,0-1.69,0c-.13-.55-.72-.76-1.1-1.1V5.9l-.17-.21a6.53,6.53,0,0,0-1.73-3.13,15.89,15.89,0,0,0-1.7-1.78c-.12-.13.05-.17.05-.34.38,0,.71-.29,1.26-.29a11.92,11.92,0,0,0,1.32-.09c.29,0,.42.09.63,0s.64.42.68.55a8.2,8.2,0,0,1,.59.59c.3,0,.89.59,1.06.89A19,19,0,0,1,185.92.36a10.54,10.54,0,0,0,2.79.08,6.6,6.6,0,0,1,.89,0Zm-6.94,4.87c1-.13,2.12,0,3.26-.22a.64.64,0,0,0,.21-.46,2.44,2.44,0,0,0,.55-1.14,10.9,10.9,0,0,1,2.11-3A25.15,25.15,0,0,1,186,.78a7.17,7.17,0,0,0-1.32,1.48l-.33.13L184,2.26c-.51-.63-1.27-1-1.74-1.61-.12,0-.08-.08-.21-.12a14.62,14.62,0,0,0-2.71.12c.89,1.15,2.16,2.08,2.8,3.56A10.51,10.51,0,0,0,182.79,5.65Zm-1.06,9.52c-.12-.22-.34-.3-.46-.47s-.43-.59-.64-.63-.55,0-.93-.05c.26.47.81.72,1.14,1.19A5.35,5.35,0,0,1,181.73,15.17Zm1.4,16.88c-.38-.3-.85-.68-1.19-.93a1.18,1.18,0,0,0-.46-.34,3.17,3.17,0,0,0-1.1,0,16.94,16.94,0,0,1,1.69,1.27A4.62,4.62,0,0,0,183.13,32.05Zm0-16.93a7.24,7.24,0,0,1-1-1c-.38,0-.76-.13-1,0,.3.34.68.68.93.93,0,0,0,.08,0,.13A10.47,10.47,0,0,0,183.13,15.12Zm1.44,16.93A14.52,14.52,0,0,1,183,31c0-.09,0-.09,0-.17a7.85,7.85,0,0,0-1,0c.55.38,1,.89,1.56,1.31A7.32,7.32,0,0,0,184.57,32.05Zm-.3-16.8c.25-.42.42-.63.68-1h-1.27c.13.29.38.46.46.8-.25.08-.33-.17-.46-.3a2.16,2.16,0,0,1-.34-.42c-.08,0,0-.08,0-.13a3.83,3.83,0,0,0-.68,0c.25.34.68.55.85,1A5.36,5.36,0,0,1,184.27,15.25Zm0-8.42a.2.2,0,0,1,.21,0c-.55-.34-.85-1.1-1.48-.8a4.7,4.7,0,0,0,1,.8Zm-.47,18.49c-.17.3-.34.55-.5.85.46-.09.93,0,1.35-.09C184.36,25.83,184.06,25.57,183.76,25.32Zm2.5,6.73c-.47-.38-1-.68-1.44-1a.28.28,0,0,1,0-.25c-.55,0-1.06,0-1.48,0,.25.21.59.42.89.68s.63.55.93.59A10,10,0,0,0,186.26,32.05Zm-.76-6.6c-.38-.34-.72-.68-1.1-1-.17.21-.3.43-.47.68a5.56,5.56,0,0,1,.93.89s0,0,0,.12h.3C185.16,25.79,185.37,25.66,185.5,25.45Zm.34-18.66A2.55,2.55,0,0,1,185,6h-.47a1.09,1.09,0,0,0-.46,0c.21.29.89.42.68.8a1.34,1.34,0,0,0,.46,0Zm.29,17.77A9.13,9.13,0,0,1,185,23.5c-.12.25-.34.47-.46.72a12.28,12.28,0,0,1,1.1.93C185.79,24.94,186.05,24.81,186.13,24.56ZM187.78,32c-.51-.34-1-.77-1.56-1.1a.25.25,0,0,0,0-.17,11,11,0,0,1-1.15,0c.38.33.89.63,1.36,1,.12.08.29.3.42.34C187.11,32.13,187.4,31.92,187.78,32Zm-.29-9.36a4.24,4.24,0,0,0-1.06-1c-.17.3-.47.55-.55.8.3.43.76.64,1,1.1-.08.05,0,.13-.13.13-.38-.3-.71-.63-1.1-1-.08.21-.29.34-.38.55a14.8,14.8,0,0,0,1.1,1.14A8.08,8.08,0,0,0,187.49,22.65Zm-.6-16-.76-.84c-.21.12-.55-.05-.67.08.12.42.8.42.67.89A1.34,1.34,0,0,0,186.89,6.66Zm.68-1.52c-.3-.13-.42-.38-.63-.68-.13.47-.34.72-.47,1.19.21.21.38.5.68.63C187.27,5.94,187.4,5.52,187.57,5.14Zm.64,16.54a13.28,13.28,0,0,0-1-1.1,9.66,9.66,0,0,0-.55.81,8,8,0,0,1,1.1,1A4.46,4.46,0,0,1,188.21,21.68ZM189.31,32c-.13-.13-.3-.17-.43-.3s-.21-.17-.29-.25-.13-.05-.17-.09c-.51-.34-.81-.8-1.7-.59.47.42,1.06.76,1.49,1.23A5.05,5.05,0,0,0,189.31,32ZM188.16,4.08c-.33-.13-.42-.42-.72-.63a1.47,1.47,0,0,0-.29.63c.29.21.29.59.63.72C187.91,4.5,188,4.38,188.16,4.08Zm.55,16.76c-.33-.34-.59-.77-1-1.15a4,4,0,0,0-.34.6,9,9,0,0,0,1,1.1A2.39,2.39,0,0,0,188.71,20.84Zm.17-17.52-.89-.8c-.12.21-.25.29-.29.59a3.84,3.84,0,0,0,.68.76Zm.6,16.42c-.34-.39-.64-.81-1-1.19-.12.34-.42.51-.55.85.34.42.64.8,1,1.18A5.34,5.34,0,0,0,189.48,19.74Zm-.22-17.39-.21-.26a3.33,3.33,0,0,1-.42-.42,5.64,5.64,0,0,0-.38.51,8,8,0,0,1,.8.93.71.71,0,0,0,.21-.3C189.48,2.68,189.56,2.47,189.26,2.35Zm1.48,29.7a9,9,0,0,1-1.86-1.27,1.68,1.68,0,0,0-.63,0,9.76,9.76,0,0,1,1.48,1.23A8.47,8.47,0,0,0,190.74,32.05ZM190,19a14.53,14.53,0,0,0-1-1.22,1.57,1.57,0,0,1-.34.46c.3.47.68.81.93,1.27A2.46,2.46,0,0,0,190,19Zm-.09-17c-.21-.3-.3-.59-.46-.81l-.13-.29c-.13.17-.3.21-.43.51a.5.5,0,0,1,.22.21l.17.25c.12.17.17.34.38.47C189.73,2.18,189.9,2.18,189.94,2Zm.76,15.82a6.15,6.15,0,0,0-1-1.1c-.09.21-.34.47-.47.72a6.14,6.14,0,0,1,.89,1.23A3.11,3.11,0,0,0,190.7,17.83ZM191,30.74a9.18,9.18,0,0,1-1.48.08,1.12,1.12,0,0,0,.8.51,7.47,7.47,0,0,0,.81.72c.55,0,1.06-.09,1.52-.09,0-.08,0-.25,0-.29s-.08.08-.17.12A8.77,8.77,0,0,1,191,30.74Zm.51-14.09a13,13,0,0,0-1-1.19,5.67,5.67,0,0,1-.5,1l.88,1.14A11,11,0,0,1,191.55,16.65Zm.84-1.27a3.8,3.8,0,0,1-1.1-1.19c0,.21-.55.85-.55,1a2.09,2.09,0,0,1,.26.29c.25.3.51.59.72.89C191.89,16,192.23,15.76,192.39,15.38Zm-1.1,15.19c.47.34,1,.63,1.4,1a6,6,0,0,0,0-.85,16.08,16.08,0,0,0-1.27-1.05A3.12,3.12,0,0,1,191.29,30.57ZM192.82,12a14.68,14.68,0,0,1-1.44-1.73c0,.21,0,.42,0,.63v.43c.09.08.26,0,.34.08a3.38,3.38,0,0,1,.47.59,6.11,6.11,0,0,0,.5.6C192.78,12.33,192.78,12.25,192.82,12Zm-1.44,14.94a4.33,4.33,0,0,1,0,.72A6.45,6.45,0,0,1,192.73,29a3.66,3.66,0,0,0,0-1c-.3-.21-.59-.46-.93-.67C191.68,27.14,191.46,26.89,191.38,26.93Zm1.18-12.44c0,.13-.12,0-.17.08-.33-.29-.63-.76-1-1.1v.38a2.94,2.94,0,0,0,1.1,1.19A1.81,1.81,0,0,0,192.56,14.49Zm.17,14.72c-.46-.34-.8-.76-1.31-1.1a9.29,9.29,0,0,1,0,1.06c.38.38.89.68,1.27,1.06A9,9,0,0,1,192.73,29.21Zm0-16.16c-.38-.46-.76-.93-1.18-1.35V13a16.37,16.37,0,0,0,1.1,1.39C192.61,13.94,192.69,13.6,192.69,13.05Z"/><path class="a3ea777d-7fbb-47aa-8b24-5cc8d9e5d245" d="M194.19,19.48c0-2.16,0-4.23,0-6.22,0-.59.09-1.18.09-1.73s0-1.23-.05-1.86A4,4,0,0,1,196,9.28a16.61,16.61,0,0,1,2.92.17.94.94,0,0,0,.38.17c.46.6.85,1.31,1.4,1.91.08.08,0,.12,0,.21.26.17.34.46.51.72,0,0-.17.08-.17.13,0,2.2.09,4.73.17,6.81,0,.93,0,1.94.09,2.83a1.36,1.36,0,0,0,.25.59c0,.13-.13.09-.13.13.21,1.1.3,2.37,1,3,.17.05.29.05.38.17s.34-.17.59-.21a4.36,4.36,0,0,0,.89-1,6.51,6.51,0,0,0,.34-.94,22.33,22.33,0,0,1-.09-2.58c0-.17-.08-.38-.08-.55,0-1.1,0-2.24,0-3.38,0-1.74.22-3.77.17-5.59a19.86,19.86,0,0,0-.08-2.2,2.06,2.06,0,0,1,.72-.17,28.87,28.87,0,0,1,3.81.05.11.11,0,0,1,.12.12c.09,0,.09-.17.21-.08s.05.13.13.08a21.74,21.74,0,0,0,1.78,2.67c-.09.21,0,.51,0,.76a6.31,6.31,0,0,1,0,1.23c0,1.14,0,2.37,0,3.51,0,1.52,0,3.13,0,4.7,0,1.22-.09,3.08,0,4.52,0,.38,0,.81,0,1.23,0,.76,0,1.57,0,2.45a3.61,3.61,0,0,1,0,1.19c-.08.13-.21.08-.34.21a16.9,16.9,0,0,1-2.71.25c-.29,0-.67,0-.67-.33a12.24,12.24,0,0,1-1.27-.77c-.17-.17-.26-.38-.47-.46s-.25.17-.38.25a16.35,16.35,0,0,1-1.61.64,7.63,7.63,0,0,1-3.38.67,5.2,5.2,0,0,1-3-1.18,14.3,14.3,0,0,1-1.91-2.45,2.44,2.44,0,0,0-.46-.89,6.1,6.1,0,0,1-.47-1.57c0-.25-.17-.51-.21-.76s0-.8-.09-1.23a13,13,0,0,1-.12-1.31C194.07,21.89,194.19,20.67,194.19,19.48Zm.34,2.79a20.53,20.53,0,0,0,.25,3.09,12.2,12.2,0,0,0,.17,1.23l.26.63a4.22,4.22,0,0,0,.84,1.4,7.49,7.49,0,0,0,.64.76.88.88,0,0,0,.29.17c.09.09.17.21.26.3a4,4,0,0,0,.89.34,9.71,9.71,0,0,0,3.13.38,6.94,6.94,0,0,0,3.09-1.1,2.55,2.55,0,0,1,.5-.47c.13-.13.3-.51.47-.51.34,0,.21.77.42.93a3.75,3.75,0,0,0,.34,1.1,18.47,18.47,0,0,0,2.79,0c0-.12.17-.21.22-.34s-.09-.25-.09-.33c0-.34.13-.72.09-1.1a3.35,3.35,0,0,1,.08-1.32,10.18,10.18,0,0,1-.17-1.6c0-.09.09-.22.09-.3s-.05-.25-.05-.38.05-.25.05-.34c0-1-.09-1.9-.05-2.83.09-4.11.05-7.87,0-12a23.45,23.45,0,0,0-4.19-.09c0,.6,0,1.36,0,2.08.05,1.1-.08,2.54-.12,3.76,0,.85,0,1.65,0,2.5,0,.68,0,1.35,0,2.07,0,1.31.16,2.75.16,4.06,0,.09-.12.09-.16.17-.39,1.61-1.95,2.37-3.94,2.08-.3-.13-.47-.34-.8-.34a2.87,2.87,0,0,1-1-1.74c-.08-.93.09-2,0-3,0-.55-.13-1.18-.13-1.73s.09-1.06.13-1.65,0-1.23,0-1.87c0-1.9,0-4.4,0-6.39a10.4,10.4,0,0,0-4.27.05c.08,1,0,2.11,0,2.87C194.57,16.18,194.49,19.31,194.53,22.27Zm4.36,9.4c-.3-.47-.76-.81-1.06-1.27a2.31,2.31,0,0,1-1.23-.64A4.6,4.6,0,0,0,198.89,31.67Zm1.44.34c-.3-.43-.76-.77-1.06-1.19-.38-.08-.64-.17-1-.25.34.46.77.84,1.1,1.27C199.69,31.88,200,32,200.33,32Zm-1-9.74c.09,0,.17,0,.21.05a18.89,18.89,0,0,0,1.65,1.43c-.08-.38-.08-.67-.17-1.1-.29-.25-.55-.55-.88-.8a1.9,1.9,0,0,0-.43-.42c-.12-.17-.34-.3-.38-.51.17-.17.34.08.42.17.3.3.51.55.81.8.13.09.21.3.38.26,0-.3,0-.6,0-1.06a25.57,25.57,0,0,1-1.65-2A26,26,0,0,0,199.31,22.27Zm-.08-9.6c.08,0,.08,0,.08.08,0,1,.09,1.78,0,2.71.05,0,.13,0,.17.09.26.38.6.84.89,1.22.09.09.26.3.34.26,0-.55-.08-.81-.08-1.36-.09.05-.09.05-.13,0a7.33,7.33,0,0,1-.89-1.39c-.13-.17-.38-.47-.13-.59.43.59.72,1.26,1.15,1.77,0-.63,0-1.14,0-1.56-.47-.6-.89-1.27-1.36-1.87C199.31,12.25,199.4,12.54,199.23,12.67Zm0,6.18s.08-.05.17,0a16.11,16.11,0,0,0,1.48,1.82,12,12,0,0,0-.09-1.4c-.08-.17-.38-.38-.55-.55-.38-.42-.63-.76-.93-1.14C199.31,17.92,199.27,18.42,199.23,18.85Zm.08-7.24c.51.59.85,1.31,1.36,1.91.08-.26-.09-.93,0-1.15-.17-.25-.3-.55-.47-.76,0,0,0-.08,0-.13-.34-.38-.63-.93-1-1.26C199.27,10.81,199.31,11.15,199.31,11.61Zm1.44,5.84a11.22,11.22,0,0,1-1.4-1.69c0,.55,0,1.23,0,1.56.09,0,.13,0,.13.05a7.54,7.54,0,0,0,1.35,1.52C200.79,18.47,200.75,18,200.75,17.45Zm-1.44,5a14.92,14.92,0,0,0,.09,1.56s0-.13.08-.13c.34.26.64.6,1,.89s.8.51,1.18.81a5.67,5.67,0,0,1-.42-1.32A26.07,26.07,0,0,0,199.31,22.49Zm2.54,3.59a18.19,18.19,0,0,1-2.45-2c-.09,1.82,1.6,2.42,2.92,2A.52.52,0,0,1,202,26,.14.14,0,0,1,201.85,26.08Zm-.3,5.93c-.33-.39-.84-.6-1-1.15a3,3,0,0,1-.89,0,14.27,14.27,0,0,0,1.14,1.19A2.35,2.35,0,0,0,201.55,32Zm2.71-.81c-.34-.21-.55-.55-.89-.8a4.21,4.21,0,0,1-.84.29c.21.3.55.51.76.81,0,0,0,.08-.09.08-.5-.12-.71-.51-1-.8a11.32,11.32,0,0,1-1.27.13,7.66,7.66,0,0,0,.59.67,1.87,1.87,0,0,0,.46.38c.17,0,.43-.12.6-.17C203.12,31.62,203.71,31.41,204.26,31.2Zm.85-.34a3.2,3.2,0,0,0-.72-.89s0-.12,0-.12c-.25.17-.47.29-.68.42.26.3.55.55.85.85A2.33,2.33,0,0,1,205.11,30.86Zm.51-.34a13.38,13.38,0,0,0-.47-1.35,2.09,2.09,0,0,1-.63.55,2.76,2.76,0,0,1,.8,1C205.45,30.65,205.57,30.61,205.62,30.52ZM209,32c-.29-.26-.59-.55-.84-.81-.09-.13-.13-.25-.26-.29s-.55,0-.8,0h-.76a6.66,6.66,0,0,0,1.27.84c.17.09.29.26.42.3A4,4,0,0,0,209,32Zm.05-1.23c-.13.13-.47,0-.72.13a7.05,7.05,0,0,0,.55.55c.12.16.29.46.5.55a3.55,3.55,0,0,0,1.1-.13C210,31.5,209.55,31.16,209.09,30.78Zm.29-.26c0,.05.21.22.3.3a12.29,12.29,0,0,1,1.06.85c0,.08-.13.12,0,.21s.08,0,.12-.09v-3.3c0-.08-.12.05-.12-.08A10.9,10.9,0,0,0,209.47,27a4.19,4.19,0,0,1-.05,1.06c.09,0,.09,0,.17,0,.3.59.89,1,1.19,1.56,0,.09-.09.13-.13.13a11.35,11.35,0,0,1-1.23-1.52c.09.55-.08,1.1.09,1.52h.17c.21.34.55.72.8,1.06.09,0,.3.25.09.38A8.92,8.92,0,0,1,209.42,30a1,1,0,0,1,0,.39S209.34,30.48,209.38,30.52Zm0-3.93c.17,0,.22.21.3.34.3.34.68.59.93.93.09.08.09.21.21.21,0-.42,0-1.06,0-1.48-.08,0-.08,0-.12,0-.43-.51-.89-.93-1.32-1.48C209.42,25.4,209.38,26.08,209.42,26.59Zm0-14.77a4.61,4.61,0,0,1,.81,1.1,5.34,5.34,0,0,0,.63.85c0,.08,0,.17-.08.3-.59-.43-.85-1.19-1.31-1.78-.05.68,0,1,0,1.73.08,0,0-.08.17,0,.38.51.8,1,1.22,1.48a24.51,24.51,0,0,0,0-3.09,9.32,9.32,0,0,1-1.44-2.07A7.7,7.7,0,0,1,209.42,11.82Zm0,10.16c.05,0,.13,0,.22,0,.42.42.76.88,1.22,1.26a10.08,10.08,0,0,0,0-1.1c-.42-.5-.93-1-1.39-1.48A13.25,13.25,0,0,1,209.42,22Zm0,.17a8.33,8.33,0,0,1,.05,1.14c.21.55,1.05.89,1.27,1.44,0,0,.08.21-.05.29s-.25-.25-.34-.42a4.58,4.58,0,0,1-.88-.93,5.53,5.53,0,0,1-.05,1.23c.05,0,.13,0,.22,0a9.63,9.63,0,0,0,1.22,1.31c-.21-.89.26-2.16-.17-2.79C210.4,23,209.72,22.49,209.42,22.15Zm1.48-1.53c-.5-.46-1-.93-1.43-1.43a7.25,7.25,0,0,0,0,1,.46.46,0,0,1,.17.17c.29.34.63.68.93,1,.12.08.25.25.33.25A7.48,7.48,0,0,0,210.9,20.62Zm-1.43-4.86a.35.35,0,0,1,.25-.09c.21.77.8,1.15,1.14,1.78,0-.59,0-1.23,0-1.69h-.12c-.39-.55-.89-1-1.27-1.52C209.47,14.74,209.51,15.25,209.47,15.76Zm0,.21v1.44s.12,0,.17,0a13.72,13.72,0,0,0,1.22,1.48,11,11,0,0,0,0-1.15s0,0-.12,0A14.74,14.74,0,0,1,209.47,16Zm0,3c.08.05,0,0,.12,0a10.13,10.13,0,0,0,1.31,1.31c0-.38,0-.76,0-1.14-.08,0-.08,0-.17,0a19.17,19.17,0,0,1-1.22-1.48Z"/></g></g></svg>