<svg id="fde8a12a-5736-4818-be68-762ffbb2bddb" data-name="Layer 1" xmlns="http://www.w3.org/2000/svg" viewBox="0 0 300 200"><defs><style>.ed4d2c80-f1e9-4e0f-bd34-1e5a2bcf9dd5{fill:#ffdd15;}.bef06467-c028-46d5-9627-bfd5901e0e38{fill:#404041;}</style></defs><title>Artboard 1</title><path class="ed4d2c80-f1e9-4e0f-bd34-1e5a2bcf9dd5" d="M67.22,109.24a9.8,9.8,0,0,1-2.11.34,15.07,15.07,0,0,1-2.84-.25,4.83,4.83,0,0,1-.25-2.12c-.05-2.37-.05-4.61-.05-7.15,0-1.14,0-2.83,0-4.14V93c-.46,1.14-.63,2.37-1.1,3.51a30.45,30.45,0,0,1-1.27,3.89l-.25,1c-.21.63-.38,1.31-.55,2s-.47,1.48-.68,2.33a3.71,3.71,0,0,1-1,.16A13,13,0,0,1,54,106c0-.17,0-.17.13-.3,0,0-.17,0-.17-.13-.55-2.37-1.4-4.14-1.95-6.3-.13-.55-.34-1.14-.51-1.65a3.24,3.24,0,0,1-.17-.64c-.46-1.35-.93-2.75-1.48-4.23a6.15,6.15,0,0,0-.08,1.53c0,.63-.13,1.14-.13,1.77,0,1.65.08,3.3.21,5.12a51.81,51.81,0,0,1,0,8.17c-.17.13-.17,0-.34-.09a10.29,10.29,0,0,1-2.45.26,16.41,16.41,0,0,0-2.29-.3c0-.72,0-1.39,0-2.2s0-1.48-.09-2.16,0-1.1,0-1.65c0-1.35-.12-2.7-.12-4.06a20.57,20.57,0,0,1,0-2.83c-.13-2.58,0-5.08-.13-7.79,0-.34.05-.76.05-1.22a10,10,0,0,0,0-1.1.36.36,0,0,1,.08-.22c-.17-.21-.13-.76-.13-1.1,0-.8-.12-1.65-.12-2.53s0-1.78,0-2.63c.17-.12.29,0,.51,0a12.9,12.9,0,0,0,2-.25,14.6,14.6,0,0,1,1.48,0,8.68,8.68,0,0,1,2.07.29,1.68,1.68,0,0,1,.8.09,3.46,3.46,0,0,1,.3,1.27c.17.12.17.33.21.55a1.67,1.67,0,0,1,.21.88,6.51,6.51,0,0,1,.55,1.61c.55,2,1,4.06,1.65,6.1s1.23,4,1.61,6.05c.13-.34.3-.77.43-1.23a21.89,21.89,0,0,0,.76-2.92c0-.13.12,0,.08-.17,0,0,0,0,0,0l1-3.47c.47-1.23.64-2.5,1-3.73a30.69,30.69,0,0,0,1.31-5c.3,0,.38-.16.68-.21h.12c.13,0,.13,0,.17,0a6.63,6.63,0,0,1,.89,0c.21,0,.47-.09.68-.09a9.79,9.79,0,0,1,2.24.13,7.83,7.83,0,0,1,2,.34c0,.89-.17,1.86-.13,2.83,0,.3.13.55,0,.85a11.57,11.57,0,0,1,0,3c0,.22,0,.47,0,.68a1.66,1.66,0,0,0,0,.59c.13,2.16-.08,4,0,5.84.12,2.37-.13,4.49,0,6.56,0,.34,0,.68,0,1s-.17.88,0,1.18c0,.13.12.09.12.21s-.12.34-.12.51c0,.63.12,1.18.12,1.82C67.22,106.33,67.35,107.85,67.22,109.24ZM51.44,81.07s0,.12,0,.12.34.09.21-.08c0,0,0,0,0,0l0,0Zm.25.84s-.08,0,0,.13.13,0,.17,0S51.74,81.91,51.69,81.91Z"/><path class="ed4d2c80-f1e9-4e0f-bd34-1e5a2bcf9dd5" d="M76.44,83.68c0,1.32,0,2.63-.08,3.94s-.13,2.71-.13,4.06,0,2.67,0,4c-.08,2.2.09,4.57,0,6.94l-.08,4.74a7.69,7.69,0,0,0,0,1.48c0,.21.25.25.13.51a11,11,0,0,1-2,0,10.8,10.8,0,0,0-2.33-.09c-.25,0-.38.13-.59.09a1.83,1.83,0,0,1,0-1.19,22.2,22.2,0,0,1,0-2.58c0-1,0-2.24,0-3.34l-.17-5.67c0-1.1,0-2.16.08-3.18V90.28c0-.38.09-.72.09-1-.09-1.48,0-2.92,0-4.45,0-.59.08-1.22.08-1.82,0-.21,0-.42,0-.63V80.85a3,3,0,0,0,0-1.19c.12,0,.17-.17.17-.29,1.39.12,3.3-.09,4.82.12,0,.13.13.09.21.17A33.82,33.82,0,0,0,76.44,83.68Z"/><path class="ed4d2c80-f1e9-4e0f-bd34-1e5a2bcf9dd5" d="M95,109.54c-1,.13-2.5-.21-3.39-.17a7.55,7.55,0,0,1-.63-1.44,5.26,5.26,0,0,1-1,.89l-.42.17c-.13,0-.26.17-.38.21l-.34.09c-.3.12-.68.21-1.06.34a2.58,2.58,0,0,1-.8.12,10.53,10.53,0,0,1-2,0,8.45,8.45,0,0,1-2.08-.8,10.54,10.54,0,0,1-1.73-1.23,6.79,6.79,0,0,1-1.1-2.49v-.47l-.13-.29a6.6,6.6,0,0,1,0-.89,7.4,7.4,0,0,1,0-1,7.81,7.81,0,0,1,1.57-3.17c.34,0,.55-.29.8-.46a14.88,14.88,0,0,1,2.5-1.49c.89-.38,1.9-.63,2.88-1a21.3,21.3,0,0,1,2.28-.72c.21-1,.09-2.88-1-3.09a2.56,2.56,0,0,0-2.29-.51,2,2,0,0,0-.67.3,2.14,2.14,0,0,0-.81.8,2.62,2.62,0,0,0-.55,1.87c0,.16.17.25.13.46a4.06,4.06,0,0,1-1.9,0c-1-.08-1.74-.08-2.63-.13L80,95.24c0-2.2.25-4,1.35-5.2.17-.17.55-.43.72-.6a2.39,2.39,0,0,1,.55-.55,5.61,5.61,0,0,1,.51-.38l.34-.08a.81.81,0,0,1,.29-.26l.51-.16a8.35,8.35,0,0,1,2.58-.43c.17,0,0,0,.17,0a10.69,10.69,0,0,1,3.55.59,6.8,6.8,0,0,1,1.53.64c.42.38.89.67,1.31,1a5.09,5.09,0,0,1,.59.64c.13.21.17.55.38.76A17.43,17.43,0,0,1,94.89,96c.09,1.61,0,3.22,0,4.82s0,3,0,4.49c0,.46.08.93.08,1.44s0,1,0,1.52v.38A1.83,1.83,0,0,1,95,109.54ZM89.9,99.89h0c-1.53.51-3.22.85-4.4,1.82-.21.6-.64,1-.51,1.74a1.8,1.8,0,0,0,.68,1.1,3.25,3.25,0,0,0,4-.64C90.11,102.81,89.86,101.33,89.9,99.89Z"/><path class="ed4d2c80-f1e9-4e0f-bd34-1e5a2bcf9dd5" d="M113.25,81.28c0,.51.13,1,.09,1.52s0,1.06,0,1.61c-.09,1.14-.13,2.2-.13,3.26s.09,2.07,0,3.09c0,1.9,0,3.85.13,5.75,0,.89,0,1.82,0,2.62a22.41,22.41,0,0,0,0,2.46c0,.8,0,1.6,0,2.41,0,1.61-.09,3.26,0,4.74a2,2,0,0,1,.08.8,12.57,12.57,0,0,1-3.72-.34,10.08,10.08,0,0,1-.38-1.48c-.13.09-.17.21-.3.3a4.14,4.14,0,0,1-.63.55c-.13.12-.17.25-.3.34a5,5,0,0,1-2.28.76,10.2,10.2,0,0,1-4-.59,7.38,7.38,0,0,1-1.23-.68,9.84,9.84,0,0,1-1.14-.81,1.54,1.54,0,0,1-.29-.55,2.71,2.71,0,0,1-.47-.59,16.1,16.1,0,0,1-.55-4.06,21.17,21.17,0,0,1,0-3.64,16,16,0,0,1,0-3.26,23,23,0,0,1,.42-2.41,3.33,3.33,0,0,1,.76-1.69,6.79,6.79,0,0,1,4.7-3.77,7.53,7.53,0,0,1,4.27,1.27c0-1.1,0-2.53,0-4,0-.89.09-1.82,0-2.71a15.3,15.3,0,0,1,.13-2.5c.38-.12.68,0,1-.17a31.6,31.6,0,0,1,3.85.17C113.47,80.18,113.21,80.69,113.25,81.28Zm-9.56,12.39a3.14,3.14,0,0,1-.25.64,4.05,4.05,0,0,0-.38,2l.08,3.76a20.63,20.63,0,0,0,.21,2.79,3.63,3.63,0,0,0,.72,1.87,3.44,3.44,0,0,0,1.61.42c.21-.13.34,0,.55,0a1.71,1.71,0,0,0,1-.55,3.88,3.88,0,0,0,.42-.68s.08,0,.08-.08a5.09,5.09,0,0,0,.39-.6,7.26,7.26,0,0,0,.21-2.49c0-1,0-2,0-3a10.57,10.57,0,0,0-.72-4.19.42.42,0,0,1-.16-.21,6.32,6.32,0,0,0-1.32-.68.28.28,0,0,0-.25,0,1.06,1.06,0,0,0-.8-.13A2.06,2.06,0,0,0,103.69,93.67Z"/><path class="ed4d2c80-f1e9-4e0f-bd34-1e5a2bcf9dd5" d="M122.44,89.87a46.7,46.7,0,0,1,.21,5.79c-.09,1.19,0,2.37-.09,3.52-.08,1.39-.17,2.66-.12,4,0,2,.12,3.9.08,5.8-.13.09-.13.25-.21.34a17.3,17.3,0,0,1-4.44,0c-.34.3-.55,0-.6-.47,0-.67.09-1.39.09-2.15,0-1.53-.17-3.18-.13-4.78,0-.81,0-1.74,0-2.63a4.33,4.33,0,0,0,0-.72,20.48,20.48,0,0,1,.13-2.66V93.38c0-.85.12-1.61.12-2.37a21.24,21.24,0,0,1,.09-2.92,11,11,0,0,1,4.4,0c.08,0,.13.08.13.17s.17,0,.34,0C122.35,88.77,122.56,89.44,122.44,89.87Zm.21-7.15a8.92,8.92,0,0,1-.21,1.94s-.13,0-.13.09a1.81,1.81,0,0,0-.72,0H121c-.08,0-.21-.08-.29-.08-1.06-.08-2.12-.08-3.22-.13,0-1.65.09-3.13.09-4.48.08-.13.21-.13.12-.26a26.19,26.19,0,0,1,4.83.09Z"/><path class="bef06467-c028-46d5-9627-bfd5901e0e38" d="M68.63,106.71a19.1,19.1,0,0,0,0,2.62c0,.34.09.76,0,.89s-.3,0-.42.08c-.3,0-.55.17-.89.21-.89.13-2.12.13-2.92.3a7.65,7.65,0,0,1-2.2-1.65,7.53,7.53,0,0,0-.13-1.1c0-.63,0-1.27,0-1.9,0-2.54-.08-4.83-.08-7.37-.72,2.71-1.69,5.12-2.41,7.83-.81.13-1.74.34-2.58.51-.22,0-.47,0-.64,0s-.17.17-.3.21-.38-.34-.67-.29c-.3-.34-.68-.55-1-.89a.67.67,0,0,0-.34-.26.18.18,0,0,1,.13-.25s-.17,0-.17-.13c-.46-1.86-1.14-3.76-1.69-5.41-.13-.38-.17-.81-.3-1.19a21,21,0,0,1-.72-2.28c.13,1.86.13,3.68.17,5.5,0,.63,0,1.23,0,1.86,0,1.23.17,2.54.21,4,0,.8-.12,1.52-.16,2.33a35.5,35.5,0,0,1-3.81.34c-.13,0-.26.08-.38,0s-.22-.13-.34-.17a7,7,0,0,1-1.06-.59,3.56,3.56,0,0,0-.47-.34,1.68,1.68,0,0,0-.67-.51c.12-1.82-.09-4.06,0-6-.13-.84-.08-1.94-.13-2.91s0-1.74,0-2.63c0-1.48,0-2.83,0-4.31,0-.81,0-1.61,0-2.46,0-1.52-.08-3.09.09-4.91a1.4,1.4,0,0,1-.13-.67l-.09-1.82c0-.64,0-1.23,0-1.78a10.62,10.62,0,0,1,.09-2c.72,0,1.69-.13,2.49-.25a6.22,6.22,0,0,1,1,0,3.82,3.82,0,0,1,1.39,0,13.67,13.67,0,0,0,2,.29c.29.68.46,1.57.68,2.2,0,0,0,0,0,0a.92.92,0,0,0,.25.63c-.17.13.09.26-.08.3,0,0,.12-.09.12,0,.34,1.14.64,2.37.93,3.51L54.16,90c.5,2,1.35,4.06,1.69,6.22a6.64,6.64,0,0,0,.46-1.65,2.34,2.34,0,0,0,.21-.55,2.24,2.24,0,0,0,.17-.6c.13-.46.43-.89.3-1.35l.17-.13a2.81,2.81,0,0,1,.34-1.35,11.22,11.22,0,0,1,.68-2.41c.29-.81.46-1.65.67-2.46.3-1.31.64-2.54,1-3.68a10.06,10.06,0,0,0,.55-2.37c.29,0,.63-.21,1-.25L63,79.37a17.31,17.31,0,0,1,4.18.38s0,.13,0,.26l1,1.1a.12.12,0,0,0,.13.13c0,1.81.13,3.55.09,5.2,0,1.48,0,3.13,0,4.87,0,.8-.09,1.65,0,2.49a4.54,4.54,0,0,0,.13.72c0,2-.13,4.4,0,6.81,0,1.19,0,2.37,0,3.56C68.63,105.52,68.63,106.07,68.63,106.71ZM62.45,109a7.85,7.85,0,0,0,4.4,0,16.9,16.9,0,0,0-.09-3.64,2,2,0,0,0,0-1.1,7.22,7.22,0,0,0,0-.93,13.91,13.91,0,0,1-.09-1.44c0-.34.09-.68.09-1s-.09-.72-.09-1.11v-1.1a16.17,16.17,0,0,1,.09-2.15c0-1.15,0-2.41-.09-3.64V92c0-1.86-.08-3.59,0-5.33a27.28,27.28,0,0,0,0-3.26,28.66,28.66,0,0,1,.09-3.34,18.64,18.64,0,0,0-3.39-.34,11.44,11.44,0,0,0-2.58.26c-.38,1.82-1,3.55-1.48,5.28l-.25,1.06c-.64,2.2-1.27,4.28-1.82,6.43-.34,1.23-.77,2.5-1.1,3.73,0,.17,0,.38-.13.55-.38,0-.51-.47-.55-.76-.17-.55-.21-1.1-.34-1.57s-.34-1-.46-1.52a35.06,35.06,0,0,1-1.15-4.11,1.28,1.28,0,0,1-.25-.67,2.37,2.37,0,0,1-.17-.77c-.13-.55-.34-1-.47-1.52-.12-.3,0-.55-.16-.85s-.17-.46-.22-.76c-.12-.5-.33-1-.46-1.52l-.09-.47c0-.16-.25-.33-.12-.55-.3-.29-.21-.67-.34-1l-.3-.89c-.38-.13-.8,0-1.27-.13A17.6,17.6,0,0,0,44.8,80c-.12,2.37.22,4.57.22,6.81,0,1.19-.13,2.24-.09,3.39v1.48c0,.55,0,1,0,1.69,0,1.48-.08,2.79,0,4.1.13,3.9.17,7.45.13,11.34a10.2,10.2,0,0,0,4.4,0,11.37,11.37,0,0,0,.08-1.73c0-.17.09-.38.05-.51a2.17,2.17,0,0,1-.09-.34,9.18,9.18,0,0,1,0-1,.32.32,0,0,1,.09-.22c-.17-.29-.05-.46-.09-.76s0-1,0-1.52a16.09,16.09,0,0,0-.09-2.12,8.32,8.32,0,0,1-.08-1.77c0-.72,0-1.44-.08-2.16a15.58,15.58,0,0,1,.08-2.07,24.19,24.19,0,0,1,.13-2.42c.12,0,.21-.17.34-.21.33.17.38.59.5.89l.43,1.06a22.33,22.33,0,0,0,.67,2.16,13.92,13.92,0,0,1,.72,2.15c.17.81.43,1.48.59,2.2.64,1.65,1.15,3.56,1.61,5.21a14.29,14.29,0,0,0,3.3-.13s.09-.25.3-.29c.17-.72.34-1.4.55-2,.13-.84.59-1.9.76-2.79s.55-1.69.89-2.58a24.71,24.71,0,0,1,.84-2.75,2.85,2.85,0,0,1,.3-1.14l.34-1.19c.21-.21.13-.63.51-.59s.25.76.25,1.23,0,.93,0,1.27a19.25,19.25,0,0,0,0,2.41c0,.17,0,.13.09.25a.38.38,0,0,0-.13.3,9.22,9.22,0,0,0,0,2.16v2.07c0,1.14,0,2.12,0,3.17A24.23,24.23,0,0,0,62.45,109Zm-14.85,1.4c-.34-.3-.76-.47-1.14-.76a1.1,1.1,0,0,1-.09-.26c-.21,0-.55-.21-.85-.08a3.89,3.89,0,0,0,1,.72A2.17,2.17,0,0,0,47.6,110.39Zm1.22-.09a4.23,4.23,0,0,0-1-.67c0-.13,0,0,0-.17-.3.12-.72,0-.93,0a5.81,5.81,0,0,1,.89.55c.17.13.25.29.38.34S48.53,110.3,48.82,110.3Zm1.74-.12c-.47-.13-.72-.85-1.19-.89a1.74,1.74,0,0,0-.67,0,.75.75,0,0,0-.47.13,4.46,4.46,0,0,1,1,.8A7,7,0,0,0,50.56,110.18Zm0-13s-.08,0-.13,0c-.29,0-.67-.85-.88-.85a11,11,0,0,1,0,1.14c0,.13,0,0,.17,0a2,2,0,0,0,.55.68c.17.17.51.42.38.72,0,0,0,0,0,0v0c-.47-.3-.68-.72-1-1,0,.29,0,.5,0,.84l.6.51c.16.21.63.51.46.72,0,0,0,0-.08,0-.34,0-.68-.76-1-.76,0,.34,0,.63,0,1.1a7.38,7.38,0,0,0,1.18.93c0-1.69-.13-3.3-.17-5.12a14.27,14.27,0,0,0-1.1-1.1l-.08.76c.21.17.38.43.59.64S50.64,96.89,50.6,97.19Zm.13-2.08c-.13,0,0-.12-.13-.12-.29-.72-.51-1.53-.8-2.25a15.55,15.55,0,0,0-.13,1.91,7.8,7.8,0,0,1,.85.8c.12.13.12.21.25.21C50.81,95.37,50.69,95.28,50.73,95.11Zm.29,9.27c-.12-.85,0-1.78-.08-2.75a3.57,3.57,0,0,1-1.14-.8v1.1a5.38,5.38,0,0,1,1.14,1.1c-.13,0-.13,0-.17,0a3.25,3.25,0,0,1-.93-.72c0,.46.13.84,0,1.23.13,0,.08-.09.21-.09Zm0,.25c-.46,0-.8-.63-1.18-.84l.08,1c.13,0,.13.13.26.13a4.3,4.3,0,0,0,.68.59c.12.13.16.21.21.17C51.07,105.35,51,105,51,104.63Zm.13,4.53c-.46-.13-.8-.59-1.27-.8,0,.29,0,.42,0,.72a7.75,7.75,0,0,0,1.23.93A6.73,6.73,0,0,1,51.15,109.16Zm0-1.48-1.23-.85c0,.47,0,.68,0,1.15a4.08,4.08,0,0,1,1,.76c.12.12.21.21.25.17A3,3,0,0,0,51.15,107.68Zm0-1.61c-.51-.17-.72-.59-1.19-.89v1.23c.47.3.77.59,1.23.89C51.11,106.79,51.15,106.54,51.11,106.07ZM52,82a.11.11,0,0,0,.08,0C52.21,82.08,52,82,52,82Zm4.06,24.83c-.17-.29-.76-.42-.64-.8-.29,0-.42-.09-.71,0C55.17,106.37,55.42,106.88,56.06,106.83Zm1.56-.21-.46-.34a1.13,1.13,0,0,0-.47-.29c-.29-.13-.67.17-1,0a2.91,2.91,0,0,0,.89.72s0,0,0,.08A4,4,0,0,0,57.62,106.62Zm1.15-.25-.85-.64c-.13.21-.51.09-.63.21.29,0,.5.51.8.64A1.13,1.13,0,0,0,58.77,106.37Zm.67-1.14a3.14,3.14,0,0,1-1-.77,4.78,4.78,0,0,1-.26,1,12.57,12.57,0,0,1,1.06.68A4.18,4.18,0,0,0,59.44,105.23Zm.51-1.49a2.48,2.48,0,0,1-1.1-.76c-.13.34-.21.72-.34,1.1.34.3.64.6,1,.89A10.9,10.9,0,0,0,60,103.74Zm.55-1.6.34-1.1c-.51,0-.8-.51-1.18-.81a18.72,18.72,0,0,0-.72,2.37l1.05.89.34-1-.5-.51c-.17-.17-.51-.38-.51-.55a.19.19,0,0,1,.21-.21c.13,0,.34.33.46.46Zm.72-2.29c-.51-.21-.76-.63-1.14-.93l-.3,1c.38.3.72.68,1.1,1Zm.38-1.48a11.59,11.59,0,0,1-1-.93l-.38,1.1c.38.34.71.72,1.1,1Zm.3-1.31c-.38-.21-.59-.59-.93-.89v-.08c-.13.29-.17.63-.3.93a11.21,11.21,0,0,0,1.06,1A1.66,1.66,0,0,0,61.9,97.06Zm0-4c.13,0,0-.17,0,0l-.47,1.56c.17.21.51.51.34.81-.29-.05-.25-.26-.46-.38-.13.29-.17.59-.3.93.47,0,.59.5.89.67Zm2.24,17.22c.13.13.3.25.42.13a5.79,5.79,0,0,1-.88-.68c0-.13,0,0,0-.17-.3,0-.47-.13-.76-.08Zm1.44,0c-.21-.29-.55-.42-.72-.72a4.74,4.74,0,0,0-.76,0C64.56,109.88,64.78,110.47,65.58,110.3Zm.55-.08a6.69,6.69,0,0,0,1.65-.17c-.34-.13-.51-.76-.85-.76-.17-.05-.17.08-.34.08.13.3.51.38.55.68-.46.13-.63-.42-1-.55-.13,0-.13,0-.25,0s-.43,0-.55.09Zm1-28.39a2.74,2.74,0,0,0,0,1.14c.38.13.64.55,1,.85a10,10,0,0,1,0-1.23l-.22,0Zm0,4.65a5.71,5.71,0,0,1,0,1.27,1.9,1.9,0,0,1,.68.72l-.09.17c-.29,0-.42-.42-.55-.38a6.72,6.72,0,0,1,0,.85c.34.29.59.63.93.93,0-.64,0-1.53,0-2.16a1.48,1.48,0,0,0,0-.47,4,4,0,0,0-.46-.46A3.66,3.66,0,0,0,67.06,86.48Zm0,12.27.76.81c.13.12.13.25.26.21,0-1.31,0-2.92,0-4.4a11.8,11.8,0,0,1-1-1,10.75,10.75,0,0,1,0,1.27,8.72,8.72,0,0,1,1,1.1c-.13,0,0,.13-.09.17s-.29-.12-.46-.34-.3-.38-.43-.38a10.71,10.71,0,0,1,0,1.27l.51.43c.17.16.38.25.42.55,0,0,0,.08,0,.08a2.31,2.31,0,0,1-.89-.68A6.53,6.53,0,0,0,67.1,98.75Zm1-14.68c-.47,0-.64-.55-1-.72a9.75,9.75,0,0,0,0,1.06,5.09,5.09,0,0,0,.94.89A11.36,11.36,0,0,1,68.12,84.07Zm-1-2.67a3.91,3.91,0,0,1,1,1.06c0-.29,0-.63,0-1.1-.12,0,0,0-.17,0a5.25,5.25,0,0,0-.72-.8A5.38,5.38,0,0,1,67.1,81.4Zm0,10.84.68.72c.13.12.17.16.21.16a4.69,4.69,0,0,0,0-1.35c-.46,0-.59-.63-.93-.76Zm0,7a8.67,8.67,0,0,1,0,1,8.64,8.64,0,0,0,1,.84,8.5,8.5,0,0,1,0-1C67.57,100,67.44,99.56,67.1,99.26Zm1,2.33c-.34-.21-.59-.6-1-.81a4.12,4.12,0,0,1,0,1.06c0,.13.09,0,.13,0a4.42,4.42,0,0,0,.93,1C68.16,102.39,68.12,102.09,68.12,101.59Zm-1-15.49a2.31,2.31,0,0,1,.68.64c0,.12.13.16.21.12,0-.38,0-.8,0-1.18a3,3,0,0,1-.94-.72A10.81,10.81,0,0,0,67.14,86.1Zm1,8.8c0-.55-.17-.76-.13-1.27l-.89-.84a9.17,9.17,0,0,0,0,1A11.37,11.37,0,0,0,68.16,94.9Zm0,8.25s-.08,0-.21,0l-.47-.42c-.12-.13-.21-.3-.34-.26.3.13,0,.38,0,.51a2.34,2.34,0,0,0,0,.55c.38.3.63.64,1,.93C68.16,104,68.16,103.66,68.16,103.15Zm-1-12.73a10.06,10.06,0,0,0,.89,1v-1c-.34-.29-.59-.59-.89-.89ZM68.2,104.8c-.46-.17-.63-.55-1-.84a5.08,5.08,0,0,1,0,1.35,3.06,3.06,0,0,0,.8.72c0,.13.13.21.25.17C68.24,105.65,68.24,105.27,68.2,104.8Zm0,1.69c-.5,0-.67-.46-1-.67,0,.46,0,.8,0,1.27l.46.5c.17.13.3.39.51.39C68.2,107.43,68.24,107,68.24,106.49Zm0,3.43c0-.63-.08-1.1-.08-1.73-.47.12-.59-.38-.89-.55,0,.5,0,1,0,1.35A4.35,4.35,0,0,0,68.24,109.92Z"/><path class="bef06467-c028-46d5-9627-bfd5901e0e38" d="M77.9,98.33a12.89,12.89,0,0,0,0,1.39s-.05.13.08.17a.49.49,0,0,0-.08.22,9.34,9.34,0,0,0,0,1.9c0,.59,0,1.23,0,1.86,0,1.31.17,2.67.08,3.85,0,.93-.21,2-.16,3-.13.08-.26.08-.39.25a2.62,2.62,0,0,0-1,.09c-.42,0-.93-.09-1.23.08-.12,0-.16-.13-.25-.08-.3,0-.63,0-.93,0a1.4,1.4,0,0,1-.85-.13c-.08-.13.13-.17.26-.17a9.38,9.38,0,0,1-2-1.39c-.46,0-.3-.81-.25-1.27,0-1-.13-2.08,0-3,0-1.05,0-2.07,0-3.09s0-1.94-.09-2.91c0-.6-.08-1.19-.08-1.78,0-1.61,0-3.26,0-4.83a6.48,6.48,0,0,1,0-.88c0-.3,0-.64,0-.93,0-1.36,0-2.84,0-4.19,0-1.74,0-3.47,0-5.21a6.68,6.68,0,0,0,0-1.61c0-.12.17-.12.13-.33a12,12,0,0,0,2.46,0c.25,0,.46.09.71.09.09,0,.17,0,.26,0a12.8,12.8,0,0,1,1.31.08,5,5,0,0,1,.55.47,19.5,19.5,0,0,0,1.14,2c.13.09.05.17.21.22-.16,3.51.13,7.06.13,10.32,0,1-.13,2-.17,3S77.9,97.36,77.9,98.33ZM75.7,109a6.64,6.64,0,0,0,0-.89c0-.46,0-.93,0-1.39s0-.93,0-1.4v-2.79c0-2.29-.09-4.49,0-6.6a6,6,0,0,0,0-.85c0-1.23,0-2.45,0-3.85,0-.68,0-1.35,0-2,.08-1.22.16-2.45.12-3.68,0-.89,0-1.82.09-2.7s-.09-2,0-3a26.57,26.57,0,0,0-4.11,0c-.12,1.18,0,2.41,0,3.68-.13,4.06,0,9-.17,12.31,0,2,.17,3.93.21,5.75,0,2.63-.08,4.91-.08,7.2C73.07,108.86,74.26,109,75.7,109Zm-1,1.82a7.67,7.67,0,0,1-1.14-1.14c-.08-.09-.17-.3-.3-.34s-.17,0-.21,0a4.5,4.5,0,0,0-1.1,0,11.76,11.76,0,0,0,2.24,1.48Zm.93,0a11.42,11.42,0,0,0-1.1-1.1c-.12,0-.25,0-.25-.17s0,0,0-.09a3.43,3.43,0,0,0-.68-.08,6,6,0,0,0,.68.8C74.68,110.47,75,110.94,75.65,110.77Zm1.4,0a4.37,4.37,0,0,1-1.19-1.27,8.32,8.32,0,0,0-1.1,0,4.3,4.3,0,0,1,.64.68c.17.21.42.64.63.72A4.56,4.56,0,0,0,77.05,110.73Zm.63-2.59c-.72-.25-1.05-.84-1.56-1.31,0,.51,0,.89,0,1.31.38,0,.59.39.8.68s.38.51.47.72c-.64-.17-.81-.93-1.27-1.18,0,.38,0,.72.21.84,0,.09,0,.17,0,.3a3.07,3.07,0,0,0,1.18,1c0,.09,0,.17.09.13C77.56,110,77.6,109,77.68,108.14Zm.17-15c0-.09-.12,0-.17,0a18.66,18.66,0,0,1-1.52-1.7c0,.39-.08.85,0,1.23.59.34.93,1.14,1.48,1.61,0,0,.13.21.13.13A7.16,7.16,0,0,0,77.85,93.17Zm-1.73,1.48c.25,0,.38.21.55.42a9.42,9.42,0,0,0,.68.72c.08.13.25.3.33.25,0-.38,0-.84,0-1.14-.51-.63-1.06-1.23-1.57-1.86h0C76.16,93.55,76.12,94.1,76.12,94.65Zm0,1.56c.59.34.8,1,1.35,1.4,0,0,.13.21.13.08,0-.42,0-.88,0-1.31a7.91,7.91,0,0,1-1.52-1.65Zm0,.38c0,1.48,0,3.13,0,4.87,0,0,.09-.13.17-.08A6.94,6.94,0,0,0,77.68,103c-.12-.6,0-1.15-.12-1.7,0,.13-.09,0-.21,0-.13-.34-.72-.76-1-1.1-.08-.12-.25-.46,0-.46.09,0,.13.12.17.21a6.74,6.74,0,0,1,1,1.23V99.85a13.18,13.18,0,0,1-1.06-1.14c-.13-.21-.51-.47-.21-.68.3.34.63.76.93,1.06.13.13.25.34.34.3.08-.51-.09-.81,0-1.23C77.05,97.69,76.58,97,76.12,96.59Zm1.61,10.24a13.76,13.76,0,0,1-1.57-1.65c0,.43,0,.81,0,1.31.55.47,1,1.1,1.56,1.53A5.08,5.08,0,0,0,77.73,106.83Zm0-.38a6.78,6.78,0,0,1,0-1.35c-.51-.59-1.1-1.1-1.57-1.69,0-.09,0-.17.17-.22.34.3.72.77,1,1.1.12.09.25.3.33.26a7.49,7.49,0,0,0,0-1.06c-.08-.13-.25-.25-.38-.42-.38-.43-.84-1-1.14-1.36,0,1.19,0,2.2,0,3.22,0,.08.09-.09.17,0a4.88,4.88,0,0,0,1.06,1.22C77.51,106.24,77.64,106.45,77.77,106.45ZM76.16,89a14.52,14.52,0,0,0,1.65,1.9c0-.25,0-.84,0-1.27,0,0-.17,0-.21,0-.51-.55-.85-1.23-1.35-1.78A5.31,5.31,0,0,1,76.16,89Zm1.69,2.45c-.5-.67-1.14-1.27-1.69-1.94v1.6c.51.68,1.1,1.27,1.69,2C77.9,92.36,77.85,92.07,77.85,91.43Zm-1.56-3.81s0-.08.12-.08c.51.59.89,1.31,1.4,1.9,0-1.35-.08-2.37-.13-3.85,0,0-.17,0-.21,0-.29-.63-.8-1.1-1.14-1.69v1.65A8.92,8.92,0,0,1,77.47,87c.09.12.34.38.13.55-.51-.47-.76-1.1-1.27-1.57C76.37,86.69,76.29,87,76.29,87.62Zm1.39-3.89s-.08.13-.17,0c-.33-.42-.55-1.1-1-1.39h.09c-.13-.09-.13-.3-.26-.38,0,.38,0,1,0,1.31a4.84,4.84,0,0,1,.47.76,12.91,12.91,0,0,1,.88,1.18C77.68,84.66,77.64,84.41,77.68,83.73Zm-1.31-2.2s.13,0,.13.09a21.12,21.12,0,0,1,1.18,2c0-.42,0-1,0-1.39-.63-.51-.76-1.48-1.31-2.07A8.05,8.05,0,0,0,76.37,81.53Z"/><path class="bef06467-c028-46d5-9627-bfd5901e0e38" d="M79.73,104.51a3.31,3.31,0,0,1,0-.89,5.61,5.61,0,0,1,1.52-4.11c.13,0,.13,0,.17,0a14.82,14.82,0,0,1,6.18-3,7.78,7.78,0,0,1,2.12-.72c.12-.76.21-2-.43-2.46a1.58,1.58,0,0,0-.55-.21,1.41,1.41,0,0,0-.5-.21,3.14,3.14,0,0,0-1.65.42,2.86,2.86,0,0,0-1.32,2.37c0,.26.09.47,0,.68a.25.25,0,0,1,0,.3c-1.27.08-2.16.08-3.55.12a.36.36,0,0,1,0-.21,9.91,9.91,0,0,1-.89-1c-.21,0-.25-.05-.38-.05a3.57,3.57,0,0,0,.51.55c.21.22.72.43.46.68a1.45,1.45,0,0,1-.68-.46L80,95.58a.13.13,0,0,1,0-.21.22.22,0,0,1-.26-.13,26,26,0,0,1,.17-2.62A4.41,4.41,0,0,1,81,90.21a5.65,5.65,0,0,1,1.35-1.32,2.52,2.52,0,0,1,.47-.38c.08-.08.21-.08.3-.12s.21-.17.33-.22.47-.16.72-.25a11.78,11.78,0,0,1,2.71-.42,10.68,10.68,0,0,1,3.34.55,6.41,6.41,0,0,1,1.15.46,2.86,2.86,0,0,1,1,.72h.26A8.19,8.19,0,0,1,95.3,91.6a8.9,8.9,0,0,1,.81,3.94l.16,2.92c.13,1.9,0,3.68,0,5.5l.12,1.48c0,1.6.09,3.47.09,5-.09.08-.17.08-.26.21-.12,0-.16-.13-.25-.17a17.92,17.92,0,0,1-2.07.09c-.51,0-1,.29-1.48.12-.09-.08.12-.12,0-.21-.34-.46-.85-.76-1.19-1.18.05-.34-.25-.47-.29-.81a4.22,4.22,0,0,1-2.33,2.2c-.21,0-.38.17-.55.21-.38.09-.89,0-1.18.26-.34-.09-1,0-1.48-.13-2.16-.34-3.18-2-4.62-3.17,0-.09.09-.09,0-.17l-.38-.59c-.05,0,0-.09-.05-.13a.12.12,0,0,0-.08,0,4.85,4.85,0,0,1-.59-1.74v-.34C79.82,104.72,79.73,104.63,79.73,104.51Zm.42.29v.38a4.23,4.23,0,0,0,.77,1.82l.21.38a4.3,4.3,0,0,0,1.1.85l.63.38a8.13,8.13,0,0,0,2.16.8,7.3,7.3,0,0,0,.93-.08,4.32,4.32,0,0,0,1.31-.13A6.72,6.72,0,0,0,90,108.06c.13-.13.34-.21.43-.34s.21-.46.25-.46c.34-.09.3.5.42.72s.21.67.43.88a22.65,22.65,0,0,0,3,.22c-.08-.22-.13-.39,0-.55a17.12,17.12,0,0,1-.08-2.16c0-.43-.13-.89-.13-1.31,0-1.19,0-2.5,0-3.68V100c0-.3,0-.64,0-1l-.08-2.84c0-.51,0-1,0-1.52a13,13,0,0,0-.47-3.05l-.08-.25a3.74,3.74,0,0,0-.6-1,10.24,10.24,0,0,0-1.44-1.26s0,0,0,0a4.4,4.4,0,0,0-2.2-.81c-.21-.17-.63-.17-.89-.29-.46,0-1-.13-1.43-.13a4.08,4.08,0,0,0-.94.13,4.78,4.78,0,0,0-2,.38c-.55,0-.93.46-1.43.63l-1.06,1-.21.21c-1.1,1.06-1.4,2.83-1.48,4.82,1.31,0,2.7.25,4.1.21a4.38,4.38,0,0,1,.13-1.48c0-.17.17-.21.17-.38a3.33,3.33,0,0,1,1.94-1.69c1.23-.42,2.24.34,3.09.84l.38.47a4.42,4.42,0,0,1,.34,2.54c.47.34-.21.55-.42.63-1.32.26-2.54.89-3.85,1.27a18,18,0,0,0-3,1.4c-.46.42-1,.8-1.52,1.18-.09.26-.3.38-.38.64,0,0,0,.13,0,.21a.36.36,0,0,0-.22.13,4.88,4.88,0,0,0-.63,2.49A6.31,6.31,0,0,0,80.15,104.8Zm2.54-8.38c-.21-.21-.63-.46-.55-.84-.38,0-.67-.09-.93,0a4.29,4.29,0,0,0,.81.89C82.14,96.42,82.48,96.51,82.69,96.42Zm2.41,0a7.28,7.28,0,0,1-.88-.67,4.76,4.76,0,0,0-.85,0,2,2,0,0,1,.47.67c-.39.13-.55-.51-.89-.67a1.25,1.25,0,0,0-.6,0c.22.17.39.68.72.81a4.09,4.09,0,0,0,1.15-.13A2.89,2.89,0,0,0,85.1,96.38Zm1.36,14.43c-.3-.25-.64-.85-1-1s-.59,0-.89-.13c.13.25.55.42.68.76-.08,0-.08,0-.17,0-.76-.5-1.27-1.22-2.28-1.48a.43.43,0,0,0-.38-.17A5.85,5.85,0,0,0,86.46,110.81ZM85.23,94.65c-.29-.21-.38-.55-.63-.81-.3.72-.3,1.82.38,2.08A6.94,6.94,0,0,1,85.23,94.65Zm-.72,9.09a1.89,1.89,0,0,1-.08-.84,2.46,2.46,0,0,1,.42-1.1v-.21c1.27-1.31,3.17-1.7,5.12-2.25.08.09,0,.34.13.43-.13,1.35.29,3-.21,4.1-.43.85-1.36,1.14-2.25,1.57a3.74,3.74,0,0,1-2.41-.6s0-.12-.13-.16-.16-.13-.25-.17A2.88,2.88,0,0,1,84.51,103.74Zm1.4-10.32a3.16,3.16,0,0,0-.55-.68,4.91,4.91,0,0,0-.59.77,3.47,3.47,0,0,0,.55.84A3.42,3.42,0,0,1,85.91,93.42Zm-1.14,9.65a1.81,1.81,0,0,0,1.35,1.77c0-.21-.21-.46-.13-.76C85.4,103.91,85.19,103.41,84.77,103.07Zm.08-.38a5.91,5.91,0,0,0,.85,1c.08.08.17.25.29.21a8.21,8.21,0,0,1,.26-1.06,7.83,7.83,0,0,1-1-1C85.1,102.14,84.89,102.31,84.85,102.69Zm.59-1.19a2.93,2.93,0,0,0,1,1c0-.17.21-.3.29-.51a2.77,2.77,0,0,0-.8-.8A5.8,5.8,0,0,1,85.44,101.5ZM86.67,93c-.25-.17-.21-.55-.47-.72-.16.12-.46.17-.59.33a5.2,5.2,0,0,1,.51.72Zm1.06,17.68a4.85,4.85,0,0,0-.89-.76c0-.09,0-.13,0-.17-.34,0-.59.08-1,.08a10.81,10.81,0,0,0,1,1A4.67,4.67,0,0,0,87.73,110.64Zm.42-10a7.64,7.64,0,0,0-.59.63,4.91,4.91,0,0,0-1.27,2.41c0,.51,0,1.19.42,1.27a2.55,2.55,0,0,0,1.14-.08,6.52,6.52,0,0,0,.68-.38,2.73,2.73,0,0,0,.93-.68c.51-1.1.17-2.88.21-4h0A11.67,11.67,0,0,0,88.15,100.66Zm-1.82.38a5.51,5.51,0,0,0,.59.76c.13-.34.51-.55.55-.85a2.68,2.68,0,0,1-.55-.21C86.75,100.87,86.46,100.91,86.33,101Zm1.14-8.34c0-.25-.42-.42-.29-.68a3,3,0,0,0-.64.13l.38.68A1.85,1.85,0,0,1,87.47,92.7ZM89,110.3l-1-.8a2.59,2.59,0,0,0-.84.21,9.85,9.85,0,0,1,1,.93Zm.12-17.47a6.13,6.13,0,0,0-1.56-.72c.08.21.21.3.29.51C88.24,92.45,88.74,92.74,89.08,92.83Zm-1.56,7.74c.08,0,.17.21.25.17.17-.21.42-.3.59-.51A3.09,3.09,0,0,0,87.52,100.57Zm3.25,7.28c-.12.34-.67.59-.93.8l-.08.13s-.17,0-.26.08a4.7,4.7,0,0,1-1.14.47c.26.34.6.59.85.89a3.69,3.69,0,0,0,.63-.47,2.52,2.52,0,0,0-.76-.55c.26-.42.72.13.93.34C90.35,109.08,91,108.53,90.77,107.85Zm2.54,2.58a9.2,9.2,0,0,0-.8-1.06,1.43,1.43,0,0,0-.59,0A3.6,3.6,0,0,0,93.31,110.43Zm2.41-.21c-.33-.21-.67-.51-1-.76-.25.08-.42-.09-.72,0a6.43,6.43,0,0,1,.47.63c-.43.09-.55-.46-.85-.72a3.06,3.06,0,0,1-.68,0c.21.34.47.64.64,1C94.33,110.22,95,110.39,95.72,110.22ZM93.65,90.29a4.5,4.5,0,0,1,.64,1.61c.59.21.8.84,1.18,1.27A4.44,4.44,0,0,0,93.65,90.29Zm1.95,3.43c-.47-.43-.72-1-1.19-1.44a8.84,8.84,0,0,1,.13,1.14c.08,0,.17,0,.21,0,.3.51.64,1,.93,1.53-.51-.09-.72-.81-1.06-1.15,0,.3,0,.43,0,.77.17.25.42.5.59.76a8.85,8.85,0,0,1,.51.89c-.13,0-.17,0-.26,0a8.61,8.61,0,0,0-.84-1.15,3.83,3.83,0,0,1,0,.68c.46.42.8,1.14,1.22,1.52A23.2,23.2,0,0,0,95.6,93.72ZM96,104.13c0-.55,0-1,0-1.61-.38-.55-.89-1-1.27-1.57,0,.55,0,.93,0,1.48.12,0,.12.09.21.09A14.92,14.92,0,0,0,96,104.13Zm0,.38c-.59-.47-.84-1.19-1.39-1.7,0,.43,0,1,0,1.4,0,0,.17,0,.17.08.42.51.84,1,1.23,1.53C96.11,105.31,96.06,104.93,96.06,104.51Zm-.12-5.89a9,9,0,0,1,0-1c-.5-.3-.76-.89-1.18-1.35,0,.29,0,.5,0,.8C95.22,97.48,95.47,98.16,95.94,98.62Zm.17,7.41c-.47-.25-.89-1-1.36-1.44a6.32,6.32,0,0,0,0,1.23c0,.08.09,0,.17,0l1.27,1.65C96.15,107.17,96.19,106.49,96.11,106ZM96,100.66a2,2,0,0,0-.34-.47c-.25-.34-.63-.63-.89-.93,0,.55,0,1,0,1.52l.17-.08A8.89,8.89,0,0,0,96,102C95.85,101.5,96.06,101,96,100.66Zm0-.47a10.41,10.41,0,0,0,0-1.18c-.43-.47-.77-1.1-1.19-1.49v1.36A11.59,11.59,0,0,1,96,100.19Zm.17,7.45c-.55-.34-.85-1-1.36-1.44a10.09,10.09,0,0,0,0,1.1c.09,0,.09-.13.22-.09.46.47.76,1.1,1.18,1.61C96.19,108.53,96.19,108,96.15,107.64Zm.08,2.58c0-.51,0-.59,0-1.1-.55-.47-.8-1.19-1.35-1.65-.09.67.12,1.14,0,1.73C95.34,109.5,95.77,109.88,96.23,110.22Z"/><path class="bef06467-c028-46d5-9627-bfd5901e0e38" d="M114.92,111c-.51,0-1-.08-1.56-.08a11.47,11.47,0,0,0-1.7.08,11.13,11.13,0,0,1-1.9-1.86c-.34.21-.64.55-1,.76-.21.13-.42.17-.63.3s-.34.25-.55.38a4.8,4.8,0,0,1-2.37.38,11.57,11.57,0,0,1-2.75-.42,4,4,0,0,1-1.19-.81,14.18,14.18,0,0,1-1-1.14c-.38-.42-.64-.89-.93-1.27a.33.33,0,0,1,0-.21,2.35,2.35,0,0,1-.63-1.27,18.59,18.59,0,0,1-.47-3.64c-.08-1-.08-2-.08-3S97.91,97.1,98,96c0-.72.22-1.52.34-2.28a11.48,11.48,0,0,1,.47-1.7,1.24,1.24,0,0,1,.42-.59,6.19,6.19,0,0,1,.93-1.48,3.83,3.83,0,0,1,1.31-1.14,5.92,5.92,0,0,1,1.15-.68,3.47,3.47,0,0,1,1.27-.46,7.19,7.19,0,0,1,4.35,1.22c0-.59,0-1.31,0-2s0-1.35,0-2c0-.42.09-.8.09-1.18a24.67,24.67,0,0,1,.08-4c1.48-.42,3.05-.08,5,0a16.13,16.13,0,0,0,1.14,1.73c.17.17.22.43.38.6,0,1.31,0,2.58,0,3.93,0,1.95.09,3.85.13,5.88,0,.64,0,1.23,0,1.86.17,1.65.13,3.26.21,4.91,0,1,.13,2,.09,2.88,0,.25,0,.51,0,.76-.08,1.1,0,2.07,0,3.09,0,.59-.12,1.14-.12,1.78,0,.46,0,1,0,1.48,0,.25,0,.51,0,.72,0,.55.29,1,.34,1.56C115.22,111,115.05,110.85,114.92,111Zm-5-2.24a6.49,6.49,0,0,0,3,.25v-2.54a22.86,22.86,0,0,1,0-2.87,15,15,0,0,1,0-2.33c0-.72-.08-1.48,0-2.2,0-.21.08-.42.08-.63,0-.94,0-2-.08-3s-.08-1.86-.08-2.75a13.74,13.74,0,0,1-.09-1.44c0-.46,0-.93,0-1.39,0-1.7-.17-3.51,0-5.25,0-.47,0-.93,0-1.35s.13-.81,0-1a2.84,2.84,0,0,0,0-1.06c.08-.34,0-.72.13-1-.13,0-.17.12-.34.08s.08-.13-.09-.13a13.74,13.74,0,0,0-3.68,0c-.08,1.91,0,3.64,0,5.55,0,1.31,0,2.62,0,3.76-.3.17-.43-.08-.64-.21a1.44,1.44,0,0,1-.42-.13,1.66,1.66,0,0,0-.3-.25c-.17-.09-.34-.13-.5-.21A5.55,5.55,0,0,0,104,88a3.52,3.52,0,0,0-1.1.29.74.74,0,0,1-.33.17A6.16,6.16,0,0,0,99.31,92s-.17,0-.13.09a3.88,3.88,0,0,0-.42,1.31,16.24,16.24,0,0,0-.34,4.1c0,1.48,0,3,.08,4.53.13,1.14.13,2.24.34,3.26a6.87,6.87,0,0,0,.26,1c.17.51.63.8.84,1.27.3.17.6.42.93.63a8.35,8.35,0,0,0,2.75,1,11.22,11.22,0,0,0,2.84,0c.3-.09.59-.17.84-.26s.3-.17.39-.29a.29.29,0,0,1,.25-.09c.47-.5,1.06-.84,1.35-1.52.22,0,.17.25.26.38a2.2,2.2,0,0,0,.17.25v.34A6.83,6.83,0,0,1,110,108.78Zm-6.85,1.61c-.38-.47-.93-.76-1.23-1.27-.55-.21-1-.59-1.48-.81C101.21,109.12,101.8,110.09,103.12,110.39Zm1.27.21a10.35,10.35,0,0,0-1-.89.29.29,0,0,1,.09-.21,5.46,5.46,0,0,1-1-.26c.26.43.76.64,1,1.06,0,.09-.13.09,0,.13A5.67,5.67,0,0,0,104.39,110.6Zm4.44-10.2v1.65a7.13,7.13,0,0,1-.17,1.06,12.18,12.18,0,0,1-.76,1.27,2.3,2.3,0,0,1-1.19,1,4.93,4.93,0,0,1-3-.51,5.71,5.71,0,0,1-.59-1,3.52,3.52,0,0,1-.13-.8,37.82,37.82,0,0,1-.34-6.1,7.65,7.65,0,0,1-.08-1.31,4.11,4.11,0,0,1,.55-1.61,3.56,3.56,0,0,1,1.1-1.56,7.16,7.16,0,0,0,.84-.26A4.08,4.08,0,0,1,108,93.46c.68,1.36.68,3.35.81,5.25C108.83,99.3,108.79,99.85,108.83,100.4ZM103,95.79a9,9,0,0,0,0,1c.47.26.72.76,1.23,1a14.6,14.6,0,0,1,.34-2.16c-.42-.38-.8-.85-1.23-1.23a5.87,5.87,0,0,0-.34.93c.43.43,1.1.81,1.19,1.36-.13,0-.13,0-.26,0a2.74,2.74,0,0,0-.59-.63C103.29,96,103.16,95.75,103,95.79Zm0,1.35a10.09,10.09,0,0,1,0,1.23,7.39,7.39,0,0,1,1.15.89,4.64,4.64,0,0,1,0-1.1C103.88,97.82,103.45,97.52,103.07,97.14Zm.09,2.71c.42.21.68.64,1.1.89,0-.38,0-.72,0-1.14-.38-.26-.77-.64-1.15-.85C103.16,99.05,103.07,99.56,103.16,99.85Zm.21,1.44a5,5,0,0,0,1,.93c0-.38-.09-.68-.13-1.1,0,.09-.09,0-.17,0a4.58,4.58,0,0,0-.93-.88,4.31,4.31,0,0,0,.08,1S103.29,101.33,103.37,101.29Zm0,1.52c.55.17.81.64,1.27.89-.08-.46-.17-.8-.25-1.22-.47,0-.81-.51-1.19-.77A8.76,8.76,0,0,0,103.41,102.81ZM105,105a2.58,2.58,0,0,1-.25-.89,8.1,8.1,0,0,1-1.27-.93C103.58,104.13,104,105,105,105Zm-1.44-10.91c.38.42.76.8,1.19,1.22a4.17,4.17,0,0,0,.12-.76,8.07,8.07,0,0,0-1-1.06A1.41,1.41,0,0,0,103.58,94.06Zm2.54,16.58a7.84,7.84,0,0,0-1.06-1c-.38.08-1-.09-1.31,0a15.74,15.74,0,0,0,1.27,1A4.88,4.88,0,0,0,106.12,110.64Zm-2.07-17.43a11.11,11.11,0,0,0,1,1c.05-.29.26-.46.34-.71a10.84,10.84,0,0,0-.72-.85A1,1,0,0,0,104.05,93.21Zm4.36,6.05a11.08,11.08,0,0,0-.13-1.27,8.71,8.71,0,0,0,0-1.06,8.88,8.88,0,0,0-.68-3.34,1.12,1.12,0,0,0-1.23-.51,1.38,1.38,0,0,0-.46.34c0,.09.12.21,0,.3s-.17-.13-.17,0c-.17.25-.47.55-.34.89a.29.29,0,0,0-.17.17,16.47,16.47,0,0,0-.63,5,19,19,0,0,0,.84,5.12s-.08,0-.08.13a6.89,6.89,0,0,0,1.35,0,.89.89,0,0,0,.38-.29c.09-.09.21-.09.21-.13.17-.13.21-.34.34-.51a6.51,6.51,0,0,0,.55-.93,7,7,0,0,0,.21-2.75A10.87,10.87,0,0,1,108.41,99.26Zm-3.31-6.69a7.49,7.49,0,0,0,.6.68,1.69,1.69,0,0,1,.72-.46c-.17-.05-.55-.26-.55-.09A1,1,0,0,0,105.1,92.57Zm3.52,17.1c-.21-.26-.51-.38-.72-.64a1.85,1.85,0,0,1-.72.34c.12.26.46.3.46.68-.12-.09-.08,0-.25,0-.21-.21-.42-.38-.63-.59a4.86,4.86,0,0,1-1.11.17c.26.34.64.51.85.93A6.14,6.14,0,0,0,108.62,109.67Zm.93-1.27c0-.21-.17-.47-.21-.72,0,.25-.34.3-.34.46s.21.17.25.3a.68.68,0,0,1,.13.42s-.09,0-.21,0c-.17-.17-.26-.43-.47-.55-.13.17-.34.29-.46.46a2.46,2.46,0,0,0,.72.64c.16-.26.63-.3.67-.64C109.67,108.78,109.59,108.53,109.55,108.4Zm2.71,2.24a9.81,9.81,0,0,1-1.15-1.18c-.25,0-.59-.17-.72-.13a5.61,5.61,0,0,0,1.48,1.31A1.24,1.24,0,0,0,112.26,110.64Zm2.28,0a4.75,4.75,0,0,1-1.31-1.14,7.84,7.84,0,0,1-1,0c.21.34.71.63.71,1-.21,0-.38-.21-.5-.38a1.26,1.26,0,0,1-.6-.63c-.08,0-.21,0-.25,0,.25.46.76.72,1.06,1.18C113.36,110.6,114,110.64,114.54,110.64Zm-1.4-24.07c.55.29.77.89,1.32,1.18V86.9a9.83,9.83,0,0,0-1.32-1.26A3.62,3.62,0,0,0,113.14,86.57Zm0-5.17a1.53,1.53,0,0,1,.38.39,8.51,8.51,0,0,1,.89,1.35s-.08,0-.12.08a3.26,3.26,0,0,1-.81-.93c-.08-.12-.12-.25-.25-.29a9.14,9.14,0,0,1,0,1.48s.17,0,.17.08a5.34,5.34,0,0,1,.93,1.19c-.34.34-.85-.81-1.1-.89,0,.51-.09.84-.09,1.31a9.94,9.94,0,0,0,1.36,1.23c0-1.15,0-2.88,0-4.28,0,0-.13.09-.13,0a11.86,11.86,0,0,0-1.18-1.82A7.26,7.26,0,0,0,113.14,81.4Zm1.36,6.77a9.61,9.61,0,0,1-1.36-1.27v1c.34.29.72.59,1.06.84.09.09.13.22.26.22A4.19,4.19,0,0,1,114.5,88.17Zm-1.27,1.44s0,0,0-.08c.3,0,.47.42.68.63s.38.34.51.47V89.27h-.26c-.21-.42-.68-.63-1-1A10.69,10.69,0,0,0,113.23,89.61Zm0,1.57a8.87,8.87,0,0,0,0,1c.46.38.76,1,1.27,1.32a8,8,0,0,0,0-1A18.52,18.52,0,0,1,113.19,91.18Zm0-.26c.51.3.8.85,1.27,1.19,0-.34,0-.8,0-1.1a8.21,8.21,0,0,1-1.23-1.27A11.57,11.57,0,0,0,113.23,90.92Zm1.35,3.14a14.42,14.42,0,0,1-1.35-1.36c0,.59,0,1,0,1.57a3.1,3.1,0,0,1,.85.67c.08.09.21.17.29.26s.13.21.26.21C114.63,94.94,114.63,94.48,114.58,94.06Zm.13,1.77c-.08,0-.13,0-.21,0a4.92,4.92,0,0,0-1.23-1.22,11.71,11.71,0,0,1,.09,1.18c.21.17.42.38.67.59a2.55,2.55,0,0,0,.72.47A9.39,9.39,0,0,1,114.71,95.83Zm.08,3.09c-.08,0-.12,0-.16,0a5.56,5.56,0,0,0-1.23-1.14c0,.3,0,.59,0,.8.25.22.38.47.63.68s.64.47.81.85a.39.39,0,0,1-.3,0l-.17-.09a7.41,7.41,0,0,1-1-1,6.43,6.43,0,0,0,0,1.39,5.5,5.5,0,0,0,.71.64c.22.21,1,.72.43.85a8,8,0,0,0-1.14-1,5,5,0,0,0,0,1.14h.12c.39.47.89.72,1.19,1.19a.32.32,0,0,1-.3.17,13.13,13.13,0,0,0-1-1.06,7.44,7.44,0,0,0,0,1.06c.08,0,.12-.09.21-.09a6.12,6.12,0,0,0,1.22,1.32,16.64,16.64,0,0,0,0-2.12c0-.3.09-.59.09-.93C114.88,100.74,114.84,99.85,114.79,98.92Zm-.42-1.9a9.81,9.81,0,0,1-1-.72c0,.38,0,.67,0,1.1.42.38.93.76,1.35,1.1C114.79,97.82,114.79,97.36,114.37,97Zm-1,8.16c.12,0,.12.09.21.09.34.42.76.72,1.1,1.14,0-.42,0-.8.12-1.35,0,0-.16,0-.21,0-.34-.55-.89-.85-1.22-1.36Zm1.31,1.57c-.13,0-.13,0-.26,0,0-.08,0-.13,0-.17-.21-.25-.51-.55-.76-.8,0-.09-.13-.21-.21-.17v.89c.08,0,.08.08.17.08a5.84,5.84,0,0,0,.55.51c.08.08.72.76.25.76-.13,0,0-.13-.17-.21a1,1,0,0,0-.21-.13c-.21-.21-.38-.51-.63-.59a7.24,7.24,0,0,0,0,1c0,.09.08,0,.12,0,.39.43.89.68,1.11,1.23-.6,0-.81-.59-1.23-.89,0,.42.12.68.08,1a5.5,5.5,0,0,0,1.48,1.23A13.11,13.11,0,0,1,114.67,106.75Z"/><path class="bef06467-c028-46d5-9627-bfd5901e0e38" d="M117.27,102.39c0-1.48,0-2.79,0-4.19,0-1.56.13-3.68.21-5.63.13-1.65,0-3,.17-4.48a12.74,12.74,0,0,1,4.4,0c.09,0,.13.08.13.17s.17,0,.3,0c.55.76,1,1.52,1.6,2.24a1.69,1.69,0,0,1,.43.76c0,.13-.13.09-.21.09a2.57,2.57,0,0,0,.12,1,8.8,8.8,0,0,0,0,1.78,11.44,11.44,0,0,0,0,1.27c0,.21.33.42,0,.59.08,2.16.08,4.87.08,7.07a4,4,0,0,0,.09,1.48c0,.13-.13.13-.13.25-.08,1.91-.17,3.68-.34,5.54-.13.13-.08.26-.17.43s-.21,0-.38.08a14.43,14.43,0,0,0-1.86,0,20.12,20.12,0,0,1-2.33,0,17.84,17.84,0,0,1-1.69-1.35,1.31,1.31,0,0,1-.34-.13,6.74,6.74,0,0,1,0-2.24c0-.68-.08-1.31-.08-1.95C117.32,104.21,117.27,103.28,117.27,102.39Zm.17-17.85c0-1.61,0-2.92,0-4.57.13,0,.17,0,.13-.17a16.53,16.53,0,0,1,2.92-.09c.55,0,1.27.17,1.9.13v.25c.6.43.89,1.1,1.61,1.4,0,.8,0,1.65,0,2.5a3.4,3.4,0,0,0-.08.63c0,.51.17,1.14-.26,1.35a6.72,6.72,0,0,0-2.28,0c-.59,0-1.19-.17-1.69-.09,0-.08-.26,0-.34-.13s0-.08-.13-.12a12.06,12.06,0,0,1-1.56-.89c0-.09-.09-.09,0-.17S117.48,84.58,117.44,84.54Zm.3,16.45c0,1.4,0,2.71,0,4.11s0,2.41,0,3.85a21.9,21.9,0,0,0,4.36,0,36.38,36.38,0,0,0,0-4.32c0-.8,0-1.6,0-2.41,0-.55.09-1.06.09-1.65,0-1.1,0-1.86.08-2.75V96.13c0-.09,0-.17,0-.26s0-.38,0-.59a11.45,11.45,0,0,0,0-1.31c0-1.69-.17-3.85-.17-5.41a9.47,9.47,0,0,0-4,0C118,90,118,91.6,118,92.87c0,.59,0,1.23,0,1.9-.09,1.4-.17,2.8-.17,4.28Zm.13-16.88c1.35-.08,2.87.21,4.23.17a12.53,12.53,0,0,0,0-2.45s0,0,0,.08c-.09-.29,0-.89-.13-1.61a19,19,0,0,0-4.06-.08C117.91,81.62,117.87,82.8,117.87,84.11Zm2.75,1.57a11.21,11.21,0,0,1-1.1-1.06,3.33,3.33,0,0,0-1.44,0A5,5,0,0,0,120.62,85.68Zm-.17,24.88a6.25,6.25,0,0,1-1.06-1.06,8.33,8.33,0,0,0-1.1,0,13.68,13.68,0,0,0,1.48,1.18C119.94,110.51,120.32,110.6,120.45,110.56Zm1.14-1.15c-.17,0-.34,0-.51.09.13.13.3.25.42.38s.3.3.34.46-.12,0-.17,0a3.88,3.88,0,0,1-1-.88c-.3,0-.51,0-.77,0a1.37,1.37,0,0,0,.47.51c.13.17.38.5.55.55a5.72,5.72,0,0,0,.8,0h1.82c-.12-.21-.34-.33-.55-.55s-.34-.55-.59-.63S121.84,109.41,121.59,109.41Zm.68-24.66a2.69,2.69,0,0,0-1.06,0,3.25,3.25,0,0,1,.72.8.19.19,0,0,1-.09,0c-.51-.12-.72-.59-1.18-.84,0,0,0-.09,0-.13s-.47-.08-.64,0c.3.26.47.43.72.68s.34.38.68.38c.5,0,1.27-.13,1.9-.17A8.88,8.88,0,0,1,122.27,84.75Zm.16-.34c.26.42.77.63,1.15.93a1.11,1.11,0,0,0,0-.38,9.43,9.43,0,0,1-1.06-1.14A1.28,1.28,0,0,1,122.43,84.41Zm0-3.34a.25.25,0,0,0,.17,0,11,11,0,0,1,1.1,1.31,3.08,3.08,0,0,0,0-.72c-.5-.25-.76-.76-1.22-1.06A1.54,1.54,0,0,1,122.48,81.07Zm0,7.82a3,3,0,0,1,0,.85c.51.63.89,1.4,1.44,2-.09-.3,0-.64-.09-.89a2.25,2.25,0,0,0-.34-.47A14.14,14.14,0,0,0,122.48,88.89Zm0,13c.59.68,1.1,1.44,1.77,2.08a13,13,0,0,0,0-1.4,8.34,8.34,0,0,1-1.73-1.73C122.52,101.21,122.48,101.46,122.48,101.88Zm0,.51c0,.25,0,.76,0,1.14.59.64,1.1,1.31,1.65,2,0-.38.17-.76.08-1.06,0-.13-.29-.29-.42-.46C123.37,103.45,122.82,102.73,122.48,102.39Zm1.22-19.84s0,0-.08,0c-.38-.38-.72-.76-1.1-1.14a6.27,6.27,0,0,0,0,.84,14.62,14.62,0,0,0,1.14,1A2.16,2.16,0,0,0,123.7,82.55Zm.47,23.31c-.59-.59-1.06-1.27-1.65-1.82,0,.38,0,.85,0,1.31l.21.17a18.63,18.63,0,0,0,1.31,1.65C124.08,106.62,124.17,106.33,124.17,105.86Zm-.51-22.09a10.78,10.78,0,0,1-1.06-1,2,2,0,0,0,0,.51,9.34,9.34,0,0,0,1.06,1.18C123.58,84.32,123.7,84,123.66,83.77Zm.34,8.47c-.47-.64-1-1.27-1.44-1.95,0,.63,0,1.31.13,1.9,0-.17.08-.17.08-.25.43.55.81,1.14,1.27,1.65A7.83,7.83,0,0,0,124,92.24Zm.3,8.54c0-.08-.34-.25-.47-.38-.38-.46-.89-1.06-1.23-1.44,0,.64,0,.76,0,1.4a12.9,12.9,0,0,0,1.74,2c0-.3,0-.55,0-.89A4.05,4.05,0,0,0,124.3,100.78Zm-.26,6.77c-.51-.59-1-1.14-1.48-1.77,0,.46,0,.93,0,1.31,0-.09.09-.09.17-.09a11.05,11.05,0,0,0,1.23,1.57C124,108.1,124,108,124,107.55ZM124,109a20.29,20.29,0,0,1-1.4-1.73c0,.46,0,1.18,0,1.77a12.23,12.23,0,0,0,1.23,1.27C123.87,109.79,124,109.46,124,109Zm.25-11.63a22.09,22.09,0,0,1-1.56-1.82c-.05.42,0,1.1-.05,1.48.43.55,1,1.18,1.44,1.69.09,0,.13.17.21.13A9.45,9.45,0,0,1,124.21,97.36Zm.09,1.94a11.29,11.29,0,0,1-1.7-1.82,7.38,7.38,0,0,1,0,1.06.25.25,0,0,1,.17,0,4.93,4.93,0,0,0,.72.93,3.65,3.65,0,0,0,.81.81A6.92,6.92,0,0,1,124.3,99.3ZM124.08,94a10.52,10.52,0,0,1-1.39-1.69,11.61,11.61,0,0,0,0,1.18c.42.47.84,1.06,1.27,1.53,0,0,.08.17.17.12C124.08,94.73,124.13,94.35,124.08,94Zm.09,3c0-.55,0-1,0-1.44A16.61,16.61,0,0,1,122.69,94a10.08,10.08,0,0,0,0,1.1C123.2,95.71,123.66,96.38,124.17,97Z"/><path class="ed4d2c80-f1e9-4e0f-bd34-1e5a2bcf9dd5" d="M143.1,116.17c0,.55,0,1.1,0,1.65a3.47,3.47,0,0,0,0,.72,17.52,17.52,0,0,1-4.74,0c0-.17-.09-.17-.17-.21.13-3.22,0-6.35,0-9.9-.09-3-.13-5.42-.17-8.76V98.32c0-.47,0-.93,0-1.4,0-.72,0-1.44,0-2.16,0-.55,0-1.14,0-1.6a2,2,0,0,1,0-.51c0-.21-.08-.43-.08-.59a11,11,0,0,1,0-1.15c0-.59,0-1.18,0-1.82a1.22,1.22,0,0,0,.12-.42,11.42,11.42,0,0,1,3.6,0,6.52,6.52,0,0,1,.38,1.48,3.77,3.77,0,0,0,.51-.34c.08,0,.13-.17.21-.25s.38-.25.55-.34.21-.08.3-.13a4.77,4.77,0,0,1,1.56-.5c.55-.09,1.19,0,1.78-.09a4.15,4.15,0,0,1,1,.09,12.52,12.52,0,0,1,2.63.84c.38.59,1.06,1,1.48,1.61.84,1.27.93,2.92.93,5,0,1.7,0,3.69.08,5.59V103a11.29,11.29,0,0,1-.12,2.67,3,3,0,0,1-.6,1.27c0,.8-.63,1.06-.88,1.65a2,2,0,0,0-.72.59c-.21,0-.51.17-.55.34a3.78,3.78,0,0,0-.89.38,5.74,5.74,0,0,1-1.4.17,15.23,15.23,0,0,1-2.45-.09,1.07,1.07,0,0,1-.51-.12c-.08,0-.21,0-.3,0a4.87,4.87,0,0,1-1.6-.89C143.14,111.26,143.14,113.93,143.1,116.17Zm0-20.94c0,1.1-.09,2.16,0,3.3.17,2,0,4,.21,5.71.25.25.3.51.55.72a3.58,3.58,0,0,0,1.4.51,3.17,3.17,0,0,0,2.49-.85,7.05,7.05,0,0,0,.34-2.92c.09-.93,0-2.16,0-3.21a16.32,16.32,0,0,0-.17-3.18,2.3,2.3,0,0,0-1.39-2,.47.47,0,0,1-.38-.08A3.34,3.34,0,0,0,143.1,95C143.05,95.14,143.18,95.1,143.14,95.23Z"/><path class="ed4d2c80-f1e9-4e0f-bd34-1e5a2bcf9dd5" d="M171.36,102.13l0,0s0,0,0,0a2.68,2.68,0,0,0,0,.8,8.56,8.56,0,0,1-.13,2.08,8.83,8.83,0,0,1-.29,1.1,4.2,4.2,0,0,1-.89,1.22,7.78,7.78,0,0,1-1.31,1.27,5.69,5.69,0,0,1-1.1.64,5.36,5.36,0,0,1-.93.29,7.5,7.5,0,0,1-5,.09c-.12,0-.12,0-.25,0a9,9,0,0,1-2.71-1.27,5.26,5.26,0,0,1-.76-.55l-.34-.46a4,4,0,0,1-.85-1.48,11.8,11.8,0,0,1-.5-3.94c-.05-1.61.12-3.51-.05-5.16a7.07,7.07,0,0,1-.12-1.65l.21-1.14a6.08,6.08,0,0,1,.68-2c.17-.34.42-.64.55-1a9.21,9.21,0,0,1,1.9-1.73,5.78,5.78,0,0,1,2.67-.93,13.66,13.66,0,0,1,6,1.23c.17.08.3.21.55.16,0,0,.09.05.13.05l1,.93a14.77,14.77,0,0,1,1,1.73,11.49,11.49,0,0,1,.42,2.16,20.41,20.41,0,0,1,.17,2.92v2.83a9.73,9.73,0,0,0,0,1.53S171.32,102.13,171.36,102.13Zm-5-3.35c-.05-.8,0-1.61,0-2.28a1.56,1.56,0,0,1-.09-.47,1,1,0,0,0,0-.34,7.64,7.64,0,0,0-.12-.93,2.4,2.4,0,0,0-1.53-1.69c-.21,0-.29-.08-.46-.08-.43.08-.93,0-1.32.12a6.15,6.15,0,0,0-.71.47,2.87,2.87,0,0,0-.64.68,2.75,2.75,0,0,0-.25,1.14c-.09,1.06,0,2.41,0,3.51v3.26a1.26,1.26,0,0,0,0,.38,2.16,2.16,0,0,0,.12.76,3.2,3.2,0,0,0,.47.89,3,3,0,0,0,.63.76,2.9,2.9,0,0,0,1.7.42.61.61,0,0,0,.25-.08,9.09,9.09,0,0,0,.93-.38,5.62,5.62,0,0,1,.89-.81,5.26,5.26,0,0,0,.25-1.31A31.09,31.09,0,0,0,166.37,98.78Z"/><path class="ed4d2c80-f1e9-4e0f-bd34-1e5a2bcf9dd5" d="M195.35,88.38a9,9,0,0,1,1.52.59,4.47,4.47,0,0,1,.68.43c.17,0,.25.16.46.16a7.76,7.76,0,0,1,1.57,2l.13.3c.12.25.25.3.34.63a5.62,5.62,0,0,1,.12,1.15,30,30,0,0,1,.26,3c0,1.14-.09,2.29-.05,3.34.05,2-.21,4.53-.17,6.43l.09,2.88c0,.21.08.55-.17.76-.17,0-.17-.12-.3-.17-1.35,0-2.7.17-4.1.09a.73.73,0,0,0-.34-.17,1.47,1.47,0,0,1,0-.42c0-.85,0-1.82,0-2.75s.17-2.12.13-3.22c0-.51-.09-1-.09-1.52s.09-1,.09-1.44v-3a8.66,8.66,0,0,0-.09-1.86,2.9,2.9,0,0,0-.17-.55,1.64,1.64,0,0,0-.51-1,2,2,0,0,0-.88-.64,2.15,2.15,0,0,0-1.15-.17,2.28,2.28,0,0,0-1.27.43c-.33.21-.55.5-.84.67a1.31,1.31,0,0,1-.3.6,2.09,2.09,0,0,1-.13.76c.17,1.48.05,3.55.09,5,0,.89,0,2.12,0,3a7.61,7.61,0,0,1,0,1.35,21.57,21.57,0,0,0,.09,2.41c0,.85-.05,1.65-.09,2.5-1.44,0-3.13.09-4.69,0-.13-.08-.13-.21-.22-.25-.08-.89-.12-1.91-.12-2.92-.05-.55,0-1.15,0-1.74s-.13-1.18-.13-1.82.08-1.44.13-2.07.08-1.35.08-2a16.36,16.36,0,0,0,0-2,5.23,5.23,0,0,0-.09-.84,6.57,6.57,0,0,0-.12-.89,2.36,2.36,0,0,0-.17-.72s-.09-.13-.13-.21a.27.27,0,0,1,0-.17c0-.13-.17-.21-.21-.3l-.17-.29-.3-.17s-.08-.17-.17-.21-.17,0-.21,0a2.67,2.67,0,0,0-2.83.55,2.74,2.74,0,0,0-.55,1.48,2.54,2.54,0,0,0-.13.81.61.61,0,0,0,.08.25,8.82,8.82,0,0,1-.17,1.91,14.39,14.39,0,0,1,0,1.48c0,2.11-.12,4.31,0,6.51,0,.81.08,1.65,0,2.46,0,.46.17,1,0,1.35-1.44.13-3.34-.13-4.7,0-.08,0-.08-.17-.17-.21a13.84,13.84,0,0,1,0-2.33A11.09,11.09,0,0,0,175,106a30,30,0,0,1,0-4V99a4.5,4.5,0,0,1,0-1.1c0-.08-.17,0-.05-.08,0-.59,0-1.14,0-1.78a31.14,31.14,0,0,1-.25-3.38c0-.68.34-1.27,0-2,.21-.68-.08-1.44.21-2.16a14,14,0,0,1,4,.13c0,.21.12.63,0,.68.16.16.16.55.29.76a2.31,2.31,0,0,1,.68-.64,7,7,0,0,1,3-1,2.91,2.91,0,0,1,1.06,0,5.8,5.8,0,0,1,3.17.76.91.91,0,0,0,.34.17,4.44,4.44,0,0,0,1.1,1.06v0a6.31,6.31,0,0,1,4.91-2.29C194,88.25,194.71,88.34,195.35,88.38Zm-6.94,2.16a.14.14,0,0,1,0,.08S188.41,90.58,188.41,90.54Z"/><path class="ed4d2c80-f1e9-4e0f-bd34-1e5a2bcf9dd5" d="M218.53,110.07c-1,.12-2.49-.21-3.38-.17a7.86,7.86,0,0,1-.64-1.44,5.22,5.22,0,0,1-1,.89l-.42.17c-.13,0-.26.17-.38.21l-.34.08c-.3.13-.68.21-1.06.34a2.32,2.32,0,0,1-.8.13,10.64,10.64,0,0,1-2,0,9.25,9.25,0,0,1-2.07-.8,10.71,10.71,0,0,1-1.73-1.23,6.68,6.68,0,0,1-1.1-2.5v-.46l-.13-.3a6.6,6.6,0,0,1,0-.89,7.24,7.24,0,0,1,0-1A7.75,7.75,0,0,1,205,100c.34,0,.55-.3.8-.47a14.21,14.21,0,0,1,2.5-1.48c.89-.38,1.9-.63,2.87-1a20.05,20.05,0,0,1,2.29-.72c.21-1,.08-2.88-1-3.09a2.54,2.54,0,0,0-2.29-.51,1.89,1.89,0,0,0-.68.3,2.12,2.12,0,0,0-.8.8,2.59,2.59,0,0,0-.55,1.86c0,.17.17.26.13.47a4.24,4.24,0,0,1-1.91,0c-1-.09-1.73-.09-2.62-.13l-.3-.25c0-2.2.26-4,1.36-5.21.17-.17.55-.42.72-.59a2.21,2.21,0,0,1,.55-.55,3.37,3.37,0,0,1,.51-.38L207,89c.09-.08.17-.21.3-.25l.51-.17a8.68,8.68,0,0,1,2.58-.42c.17,0,0,0,.17,0a10.21,10.21,0,0,1,3.55.59,7.26,7.26,0,0,1,1.53.63c.42.38.88.68,1.31,1.06a4,4,0,0,1,.59.64c.13.21.17.55.38.76a17.43,17.43,0,0,1,.55,4.74c.08,1.6,0,3.21,0,4.82s0,3,0,4.48c0,.47.08.93.08,1.44s0,1,0,1.53v.38A1.63,1.63,0,0,1,218.53,110.07Zm-5.07-9.65h-.05c-1.52.51-3.21.85-4.4,1.82-.21.59-.63,1-.5,1.73a1.78,1.78,0,0,0,.67,1.1,3.25,3.25,0,0,0,4-.63C213.67,103.34,213.41,101.86,213.46,100.42Z"/><path class="ed4d2c80-f1e9-4e0f-bd34-1e5a2bcf9dd5" d="M225.3,99.78c1.4-2,2.63-4.1,4-6.09-2.24-.09-5-.17-7.44-.21-.05-.17,0-.34-.26-.39,0-1.35-.17-2.53,0-4l.25-.3c1.44-.13,3.09-.13,4.7-.17,0,0,0,0,.08,0,1.27,0,2.67.08,4,.13a10.11,10.11,0,0,0,1.65,0c1.06,0,2.16,0,3.39,0a23.77,23.77,0,0,1,.21,2.62,3,3,0,0,1,0,.85,6.48,6.48,0,0,1,0,.88c0,.6-.51,1-.68,1.53-.17,0-.08.21-.25.21a9.73,9.73,0,0,1-1.32,2.11c-.93,1.32-1.73,2.84-2.75,4.11l-.71,1a10.07,10.07,0,0,0-.72,1c-.17.25-.26.46-.43.67a15.56,15.56,0,0,0-1.27,2c2.33,0,4.07-.13,6.48,0a5,5,0,0,1,1.61.13,16.61,16.61,0,0,1-.09,4.35,5.71,5.71,0,0,1-1.52.13,5.65,5.65,0,0,1-1.15,0c-3.68,0-7.61.12-11.08.08a1,1,0,0,0-.34-.25,24.77,24.77,0,0,1,0-3.94c0-.12-.09-.12-.13-.21.59-1.06,1.31-2,2-3.09.29-.5.63-1,1-1.48ZM234,80a23.92,23.92,0,0,1-1.73,2.71c-.64,1-1.06,1.86-1.7,2.71-.67.12-1.77,0-2.75,0-.25,0-.93.29-1.06-.3a8.45,8.45,0,0,0-1.22-2.11A7.45,7.45,0,0,0,224,81.21c-.13-.39-.47-.55-.68-.89.13-.17,0-.26,0-.47,1.14,0,2.24-.08,3.3,0,.8.51,1.31,1.27,2.11,1.9.68-.46,1.06-1.27,1.69-1.77.13,0,.09,0,.22,0,.8-.13,1.9,0,2.7,0C233.64,79.89,233.85,79.81,234,80Z"/><path class="ed4d2c80-f1e9-4e0f-bd34-1e5a2bcf9dd5" d="M239.44,107.29c-1-1.94-.94-4.57-.94-7.11.05-2.24.13-4.48.09-6.55,0-1.44.13-3.18,0-4.57,1.14-.55,3.34-.43,4.7-.21a.85.85,0,0,0,.33.16,23.2,23.2,0,0,1,0,3,.54.54,0,0,1,.09.34c0,.89.08,1.82,0,2.79,0,.68,0,1.44,0,2.16s-.09,1.18-.13,1.77,0,1,.09,1.57a17.11,17.11,0,0,1,0,2.07,3.9,3.9,0,0,0,.34,2,2.27,2.27,0,0,0,2.28,1,4.16,4.16,0,0,0,1.31-.38,3.39,3.39,0,0,0,1.15-1.44,2.91,2.91,0,0,0,0-1.18c0-.64,0-1.31,0-1.91a7.77,7.77,0,0,1-.09-1c0-1.73-.08-3.59,0-5.5a37,37,0,0,0,0-5.25,4.78,4.78,0,0,1,1.52-.21,20.56,20.56,0,0,1,2.33,0,2.33,2.33,0,0,1,.76.12.6.6,0,0,1,.38,0,20,20,0,0,1,0,2.2c.09,3.09.13,6.6,0,10.11,0,.64,0,1.32,0,2,0,.85-.08,1.61-.08,2.41a10.29,10.29,0,0,1,.08,1.23,23.05,23.05,0,0,0,0,2.88c-.12.17-.17.17-.12.38-.13,0-.22,0-.26.12a15.29,15.29,0,0,1-3.38-.08c-.13-.55-.38-1-.47-1.61a6.44,6.44,0,0,1-4.19,1.74,6.8,6.8,0,0,0-1,0,8.39,8.39,0,0,1-2.16-.47,3.34,3.34,0,0,1-1-.46,6.34,6.34,0,0,1-1.18-1.19A4.46,4.46,0,0,1,239.44,107.29Z"/><path class="bef06467-c028-46d5-9627-bfd5901e0e38" d="M154.69,96.41a44.11,44.11,0,0,1,.3,6.86c-.05.46-.09.93-.13,1.35a4.06,4.06,0,0,0-.17,1.57c-.09.29-.34.55-.25.84-.05.09-.17.09-.26.13-.25.42-.51.85-.76,1.23s-.64.67-.89,1c-.25,0-.42.3-.59.43a6.68,6.68,0,0,1-1.44.72,4.36,4.36,0,0,1-.72.34,7,7,0,0,1-2.5.25,13.37,13.37,0,0,1-2.36-.13c.12,2.29.08,4.53.16,7.15v1a5.47,5.47,0,0,1-.08,1.14c-.17.08-.21,0-.38,0s-.17.13-.25.17a9.85,9.85,0,0,0-2.54.17c-.3,0-.6,0-.93,0-.09,0,0-.21-.09-.25a15.19,15.19,0,0,1-2.62-2.07c.13-4.11,0-7.49-.09-11.21,0-2.33-.08-5.21-.08-7.2,0-.89,0-1.9,0-3,0-1.44,0-2.75,0-4.31,0-.94,0-1.78,0-2.67a1.37,1.37,0,0,0,0-.85.59.59,0,0,0,.13-.42,11.69,11.69,0,0,1,3.64,0,7.37,7.37,0,0,1,.38,1.57,5.75,5.75,0,0,1,.51-.43,2,2,0,0,1,.29-.29A4.36,4.36,0,0,1,144,89a6.06,6.06,0,0,1,2.67-.43,6.44,6.44,0,0,1,3.34.68c.21.13.47.17.59.25s.26.38.43.47.21,0,.29.08c.3.13.6.39.89.55a4.83,4.83,0,0,1,1.78,1.7,5,5,0,0,1,.59,1.9A18.22,18.22,0,0,1,154.69,96.41Zm-16.08,21.71a25.51,25.51,0,0,0,4,.08c0-1,.09-2.11.09-3.09,0-.21-.09-.46-.09-.67,0-1.1.13-2.12.13-3a17.68,17.68,0,0,1,0-3c0-.09.21,0,.29,0s0,.17.13.21a4,4,0,0,0,2.45,1c.22,0,.43,0,.64.09,1.4,0,3,0,3.89-.68.09-.13.09-.25.21-.3.26.21.38-.12.55-.25-.12,0-.17-.09-.12-.21l.12-.13c.13,0,.17.13.34.13.3-.47.81-.81.85-1.44a5.82,5.82,0,0,0,.55-1.74,22.49,22.49,0,0,0,0-3c0-1.69,0-3.55,0-5.37A22.12,22.12,0,0,0,152.4,93a4.26,4.26,0,0,0-1.22-2.29,10.85,10.85,0,0,0-.93-.89c-.05,0-.13,0-.17,0s0-.08-.09-.08-.29-.13-.42-.22a12.57,12.57,0,0,1-1.27-.42,18.61,18.61,0,0,0-2.58,0,1.23,1.23,0,0,1-.38,0,14.65,14.65,0,0,0-1.57.42,5.21,5.21,0,0,1-.72.47c-.21.17-.33.47-.63.51-.17.21-.21.42-.34.55-.17,0-.17-.3-.34-.38A10,10,0,0,0,141.4,89a13.93,13.93,0,0,0-3,0c0,1.57,0,2.71,0,3.77.08,1.77,0,3.47,0,5.37,0,.93,0,1.48,0,2.24,0,2.41,0,4.83.09,7.41,0,1,0,2,0,3,.13,2.5.08,5,0,7.24C138.61,118.08,138.57,118.12,138.61,118.12Zm3,2.11a10.5,10.5,0,0,0-1.65-1.6,8.78,8.78,0,0,1-1-.09,14.13,14.13,0,0,0,2,1.52c.09,0,.13.17.21.17S141.57,120.23,141.66,120.23Zm1.39-.08a12.87,12.87,0,0,1-1.56-1.48c-.17.08-.64,0-.81,0a6.1,6.1,0,0,0,.72.76c.17.17.55.72.77.76S142.8,120.15,143.05,120.15Zm1.19-.09c-.17-.29-.47-.42-.76-.71s-.55-.68-.81-.72-.42.08-.67,0c.33.51,1,1,1.39,1.48A3.46,3.46,0,0,1,144.24,120.06Zm-1.48-20.64c0-.76-.09-1.53-.09-2.25.05-.55.09-1.1.09-1.69a1.15,1.15,0,0,1,0-.55c.08-.42.42-.67.55-1,.88-.6,1.9-1.48,3.46-1l.43.21c1.18.72,1.27,2.41,1.35,4.06a15.77,15.77,0,0,1,0,2.08c0,.63,0,1.27,0,1.82s0,1,0,1.44a7.93,7.93,0,0,1-.08,1.35,7.8,7.8,0,0,1-.38,1.18c-.38.09-.59.51-1,.64s-.76.13-1.18.25a7.35,7.35,0,0,0-1-.12c-.39-.09-.68-.34-1-.38s-.34-.3-.51-.47a7.58,7.58,0,0,0-.55-1.06C142.88,102.38,142.8,100.9,142.76,99.42ZM144.7,119c-.08,0,0,.09-.08.05-.51-.43-1-1.06-1.52-1.53.08.38-.13.68,0,1,0,.08.29.21.38.34.42.38.84.76,1.22,1.06C144.66,119.6,144.75,119.26,144.7,119Zm-1.6-5.24c0,.12.25.25.38.42a6.62,6.62,0,0,0,1.18,1.23,7.72,7.72,0,0,1,0-1.36c-.55-.21-1-.93-1.56-1.35C143.18,113,143,113.38,143.1,113.72Zm0,1.65a7.42,7.42,0,0,0,1.35,1.48c.08.08.17.25.25.21,0-.3,0-.8,0-1.31a7.51,7.51,0,0,1-1.56-1.52A8.67,8.67,0,0,0,143.1,115.37Zm1.6,2a.17.17,0,0,0-.21,0c-.46-.47-1-.89-1.39-1.4a6.94,6.94,0,0,0,0,1c.5.59,1.1,1.14,1.6,1.73A6.36,6.36,0,0,0,144.7,117.4ZM143.1,95c.46.51,1,.94,1.43,1.4.05-.38.22-.63.26-1a14.5,14.5,0,0,0-1.23-1.06A2.33,2.33,0,0,0,143.1,95Zm0,1.61a11.26,11.26,0,0,0,1.05,1c0,.08.26.29.3.21,0-.34,0-.8,0-1.19,0,0,0,.09-.12,0-.39-.38-.81-.72-1.19-1.15C143.14,95.82,143.14,96.24,143.1,96.58Zm0,1.53c.46.42.84,1,1.35,1.39a11.57,11.57,0,0,1,0-1.18c-.42-.38-.85-.85-1.35-1.23Zm.08,1.81a10.67,10.67,0,0,0,1.48,1.53c-.21-.47,0-1-.21-1.44a1.64,1.64,0,0,0-.3-.34c-.33-.3-.8-.8-1.05-1C143.14,99,143.14,99.46,143.18,99.92Zm.93,10.62c-.38-.33-.63-.8-1-1.14a6.19,6.19,0,0,0,0,.93c.46.51.93,1,1.44,1.53a6.94,6.94,0,0,1-.05-.85,3.11,3.11,0,0,0-.42-.25A.22.22,0,0,1,144.11,110.54Zm.55,3.22c0-.59,0-1.1-.08-1.69-.09,0-.13,0-.21,0-.43-.39-.85-.77-1.23-1.19,0,.47,0,.85,0,1.31C143.6,112.66,144.2,113.25,144.66,113.76Zm-1.48-13.33c0,.38,0,.64,0,1a7.16,7.16,0,0,0,1.48,1.44s0,.08.05.08a8.73,8.73,0,0,0-.09-1.06A15.9,15.9,0,0,1,143.18,100.43Zm.13,2.92a13.91,13.91,0,0,0,1.52,1.31,6.72,6.72,0,0,1,0-1.27c-.51-.46-1.06-.84-1.57-1.35C143.27,102.55,143.22,102.84,143.31,103.35Zm1.56,1.57h-.17c-.42-.34-.93-.72-1.39-1.1a.67.67,0,0,0,.25.63,1.43,1.43,0,0,0,1.36.89C145,105.26,144.83,105.09,144.87,104.92Zm.3,5.79a8.32,8.32,0,0,1-.68-.93c-.34-.08-.63-.34-.89-.38a7.1,7.1,0,0,0,1.06,1.19C144.83,110.54,145,110.76,145.17,110.71Zm-1.35-16.58c.38.29.71.59,1.05.89,0-1,.72-1.36,1.4-1.78a2.36,2.36,0,0,0-1.31.21c.12.13.46.38.21.55-.25-.08-.3-.34-.51-.38S144.07,94,143.82,94.13Zm2.79-.72c-.38.21-.93.38-1.14.85a6.19,6.19,0,0,0-.39,1.43,13.12,13.12,0,0,0-.21,4.66,26,26,0,0,1,.3,3,7.24,7.24,0,0,0,.17,2s-.09.09-.13.13a3.52,3.52,0,0,0,2.58-.81,3.23,3.23,0,0,1,.21-.72c.26-2,.05-3.93.17-5.67-.17-1.39,0-3.51-.89-4.52C147,93.62,146.86,93.28,146.61,93.41Zm1.52,17.39a3.83,3.83,0,0,1-.8-.68,1.62,1.62,0,0,0-.76,0c0,.17.33.26.38.55-.55,0-.68-.51-1.1-.63a2.91,2.91,0,0,1-.85-.17c.08.34.51.55.68.89C146.48,110.8,147.2,110.8,148.13,110.8Zm1.4-.21c-.26-.17-.47-.38-.72-.55a9,9,0,0,1-1,0,10.36,10.36,0,0,1,.85.72C149,110.71,149.27,110.67,149.53,110.59Zm1-.38a3.74,3.74,0,0,0-.72-.51c-.13.13-.38.13-.51.25a6.38,6.38,0,0,0,.6.51Zm.8-.47a5.6,5.6,0,0,1-.76-.51c-.08.13-.29.13-.34.3a7.14,7.14,0,0,0,.64.51C151,109.91,151.22,109.91,151.3,109.74Zm.81-.55c-.3-.13-.51-.34-.81-.46-.12.12-.29.16-.38.38a2.7,2.7,0,0,1,.68.55A5.91,5.91,0,0,1,152.11,109.19Zm1-1a7.8,7.8,0,0,0-.84-.68c-.13.38-.47.59-.64.93a4.41,4.41,0,0,1,.72.55A2.63,2.63,0,0,0,153.08,108.22ZM151.9,90.83c.08.13.17.21.25.34,0-.13.09-.09,0-.17A.61.61,0,0,0,151.9,90.83Zm.34.46a4.66,4.66,0,0,1,.54,1.36A2.06,2.06,0,0,1,154,93.79s-.08.13-.17.13c-.34-.26-.55-.64-.93-.85,0,.42.13.93.17,1.48,0-.13.08,0,.13-.08.29.46.8.72,1.14,1.1a5.86,5.86,0,0,0-1.06-3.64C152.83,92,152.7,91.29,152.24,91.29Zm1.69,15.62c-.38-.22-.72-.6-1.1-.77-.13.3-.13.68-.43.81a.62.62,0,0,1,0,.29c.34.17.59.51.93.72A8.39,8.39,0,0,1,153.93,106.91Zm-.85-9.06c0,.09,0,0,.13,0a7.78,7.78,0,0,0,1.35,1.27c-.08-1-.25-2.11-.25-3.3-.55-.08-.85-.63-1.31-.93,0,.38,0,.63,0,1.06a3.91,3.91,0,0,1,1,.93c0,.13.26.17.13.38-.47-.09-.72-.68-1.14-.89C153.08,96.84,153,97.3,153.08,97.85Zm1.23,7.58c-.38-.34-.76-.68-1.19-1a6.57,6.57,0,0,1-.12,1.31,7,7,0,0,0,1.1.89,1.47,1.47,0,0,0,.12-.25C154.1,106.06,154.35,105.81,154.31,105.43Zm.25-6.06h-.21c-.42-.38-.89-.71-1.27-1.1,0,.55,0,1.06,0,1.53.42.55,1.06.89,1.4,1.48-.26.29-.59-.26-.81-.47a2.36,2.36,0,0,1-.33-.25c-.09-.13-.17-.25-.26-.25v1.52a6.43,6.43,0,0,0,1.19,1c-.05.17.25.17.21.39,0,0,0,0,0,.08-.6-.21-.85-.68-1.36-1,0,.64.09,1.19,0,1.74.09,0,.09,0,.22,0a5.24,5.24,0,0,0,1,1.1A23.13,23.13,0,0,0,154.56,99.37Z"/><path class="bef06467-c028-46d5-9627-bfd5901e0e38" d="M173.38,102c0,.25,0,.5,0,.76a8.59,8.59,0,0,1-.12,1.48,6.67,6.67,0,0,1-.09.93,7.77,7.77,0,0,1-.29.85,10,10,0,0,1-7.15,5.83c-.13,0-.09.13-.17.13s-.13-.13-.26-.13a9.85,9.85,0,0,1-4.91-1.14,7.94,7.94,0,0,1-2.49-2.24,1.77,1.77,0,0,1-.34-.47c-.13-.25-.38-.55-.21-.72a7,7,0,0,1-1-2.62,12.79,12.79,0,0,1-.13-2.92,13,13,0,0,1,0-2.58c-.17-.72,0-1.61-.13-2.37a8.14,8.14,0,0,1-.08-1.52c0-.38.13-.85.21-1.23a7.26,7.26,0,0,1,.3-1.1,15.71,15.71,0,0,1,.93-1.73,8.11,8.11,0,0,1,2.79-2.25,5.26,5.26,0,0,1,1.78-.46,13.48,13.48,0,0,1,6.34,1.44c.38-.09.64.25.85.21a8.69,8.69,0,0,1,2.28,2,7.14,7.14,0,0,1,.89,2.28c.17.81.21,1.74.34,2.67s.38,1.78.47,2.67S173.34,101.24,173.38,102Zm-15.7,5c.09.08.22.21.34.34s.21.29.3.38a10.27,10.27,0,0,0,1,.72c.13,0,.22.21.3.25a2.38,2.38,0,0,1,.38.09,3.89,3.89,0,0,0,1.1.5,1.52,1.52,0,0,1,.89.21,7.79,7.79,0,0,0,2.83.26c.22,0,.43-.13.64-.17s.13,0,.21,0a4.82,4.82,0,0,0,.89-.29,7.91,7.91,0,0,0,.93-.3c.09,0,.13-.09.21-.13a6.56,6.56,0,0,0,.89-.51,8.2,8.2,0,0,0,.59-.59c.43-.38.72-.8,1.1-1.18,0-.09-.08-.3,0-.38s.17,0,.26,0a2.22,2.22,0,0,0,.21-1,7.29,7.29,0,0,0,.17-2.16c0-1.27,0-2.37,0-3.51,0-1-.09-2.08,0-3a18.27,18.27,0,0,0-.47-3.34,11.44,11.44,0,0,0-1-1.91,3.33,3.33,0,0,1-.68-.67,4.12,4.12,0,0,0-.64-.3,4.46,4.46,0,0,0-.59-.34,5.48,5.48,0,0,0-.89-.25c-.25,0-.5-.21-.76-.25s-.29,0-.42-.09-.47-.17-.76-.21a14,14,0,0,0-2.71-.13c-.13,0-.34,0-.51,0-.38.17-.89.3-1.31.47a5,5,0,0,1-1,.63,1.73,1.73,0,0,1-.51.47.74.74,0,0,1-.17.25c0,.05-.13.05-.21.13a7.18,7.18,0,0,0-1.1,1.74,10.22,10.22,0,0,0-.76,3.8c0,.09.12.09.12.21s0,.34.09.51c-.09.59.08,1.44,0,2.08s0,1.6,0,2.41a23.43,23.43,0,0,0,0,2.37,6.51,6.51,0,0,0,.51,2A8.75,8.75,0,0,0,157.68,107Zm3.9,3.59c-.47-.29-.68-.8-1.15-1.1-.25-.16-.63-.29-.93-.46a7.89,7.89,0,0,1-1.65-1.19c0-.08-.12-.25-.17-.21a8.18,8.18,0,0,0,4.11,3.3C161.87,110.8,161.58,110.67,161.58,110.54Zm-.93-14.34a.18.18,0,0,1,.12-.17,7.23,7.23,0,0,1,.21-1.69c.09-.25.3-.42.39-.68.29-.08.38-.38.67-.46a.35.35,0,0,1,.09-.47c.17,0,.12.17.17.21a4.56,4.56,0,0,1,2.79-.08c.38.3.93.51,1.18.93a6.1,6.1,0,0,1,.43,1.65,31.44,31.44,0,0,1,.12,3.34c0,1.19.22,2.29.13,3.47a4.9,4.9,0,0,1-.47,2.29c-.16,0-.21.17-.21.25a1.62,1.62,0,0,1-1.35.76c-.21,0-.38.17-.59.21a2.91,2.91,0,0,1-3.47-2.66,31.52,31.52,0,0,1-.09-4.49A22.06,22.06,0,0,0,160.65,96.2Zm2.62,15.11c-.3-.34-.72-.72-1.06-1.1-.17-.26-.29-.47-.55-.47s-.34,0-.55-.08c.42.5.93,1,1.4,1.48A3.52,3.52,0,0,1,163.27,111.31ZM161.15,98a1.61,1.61,0,0,0,.34.42,7.4,7.4,0,0,0,.89,1s.13.13.21.08a8.79,8.79,0,0,0,0-1.05A13.37,13.37,0,0,1,161.15,97C161.24,97.34,161.07,97.68,161.15,98Zm0-1.56c.47.59,1,1.14,1.48,1.69,0-.38.05-.72.05-1.1-.68-.34-1-1.23-1.44-1.69A9.52,9.52,0,0,1,161.15,96.46Zm0,3.13c0,.08.13.08.17.17.34.42.76.84,1.1,1.26.05,0,.13.26.17.13,0-.51,0-.84,0-1.27-.63-.25-1-.84-1.44-1.31A6.88,6.88,0,0,1,161.15,99.59Zm0,1.6c.38.34.77.77,1.15,1.1.12.13.25.34.33.3,0-.34,0-.63,0-1.06a15.05,15.05,0,0,1-1.44-1.44A8,8,0,0,1,161.15,101.19Zm.09,1.48a10.59,10.59,0,0,0,1.23,1.27c.12.13.25.39.38.39a8.93,8.93,0,0,1-.13-1.23c-.55-.47-1.06-1-1.57-1.48C161.2,102,161.2,102.25,161.24,102.67Zm.08-7.78c.38.47.72,1.1,1.06,1.57.13.12.21.33.34.33a6.33,6.33,0,0,1,.13-1c-.47-.47-.89-1.06-1.36-1.52A1.42,1.42,0,0,0,161.32,94.89Zm1.86,10.41a6.53,6.53,0,0,1-.29-.76c-.13-.05-.09,0-.17,0a12.34,12.34,0,0,1-1.35-1.23A2.71,2.71,0,0,0,163.18,105.3ZM161.75,94c.38.47.72.93,1.1,1.36l.25-.94c-.38-.21-.55-.63-.85-.93A4.76,4.76,0,0,0,161.75,94ZM165,111.48c-.38-.43-.93-.94-1.35-1.36a6.86,6.86,0,0,1-1.27-.21,5.17,5.17,0,0,0,.68.76,4,4,0,0,0,.76.72C164.16,111.52,164.67,111.39,165,111.48Zm-2.45-18.16c.21.3.42.64.63.89A2.08,2.08,0,0,1,164,93C163.48,93.11,162.8,93,162.55,93.32Zm1.65,0c-.21,0-.42.38-.55.59-.59,1.23-.59,3.22-.68,5.21,0,.93,0,1.86,0,2.75a14,14,0,0,0,.3,2.71,1.76,1.76,0,0,0,.46.89,1.73,1.73,0,0,0,.68-.09c.09,0,.17,0,.26,0a5.44,5.44,0,0,0,.8-.51c.21-.21.68-.46.8-.68a3.11,3.11,0,0,0,.21-1.31,46.26,46.26,0,0,0-.12-4.78c0-.51,0-1.06,0-1.48,0-.59-.17-1.31-.17-1.73a2.3,2.3,0,0,0-1.44-1.61C164.62,93.28,164.41,93.2,164.2,93.28Zm2,18c-.38-.29-.76-.84-1.14-1.18-.09-.09-.3,0-.42,0s-.39,0-.55,0c.42.43.84.85,1.27,1.27A1.37,1.37,0,0,0,166.23,111.26Zm1.14-.33a8.74,8.74,0,0,1-1-1.15c-.3.09-.59.13-.93.21a14.82,14.82,0,0,0,1.14,1.23A2.63,2.63,0,0,0,167.37,110.93Zm1.7-.94a10.55,10.55,0,0,0-.89-.88,2.15,2.15,0,0,0-.47.25c.21.34.51.59.72.93a.39.39,0,0,1-.21,0,4.23,4.23,0,0,1-.85-.89,4.19,4.19,0,0,0-.72.3c.34.3.6.76,1,1.06,0,0,0,0,0,0A8.26,8.26,0,0,0,169.07,110Zm1-.76c-.55,0-.72-.5-1.06-.72-.12.17-.38.26-.5.43l.76.89A6,6,0,0,0,170.08,109.23Zm.72-.8a.29.29,0,0,1-.17-.09c-.13-.08-.59-.8-.68-.76s-.16.17-.21.21c-.17.22-.34.3-.46.51.25.3.59.55.84.89h0A4.92,4.92,0,0,0,170.8,108.43Zm-1-17.43h0a7.48,7.48,0,0,1,1,2c.55.38.81,1,1.27,1.48A4.72,4.72,0,0,0,170,91.12C170,91.08,169.83,90.87,169.83,91Zm1.73,16.58a2.18,2.18,0,0,1-.89-.84c-.17.21-.5.38-.46.59s.25.38.34.51a2.45,2.45,0,0,0,.46.46C171.18,108.05,171.44,107.88,171.56,107.58Zm.68-1.1c-.51-.08-.8-.59-1.19-.89a2.58,2.58,0,0,1-.25.89,10.35,10.35,0,0,0,.89,1A4.73,4.73,0,0,0,172.24,106.48Zm0-11.42c-.13-.09-.21-.21-.34-.3-.21-.25-.46-.63-.68-.89,0-.08-.17-.21-.21-.21.09.51.13.89.21,1.44a5.22,5.22,0,0,0,1.15,1.19A10.26,10.26,0,0,1,172.24,95.06Zm.72,8.42c-.26.08-.38-.09-.59-.25-.34-.34-.81-.89-1.06-1.19a12.86,12.86,0,0,0,0,1.44,3.12,3.12,0,0,0,.59.72,5.82,5.82,0,0,0,.64.72s.21.08.21.21c-.42.17-.68-.25-.89-.51a2.35,2.35,0,0,0-.55-.55,4.28,4.28,0,0,1-.21,1.14,5.18,5.18,0,0,0,1.23,1.15,15.14,15.14,0,0,0,.55-1.61C172.7,104.45,173.09,103.94,173,103.48Zm-.51-6.64c-.13-.22-.42-.38-.59-.55l-.59-.6a1.66,1.66,0,0,1,0,.89,7.11,7.11,0,0,0,.67.93,7.06,7.06,0,0,1,.64.93c-.64-.08-.85-.84-1.27-1.18v.93a9.58,9.58,0,0,0,1.61,1.9c-.09-1-.34-2-.43-2.79C172.45,97.13,172.49,97,172.45,96.84Zm-1.14,3.25c.55.6,1.1,1.15,1.69,1.7,0-.38,0-.93-.08-1.53-.09,0-.13,0-.22,0a9.14,9.14,0,0,1-1.35-1.48C171.31,99.33,171.35,99.67,171.31,100.09Zm1.69,2c-.63-.46-1.1-1.06-1.69-1.52v1a12.05,12.05,0,0,0,1.69,1.91A7.68,7.68,0,0,0,173,102.08Z"/><path class="bef06467-c028-46d5-9627-bfd5901e0e38" d="M202.21,107c-.05.64,0,1.31,0,2a18.21,18.21,0,0,0-.05,2.67c0,.08-.16.12-.21,0,.05.34-.25.25-.55.25-.67,0-1.39-.12-2.28-.17l-1.86-.08c-.13-.13,0-.21,0-.3-.64-.34-1.1-.89-1.74-1.31a.24.24,0,0,1,.09-.21c0-.08-.26,0-.26-.13,0-1.22-.08-2.58,0-3.89.09-1.56.05-3.17.09-4.74,0-.51,0-1,0-1.48,0-1.73.29-3.64-.34-5.33a4,4,0,0,0-1.14-.89,3.88,3.88,0,0,0-.89.34c-.21.17-.47.42-.34.68a1.25,1.25,0,0,0-.3.8,13.31,13.31,0,0,0-.21,2.84c0,1,0,2.11-.08,3.17s.08,2.33.08,3.51-.08,2.29,0,3.43a7.28,7.28,0,0,1,0,1.31,12.31,12.31,0,0,1-.25,1.69.29.29,0,0,1-.26,0,.28.28,0,0,1-.12.26,3.07,3.07,0,0,0-.93.16,9.72,9.72,0,0,1-1.19,0H187.4c-.09,0,0-.17,0-.21a8.7,8.7,0,0,1-.85-.68,8.11,8.11,0,0,1-1-.88,1.23,1.23,0,0,1-.17-.85,29.18,29.18,0,0,1-.13-2.92,7.21,7.21,0,0,0,0-.93c0-.64-.13-1.31-.13-2a13.25,13.25,0,0,0,.13-1.4l.13-2.32a12.79,12.79,0,0,0-.13-2.58s0-.17,0-.13a1.69,1.69,0,0,1-.12-.68,4.63,4.63,0,0,0-.22-1.22c-.08-.17-.21-.26-.21-.47a1.26,1.26,0,0,1-.29-.47c-.09-.12-.26-.16-.38-.29a1.88,1.88,0,0,0-2,1.94c-.09,1.1,0,2.25,0,3.43,0,1-.17,2-.22,3-.12,1.56-.21,3-.21,4.65s0,3.13,0,4.66c-.13,0-.21.17-.29.29a1.36,1.36,0,0,0-.47.13c-.89,0-1.82,0-2.92-.09a7.26,7.26,0,0,1-1-.08c-.13,0-.3-.25-.47-.38-.47-.38-.89-.8-1.31-1.19,0-1.14,0-2.28,0-3.25l-.09-1c0-.34-.08-.68-.08-1,0-1.23.12-2.41.12-3.6,0-.38,0-.76,0-1.14a5.77,5.77,0,0,0-.08-1.23c.12-.67,0-1.61,0-2.45,0-.09,0,0,.08,0s0-.05-.08-.13c0-.76-.17-1.57-.26-2.41a5.43,5.43,0,0,1,0-1.14c0-.13.09-.17.13-.3a7,7,0,0,0,0-.89c0-.25-.12-.46-.12-.72s.08-.17.08-.25c0-.34-.08-.68,0-1,0,0-.12-.21,0-.12-.12-.17,0-.51,0-.76a1,1,0,0,0,.47-.22c.72.17,1.61,0,2.41.13l1.14.25a6.34,6.34,0,0,0,.26,1.4c1-1.56,3.85-1.9,6.18-1.52a3.29,3.29,0,0,1,.67.17,7,7,0,0,1,.72.34s.13,0,.13.08,0,.13.08.13.09,0,.13,0a17.93,17.93,0,0,1,1.44,1.14c.13-.21.38-.25.55-.42l.21-.3a3.3,3.3,0,0,1,.63-.38l.26-.25a4.8,4.8,0,0,1,2.33-.85,8,8,0,0,1,2.83.13,3.38,3.38,0,0,1,.68.21,4.15,4.15,0,0,1,.72.21,14.36,14.36,0,0,1,1.52.76,1.84,1.84,0,0,1,.55.34,3.3,3.3,0,0,1,.76.81,6.85,6.85,0,0,1,1.36,1.73A9.71,9.71,0,0,1,202.12,96c.13.93.09,1.86.17,3C202.46,101.62,202.29,104.24,202.21,107Zm-6.43,2.54a9.74,9.74,0,0,0,2.53,0,10.82,10.82,0,0,0,1.61,0c-.08-.76,0-1.61,0-2.45,0-.51-.12-1.06-.12-1.61,0-1.27.12-2.54.21-3.73a22.49,22.49,0,0,1,0-3c0-1,.08-2.07,0-3.09,0-.8-.13-1.6-.21-2.32a6,6,0,0,0-.89-2.12c-.09-.08.17,0,0-.13a5.14,5.14,0,0,0-1.31-1.39,13,13,0,0,0-3-1c-2.12-.12-2.8-.21-4.49.85a1.45,1.45,0,0,0-.85.72c-.25,0-.42.25-.67.38,0,.17,0,.34-.21.38a9,9,0,0,0-1.15-1,4,4,0,0,0-.93-.68s-.17,0-.21-.08l-.25-.13a7.75,7.75,0,0,0-1.78-.21A3.7,3.7,0,0,0,183,89c-1.36.17-3,.25-3.64,1.86a1.85,1.85,0,0,0-.47,0c-.13-.68-.29-1.14-.42-1.74a20,20,0,0,0-3.22-.12c.09,2.62-.21,5,.13,7.4-.13.38,0,.8,0,1.23a9.62,9.62,0,0,1,.08,2.2v3.72c0,.64,0,1.23,0,1.82a7.63,7.63,0,0,1,0,.93,4.34,4.34,0,0,0,.13.72c.09.8-.08,1.86,0,2.75,1.48,0,2.67.13,4.15,0-.09-1.06,0-2.07,0-3.13a38.49,38.49,0,0,1,0-4c0-.68.08-1.31,0-1.86,0-.76,0-1.52,0-2.07l.13-1a12.42,12.42,0,0,0,0-1.73,6.27,6.27,0,0,1,.38-1.82A3.22,3.22,0,0,1,181.43,93a2.59,2.59,0,0,1,1.57-.21c.17,0,.12-.13.25-.09s.51.13.76.26.34.29.51.38A4.54,4.54,0,0,1,185.58,96l.13,1.06a36.56,36.56,0,0,1-.13,5.2c0,1,0,1.78,0,2.63.08,1.52,0,3.34.17,4.65,1.48,0,2.71,0,4.19,0,0-1.44-.05-3.09,0-4.61s-.09-3.09-.09-4.61V96.92c0-.42,0-.85,0-1.27s.13-.68.13-1c.21-.09.17-.34.29-.55a4.92,4.92,0,0,1,.85-.72,4,4,0,0,1,1-.55c.17,0,.39,0,.55,0a3.12,3.12,0,0,1,2.29.72,1.16,1.16,0,0,0,.21.25l.3.34a5.74,5.74,0,0,1,.42,1.78c0,1.65.09,3.59,0,5.5-.08,1.52,0,2.87,0,4.31S195.78,108.39,195.78,109.57Zm-18,1.69c-.25-.42-.63-.67-.89-1.1a9.19,9.19,0,0,0-1.05,0C176.4,110.59,176.82,111.35,177.75,111.26Zm1.1.09a8.86,8.86,0,0,1-.93-1.14,6.15,6.15,0,0,1-.85,0C177.62,110.63,177.79,111.43,178.85,111.35Zm.76,0c-.29-.3-.67-.76-1-1.14h-.47c.26.46.72.72,1,1.14A1.44,1.44,0,0,0,179.61,111.35Zm1.36-.09c-.43-.33-.76-.76-1.15-1.1a4.36,4.36,0,0,1-.8.09,12.28,12.28,0,0,0,.93,1.1C180.38,111.31,180.71,111.43,181,111.26Zm.25-6.22c-.42-.46-.8-.93-1.18-1.39,0,.25,0,.68,0,1.1.39.42.81.89,1.23,1.27Zm.09-1.31a12.59,12.59,0,0,1-1.27-1.48v.85a10.33,10.33,0,0,0,1.22,1.48A4.42,4.42,0,0,1,181.31,103.73Zm-.05,2.67c-.46-.34-.8-.81-1.22-1.19,0,.64,0,.93,0,1.57.25.38.63.72.89,1.06,0,.08.17.21.08.34s-.34-.26-.46-.43l-.47-.51c0,.34,0,.64,0,.94a5.49,5.49,0,0,0,1.14,1.26C181.31,108.47,181.22,107.5,181.26,106.4Zm0,3.51c-.08-.21-.38-.42-.59-.59l-.55-.68a5.93,5.93,0,0,0,0,1.27c.3.25.59.59.85.8.08.09.12.26.25.22A4.13,4.13,0,0,0,181.26,109.91Zm.21-8a14.33,14.33,0,0,1-1.35-1.35c0,.42,0,.84,0,1.31.46.46.76,1.06,1.23,1.48C181.35,102.84,181.39,102.38,181.47,101.87Zm.05-1.31c-.51-.47-.89-1.1-1.4-1.61a10.08,10.08,0,0,0,0,1.1,11.17,11.17,0,0,0,1.35,1.4A5.56,5.56,0,0,0,181.52,100.56Zm.12-1.57a7,7,0,0,1-1.39-1.56l-.13,1.1c.55.51.93,1.18,1.48,1.69C181.56,99.76,181.64,99.46,181.64,99Zm0-.25c0-.63,0-1.4,0-1.95a5.79,5.79,0,0,1-1.31-1.18,4.09,4.09,0,0,0,0,1.44C180.8,97.56,181.09,98.23,181.64,98.74Zm0-3.38s0,0-.08,0a3.9,3.9,0,0,1-.93-1.1,6,6,0,0,0-.3.93s.09,0,.13,0a6.66,6.66,0,0,0,1.14,1.27A10.87,10.87,0,0,0,181.64,95.36Zm.43-1.15c-.26-.17-.38-.5-.64-.67a6.53,6.53,0,0,0-.59.5,7.44,7.44,0,0,0,.85,1.1A4.4,4.4,0,0,1,182.07,94.21Zm1.35-.93a3.12,3.12,0,0,0-1.61,0,2.64,2.64,0,0,0,.43.68A2.43,2.43,0,0,1,183.42,93.28Zm4.91,18a12.63,12.63,0,0,1-1.27-1.35,7.81,7.81,0,0,0-1,0,11.07,11.07,0,0,0,1.56,1.23c.09,0,0,.17.13.12A2,2,0,0,0,188.33,111.26Zm1.48,0a13.37,13.37,0,0,1-1.48-1.35h-.89l.68.76c.25.21.46.55.67.64S189.51,111.22,189.81,111.26Zm1.57-.12a3.71,3.71,0,0,1-1.23-1.23c-.17,0-.26,0-.38,0a8.2,8.2,0,0,1,.55.68c.12.17.38.25.38.46a2.76,2.76,0,0,1-1.27-1.14,2.87,2.87,0,0,0-.59,0c.34.47.8.8,1.14,1.27,0,0,.08,0,.17,0s0,0,0,.13A3.29,3.29,0,0,0,191.38,111.14Zm.5-14.09c0-.09-.08,0-.21,0-.51-.55-.84-1.27-1.39-1.82a4.35,4.35,0,0,0,0,1.14c.59.59,1,1.35,1.6,1.9Zm.05,1.56a8.79,8.79,0,0,1-1.65-1.69c0,.38,0,.76,0,1.27a15.38,15.38,0,0,0,1.14,1.27,2.43,2.43,0,0,1,.3.46l-.13.13c-.51-.42-.89-.93-1.35-1.39v1.22l.71.81c.26.29.6.55.64.88a2.7,2.7,0,0,1-1.06-.88c-.08-.09-.17-.26-.29-.26,0,.38,0,.76,0,1.14a14.12,14.12,0,0,0,1.48,1.78C191.71,101.74,191.93,100.22,191.93,98.61Zm0,10.41a7.37,7.37,0,0,1-.09-1.18c-.63-.34-1.06-1.1-1.52-1.57.08.51,0,.89,0,1.27l1.14,1.1C191.63,108.77,191.8,109.06,191.93,109Zm-.09-3.55v-1.91c-.08,0-.13,0-.21,0a10,10,0,0,1-1.27-1.48,13.22,13.22,0,0,0,0,1.78C190.83,104.41,191.33,105,191.84,105.47Zm-1.48.25a20.11,20.11,0,0,0,1.48,1.86c0-.55,0-1.14,0-1.86-.59-.34-.93-.93-1.48-1.31C190.4,104.88,190.32,105.3,190.36,105.72Zm1.52,3.72c-.46-.5-1-.93-1.52-1.43a2.52,2.52,0,0,1,0,.55l1.35,1.43v.09c-.29,0-.5-.3-.72-.47a4.14,4.14,0,0,0-.63-.55,3.83,3.83,0,0,1,0,.68,4.83,4.83,0,0,0,1.31,1.14A6.45,6.45,0,0,0,191.88,109.44Zm.17-14c-.42-.38-.67-1-1.14-1.35a1.67,1.67,0,0,0-.47.72c.51.67.94,1.39,1.44,2C192,96.37,191.93,95.82,192.05,95.44Zm.26-1.1c-.22-.3-.47-.51-.64-.8-.13.12-.38.12-.42.33.29.39.55.81.84,1.15A3.39,3.39,0,0,0,192.31,94.34Zm1.22-1.06a2.7,2.7,0,0,0-1.52.09,3.69,3.69,0,0,0,.47.63A1.9,1.9,0,0,1,193.53,93.28Zm4.83,18.15a8.53,8.53,0,0,1-1.44-1.44c-.34.05-.59,0-.89.05.3.21.59.5.89.76A2.13,2.13,0,0,0,198.36,111.43Zm1.31.09c-.38-.51-.93-1-1.4-1.53a5.56,5.56,0,0,0-.93.05c.47.5,1,.93,1.44,1.44A6.34,6.34,0,0,1,199.67,111.52Zm1.61.12a7.32,7.32,0,0,1-1.19-1.6c-.29-.21-.93-.05-1.31-.13.3.59.93,1,1.27,1.65C200.47,111.6,200.9,111.64,201.28,111.64ZM199.2,91c.3.63.81,1.05.89,1.9.09,0,.09-.13.21-.09.26.47.64.85.93,1.32a8.85,8.85,0,0,0-1.48-2.71C199.5,91.29,199.41,91,199.2,91Zm2.16,3.38c-.51,0-.8-.85-1.18-1.1,0,.38.12,1,.17,1.65.55.42,1,1.06,1.48,1.52A8.25,8.25,0,0,0,201.36,94.34Zm.55,11.13a5,5,0,0,1-1.65-1.74c0,.51,0,.81,0,1.27a19.22,19.22,0,0,0,1.69,1.91C201.87,106.4,201.91,106,201.91,105.47Zm0,1.86a3.3,3.3,0,0,0-.42-.42c-.43-.47-1-1.06-1.27-1.44,0,.51,0,.76,0,1.31a12.51,12.51,0,0,0,1.61,2C201.78,108.26,202,107.75,201.91,107.33Zm0,1.86a12.21,12.21,0,0,1-1.65-1.9c0,.42,0,.89,0,1.27a11.36,11.36,0,0,0,1.57,1.6A8.09,8.09,0,0,1,201.91,109.19Zm.13-7.4c-.13,0-.13,0-.21,0a8.82,8.82,0,0,1-1.48-1.61c0,.42,0,.89,0,1.4a13.61,13.61,0,0,0,1.14,1.14,3.4,3.4,0,0,1,.38.38s-.08.17-.17.17-.29-.25-.34-.3l-1.05-.93-.09,1.36c.13,0,.13-.09.17,0a13.37,13.37,0,0,0,1.14,1.49c.09.12.21.38.38.38C202,104.11,202,103,202,101.79Zm-.26,8.8c-.55-.47-1-1.06-1.52-1.53a4.41,4.41,0,0,1,0,.72,9.07,9.07,0,0,0,1.06,1.44c.13.13.25.34.47.34C201.83,111.26,201.78,110.93,201.78,110.59ZM200.6,98.36A7.94,7.94,0,0,0,202,99.92c0-.55,0-1.14,0-1.69,0,.09,0,.17-.13.17-.46-.51-.93-1-1.35-1.56,0,.93,0,1.82-.08,2.92h.16a10.92,10.92,0,0,0,1,1.39c.21.09.25.38.51.42v-1.43c-.05-.09-.05,0-.13,0a2.49,2.49,0,0,1-.93-.85C200.68,99,200.22,98.53,200.6,98.36Zm1.14-1.65c-.51-.42-.89-.93-1.35-1.35a8.53,8.53,0,0,1,0,1L202,98.19c0-.47,0-1.06-.08-1.52C201.83,96.58,201.83,96.75,201.74,96.71Z"/><path class="bef06467-c028-46d5-9627-bfd5901e0e38" d="M203.53,105.13a3.31,3.31,0,0,1,0-.89,5.75,5.75,0,0,1,.05-1,7.07,7.07,0,0,1,1.48-3.13c.12,0,.12,0,.17,0a14.86,14.86,0,0,1,6.17-3,7.78,7.78,0,0,1,2.12-.72c.13-.76.21-2-.42-2.45a1.54,1.54,0,0,0-.55-.21,1.26,1.26,0,0,0-.51-.22,3.15,3.15,0,0,0-1.65.43,2.82,2.82,0,0,0-1.31,2.37c0,.25.08.46,0,.67a.27.27,0,0,1,0,.3c-1.27.08-2.16.08-3.56.13a.4.4,0,0,1,0-.22,9.07,9.07,0,0,1-.89-1c-.21,0-.25,0-.38,0,.09.12.26.29.51.55s.72.42.46.67a1.38,1.38,0,0,1-.67-.46l-.72-.68a.14.14,0,0,1,0-.21.21.21,0,0,1-.26-.13,26,26,0,0,1,.17-2.62,4.41,4.41,0,0,1,1.1-2.41,5.66,5.66,0,0,1,1.36-1.31,1.87,1.87,0,0,1,.46-.38c.09-.09.22-.09.3-.13s.21-.17.34-.21a6.35,6.35,0,0,1,.72-.26,11.69,11.69,0,0,1,2.71-.42,11.34,11.34,0,0,1,3.34.55,7.51,7.51,0,0,1,1.14.47,3.11,3.11,0,0,1,1,.71h.25a8.09,8.09,0,0,1,2.66,2.37,8.82,8.82,0,0,1,.81,3.94l.17,2.92c.13,1.9,0,3.68,0,5.5l.13,1.48c0,1.61.08,3.47.08,5-.08.09-.17.09-.25.21-.13,0-.17-.12-.26-.17a17.92,17.92,0,0,1-2.07.09c-.51,0-1,.3-1.48.13-.08-.09.13-.13,0-.22-.34-.46-.84-.76-1.18-1.18,0-.34-.26-.47-.3-.8a4.25,4.25,0,0,1-2.33,2.2c-.21,0-.38.17-.55.21-.38.08-.88,0-1.18.25-.34-.08-1,0-1.48-.13-2.16-.33-3.17-2-4.61-3.17,0-.08.08-.08,0-.17l-.38-.59s0-.08,0-.13a.16.16,0,0,0-.09,0,4.93,4.93,0,0,1-.59-1.73v-.34C203.62,105.34,203.53,105.26,203.53,105.13Zm.43.3v.38a4.16,4.16,0,0,0,.76,1.82l.21.38a4.5,4.5,0,0,0,1.1.84l.64.38a8.07,8.07,0,0,0,2.15.81,7.14,7.14,0,0,0,.93-.09,4.78,4.78,0,0,0,1.32-.12,6.93,6.93,0,0,0,2.75-1.15c.12-.12.33-.21.42-.34s.21-.46.25-.46c.34-.09.3.51.43.72s.21.68.42.89a24.63,24.63,0,0,0,3,.21.54.54,0,0,1,0-.55,19.14,19.14,0,0,1-.08-2.16c0-.42-.13-.89-.13-1.31,0-1.19,0-2.5,0-3.68v-1.4c0-.29.05-.63.05-1l-.09-2.84c0-.5,0-1,0-1.52a12.14,12.14,0,0,0-.47-3l-.08-.25a3.51,3.51,0,0,0-.59-1,10.23,10.23,0,0,0-1.44-1.27s0,0,0,0a4.47,4.47,0,0,0-2.2-.8c-.22-.17-.64-.17-.89-.3-.47,0-1-.13-1.44-.13a4,4,0,0,0-.93.13,4.72,4.72,0,0,0-2,.38c-.55,0-.93.47-1.44.64l-1.06,1-.21.21c-1.1,1.06-1.4,2.84-1.48,4.82,1.31,0,2.71.26,4.1.22a4.43,4.43,0,0,1,.13-1.49c0-.16.17-.21.17-.38a3.38,3.38,0,0,1,1.95-1.69c1.22-.42,2.24.34,3.08.85l.38.46a4.42,4.42,0,0,1,.34,2.54c.47.34-.21.55-.42.64-1.31.25-2.54.88-3.85,1.27a16.76,16.76,0,0,0-3,1.39c-.47.42-1,.81-1.53,1.19-.08.25-.29.38-.38.63,0,0,0,.13,0,.21s-.17.09-.21.13a4.89,4.89,0,0,0-.64,2.5A6.38,6.38,0,0,0,204,105.43Zm2.54-8.38c-.21-.21-.64-.47-.55-.85a7.14,7.14,0,0,0-.93,0,3.78,3.78,0,0,0,.8.89C206,97.05,206.29,97.13,206.5,97.05Zm2.41,0a7.72,7.72,0,0,1-.89-.68,6,6,0,0,0-.85,0,2,2,0,0,1,.47.68c-.38.12-.55-.51-.89-.68-.17-.09-.34,0-.59,0,.21.17.38.67.72.8A3.66,3.66,0,0,0,208,97,3.33,3.33,0,0,0,208.91,97Zm1.35,14.42c-.29-.25-.63-.84-1-1s-.6,0-.89-.13c.13.26.55.43.68.76-.09,0-.09,0-.17,0-.77-.51-1.27-1.23-2.29-1.48a.38.38,0,0,0-.38-.17A5.91,5.91,0,0,0,210.26,111.43ZM209,95.27c-.3-.21-.39-.55-.64-.8-.3.72-.3,1.82.38,2.07A8,8,0,0,1,209,95.27Zm-.72,9.1a1.77,1.77,0,0,1-.09-.85,2.5,2.5,0,0,1,.42-1.1v-.21c1.27-1.31,3.18-1.69,5.12-2.24.09.08,0,.34.13.42-.13,1.35.3,3-.21,4.1-.42.85-1.35,1.15-2.24,1.57a3.76,3.76,0,0,1-2.41-.59s0-.13-.13-.17-.17-.13-.26-.17A3.13,3.13,0,0,1,208.32,104.37ZM209.71,94a2.65,2.65,0,0,0-.55-.67,5,5,0,0,0-.59.76,3.8,3.8,0,0,0,.55.84A3.68,3.68,0,0,1,209.71,94Zm-1.14,9.65a1.84,1.84,0,0,0,1.35,1.78c0-.21-.21-.47-.12-.76C209.2,104.54,209,104,208.57,103.69Zm.08-.38a6,6,0,0,0,.85,1c.09.09.17.26.3.21a8.07,8.07,0,0,1,.25-1,7.84,7.84,0,0,1-1-1.06C208.91,102.76,208.7,102.93,208.65,103.31Zm.6-1.18a3,3,0,0,0,1,1c0-.17.21-.3.3-.51a3.08,3.08,0,0,0-.81-.8C209.59,101.91,209.46,102,209.25,102.13Zm1.22-8.55c-.25-.17-.21-.55-.46-.72-.17.13-.47.17-.59.34a4.18,4.18,0,0,1,.5.72Zm1.06,17.68a4.91,4.91,0,0,0-.89-.76c0-.08.05-.12.05-.17-.34,0-.6.09-1,.09a12.15,12.15,0,0,0,1,1A4.57,4.57,0,0,0,211.53,111.26Zm.42-10c-.16.13-.38.42-.59.63a5,5,0,0,0-1.27,2.42c0,.5,0,1.18.43,1.26a2.57,2.57,0,0,0,1.14-.08,5.22,5.22,0,0,0,.68-.38,2.8,2.8,0,0,0,.93-.68c.5-1.1.17-2.88.21-4h0A11.1,11.1,0,0,0,212,101.28Zm-1.81.38a4.83,4.83,0,0,0,.59.76c.12-.34.51-.55.55-.85a2.48,2.48,0,0,1-.55-.21C210.56,101.49,210.26,101.53,210.14,101.66Zm1.14-8.34c0-.25-.43-.42-.3-.67a2.94,2.94,0,0,0-.63.12l.38.68A1.78,1.78,0,0,1,211.28,93.32Zm1.48,17.61-1-.81a2.87,2.87,0,0,0-.85.21,11.24,11.24,0,0,1,1,.93Zm.13-17.48a6.21,6.21,0,0,0-1.57-.72c.08.21.21.3.3.51C212,93.07,212.55,93.37,212.89,93.45Zm-1.57,7.74c.08,0,.17.22.25.17.17-.21.43-.29.6-.5A2.74,2.74,0,0,0,211.32,101.19Zm3.26,7.28c-.13.34-.68.59-.93.81l-.09.12s-.17,0-.25.09a4.46,4.46,0,0,1-1.14.46c.25.34.59.59.84.89a3.72,3.72,0,0,0,.64-.46,2.32,2.32,0,0,0-.76-.55c.25-.43.71.12.93.33C214.15,109.7,214.79,109.15,214.58,108.47Zm2.54,2.58a10.59,10.59,0,0,0-.81-1.06,1.41,1.41,0,0,0-.59,0A3.47,3.47,0,0,0,217.12,111.05Zm2.41-.21c-.34-.21-.68-.51-1-.76-.25.08-.42-.09-.72,0a5.51,5.51,0,0,1,.47.64c-.42.08-.55-.47-.85-.72a3.72,3.72,0,0,1-.67,0c.21.34.46.63.63,1C218.13,110.84,218.77,111,219.53,110.84Zm-2.08-19.93a4.32,4.32,0,0,1,.64,1.61c.59.21.8.85,1.18,1.27A4.44,4.44,0,0,0,217.45,90.91Zm2,3.43c-.46-.42-.72-1-1.18-1.44a11,11,0,0,1,.12,1.14.3.3,0,0,1,.22,0c.29.5.63,1,.93,1.52-.51-.09-.72-.8-1.06-1.14,0,.29,0,.42,0,.76.17.25.42.51.59.76a10.11,10.11,0,0,1,.51.89c-.13,0-.17,0-.25,0a10.51,10.51,0,0,0-.85-1.14,3.71,3.71,0,0,1,0,.67c.47.43.8,1.15,1.23,1.53A23.17,23.17,0,0,0,219.4,94.34Zm.42,10.41c0-.55,0-1,0-1.61-.38-.55-.89-1-1.27-1.57a14.75,14.75,0,0,1,0,1.49c.13,0,.13.08.21.08A17,17,0,0,0,219.82,104.75Zm.05.38c-.6-.47-.85-1.19-1.4-1.69,0,.42,0,1,0,1.39.05,0,.17,0,.17.09.42.51.85,1,1.23,1.52C219.91,105.93,219.87,105.55,219.87,105.13Zm-.13-5.88a9.13,9.13,0,0,1,0-1c-.51-.29-.76-.89-1.19-1.35,0,.29.05.51.05.8C219,98.11,219.27,98.78,219.74,99.25Zm.17,7.4c-.47-.25-.89-1-1.35-1.44a5.06,5.06,0,0,0,0,1.23c0,.09.08,0,.16,0l1.27,1.65C220,107.79,220,107.12,219.91,106.65Zm-.13-5.37a1.77,1.77,0,0,0-.34-.47c-.25-.34-.63-.63-.88-.93,0,.55-.05,1,0,1.53l.16-.09a8.4,8.4,0,0,0,1.06,1.31C219.66,102.13,219.87,101.66,219.78,101.28Zm0-.47a10.5,10.5,0,0,0,0-1.18c-.42-.47-.76-1.1-1.18-1.48V99.5A12.46,12.46,0,0,1,219.78,100.81Zm.17,7.45c-.55-.34-.85-1-1.35-1.44a10.09,10.09,0,0,0,0,1.1c.08,0,.08-.13.21-.08.46.46.76,1.1,1.18,1.6C220,109.15,220,108.64,220,108.26Zm.09,2.58c0-.51,0-.59,0-1.1-.55-.46-.8-1.18-1.35-1.65-.08.68.13,1.14,0,1.74C219.15,110.12,219.57,110.5,220,110.84Z"/><path class="bef06467-c028-46d5-9627-bfd5901e0e38" d="M237.62,91.42c0,.13-.13.13-.13.21-.13,1-.21,2.24-.25,3.18,0,0-.13,0-.17.08-1.23,1.73-2.37,3.55-3.56,5.33-.59.89-1.27,1.74-1.82,2.67s-1.31,1.65-1.9,2.54c1.65,0,3.09,0,4.65.08a5,5,0,0,1,1.15.08c.16,0,.29.3.46.43.42.46,1,.76,1.4,1.18-.13,1.36,0,2.92-.09,4.06.13,0,.13.13.09.3a14,14,0,0,1-3,.17,31.45,31.45,0,0,0-3.64,0c-1.77,0-3.68,0-5.2,0a2.53,2.53,0,0,0-1.27.21c-.93-.72-1.9-1.4-2.79-2.11a20,20,0,0,1,0-3.94c0-.08-.13-.08-.13-.17.51-1,1.19-1.82,1.7-2.75a15.65,15.65,0,0,1,.88-1.35l4.45-6.73a8,8,0,0,0-1.36-.08,17.81,17.81,0,0,0-2.2,0c-.08,0-.17,0-.25,0s-.34-.13-.51-.13-.21,0-.3,0a3,3,0,0,1-1.05-.77c-.34-.25-.6-.55-1-.8,0-.13,0-.25-.16-.34,0-1.31-.17-2.49-.09-3.93.13-.13.21-.13.25-.3,4.45-.13,8.85,0,13.8.13a13.26,13.26,0,0,0,1.9,2.37A.4.4,0,0,0,237.62,91.42Zm-10.16,14.51c0-.21-.21-.21-.25-.42a2.82,2.82,0,0,1,.42-.8c.17-.3.38-.55.51-.77,1.06-1.56,2.2-3,3.21-4.4.34-.5.64-1.05,1-1.56a53.59,53.59,0,0,0,3-4.57c0-.13.09-.13.09-.25s-.13,0-.09-.17a16.52,16.52,0,0,0,0-3.85c-.63.08-1.06-.13-1.44.08a18.93,18.93,0,0,0-2.24-.08c-.34,0-.8,0-1.27,0-2.54,0-5.5-.3-8.38,0a10.8,10.8,0,0,0,0,1.61c0,.38.13.76,0,1,.09,0,.05.08.05.17,0,.29,0,.72.08,1,2.2,0,5,.22,7.19.22.17.16.38,0,.47.25s-.34.63-.51.89a3.58,3.58,0,0,1-.59.84A10,10,0,0,1,227.5,97l-1.14,1.9a8.11,8.11,0,0,0-.55.68s0,.12,0,.21a11.52,11.52,0,0,0-.89,1.27c-.17.25-.38.46-.55.67a3,3,0,0,1-.25.51c-.51.81-.93,1.57-1.48,2.37-.17.3-.55.68-.6.93a2,2,0,0,0,0,.51,21.17,21.17,0,0,0,0,3.64c3.3,0,6.52,0,10,0a20.35,20.35,0,0,0,3.22,0,12.14,12.14,0,0,0,0-3.72C233,105.81,230,105.85,227.46,105.93Zm-3-11.67a10.68,10.68,0,0,1-.89-.89c-.29-.05-.59,0-.89-.05,0,0-.17.05-.21.09A6.09,6.09,0,0,0,224,94.47C224,94.26,224.33,94.3,224.5,94.26ZM226,111.39c-.59-.42-1.18-.8-1.78-1.27-.38,0-1.1,0-1.52,0,.55.43,1.31.68,1.86,1.1,0,.09,0,.09,0,.22C225,111.43,225.56,111.43,226,111.39Zm8.12-31.27c.13.38.17.93.55,1.15v.21c-.46.17-.46.67-.84,1l-.21.3a7.08,7.08,0,0,0-1.7,2.92c-.12,0-.12.08-.25.08.13.13.08.17.08.34a2,2,0,0,1-1.1.46h-1a13.78,13.78,0,0,0-1.7,0c-.12-.55-.71-.76-1.1-1.1v-.21l-.16-.21a6.59,6.59,0,0,0-1.74-3.13,17.78,17.78,0,0,0-1.69-1.78c-.13-.12,0-.17,0-.33.38,0,.72-.3,1.27-.3a9.74,9.74,0,0,0,1.31-.09c.3,0,.42.09.64,0s.63.43.67.55c.21.21.43.38.6.59.29,0,.88.6,1.05.89a20.8,20.8,0,0,1,1.53-1.69,10.54,10.54,0,0,0,2.79.09,5.28,5.28,0,0,1,.89,0ZM227.17,85c1-.13,2.11,0,3.25-.21a.68.68,0,0,0,.21-.47,2.26,2.26,0,0,0,.55-1.14,11.08,11.08,0,0,1,2.12-3,23.2,23.2,0,0,1-2.92-.09,7.37,7.37,0,0,0-1.31,1.48l-.34.13-.34-.13c-.51-.63-1.27-1-1.73-1.6-.13,0-.09-.09-.21-.13a14.64,14.64,0,0,0-2.71.13c.89,1.14,2.16,2.07,2.79,3.55A10.08,10.08,0,0,0,227.17,85Zm-1.06,9.52c-.13-.21-.34-.3-.47-.47s-.42-.59-.63-.63-.55,0-.93,0c.25.46.8.72,1.14,1.18A6.63,6.63,0,0,1,226.11,94.51Zm1.39,16.88c-.38-.3-.84-.68-1.18-.93a1.43,1.43,0,0,0-.47-.34,3.44,3.44,0,0,0-1.1,0,19.28,19.28,0,0,1,1.7,1.27A4,4,0,0,0,227.5,111.39Zm0-16.92a7.24,7.24,0,0,1-1-1c-.38.05-.76-.12-1,0,.29.34.67.68.93.93,0,0,0,.09,0,.13A9.94,9.94,0,0,0,227.5,94.47Zm1.44,16.92a14.37,14.37,0,0,1-1.56-1.1c0-.08,0-.08,0-.17a8,8,0,0,0-1,0c.55.38,1,.89,1.57,1.31A7.24,7.24,0,0,0,228.94,111.39Zm-.29-16.8c.25-.42.42-.63.67-1h-1.27c.13.29.38.46.47.8-.25.09-.34-.17-.47-.29a3.09,3.09,0,0,1-.33-.43c-.09,0,0-.08-.05-.12a3,3,0,0,0-.67,0c.25.33.67.55.84,1A5.49,5.49,0,0,1,228.65,94.59Zm-.05-8.42a.21.21,0,0,1,.22,0c-.55-.33-.85-1.1-1.49-.8a4.46,4.46,0,0,0,1,.8Zm-.46,18.49c-.17.3-.34.55-.51.85.47-.08.93,0,1.35-.08C228.73,105.17,228.43,104.92,228.14,104.66Zm2.49,6.73c-.46-.38-1-.68-1.43-1a.24.24,0,0,1,0-.26c-.55,0-1.06,0-1.48,0,.25.21.59.42.88.68s.64.55.93.59A8,8,0,0,0,230.63,111.39Zm-.76-6.6c-.38-.34-.72-.68-1.1-1-.17.21-.29.42-.46.67a6.48,6.48,0,0,1,.93.89s0,0,0,.13h.29C229.53,105.13,229.75,105,229.87,104.79Zm.34-18.66a2.59,2.59,0,0,1-.84-.8h-.47a1.44,1.44,0,0,0-.47,0c.22.3.89.42.68.8a1.44,1.44,0,0,0,.47,0Zm.3,17.77a7.81,7.81,0,0,1-1.1-1.06c-.13.26-.34.47-.47.72a12.54,12.54,0,0,1,1.1.93C230.17,104.28,230.42,104.16,230.51,103.9Zm1.65,7.45c-.51-.34-1-.76-1.57-1.1a.25.25,0,0,0,0-.17,10.83,10.83,0,0,1-1.14,0c.38.34.89.63,1.35,1,.13.09.3.3.42.34C231.48,111.48,231.78,111.26,232.16,111.35Zm-.3-9.35a4,4,0,0,0-1.06-1,7.29,7.29,0,0,0-.55.81c.3.42.77.63,1,1.1-.09,0,0,.12-.13.12-.38-.29-.72-.63-1.1-1-.08.21-.3.34-.38.55a14.8,14.8,0,0,0,1.1,1.14A8,8,0,0,0,231.86,102Zm-.59-16-.76-.84c-.21.13-.55,0-.68.08.13.43.8.43.68.89A1.34,1.34,0,0,0,231.27,86Zm.68-1.52c-.3-.13-.43-.38-.64-.68-.13.47-.34.72-.46,1.19.21.21.38.51.67.63C231.65,85.29,231.78,84.86,232,84.48Zm.63,16.54c-.3-.38-.68-.76-1-1.1a6.44,6.44,0,0,0-.55.81,8,8,0,0,1,1.1,1A4.19,4.19,0,0,1,232.58,101Zm1.1,10.33c-.13-.13-.29-.17-.42-.3s-.21-.17-.3-.25-.13,0-.17-.09c-.51-.33-.8-.8-1.69-.59a17.54,17.54,0,0,1,1.48,1.23A5.05,5.05,0,0,0,233.68,111.35Zm-1.14-27.93c-.34-.12-.42-.42-.72-.63a1.54,1.54,0,0,0-.3.63c.3.22.3.6.64.72C232.28,83.85,232.41,83.72,232.54,83.42Zm.55,16.76c-.34-.34-.59-.76-1-1.14a3.57,3.57,0,0,0-.34.59,8.91,8.91,0,0,0,1,1.1A2.42,2.42,0,0,0,233.09,100.18Zm.17-17.52-.89-.8a1.32,1.32,0,0,0-.3.59,3.87,3.87,0,0,0,.68.76Zm.59,16.42c-.34-.38-.63-.81-1-1.19-.13.34-.43.51-.55.85.34.42.63.8,1,1.18A6.08,6.08,0,0,0,233.85,99.08Zm-.21-17.39-.21-.25A4.36,4.36,0,0,1,233,81c-.12.17-.25.3-.38.51.21.3.64.59.81.93a.74.74,0,0,0,.21-.3C233.85,82,233.93,81.82,233.64,81.69Zm1.48,29.7a8.35,8.35,0,0,1-1.86-1.27,1.73,1.73,0,0,0-.64,0,10.39,10.39,0,0,1,1.48,1.23A6.92,6.92,0,0,0,235.12,111.39Zm-.72-13.07a13.13,13.13,0,0,0-1-1.23,2,2,0,0,1-.34.47c.3.46.68.8.93,1.26A2.13,2.13,0,0,0,234.4,98.32Zm-.08-17c-.22-.3-.3-.59-.47-.8l-.13-.3c-.12.17-.29.21-.42.51a.47.47,0,0,1,.21.21l.17.25c.13.17.17.34.38.47C234.1,81.52,234.27,81.52,234.32,81.35Zm.76,15.82a6.61,6.61,0,0,0-1-1.1c-.08.22-.33.47-.46.72a6.9,6.9,0,0,1,.89,1.23A3,3,0,0,0,235.08,97.17Zm.34,12.91a9.24,9.24,0,0,1-1.49.08,1.12,1.12,0,0,0,.81.51,6.34,6.34,0,0,0,.8.72c.55,0,1.06-.08,1.53-.08,0-.09,0-.26,0-.3s-.09.08-.17.13A9.43,9.43,0,0,1,235.42,110.08Zm.5-14.09a12.58,12.58,0,0,0-1-1.18,6.06,6.06,0,0,1-.51,1l.89,1.14C235.5,96.62,235.67,96.29,235.92,96Zm.85-1.27a3.76,3.76,0,0,1-1.1-1.18c0,.21-.55.84-.55,1a1.83,1.83,0,0,1,.25.3,11.14,11.14,0,0,1,.72.88C236.26,95.31,236.6,95.1,236.77,94.72Zm-1.1,15.19c.46.34,1,.63,1.4,1a5.88,5.88,0,0,0,0-.84A14.26,14.26,0,0,0,235.8,109,3.48,3.48,0,0,1,235.67,109.91Zm1.52-18.57a16.05,16.05,0,0,1-1.44-1.74c.05.21,0,.42.05.64v.42c.08.08.25,0,.33.08a3.46,3.46,0,0,1,.47.6,7.75,7.75,0,0,0,.51.59C237.15,91.67,237.15,91.59,237.19,91.34Zm-1.44,14.93a3.47,3.47,0,0,1,0,.72,6.76,6.76,0,0,1,1.36,1.31,4,4,0,0,0,0-1c-.3-.21-.6-.47-.94-.68C236.05,106.48,235.84,106.23,235.75,106.27Zm1.19-12.44c0,.13-.13,0-.17.09-.34-.3-.64-.76-1-1.1v.38a2.91,2.91,0,0,0,1.1,1.18A2.16,2.16,0,0,0,236.94,93.83Zm.17,14.73c-.47-.34-.81-.77-1.31-1.1a9.13,9.13,0,0,1,0,1.05c.38.38.89.68,1.27,1.06A8.87,8.87,0,0,1,237.11,108.56Zm0-16.17c-.38-.46-.77-.93-1.19-1.35v1.27c.38.46.68,1,1.1,1.4C237,93.28,237.07,92.94,237.07,92.39Z"/><path class="bef06467-c028-46d5-9627-bfd5901e0e38" d="M238.57,98.82c0-2.15,0-4.23,0-6.21,0-.6.08-1.19.08-1.74s0-1.23,0-1.86a3.91,3.91,0,0,1,1.73-.38,16.55,16.55,0,0,1,2.92.17,1.46,1.46,0,0,0,.38.17c.47.59.85,1.31,1.4,1.9.09.09,0,.13,0,.21.25.17.34.47.51.72,0,0-.17.09-.17.13,0,2.2.08,4.74.17,6.81,0,.93,0,2,.08,2.83a1.53,1.53,0,0,0,.25.6c0,.12-.12.08-.12.12.21,1.1.29,2.37,1,3,.17,0,.3,0,.38.17s.34-.17.59-.22a4,4,0,0,0,.89-1,6.38,6.38,0,0,0,.34-.93,22.71,22.71,0,0,1-.08-2.58c0-.17-.09-.38-.09-.55,0-1.1,0-2.25,0-3.39,0-1.73.21-3.76.17-5.58a17.66,17.66,0,0,0-.09-2.2,2,2,0,0,1,.72-.17,27.15,27.15,0,0,1,3.81,0c.09,0,.13,0,.13.13s.08-.17.21-.09,0,.13.13.09a22.34,22.34,0,0,0,1.77,2.66c-.08.21.05.51.05.76a6.32,6.32,0,0,1,0,1.23c-.05,1.14-.05,2.37,0,3.51,0,1.53-.05,3.13-.05,4.7,0,1.23-.08,3.09,0,4.53a9.93,9.93,0,0,1,0,1.22,23.08,23.08,0,0,0,.05,2.46,3.85,3.85,0,0,1,0,1.18c-.09.13-.22.09-.34.21a17.07,17.07,0,0,1-2.71.26c-.3,0-.68,0-.68-.34-.42-.26-.89-.47-1.27-.76-.17-.17-.25-.38-.46-.47s-.26.17-.38.26c-.51.25-1.06.42-1.61.63a7.78,7.78,0,0,1-3.39.68,5.28,5.28,0,0,1-3-1.19,13.53,13.53,0,0,1-1.9-2.45,2.73,2.73,0,0,0-.47-.89,6.08,6.08,0,0,1-.46-1.57c0-.25-.17-.5-.22-.76s0-.8-.08-1.22-.13-.85-.13-1.32C238.44,101.24,238.57,100,238.57,98.82Zm.34,2.8a19.39,19.39,0,0,0,.25,3.09,8.35,8.35,0,0,0,.17,1.22l.25.64a4.37,4.37,0,0,0,.85,1.39,5.78,5.78,0,0,0,.63.77,1.26,1.26,0,0,0,.3.16c.08.09.17.22.25.3a3.77,3.77,0,0,0,.89.34,9.75,9.75,0,0,0,3.13.38,6.94,6.94,0,0,0,3.09-1.1,3,3,0,0,1,.51-.47c.13-.12.3-.5.46-.5.34,0,.22.76.43.93a3.65,3.65,0,0,0,.34,1.1,21.55,21.55,0,0,0,2.79,0c0-.13.17-.22.21-.34s-.08-.26-.08-.34c0-.34.12-.72.08-1.1a3.3,3.3,0,0,1,.09-1.31,8.45,8.45,0,0,1-.17-1.61c0-.09.08-.21.08-.3s0-.25,0-.38,0-.25,0-.34c0-1-.08-1.9,0-2.83.08-4.11,0-7.87,0-12a23.47,23.47,0,0,0-4.19-.08c0,.59,0,1.35,0,2.07,0,1.1-.09,2.54-.13,3.77,0,.84,0,1.65,0,2.49,0,.68,0,1.36,0,2.08,0,1.31.17,2.75.17,4.06,0,.08-.13.08-.17.17-.38,1.61-1.95,2.37-3.93,2.07-.3-.13-.47-.34-.81-.34a2.86,2.86,0,0,1-1-1.73c-.09-.93.08-2,0-3-.05-.55-.13-1.18-.13-1.73s.08-1.06.13-1.65,0-1.23,0-1.86c0-1.91,0-4.4-.05-6.39a10.24,10.24,0,0,0-4.27,0c.08,1,0,2.12,0,2.88C239,95.52,238.86,98.66,238.91,101.62Zm4.35,9.39c-.29-.47-.76-.8-1-1.27a2.3,2.3,0,0,1-1.23-.63A4.65,4.65,0,0,0,243.26,111Zm1.44.34c-.29-.42-.76-.76-1.06-1.19-.38-.08-.63-.17-1-.25.34.47.76.85,1.1,1.27C244.07,111.22,244.36,111.31,244.7,111.35Zm-1-9.73c.08,0,.17,0,.21,0a16.33,16.33,0,0,0,1.65,1.44c-.09-.38-.09-.68-.17-1.1-.3-.26-.55-.55-.89-.81-.08-.17-.3-.29-.42-.42s-.34-.3-.38-.51c.17-.17.34.09.42.17.3.3.51.55.8.81.13.08.22.29.38.25,0-.3,0-.59,0-1.06a26,26,0,0,1-1.65-2A28.32,28.32,0,0,0,243.69,101.62ZM243.6,92c.09,0,.09,0,.09.09,0,1,.08,1.77,0,2.71,0,0,.13,0,.17.08.25.38.59.85.89,1.23.08.08.25.29.34.25A12.24,12.24,0,0,1,245,95c-.08,0-.08,0-.13,0a8.28,8.28,0,0,1-.88-1.4c-.13-.17-.39-.46-.13-.59.42.59.72,1.27,1.14,1.78,0-.64,0-1.15,0-1.57-.46-.59-.89-1.27-1.35-1.86C243.69,91.59,243.77,91.89,243.6,92Zm0,6.18s.09,0,.17,0a14.51,14.51,0,0,0,1.48,1.82,12.48,12.48,0,0,0-.08-1.4,3.57,3.57,0,0,0-.55-.55c-.38-.42-.64-.76-.93-1.14C243.69,97.26,243.64,97.77,243.6,98.19Zm.09-7.23c.5.59.84,1.31,1.35,1.9.09-.25-.08-.93,0-1.14-.17-.26-.3-.55-.46-.76,0,0,0-.09,0-.13-.34-.38-.64-.93-1-1.27C243.64,90.15,243.69,90.49,243.69,91Zm1.44,5.83a10.22,10.22,0,0,1-1.4-1.69c0,.55,0,1.23,0,1.57.08,0,.12,0,.12,0a7.91,7.91,0,0,0,1.36,1.52C245.17,97.81,245.13,97.39,245.13,96.79Zm-1.44,5c0,.63,0,1,.08,1.56,0,0,0-.12.09-.12.33.25.63.59,1,.89s.81.5,1.19.8a5.75,5.75,0,0,1-.43-1.31A25.88,25.88,0,0,0,243.69,101.83Zm2.54,3.6a19.1,19.1,0,0,1-2.46-2c-.08,1.82,1.61,2.41,2.92,2a.56.56,0,0,1-.34-.17S246.31,105.43,246.23,105.43Zm-.3,5.92c-.34-.38-.85-.59-1-1.14a3.24,3.24,0,0,1-.88,0,14.09,14.09,0,0,0,1.14,1.18A2.37,2.37,0,0,0,245.93,111.35Zm2.71-.81c-.34-.21-.55-.55-.89-.8a4.6,4.6,0,0,1-.85.3c.21.29.55.5.76.8,0,0,0,.09-.08.09-.51-.13-.72-.51-1.06-.81a11.08,11.08,0,0,1-1.27.13c.13.17.38.46.59.68a2.52,2.52,0,0,0,.47.38c.17,0,.42-.13.59-.17C247.49,111,248.09,110.76,248.64,110.54Zm.84-.33a2.91,2.91,0,0,0-.72-.89s.05-.13,0-.13c-.25.17-.46.3-.67.42.25.3.55.55.84.85A2.31,2.31,0,0,1,249.48,110.21Zm.51-.34a12.75,12.75,0,0,0-.46-1.36,1.88,1.88,0,0,1-.64.55,2.64,2.64,0,0,1,.8,1C249.82,110,250,110,250,109.87Zm3.43,1.48c-.3-.26-.59-.55-.85-.81-.08-.12-.12-.25-.25-.29s-.55,0-.81,0h-.76a6.51,6.51,0,0,0,1.27.84c.17.09.3.26.43.3A3.59,3.59,0,0,0,253.42,111.35Zm0-1.23c-.13.13-.47,0-.72.13a7.09,7.09,0,0,0,.55.55c.13.17.3.46.51.55a3.59,3.59,0,0,0,1.1-.13C254.39,110.84,253.93,110.5,253.46,110.12Zm.3-.25s.21.21.29.29a10.92,10.92,0,0,1,1.06.85c0,.08-.13.13,0,.21s.09,0,.13-.08v-3.3c0-.09-.13,0-.13-.09a10.9,10.9,0,0,0-1.27-1.44,4.68,4.68,0,0,1,0,1.06c.08,0,.08,0,.17,0,.29.59.89,1,1.18,1.56,0,.09-.08.13-.12.13a10.62,10.62,0,0,1-1.23-1.52c.08.55-.09,1.1.08,1.52h.17c.21.34.55.72.81,1.06.08,0,.29.25.08.38a10.22,10.22,0,0,1-1.14-1.14,1.21,1.21,0,0,1,0,.38S253.71,109.83,253.76,109.87Zm0-3.94c.17,0,.21.21.3.34.29.34.67.59.93.93.08.09.08.21.21.21,0-.42,0-1,0-1.48-.09,0-.09,0-.13,0-.42-.51-.89-.93-1.31-1.48C253.8,104.75,253.76,105.43,253.8,105.93Zm0-14.76a4,4,0,0,1,.8,1.1,5.17,5.17,0,0,0,.64.84c0,.09,0,.17-.09.3-.59-.42-.84-1.19-1.31-1.78,0,.68,0,1,0,1.74.09,0,0-.09.17-.05.38.51.8,1,1.23,1.49a26.54,26.54,0,0,0,0-3.09,8.76,8.76,0,0,1-1.44-2.08A9.75,9.75,0,0,1,253.8,91.17Zm0,10.15s.13,0,.21,0a16.36,16.36,0,0,0,1.23,1.27,10.08,10.08,0,0,0,0-1.1c-.43-.51-.93-1-1.4-1.48A13.5,13.5,0,0,1,253.8,101.32Zm0,.17a10.48,10.48,0,0,1,0,1.14c.21.55,1.06.89,1.27,1.44,0,0,.09.21,0,.3s-.26-.26-.34-.43a4.62,4.62,0,0,1-.89-.93,6.2,6.2,0,0,1,0,1.23s.13,0,.21,0a8.6,8.6,0,0,0,1.23,1.31c-.21-.89.25-2.16-.17-2.79C254.77,102.38,254.1,101.83,253.8,101.49Zm1.48-1.52c-.51-.47-1-.93-1.44-1.44a9.25,9.25,0,0,0,0,1.06.29.29,0,0,1,.17.17c.3.33.64.67.93,1,.13.09.26.25.34.25A9.17,9.17,0,0,0,255.28,100Zm-1.44-4.87a.38.38,0,0,1,.26-.08c.21.76.8,1.14,1.14,1.77,0-.59,0-1.22,0-1.69h-.13c-.38-.55-.89-1-1.27-1.52C253.84,94.09,253.88,94.59,253.84,95.1Zm0,.21v1.44s.13,0,.17,0a15.09,15.09,0,0,0,1.23,1.48,10.81,10.81,0,0,0,0-1.14s0,0-.13,0A16.46,16.46,0,0,1,253.84,95.31Zm0,3c.09,0,0,0,.13,0a9.08,9.08,0,0,0,1.31,1.32c0-.38,0-.77,0-1.15-.09,0-.09,0-.17,0-.38-.5-.89-.93-1.23-1.48Z"/></svg>